<svg width="100" height="70" viewBox="0 0 100 70" fill="none" xmlns="http://www.w3.org/2000/svg">
<path fill-rule="evenodd" clip-rule="evenodd" d="M90.8257 0C93.8221 0 96.4829 1.30479 98.1572 3.32297L49.5316 40.3673L1.33927 3.99566C2.9506 1.59943 5.85683 0 9.17431 0H90.8257ZM0 61.6667V10.569L34.5793 36.6667L0.0712823 62.7105C0.0242461 62.3686 0 62.0202 0 61.6667ZM3.16249 67.9617C4.77259 69.2314 6.87463 70 9.17431 70H90.8257C92.8023 70 94.6329 69.4322 96.1306 68.4664L59.386 40.4734L52.7783 45.5073C50.9095 46.931 48.1871 46.9367 46.3111 45.5209L39.6038 40.4587L3.16249 67.9617ZM64.3829 36.6667L99.7493 63.6098C99.9132 62.9863 100 62.3357 100 61.6667V9.53251L64.3829 36.6667Z" fill="#E22626"/>
</svg>
