<svg width="34" height="34" viewBox="0 0 34 34" fill="none" xmlns="http://www.w3.org/2000/svg">
<g clip-path="url(#clip0_2777_1227)">
<path d="M8.70428 16.934C9.14783 15.9473 9.97029 15.1803 10.9853 14.8049C9.37232 13.2368 8.43217 11.1043 8.3621 8.85693C5.09945 8.99021 2.24157 11.0812 1.12794 14.1494C0.512961 16.2975 1.75652 18.5367 3.90555 19.1515C5.8362 19.7036 7.87978 18.7577 8.707 16.9285L8.70496 16.934H8.70428Z" fill="#CA2B31"/>
<path d="M16.3929 19.2166C16.3378 19.5756 16.2338 19.9265 16.0848 20.2576C14.2487 24.3322 9.45607 26.1478 5.37912 24.3125C1.30284 22.4772 -0.513518 17.6866 1.32257 13.6113C0.432079 15.6608 1.37223 18.0442 3.42329 18.9344C5.4349 19.8075 7.77644 18.9208 8.70367 16.9338C9.14722 15.9471 9.96968 15.1801 10.9847 14.8047C12.3969 16.1865 14.2385 17.046 16.2052 17.2398C16.3773 17.2561 16.5514 17.267 16.7276 17.2738C16.697 17.9375 16.5841 18.595 16.3916 19.2315C16.3923 19.2274 16.3923 19.2227 16.3929 19.2166Z" fill="#831C1C"/>
<path d="M17.0602 17.2831C16.9098 17.2831 16.7622 17.279 16.6166 17.2715C16.4309 21.6398 12.7376 25.0303 8.36748 24.8447C3.99732 24.659 0.60542 20.9673 0.791138 16.599C0.965971 12.4918 4.25651 9.20128 8.36612 9.02584C8.35864 8.87896 8.35455 8.7314 8.35455 8.58248C8.35455 8.46824 8.35932 8.3574 8.36272 8.24316C3.56058 8.43084 -0.18099 12.4748 0.00676854 17.2756C0.194527 22.0764 4.23951 25.8164 9.04232 25.6287C13.5825 25.4512 17.2221 21.8132 17.399 17.2749C17.2853 17.2797 17.1738 17.2831 17.0602 17.2831Z" fill="#100F30"/>
<path d="M16.95 8.7015C17.9371 9.14486 18.7045 9.96698 19.08 10.9815C20.6487 9.36926 22.7821 8.4295 25.0304 8.35946C24.8978 5.09682 22.8045 2.2381 19.7337 1.12494C17.5847 0.510223 15.3445 1.75326 14.7295 3.90138C14.1772 5.83122 15.1234 7.87394 16.9534 8.70082H16.9507L16.95 8.7015Z" fill="#FA1D00"/>
<path d="M14.6677 16.3858C14.3085 16.3307 13.9575 16.2267 13.6262 16.0778C9.54992 14.2425 7.73355 9.45186 9.56964 5.37662C11.4057 1.30206 16.1983 -0.513536 20.2746 1.32178C18.2242 0.431663 15.8398 1.37142 14.9493 3.42162C14.0759 5.43238 14.9629 7.77294 16.9507 8.69978C17.9378 9.14314 18.7052 9.96526 19.0807 10.9798C17.6984 12.3915 16.8385 14.2323 16.6446 16.1981C16.6283 16.3709 16.6174 16.5449 16.6106 16.7204C15.9466 16.6898 15.2888 16.5769 14.6521 16.3845L14.667 16.3858H14.6677Z" fill="#F04F4F"/>
<path d="M16.6019 17.0524C16.6019 16.9021 16.606 16.7545 16.6134 16.609C12.2433 16.4281 8.84661 12.7405 9.02757 8.37216C9.20308 4.12692 12.7004 0.77724 16.9509 0.78268C21.2054 0.78268 24.685 4.16296 24.8633 8.37012C25.0102 8.36264 25.1578 8.35856 25.3068 8.35856C25.4211 8.35856 25.532 8.36332 25.6463 8.36672C25.4667 3.7298 21.636 0 16.9509 0C12.1446 0.00136 8.24864 3.8964 8.25 8.70128C8.25068 13.3715 11.9412 17.2081 16.61 17.3917C16.61 17.2788 16.6025 17.1652 16.6025 17.0524H16.6019Z" fill="#100F30"/>
<path d="M17.0519 25.3001C16.0648 24.8567 15.2975 24.0346 14.9219 23.02C13.3525 24.6289 11.2192 25.5653 8.97217 25.6312C9.09938 28.8979 11.1926 31.7621 14.2675 32.8759C16.4165 33.4907 18.6567 32.2476 19.2717 30.0995C19.8241 28.1697 18.8778 26.1269 17.0478 25.3001H17.0519Z" fill="#8D0000"/>
<path d="M19.3351 17.6139C19.6943 17.6689 20.0454 17.773 20.3767 17.9219C24.4529 19.7572 26.2693 24.5478 24.4332 28.6231C22.5971 32.6976 17.8045 34.5132 13.7275 32.6779C15.7779 33.568 18.1623 32.6283 19.0528 30.5781C19.9263 28.5673 19.0392 26.2267 17.0514 25.2999C16.0643 24.8565 15.297 24.0344 14.9214 23.0199C16.3051 21.6089 17.1657 19.7681 17.3603 17.8015C17.3766 17.6288 17.3875 17.4547 17.3943 17.2793C18.0582 17.3099 18.7161 17.4228 19.3528 17.6152L19.3345 17.6139H19.3351Z" fill="#B60000"/>
<path d="M17.392 17.3869C17.1362 17.4508 16.8688 17.4508 16.6131 17.3869C16.5443 17.1319 16.5443 16.8633 16.6131 16.6083C16.8648 16.5199 17.1396 16.5199 17.392 16.6083C17.4906 16.8585 17.4906 17.1367 17.392 17.3869Z" fill="#100F30"/>
<path d="M25.2956 17.0598C24.8521 18.0465 24.0296 18.8136 23.0146 19.1889C24.6276 20.757 25.5678 22.8895 25.6378 25.1369C28.9018 25.0043 31.7618 22.9119 32.8754 19.8424C33.4904 17.6943 32.2468 15.455 30.0978 14.8403C28.1671 14.2882 26.1236 15.234 25.2963 17.0632V17.0605L25.2956 17.0598Z" fill="#B31904"/>
<path d="M17.6066 14.7777C17.6617 14.4187 17.7658 14.0678 17.9148 13.7366C19.7516 9.66207 24.5449 7.84715 28.6211 9.68315C32.6974 11.5192 34.5131 16.3104 32.6763 20.385C33.5668 18.3355 32.6267 15.9521 30.5756 15.062C28.564 14.1888 26.2224 15.0756 25.2952 17.0625C24.8517 18.0492 24.0292 18.8162 23.0142 19.1916C21.6019 17.8098 19.7604 16.9503 17.7937 16.7565C17.6576 16.7429 17.5209 16.7341 17.3828 16.7273C17.3461 16.7273 17.3828 16.66 17.3481 16.6586C17.3481 16.6144 17.2733 16.6341 17.2781 16.5892C17.3175 15.9704 17.4277 15.3578 17.6073 14.7648C17.6073 14.7668 17.6066 14.7723 17.6059 14.7777H17.6066Z" fill="#EE1C00"/>
<path d="M16.9413 16.711C17.0917 16.711 17.2372 16.7171 17.3849 16.7246C17.5692 12.3563 21.2611 8.96444 25.6313 9.14804C30.0014 9.33232 33.3947 13.0227 33.211 17.391C33.0376 21.5002 29.7457 24.7928 25.6347 24.9669C25.6422 25.1138 25.6463 25.2613 25.6463 25.4102C25.6463 25.5245 25.6415 25.6353 25.6381 25.7496C30.4409 25.5619 34.1825 21.5186 33.9947 16.7178C33.807 11.917 29.762 8.177 24.9592 8.36468C20.4189 8.54216 16.7787 12.1808 16.6025 16.7192C16.7161 16.7151 16.8291 16.711 16.9427 16.711H16.9413Z" fill="#100F30"/>
<path d="M17.4008 16.9477C17.4008 17.098 17.3968 17.2456 17.3893 17.3911C21.7594 17.572 25.1561 21.2596 24.9751 25.6279C24.7996 29.8732 21.3023 33.2228 17.0519 33.2174C12.7974 33.2174 9.31769 29.8317 9.13945 25.6218C8.98911 25.6293 8.85237 25.6354 8.70339 25.6354C8.5891 25.6354 8.46869 25.6286 8.35645 25.6238C8.53604 30.2642 12.3667 34.0001 17.0519 34.0001C21.8581 33.998 25.7534 30.1016 25.7514 25.2974C25.7493 20.6279 22.0594 16.7927 17.3913 16.6084C17.3961 16.7213 17.4008 16.8348 17.4008 16.9477Z" fill="#100F30"/>
</g>
<defs>
<clipPath id="clip0_2777_1227">
<rect width="34" height="34" fill="white"/>
</clipPath>
</defs>
</svg>
