<svg width="864" height="363" viewBox="0 0 864 363" fill="none" xmlns="http://www.w3.org/2000/svg">
<path d="M536.779 143.572H737.221V225.123H536.779V143.572Z" fill="#A72116"/>
<path d="M724.442 108.605L754.51 105.457L761.211 7.92946C761.211 3.55226 757.659 0 753.281 0L728.23 0.336709L724.442 108.605Z" fill="#8D8D8D"/>
<path d="M602.841 111.501L625.03 111.888L628.178 53.2842H606.309L602.841 111.501Z" fill="#5E5958"/>
<path d="M504.926 59.9342H731.16V26.6338L504.657 29.7315L504.926 59.9342Z" fill="#8D8D8D"/>
<path d="M508.36 109.06L478.292 105.911L471.592 8.38405C471.592 4.00685 475.144 0.45459 479.521 0.45459L504.572 0.791299L508.36 109.06Z" fill="#8D8D8D"/>
<path d="M305.377 135.407H331.287C336.744 135.407 341.169 139.831 341.169 145.289V156.99C341.169 162.448 336.744 166.872 331.287 166.872H305.377C299.919 166.872 295.495 162.448 295.495 156.99V145.289C295.495 139.831 299.919 135.407 305.377 135.407Z" fill="#A42B19"/>
<path d="M287.767 155.912H341.169C355.646 155.912 367.381 167.648 367.381 182.125V210.223C367.381 224.7 355.646 236.436 341.169 236.436H287.767C273.29 236.436 261.554 224.7 261.554 210.223V182.125C261.554 167.648 273.29 155.912 287.767 155.912Z" fill="#A72116"/>
<path d="M477.165 81.1463C477.165 81.1463 443.309 80.3045 408.544 80.1362C382.718 80.0183 374.553 104.396 370.462 117.578C356.977 161.047 365.277 238.759 366.455 241.301C372.667 254.702 376.001 274.955 408.628 275.982C450.161 277.278 475.801 278.053 475.801 278.053" fill="#5E5958"/>
<path d="M824.613 87.224C824.613 87.224 790.757 86.3822 755.992 86.2138C730.167 86.096 721.126 109.026 716.816 122.141C698.213 178.775 712.725 244.837 713.904 247.379C720.116 260.78 723.45 281.033 756.077 282.06C797.609 283.356 823.25 284.13 823.25 284.13" fill="#5E5958"/>
<path d="M823.788 284.181C801.789 284.181 783.956 240.087 783.956 185.694C783.956 131.301 801.789 87.207 823.788 87.207C845.787 87.207 863.621 131.301 863.621 185.694C863.621 240.087 845.787 284.181 823.788 284.181Z" fill="#8D8D8D"/>
<path d="M824.545 238.81C813.053 238.81 803.737 215.926 803.737 187.698C803.737 159.469 813.053 136.585 824.545 136.585C836.038 136.585 845.354 159.469 845.354 187.698C845.354 215.926 836.038 238.81 824.545 238.81Z" fill="#302D2D"/>
<path d="M656.546 226.469C667.96 230.123 678.011 234.685 711.008 243.928C732.507 249.955 750.083 252.935 757.103 255.258C760.42 256.352 761.295 261.15 758.198 262.766C739.157 272.632 638.33 301.757 613.127 308.963C608.127 310.394 602.942 311.118 597.74 311.067C585.938 310.966 567.284 308.34 565.214 292.952C561.863 267.935 587.487 204.314 656.546 226.469Z" fill="#A42B19"/>
<path d="M652.572 172.394C652.572 172.394 669.425 160.441 681.007 151.99C687.927 146.939 687.186 137.158 682.741 130.761C676.748 122.107 665.738 121.703 655.333 117.04C636.916 108.774 633.262 102.646 599.474 74.7325C577.453 56.5503 565.247 43.4355 543.21 36.2973C540.196 35.3209 501.913 34.8326 486.492 34.9673C478.377 35.0347 476.946 59.7153 473.814 88.3523C472.687 98.6387 462.501 120.02 445.127 121.72C429.605 123.235 414.588 120.222 401.81 122.68C389.032 125.138 384.233 149.061 383.661 161.249" fill="#DB3821"/>
<path d="M479.084 90.6418C479.084 118.285 485.347 140.693 493.091 140.693C500.835 140.693 507.098 118.285 507.098 90.6418C507.098 62.9981 503.462 40.8427 493.091 40.5902C483.394 40.3545 479.084 62.9981 479.084 90.6418Z" fill="#302D2D"/>
<path d="M702.809 154.953C702.809 154.953 696.984 143.387 679.004 144.549C654.121 146.165 625.922 152.63 612.218 145.609C597.386 138 581.073 131.131 566.527 121.35C540.415 103.807 534.186 94.5308 516.61 89.7159C511.846 88.4027 497.872 83.2679 478.932 92.258C455.565 103.336 453.696 127.124 434.47 127.983C427.113 128.319 421.894 128.336 415.076 128.437C410.446 128.505 404.975 134.262 405.311 145.407L405.446 155.694C405.446 155.694 497.199 222.076 661.259 224.719C688.112 225.156 691.327 221.234 702.809 220.577" fill="#A72116"/>
<path d="M498.428 154.818C507.991 141.67 506.492 122.848 500.364 111.164C498.563 107.73 488.394 93.6721 470.852 92.4937C456.104 91.5004 445.548 100.423 441.945 103.942C435.262 110.457 432.854 117.528 430.497 124.43C427.282 133.824 427.316 148.252 427.484 157.562L498.428 154.835V154.818Z" fill="white"/>
<path d="M485.145 127.797L429.217 127.646V144.026C435.48 150.289 477.686 150.542 485.044 136.686L485.128 127.797H485.145Z" fill="#302D2D"/>
<path d="M530.954 134.026H495.784C490.835 134.026 486.794 138.05 486.794 143.016V156.939H539.927V143.016C539.927 138.067 535.903 134.026 530.937 134.026H530.954Z" fill="#302D2D"/>
<path d="M167.531 165.306C167.531 165.306 128.675 165.104 93.5735 164.869C74.6 164.751 61.0812 186.502 55.8118 198.91C39.1448 238.271 43.2021 293.525 53.1182 325.461C57.4112 339.249 67.6807 358.408 92.2604 358.004C134.197 357.314 167.952 356.691 167.952 356.691" fill="#5E5958"/>
<path d="M164.433 357.516C138.446 357.516 117.379 314.409 117.379 261.234C117.379 208.059 138.446 164.953 164.433 164.953C190.421 164.953 211.488 208.059 211.488 261.234C211.488 314.409 190.421 357.516 164.433 357.516Z" fill="#8D8D8D"/>
<path d="M164.164 312.026C151.854 312.026 141.874 289.625 141.874 261.992C141.874 234.358 151.854 211.957 164.164 211.957C176.474 211.957 186.454 234.358 186.454 261.992C186.454 289.625 176.474 312.026 164.164 312.026Z" fill="#302D2D"/>
<path d="M262.667 210.712L172.766 238.474C164.046 242.346 167.733 255.477 177.194 254.215L274.317 225.494L262.65 210.695L262.667 210.712Z" fill="#5E5958"/>
<path d="M696.479 255.662C696.479 255.662 682.792 208.91 672.977 182.815C668.465 170.812 660.334 163.707 645.637 156.485C630.939 149.262 582.437 151.771 566.813 152.074C479.69 153.774 456.188 155.29 338.038 156.047C322.936 156.148 290.023 172.933 256.824 216.856C220.813 264.517 199.887 286.42 181.317 314.401C177.9 319.552 183.102 329.182 187.125 329.148C201.873 329.014 254.248 329.014 263.76 326.236C296.168 316.741 305.731 308.222 336.438 294.754C364.84 282.312 386.692 282.935 415.565 286.235C484.253 294.063 482.317 162.63 513.513 164.212C531.173 165.105 550.584 197.294 582.285 246.621C585.215 251.167 591.376 263.036 603.986 269.349C617.404 276.083 633.145 275.528 644.105 272.767C662.876 268.053 696.446 255.662 696.446 255.662H696.479Z" fill="#E82321"/>
<path d="M514.573 165.003C495.229 159.212 469.32 157.562 438.057 163.034C421.945 165.862 395.901 171.451 367.163 188.977C342.213 204.196 335.664 210.897 298.138 256.941C257.969 306.235 231.335 328.222 231.335 328.222C231.335 328.222 256.251 329.451 276.37 322.229C308.643 310.646 323.98 300.107 342.97 292.077C361.489 284.232 401.608 280.848 429.959 289.282" fill="#A72116"/>
<path d="M538.395 164.549C538.395 164.549 498.916 164.33 463.259 164.111C443.982 163.993 430.244 186.368 424.891 199.146C407.954 239.652 412.079 296.505 422.163 329.367C426.524 343.56 436.962 363.257 461.929 362.853C504.539 362.146 538.833 361.506 538.833 361.506" fill="#5E5958"/>
<path d="M538.075 361.54C513.566 361.54 493.697 317.446 493.697 263.053C493.697 208.66 513.566 164.566 538.075 164.566C562.584 164.566 582.453 208.66 582.453 263.053C582.453 317.446 562.584 361.54 538.075 361.54Z" fill="#8D8D8D"/>
<path d="M538.311 313.828C526.818 313.828 517.502 290.945 517.502 262.716C517.502 234.488 526.818 211.604 538.311 211.604C549.803 211.604 559.119 234.488 559.119 262.716C559.119 290.945 549.803 313.828 538.311 313.828Z" fill="#302D2D"/>
<path d="M0.286133 357.634C0.286133 357.634 155.205 360.614 207.092 360.614C324.468 360.614 415.867 355.546 415.867 355.546L415.665 347.128L207.109 347.297L0.454437 346.068L0.302979 357.617L0.286133 357.634Z" fill="#DB3821"/>
<path d="M415.43 310.865L415.682 348.509L291.639 349.065C290.09 349.553 279.4 349.62 279.4 349.62C279.4 349.62 293.979 336.118 308.104 327.751C314.704 323.845 334.35 311.808 342.516 311.606C356.22 311.269 415.43 310.882 415.43 310.882V310.865Z" fill="#DB3821"/>
<path d="M1.52588e-05 308.609L0.454498 346.388L123.79 346.809C125.339 347.297 136.03 347.364 136.03 347.364C136.03 347.364 121.45 333.862 107.326 325.495C100.726 321.589 81.0792 309.552 72.914 309.35C59.21 309.013 1.52588e-05 308.626 1.52588e-05 308.626V308.609Z" fill="#DB3821"/>
<path d="M421.524 241.403L377.382 217.395C368.509 213.877 361.725 225.712 369.233 231.588L419.116 260.09L421.507 241.403H421.524Z" fill="#5E5958"/>
</svg>
