<svg width="5042" height="404" viewBox="0 0 5042 404" fill="none" xmlns="http://www.w3.org/2000/svg">
<rect x="0.783508" width="280.068" height="134.667" fill="black"/>
<rect x="280.852" width="280.068" height="134.667" fill="#343434"/>
<rect x="560.918" width="280.068" height="134.667" fill="black"/>
<rect x="840.986" width="280.068" height="134.667" fill="#343434"/>
<rect x="1121.05" width="280.068" height="134.667" fill="black"/>
<rect x="1401.12" width="280.068" height="134.667" fill="#343434"/>
<rect x="1681.19" width="280.068" height="134.667" fill="black"/>
<rect x="1961.26" width="280.068" height="134.667" fill="#343434"/>
<rect x="2241.32" width="280.068" height="134.667" fill="black"/>
<rect x="2521.39" width="280.068" height="134.667" fill="#343434"/>
<rect x="2801.46" width="280.068" height="134.667" fill="black"/>
<rect x="3081.53" width="280.068" height="134.667" fill="#343434"/>
<rect x="3361.59" width="280.068" height="134.667" fill="black"/>
<rect x="3641.66" width="280.068" height="134.667" fill="#343434"/>
<rect x="3921.73" width="280.068" height="134.667" fill="black"/>
<rect x="4201.8" width="280.068" height="134.667" fill="#343434"/>
<rect x="4481.87" width="280.068" height="134.667" fill="black"/>
<rect x="4761.93" width="280.068" height="134.667" fill="#343434"/>
<rect x="0.783508" y="269.333" width="280.068" height="134.667" fill="black"/>
<rect x="280.852" y="269.333" width="280.068" height="134.667" fill="#343434"/>
<rect x="560.918" y="269.333" width="280.068" height="134.667" fill="black"/>
<rect x="840.986" y="269.333" width="280.068" height="134.667" fill="#343434"/>
<rect x="1121.05" y="269.333" width="280.068" height="134.667" fill="black"/>
<rect x="1401.12" y="269.333" width="280.068" height="134.667" fill="#343434"/>
<rect x="1681.19" y="269.333" width="280.068" height="134.667" fill="black"/>
<rect x="1961.26" y="269.333" width="280.068" height="134.667" fill="#343434"/>
<rect x="2241.32" y="269.333" width="280.068" height="134.667" fill="black"/>
<rect x="2521.39" y="269.333" width="280.068" height="134.667" fill="#343434"/>
<rect x="2801.46" y="269.333" width="280.068" height="134.667" fill="black"/>
<rect x="3081.53" y="269.333" width="280.068" height="134.667" fill="#343434"/>
<rect x="3361.59" y="269.333" width="280.068" height="134.667" fill="black"/>
<rect x="3641.66" y="269.333" width="280.068" height="134.667" fill="#343434"/>
<rect x="3921.73" y="134.667" width="280.068" height="134.667" fill="#343434"/>
<rect x="3921.73" y="269.333" width="280.068" height="134.667" fill="black"/>
<rect x="4201.8" y="269.333" width="280.068" height="134.667" fill="#343434"/>
<rect x="4481.87" y="269.333" width="280.068" height="134.667" fill="black"/>
<rect x="4761.93" y="269.333" width="280.068" height="134.667" fill="#343434"/>
<rect x="0.783508" y="134.667" width="280.068" height="134.667" fill="#343434"/>
<rect x="280.852" y="134.667" width="280.068" height="134.667" fill="black"/>
<rect x="560.918" y="134.667" width="280.068" height="134.667" fill="#343434"/>
<rect x="840.986" y="134.667" width="280.068" height="134.667" fill="black"/>
<rect x="1121.05" y="134.667" width="280.068" height="134.667" fill="#343434"/>
<rect x="1401.12" y="134.667" width="280.068" height="134.667" fill="black"/>
<rect x="1681.19" y="134.667" width="280.068" height="134.667" fill="#343434"/>
<rect x="1961.26" y="134.667" width="280.068" height="134.667" fill="black"/>
<rect x="2241.32" y="134.667" width="280.068" height="134.667" fill="#343434"/>
<rect x="2521.39" y="134.667" width="280.068" height="134.667" fill="black"/>
<rect x="2801.46" y="134.667" width="280.068" height="134.667" fill="#343434"/>
<rect x="3081.53" y="134.667" width="280.068" height="134.667" fill="black"/>
<rect x="3361.59" y="134.667" width="280.068" height="134.667" fill="#343434"/>
<rect x="3641.66" y="134.667" width="280.068" height="134.667" fill="black"/>
<rect x="4201.8" y="134.667" width="280.068" height="134.667" fill="black"/>
<rect x="4481.87" y="134.667" width="280.068" height="134.667" fill="#343434"/>
<rect x="4761.93" y="134.667" width="280.068" height="134.667" fill="black"/>
</svg>
