<svg width="147" height="175" viewBox="0 0 147 175" fill="none" xmlns="http://www.w3.org/2000/svg">
<path d="M117.763 72.0577L117.786 72.0691C122.91 74.6802 129.19 72.6245 131.813 67.4776L136.411 58.4523C139.034 53.3054 137.006 47.0163 131.881 44.4053L131.859 44.3938C126.734 41.7827 120.454 43.8385 117.832 48.9854L113.233 58.0106C110.611 63.1575 112.639 69.4466 117.763 72.0577Z" fill="#8D8D8D"/>
<path d="M54.2611 28.0483C51.6322 33.2077 53.6654 39.5121 58.8023 42.1295C63.9392 44.7468 70.2346 42.6861 72.8635 37.5267L77.5312 28.3657C80.1601 23.2063 78.1269 16.902 72.99 14.2846C67.8531 11.6672 61.5577 13.7279 58.9288 18.8873L54.2611 28.0483Z" fill="#8D8D8D"/>
<path d="M16.6855 104.636C14.6231 108.683 16.2182 113.629 20.2481 115.682C24.278 117.736 29.2168 116.119 31.2791 112.072L36.9842 100.875C39.0465 96.8273 37.4514 91.8815 33.4215 89.8281C29.3916 87.7748 24.4528 89.3914 22.3905 93.439L16.6855 104.636Z" fill="#8D8D8D"/>
<path d="M77.4687 135.607C75.4063 139.655 77.0014 144.6 81.0313 146.654C85.0612 148.707 90 147.09 92.0623 143.043L97.7674 131.846C99.8297 127.798 98.2347 122.853 94.2047 120.799C90.1748 118.746 85.236 120.363 83.1737 124.41L77.4687 135.607Z" fill="#8D8D8D"/>
<path d="M79.8694 26.3375L87.5222 11.318C87.8911 10.5942 88.7763 10.3044 89.4969 10.6716C90.2176 11.0388 90.5035 11.9253 90.1347 12.6491L88.3483 16.1552L121.409 33.0006L123.196 29.4945C123.564 28.7707 124.45 28.4809 125.17 28.8481C125.891 29.2153 126.177 30.1018 125.808 30.8256L118.155 45.8451C117.786 46.5689 116.901 46.8587 116.181 46.4915C115.82 46.3079 115.563 45.9774 115.453 45.6365C115.343 45.2955 115.358 44.8759 115.543 44.514L116.2 43.2247L83.1388 26.3793L82.4819 27.6686C82.1131 28.3924 81.2279 28.6822 80.5072 28.315C80.1469 28.1314 79.8897 27.8009 79.7798 27.46C79.6588 27.0849 79.685 26.6994 79.8694 26.3375Z" fill="#322BB7"/>
<path d="M116.881 53.9709L73.9106 32.0765L83.5797 66.4925L116.881 53.9709Z" stroke="#8D8D8D" stroke-miterlimit="10"/>
<path d="M45.7619 129.965L33.1802 105.775L57.4105 100.2" stroke="#8D8D8D" stroke-miterlimit="10"/>
<path d="M54.3428 134.337L81.3307 130.309L71.5992 107.429" stroke="#8D8D8D" stroke-miterlimit="10"/>
<path d="M83.4922 131.524L29.374 103.95" stroke="#8D8D8D" stroke-miterlimit="10"/>
<path d="M46.4127 90.1221L49.6984 92.4369C50.3946 92.9273 51.3576 92.7577 51.8492 92.058C52.3409 91.3583 52.1751 90.3935 51.4789 89.903L48.1932 87.5882C47.4971 87.0977 46.5341 87.2673 46.0424 87.967C45.5508 88.6668 45.7165 89.6316 46.4127 90.1221Z" fill="#322BB7"/>
<path d="M87.3845 107.571L83.5805 106.274C82.7745 105.999 81.8965 106.432 81.6194 107.241C81.3423 108.05 81.7711 108.929 82.5771 109.204L86.3811 110.501C87.1871 110.776 88.0651 110.343 88.3422 109.534C88.6193 108.725 88.1905 107.846 87.3845 107.571Z" fill="#322BB7"/>
<path d="M47.9465 152.96L54.2667 144.955L76.7519 152.992L77.8353 150.866C78.1119 150.323 78.9165 150.192 79.6371 150.559C80.3578 150.926 80.7244 151.654 80.4478 152.197L73.1407 166.538C72.8641 167.081 72.0596 167.212 71.3389 166.845C70.9786 166.662 70.7209 166.388 70.5654 166.081C70.4324 165.785 70.39 165.478 70.5283 165.207L72.4184 161.497L47.9465 152.96Z" fill="#322BB7"/>
<path d="M34.5009 146.166L37.2627 136.348L17.5435 122.881L18.6269 120.755C18.9035 120.212 18.5369 119.484 17.8163 119.117C17.0956 118.749 16.2911 118.881 16.0144 119.424L8.7074 133.765C8.43079 134.308 8.79736 135.036 9.51803 135.403C9.87837 135.586 10.2513 135.634 10.5912 135.579C10.9086 135.513 11.1815 135.367 11.3198 135.096L13.21 131.386L34.5009 146.166Z" fill="#322BB7"/>
<path d="M38.7358 154.279C40.2897 155.071 42.5267 155.413 44.6194 153.031C63.4512 131.884 74.3119 108.954 81.7112 104.119C84.0904 102.568 92.3246 107.675 99.5466 100.015C101.386 98.0748 100.853 98.2872 103.374 93.6171C105.976 88.8453 107.38 86.2558 107.829 82.9802C108.69 76.7803 105.269 74.8093 104.003 68.6083C102.035 58.9435 106.891 48.9669 108.763 44.7353C109.179 43.8076 109.202 42.5372 108.302 42.0782L88.4836 31.9235C87.9206 31.6366 86.9086 32.1752 86.6325 32.6613C84.8351 36.1333 79.0976 47.171 67.912 51.5864C63.7897 53.2185 57.3479 52.4435 53.2334 60.5187C50.2138 66.4451 47.4042 71.6807 47.2402 72.281C44.6067 82.9058 53.2434 86.1098 53.563 89.4353C54.7157 101.704 41.8016 121.594 36.4149 149.592C35.9039 152.209 37.9475 153.877 38.7358 154.279Z" fill="#322BB7"/>
<path d="M82.7558 90.3772L64.784 81.2201C64.784 81.2201 51.2124 102.455 62.2708 108.033C73.3292 113.61 82.7558 90.3772 82.7558 90.3772Z" fill="black"/>
<path d="M78.6972 90.1606C79.1476 90.3901 80.5124 92.0542 80.7544 91.5792L84.3985 84.2045C84.5368 83.9331 84.8826 83.2545 85.0209 82.983C92.0032 63.4336 93.1488 57.0652 95.0759 50.6107C95.9756 47.5645 91.6515 45.3613 89.5216 48.094C85.9715 52.6674 80.7353 58.49 69.5306 74.6345C69.473 74.7476 69.4154 74.8607 69.3693 74.9511L65.3124 82.9133L78.7422 90.1835L78.6972 90.1606Z" stroke="black" stroke-miterlimit="10"/>
</svg>
