<svg width="232" height="366" viewBox="0 0 232 366" fill="none" xmlns="http://www.w3.org/2000/svg">
<g clip-path="url(#clip0_25_12)">
<path d="M221.308 -30.6403C221.898 -30.0647 222.074 -29.1862 221.752 -28.4276L58.4775 356.223C57.9275 357.519 56.2468 357.856 55.2395 356.873L13.406 316.041C12.8162 315.465 12.6399 314.587 12.9619 313.828L176.237 -70.8231C176.787 -72.1188 178.467 -72.4561 179.475 -71.4729L221.308 -30.6403Z" fill="url(#paint0_linear_25_12)"/>
<path d="M49.071 360.43L112.961 209.915C113.339 209.024 112.923 207.994 112.032 207.616C111.14 207.237 110.11 207.653 109.732 208.545L45.8421 359.06C45.4636 359.951 45.8796 360.981 46.7712 361.359C47.6629 361.738 48.6925 361.322 49.071 360.43Z" fill="white" fill-opacity="0.5"/>
<path d="M36.7332 356.578L62.762 295.258C63.1404 294.367 62.7245 293.337 61.8328 292.959C60.9412 292.58 59.9115 292.996 59.5331 293.888L33.5043 355.208C33.1258 356.099 33.5418 357.129 34.4335 357.508C35.3251 357.886 36.3547 357.47 36.7332 356.578Z" fill="white" fill-opacity="0.7"/>
<path d="M25.0879 321.164L54.1057 252.802C54.4842 251.911 54.0682 250.881 53.1766 250.503C52.2849 250.124 51.2553 250.54 50.8768 251.432L21.859 319.793C21.4806 320.685 21.8966 321.715 22.7882 322.093C23.6798 322.472 24.7095 322.056 25.0879 321.164Z" fill="white" fill-opacity="0.5"/>
</g>
<defs>
<linearGradient id="paint0_linear_25_12" x1="168" y1="14.5" x2="114.814" y2="149.239" gradientUnits="userSpaceOnUse">
<stop stop-color="white" stop-opacity="0"/>
<stop offset="1" stop-color="#00C46F"/>
</linearGradient>
<clipPath id="clip0_25_12">
<rect width="232" height="366" fill="white"/>
</clipPath>
</defs>
</svg>
