<svg width="148" height="175" viewBox="0 0 148 175" fill="none" xmlns="http://www.w3.org/2000/svg">
<path d="M118.736 72.8272L118.758 72.839C123.841 75.5308 130.153 73.5746 132.856 68.4698L137.597 59.5184C140.301 54.4137 138.372 48.0933 133.289 45.4015L133.267 45.3897C128.185 42.6979 121.873 44.654 119.169 49.7588L114.428 58.7102C111.725 63.815 113.653 70.1354 118.736 72.8272Z" fill="#8D8D8D"/>
<path d="M55.9374 27.8188C53.2273 32.936 55.1605 39.2717 60.2554 41.97C65.3503 44.6683 71.6775 42.7074 74.3876 37.5902L79.1997 28.5042C81.9098 23.387 79.9766 17.0513 74.8817 14.353C69.7868 11.6547 63.4596 13.6156 60.7495 18.7328L55.9374 27.8188Z" fill="#8D8D8D"/>
<path d="M17.1547 103.802C15.0286 107.817 16.5452 112.787 20.5422 114.904C24.5391 117.021 29.5028 115.482 31.629 111.468L37.5104 100.363C39.6365 96.3484 38.1198 91.3781 34.1229 89.2612C30.126 87.1444 25.1622 88.6827 23.0361 92.6972L17.1547 103.802Z" fill="#8D8D8D"/>
<path d="M77.4418 135.731C75.3157 139.745 76.8323 144.716 80.8293 146.833C84.8262 148.949 89.79 147.411 91.9161 143.397L97.7975 132.292C99.9236 128.277 98.407 123.307 94.41 121.19C90.4131 119.073 85.4494 120.611 83.3232 124.626L77.4418 135.731Z" fill="#8D8D8D"/>
<path d="M81.57 26.5133L89.4595 11.6167C89.8397 10.8988 90.7293 10.6231 91.4441 11.0017C92.1589 11.3802 92.4307 12.2711 92.0505 12.989L90.2089 16.4664L122.999 33.8326L124.841 30.3552C125.221 29.6373 126.111 29.3616 126.826 29.7401C127.54 30.1187 127.812 31.0096 127.432 31.7275L119.543 46.624C119.162 47.3419 118.273 47.6177 117.558 47.2391C117.2 47.0498 116.949 46.7153 116.844 46.3727C116.74 46.0301 116.761 45.6107 116.951 45.2518L117.629 43.973L84.8384 26.6068L84.1611 27.8856C83.7809 28.6035 82.8912 28.8792 82.1764 28.5006C81.819 28.3114 81.5672 27.9769 81.4626 27.6342C81.3476 27.2573 81.3799 26.8723 81.57 26.5133Z" fill="#E6930D"/>
<path d="M118.139 54.7288L75.5201 32.1574L84.6436 66.722L118.139 54.7288Z" stroke="#8D8D8D" stroke-miterlimit="10"/>
<path d="M45.8291 129.589L33.6316 105.203L57.947 100.011" stroke="#8D8D8D" stroke-miterlimit="10"/>
<path d="M54.3396 134.096L81.3878 130.495L72.0194 107.464" stroke="#8D8D8D" stroke-miterlimit="10"/>
<path d="M83.5293 131.744L29.854 103.317" stroke="#8D8D8D" stroke-miterlimit="10"/>
<path d="M47.1085 89.7608L50.3572 92.1273C51.0455 92.6287 52.011 92.4743 52.5137 91.7825C53.0164 91.0906 52.8659 90.1233 52.1775 89.6218L48.9289 87.2553C48.2405 86.7539 47.275 86.9083 46.7723 87.6002C46.2696 88.292 46.4201 89.2593 47.1085 89.7608Z" fill="#E6930D"/>
<path d="M87.8008 107.856L84.0178 106.498C83.2162 106.21 82.3314 106.63 82.0416 107.434C81.7518 108.239 82.1666 109.124 82.9681 109.412L86.7512 110.769C87.5527 111.057 88.4375 110.638 88.7273 109.833C89.0172 109.029 88.6023 108.143 87.8008 107.856Z" fill="#E6930D"/>
<path d="M47.6498 152.615L54.0957 144.71L76.4511 153.103L77.5679 150.994C77.8531 150.456 78.6596 150.337 79.3744 150.715C80.0892 151.094 80.4442 151.828 80.159 152.366L72.626 166.59C72.3409 167.128 71.5344 167.247 70.8196 166.868C70.4622 166.679 70.2089 166.401 70.0583 166.092C69.9299 165.794 69.8924 165.487 70.035 165.218L71.9836 161.538L47.6498 152.615Z" fill="#E6930D"/>
<path d="M34.3119 145.61L37.2287 135.836L17.7249 122.059L18.8418 119.95C19.127 119.412 18.772 118.678 18.0572 118.299C17.3424 117.921 16.5359 118.04 16.2507 118.578L8.71778 132.801C8.43262 133.34 8.78762 134.074 9.5024 134.452C9.85979 134.642 10.2319 134.695 10.5727 134.646C10.8911 134.584 11.1663 134.443 11.3088 134.174L13.2574 130.494L34.3119 145.61Z" fill="#E6930D"/>
<path d="M38.4189 153.788C39.9601 154.604 42.1914 154.982 44.3215 152.634C63.4855 131.787 74.7075 109.031 82.1823 104.315C84.5857 102.801 92.7381 108.038 100.08 100.493C101.951 98.5819 101.414 98.7858 104.008 94.1561C106.685 89.4261 108.13 86.8592 108.631 83.5911C109.591 77.4056 106.201 75.3807 105.033 69.1605C103.218 59.4657 108.231 49.5671 110.17 45.3658C110.601 44.4447 110.644 43.1749 109.751 42.7017L90.0958 32.2347C89.5374 31.939 88.517 32.4615 88.2333 32.9432C86.3811 36.3863 80.4698 47.332 69.2157 51.5698C65.0682 53.1365 58.6394 52.2597 54.3977 60.2689C51.2847 66.1468 48.3927 71.3373 48.2192 71.9349C45.4179 82.5167 54.0029 85.8569 54.2699 89.187C55.2283 101.473 42.0013 121.155 36.1724 149.065C35.6201 151.674 37.6371 153.374 38.4189 153.788Z" fill="#E6930D"/>
<path d="M83.4443 90.5905L65.6196 81.1503C65.6196 81.1503 51.7139 102.168 62.6827 107.92C73.6514 113.672 83.4443 90.5905 83.4443 90.5905Z" fill="black"/>
<path d="M79.3885 90.31C79.8353 90.5466 81.1736 92.2321 81.4231 91.7609L85.1834 84.4448C85.326 84.1756 85.6824 83.5026 85.825 83.2334C93.1157 63.7968 94.3619 57.4473 96.3908 51.0241C97.3385 47.9925 93.0498 45.7212 90.8769 48.4199C87.255 52.9365 81.9273 58.6756 70.4687 74.6408C70.4093 74.753 70.3499 74.8652 70.3024 74.9549L66.12 82.8519L79.4332 90.3336L79.3885 90.31Z" stroke="black" stroke-miterlimit="10"/>
</svg>
