<svg width="241" height="409" viewBox="0 0 241 409" fill="none" xmlns="http://www.w3.org/2000/svg">
<g clip-path="url(#clip0_25_2)">
<path d="M230.661 6.57707C231.305 7.14704 231.512 8.06436 231.176 8.85557L71.9367 384C71.4027 385.258 69.7924 385.622 68.7695 384.715L19.5689 341.128C18.9255 340.558 18.7182 339.641 19.0541 338.85L178.293 -36.2943C178.827 -37.5523 180.438 -37.9161 181.461 -37.0099L230.661 6.57707Z" fill="url(#paint0_linear_25_2)"/>
<path d="M61.4267 385.912L111.117 268.848C111.53 267.875 111.077 266.752 110.104 266.339C109.131 265.927 108.008 266.38 107.596 267.353L57.9047 384.417C57.4919 385.39 57.9456 386.513 58.9182 386.926C59.8908 387.338 61.0139 386.885 61.4267 385.912Z" fill="white" fill-opacity="0.5"/>
<path d="M17.9875 367.474L67.6783 250.41C68.0911 249.437 67.6374 248.314 66.6648 247.901C65.6922 247.489 64.5691 247.942 64.1563 248.915L14.4655 365.979C14.0527 366.952 14.5064 368.075 15.479 368.488C16.4516 368.9 17.5747 368.447 17.9875 367.474Z" fill="white" fill-opacity="0.5"/>
<path d="M44.6108 399.415L64.606 352.309C65.0188 351.337 64.5651 350.213 63.5925 349.801C62.6199 349.388 61.4969 349.842 61.084 350.814L41.0888 397.92C40.676 398.892 41.1297 400.016 42.1023 400.428C43.0749 400.841 44.198 400.387 44.6108 399.415Z" fill="white" fill-opacity="0.7"/>
<path d="M28.5535 368.699L50.8931 316.07C51.306 315.098 50.8522 313.974 49.8796 313.562C48.907 313.149 47.7839 313.603 47.3711 314.575L25.0315 367.204C24.6187 368.176 25.0724 369.3 26.045 369.712C27.0176 370.125 28.1407 369.671 28.5535 368.699Z" fill="white" fill-opacity="0.5"/>
</g>
<defs>
<linearGradient id="paint0_linear_25_2" x1="187" y1="14" x2="90.308" y2="256.352" gradientUnits="userSpaceOnUse">
<stop stop-color="white" stop-opacity="0"/>
<stop offset="0.899073" stop-color="#DA8600"/>
</linearGradient>
<clipPath id="clip0_25_2">
<rect width="241" height="409" fill="white"/>
</clipPath>
</defs>
</svg>
