<svg viewBox="49 55 236 109" fill="none" xmlns="http://www.w3.org/2000/svg">
<g clip-path="url(#clip0_2414_187)">
<path d="M284.02 108.457V111.024L283.377 112.467L282.413 113.59L280.807 114.552L279.04 115.034L275.023 115.515V116.317H274.702L274.863 117.921V136.848L274.702 140.537L274.542 140.858H278.076L279.04 141.5L279.521 142.141L279.682 143.906L279.521 147.755L278.879 148.718L277.915 149.039L274.542 149.199H257.995L256.549 148.718L255.907 148.076L255.585 146.953V142.462L256.067 141.339L257.031 140.858H261.047L260.887 140.698H259.28L259.602 140.377L260.565 140.217L260.726 139.254L260.405 132.999L260.726 130.272L260.405 129.791L260.565 126.903L260.726 125.941V116.638L258.316 116.798L256.389 117.6L255.104 118.723L253.176 120.808L249.963 124.016L248.838 125.299L247.071 127.064H246.75L246.268 128.026L245.786 128.187L244.34 129.951L241.609 132.678L240.485 133.961L238.236 136.207L237.111 137.49L235.666 139.094L233.738 141.179L232.935 141.66L231.971 141.179L230.525 139.415L228.918 137.169L226.669 134.121L224.26 130.913L222.653 128.668L220.244 125.46L218.316 122.733L217.031 120.808L214.942 121.129L211.89 121.931L209.32 122.893L207.392 124.016H207.071L206.91 124.497L206.107 124.979L204.5 126.422L203.376 127.545L202.091 129.149L200.002 131.555L198.557 133.319L196.147 135.886L195.022 137.169L192.452 139.735L189.561 141.821L186.83 143.264L183.456 144.387L181.528 144.708L178.797 144.868H127.552L125.142 144.547L123.536 143.745L121.608 141.981L119.038 139.415L117.913 138.131L116.467 136.527L115.343 135.405L112.933 133.64L109.56 131.876L105.222 130.432L103.937 130.111H103.294L99.1177 138.452L104.419 138.773L108.274 138.933L109.881 139.575L110.845 140.377L111.327 140.217L111.487 141.339L111.809 142.141L111.969 143.264L112.13 149.039L112.291 149.841H111.809L111.969 154.973V158.342L111.327 160.106L110.202 161.389L108.596 162.191L106.186 162.512H85.1416L80.001 162.352L78.2339 161.871L76.6274 160.748L75.9849 159.625L75.6636 157.54V155.775H75.3423V154.813H75.6636V150.001L75.3423 150.161V148.878H75.6636V143.745L75.9849 141.821L76.4668 140.217L78.7158 139.094L79.3584 138.933L82.8926 138.773H89.1577L88.8364 137.49L86.9087 133.64L84.981 130.111L78.2339 116.638L77.9126 116.477V131.715L77.752 134.603L76.9487 135.405L76.6274 135.565L52.5308 135.725L50.7637 135.565L50.1211 135.244L49.9604 134.923V133.64L50.9243 132.999H55.7437L55.583 130.111L55.4224 103.324L55.583 86.1616L55.7437 85.3596L55.2617 85.52H51.085L50.2817 85.1992L49.9604 84.718V83.5952L50.603 82.9536L51.5669 82.7932L70.6836 82.6328L72.4507 82.7932H73.8965L74.2178 82.6328L76.3062 82.7932L77.27 83.2744L77.752 84.0764L77.9126 84.8784L78.0732 101.881L81.7681 94.6628L83.6958 90.9736L85.6235 87.4448L87.8726 82.9536L89.1577 80.5476L89.3184 80.0664H80.3223L78.3945 79.5852L77.1094 78.7832L76.3062 77.8208L75.8242 76.2168L75.6636 75.094V61.46L75.9849 59.5352L76.3062 58.7332V58.4124L77.1094 57.9312L78.2339 57.1292L80.1616 56.6479H82.7319L84.0171 56.8083V56.4875H87.5513L88.5151 56.6479L89.3184 56.4875H90.7642V56.8083L94.7803 56.4875H97.6719L98.957 56.8083V56.4875H99.439V56.8083L103.294 56.3271L105.222 56.4875L108.114 56.8083L109.72 57.2896L111.005 58.252H111.327L111.487 59.2144L111.809 60.3372L111.969 69.6404V76.0564L111.648 77.5L110.202 79.104L108.917 79.7456L107.15 80.0664H98.957L102.973 88.0864L103.134 88.8884L107.311 87.7656L110.363 86.4824L111.166 86.0012L111.487 85.6804H111.969L114.379 84.0764L116.146 82.6328L118.074 80.708L119.841 78.4624L121.769 76.2168L122.893 75.094L124.5 74.292L125.945 73.9712H180.564L183.777 74.6128L186.348 75.5752L190.042 77.5L191.649 78.6228L192.131 79.4248L193.416 80.2268L194.541 81.3496L195.665 82.312L196.79 83.5952L197.914 84.718L199.039 86.0012L200.806 88.2468L201.93 89.3696L203.376 91.134L205.304 93.2192L206.75 94.5024L208.999 95.7856V96.2668L215.424 97.8708H216.549L217.995 96.2668L220.083 93.2192L221.689 91.134L223.778 88.2468L225.706 85.6804L230.204 79.5852L232.292 76.8584H233.417L234.541 77.6604L235.666 78.9436L237.111 80.5476L238.878 82.312L240.003 83.5952L242.895 86.4824L244.34 88.2468L248.356 92.2568L249.481 93.54L253.818 97.8708L253.979 98.3521L254.461 98.5125L254.622 98.9937L255.585 99.6353L257.513 101.72L261.047 102.362L260.726 101.56L260.405 101.4L260.565 92.4172L260.726 91.134L260.565 90.8132L260.405 87.124V80.2268H260.887L260.405 78.302L258.959 78.4624L258.638 78.6228V78.302L256.871 78.1416L255.907 77.5L255.585 76.2168V72.2068L256.067 70.9236L257.353 70.282H277.915L278.879 70.7632L279.521 71.7256L279.682 72.5276V76.5376L279.04 77.8208L278.397 78.1416L274.702 78.302L274.863 81.6704L274.702 83.4348V84.0764L274.863 87.2844H274.542L274.702 89.6904L274.863 95.946V103.806H276.63L279.682 104.126L281.289 104.608L282.895 105.891L283.859 107.816L284.02 108.457ZM261.047 82.6328H260.887V84.0764H261.047V82.6328ZM261.047 84.2368H260.887V85.6804H261.047V84.2368ZM261.047 86.0012H260.887V87.4448H261.047V86.0012ZM261.047 87.7656H260.887V89.8508H261.047V87.7656ZM261.047 92.8984H260.887V94.342H261.047V92.8984ZM261.047 96.2668H260.887V98.3521H261.047V96.2668ZM261.047 127.064H260.887V128.507H261.047V127.064ZM253.336 101.56L252.373 100.437L251.087 98.8333L246.268 94.0212L245.144 92.738L243.376 90.8132L241.609 89.0488L240.485 87.7656L236.629 83.916L235.505 82.6328L234.059 81.1892L233.738 81.3496V100.116L242.091 100.918L242.734 101.079L248.517 101.4L251.248 101.72H253.336V101.56ZM252.854 117.279H249.16L246.429 117.44L243.376 117.921L234.38 118.562L233.738 118.723V122.252L233.898 137.169L235.023 136.207L236.147 135.084L237.272 133.801L237.915 132.999L238.557 132.678L239.521 131.234L241.609 129.309L244.501 126.101L247.553 123.054L248.678 121.771L252.533 117.921L252.854 117.279ZM231.328 82.7932H230.846L229.24 85.0388L226.991 88.0864L225.063 90.6528L220.886 96.4272L219.601 98.3521L219.762 98.6729L229.24 99.7957L230.686 99.9561L231.328 100.116V82.7932ZM231.328 118.883L229.079 119.044L226.027 119.365L222.332 119.685L219.601 120.167L220.565 121.45L222.493 124.177L224.099 126.422L226.348 129.47L228.276 132.036L228.918 132.999L229.079 132.517H229.4L229.24 133.319L230.686 135.405L231.167 135.886L231.328 124.979V118.883ZM100.724 89.2092L97.5112 82.9536L96.2261 80.0664H95.2622V90.1716L97.5112 90.0112L99.439 89.6904V89.2092H99.9209V89.6904H100.724V89.2092ZM100.563 129.149L95.9048 128.668L95.2622 128.507V138.773H96.2261L97.3506 136.367L99.2783 132.357L100.563 129.63V129.149ZM92.8525 80.0664L92.21 80.2268L88.8364 86.9636L87.3906 89.53L87.0693 90.6528V91.4548L86.2661 91.6152L85.6235 92.8984L85.7842 93.2192L87.0693 92.0964L88.8364 91.4548L89.1577 91.2944L89.3184 91.134L90.1216 90.9736V90.6528L90.4429 90.8132L91.8887 90.6528L92.6919 90.4924L92.8525 80.0664ZM92.6919 128.347L91.2461 127.866L88.6758 127.224L87.8726 126.903H87.0693L86.748 126.101L85.6235 125.139L85.3022 125.299L87.7119 129.951L89.3184 132.999L92.21 138.773H92.5312L92.6919 133.961V128.347ZM83.8564 96.5876L83.3745 97.2292L81.1255 101.56L78.0732 107.655V108.297L83.5352 108.457V98.3521L83.8564 96.5876ZM83.5352 110.863H78.2339L79.519 113.43L81.6074 117.76L82.0894 118.242L82.7319 120.167L83.2139 121.129H83.3745L83.5352 110.863Z" fill="currentColor"/>
<path d="M82.0898 108.297V108.457H77.7524L77.5918 114.392L78.0737 115.996L77.9131 131.715L77.7524 134.603L76.9492 135.405L76.6279 135.565L52.5312 135.725L50.7642 135.565L50.1216 135.244L49.9609 134.923V133.64L50.9248 132.999H55.7441L55.5835 130.111L55.4229 103.324L55.5835 86.1616L55.7441 85.3596L55.2622 85.52H51.0854L50.2822 85.1992L49.9609 84.718V83.5952L50.6035 82.9536L51.5674 82.7932L70.6841 82.6328L72.4512 82.7932H73.897L74.2183 82.6328L76.3066 82.7932L77.2705 83.2744L77.7524 84.0764L77.9131 84.8784L78.0737 102.522L77.5918 105.089V107.655H78.0737V108.297H82.0898Z" fill="currentColor"/>
<path d="M171.568 97.8711L171.086 98.6731L170.444 99.3147V118.884L170.765 119.686V120.648L169.962 120.006L168.195 119.846L162.09 119.525L150.845 118.402L144.741 117.6L136.548 116.157L127.23 114.232L115.021 111.345L107.311 109.58L106.507 109.26V108.939L120.483 105.891L132.05 103.485L138.958 102.202L150.203 100.438L156.146 99.7959L165.625 99.1543L170.283 98.9939V98.5127L169.641 98.3523V98.0315L171.568 97.8711Z" fill="currentColor"/>
<path d="M203.857 106.051V112.788L203.536 114.713L202.733 116.317L201.126 117.76L198.556 119.044L196.628 119.846L192.934 120.487L185.705 121.129L180.403 121.45L173.496 121.61L171.889 121.129L170.925 120.487L170.283 118.883V99.3145L171.407 98.1917L172.532 97.55L173.335 97.3896H176.548L185.544 97.55L192.452 97.8708L195.825 98.3521L198.235 99.1541L200.323 100.437L202.412 102.041L203.375 103.485L203.857 106.051Z" fill="#3C3B3B"/>
<path d="M248.838 148.237V158.182L248.195 160.267L247.392 161.39L245.786 162.192L244.982 162.352H220.404L218.637 161.871L217.352 160.909L216.709 159.946L215.906 156.417L216.388 156.257L216.227 155.776L215.906 150.322L216.066 147.756L216.227 146.954L216.066 146.793V145.831L217.03 145.35L217.994 144.067L219.44 143.425L220.886 143.265H244.179L245.946 143.585L247.231 144.387L248.356 145.671L248.677 146.473L248.838 148.237Z" fill="#3C3B3B"/>
<path d="M248.838 60.9785V65.1489L248.677 72.8481L248.356 73.6501L247.392 74.2917L246.268 75.2542L244.982 75.575H219.922L218.155 74.9333L217.352 74.2917L216.548 72.6877L216.066 70.6025V62.1013H215.906V60.9785H216.388V59.6953L216.548 58.8933H217.03L218.155 56.9685H219.279L221.85 56.6477L223.617 56.8081V56.4873L226.99 56.6477L227.633 56.8081V56.4873H234.701L234.862 56.8081L237.111 56.9685V56.4873H239.521L242.412 56.6477L243.376 56.8081V56.4873H244.34L245.625 56.9685L247.231 57.7705L248.356 59.0537L248.838 60.9785Z" fill="#3C3B3B"/>
<path d="M172.531 97.55L171.728 98.1917L171.085 98.0312H169.64V98.3521L170.282 98.5125V98.9937L165.624 99.3145L156.146 99.9561L150.202 100.598L138.957 102.362L131.246 103.806L118.876 106.372L107.149 108.938H106.506V109.259L109.237 109.901L119.84 112.307L128.675 114.392L139.117 116.477L146.989 117.76L155.342 118.723L164.338 119.525L168.194 119.685L169.961 119.846L170.604 120.487L170.925 120.006L171.085 120.487L171.728 121.129V121.45H166.427L157.591 120.808L151.969 120.167L141.045 118.562L133.977 117.279L126.105 115.515L117.751 113.59L102.33 109.901L100.884 109.42L101.205 108.778L104.257 107.976L112.611 106.051L118.715 104.608L125.784 103.164L134.298 101.4L144.418 99.6353L152.451 98.5125L159.037 97.8708L167.391 97.3896H172.371L172.531 97.55Z" fill="rgba(0, 0, 0, 0.5)"/>
<path d="M257.352 101.56V102.202H255.584L253.657 101.881L252.532 100.918L251.247 99.1541L246.106 94.0212L244.982 92.738L243.215 90.8132L241.448 89.0488L240.323 87.7656L236.468 83.916L235.343 82.6328L234.058 81.3496L233.897 81.9912L233.737 100.277H231.809L231.327 100.116V83.114L231.006 82.9536L230.042 84.2368L228.436 86.322L223.938 92.4172L222.331 94.6628L220.403 97.3896L219.6 98.5125H216.869L216.387 98.3521L216.708 97.7104L217.994 96.2668L220.082 93.2192L221.688 91.134L223.777 88.2468L225.705 85.6804L230.203 79.5852L232.291 76.8584H233.416L234.54 77.6604L235.665 78.9436L237.11 80.5476L238.877 82.312L240.002 83.5952L242.894 86.4824L244.339 88.2468L248.355 92.2568L249.48 93.54L253.817 97.8708L253.978 98.3521L254.46 98.5125L254.621 98.9937L255.584 99.6353L257.352 101.56Z" fill="#BDBBB9"/>
<path d="M256.549 116.798L256.067 117.76L254.139 119.685L252.854 121.289L251.569 122.412L249.962 124.016L248.838 125.299L247.071 127.063H246.75L246.268 128.026L245.786 128.186L244.34 129.951L241.609 132.677L240.484 133.961L238.235 136.206L237.111 137.49L235.665 139.094L233.737 141.179L232.934 141.66L231.97 141.179L230.524 139.414L228.918 137.169L226.669 134.121L224.259 130.913L222.653 128.667L220.243 125.459L218.315 122.733L217.191 121.129L217.512 120.166H219.601L220.886 121.61L222.653 124.176L224.259 126.422L226.508 129.469L228.918 132.677L229.4 132.517L229.561 133.64L230.846 135.404L231.006 135.725L231.167 124.978L231.328 118.883L233.095 118.562H233.737L233.898 122.251L234.059 137.008L235.986 135.083L237.111 133.8L237.914 132.838L238.396 132.677L239.36 131.234L241.609 129.149L242.733 127.865L244.5 125.941L247.392 123.053L248.517 121.77L253.175 117.119L255.103 116.798H256.549Z" fill="#BDBBB8"/>
<path d="M95.4219 79.9065L95.2612 90.4929L91.8877 90.6533L92.0483 90.3325H92.5303L92.6909 80.3877L92.8516 80.0669L92.3696 80.2273L88.9961 86.9641L87.5503 89.5305L87.0684 91.4553L86.4258 91.6157L85.3013 93.8613L83.6948 96.9089L81.2852 101.561L78.2329 107.656L77.5903 107.816L77.4297 107.656V105.089L77.9116 102.523L78.5542 100.919L81.4458 95.3049L83.6948 90.9741L85.6226 87.4453L87.8716 82.9541L89.1567 80.5481L89.3174 80.0669H89.6387V79.7461H95.2612L95.4219 79.9065Z" fill="#BCBAB7"/>
<path d="M92.2109 138.452V138.773L89.48 138.933L89.1587 138.773L88.8374 137.49L86.9097 133.64L84.9819 130.111L78.2349 116.638L77.5923 115.194L77.4316 114.232L77.5923 110.061L77.7529 108.457L82.251 108.297L83.6968 108.457V110.703L83.0542 111.024H78.3955L80.8052 115.675L81.9297 117.921L82.4116 118.723L83.0542 120.487L84.0181 122.573L86.4277 127.224L88.3555 130.753L92.2109 138.452Z" fill="#BCBAB7"/>
<path d="M274.541 78.1416V79.5852H267.312V102.041L270.204 102.202L274.059 102.522L274.541 102.843V103.806L274.059 103.966L264.902 103.164L261.368 102.683L261.529 101.881L265.706 101.72L265.866 88.5676L266.027 79.5852H261.368V78.1416H274.541Z" fill="rgba(0, 0, 0, 0.5)"/>
<path d="M275.023 115.676V116.317L273.096 116.478L272.774 116.638L269.562 116.959H267.312V139.415H274.22V140.858L261.369 141.019V139.254H263.618L266.027 139.415V117.28L261.369 117.44V116.317L266.831 115.676L270.365 115.355L274.22 115.194L275.023 115.676Z" fill="rgba(0, 0, 0, 0.5)"/>
<path d="M67.1484 86.0012L66.9878 132.999L65.8633 133.159L65.7026 132.838V85.3596L66.6665 85.1992L67.1484 86.0012Z" fill="rgba(0, 0, 0, 0.5)"/>
<path d="M95.4219 128.988L95.2612 138.933H92.6909L92.5303 138.773V133.961L92.6909 128.347H95.2612L95.4219 128.988Z" fill="#BCBAB7"/>
<path d="M103.295 88.8889L103.134 89.3701L102.652 89.5305H100.725L97.3511 82.9541L96.0659 80.0669L96.2266 79.7461H98.7969L102.974 88.0869L103.295 88.8889Z" fill="#BDBBB8"/>
<path d="M103.133 129.631L102.972 130.753L99.1167 138.453L100.884 138.613V138.773L98.7954 138.934H96.2251L96.707 137.33L99.438 131.716L100.562 129.149L103.133 129.631Z" fill="#BCBAB6"/>
<path d="M93.9766 95.1445V123.535L93.0127 123.375V95.3049L93.9766 95.1445Z" fill="rgba(0, 0, 0, 0.5)"/>
<path d="M75.8242 150.322V157.54H75.6636V155.776H75.3423V154.813H75.6636V150.322H75.8242Z" fill="#BCBAB7"/>
<path d="M75.8242 143.745V149.68L75.3423 150.161V148.878H75.6636V143.745H75.8242Z" fill="#BCBAB7"/>
<path d="M276.951 140.537V140.698H275.666V140.537H276.951Z" fill="currentColor"/>
<path d="M85.623 80.2266V80.387H84.6592V80.2266H85.623Z" fill="#BCBAB7"/>
<path d="M77.9121 57.1289L77.5908 57.4497V57.1289H77.9121Z" fill="#918F8D"/>
<path d="M78.3945 101.079L78.0732 101.4V101.079H78.3945Z" fill="currentColor"/>
<path d="M86.2656 132.678L86.105 132.999L85.9443 132.678H86.2656Z" fill="#BCBAB7"/>
<path d="M114.219 83.7559V84.0767L113.897 83.9163L114.219 83.7559Z" fill="currentColor"/>
<path d="M216.549 72.6885L216.228 73.0093V72.6885H216.549Z" fill="#918F8D"/>
<path d="M217.994 143.745V144.066L217.673 143.906L217.994 143.745Z" fill="#BCBAB7"/>
<rect x="248" y="143" width="19" height="32" rx="3" transform="rotate(90 248 143)" fill="#3C3B3B"/>
<rect x="248" y="57" width="19" height="32" rx="3" transform="rotate(90 248 57)" fill="#3C3B3B"/>
<rect x="113" y="138" width="25" height="41" rx="3" transform="rotate(90 113 138)" fill="#3C3B3B"/>
<rect x="113" y="56" width="25" height="41" rx="3" transform="rotate(90 113 56)" fill="#3C3B3B"/>
<rect x="252" y="138" width="25" height="41" rx="3" transform="rotate(90 252 138)" fill="#3C3B3B"/>
<rect x="252" y="56" width="25" height="41" rx="3" transform="rotate(90 252 56)" fill="#3C3B3B"/>
</g>
<defs>
<clipPath id="clip0_2414_187">
<rect width="219" height="329" fill="white" transform="matrix(0 1 -1 0 329 0)"/>
</clipPath>
</defs>
</svg>
