<svg width="380" height="327" viewBox="0 0 380 327" fill="currentColor" xmlns="http://www.w3.org/2000/svg">
<g clip-path="url(#clip0_2609_312)">
<rect x="21.1648" y="24.1885" width="334.858" height="246.419" rx="3.77943" fill="#ECD3D3"/>
<path d="M103.935 54.4234C132.998 -11.8021 258.891 23.0545 275.521 60.4707C292.15 97.8869 299.636 158.424 257.306 211.714C215.165 264.767 161.637 277.476 117.467 211.714C83.4517 161.069 80.88 106.957 103.935 54.4234Z" fill="#A0A0A0"/>
<path d="M238.256 12.8651C237.788 14.9891 237.145 23.1754 237.735 24.672C238.09 25.5715 251.114 33.1984 253.744 35.4283C259.081 39.9636 263.699 45.595 267.917 51.1734C269.096 51.2943 271.75 42.6546 271.326 41.2033C271.772 41.8231 272.014 42.2388 272.377 42.7755L255.06 92.6338C249.088 92.6942 243.17 93.0873 237.213 93.1553L236.692 12.0714C226.291 6.03187 214.453 3.18218 202.578 1.8367C182.147 -0.468749 159.69 1.60238 141.699 12.0714C141.359 15.9264 142.244 20.1518 142.221 23.8783C142.1 46.9556 142.75 70.1008 141.699 93.1553C135.758 93.0797 129.824 92.6942 123.853 92.6338C117.67 79.6476 112.741 66.019 108.637 52.2241C113.822 46.9858 117.98 40.8253 123.596 35.9574C126.196 33.7049 139.628 25.5413 140.127 24.672C141.533 22.2456 140.165 15.5712 140.649 12.6005C139.999 11.8598 139.681 12.7441 139.077 12.8651C164.83 -3.77197 209.056 -3.86268 235.906 10.2422C236.805 10.7108 238.113 12.7819 238.264 12.8651H238.256Z" fill="white"/>
<path d="M108.637 52.2239C107.73 49.1852 107.307 45.3453 105.485 42.7753C110.564 35.3752 130.611 14.5581 139.069 12.8649C139.674 12.7439 139.991 11.8595 140.641 12.6003C140.157 15.5709 141.518 22.2454 140.12 24.6718C139.621 25.5411 126.189 33.7047 123.588 35.9572C117.972 40.8251 113.822 46.9856 108.629 52.2239H108.637Z" fill="#D7D5D2"/>
<path d="M271.319 41.2034C271.734 42.6547 269.081 51.2945 267.91 51.1735C263.692 45.5951 259.073 39.9713 253.737 35.4284C251.114 33.1986 238.082 25.5641 237.727 24.6722C237.138 23.1755 237.788 14.9893 238.249 12.8652C251.492 20.4619 262.188 28.6481 271.311 41.2034H271.319Z" fill="#D7D5D2"/>
<path d="M237.213 93.1558C205.353 93.5488 173.56 93.5564 141.699 93.1558C142.75 70.1012 142.1 46.956 142.221 23.8788C170.166 9.56232 206.812 9.42626 234.847 23.3572V11.8149L202.571 1.84473C214.446 3.18265 226.283 6.03989 236.684 12.0794L237.206 93.1633L237.213 93.1558Z" fill="currentColor"/>
<path d="M202.571 1.84456L234.847 11.8147V23.3571C206.811 9.4261 170.166 9.56216 142.221 23.8786C142.244 20.1521 141.359 15.9192 141.699 12.0717C159.69 1.61024 182.139 -0.468451 202.571 1.84456Z" fill="currentColor"/>
<path d="M251.908 223.833C254.719 226.766 260.57 235.239 263.715 236.955C265.566 237.968 272.687 239.654 275.521 240.629C255.891 271.635 224.9 291.016 191.55 304.652V267.916C196.887 267.795 205.481 266.578 210.704 265.293C228.785 260.834 237.946 245.807 246.39 230.659C234.636 242.541 215.013 260.229 198.111 263.2C173.182 267.569 144.602 247.538 130.149 228.565C172.645 265.762 211.762 261.892 251.9 223.841L251.908 223.833Z" fill="#2E2F31"/>
<path d="M360.309 272.641C365.713 278.726 369.394 290.094 371.851 297.835C370.589 300.541 363.801 309.634 363.453 311.743C362.947 314.857 364.904 322.408 363.975 326.173C357.686 326.271 351.366 326.142 345.085 326.173L347.186 282.876L318.319 267.395C320.534 266.148 331.426 259.02 332.749 258.997C333.762 258.982 349.855 265.415 351.639 266.344C354.322 267.743 358.313 270.403 360.301 272.641H360.309Z" fill="#2E2F31"/>
<path d="M373.952 304.123C375.857 311.312 377.014 318.659 378.677 325.9C378.299 326.429 370.165 326.127 368.707 326.165C368.502 317.895 367.739 310.503 373.952 304.123Z" fill="#2E2F31"/>
<path d="M373.953 304.124C367.74 310.503 368.503 317.896 368.707 326.165C367.142 326.203 365.555 326.143 363.983 326.165C364.913 322.401 362.947 314.85 363.461 311.735C363.809 309.627 370.597 300.533 371.859 297.827C372.524 299.929 373.386 301.954 373.961 304.124H373.953Z" fill="#6F7376"/>
<path d="M90.8957 252.602C102.748 263.071 117.193 280.411 127.632 292.747C133.626 299.83 139.907 307.063 144.685 315.053C117.579 299.58 91.2964 282.633 64.1298 267.296L35.2625 282.777L37.3639 326.074C52.92 326.157 68.514 326.074 84.0701 326.074L90.1021 296.685L140.217 325.552C157.315 325.522 174.512 326.165 191.648 326.074V304.554C158.298 290.91 127.314 271.537 107.676 240.53C104.993 241.452 87.6757 245.965 86.95 246.827L90.8882 252.602H90.8957Z" fill="currentColor"/>
<path d="M293.994 252.42C281.906 262.869 267.174 280.176 256.528 292.488C250.414 299.557 244.008 306.777 239.136 314.751C266.781 299.308 293.546 281.379 321.252 266.072L350.732 282.537L348.589 325.75C332.724 325.833 316.82 325.75 300.955 325.75L294.418 296.686L243.692 325.23C226.254 325.2 208.716 325.841 191.24 325.75V304.272C225.252 290.654 256.851 271.319 276.88 240.372C279.616 241.292 297.278 245.796 298.018 246.656L294.001 252.42H293.994Z" fill="currentColor"/>
<path d="M131.305 223.742C128.494 226.675 122.643 235.149 119.499 236.864C117.647 237.877 110.526 239.563 107.692 240.538C127.322 271.544 158.313 290.925 191.663 304.562V267.825C186.326 267.705 177.732 266.488 172.509 265.203C154.428 260.743 145.267 245.716 136.823 230.568C148.577 242.45 168.2 260.138 185.102 263.109C210.031 267.478 238.611 247.447 253.064 228.474C210.568 265.671 171.451 261.801 131.313 223.75L131.305 223.742Z" fill="#2E2F31"/>
<path d="M139.061 232.344C137.988 232.284 142.152 234.831 142.568 235.957C143.671 238.973 163.407 249.843 165.244 252.209C187.543 259.389 191.595 259.556 191.595 259.556C191.595 272.406 191.595 292.52 191.595 304.531C158.601 291.696 126.596 271.136 107.775 240.379C110.435 239.48 117.941 237.628 119.582 236.706C122.681 234.967 127.511 226.048 131.124 224.029C132.032 224.883 132.908 227.348 134.011 228.315L139.061 232.344Z" fill="#2E2F31"/>
<path d="M244.152 232.057C245.226 231.996 239.655 234.332 239.239 235.458C238.136 238.474 220.184 249.843 218.347 252.209C196.049 259.39 191.24 259.647 191.24 259.647C191.24 272.497 191.996 292.52 191.996 304.531C224.991 291.696 258.212 271.129 277.033 240.372C274.373 239.472 265.65 237.628 264.01 236.706C260.911 234.967 255.324 225.76 251.711 223.742C250.804 224.596 250.684 227.348 249.58 228.315L244.152 232.057Z" fill="#2E2F31"/>
<path d="M139.84 232.344C138.767 232.284 142.931 234.831 143.346 235.957C144.45 238.973 164.186 249.843 166.023 252.209C188.322 259.389 193.13 259.647 193.13 259.647C193.13 272.497 192.374 292.52 192.374 304.531C159.38 291.696 126.158 271.129 107.337 240.372C109.998 239.472 118.72 237.628 120.36 236.706C123.459 234.967 128.29 226.048 131.903 224.029C132.81 224.883 133.687 227.348 134.79 228.315L139.84 232.344Z" fill="#2E2F31"/>
<path d="M22.1478 272.55C16.7433 278.635 13.0621 290.003 10.6055 297.744C11.8678 300.45 18.6557 309.543 19.0034 311.652C19.5098 314.766 17.5521 322.318 18.4818 326.082C24.7708 326.18 31.09 326.052 37.3714 326.082L35.27 282.785L64.1373 267.304C61.9226 266.057 51.0303 258.929 49.7075 258.906C48.6946 258.891 32.6017 265.324 30.8179 266.253C28.1345 267.652 24.1434 270.313 22.1554 272.55H22.1478Z" fill="#2E2F31"/>
<path d="M84.0777 326.074C102.74 326.074 121.585 325.583 140.232 325.553L90.1172 296.686L84.0852 326.074H84.0777Z" fill="white"/>
<path d="M300.843 325.787C281.751 325.787 262.473 325.294 243.396 325.264L294.665 296.308L300.836 325.787H300.843Z" fill="white"/>
<path d="M8.50412 304.033C6.59929 311.222 5.44278 318.569 3.77983 325.81C4.15778 326.339 12.2911 326.037 13.75 326.075C13.9541 317.805 14.7175 310.413 8.50412 304.033Z" fill="#2E2F31"/>
<path d="M8.50408 304.033C14.7175 310.413 13.954 317.805 13.7499 326.074C15.3146 326.112 16.902 326.052 18.4742 326.074C17.5445 322.31 19.5098 314.759 18.9958 311.645C18.6481 309.536 11.8602 300.442 10.5979 297.736C9.93269 299.838 9.07098 301.863 8.49651 304.033H8.50408Z" fill="#6F7376"/>
<path d="M361.315 274.009C359.327 271.772 354.927 268.605 352.244 267.206C350.46 266.276 334.36 259.254 333.347 259.269C332.024 259.285 321.623 266.057 319.416 267.304C292.242 282.641 265.967 299.588 238.861 315.061C243.638 307.072 249.927 299.838 255.914 292.755C266.353 280.419 280.798 263.079 292.65 252.61C293.837 251.567 294.349 246.041 298.507 247.553C304.486 249.284 310.595 251.922 316.528 253.661C320.693 254.885 325.055 256.495 329.121 257.856C331.193 258.551 333.619 257.78 333.846 257.856C342.622 260.895 355.834 266.715 361.315 274.009Z" fill="white"/>
<path d="M21.5437 273.253C23.5317 271.016 28.6868 268.703 31.3702 267.304C33.1541 266.375 49.6324 259.254 50.6453 259.269C51.9681 259.285 62.3691 266.057 64.5763 267.304C91.7504 282.641 117.647 299.732 144.753 315.205C139.976 307.215 134.065 299.838 128.078 292.755C117.64 280.419 103.195 263.079 91.3422 252.61C90.1555 251.567 89.6429 246.041 85.4855 247.553C79.5064 249.284 73.3975 251.922 67.4638 253.661C63.2989 254.885 58.9374 256.495 54.8707 257.856C52.7996 258.551 50.3732 257.78 50.1464 257.856C41.3706 260.895 27.0239 265.959 21.5437 273.253Z" fill="white"/>
<path d="M108.637 52.2247C112.749 66.0196 117.677 79.6482 123.853 92.6344C117.677 92.5739 100.98 90.9412 96.3008 92.1128C94.8646 92.4681 92.1661 95.5975 91.841 97.1017C90.6014 102.756 94.4564 132.084 95.5147 139.613C96.656 147.754 98.2056 159.122 100.239 166.9C116.989 231.045 230.712 235.414 268.174 187.891C279.467 173.56 284.252 131.124 285.492 112.318C285.824 107.261 288.069 93.7304 281.553 92.1128C277.116 91.0092 260.963 92.5739 255.052 92.6344L272.369 42.7761C297.162 79.5349 291.977 125.221 282.869 166.364C277.381 191.134 270.54 206.168 251.908 223.826C211.77 261.877 172.653 265.747 130.157 228.55C129.053 227.583 127.39 226.252 126.483 225.398C85.8393 187.135 73.7225 89.0893 105.492 42.7686C107.306 45.3386 107.737 49.1785 108.644 52.2171L108.637 52.2247Z" fill="currentColor"/>
<path d="M95.6196 256.624C95.6196 256.624 91.2224 246.202 88.0608 246.418C87.4536 246.46 87.1297 246.614 86.549 246.796C85.7906 247.034 85.0372 247.552 85.0372 247.552L95.6196 256.624Z" fill="currentColor"/>
<path d="M286.481 258.513C286.481 258.513 293.902 246.201 297.063 246.418C297.67 246.459 297.994 246.614 298.575 246.796C299.333 247.034 300.087 247.931 300.087 247.931L286.481 258.513Z" fill="currentColor"/>
<path d="M273.134 99.0215H103.84C100.537 99.0215 97.8597 101.657 97.916 104.96C98.1838 120.661 100.185 163.402 113.761 182.925C131.926 209.046 156.022 213.16 187.838 213.16C221.097 213.16 246.955 212.017 265.695 182.925C278.515 163.022 279.245 120.308 279.059 104.799C279.021 101.563 276.371 99.0215 273.134 99.0215Z" fill="white"/>
<path d="M169.319 99.0215L160.619 211.47C147.679 209.463 136.358 205.287 126.463 197.02L132.039 99.0215H169.319Z" fill="#D5D5D5"/>
</g>
<defs>
<clipPath id="clip0_2609_312">
<rect width="379.432" height="326.437" fill="white"/>
</clipPath>
</defs>
</svg>
