<svg width="34" height="34" viewBox="0 0 34 34" fill="none" xmlns="http://www.w3.org/2000/svg">
<g clip-path="url(#clip0_2821_9)">
<path d="M8.70428 16.9341C9.14783 15.9474 9.97029 15.1804 10.9853 14.805C9.37232 13.2369 8.43217 11.1045 8.3621 8.85706C5.09945 8.99034 2.24157 11.0813 1.12794 14.1495C0.512961 16.2976 1.75652 18.5369 3.90555 19.1516C5.8362 19.7037 7.87978 18.7579 8.707 16.9287L8.70496 16.9341H8.70428Z" fill="#CA2B31"/>
<path d="M16.392 19.2168C16.3369 19.5759 16.2328 19.9267 16.0838 20.2579C14.2477 24.3325 9.45509 26.1481 5.37814 24.3127C1.30187 22.4774 -0.514495 17.6868 1.3216 13.6116C0.431102 15.6611 1.37126 18.0445 3.42232 18.9346C5.43392 19.8077 7.77547 18.921 8.70269 16.9341C9.14624 15.9474 9.96871 15.1803 10.9837 14.805C12.396 16.1867 14.2375 17.0463 16.2042 17.2401C16.3763 17.2564 16.5505 17.2673 16.7267 17.2741C16.6961 17.9377 16.5831 18.5953 16.3906 19.2318C16.3913 19.2277 16.3913 19.2229 16.392 19.2168Z" fill="#831C1C"/>
<path d="M17.0602 17.2828C16.9098 17.2828 16.7622 17.2788 16.6166 17.2713C16.4309 21.6396 12.7376 25.0301 8.36748 24.8444C3.99732 24.6588 0.60542 20.9671 0.791138 16.5988C0.965971 12.4916 4.25651 9.20104 8.36612 9.0256C8.35864 8.87872 8.35455 8.73116 8.35455 8.58224C8.35455 8.468 8.35932 8.35716 8.36272 8.24292C3.56058 8.4306 -0.18099 12.4746 0.00676854 17.2754C0.194527 22.0762 4.23951 25.8162 9.04232 25.6285C13.5825 25.451 17.2221 21.813 17.399 17.2747C17.2853 17.2794 17.1738 17.2828 17.0602 17.2828Z" fill="#100F30"/>
<path d="M16.9495 8.70126C17.9366 9.14462 18.704 9.96674 19.0795 10.9813C20.6482 9.36902 22.7816 8.42926 25.0299 8.35922C24.8973 5.09658 22.804 2.23786 19.7332 1.1247C17.5842 0.509979 15.344 1.75302 14.7291 3.90114C14.1767 5.83098 15.1229 7.8737 16.9529 8.70058H16.9502L16.9495 8.70126Z" fill="#FA1D00"/>
<path d="M14.6677 16.3859C14.3085 16.3309 13.9575 16.2268 13.6262 16.0779C9.54992 14.2426 7.73355 9.45199 9.56964 5.37675C11.4057 1.30219 16.1983 -0.513414 20.2746 1.32191C18.2242 0.431786 15.8398 1.37155 14.9493 3.42175C14.0759 5.43251 14.9629 7.77307 16.9507 8.69991C17.9378 9.14327 18.7052 9.96538 19.0807 10.9799C17.6984 12.3916 16.8385 14.2324 16.6446 16.1983C16.6283 16.371 16.6174 16.5451 16.6106 16.7205C15.9466 16.6899 15.2888 16.577 14.6521 16.3846L14.667 16.3859H14.6677Z" fill="#F04F4F"/>
<path d="M16.6019 17.0524C16.6019 16.9021 16.606 16.7545 16.6134 16.609C12.2433 16.4281 8.84661 12.7405 9.02757 8.37216C9.20308 4.12692 12.7004 0.77724 16.9509 0.78268C21.2054 0.78268 24.685 4.16296 24.8633 8.37012C25.0102 8.36264 25.1578 8.35856 25.3068 8.35856C25.4211 8.35856 25.532 8.36332 25.6463 8.36672C25.4667 3.7298 21.636 0 16.9509 0C12.1446 0.00136 8.24864 3.8964 8.25 8.70128C8.25068 13.3715 11.9412 17.2081 16.61 17.3917C16.61 17.2788 16.6025 17.1652 16.6025 17.0524H16.6019Z" fill="#100F30"/>
<path d="M17.0524 25.3001C16.0653 24.8567 15.298 24.0346 14.9224 23.02C13.353 24.6289 11.2196 25.5653 8.97266 25.6312C9.09987 28.8979 11.1931 31.7621 14.268 32.8759C16.417 33.4907 18.6572 32.2476 19.2722 30.0995C19.8246 28.1697 18.8783 26.1269 17.0483 25.3001H17.0524Z" fill="#8D0000"/>
<path d="M19.3342 17.6141C19.6933 17.6692 20.0444 17.7732 20.3757 17.9221C24.4519 19.7575 26.2683 24.5481 24.4322 28.6233C22.5961 32.6979 17.8035 34.5135 13.7266 32.6781C15.7769 33.5683 18.1613 32.6285 19.0518 30.5783C19.9253 28.5675 19.0382 26.227 17.0504 25.3001C16.0633 24.8568 15.296 24.0347 14.9205 23.0201C16.3042 21.6091 17.1647 19.7683 17.3593 17.8018C17.3756 17.6291 17.3865 17.455 17.3933 17.2795C18.0573 17.3101 18.7151 17.423 19.3518 17.6155L19.3335 17.6141H19.3342Z" fill="#B60000"/>
<path d="M17.393 17.3869C17.1372 17.4508 16.8698 17.4508 16.614 17.3869C16.5453 17.1319 16.5453 16.8633 16.614 16.6083C16.8657 16.5199 17.1406 16.5199 17.393 16.6083C17.4916 16.8585 17.4916 17.1367 17.393 17.3869Z" fill="#100F30"/>
<path d="M25.2966 17.0598C24.8531 18.0465 24.0306 18.8136 23.0156 19.1889C24.6286 20.757 25.5687 22.8895 25.6388 25.1369C28.9028 25.0043 31.7627 22.9119 32.8764 19.8424C33.4913 17.6943 32.2478 15.455 30.0988 14.8403C28.1681 14.2882 26.1245 15.234 25.2973 17.0632V17.0605L25.2966 17.0598Z" fill="#B31904"/>
<path d="M17.6061 14.7777C17.6612 14.4187 17.7653 14.0678 17.9143 13.7366C19.7511 9.66207 24.5444 7.84715 28.6206 9.68315C32.6969 11.5192 34.5126 16.3104 32.6758 20.385C33.5663 18.3355 32.6262 15.9521 30.5751 15.062C28.5635 14.1888 26.222 15.0756 25.2947 17.0625C24.8512 18.0492 24.0287 18.8162 23.0137 19.1916C21.6015 17.8098 19.7599 16.9503 17.7932 16.7565C17.6572 16.7429 17.5204 16.7341 17.3823 16.7273C17.3456 16.7273 17.3823 16.66 17.3476 16.6586C17.3476 16.6144 17.2728 16.6341 17.2776 16.5892C17.317 15.9704 17.4272 15.3578 17.6068 14.7648C17.6068 14.7668 17.6061 14.7723 17.6055 14.7777H17.6061Z" fill="#EE1C00"/>
<path d="M16.9403 16.711C17.0907 16.711 17.2363 16.7171 17.3839 16.7246C17.5682 12.3563 21.2602 8.96444 25.6303 9.14804C30.0005 9.33232 33.3937 13.0227 33.2101 17.391C33.0366 21.5002 29.7447 24.7928 25.6337 24.9669C25.6412 25.1138 25.6453 25.2613 25.6453 25.4102C25.6453 25.5245 25.6405 25.6353 25.6371 25.7496C30.4399 25.5619 34.1815 21.5186 33.9937 16.7178C33.806 11.917 29.761 8.177 24.9582 8.36468C20.418 8.54216 16.7778 12.1808 16.6016 16.7192C16.7152 16.7151 16.8281 16.711 16.9417 16.711H16.9403Z" fill="#100F30"/>
<path d="M17.4018 16.9476C17.4018 17.0979 17.3977 17.2454 17.3903 17.391C21.7604 17.5718 25.1571 21.2595 24.9761 25.6278C24.8006 29.873 21.3033 33.2227 17.0528 33.2173C12.7983 33.2173 9.31867 29.8316 9.14043 25.6217C8.99009 25.6292 8.85335 25.6353 8.70437 25.6353C8.59008 25.6353 8.46967 25.6285 8.35742 25.6237C8.53702 30.264 12.3677 34 17.0528 34C21.8591 33.9979 25.7544 30.1015 25.7523 25.2973C25.7503 20.6278 22.0604 16.7926 17.3923 16.6083C17.3971 16.7212 17.4018 16.8347 17.4018 16.9476Z" fill="#100F30"/>
</g>
<defs>
<clipPath id="clip0_2821_9">
<rect width="34" height="34" fill="white"/>
</clipPath>
</defs>
</svg>
