<svg width="1728" height="1117" viewBox="0 0 1728 1117" fill="none" xmlns="http://www.w3.org/2000/svg">
<path d="M1707 -22C1707 -22 1727.5 -9 1737 4C1737 121 1748 425.5 1547 710.5C1443.49 857.272 1266 1027.5 735.5 1181.5C471.5 1098.5 105.5 1199 40.5 1181.5C-96 1010.5 1.50171 1026.5 -70 784C40.5 810 187.065 792.737 452.5 784C771.5 773.5 1219.56 746.238 1471 551.5C1608.56 444.959 1653.23 233.157 1667.42 89.876C1667.4 89.1614 1667.43 88.37 1667.5 87.499C1668.5 75.4991 1669.15 60.5958 1655 51.5332C1647.98 47.0327 1643.2 45.4697 1637.79 45H1624.1C1621.3 45.0566 1618.17 45.0851 1614.55 45H0.000244141V0H1673.26C1673.26 -10 1686 -14.5 1707 -22Z" fill="#430C0C"/>
<path d="M763.91 849.375H964.352V930.926H763.91V849.375Z" fill="#A72116"/>
<path d="M951.571 814.408L981.639 811.259L988.34 713.732C988.34 709.355 984.788 705.803 980.41 705.803L955.359 706.139L951.571 814.408Z" fill="#8D8D8D"/>
<path d="M829.971 817.304L852.16 817.691L855.309 759.087H833.439L829.971 817.304Z" fill="#5E5958"/>
<path d="M732.055 765.737H958.289V732.437L731.786 735.534L732.055 765.737Z" fill="#8D8D8D"/>
<path d="M735.488 814.862L705.42 811.714L698.72 714.186C698.72 709.809 702.272 706.257 706.649 706.257L731.7 706.594L735.488 814.862Z" fill="#8D8D8D"/>
<path d="M532.505 841.21H558.415C563.872 841.21 568.297 845.634 568.297 851.092V862.793C568.297 868.251 563.872 872.675 558.415 872.675H532.505C527.047 872.675 522.623 868.251 522.623 862.793V851.092C522.623 845.634 527.047 841.21 532.505 841.21Z" fill="#A42B19"/>
<path d="M514.897 861.715H568.299C582.776 861.715 594.512 873.451 594.512 887.928V916.026C594.512 930.503 582.776 942.238 568.299 942.238H514.897C500.42 942.238 488.685 930.503 488.685 916.026V887.928C488.685 873.451 500.42 861.715 514.897 861.715Z" fill="#A72116"/>
<path d="M704.293 786.949C704.293 786.949 670.437 786.107 635.672 785.939C609.847 785.821 601.681 810.199 597.59 823.381C584.105 866.85 592.405 944.562 593.584 947.104C599.796 960.505 603.129 980.758 635.756 981.785C677.289 983.081 702.929 983.856 702.929 983.856" fill="#5E5958"/>
<path d="M1051.74 793.027C1051.74 793.027 1017.89 792.185 983.121 792.017C957.296 791.899 948.255 814.829 943.945 827.944C925.342 884.578 939.854 950.64 941.033 953.182C947.245 966.583 950.578 986.836 983.205 987.863C1024.74 989.159 1050.38 989.934 1050.38 989.934" fill="#5E5958"/>
<path d="M1050.92 989.985C1028.92 989.985 1011.09 945.89 1011.09 891.498C1011.09 837.105 1028.92 793.011 1050.92 793.011C1072.92 793.011 1090.75 837.105 1090.75 891.498C1090.75 945.89 1072.92 989.985 1050.92 989.985Z" fill="#8D8D8D"/>
<path d="M1051.68 944.613C1040.18 944.613 1030.87 921.729 1030.87 893.501C1030.87 865.272 1040.18 842.389 1051.68 842.389C1063.17 842.389 1072.48 865.272 1072.48 893.501C1072.48 921.729 1063.17 944.613 1051.68 944.613Z" fill="#302D2D"/>
<path d="M883.676 932.273C895.09 935.926 905.141 940.488 938.138 949.731C959.637 955.758 977.213 958.738 984.234 961.061C987.55 962.155 988.426 966.953 985.328 968.57C966.287 978.435 865.46 1007.56 840.258 1014.77C835.257 1016.2 830.072 1016.92 824.87 1016.87C813.068 1016.77 794.415 1014.14 792.344 998.755C788.994 973.738 814.617 910.117 883.676 932.273Z" fill="#A42B19"/>
<path d="M879.702 878.197C879.702 878.197 896.554 866.244 908.137 857.793C915.056 852.742 914.315 842.961 909.871 836.563C903.877 827.91 892.867 827.506 882.463 822.842C864.045 814.576 860.392 808.448 826.603 780.535C804.582 762.353 792.377 749.238 770.339 742.1C767.326 741.124 729.042 740.635 713.621 740.77C705.506 740.837 704.075 765.518 700.944 794.155C699.816 804.441 689.631 825.822 672.256 827.523C656.734 829.038 641.717 826.024 628.939 828.482C616.161 830.94 611.363 854.863 610.79 867.052" fill="#DB3821"/>
<path d="M706.213 796.444C706.213 824.088 712.475 846.496 720.22 846.496C727.964 846.496 734.227 824.088 734.227 796.444C734.227 768.8 730.59 746.645 720.22 746.392C710.522 746.157 706.213 768.8 706.213 796.444Z" fill="#302D2D"/>
<path d="M929.938 860.755C929.938 860.755 924.112 849.189 906.132 850.351C881.25 851.967 853.05 858.432 839.346 851.412C824.514 843.802 808.201 836.933 793.655 827.152C767.544 809.609 761.314 800.333 743.738 795.518C738.974 794.205 725.001 789.07 706.061 798.06C682.693 809.138 680.825 832.926 661.599 833.785C654.242 834.122 649.023 834.138 642.204 834.239C637.575 834.307 632.103 840.065 632.44 851.21L632.574 861.496C632.574 861.496 724.327 927.878 888.388 930.521C915.24 930.959 918.456 927.036 929.938 926.379" fill="#A72116"/>
<path d="M725.557 860.621C735.12 847.473 733.621 828.651 727.493 816.967C725.692 813.532 715.523 799.475 697.981 798.296C683.233 797.303 672.677 806.226 669.074 809.744C662.391 816.26 659.983 823.331 657.626 830.233C654.411 839.627 654.444 854.055 654.613 863.365L725.557 860.638V860.621Z" fill="white"/>
<path d="M712.273 833.6L656.346 833.448V849.829C662.609 856.092 704.815 856.344 712.172 842.489L712.257 833.6H712.273Z" fill="#302D2D"/>
<path d="M758.081 839.829H722.912C717.963 839.829 713.922 843.853 713.922 848.819V862.742H767.055V848.819C767.055 843.87 763.031 839.829 758.065 839.829H758.081Z" fill="#302D2D"/>
<path d="M394.661 871.109C394.661 871.109 355.805 870.907 320.703 870.671C301.73 870.554 288.211 892.305 282.942 904.712C266.275 944.074 270.332 999.327 280.248 1031.26C284.541 1045.05 294.811 1064.21 319.39 1063.81C361.327 1063.12 395.082 1062.49 395.082 1062.49" fill="#5E5958"/>
<path d="M391.562 1063.32C365.575 1063.32 344.507 1020.21 344.507 967.036C344.507 913.862 365.575 870.755 391.562 870.755C417.55 870.755 438.617 913.862 438.617 967.036C438.617 1020.21 417.55 1063.32 391.562 1063.32Z" fill="#8D8D8D"/>
<path d="M391.292 1017.83C378.981 1017.83 369.002 995.428 369.002 967.794C369.002 940.161 378.981 917.76 391.292 917.76C403.602 917.76 413.582 940.161 413.582 967.794C413.582 995.428 403.602 1017.83 391.292 1017.83Z" fill="#302D2D"/>
<path d="M489.795 916.515L399.894 944.276C391.174 948.149 394.861 961.28 404.322 960.017L501.445 931.296L489.778 916.498L489.795 916.515Z" fill="#5E5958"/>
<path d="M923.609 961.464C923.609 961.464 909.922 914.712 900.107 888.618C895.595 876.614 887.464 869.509 872.767 862.287C858.069 855.065 809.567 857.573 793.943 857.876C706.82 859.577 683.318 861.092 565.168 861.849C550.066 861.95 517.153 878.735 483.954 922.659C447.943 970.32 427.016 992.222 408.447 1020.2C405.029 1025.35 410.232 1034.98 414.255 1034.95C429.003 1034.82 481.378 1034.82 490.89 1032.04C523.298 1022.54 532.86 1014.02 563.568 1000.56C591.969 988.115 613.822 988.738 642.694 992.037C711.383 999.866 709.447 868.432 740.643 870.015C758.303 870.907 777.714 903.096 809.415 952.424C812.344 956.969 818.506 968.838 831.116 975.151C844.534 981.886 860.275 981.33 871.235 978.569C890.006 973.855 923.576 961.464 923.576 961.464H923.609Z" fill="#E82321"/>
<path d="M741.703 870.806C722.359 865.015 696.45 863.365 665.186 868.836C649.075 871.665 623.031 877.254 594.293 894.78C569.343 909.999 562.794 916.699 525.268 962.744C485.098 1012.04 458.465 1034.03 458.465 1034.03C458.465 1034.03 483.381 1035.25 503.499 1028.03C535.773 1016.45 551.11 1005.91 570.1 997.88C588.619 990.034 628.738 986.65 657.089 995.085" fill="#A72116"/>
<path d="M765.523 870.351C765.523 870.351 726.044 870.132 690.387 869.914C671.11 869.796 657.373 892.17 652.019 904.948C635.083 945.454 639.207 1002.31 649.292 1035.17C653.652 1049.36 664.09 1069.06 689.057 1068.66C731.667 1067.95 765.961 1067.31 765.961 1067.31" fill="#5E5958"/>
<path d="M765.204 1067.34C740.695 1067.34 720.826 1023.25 720.826 968.855C720.826 914.462 740.695 870.368 765.204 870.368C789.713 870.368 809.582 914.462 809.582 968.855C809.582 1023.25 789.713 1067.34 765.204 1067.34Z" fill="#8D8D8D"/>
<path d="M765.441 1019.63C753.949 1019.63 744.633 996.747 744.633 968.518C744.633 940.29 753.949 917.406 765.441 917.406C776.934 917.406 786.25 940.29 786.25 968.518C786.25 996.747 776.934 1019.63 765.441 1019.63Z" fill="#302D2D"/>
<path d="M227.415 1063.44C227.415 1063.44 382.334 1066.42 434.221 1066.42C551.597 1066.42 642.996 1061.35 642.996 1061.35L642.794 1052.93L434.238 1053.1L227.583 1051.87L227.432 1063.42L227.415 1063.44Z" fill="#DB3821"/>
<path d="M642.56 1016.67L642.812 1054.31L518.77 1054.87C517.221 1055.36 506.53 1055.42 506.53 1055.42C506.53 1055.42 521.11 1041.92 535.234 1033.55C541.834 1029.65 561.481 1017.61 569.646 1017.41C583.35 1017.07 642.56 1016.68 642.56 1016.68V1016.67Z" fill="#DB3821"/>
<path d="M227.13 1014.41L227.585 1052.19L350.921 1052.61C352.47 1053.1 363.16 1053.17 363.16 1053.17C363.16 1053.17 348.581 1039.67 334.456 1031.3C327.856 1027.39 308.21 1015.35 300.044 1015.15C286.34 1014.82 227.13 1014.43 227.13 1014.43V1014.41Z" fill="#DB3821"/>
<path d="M648.652 947.205L604.51 923.198C595.638 919.679 588.853 931.515 596.362 937.39L646.245 965.893L648.636 947.205H648.652Z" fill="#5E5958"/>
</svg>
