<svg width="78" height="30" viewBox="0 0 78 30" fill="none" xmlns="http://www.w3.org/2000/svg">
<path fill-rule="evenodd" clip-rule="evenodd" d="M22.6864 25.9807C25.0198 27.5363 35.3043 28.5734 37.6377 28.2277C38.8394 28.0497 39.9951 26.5653 41.2231 25.0375C41.3498 24.8026 41.4983 24.4954 41.6551 24.1293C42.4295 22.0136 42.4889 18.6008 42.4029 16.9544H43.0506C43.2036 19.735 42.3486 22.5095 41.6551 24.1293C41.5304 24.4699 41.3872 24.7769 41.2231 25.0375C42.3798 23.5983 43.6005 22.1205 44.9838 21.6594C45.4603 21.5006 46.2341 21.3164 47.199 21.1191C48.7968 20.7923 50.9189 20.4297 53.0833 20.0869C53.9133 19.9554 54.7495 19.8269 55.5647 19.7044C56.4478 19.5717 57.3063 19.4462 58.1057 19.3317C58.1865 19.3202 58.2666 19.3087 58.3462 19.2974C58.9811 19.2069 59.5753 19.1239 60.1107 19.0505C60.2894 19.026 60.4616 19.0026 60.6265 18.9803V13.622L40.7333 13.622C40.6295 14.6537 39.991 16.7646 38.2674 16.9544H37.0555C36.5468 16.6153 35.305 15.8109 34.4072 15.3065C33.5095 14.8021 32.4132 13.9734 32.3234 13.622H30.4573V14.9026L28.0783 14.6761V13.622L9.16661 13.622L9.09469 17.6331C9.53553 17.8185 10.1381 18.0493 10.7293 18.3666C11.1377 17.9556 11.5187 17.5933 11.8228 17.2753C12.28 17.253 12.2752 17.5045 12.2157 17.6331L11.2486 18.6823C15.0807 20.815 20.9545 24.8261 22.6864 25.9807ZM44.648 14.6761C44.7214 15.3599 44.375 16.6816 42.4029 16.4973C43.0189 16.0577 44.3304 15.078 44.648 14.6761ZM26.1034 15.3065V17.2753H23.904V15.3065H26.1034ZM39.9731 19.3014C36.6864 20.9252 28.0184 23.1177 19.6398 18.8974C23.7543 21.8748 33.5813 26.124 39.9731 19.3014Z" fill="#B60000"/>
<path d="M37.6377 28.2277C35.3043 28.5734 25.0198 27.5363 22.6864 25.9807C20.9545 24.8261 15.0807 20.815 11.2486 18.6823L7.72678 22.5033C12.102 23.4065 19.2939 28.2818 20.9422 28.809C22.3963 29.2741 33.2612 29.5301 38.512 29.5999C39.3461 29.3072 41.1791 28.3035 42.8161 26.4127C43.0742 26.1146 43.3274 25.7944 43.571 25.4515C43.6529 25.3363 43.7337 25.2185 43.8132 25.0982C43.9848 24.8384 44.1509 24.5938 44.3113 24.3637C44.3778 24.2683 44.4433 24.1755 44.5078 24.085C44.6043 23.9497 44.6986 23.8199 44.7906 23.6953C44.8774 23.5777 44.9622 23.4649 45.045 23.3566C45.1836 23.1753 45.3164 23.0069 45.4433 22.8505C45.5434 22.7273 45.6397 22.6117 45.7323 22.5033C46.4782 21.6299 46.981 21.2248 47.199 21.1191C46.2341 21.3164 45.4603 21.5006 44.9838 21.6594C43.6005 22.1205 42.3798 23.5983 41.2231 25.0375C39.9951 26.5653 38.8394 28.0497 37.6377 28.2277Z" fill="#831C1C"/>
<path d="M9.09469 17.6331L9.16661 13.622H7.05538L6.91327 22.3799C7.17107 22.4028 7.443 22.4447 7.72678 22.5033L11.2486 18.6823C11.0705 18.5832 10.898 18.4571 10.7293 18.3666C9.46088 19.643 7.93906 21.1208 7.72678 21.0111C7.44615 20.8661 8.49782 18.6987 9.09469 17.6331Z" fill="#B60000"/>
<path d="M9.09469 17.6331C8.49782 18.6987 7.44615 20.8661 7.72678 21.0111C7.93906 21.1208 9.46088 19.643 10.7293 18.3666C10.1381 18.0493 9.53553 17.8185 9.09469 17.6331Z" fill="#831C1C"/>
<path d="M12.2157 17.6331C12.2752 17.5045 12.28 17.253 11.8228 17.2753C11.5187 17.5933 11.1377 17.9556 10.7293 18.3666C10.898 18.4571 11.0705 18.5832 11.2486 18.6823L12.2157 17.6331Z" fill="#B60000"/>
<path d="M9.16661 28.9855C9.74231 27.9722 10.5483 25.5428 9.16661 23.9313H6.27296H3.3793C2.80227 24.8458 1.99442 27.1368 3.3793 28.9855H9.16661Z" fill="#831C1C"/>
<path d="M7.05538 13.622H6.47742V14.5664V22.3597C6.6176 22.3597 6.76304 22.3666 6.91327 22.3799L7.05538 13.622Z" fill="#831C1C"/>
<path d="M7.72678 22.5033C7.443 22.4447 7.17107 22.4028 6.91327 22.3799C6.76304 22.3666 6.6176 22.3597 6.47742 22.3597L6.34359 23.3884L6.27296 23.9313L7.72678 22.5033Z" fill="#B60000"/>
<path d="M6.34359 23.3884L6.47742 22.3597V14.5664H4.53197C4.4221 16.2878 2.9831 18.336 2.27734 19.1449C2.29774 20.6878 2.32961 22.2509 2.35743 23.3884H6.34359Z" fill="#EE1C00"/>
<path d="M4.53197 14.5664V13.622H2.35743C2.24107 13.8284 2.24178 16.4559 2.27734 19.1449C2.9831 18.336 4.4221 16.2878 4.53197 14.5664Z" fill="#F04F4F"/>
<path d="M6.47742 14.5664V13.622H4.53197V14.5664H6.47742Z" fill="#B60000"/>
<path d="M1.32738 23.7911L2.35743 23.3884C2.32961 22.2509 2.29774 20.6878 2.27734 19.1449C2.24178 16.4559 2.24107 13.8284 2.35743 13.622H1.44183L1.32738 22.8297H-0.000228882V23.7911H1.32738Z" fill="#B60000"/>
<path d="M38.2674 16.9544C39.991 16.7646 40.6295 14.6537 40.7333 13.622L32.3234 13.622C32.4132 13.9734 33.5095 14.8021 34.4072 15.3065C35.305 15.8109 36.5468 16.6153 37.0555 16.9544H38.2674Z" fill="#831C1C"/>
<path d="M30.4573 14.9026V13.622H28.0783V14.6761L30.4573 14.9026Z" fill="#EE1C00"/>
<path d="M26.1034 17.2753V15.3065H23.904V17.2753H26.1034Z" fill="#EE1C00"/>
<path d="M39.9731 19.3014C36.6864 20.9252 28.0184 23.1177 19.6398 18.8974C23.7543 21.8748 33.5813 26.124 39.9731 19.3014Z" fill="#F04F4F"/>
<path d="M43.0506 16.9544H42.4029C42.4889 18.6008 42.4295 22.0136 41.6551 24.1293C42.3486 22.5095 43.2036 19.735 43.0506 16.9544Z" fill="#F04F4F"/>
<path d="M44.648 14.6761C44.7214 15.3599 44.375 16.6816 42.4029 16.4973C43.0189 16.0577 44.3304 15.078 44.648 14.6761Z" fill="#F04F4F"/>
<path d="M42.8161 26.4127H48.856L47.199 25.4515H43.571C43.3274 25.7944 43.0742 26.1146 42.8161 26.4127Z" fill="#831C1C"/>
<path d="M44.3113 24.3637H45.7476V24.085H44.5078C44.4433 24.1755 44.3778 24.2683 44.3113 24.3637Z" fill="#831C1C"/>
<path d="M44.7906 23.6953H46.5385V23.3566H45.045C44.9622 23.4649 44.8774 23.5777 44.7906 23.6953Z" fill="#831C1C"/>
<path d="M45.4433 22.8505H47.3918V22.5033H45.7323C45.6397 22.6117 45.5434 22.7273 45.4433 22.8505Z" fill="#831C1C"/>
<path d="M60.6265 25.2432H59.5182H56.9473C56.5392 26.2046 55.9678 28.299 56.9473 28.9855H63.3369C63.6605 28.1592 64.0751 26.2539 63.1447 25.2432H60.6265Z" fill="#831C1C"/>
<path d="M61.9817 19.7044H60.1107C59.9643 20.511 59.6646 22.3828 59.6374 23.4175C59.6241 23.923 59.3781 23.6555 58.9351 23.0679C58.7666 22.8444 58.5697 22.5746 58.3462 22.2835C57.6539 21.3817 56.7073 20.275 55.5647 19.7044C54.7495 19.8269 53.9133 19.9554 53.0833 20.0869C54.4978 20.2542 57.9626 23.6425 59.5182 25.2432H60.6265C60.6265 24.877 61.53 21.3497 61.9817 19.7044Z" fill="#831C1C"/>
<path d="M58.9351 23.0679C58.8572 22.0849 58.6605 20.0775 58.4971 19.9117H58.4273H58.1717H58.1057C58.1355 20.3923 58.2254 21.5396 58.3462 22.2835C58.5697 22.5746 58.7666 22.8444 58.9351 23.0679Z" fill="#831C1C"/>
<path d="M58.4273 19.9117L58.3462 19.2974C58.2666 19.3087 58.1865 19.3202 58.1057 19.3317L58.1717 19.9117H58.4273Z" fill="#B60000"/>
<path d="M61.9817 18.9803H60.6265C60.4616 19.0026 60.2894 19.026 60.1107 19.0505V19.7044H61.9817V18.9803Z" fill="#B60000"/>
<path d="M60.6265 13.622V18.9803H61.9817V18.2829V13.622H60.6265Z" fill="#B60000"/>
<path d="M61.9817 13.622V18.2829C67.2918 18.9399 77.6419 18.9276 76.5613 13.622L61.9817 13.622Z" fill="#8D0000"/>
<path d="M69.7644 29.5999L74.9601 18.9803H69.7644C69.7644 21.393 66.698 21.082 65.761 22.3597C64.8241 23.6374 63.4612 29.0036 65.25 29.5999C66.681 30.0769 68.8559 29.7987 69.7644 29.5999Z" fill="#B60000"/>
<path d="M74.9601 18.9803C75.8119 18.3418 77.4644 16.3763 77.26 13.622H76.5613C77.6419 18.9276 67.2918 18.9399 61.9817 18.2829V18.9803H63.3369L65.1955 18.9803H69.7644H74.9601Z" fill="#F04F4F"/>
<path fill-rule="evenodd" clip-rule="evenodd" d="M22.6862 3.25641C25.0196 1.95165 35.3041 1.08181 37.6375 1.37176C38.8392 1.52106 39.9949 2.76602 41.2229 4.0475C41.3496 4.2445 41.4981 4.50212 41.6549 4.80923C42.4293 6.58368 42.4887 9.44617 42.4027 10.827H43.0504C43.2034 8.49487 42.3484 6.1678 41.6549 4.80923C41.5302 4.52354 41.387 4.26606 41.2229 4.0475C42.3796 5.25456 43.6003 6.49402 44.9836 6.88077C45.4601 7.01399 46.2339 7.16849 47.1988 7.33397C48.7966 7.60802 50.9187 7.9122 53.0831 8.19973C53.9131 8.30999 54.7493 8.4178 55.5645 8.52052C56.4476 8.6318 57.3061 8.7371 58.1055 8.8331C58.1863 8.8428 58.2664 8.8524 58.346 8.86191C58.9809 8.9378 59.5751 9.0074 60.1105 9.06897C60.2892 9.08952 60.4614 9.10917 60.6263 9.12786L60.6265 13.622L40.7333 13.622C40.6295 12.7567 39.9908 10.9862 38.2672 10.827H37.0553C36.5466 11.1115 35.3048 11.7861 34.407 12.2092C33.5093 12.6322 32.4132 13.3273 32.3234 13.622H30.4573L30.4571 12.548L28.0781 12.738L28.0783 13.622L9.16661 13.622L9.09448 10.2578C9.53532 10.1022 10.1379 9.90874 10.7291 9.64257C11.1375 9.98726 11.5185 10.2912 11.8226 10.5579C12.2798 10.5766 12.275 10.3656 12.2155 10.2578L11.2484 9.37779C15.0805 7.58902 20.9543 4.22481 22.6862 3.25641ZM44.6478 12.738C44.7212 12.1644 44.3748 11.0559 42.4027 11.2104C43.0187 11.5791 44.3302 12.4008 44.6478 12.738ZM26.1032 12.2092V10.5579H23.9038V12.2092H26.1032ZM39.9729 8.85855C36.6862 7.49661 28.0182 5.65765 19.6396 9.19737C23.7541 6.7001 33.5811 3.13616 39.9729 8.85855Z" fill="#B60000"/>
<path d="M37.6375 1.37176C35.3041 1.08181 25.0196 1.95165 22.6862 3.25641C20.9543 4.22481 15.0805 7.58902 11.2484 9.37779L7.72658 6.17302C12.1018 5.41545 19.2937 1.32636 20.942 0.884155C22.3961 0.494076 33.261 0.2794 38.5118 0.220821C39.3459 0.466307 41.1789 1.30815 42.8159 2.89407C43.074 3.14409 43.3272 3.41261 43.5708 3.7002C43.6527 3.79683 43.7335 3.89562 43.813 3.99658C43.9846 4.21446 44.1507 4.41961 44.3111 4.61261C44.3776 4.69258 44.4431 4.77048 44.5076 4.84632C44.6041 4.95981 44.6983 5.06873 44.7904 5.1732C44.8772 5.27181 44.962 5.36647 45.0448 5.4573C45.1834 5.60933 45.3162 5.75063 45.4431 5.88174C45.5432 5.98507 45.6395 6.08207 45.7321 6.17302C46.478 6.90556 46.9808 7.24527 47.1988 7.33397C46.2339 7.16849 45.4601 7.01399 44.9836 6.88077C43.6003 6.49402 42.3796 5.25456 41.2229 4.0475C39.9949 2.76602 38.8392 1.52106 37.6375 1.37176Z" fill="#831C1C"/>
<path d="M9.09448 10.2578L9.16661 13.622H7.05538L6.91307 6.27647C7.17087 6.25727 7.4428 6.22215 7.72658 6.17302L11.2484 9.37779C11.0703 9.46094 10.8978 9.56663 10.7291 9.64257C9.46067 8.57199 7.93886 7.33254 7.72658 7.42452C7.44595 7.54612 8.49761 9.36404 9.09448 10.2578Z" fill="#B60000"/>
<path d="M9.09448 10.2578C8.49761 9.36404 7.44595 7.54612 7.72658 7.42452C7.93886 7.33254 9.46067 8.57199 10.7291 9.64257C10.1379 9.90874 9.53532 10.1022 9.09448 10.2578Z" fill="#831C1C"/>
<path d="M12.2155 10.2578C12.275 10.3656 12.2798 10.5766 11.8226 10.5579C11.5185 10.2912 11.1375 9.98726 10.7291 9.64257C10.8978 9.56663 11.0703 9.46094 11.2484 9.37779L12.2155 10.2578Z" fill="#B60000"/>
<path d="M9.1664 0.736143C9.7421 1.586 10.5481 3.62362 9.1664 4.97524H6.27276H3.3791C2.80207 4.20828 1.99422 2.28671 3.3791 0.736143H9.1664Z" fill="#831C1C"/>
<path d="M7.05538 13.622H6.47742L6.47721 12.8299V6.29345C6.6174 6.29345 6.76284 6.28766 6.91307 6.27647L7.05538 13.622Z" fill="#831C1C"/>
<path d="M7.72658 6.17302C7.4428 6.22215 7.17087 6.25727 6.91307 6.27647C6.76284 6.28766 6.6174 6.29345 6.47721 6.29345L6.34338 5.4306L6.27276 4.97524L7.72658 6.17302Z" fill="#B60000"/>
<path d="M6.34338 5.4306L6.47721 6.29345V12.8299H4.53177C4.4219 11.3862 2.9829 9.66828 2.27714 8.98981C2.29754 7.69574 2.32941 6.38471 2.35723 5.4306H6.34338Z" fill="#EE1C00"/>
<path d="M4.53177 12.8299L4.53197 13.622H2.35743C2.24107 13.4489 2.24158 11.2451 2.27714 8.98981C2.9829 9.66828 4.4219 11.3862 4.53177 12.8299Z" fill="#F04F4F"/>
<path d="M6.47721 12.8299L6.47742 13.622H4.53197L4.53177 12.8299H6.47721Z" fill="#B60000"/>
<path d="M1.32718 5.09288L2.35723 5.4306C2.32941 6.38471 2.29754 7.69574 2.27714 8.98981C2.24158 11.2451 2.24107 13.4489 2.35743 13.622H1.44183L1.32718 5.89922H-0.000427246V5.09288H1.32718Z" fill="#B60000"/>
<path d="M38.2672 10.827C39.9908 10.9862 40.6295 12.7567 40.7333 13.622L32.3234 13.622C32.4132 13.3273 33.5093 12.6322 34.407 12.2092C35.3048 11.7861 36.5466 11.1115 37.0553 10.827H38.2672Z" fill="#831C1C"/>
<path d="M30.4571 12.548L30.4573 13.622H28.0783L28.0781 12.738L30.4571 12.548Z" fill="#EE1C00"/>
<path d="M26.1032 10.5579V12.2092H23.9038V10.5579H26.1032Z" fill="#EE1C00"/>
<path d="M39.9729 8.85855C36.6862 7.49661 28.0182 5.65765 19.6396 9.19737C23.7541 6.7001 33.5811 3.13616 39.9729 8.85855Z" fill="#F04F4F"/>
<path d="M43.0504 10.827H42.4027C42.4887 9.44617 42.4293 6.58368 41.6549 4.80923C42.3484 6.1678 43.2034 8.49487 43.0504 10.827Z" fill="#F04F4F"/>
<path d="M44.6478 12.738C44.7212 12.1644 44.3748 11.0559 42.4027 11.2104C43.0187 11.5791 44.3302 12.4008 44.6478 12.738Z" fill="#F04F4F"/>
<path d="M42.8159 2.89407H48.8558L47.1988 3.7002H43.5708C43.3272 3.41261 43.074 3.14409 42.8159 2.89407Z" fill="#831C1C"/>
<path d="M44.3111 4.61261H45.7474V4.84632H44.5076C44.4431 4.77048 44.3776 4.69258 44.3111 4.61261Z" fill="#831C1C"/>
<path d="M44.7904 5.1732H46.5383V5.4573H45.0448C44.962 5.36647 44.8772 5.27181 44.7904 5.1732Z" fill="#831C1C"/>
<path d="M45.4431 5.88174H47.3916V6.17302H45.7321C45.6395 6.08207 45.5432 5.98507 45.4431 5.88174Z" fill="#831C1C"/>
<path d="M60.6263 3.87493H59.518H56.9471C56.539 3.06857 55.9676 1.31192 56.9471 0.736143H63.3367C63.6603 1.42921 64.0749 3.02726 63.1445 3.87493H60.6263Z" fill="#831C1C"/>
<path d="M61.9815 8.52052H60.1105C59.9641 7.84403 59.6644 6.27409 59.6372 5.40623C59.6239 4.98223 59.3779 5.20663 58.9349 5.69943C58.7664 5.88688 58.5695 6.11317 58.346 6.35738C57.6537 7.11371 56.7071 8.04189 55.5645 8.52052C54.7493 8.4178 53.9131 8.30999 53.0831 8.19973C54.4975 8.05934 57.9624 5.21749 59.518 3.87493H60.6263C60.6263 4.18206 61.5298 7.14051 61.9815 8.52052Z" fill="#831C1C"/>
<path d="M58.9349 5.69943C58.857 6.52389 58.6603 8.2076 58.4969 8.34667H58.4271H58.1715H58.1055C58.1353 7.94353 58.2252 6.98126 58.346 6.35738C58.5695 6.11317 58.7664 5.88688 58.9349 5.69943Z" fill="#831C1C"/>
<path d="M58.4271 8.34667L58.346 8.86191C58.2664 8.8524 58.1863 8.8428 58.1055 8.8331L58.1715 8.34667H58.4271Z" fill="#B60000"/>
<path d="M61.9815 9.12786H60.6263C60.4614 9.10917 60.2892 9.08952 60.1105 9.06897V8.52052H61.9815V9.12786Z" fill="#B60000"/>
<path d="M60.6265 13.622L60.6263 9.12786H61.9815V9.7128L61.9817 13.622H60.6265Z" fill="#B60000"/>
<path d="M61.9817 13.622L61.9815 9.7128C67.2916 9.16171 77.6419 9.17201 76.5613 13.622L61.9817 13.622Z" fill="#8D0000"/>
<path d="M69.7642 0.220821L74.9599 9.12786H69.7642C69.7642 7.1042 66.6978 7.36508 65.7608 6.29345C64.8239 5.22181 63.461 0.720928 65.2498 0.220821C66.6808 -0.179262 68.8557 0.054121 69.7642 0.220821Z" fill="#B60000"/>
<path d="M74.9599 9.12786C75.8117 9.66337 77.4644 11.3119 77.26 13.622H76.5613C77.6419 9.17201 67.2916 9.16171 61.9815 9.7128V9.12786H63.3367H65.1953L69.7642 9.12786H74.9599Z" fill="#F04F4F"/>
</svg>
