<svg width="34" height="50" viewBox="0 0 34 50" fill="none" xmlns="http://www.w3.org/2000/svg">
<path d="M17.9056 48.5236L17.9056 33.3537L33.0755 33.3537L33.0755 48.5236L17.9056 48.5236Z" fill="#CACACA" stroke="white"/>
<path d="M1.53845 32.2996L1.53845 17.1297L16.7084 17.1297L16.7084 32.2996L1.53845 32.2996Z" fill="#CACACA" stroke="white"/>
<path d="M17.772 15.9323L17.772 0.762345L32.942 0.762345L32.942 15.9323L17.772 15.9323Z" fill="#CACACA" stroke="white"/>
<path d="M1.60874 48.5885L1.60874 33.4186L16.7787 33.4186L16.7787 48.5885L1.60874 48.5885Z" fill="black" stroke="white"/>
<path d="M17.8371 32.2296L17.8371 17.0597L33.007 17.0597L33.007 32.2296L17.8371 32.2296Z" fill="black" stroke="white"/>
<path d="M1.48367 15.9925L1.48367 0.822541L16.6536 0.822541L16.6536 15.9925L1.48367 15.9925Z" fill="black" stroke="white"/>
</svg>
