<svg width="1600" height="1600" viewBox="0 0 1600 1600" fill="none" xmlns="http://www.w3.org/2000/svg">
<g clip-path="url(#clip0_1_20)">
<path d="M1376.38 103.221C1370.52 100.487 1363.61 101.39 1358.63 105.54C1321.06 136.963 1275.75 153.588 1227.65 153.588C1180.02 153.588 1133.41 136.524 1096.4 105.54C1052.82 69.2126 1000.26 49.998 944.348 49.998C890.003 49.998 836.757 69.1641 794.128 104.002C789.245 106.932 785.999 112.254 785.999 118.334V481.663C785.999 488.133 789.734 494.016 795.593 496.751C801.478 499.485 808.387 498.582 813.342 494.432C850.891 463.036 896.203 446.459 944.348 446.459C992.493 446.459 1037.78 463.036 1075.33 494.457C1118.25 530.273 1172.35 550 1227.65 550C1281.99 550 1335.24 530.834 1377.87 495.971C1382.73 493.066 1386 487.743 1386 481.664V118.334C1386 111.865 1382.24 105.981 1376.38 103.221Z" fill="#E6E9ED"/>
<path d="M1236 549.854C1287.42 547.997 1337.44 529.053 1377.87 495.971C1382.73 493.066 1386 487.743 1386 481.664V118.334C1386 111.864 1382.24 105.981 1376.38 103.221C1370.52 100.487 1363.61 101.39 1358.63 105.54C1323.23 135.155 1281 151.585 1236 153.416L1236 549.854Z" fill="#434A54"/>
<path d="M1085.71 97.1179C1044.35 66.2594 995.764 49.9996 944.348 49.9996C941.565 49.9996 938.782 50.0731 935.998 50.1699V446.631C938.757 446.509 941.54 446.46 944.348 446.46C992.493 446.46 1037.78 463.037 1075.33 494.458C1078.72 497.29 1082.19 500.001 1085.71 502.613V97.1179Z" fill="#434A54"/>
<path d="M794.129 104.002C789.246 106.932 786.001 112.254 786.001 118.334V481.663C786.001 488.133 789.735 494.016 795.595 496.751C801.479 499.485 808.389 498.582 813.344 494.432C848.721 464.867 890.981 448.436 936 446.629V50.1699C884.584 52.0262 834.585 70.947 794.129 104.002Z" fill="#E6E9ED"/>
<path d="M929.993 252.612C878.944 252.612 828.774 266.578 786.001 292.308V481.664C786.001 488.135 789.735 494.018 795.595 496.752C801.479 499.487 808.389 498.584 813.344 494.433C848.721 464.869 890.981 448.437 936 446.631V252.686C933.998 252.636 931.995 252.612 929.993 252.612Z" fill="#434A54"/>
<path d="M1085.71 502.612V299.755C1041.76 269.97 990.418 253.784 935.998 252.686V446.631C938.757 446.509 941.54 446.46 944.348 446.46C992.493 446.46 1037.78 463.037 1075.33 494.458C1078.72 497.29 1082.19 499.999 1085.71 502.612Z" fill="#E6E9ED"/>
<path d="M1386 481.664V308.373C1344.67 339.649 1294.89 356.201 1242.01 356.201C1240 356.201 1238 356.152 1236 356.104V549.855C1287.42 547.999 1337.44 529.055 1377.87 495.973C1382.73 493.066 1386 487.743 1386 481.664Z" fill="#E6E9ED"/>
<path d="M800.65 800C791.445 800 784.001 792.553 784.001 783.35V16.6738C784.001 7.46893 791.446 5.72205e-06 800.65 5.72205e-06C809.853 5.72205e-06 817.325 7.47049 817.325 16.6738V783.35C817.325 792.555 809.855 800 800.65 800Z" fill="#ED5564"/>
<path d="M1236 356.104C1185.64 354.858 1136.66 337.964 1097.45 308.154C1093.59 305.249 1089.68 302.441 1085.71 299.755V502.612C1126.82 533.252 1176.72 550 1227.65 550C1230.43 550 1233.21 549.952 1236 549.854V356.104Z" fill="#434A54"/>
</g>
<defs>
<clipPath id="clip0_1_20">
<rect width="800" height="800" fill="white" transform="translate(686)"/>
</clipPath>
</defs>
</svg>
