<svg width="861" height="69" viewBox="0 0 861 69" preserveAspectRatio="none" fill="none" xmlns="http://www.w3.org/2000/svg">
<rect width="47.8333" height="23" fill="black"/>
<rect x="47.834" width="47.8333" height="23" fill="white"/>
<rect x="95.666" width="47.8333" height="23" fill="black"/>
<rect x="143.5" width="47.8333" height="23" fill="white"/>
<rect x="191.334" width="47.8333" height="23" fill="black"/>
<rect x="239.166" width="47.8333" height="23" fill="white"/>
<rect x="287" width="47.8333" height="23" fill="black"/>
<rect x="334.834" width="47.8333" height="23" fill="white"/>
<rect x="382.666" width="47.8333" height="23" fill="black"/>
<rect x="430.5" width="47.8333" height="23" fill="white"/>
<rect x="478.334" width="47.8333" height="23" fill="black"/>
<rect x="526.166" width="47.8333" height="23" fill="white"/>
<rect x="574" width="47.8333" height="23" fill="black"/>
<rect x="621.834" width="47.8333" height="23" fill="white"/>
<rect x="669.666" width="47.8333" height="23" fill="black"/>
<rect x="717.5" width="47.8333" height="23" fill="white"/>
<rect x="765.334" width="47.8333" height="23" fill="black"/>
<rect x="813.166" width="47.8333" height="23" fill="white"/>
<rect y="46" width="47.8333" height="23" fill="black"/>
<rect x="47.834" y="46" width="47.8333" height="23" fill="white"/>
<rect x="95.666" y="46" width="47.8333" height="23" fill="black"/>
<rect x="143.5" y="46" width="47.8333" height="23" fill="white"/>
<rect x="191.334" y="46" width="47.8333" height="23" fill="black"/>
<rect x="239.166" y="46" width="47.8333" height="23" fill="white"/>
<rect x="287" y="46" width="47.8333" height="23" fill="black"/>
<rect x="334.834" y="46" width="47.8333" height="23" fill="white"/>
<rect x="382.666" y="46" width="47.8333" height="23" fill="black"/>
<rect x="430.5" y="46" width="47.8333" height="23" fill="white"/>
<rect x="478.334" y="46" width="47.8333" height="23" fill="black"/>
<rect x="526.166" y="46" width="47.8333" height="23" fill="white"/>
<rect x="574" y="46" width="47.8333" height="23" fill="black"/>
<rect x="621.834" y="46" width="47.8333" height="23" fill="white"/>
<rect x="669.666" y="23" width="47.8333" height="23" fill="white"/>
<rect x="669.666" y="46" width="47.8333" height="23" fill="black"/>
<rect x="717.5" y="46" width="47.8333" height="23" fill="white"/>
<rect x="765.334" y="46" width="47.8333" height="23" fill="black"/>
<rect x="813.166" y="46" width="47.8333" height="23" fill="white"/>
<rect y="23" width="47.8333" height="23" fill="white"/>
<rect x="47.834" y="23" width="47.8333" height="23" fill="black"/>
<rect x="95.666" y="23" width="47.8333" height="23" fill="white"/>
<rect x="143.5" y="23" width="47.8333" height="23" fill="black"/>
<rect x="191.334" y="23" width="47.8333" height="23" fill="white"/>
<rect x="239.166" y="23" width="47.8333" height="23" fill="black"/>
<rect x="287" y="23" width="47.8333" height="23" fill="white"/>
<rect x="334.834" y="23" width="47.8333" height="23" fill="black"/>
<rect x="382.666" y="23" width="47.8333" height="23" fill="white"/>
<rect x="430.5" y="23" width="47.8333" height="23" fill="black"/>
<rect x="478.334" y="23" width="47.8333" height="23" fill="white"/>
<rect x="526.166" y="23" width="47.8333" height="23" fill="black"/>
<rect x="574" y="23" width="47.8333" height="23" fill="white"/>
<rect x="621.834" y="23" width="47.8333" height="23" fill="black"/>
<rect x="717.5" y="23" width="47.8333" height="23" fill="black"/>
<rect x="765.334" y="23" width="47.8333" height="23" fill="white"/>
<rect x="813.166" y="23" width="47.8333" height="23" fill="black"/>
</svg>
