<svg width="100" height="100" viewBox="0 0 100 100" fill="none" xmlns="http://www.w3.org/2000/svg">
<path d="M50.0163 0C29.1418 0 23.0368 0.0215403 21.8501 0.12001C17.5663 0.476194 14.9006 1.15087 11.9965 2.59714C9.75851 3.70878 7.99345 4.99735 6.25147 6.80365C3.07899 10.0978 1.15628 14.1504 0.460255 18.9678C0.121857 21.3064 0.0234144 21.7834 0.00341816 33.729C-0.0042727 37.7109 0.00341816 42.9513 0.00341816 49.9804C0.00341816 70.8437 0.0264908 76.9442 0.126472 78.1289C0.472561 82.2985 1.12628 84.9218 2.51064 87.7913C5.1563 93.284 10.2092 97.4075 16.1619 98.9461C18.2231 99.4769 20.4996 99.7692 23.4221 99.9077C24.6603 99.9615 37.281 100 49.9094 100C62.5378 100 75.1662 99.9846 76.3737 99.9231C79.7577 99.7638 81.7227 99.5 83.8953 98.9384C86.8469 98.1812 89.5977 96.7887 91.9556 94.8581C94.3135 92.9274 96.2216 90.5052 97.5466 87.7605C98.9041 84.9603 99.5924 82.237 99.9039 78.2851C99.9715 77.4235 100 63.6862 100 49.9673C100 36.2461 99.9692 22.5342 99.9016 21.6726C99.5862 17.6569 98.8979 14.9566 97.4966 12.1026C96.3468 9.76621 95.0702 8.02145 93.2167 6.23745C89.9096 3.07718 85.8642 1.15394 81.0428 0.4585C78.7071 0.120779 78.2418 0.020771 66.2902 0H50.0163Z" fill="url(#paint0_radial_3775_159)"/>
<path d="M50.0163 0C29.1418 0 23.0368 0.0215403 21.8501 0.12001C17.5663 0.476194 14.9006 1.15087 11.9965 2.59714C9.75851 3.70878 7.99345 4.99735 6.25147 6.80365C3.07899 10.0978 1.15628 14.1504 0.460255 18.9678C0.121857 21.3064 0.0234144 21.7834 0.00341816 33.729C-0.0042727 37.7109 0.00341816 42.9513 0.00341816 49.9804C0.00341816 70.8437 0.0264908 76.9442 0.126472 78.1289C0.472561 82.2985 1.12628 84.9218 2.51064 87.7913C5.1563 93.284 10.2092 97.4075 16.1619 98.9461C18.2231 99.4769 20.4996 99.7692 23.4221 99.9077C24.6603 99.9615 37.281 100 49.9094 100C62.5378 100 75.1662 99.9846 76.3737 99.9231C79.7577 99.7638 81.7227 99.5 83.8953 98.9384C86.8469 98.1812 89.5977 96.7887 91.9556 94.8581C94.3135 92.9274 96.2216 90.5052 97.5466 87.7605C98.9041 84.9603 99.5924 82.237 99.9039 78.2851C99.9715 77.4235 100 63.6862 100 49.9673C100 36.2461 99.9692 22.5342 99.9016 21.6726C99.5862 17.6569 98.8979 14.9566 97.4966 12.1026C96.3468 9.76621 95.0702 8.02145 93.2167 6.23745C89.9096 3.07718 85.8642 1.15394 81.0428 0.4585C78.7071 0.120779 78.2418 0.020771 66.2902 0H50.0163Z" fill="#E22626"/>
<path d="M49.9946 13.0781C39.9688 13.0781 38.7106 13.122 34.7729 13.3012C30.8428 13.4812 28.1603 14.1036 25.813 15.0168C23.385 15.9599 21.3254 17.2216 19.2735 19.2748C17.22 21.3273 15.9587 23.3875 15.0127 25.8154C14.0975 28.164 13.4746 30.8481 13.2977 34.7777C13.1223 38.7164 13.0762 39.9758 13.0762 50.0043C13.0762 60.0329 13.1208 61.2876 13.2992 65.2264C13.4799 69.1575 14.1021 71.8408 15.0143 74.1887C15.9579 76.6173 17.2192 78.6775 19.2719 80.73C21.3231 82.784 23.3827 84.0488 25.8092 84.9919C28.158 85.9051 30.8413 86.5274 34.7706 86.7074C38.7083 86.8867 39.9657 86.9305 49.9908 86.9305C60.0173 86.9305 61.2717 86.8867 65.2094 86.7074C69.1395 86.5274 71.8251 85.9051 74.1739 84.9919C76.6012 84.0488 78.6577 82.784 80.7088 80.73C82.7623 78.6775 84.0236 76.6173 84.9696 74.1894C85.8771 71.8408 86.5001 69.1567 86.6846 65.2272C86.8615 61.2884 86.9077 60.0329 86.9077 50.0043C86.9077 39.9758 86.8615 38.7172 86.6846 34.7784C86.5001 30.8473 85.8771 28.164 84.9696 25.8161C84.0236 23.3875 82.7623 21.3273 80.7088 19.2748C78.6554 17.2208 76.6019 15.9591 74.1716 15.0168C71.8182 14.1036 69.1341 13.4812 65.2041 13.3012C61.2663 13.122 60.0127 13.0781 49.9838 13.0781H49.9946ZM46.6829 19.7325C47.6658 19.731 48.7625 19.7325 49.9946 19.7325C59.8512 19.7325 61.0195 19.7679 64.9118 19.9449C68.5111 20.1095 70.4646 20.7111 71.7659 21.2165C73.4887 21.8858 74.7169 22.6859 76.0082 23.9783C77.3002 25.2707 78.1001 26.5016 78.7707 28.2248C79.276 29.5249 79.8782 31.4789 80.042 35.0792C80.2189 38.9719 80.2574 40.1412 80.2574 49.9959C80.2574 59.8505 80.2189 61.0199 80.042 64.9125C79.8775 68.5128 79.276 70.4668 78.7707 71.7669C78.1016 73.4902 77.3002 74.7172 76.0082 76.0088C74.7161 77.3012 73.4894 78.1013 71.7659 78.7706C70.4661 79.2783 68.5111 79.8784 64.9118 80.043C61.0202 80.22 59.8512 80.2584 49.9946 80.2584C40.1372 80.2584 38.969 80.22 35.0774 80.043C31.4781 79.8768 29.5246 79.2753 28.2226 78.7698C26.4998 78.1005 25.2693 77.3005 23.9772 76.0081C22.6851 74.7156 21.8853 73.4879 21.2146 71.7639C20.7094 70.4638 20.1072 68.5097 19.9433 64.9094C19.7665 61.0168 19.7311 59.8475 19.7311 49.9866C19.7311 40.1258 19.7665 38.9626 19.9433 35.07C20.1079 31.4697 20.7094 29.5157 21.2146 28.214C21.8837 26.4908 22.6851 25.2599 23.9772 23.9675C25.2693 22.6751 26.4998 21.875 28.2226 21.2042C29.5238 20.6965 31.4781 20.0964 35.0774 19.931C38.4829 19.7772 39.8027 19.731 46.6829 19.7233V19.7325ZM69.7001 25.8638C68.8239 25.8638 67.9674 26.1237 67.2388 26.6107C66.5103 27.0977 65.9425 27.7898 65.6073 28.5996C65.272 29.4094 65.1844 30.3004 65.3554 31.16C65.5265 32.0196 65.9486 32.8092 66.5682 33.4288C67.1879 34.0484 67.9774 34.4704 68.8368 34.6412C69.6963 34.812 70.587 34.724 71.3965 34.3884C72.2059 34.0527 72.8977 33.4846 73.3842 32.7557C73.8708 32.0268 74.1304 31.1699 74.1301 30.2934C74.1301 27.8471 72.1458 25.8623 69.7001 25.8623V25.8638ZM49.9946 31.0412C39.525 31.0412 31.0366 39.5319 31.0366 50.0043C31.0366 60.4767 39.525 68.9636 49.9946 68.9636C60.4642 68.9636 68.9503 60.4767 68.9503 50.0043C68.9503 39.5319 60.4642 31.0412 49.9946 31.0412ZM49.9946 37.6956C56.7903 37.6956 62.3 43.2061 62.3 50.0043C62.3 56.8018 56.7903 62.3131 49.9946 62.3131C43.1982 62.3131 37.6892 56.8018 37.6892 50.0043C37.6892 43.2061 43.1982 37.6956 49.9946 37.6956Z" fill="white"/>
<defs>
<radialGradient id="paint0_radial_3775_159" cx="0" cy="0" r="1" gradientUnits="userSpaceOnUse" gradientTransform="translate(26.5626 107.702) rotate(-90) scale(99.1074 92.1777)">
<stop stop-color="#FFDD55"/>
<stop offset="0.1" stop-color="#FFDD55"/>
<stop offset="0.5" stop-color="#FF543E"/>
<stop offset="1" stop-color="#C837AB"/>
</radialGradient>
</defs>
</svg>
