<svg width="310" height="271" viewBox="0 0 310 271" fill="none" xmlns="http://www.w3.org/2000/svg">
<g clip-path="url(#clip0_3657_15737)">
<rect width="310" height="271" rx="5" fill="#FF9D9D"/>
<rect x="-1" y="148" width="311" height="123" rx="5" fill="url(#paint0_linear_3657_15737)"/>
<path d="M102.289 98.6778C120.826 56.4801 201.119 78.6901 211.726 102.531C222.332 126.372 227.106 164.945 200.109 198.901C173.231 232.705 139.091 240.803 110.92 198.901C89.2251 166.631 87.5849 132.152 102.289 98.6778Z" fill="#A0A0A0"/>
<path d="M187.958 72.1975C187.66 73.5509 187.25 78.767 187.626 79.7207C187.852 80.2938 196.159 85.1535 197.837 86.5744C201.24 89.4642 204.186 93.0524 206.876 96.6069C207.628 96.6839 209.32 91.1788 209.05 90.2541C209.335 90.649 209.489 90.9139 209.72 91.2559L198.676 123.025C194.867 123.063 191.092 123.314 187.293 123.357L186.96 71.6918C180.327 67.8435 172.777 66.0277 165.203 65.1704C152.172 63.7014 137.849 65.0211 126.375 71.6918C126.158 74.1481 126.722 76.8405 126.708 79.215C126.63 93.9194 127.045 108.667 126.375 123.357C122.586 123.309 118.801 123.063 114.993 123.025C111.049 114.75 107.906 106.066 105.288 97.2764C108.595 93.9386 111.247 90.0133 114.829 86.9115C116.487 85.4762 125.054 80.2746 125.372 79.7207C126.269 78.1746 125.396 73.9218 125.705 72.0289C125.29 71.5569 125.088 72.1204 124.702 72.1975C141.127 61.5967 169.335 61.5389 186.459 70.5262C187.033 70.8248 187.867 72.1445 187.963 72.1975H187.958Z" fill="white"/>
<path d="M105.288 97.2767C104.709 95.3405 104.439 92.8938 103.278 91.2562C106.517 86.541 119.303 73.2767 124.697 72.1978C125.083 72.1208 125.285 71.5573 125.7 72.0293C125.392 73.9221 126.259 78.175 125.367 79.721C125.049 80.2749 116.482 85.4766 114.824 86.9119C111.242 90.0136 108.595 93.939 105.283 97.2767H105.288Z" fill="#D7D5D2"/>
<path d="M209.046 90.2539C209.311 91.1786 207.619 96.6837 206.871 96.6067C204.181 93.0522 201.236 89.4688 197.832 86.5741C196.159 85.1533 187.848 80.2888 187.621 79.7204C187.245 78.7668 187.66 73.5507 187.954 72.1973C196.4 77.0377 203.222 82.2539 209.041 90.2539H209.046Z" fill="#D7D5D2"/>
<path d="M187.293 123.357C166.973 123.607 146.696 123.612 126.375 123.357C127.045 108.667 126.631 93.9189 126.708 79.2145C144.531 70.0923 167.903 70.0056 185.784 78.8822V71.5276L165.199 65.1748C172.772 66.0273 180.322 67.8479 186.956 71.6962L187.288 123.361L187.293 123.357Z" fill="#D42422"/>
<path d="M165.198 65.1753L185.784 71.5281V78.8827C167.903 70.0061 144.531 70.0928 126.708 79.215C126.722 76.8406 126.158 74.1434 126.375 71.6919C137.849 65.026 152.167 63.7015 165.198 65.1753Z" fill="#D42422"/>
<path d="M196.666 206.622C198.459 208.491 202.19 213.89 204.196 214.983C205.377 215.629 209.918 216.703 211.726 217.324C199.206 237.081 179.44 249.43 158.17 258.119V234.711C161.573 234.634 167.055 233.859 170.386 233.04C181.918 230.198 187.761 220.623 193.146 210.971C185.65 218.543 173.134 229.813 162.354 231.706C146.455 234.49 128.227 221.726 119.009 209.637C146.112 233.339 171.061 230.873 196.661 206.627L196.666 206.622Z" fill="#2E2F31"/>
<path d="M265.803 237.722C269.25 241.599 271.598 248.843 273.165 253.775C272.36 255.499 268.03 261.293 267.809 262.637C267.486 264.621 268.734 269.433 268.141 271.831C264.13 271.894 260.1 271.812 256.094 271.831L257.434 244.243L239.022 234.379C240.435 233.585 247.382 229.043 248.226 229.028C248.872 229.019 259.136 233.117 260.273 233.71C261.985 234.601 264.53 236.296 265.798 237.722H265.803Z" fill="#2E2F31"/>
<path d="M274.505 257.781C275.72 262.362 276.458 267.043 277.518 271.657C277.277 271.994 272.09 271.802 271.159 271.826C271.029 266.557 270.542 261.846 274.505 257.781Z" fill="#2E2F31"/>
<path d="M274.505 257.782C270.543 261.847 271.03 266.557 271.16 271.826C270.162 271.85 269.149 271.812 268.147 271.826C268.74 269.428 267.486 264.616 267.814 262.632C268.036 261.288 272.365 255.494 273.17 253.77C273.594 255.108 274.144 256.399 274.51 257.782H274.505Z" fill="#6F7376"/>
<path d="M93.9725 224.953C101.532 231.624 110.745 242.673 117.403 250.533C121.226 255.046 125.232 259.655 128.279 264.746C110.991 254.887 94.228 244.089 76.9013 234.317L58.4899 244.18L59.8301 271.769C69.7518 271.822 79.6975 271.769 89.6191 271.769L93.4663 253.043L125.43 271.436C136.335 271.417 147.302 271.826 158.232 271.769V258.056C136.961 249.363 117.2 237.018 104.675 217.262C102.964 217.849 91.9188 220.725 91.4559 221.274L93.9677 224.953H93.9725Z" fill="#D42422"/>
<path d="M223.507 224.837C215.798 231.495 206.402 242.522 199.612 250.367C195.713 254.872 191.627 259.472 188.52 264.553C206.151 254.713 223.222 243.289 240.893 233.536L259.695 244.027L258.328 271.562C248.209 271.615 238.066 271.562 227.947 271.562L223.778 253.042L191.425 271.23C180.304 271.211 169.118 271.619 157.972 271.562V257.876C179.665 249.199 199.818 236.879 212.592 217.16C214.338 217.747 225.602 220.616 226.074 221.164L223.512 224.837H223.507Z" fill="#D42422"/>
<path d="M119.746 206.564C117.952 208.433 114.221 213.832 112.215 214.926C111.034 215.571 106.493 216.645 104.685 217.266C117.205 237.023 136.971 249.372 158.241 258.061V234.654C154.838 234.576 149.356 233.801 146.025 232.982C134.493 230.141 128.65 220.566 123.265 210.914C130.762 218.485 143.277 229.755 154.057 231.648C169.956 234.432 188.185 221.669 197.402 209.58C170.299 233.281 145.35 230.815 119.75 206.569L119.746 206.564Z" fill="#2E2F31"/>
<path d="M124.692 212.045C124.008 212.007 126.663 213.63 126.929 214.347C127.632 216.269 140.22 223.195 141.392 224.702C155.614 229.278 158.198 229.384 158.198 229.384C158.198 237.572 158.198 250.388 158.198 258.041C137.155 249.863 116.742 236.763 104.738 217.165C106.435 216.592 111.222 215.412 112.268 214.824C114.245 213.716 117.326 208.033 119.63 206.747C120.209 207.291 120.768 208.861 121.471 209.478L124.692 212.045Z" fill="#2E2F31"/>
<path d="M191.719 211.862C192.404 211.824 188.851 213.312 188.585 214.03C187.882 215.952 176.432 223.195 175.261 224.703C161.039 229.278 157.972 229.442 157.972 229.442C157.972 237.63 158.454 250.389 158.454 258.042C179.498 249.864 200.686 236.758 212.69 217.16C210.993 216.587 205.43 215.412 204.384 214.824C202.408 213.717 198.845 207.85 196.54 206.564C195.962 207.109 195.885 208.862 195.181 209.478L191.719 211.862Z" fill="#2E2F31"/>
<path d="M125.189 212.045C124.504 212.007 127.16 213.63 127.425 214.347C128.129 216.269 140.717 223.195 141.888 224.702C156.11 229.278 159.177 229.442 159.177 229.442C159.177 237.63 158.695 250.388 158.695 258.041C137.651 249.863 116.463 236.758 104.459 217.16C106.156 216.587 111.719 215.412 112.765 214.824C114.742 213.716 117.823 208.033 120.127 206.747C120.706 207.291 121.264 208.861 121.968 209.478L125.189 212.045Z" fill="#2E2F31"/>
<path d="M50.1256 237.664C46.6785 241.541 44.3307 248.785 42.7639 253.717C43.569 255.442 47.8983 261.236 48.12 262.579C48.443 264.564 47.1944 269.375 47.7874 271.774C51.7985 271.836 55.8288 271.755 59.8351 271.774L58.4948 244.186L76.9062 234.322C75.4937 233.527 68.5466 228.985 67.703 228.971C67.0569 228.961 56.793 233.06 55.6553 233.652C53.9438 234.543 51.3983 236.239 50.1304 237.664H50.1256Z" fill="#2E2F31"/>
<path d="M89.624 271.768C101.527 271.768 113.546 271.455 125.439 271.436L93.4759 253.042L89.6288 271.768H89.624Z" fill="white"/>
<path d="M227.876 271.586C215.699 271.586 203.404 271.272 191.237 271.252L223.936 252.802L227.871 271.586H227.876Z" fill="white"/>
<path d="M41.4236 257.724C40.2087 262.304 39.4711 266.986 38.4105 271.6C38.6516 271.937 43.839 271.744 44.7694 271.768C44.8996 266.499 45.3865 261.789 41.4236 257.724Z" fill="#2E2F31"/>
<path d="M41.4237 257.724C45.3866 261.789 44.8997 266.499 44.7695 271.769C45.7674 271.793 46.7798 271.754 47.7826 271.769C47.1896 269.37 48.4431 264.558 48.1153 262.574C47.8935 261.23 43.5642 255.436 42.7591 253.712C42.3349 255.051 41.7853 256.342 41.4189 257.724H41.4237Z" fill="#6F7376"/>
<path d="M266.445 238.593C265.177 237.168 262.371 235.15 260.659 234.259C259.522 233.666 249.253 229.192 248.607 229.201C247.763 229.211 241.129 233.527 239.722 234.321C222.39 244.094 205.632 254.892 188.344 264.751C191.391 259.66 195.402 255.051 199.22 250.538C205.878 242.678 215.091 231.629 222.651 224.958C223.407 224.294 223.734 220.773 226.386 221.736C230.199 222.839 234.096 224.52 237.88 225.628C240.536 226.408 243.318 227.434 245.912 228.301C247.233 228.744 248.78 228.253 248.925 228.301C254.522 230.237 262.949 233.946 266.445 238.593Z" fill="white"/>
<path d="M49.7404 238.112C51.0083 236.686 54.2962 235.212 56.0077 234.321C57.1454 233.729 67.6552 229.192 68.3012 229.201C69.1449 229.211 75.7786 233.527 77.1863 234.321C94.5179 244.094 111.035 254.984 128.323 264.843C125.276 259.752 121.506 255.051 117.688 250.538C111.03 242.678 101.817 231.629 94.2575 224.958C93.5006 224.294 93.1737 220.773 90.5221 221.736C86.7087 222.839 82.8125 224.52 79.028 225.628C76.3716 226.408 73.5899 227.434 70.9962 228.301C69.6752 228.744 68.1277 228.253 67.9831 228.301C62.3859 230.237 53.2356 233.464 49.7404 238.112Z" fill="white"/>
<path d="M105.288 97.2763C107.911 106.066 111.054 114.75 114.993 123.025C111.054 122.986 100.404 121.946 97.4202 122.692C96.5042 122.919 94.7831 124.913 94.5758 125.871C93.7852 129.474 96.2439 148.161 96.9189 152.958C97.6468 158.146 98.6351 165.389 99.932 170.346C110.615 211.217 183.147 214.001 207.04 183.721C214.243 174.589 217.295 147.55 218.085 135.566C218.297 132.344 219.729 123.723 215.573 122.692C212.744 121.989 202.441 122.986 198.671 123.025L209.716 91.2558C225.529 114.678 222.222 143.788 216.412 170.004C212.912 185.787 208.549 195.367 196.665 206.618C171.066 230.863 146.117 233.329 119.014 209.628C118.31 209.011 117.249 208.164 116.671 207.619C90.748 183.239 83.0199 120.766 103.283 91.251C104.44 92.8885 104.714 95.3353 105.293 97.2714L105.288 97.2763Z" fill="#D42422"/>
<path d="M96.9857 227.516C96.9857 227.516 94.1812 220.876 92.1647 221.014C91.7775 221.04 91.5709 221.139 91.2005 221.255C90.7168 221.406 90.2363 221.736 90.2363 221.736L96.9857 227.516Z" fill="#D42422"/>
<path d="M218.716 228.721C218.716 228.721 223.449 220.875 225.465 221.014C225.853 221.04 226.059 221.138 226.43 221.254C226.913 221.406 227.394 221.978 227.394 221.978L218.716 228.721Z" fill="#D42422"/>
<path d="M206.238 127.095H106.308C101.938 127.095 98.3989 130.596 98.5626 134.963C99.0121 146.949 100.893 169.547 108.556 180.556C120.142 197.2 135.51 199.822 155.802 199.822C177.015 199.822 193.507 199.094 205.459 180.556C212.71 169.31 213.897 146.631 213.99 134.75C214.024 130.468 210.52 127.095 206.238 127.095Z" fill="white"/>
<path d="M143.99 127.095L138.442 198.745C130.189 197.467 122.969 194.805 116.658 189.537L120.214 127.095H143.99Z" fill="#D5D5D5"/>
</g>
<defs>
<linearGradient id="paint0_linear_3657_15737" x1="158.513" y1="152.438" x2="159.314" y2="270.998" gradientUnits="userSpaceOnUse">
<stop stop-color="#FF9D9D" stop-opacity="0"/>
<stop offset="1"/>
</linearGradient>
<clipPath id="clip0_3657_15737">
<rect width="310" height="271" rx="5" fill="white"/>
</clipPath>
</defs>
</svg>
