<svg width="1728" height="1117" viewBox="0 0 1728 1117" fill="none" xmlns="http://www.w3.org/2000/svg">
<g clip-path="url(#clip0_2760_13885)">
<rect width="1728" height="1117" fill="#0F0E0E"/>
<g opacity="0.4">
<rect x="1257.43" y="-403" width="10.4956" height="1000" transform="rotate(44.5414 1257.43 -403)" fill="url(#paint0_linear_2760_13885)"/>
<rect x="1286.29" y="-374.596" width="10.4956" height="1000" transform="rotate(44.5414 1286.29 -374.596)" fill="url(#paint1_linear_2760_13885)"/>
<rect x="1315.15" y="-346.191" width="10.4956" height="1000" transform="rotate(44.5414 1315.15 -346.191)" fill="url(#paint2_linear_2760_13885)"/>
<rect x="1344.01" y="-317.787" width="10.4956" height="1000" transform="rotate(44.5414 1344.01 -317.787)" fill="url(#paint3_linear_2760_13885)"/>
<rect x="1372.88" y="-289.381" width="10.4956" height="1000" transform="rotate(44.5414 1372.88 -289.381)" fill="url(#paint4_linear_2760_13885)"/>
<rect x="1401.74" y="-260.977" width="10.4956" height="1000" transform="rotate(44.5414 1401.74 -260.977)" fill="url(#paint5_linear_2760_13885)"/>
<rect x="1430.6" y="-232.572" width="10.4956" height="1000" transform="rotate(44.5414 1430.6 -232.572)" fill="url(#paint6_linear_2760_13885)"/>
<rect x="1459.47" y="-204.168" width="10.4956" height="1000" transform="rotate(44.5414 1459.47 -204.168)" fill="url(#paint7_linear_2760_13885)"/>
<rect x="1488.33" y="-175.764" width="10.4956" height="1000" transform="rotate(44.5414 1488.33 -175.764)" fill="url(#paint8_linear_2760_13885)"/>
</g>
<g opacity="0.4">
<rect x="647.426" y="-403" width="10.4956" height="1000" transform="rotate(44.5414 647.426 -403)" fill="url(#paint9_linear_2760_13885)"/>
<rect x="676.289" y="-374.596" width="10.4956" height="1000" transform="rotate(44.5414 676.289 -374.596)" fill="url(#paint10_linear_2760_13885)"/>
<rect x="705.152" y="-346.191" width="10.4956" height="1000" transform="rotate(44.5414 705.152 -346.191)" fill="url(#paint11_linear_2760_13885)"/>
<rect x="734.014" y="-317.787" width="10.4956" height="1000" transform="rotate(44.5414 734.014 -317.787)" fill="url(#paint12_linear_2760_13885)"/>
<rect x="762.877" y="-289.381" width="10.4956" height="1000" transform="rotate(44.5414 762.877 -289.381)" fill="url(#paint13_linear_2760_13885)"/>
<rect x="791.74" y="-260.977" width="10.4956" height="1000" transform="rotate(44.5414 791.74 -260.977)" fill="url(#paint14_linear_2760_13885)"/>
<rect x="820.604" y="-232.572" width="10.4956" height="1000" transform="rotate(44.5414 820.604 -232.572)" fill="url(#paint15_linear_2760_13885)"/>
<rect x="849.467" y="-204.168" width="10.4956" height="1000" transform="rotate(44.5414 849.467 -204.168)" fill="url(#paint16_linear_2760_13885)"/>
<rect x="878.33" y="-175.764" width="10.4956" height="1000" transform="rotate(44.5414 878.33 -175.764)" fill="url(#paint17_linear_2760_13885)"/>
</g>
</g>
<defs>
<linearGradient id="paint0_linear_2760_13885" x1="1262.67" y1="-403" x2="1262.67" y2="597" gradientUnits="userSpaceOnUse">
<stop offset="0.5625" stop-color="#E10600"/>
<stop offset="1" stop-color="#3C3C3C"/>
</linearGradient>
<linearGradient id="paint1_linear_2760_13885" x1="1291.54" y1="-374.596" x2="1291.54" y2="625.404" gradientUnits="userSpaceOnUse">
<stop offset="0.5625" stop-color="#E10600"/>
<stop offset="1" stop-color="#3C3C3C"/>
</linearGradient>
<linearGradient id="paint2_linear_2760_13885" x1="1320.4" y1="-346.191" x2="1320.4" y2="653.809" gradientUnits="userSpaceOnUse">
<stop offset="0.5625" stop-color="#E10600"/>
<stop offset="1" stop-color="#3C3C3C"/>
</linearGradient>
<linearGradient id="paint3_linear_2760_13885" x1="1349.26" y1="-317.787" x2="1349.26" y2="682.213" gradientUnits="userSpaceOnUse">
<stop offset="0.5625" stop-color="#E10600"/>
<stop offset="1" stop-color="#3C3C3C"/>
</linearGradient>
<linearGradient id="paint4_linear_2760_13885" x1="1378.12" y1="-289.381" x2="1378.12" y2="710.619" gradientUnits="userSpaceOnUse">
<stop offset="0.5625" stop-color="#E10600"/>
<stop offset="1" stop-color="#3C3C3C"/>
</linearGradient>
<linearGradient id="paint5_linear_2760_13885" x1="1406.99" y1="-260.977" x2="1406.99" y2="739.023" gradientUnits="userSpaceOnUse">
<stop offset="0.5625" stop-color="#E10600"/>
<stop offset="1" stop-color="#3C3C3C"/>
</linearGradient>
<linearGradient id="paint6_linear_2760_13885" x1="1435.85" y1="-232.572" x2="1435.85" y2="767.428" gradientUnits="userSpaceOnUse">
<stop offset="0.5625" stop-color="#E10600"/>
<stop offset="1" stop-color="#3C3C3C"/>
</linearGradient>
<linearGradient id="paint7_linear_2760_13885" x1="1464.71" y1="-204.168" x2="1464.71" y2="795.832" gradientUnits="userSpaceOnUse">
<stop offset="0.5625" stop-color="#E10600"/>
<stop offset="1" stop-color="#3C3C3C"/>
</linearGradient>
<linearGradient id="paint8_linear_2760_13885" x1="1493.58" y1="-175.764" x2="1493.58" y2="824.236" gradientUnits="userSpaceOnUse">
<stop offset="0.5625" stop-color="#E10600"/>
<stop offset="1" stop-color="#3C3C3C"/>
</linearGradient>
<linearGradient id="paint9_linear_2760_13885" x1="652.674" y1="-403" x2="652.674" y2="597" gradientUnits="userSpaceOnUse">
<stop stop-color="#E10600"/>
<stop offset="0.788462" stop-color="#8E0C0D"/>
<stop offset="1" stop-color="#3C3C3C"/>
</linearGradient>
<linearGradient id="paint10_linear_2760_13885" x1="681.537" y1="-374.596" x2="681.537" y2="625.404" gradientUnits="userSpaceOnUse">
<stop stop-color="#E10600"/>
<stop offset="0.788462" stop-color="#8E0C0D"/>
<stop offset="1" stop-color="#3C3C3C"/>
</linearGradient>
<linearGradient id="paint11_linear_2760_13885" x1="710.4" y1="-346.191" x2="710.4" y2="653.809" gradientUnits="userSpaceOnUse">
<stop stop-color="#E10600"/>
<stop offset="0.788462" stop-color="#8E0C0D"/>
<stop offset="1" stop-color="#3C3C3C"/>
</linearGradient>
<linearGradient id="paint12_linear_2760_13885" x1="739.261" y1="-317.787" x2="739.261" y2="682.213" gradientUnits="userSpaceOnUse">
<stop stop-color="#E10600"/>
<stop offset="0.788462" stop-color="#8E0C0D"/>
<stop offset="1" stop-color="#3C3C3C"/>
</linearGradient>
<linearGradient id="paint13_linear_2760_13885" x1="768.125" y1="-289.381" x2="768.125" y2="710.619" gradientUnits="userSpaceOnUse">
<stop stop-color="#E10600"/>
<stop offset="0.788462" stop-color="#8E0C0D"/>
<stop offset="1" stop-color="#3C3C3C"/>
</linearGradient>
<linearGradient id="paint14_linear_2760_13885" x1="796.988" y1="-260.977" x2="796.988" y2="739.023" gradientUnits="userSpaceOnUse">
<stop stop-color="#E10600"/>
<stop offset="0.788462" stop-color="#8E0C0D"/>
<stop offset="1" stop-color="#3C3C3C"/>
</linearGradient>
<linearGradient id="paint15_linear_2760_13885" x1="825.851" y1="-232.572" x2="825.851" y2="767.428" gradientUnits="userSpaceOnUse">
<stop stop-color="#E10600"/>
<stop offset="0.788462" stop-color="#8E0C0D"/>
<stop offset="1" stop-color="#3C3C3C"/>
</linearGradient>
<linearGradient id="paint16_linear_2760_13885" x1="854.715" y1="-204.168" x2="854.715" y2="795.832" gradientUnits="userSpaceOnUse">
<stop stop-color="#E10600"/>
<stop offset="0.788462" stop-color="#8E0C0D"/>
<stop offset="1" stop-color="#3C3C3C"/>
</linearGradient>
<linearGradient id="paint17_linear_2760_13885" x1="883.578" y1="-175.764" x2="883.578" y2="824.236" gradientUnits="userSpaceOnUse">
<stop stop-color="#E10600"/>
<stop offset="0.788462" stop-color="#8E0C0D"/>
<stop offset="1" stop-color="#3C3C3C"/>
</linearGradient>
<clipPath id="clip0_2760_13885">
<rect width="1728" height="1117" fill="white"/>
</clipPath>
</defs>
</svg>
