<svg width="1320" height="274" viewBox="0 0 1320 274" fill="none" xmlns="http://www.w3.org/2000/svg">
<path d="M368.5 65.5L516.5 42.5L524.5 81.5L516.5 129L419 133.5L368.5 65.5Z" fill="#F04F4F"/>
<path d="M589.5 123.5L704.5 146L725.5 168L732.5 244L711 250.5L654 260.5H582.5L557.5 255.5L530 244V173.5L589.5 123.5Z" fill="#F04F4F"/>
<path d="M268 226.5H277.5H338.5L368.5 187.5H403V261.5L281 247.5L268 226.5Z" fill="#F04F4F"/>
<path d="M834.5 221.5L890.5 183L907.5 202.5L949 247L945.5 253.5L933 257L875.5 244L834.5 221.5Z" fill="#F04F4F"/>
<path d="M921 208.5L1002 217L1000 228L935.5 223L921 208.5Z" fill="#F04F4F"/>
<path d="M890.5 121.5L987.5 138.5L1005.5 169L896.5 186.5L890.5 121.5Z" fill="#F04F4F"/>
<path d="M1154.5 199.5H1201.5L1196 210.5L1154.5 216.5V199.5Z" fill="#F04F4F"/>
<path d="M1257 233L1282.5 229.5H1314.5V251.5H1304H1257V233Z" fill="#F04F4F"/>
<path d="M368.5 65.5L516.5 42.5L524.5 81.5L516.5 129L419 133.5L368.5 65.5Z" stroke="#EE1C00"/>
<path d="M589.5 123.5L704.5 146L725.5 168L732.5 244L711 250.5L654 260.5H582.5L557.5 255.5L530 244V173.5L589.5 123.5Z" stroke="#EE1C00"/>
<path d="M268 226.5H277.5H338.5L368.5 187.5H403V261.5L281 247.5L268 226.5Z" stroke="#EE1C00"/>
<path d="M834.5 221.5L890.5 183L907.5 202.5L949 247L945.5 253.5L933 257L875.5 244L834.5 221.5Z" stroke="#EE1C00"/>
<path d="M921 208.5L1002 217L1000 228L935.5 223L921 208.5Z" stroke="#EE1C00"/>
<path d="M890.5 121.5L987.5 138.5L1005.5 169L896.5 186.5L890.5 121.5Z" stroke="#EE1C00"/>
<path d="M1154.5 199.5H1201.5L1196 210.5L1154.5 216.5V199.5Z" stroke="#EE1C00"/>
<path d="M1257 233L1282.5 229.5H1314.5V251.5H1304H1257V233Z" stroke="#EE1C00"/>
<path d="M87.5 159L116.5 131.5L183.5 97.5L185.5 72V34.5L169 20L122.5 22L107.5 25.5L81.5 39.5L41.5 53L19 54.5H10L7 60.5L3.5 97.5V134L10 154L41.5 163L87.5 159Z" fill="#831C1C" stroke="white"/>
<path d="M164 122.5L170.5 104H210.5L238.5 117.5L244 139.5L238.5 150.5L164 122.5Z" fill="white"/>
<path d="M120 245L112.5 197L122 212.5L124 191L142.5 220L156.5 229L168 232.5L195 230L210 222L221.5 205.5L223.5 197V183.5V177.5L227 170.5L238.5 181L234 217L238.5 242L210.5 260.5L159 266L120 245Z" fill="white"/>
<path d="M1054.5 123L1139 154.5L1142.5 144.5L1125 120L1096 109H1066L1054.5 123Z" fill="white"/>
<path d="M1060.5 267L1109 253.5L1131.5 224V175.5L1121 169.5V175.5V187.5L1120 202L1113.5 213.5L1101 225.5L1083 232H1060.5L1046.5 225.5L1036.5 217L1029 204L1024.5 195L1019 196.5L1022.5 215.5L1019 245L1060.5 267Z" fill="white"/>
<path d="M703.5 87L706.5 82L722 83.5L733.5 89.5L749 98.5L760 102.5L754 121L746 127.5L741 121V102.5L725 93H710L703.5 87Z" fill="white"/>
<path d="M570.5 71L574.5 60L601 41L609.5 39.5L620 41L630 44L640 50.5L646 58L653 67L654.5 77.5L662.5 98.5L658 113L646 110L626.5 102.5L613.5 93L591 98.5L573 96L570.5 87V71Z" fill="white"/>
<path d="M254.5 196.5L273.5 181L353 191L340.5 225.5H273.5L254.5 196.5Z" fill="white"/>
<path d="M164 122.5L170.5 104H210.5L238.5 117.5L244 139.5L238.5 150.5L164 122.5Z" stroke="white"/>
<path d="M120 245L112.5 197L122 212.5L124 191L142.5 220L156.5 229L168 232.5L195 230L210 222L221.5 205.5L223.5 197V183.5V177.5L227 170.5L238.5 181L234 217L238.5 242L210.5 260.5L159 266L120 245Z" stroke="white"/>
<path d="M1054.5 123L1139 154.5L1142.5 144.5L1125 120L1096 109H1066L1054.5 123Z" stroke="white"/>
<path d="M1060.5 267L1109 253.5L1131.5 224V175.5L1121 169.5V175.5V187.5L1120 202L1113.5 213.5L1101 225.5L1083 232H1060.5L1046.5 225.5L1036.5 217L1029 204L1024.5 195L1019 196.5L1022.5 215.5L1019 245L1060.5 267Z" stroke="white"/>
<path d="M703.5 87L706.5 82L722 83.5L733.5 89.5L749 98.5L760 102.5L754 121L746 127.5L741 121V102.5L725 93H710L703.5 87Z" stroke="white"/>
<path d="M570.5 71L574.5 60L601 41L609.5 39.5L620 41L630 44L640 50.5L646 58L653 67L654.5 77.5L662.5 98.5L658 113L646 110L626.5 102.5L613.5 93L591 98.5L573 96L570.5 87V71Z" stroke="white"/>
<path d="M254.5 196.5L273.5 181L353 191L340.5 225.5H273.5L254.5 196.5Z" stroke="white"/>
<path d="M126.5 184.5L144 170L211.5 164.5L225.5 173.5V184.5L221.5 207.5L211.5 222L199 228.5L185 233H169L144 222L135 210L126.5 184.5Z" fill="#8F8F8F" stroke="black"/>
<path d="M1020 137.5H1105L1107 155.5L1117.5 164.5L1121 183.5L1119.5 202.5L1112 215.5L1094 229.5L1077 233.5L1059.5 231.5L1046 224.5L1032 211.5L1023.5 193.5L1005 179.5L1020 137.5Z" fill="#8F8F8F"/>
<path d="M212.5 140L231.5 161.5L196 165L158 169.5L111 167.5L130 127.5H183L212.5 140Z" fill="#8F8F8F"/>
<path d="M1020 137.5H1105L1107 155.5L1117.5 164.5L1121 183.5L1119.5 202.5L1112 215.5L1094 229.5L1077 233.5L1059.5 231.5L1046 224.5L1032 211.5L1023.5 193.5L1005 179.5L1020 137.5Z" stroke="white"/>
<path d="M212.5 140L231.5 161.5L196 165L158 169.5L111 167.5L130 127.5H183L212.5 140Z" stroke="white"/>
<path d="M189.5 99.5L123 129.5L185.5 90L189.5 49.5L178.5 24.5L143.5 19.5H114L120.5 11.5H158.5L181.5 15L189.5 19.5L199.5 28.5V42.5V77L189.5 99.5Z" fill="#EE1C00" stroke="white"/>
<path d="M537 26L543.5 57.5L512 61L488.5 69.5L466 78L440.5 93.5L423.5 113.5L388.5 124L282 117L237.5 99.5L230.5 76L291.5 50L330.5 37L372 26L416 19L464.5 16.5H492.5L531.5 19L537 26Z" fill="#8D0000"/>
<path d="M376.5 232.5L396 195.5L417 191L462.5 184.5L496 174L520 166L549.5 133L564 124L581.5 127L609 149.5L684.5 253H675.5L653.5 244.5L635 239L624.5 235.5L603.5 239H581.5L564 244.5L555.5 258H406L373.5 244.5L376.5 232.5Z" fill="#8D0000"/>
<path d="M880 196.5L958.5 192.5L952 182.5L919.5 169.5L910 157.5V140.5L925 132.5L975.5 124.5L916.5 110.5L833 104H761.5L754 116L751.5 124.5H740.5L736.5 116L721 119L684.5 132.5L659 140.5L707 219L730.5 244.5L842.5 225.5L880 196.5Z" fill="#8D0000"/>
<path d="M1187.5 192.5L1303.5 211.5L1315.5 202L1303.5 192.5L1281.5 182L1262 173.5L1229 159.5L1194.5 148.5L1163.5 139.5L1148.5 135.5H1145V154.5L1187.5 192.5Z" fill="#8D0000"/>
<path d="M537 26L543.5 57.5L512 61L488.5 69.5L466 78L440.5 93.5L423.5 113.5L388.5 124L282 117L237.5 99.5L230.5 76L291.5 50L330.5 37L372 26L416 19L464.5 16.5H492.5L531.5 19L537 26Z" stroke="white"/>
<path d="M376.5 232.5L396 195.5L417 191L462.5 184.5L496 174L520 166L549.5 133L564 124L581.5 127L609 149.5L684.5 253H675.5L653.5 244.5L635 239L624.5 235.5L603.5 239H581.5L564 244.5L555.5 258H406L373.5 244.5L376.5 232.5Z" stroke="white"/>
<path d="M880 196.5L958.5 192.5L952 182.5L919.5 169.5L910 157.5V140.5L925 132.5L975.5 124.5L916.5 110.5L833 104H761.5L754 116L751.5 124.5H740.5L736.5 116L721 119L684.5 132.5L659 140.5L707 219L730.5 244.5L842.5 225.5L880 196.5Z" stroke="white"/>
<path d="M1187.5 192.5L1303.5 211.5L1315.5 202L1303.5 192.5L1281.5 182L1262 173.5L1229 159.5L1194.5 148.5L1163.5 139.5L1148.5 135.5H1145V154.5L1187.5 192.5Z" stroke="white"/>
<path d="M544.5 54.5L558.5 31L564.5 21.5L557.5 13.5L535.5 7L499.5 3.5L477 2H445.5L401 6L361.5 13L331.5 20L312 27L295 33L277 40L252.5 47.5L232 58L224.5 64V71.5L229.5 76L243 71.5L252.5 64L383.5 25.5L435 17L509 16L529.5 19.5L535.5 25.5L544.5 54.5Z" fill="#EE1C00"/>
<path d="M252.5 134.5L236.5 109.5L246.921 113.734L250 109.5L267.5 112L310.5 121.5H408.5L452 116.5L535.5 99L548.5 100.5L597 94L622 104L631.5 127L644 152.5L659.5 180L667.5 190L706 247L710.5 251.5L707 255.5L679.5 253.5L676.5 239L661.5 219L647.5 202L637 185.5L622.5 171L582.5 127H555.5L532 133.5L381.5 149.5L303.538 136.734L316.5 142L372 154.5L408.5 161L514 148L537 152.5L521 165.5L479 180L449 187L406.5 190L392.5 195.5H355L252.5 134.5Z" fill="#EE1C00"/>
<path d="M1036 113L1024.5 128L1019.5 121.5L941.5 112.5L774 99.5L750 98L748.5 91.5L780 93.5L829.5 95L871 97L935.5 100.5L968 104L1017 109.5L1030 113H1036Z" fill="#EE1C00"/>
<path d="M544.5 54.5L558.5 31L564.5 21.5L557.5 13.5L535.5 7L499.5 3.5L477 2H445.5L401 6L361.5 13L331.5 20L312 27L295 33L277 40L252.5 47.5L232 58L224.5 64V71.5L229.5 76L243 71.5L252.5 64L383.5 25.5L435 17L509 16L529.5 19.5L535.5 25.5L544.5 54.5Z" stroke="#EE1C00"/>
<path d="M252.5 134.5L236.5 109.5L246.921 113.734L250 109.5L267.5 112L310.5 121.5H408.5L452 116.5L535.5 99L548.5 100.5L597 94L622 104L631.5 127L644 152.5L659.5 180L667.5 190L706 247L710.5 251.5L707 255.5L679.5 253.5L676.5 239L661.5 219L647.5 202L637 185.5L622.5 171L582.5 127H555.5L532 133.5L381.5 149.5L303.538 136.734L316.5 142L372 154.5L408.5 161L514 148L537 152.5L521 165.5L479 180L449 187L406.5 190L392.5 195.5H355L252.5 134.5Z" stroke="#EE1C00"/>
<path d="M1036 113L1024.5 128L1019.5 121.5L941.5 112.5L774 99.5L750 98L748.5 91.5L780 93.5L829.5 95L871 97L935.5 100.5L968 104L1017 109.5L1030 113H1036Z" stroke="#EE1C00"/>
<mask id="path-9-inside-1_4002_2" fill="white">
<path fill-rule="evenodd" clip-rule="evenodd" d="M410.748 3.1277C379.481 7.11769 358.149 11.4351 329.3 19.6115C298.129 28.4467 240.356 49.6816 230.577 55.8978C224.164 59.9738 223.364 61.5145 223.473 69.5968C223.541 74.6037 224.38 80.3145 225.341 82.2829C226.89 85.4626 225.715 85.8637 214.868 85.8637H202.65L202.642 57.7291C202.635 33.4352 202.053 28.7004 198.379 23.0449C190.611 11.079 183.847 9.24773 144.514 8.46405L109.255 7.76223L106.03 13.5631C96.4049 30.8735 65.0442 44.6665 27.7086 48.014C20.2585 48.6811 10.978 49.6857 7.08187 50.2464L0 51.2654V96.1456C0 146.366 1.5798 153.88 13.8674 162.109C20.0776 166.269 23.6861 166.75 53.4583 167.374L86.2157 168.059L86.2898 186.812C86.3399 199.576 87.6169 208.829 90.2905 215.794C109.351 265.448 168.725 287.984 218.625 264.503C228.89 259.674 248.761 242.895 255.069 233.733C258.146 229.266 258.329 229.247 263.367 232.894L268.516 236.624L263.025 244.794C260.003 249.287 254.392 255.446 250.552 258.479L243.573 263.993L461.171 263.379L678.77 262.765L748.372 248.999C786.654 241.428 819.503 235.241 821.37 235.251C827.391 235.286 806.938 245.428 786.355 252.612C775.353 256.455 765.325 260.56 764.07 261.738C762.484 263.228 788.275 263.878 848.935 263.878H936.079L945.203 255.148L954.326 246.419L943.346 237.536C937.308 232.652 932.776 228.273 933.275 227.805C933.774 227.336 947.783 227.922 964.404 229.106C989.093 230.866 995.011 231.901 996.713 234.758C1001.45 242.713 1018.24 257.411 1028.67 262.743C1056.88 277.16 1086.08 277.733 1115 264.439C1128.79 258.096 1146.6 242.382 1152.68 231.187C1156.89 223.453 1157.3 223.26 1181.33 217.865C1214.68 210.378 1228.93 208.424 1236.44 210.31C1244.91 212.442 1247.34 216.612 1245.5 225.851L1243.97 233.505L1234.84 232.126C1229.82 231.367 1218.58 228.533 1209.86 225.828C1185.77 218.348 1183.24 218.814 1172.83 232.675C1163.81 244.671 1153.7 254.45 1144.05 260.5C1139 263.67 1143.95 263.878 1223.98 263.878C1298.63 263.878 1309.72 263.477 1312.71 260.664C1315.22 258.309 1316.14 253.318 1316.14 242.026C1316.14 226.72 1316.1 226.614 1310.85 227.85C1305.62 229.082 1305.65 228.953 1313.03 217.451C1321.76 203.824 1321.93 202.525 1315.53 198.234C1286.12 178.54 1226.75 154.661 1168.6 139.133C1148.37 133.729 1142.61 131.266 1135.03 124.761C1110.81 103.966 1074.43 97.0622 1042.98 107.289C1033.18 110.475 1030.58 110.493 1008.11 107.53C943.634 99.0286 903.816 96.0535 826.944 93.9991C790.99 93.0375 758.387 91.6297 754.491 90.8726C750.595 90.1135 747.409 90.2874 747.409 91.2594C747.409 93.5797 749.329 93.7025 819.318 95.8898C897.194 98.3247 974.112 104.494 1019.54 111.952L1029.1 113.519L1023.32 116.425C1018.23 118.985 1014.11 118.805 988.703 114.919C932.638 106.346 875.258 101.439 794.721 98.3288L749.423 96.5793L736.166 88.896C728.164 84.2595 719.125 80.8117 713.368 80.202L703.829 79.1932L703.861 91.2246C703.881 97.8418 704.615 102.221 705.496 100.956C707.167 98.5559 721.261 94.926 721.261 96.8965C721.261 97.5165 718.075 98.9631 714.179 100.111C707.415 102.104 707.389 102.147 713.634 101.069C717.23 100.447 722.645 99.4603 725.669 98.8751C729.435 98.1467 732.402 99.0961 735.096 101.891C738.935 105.877 738.811 106.088 729.57 111.174C716.593 118.316 696.592 122.349 666.033 123.99C638.564 125.465 634.108 124.188 638.686 116.155C640.332 113.27 639.981 112.464 637.083 112.464C635.041 112.464 633.921 111.948 634.592 111.32C635.261 110.69 641.251 111.508 647.899 113.139L659.989 116.104L662.298 109.885C665.216 102.026 665.258 94.6682 662.392 93.0047C661.174 92.2967 660.629 91.0322 661.181 90.1933C662.832 87.6847 655.611 66.9614 650.405 59.2637C644.11 49.9579 639.026 45.8103 629.188 41.9492C609.248 34.1268 581.487 41.7569 572.991 57.3936C569.138 64.4855 568.432 68.7395 569.086 80.8977L569.883 95.7425L558.956 97.8316C546.367 100.24 544.084 98.7073 540.229 85.2641C536.989 73.9612 540.033 67.4647 551.935 60.2868C564.142 52.9248 568.728 44.8507 568.728 30.722C568.728 17.5346 563.242 12.0878 545.293 7.46349C514.695 -0.41827 453.898 -2.37848 410.748 3.1277ZM407.48 7.13201C363.478 12.853 328.263 22.1507 271.009 43.1647C237.48 55.4722 226.62 61.889 226.62 69.3963C226.62 71.7023 227.127 73.5868 227.749 73.5868C228.37 73.5868 238.676 68.9686 250.655 63.3254C299.428 40.343 348.755 25.5862 405.301 17.062C430.122 13.3216 509.038 12.4602 531.685 15.6849L543.669 17.3893L543.332 31.6776L542.994 45.9638L545.243 31.9825C547.611 17.2604 547.263 17.5326 558.923 21.3486C562.71 22.5886 562.603 22.2142 558.119 18.4984C552.031 13.4526 536.52 8.9715 515.342 6.13963C494.238 3.31595 432.449 3.88478 407.48 7.13201ZM148.174 16.3213C189.504 18.4718 192.18 20.61 193.538 52.6138C194.061 64.9275 195.344 73.5868 196.647 73.5868C198.081 73.5868 198.469 66.0017 197.745 52.1104C195.956 17.8149 190.931 14.0459 147.699 14.5779L120.937 14.9053L148.174 16.3213ZM433.419 20.4565C371.395 27.2641 263.199 59.5154 244.976 76.6253C238.557 82.6533 239.371 84.9327 252.47 97.6086C265.834 110.538 284.321 115.977 320.628 117.655C353.501 119.177 379.017 116.797 396.789 110.552C403.3 108.265 425.16 97.1338 445.369 85.8186C493.053 59.1164 492.837 59.1962 524.692 56.4401C528.639 56.1004 532.689 54.9832 533.694 53.9622C535.969 51.65 532.883 26.8323 529.983 24.1089C528.815 23.0122 524.063 21.2873 519.421 20.2765C509.415 18.0973 453.861 18.2119 433.419 20.4565ZM135.36 24.7534C115.572 26.0834 112.024 26.9019 107.032 31.2991C92.5567 44.0466 60.9128 55.3515 35.9541 56.6876C25.1679 57.2667 15.1182 58.656 13.619 59.7753C10.3177 62.2429 9.69889 139.937 12.9195 147.886C15.8547 155.14 25.6843 157.481 53.1663 157.471C82.1104 157.462 87.3096 155.277 98.9108 138.247C114.659 115.13 142.35 94.6846 167.267 87.7768C172.375 86.3609 177.557 84.0671 178.781 82.6819C181.671 79.4122 178.925 31.606 175.628 27.7654C172.238 23.8163 161.384 23.004 135.36 24.7534ZM615.059 43.7806C626.015 47.8012 631.746 51.7544 636.507 58.5681C639.484 62.8302 639.813 64.6267 637.828 65.8114C635.788 67.0289 635.806 67.3931 637.913 67.4176C639.412 67.434 640.637 69.7503 640.637 72.5637C640.637 75.9828 639.427 77.6791 636.989 77.6791C633.969 77.6791 634.222 78.561 638.458 82.7944C644.838 89.1723 640.885 89.4526 629.473 83.4308C618.766 77.7793 612.913 70.0695 616.785 66.7179C618.833 64.9439 619.114 64.997 617.949 66.9368C616.216 69.8157 620.097 70.5155 621.973 67.6632C622.638 66.6544 621.633 65.2733 619.744 64.594C614.31 62.6338 613.259 63.0819 612.904 67.5036C612.468 72.9361 625.253 84.814 635.156 88.1779C640.641 90.0398 643.312 92.3745 644.132 96.0187C646.383 106.053 649.261 110.417 653.624 110.417C659.246 110.417 661.71 101.791 658.533 93.2277C655.415 84.8201 650.963 68.676 651.488 67.6775C651.717 67.2396 651.079 66.3189 650.072 65.6314C649.063 64.9418 645.603 61.0562 642.382 56.9946C636.076 49.0432 625.723 43.4818 614.118 41.8142L606.862 40.7707L615.059 43.7806ZM487.446 72.4266C470.519 78.9641 453.03 89.0945 440.588 99.5749L430.36 108.187L447.792 108.249C474.622 108.345 499.387 101.828 511.415 91.5049C518.229 85.659 519.986 76.3593 515.209 71.4035C510.199 66.2063 502.858 66.4764 487.446 72.4266ZM571.701 80.3084C572.424 93.1295 574.686 96.9599 580.334 94.924C583.596 93.7495 583.491 93.0088 579.284 87.4617C576.715 84.0733 573.808 78.4157 572.823 74.8861C571.435 69.9037 571.184 71.115 571.701 80.3084ZM706.008 85.8821C706.008 88.7917 708.426 89.6286 718.89 90.3386C729.624 91.0691 733.35 92.4134 741.225 98.4024C753.617 107.827 758.427 110.372 753.142 104.713C740.042 90.6803 706.008 77.0816 706.008 85.8821ZM555.654 101.167C545.467 102.755 520.953 107.725 501.178 112.212C433.408 127.591 422.269 129.258 380.242 130.328C328.501 131.646 285.384 127.351 273.345 119.678C267.738 116.106 262.299 114.51 255.732 114.51C250.506 114.51 246.231 115.246 246.231 116.147C246.231 119.768 269.263 141.732 281.85 150.113C308.429 167.814 345.745 181.384 381.17 186.233C404.272 189.397 437.705 187.686 460.866 182.157C478.967 177.834 522.969 158.819 522.969 155.318C522.969 154.217 518.053 155.656 512.045 158.516C477.738 174.838 432.935 182.542 397.044 178.284C360.386 173.936 321.432 157.917 296.007 136.733C287.275 129.459 287.04 129.015 292.969 130.991C310.09 136.698 350.705 141.241 384.846 141.267C432.231 141.304 459.284 138.11 525.536 124.655C555.85 118.498 577.203 117.061 586.904 120.525C596.618 123.992 606.469 135.55 642.502 185.752C677.863 235.016 684.681 242.435 700.183 248.516L708.287 251.696L700.055 243.965C689.728 234.269 613.562 111.541 615.275 107.354C616.005 105.566 614.654 103.411 611.952 102.053C604.792 98.4536 575.958 98.0014 555.654 101.167ZM743.629 114.51C743.385 120.284 744.174 122.694 746.307 122.694C751.336 122.694 752.131 119.06 748.532 112.523C746.656 109.114 744.862 106.325 744.548 106.325C744.235 106.325 743.821 110.008 743.629 114.51ZM763.149 109.511C760.111 111.506 758.305 114.825 758.305 118.401C758.305 129.856 742.18 135.374 734.553 126.531C729.55 120.73 723.205 121.139 704.556 128.464C672.357 141.112 663.473 148.607 672.416 155.576C678.29 160.153 688.209 174.871 703.009 200.972C717.864 227.169 726.044 237.279 732.389 237.279C734.466 237.279 748.257 233.972 763.033 229.929C783.716 224.271 795.396 222.315 813.774 221.435L837.646 220.289L853.749 208.274C879.705 188.906 878.733 189.194 917.96 189.194C954.884 189.194 957.248 187.95 933.937 180.793C918.407 176.023 908.429 171.02 902.446 164.998C898.116 160.644 897.554 158.559 898.813 151.559C899.632 147.005 902.356 140.825 904.869 137.828C910.074 131.611 929.849 122.725 938.683 122.633C944.117 122.576 944.261 122.379 940.407 120.278C928.786 113.945 852.156 106.356 799.647 106.337C774.508 106.327 766.992 106.98 763.149 109.511ZM178.136 112.627C171.854 116.063 173.743 118.06 184.673 119.531C202.103 121.88 210.499 124.943 222.105 133.193C237.447 144.095 241.18 143.471 234.388 131.139C230.908 124.818 218.527 116.464 207.229 112.811C198.194 109.892 183.311 109.797 178.136 112.627ZM1074 114.303L1068.89 118.189L1081.93 119.639C1097.73 121.401 1111.43 126.709 1121.43 134.955C1131.43 143.203 1135.83 143.217 1132.78 134.99C1126.06 116.896 1088.14 103.549 1074 114.303ZM261.484 117.055C261.484 117.456 268.595 123.185 277.282 129.784C291.997 140.96 292.446 141.161 283.837 132.69C275.916 124.896 261.484 114.802 261.484 117.055ZM559.587 139.096C548.191 151.565 527.305 167.687 514.956 173.549C498.154 181.527 436.149 194.309 414.257 194.309C405.941 194.309 404.97 194.979 397.123 206.075C392.547 212.545 385.661 223.001 381.822 229.307C374.899 240.675 374.875 240.806 379.146 244.434C389.084 252.88 402.867 254.38 476.791 255.053L547.191 255.696L556.162 246.439C568.667 233.538 581.626 230.129 611.335 231.934C629.558 233.039 636.571 234.512 651.643 240.391C669.21 247.245 675.501 248.817 675.501 246.351C675.501 245.713 668.868 236.736 660.76 226.401C652.652 216.066 644.313 205.103 642.227 202.04C630.053 184.152 577.02 128.833 572.047 128.833C570.354 128.833 564.747 133.451 559.587 139.096ZM1148.61 138.227C1149.08 139.25 1152.05 144.69 1155.21 150.317C1160.91 160.45 1161.29 160.691 1195.51 175.559C1256.23 201.933 1295.03 211.184 1310.42 202.952C1314.35 200.855 1273.39 179.109 1242.05 166.646C1221.65 158.535 1190.93 148.347 1171.14 143.131C1161.72 140.649 1152.6 138.11 1150.88 137.492C1149.16 136.872 1148.14 137.204 1148.61 138.227ZM638.78 140.645C642.487 149.401 659.222 173.42 660.926 172.432C662.15 171.72 662.423 172.201 661.549 173.529C659.633 176.436 665.397 184.639 667.875 182.532C668.857 181.695 668.977 182.133 668.136 183.504C667.273 184.916 672.945 196.026 681.191 209.081C696.753 233.72 703.349 241.891 706.3 240.178C707.311 239.593 707.553 240.54 706.84 242.288C706.125 244.035 706.383 245.531 707.409 245.615C708.435 245.698 711.481 246.153 714.179 246.625C716.877 247.098 719.082 247.129 719.082 246.697C719.082 245.604 658.051 148.607 656.256 146.843C653.7 144.336 637.983 138.761 638.78 140.645ZM928.995 140.486C923.685 141.457 913.016 150.006 913.016 153.288C913.016 154.596 919.61 155.447 929.904 155.467C939.191 155.488 953.655 156.869 962.044 158.537C970.432 160.206 977.542 161.571 977.842 161.571C978.141 161.571 978.387 160.315 978.387 158.778C978.387 157.241 980.46 153.509 982.994 150.485C985.528 147.461 987.169 144.582 986.641 144.085C982.719 140.404 942.995 137.922 928.995 140.486ZM189.576 143.156C191.374 144.246 193.825 145.139 195.024 145.139C196.222 145.139 195.732 144.246 193.934 143.156C192.137 142.065 189.685 141.173 188.487 141.173C187.288 141.173 187.778 142.065 189.576 143.156ZM1089.7 143.903C1090.2 144.312 1093.06 145.744 1096.06 147.084C1101.19 149.38 1101.26 149.339 1097.27 146.338C1093.8 143.727 1086.71 141.445 1089.7 143.903ZM648.357 147.107C647.666 148.155 647.936 149.495 648.954 150.086C649.972 150.677 650.806 149.82 650.806 148.181C650.806 144.731 650.118 144.431 648.357 147.107ZM1033.75 151.852L1029.59 156.456L1034.5 152.558C1039.1 148.895 1040.39 147.248 1038.65 147.248C1038.23 147.248 1036.03 149.321 1033.75 151.852ZM213.546 150.068C213.546 150.491 215.26 152.104 217.359 153.648C220.815 156.192 220.891 156.12 218.183 152.875C215.335 149.466 213.546 148.384 213.546 150.068ZM127.384 163.754C126.593 164.953 126.415 166.375 126.986 166.912C127.556 167.448 128.605 166.465 129.315 164.728C130.788 161.123 129.533 160.489 127.384 163.754ZM205.289 172.903C202.121 176.275 192.694 176.929 190.709 173.916C189.214 171.642 180.378 172.739 163.972 177.234C151.942 180.529 150.829 181.632 155.256 185.861C157.442 187.948 156.945 189.255 152.748 192.476C146.525 197.25 142.982 196.632 142.036 190.61C141.374 186.389 141.123 186.348 135.848 189.593C129.186 193.692 129.903 200.378 138.275 212.166C147.061 224.537 157.098 229.732 173.582 230.44C194.625 231.345 209.157 224.447 217.368 209.656C221.615 202.003 224.569 190.217 222.24 190.217C221.281 190.217 220.996 186.726 221.606 182.46C222.403 176.874 221.734 173.938 219.22 171.978C216.33 169.727 215.725 169.723 215.725 171.961C215.725 174.065 215.143 174.12 213.11 172.211C209.809 169.111 208.763 169.203 205.289 172.903ZM1099.89 173.553C1094.95 176.334 1093.17 176.465 1089.52 174.323C1087.09 172.901 1082.42 172.254 1079.14 172.886C1065.02 175.608 1048.12 180.768 1048.12 182.356C1048.12 183.303 1049.1 184.079 1050.3 184.079C1053.89 184.079 1052.76 190.588 1048.66 193.507C1042.77 197.706 1039.4 196.861 1039.4 191.187C1039.4 186.086 1039.32 186.061 1032.75 189.247C1025.88 192.587 1025.8 193.211 1030.76 205.678C1033.61 212.852 1043.92 222.949 1052.66 227.136C1065.42 233.248 1088.44 231.77 1100.25 224.083C1112.87 215.876 1120.16 201.056 1119.21 185.574C1118.81 179.08 1117.97 173.285 1117.34 172.696C1114.52 170.04 1105.34 170.49 1099.89 173.553ZM226.212 184.269C227.485 200.781 222.573 212.365 209.835 222.894C193.762 236.178 174.918 238.789 155.712 230.389C149.671 227.748 142.245 222.814 139.208 219.428C134.213 213.852 132.3 210.274 127.424 197.379C126.51 194.964 125.473 194.295 124.894 195.748C124.353 197.1 125.809 202.238 128.127 207.161C131.877 215.121 132.004 216.727 129.269 221.628C123.209 232.489 135.301 244.475 158.782 250.885C179.733 256.604 203.295 251.992 218.913 239.118C224.336 234.645 226.62 231.042 226.62 226.956C226.62 218.108 222.952 217.801 213.456 225.857C200.911 236.499 200.842 234.844 213.358 223.467C225.888 212.078 232.366 195.801 229.877 181.967C227.587 169.242 225.173 170.76 226.212 184.269ZM1123.45 182.033C1127.17 216.6 1094.18 242.392 1058.24 233.021C1046.24 229.892 1031.71 216.52 1026.51 203.832C1023.67 196.892 1022.16 194.895 1022.08 197.993C1021.92 204.491 1027.51 214.272 1036.92 223.977L1044.85 232.157L1036.86 225.28C1028.03 217.668 1024.15 218.18 1024.15 226.956C1024.15 231.083 1026.47 234.674 1032.16 239.37C1044.33 249.4 1053.52 252.33 1073.32 252.486C1088.73 252.608 1092.49 251.866 1103.71 246.476C1118.81 239.231 1126.15 229.888 1122.21 222.958C1119.79 218.722 1119.65 218.753 1111.86 225.169C1099.77 235.136 1088.18 239.274 1073.18 238.979L1060.1 238.725L1075.73 237.371C1095.58 235.65 1109.49 228.106 1118.75 214.047C1125.93 203.149 1128.71 184.926 1124.58 175.894C1122.68 171.732 1122.47 172.876 1123.45 182.033ZM182.893 177.081C181.226 178.967 177.938 179.939 175.001 179.411C171.78 178.834 169.965 179.489 169.965 181.228C169.965 182.945 171.372 183.477 173.778 182.665C175.877 181.959 176.946 182.057 176.158 182.884C175.369 183.71 172.917 184.635 170.71 184.938C168.503 185.243 166.94 186.094 167.241 186.831C167.542 187.567 167.786 189.147 167.786 190.338C167.786 191.529 168.79 191.922 170.019 191.21C171.246 190.495 171.983 191.132 171.654 192.623C171.253 194.434 173.403 195.326 178.136 195.312C182.03 195.302 185.218 195.912 185.218 196.667C185.218 199.288 192.614 197.006 193.437 194.131C194.085 191.87 193.762 191.909 191.953 194.309C190.256 196.564 189.635 196.669 189.609 194.7C189.591 193.227 188.7 192.531 187.628 193.151C186.558 193.773 185.734 192.216 185.8 189.691C185.867 187.168 185.14 183.26 184.187 181.01L182.453 176.917L185.946 181.01C188.598 184.118 189.463 184.363 189.541 182.033C189.631 179.305 189.899 179.305 191.953 182.033C194.008 184.76 194.167 184.76 193.374 182.033C192.884 180.345 191.093 178.922 189.395 178.871C187.698 178.82 186.552 177.668 186.852 176.314C187.591 172.966 186.31 173.216 182.893 177.081ZM1085.7 176.772C1088.21 179.825 1087.64 182.45 1084.82 180.815C1083.25 179.903 1082.9 180.254 1083.89 181.75C1084.75 183.068 1086.31 183.653 1087.35 183.05C1088.39 182.448 1089.63 184.965 1090.12 188.644L1091 195.333L1091.35 188.91C1091.55 185.231 1090.07 180.842 1087.88 178.636C1085.79 176.518 1084.8 175.679 1085.7 176.772ZM214.635 179.986C213.894 181.112 214.328 182.033 215.596 182.033C216.864 182.033 217.904 181.112 217.904 179.986C217.904 178.861 217.472 177.94 216.943 177.94C216.413 177.94 215.376 178.861 214.635 179.986ZM1062.64 179.305C1061.84 180.054 1061.19 181.619 1061.19 182.784C1061.19 184.064 1062.21 183.944 1063.77 182.477C1065.19 181.145 1065.84 179.579 1065.22 178.998C1064.6 178.417 1063.44 178.554 1062.64 179.305ZM202.106 182.835C200.007 184.33 198.292 186.731 198.292 188.171C198.292 191.203 204.657 196.196 208.643 196.29C210.379 196.331 211.367 193.389 211.367 188.171C211.367 179.471 208.854 178.024 202.106 182.835ZM1064.08 187.035C1061.03 193.031 1060.87 194.809 1063.2 196.888C1065.51 198.95 1065.77 198.467 1064.61 194.309C1063.25 189.429 1063.32 189.388 1066 193.434C1068.07 196.542 1070.21 197.348 1074.06 196.456C1085.83 193.724 1085.44 181.701 1073.53 180.365C1068.8 179.833 1067.14 181.005 1064.08 187.035ZM1097.93 183.946C1093.13 187.645 1093.03 188.136 1096.41 191.371C1100.66 195.427 1111.4 197.158 1110.25 193.602C1109.84 192.304 1108.9 188.709 1108.18 185.613C1106.62 178.945 1104.81 178.65 1097.93 183.946ZM159.575 188.171C159.575 192.11 160.024 193.722 160.571 191.752C161.12 189.781 161.12 186.561 160.571 184.59C160.024 182.62 159.575 184.232 159.575 188.171ZM1017.78 185.272C1017.89 187.655 1018.4 188.14 1019.1 186.51C1019.73 185.032 1019.65 183.266 1018.93 182.587C1018.2 181.908 1017.69 183.115 1017.78 185.272ZM1071.68 183.43C1073.25 184.021 1075.13 183.948 1075.85 183.268C1076.58 182.589 1075.29 182.106 1072.99 182.194C1070.46 182.292 1069.94 182.777 1071.68 183.43ZM1113.99 190.217C1113.99 194.156 1114.44 195.768 1114.99 193.798C1115.54 191.827 1115.54 188.607 1114.99 186.636C1114.44 184.666 1113.99 186.278 1113.99 190.217ZM178.136 190.559C174.909 193.732 174.837 194.309 177.659 194.309C179.496 194.309 181.577 192.889 182.287 191.152C184.176 186.526 182.481 186.284 178.136 190.559ZM268.021 196.243C268.021 202.392 268.204 202.494 279.06 202.494C289.818 202.494 290.084 202.351 289.411 196.867C288.781 191.715 287.851 191.187 278.372 190.616C268.137 190 268.021 190.064 268.021 196.243ZM298.528 196.274V202.494H317.194H335.861L335.171 196.867C334.489 191.291 334.319 191.234 316.505 190.647L298.528 190.051V196.274ZM164.912 195.562C165.886 197.943 165.528 198.598 163.798 197.594C160.366 195.603 160.551 197.356 164.062 200.094C166.186 201.749 166.953 201.32 167.191 198.338C167.365 196.167 166.603 193.863 165.493 193.221C164.371 192.57 164.114 193.608 164.912 195.562ZM214.936 197.379C215.627 199.067 216.577 200.448 217.047 200.448C217.518 200.448 217.904 199.067 217.904 197.379C217.904 195.691 216.954 194.309 215.792 194.309C214.633 194.309 214.247 195.691 214.936 197.379ZM1033.86 196.493C1033.07 197.692 1032.89 199.114 1033.46 199.65C1034.04 200.186 1035.08 199.204 1035.79 197.467C1037.27 193.861 1036.01 193.227 1033.86 196.493ZM1084.88 199.936C1082.17 203.182 1082.25 203.253 1085.7 200.71C1089.33 198.035 1090.49 196.356 1088.69 196.356C1088.24 196.356 1086.53 197.966 1084.88 199.936ZM143.849 199.232C143.832 200.251 146.505 204.395 149.791 208.44C155.341 215.274 156.113 218.62 151.827 217.277C150.837 216.968 150.68 217.703 151.476 218.912C152.493 220.461 153.799 220.424 155.899 218.785C157.538 217.509 159.693 216.938 160.689 217.515C161.684 218.094 162.465 214.72 162.419 210.018C162.338 201.565 162.255 201.475 154.738 201.825C150.556 202.021 146.403 201.101 145.509 199.779C144.614 198.459 143.869 198.214 143.849 199.232ZM887.957 203.724C876.243 209.334 856.361 220.873 856.361 222.061C856.361 222.46 864.72 218.681 874.935 213.664C885.153 208.647 895.074 204.54 896.981 204.54C898.889 204.54 910.203 213.977 922.12 225.513C940.38 243.188 943.422 247.049 941.459 250.067C940.176 252.037 939.882 253.648 940.801 253.648C941.721 253.648 943.625 251.917 945.033 249.799C947.281 246.421 945.876 244.528 933.51 234.269C925.764 227.842 915.339 217.144 910.345 210.492C905.35 203.842 900.72 198.426 900.057 198.455C899.395 198.484 893.95 200.855 887.957 203.724ZM181.95 202.494C178.398 203.928 178.271 204.278 181.276 204.397C183.303 204.475 185.567 203.619 186.308 202.494C187.857 200.141 187.781 200.141 181.95 202.494ZM190.727 202.4C188.883 205.201 191.653 214.19 195.213 216.964C196.88 218.264 197.612 220.285 196.841 221.458C195.993 222.749 196.505 222.97 198.146 222.018C200.083 220.893 200.184 219.821 198.497 218.237C195.052 215.002 204.498 205.827 208.259 208.757C210.175 210.251 211.46 210.093 212.611 208.221C213.508 206.758 213.465 206.224 212.513 207.03C211.563 207.839 208.331 206.687 205.333 204.473C199.499 200.166 192.823 199.216 190.727 202.4ZM1043.79 204.54C1044.75 206.228 1048.05 209.819 1051.13 212.52C1056.8 217.505 1058.2 216.827 1059.17 208.632C1060.01 201.504 1058.92 200.546 1050.52 201.007C1043.73 201.379 1042.39 202.085 1043.79 204.54ZM1064.97 202.748C1066.45 204.147 1068.2 204.776 1068.87 204.145C1069.55 203.515 1068.34 202.371 1066.19 201.602C1063.08 200.493 1062.83 200.726 1064.97 202.748ZM1088.54 202.318C1087.87 203.347 1087.56 207.388 1087.87 211.299L1088.43 218.405L1094.59 214.288C1102.13 209.257 1104.24 204.73 1100.19 202.318C1096.21 199.955 1090.1 199.955 1088.54 202.318ZM368.166 211.894C362.823 217.063 352.875 225.36 346.061 230.328L333.671 239.362L312.286 234.246C287.406 228.296 283.419 228.044 277.699 232.075C273.868 234.774 274.186 234.856 281.096 232.937C287.633 231.122 294.865 232.302 331.743 241.211C372.081 250.953 388.465 254.21 369.95 248.802L361.835 246.435L375.683 225.998C383.299 214.759 389.097 204.872 388.57 204.029C385.949 199.836 377.104 203.245 368.166 211.894ZM688.303 203.517C688.153 204.08 687.893 205.232 687.726 206.075C687.558 206.918 686.555 208.991 685.499 210.679C683.943 213.167 684.13 213.267 686.49 211.211C689.242 208.813 691.404 202.494 689.473 202.494C688.979 202.494 688.453 202.954 688.303 203.517ZM271.874 206.024C275.79 206.478 281.673 206.47 284.948 206.003C288.223 205.535 285.018 205.162 277.827 205.174C270.636 205.185 267.958 205.567 271.874 206.024ZM307.854 206.046C313.583 206.47 322.408 206.464 327.466 206.036C332.523 205.606 327.836 205.26 317.05 205.267C306.264 205.273 302.126 205.625 307.854 206.046ZM1172.49 206.382C1167.19 207.057 1162.44 208.8 1161.93 210.257C1161.28 212.107 1162.54 212.565 1166.12 211.779C1196.47 205.109 1197.26 204.884 1189.75 205.019C1185.56 205.093 1177.79 205.706 1172.49 206.382ZM142.821 208.491C142.13 209.539 142.4 210.879 143.418 211.471C144.435 212.062 145.27 211.204 145.27 209.566C145.27 206.116 144.581 205.815 142.821 208.491ZM1069.49 210.167C1067.68 212.138 1065.6 215.358 1064.86 217.329C1063.7 220.394 1064.91 220.909 1073.24 220.909C1084.22 220.909 1085.66 218.239 1078.54 211.065C1073.2 205.684 1073.55 205.719 1069.49 210.167ZM1105.34 207.64C1107.53 209.909 1098.23 219.103 1095.4 217.462C1094.15 216.735 1093.87 217.206 1094.76 218.546C1096.81 221.666 1096.53 221.779 1103.45 214.996C1108.07 210.47 1108.8 208.712 1106.58 207.505C1104.99 206.64 1104.43 206.701 1105.34 207.64ZM170.49 212.696C166.101 219.293 167.285 220.909 176.502 220.909C185.543 220.909 186.789 219.305 182.963 212.59C180.045 207.472 173.928 207.526 170.49 212.696ZM271.874 210.116C275.79 210.57 281.673 210.562 284.948 210.095C288.223 209.627 285.018 209.255 277.827 209.267C270.636 209.277 267.958 209.66 271.874 210.116ZM307.854 210.138C313.583 210.562 322.408 210.556 327.466 210.128C332.523 209.699 327.836 209.353 317.05 209.359C306.264 209.365 302.126 209.717 307.854 210.138ZM1042.67 214.771C1044.84 217.022 1047.1 218.863 1047.7 218.863C1048.3 218.863 1047.02 217.022 1044.85 214.771C1042.68 212.52 1040.41 210.679 1039.81 210.679C1039.21 210.679 1040.5 212.52 1042.67 214.771ZM204.55 216.306C201.842 219.551 201.918 219.622 205.374 217.079C209.004 214.405 210.157 212.725 208.364 212.725C207.913 212.725 206.196 214.335 204.55 216.306ZM269.695 214.208C273.611 214.662 279.494 214.654 282.769 214.188C286.044 213.719 282.839 213.347 275.648 213.359C268.457 213.369 265.779 213.752 269.695 214.208ZM306.699 214.223C311.794 214.654 320.127 214.654 325.221 214.223C330.316 213.793 326.147 213.439 315.96 213.439C305.773 213.439 301.605 213.793 306.699 214.223ZM694.84 213.748C694.69 214.311 694.43 215.463 694.263 216.306C694.095 217.149 693.093 219.221 692.036 220.909C690.48 223.397 690.667 223.498 693.027 221.441C695.779 219.043 697.941 212.725 696.01 212.725C695.516 212.725 694.991 213.185 694.84 213.748ZM132.921 218.227C132.921 221.558 145.612 231.142 155.801 235.505C161.48 237.935 169.074 239.147 177.591 238.979L190.666 238.725L175.253 237.385C158.706 235.947 142.659 228.961 136.29 220.422C134.438 217.938 132.921 216.95 132.921 218.227ZM951.149 219.935C977.524 223.524 989.901 223.676 988.742 220.398C988.086 218.548 980.045 217.76 959.687 217.554L931.538 217.265L951.149 219.935ZM282.845 220.39C295.194 220.756 314.805 220.754 326.426 220.388C338.047 220.019 327.945 219.721 303.976 219.723C280.006 219.725 270.497 220.025 282.845 220.39ZM169.383 225.255C170.863 226.655 172.621 227.283 173.29 226.653C173.961 226.023 172.752 224.879 170.603 224.11C167.498 223.001 167.248 223.234 169.383 225.255ZM181.95 225.002C181.209 226.127 182.189 227.048 184.129 227.048C186.068 227.048 187.048 226.127 186.308 225.002C185.567 223.876 184.586 222.956 184.129 222.956C183.671 222.956 182.69 223.876 181.95 225.002ZM1064.46 225.002C1063.72 226.127 1064.7 227.048 1066.64 227.048C1068.58 227.048 1069.56 226.127 1068.82 225.002C1068.08 223.876 1067.1 222.956 1066.64 222.956C1066.18 222.956 1065.2 223.876 1064.46 225.002ZM1076.44 225.002C1071.32 226.542 1071.43 226.653 1078.21 226.843C1082.5 226.966 1084.87 226.221 1084.07 225.002C1083.33 223.876 1082.54 223.048 1082.31 223.16C1082.08 223.273 1079.44 224.101 1076.44 225.002ZM1047.53 233.44C1049.01 234.84 1050.77 235.468 1051.44 234.837C1052.11 234.207 1050.9 233.063 1048.75 232.294C1045.65 231.185 1045.4 231.418 1047.53 233.44ZM1303.15 233.54C1299 234.657 1285.76 236.358 1273.73 237.315C1252.86 238.977 1253.19 239.012 1280.73 238.034C1307.56 237.082 1309.6 237.272 1309.63 240.724C1309.65 242.768 1310.62 245.821 1311.78 247.509C1313.31 249.729 1313.9 247.888 1313.93 240.859C1313.94 235.515 1313.22 231.224 1312.32 231.324C1311.42 231.427 1307.3 232.423 1303.15 233.54ZM130.86 244.69C141.783 255.471 153.064 259.737 169.965 259.481L184.129 259.266L170.749 257.63C156.37 255.868 138.754 248.571 132.039 241.592C129.755 239.22 126.866 237.279 125.619 237.279C124.371 237.279 126.728 240.614 130.86 244.69ZM1024.4 241.524C1026.31 244.254 1032 249.234 1037.04 252.592C1045.09 257.953 1048.26 258.747 1062.96 259.111C1078.41 259.494 1078.85 259.397 1068.6 257.871C1051.52 255.328 1042.31 251.888 1031.16 243.894C1022.63 237.784 1021.51 237.389 1024.4 241.524ZM341.019 241.371C343.416 242.339 346.848 243.128 348.646 243.128C350.705 243.128 350.304 242.48 347.556 241.371C345.159 240.403 341.727 239.613 339.93 239.613C337.87 239.613 338.271 240.262 341.019 241.371ZM582.737 243.264C545.91 248.807 563.466 258.546 610.13 258.46C638.813 258.407 655.89 255.473 655.89 250.595C655.89 249.005 652.214 246.703 647.719 245.484C636.897 242.545 596.646 241.17 582.737 243.264ZM354.775 244.815C356.347 245.406 358.227 245.332 358.95 244.653C359.674 243.974 358.388 243.491 356.092 243.579C353.553 243.677 353.037 244.162 354.775 244.815ZM380.924 252.999C382.495 253.59 384.375 253.517 385.099 252.837C385.822 252.158 384.537 251.675 382.24 251.763C379.701 251.861 379.185 252.346 380.924 252.999ZM389.64 255.045C391.211 255.637 393.092 255.563 393.815 254.884C394.538 254.204 393.253 253.721 390.956 253.809C388.418 253.908 387.901 254.393 389.64 255.045Z"/>
</mask>
<path fill-rule="evenodd" clip-rule="evenodd" d="M410.748 3.1277C379.481 7.11769 358.149 11.4351 329.3 19.6115C298.129 28.4467 240.356 49.6816 230.577 55.8978C224.164 59.9738 223.364 61.5145 223.473 69.5968C223.541 74.6037 224.38 80.3145 225.341 82.2829C226.89 85.4626 225.715 85.8637 214.868 85.8637H202.65L202.642 57.7291C202.635 33.4352 202.053 28.7004 198.379 23.0449C190.611 11.079 183.847 9.24773 144.514 8.46405L109.255 7.76223L106.03 13.5631C96.4049 30.8735 65.0442 44.6665 27.7086 48.014C20.2585 48.6811 10.978 49.6857 7.08187 50.2464L0 51.2654V96.1456C0 146.366 1.5798 153.88 13.8674 162.109C20.0776 166.269 23.6861 166.75 53.4583 167.374L86.2157 168.059L86.2898 186.812C86.3399 199.576 87.6169 208.829 90.2905 215.794C109.351 265.448 168.725 287.984 218.625 264.503C228.89 259.674 248.761 242.895 255.069 233.733C258.146 229.266 258.329 229.247 263.367 232.894L268.516 236.624L263.025 244.794C260.003 249.287 254.392 255.446 250.552 258.479L243.573 263.993L461.171 263.379L678.77 262.765L748.372 248.999C786.654 241.428 819.503 235.241 821.37 235.251C827.391 235.286 806.938 245.428 786.355 252.612C775.353 256.455 765.325 260.56 764.07 261.738C762.484 263.228 788.275 263.878 848.935 263.878H936.079L945.203 255.148L954.326 246.419L943.346 237.536C937.308 232.652 932.776 228.273 933.275 227.805C933.774 227.336 947.783 227.922 964.404 229.106C989.093 230.866 995.011 231.901 996.713 234.758C1001.45 242.713 1018.24 257.411 1028.67 262.743C1056.88 277.16 1086.08 277.733 1115 264.439C1128.79 258.096 1146.6 242.382 1152.68 231.187C1156.89 223.453 1157.3 223.26 1181.33 217.865C1214.68 210.378 1228.93 208.424 1236.44 210.31C1244.91 212.442 1247.34 216.612 1245.5 225.851L1243.97 233.505L1234.84 232.126C1229.82 231.367 1218.58 228.533 1209.86 225.828C1185.77 218.348 1183.24 218.814 1172.83 232.675C1163.81 244.671 1153.7 254.45 1144.05 260.5C1139 263.67 1143.95 263.878 1223.98 263.878C1298.63 263.878 1309.72 263.477 1312.71 260.664C1315.22 258.309 1316.14 253.318 1316.14 242.026C1316.14 226.72 1316.1 226.614 1310.85 227.85C1305.62 229.082 1305.65 228.953 1313.03 217.451C1321.76 203.824 1321.93 202.525 1315.53 198.234C1286.12 178.54 1226.75 154.661 1168.6 139.133C1148.37 133.729 1142.61 131.266 1135.03 124.761C1110.81 103.966 1074.43 97.0622 1042.98 107.289C1033.18 110.475 1030.58 110.493 1008.11 107.53C943.634 99.0286 903.816 96.0535 826.944 93.9991C790.99 93.0375 758.387 91.6297 754.491 90.8726C750.595 90.1135 747.409 90.2874 747.409 91.2594C747.409 93.5797 749.329 93.7025 819.318 95.8898C897.194 98.3247 974.112 104.494 1019.54 111.952L1029.1 113.519L1023.32 116.425C1018.23 118.985 1014.11 118.805 988.703 114.919C932.638 106.346 875.258 101.439 794.721 98.3288L749.423 96.5793L736.166 88.896C728.164 84.2595 719.125 80.8117 713.368 80.202L703.829 79.1932L703.861 91.2246C703.881 97.8418 704.615 102.221 705.496 100.956C707.167 98.5559 721.261 94.926 721.261 96.8965C721.261 97.5165 718.075 98.9631 714.179 100.111C707.415 102.104 707.389 102.147 713.634 101.069C717.23 100.447 722.645 99.4603 725.669 98.8751C729.435 98.1467 732.402 99.0961 735.096 101.891C738.935 105.877 738.811 106.088 729.57 111.174C716.593 118.316 696.592 122.349 666.033 123.99C638.564 125.465 634.108 124.188 638.686 116.155C640.332 113.27 639.981 112.464 637.083 112.464C635.041 112.464 633.921 111.948 634.592 111.32C635.261 110.69 641.251 111.508 647.899 113.139L659.989 116.104L662.298 109.885C665.216 102.026 665.258 94.6682 662.392 93.0047C661.174 92.2967 660.629 91.0322 661.181 90.1933C662.832 87.6847 655.611 66.9614 650.405 59.2637C644.11 49.9579 639.026 45.8103 629.188 41.9492C609.248 34.1268 581.487 41.7569 572.991 57.3936C569.138 64.4855 568.432 68.7395 569.086 80.8977L569.883 95.7425L558.956 97.8316C546.367 100.24 544.084 98.7073 540.229 85.2641C536.989 73.9612 540.033 67.4647 551.935 60.2868C564.142 52.9248 568.728 44.8507 568.728 30.722C568.728 17.5346 563.242 12.0878 545.293 7.46349C514.695 -0.41827 453.898 -2.37848 410.748 3.1277ZM407.48 7.13201C363.478 12.853 328.263 22.1507 271.009 43.1647C237.48 55.4722 226.62 61.889 226.62 69.3963C226.62 71.7023 227.127 73.5868 227.749 73.5868C228.37 73.5868 238.676 68.9686 250.655 63.3254C299.428 40.343 348.755 25.5862 405.301 17.062C430.122 13.3216 509.038 12.4602 531.685 15.6849L543.669 17.3893L543.332 31.6776L542.994 45.9638L545.243 31.9825C547.611 17.2604 547.263 17.5326 558.923 21.3486C562.71 22.5886 562.603 22.2142 558.119 18.4984C552.031 13.4526 536.52 8.9715 515.342 6.13963C494.238 3.31595 432.449 3.88478 407.48 7.13201ZM148.174 16.3213C189.504 18.4718 192.18 20.61 193.538 52.6138C194.061 64.9275 195.344 73.5868 196.647 73.5868C198.081 73.5868 198.469 66.0017 197.745 52.1104C195.956 17.8149 190.931 14.0459 147.699 14.5779L120.937 14.9053L148.174 16.3213ZM433.419 20.4565C371.395 27.2641 263.199 59.5154 244.976 76.6253C238.557 82.6533 239.371 84.9327 252.47 97.6086C265.834 110.538 284.321 115.977 320.628 117.655C353.501 119.177 379.017 116.797 396.789 110.552C403.3 108.265 425.16 97.1338 445.369 85.8186C493.053 59.1164 492.837 59.1962 524.692 56.4401C528.639 56.1004 532.689 54.9832 533.694 53.9622C535.969 51.65 532.883 26.8323 529.983 24.1089C528.815 23.0122 524.063 21.2873 519.421 20.2765C509.415 18.0973 453.861 18.2119 433.419 20.4565ZM135.36 24.7534C115.572 26.0834 112.024 26.9019 107.032 31.2991C92.5567 44.0466 60.9128 55.3515 35.9541 56.6876C25.1679 57.2667 15.1182 58.656 13.619 59.7753C10.3177 62.2429 9.69889 139.937 12.9195 147.886C15.8547 155.14 25.6843 157.481 53.1663 157.471C82.1104 157.462 87.3096 155.277 98.9108 138.247C114.659 115.13 142.35 94.6846 167.267 87.7768C172.375 86.3609 177.557 84.0671 178.781 82.6819C181.671 79.4122 178.925 31.606 175.628 27.7654C172.238 23.8163 161.384 23.004 135.36 24.7534ZM615.059 43.7806C626.015 47.8012 631.746 51.7544 636.507 58.5681C639.484 62.8302 639.813 64.6267 637.828 65.8114C635.788 67.0289 635.806 67.3931 637.913 67.4176C639.412 67.434 640.637 69.7503 640.637 72.5637C640.637 75.9828 639.427 77.6791 636.989 77.6791C633.969 77.6791 634.222 78.561 638.458 82.7944C644.838 89.1723 640.885 89.4526 629.473 83.4308C618.766 77.7793 612.913 70.0695 616.785 66.7179C618.833 64.9439 619.114 64.997 617.949 66.9368C616.216 69.8157 620.097 70.5155 621.973 67.6632C622.638 66.6544 621.633 65.2733 619.744 64.594C614.31 62.6338 613.259 63.0819 612.904 67.5036C612.468 72.9361 625.253 84.814 635.156 88.1779C640.641 90.0398 643.312 92.3745 644.132 96.0187C646.383 106.053 649.261 110.417 653.624 110.417C659.246 110.417 661.71 101.791 658.533 93.2277C655.415 84.8201 650.963 68.676 651.488 67.6775C651.717 67.2396 651.079 66.3189 650.072 65.6314C649.063 64.9418 645.603 61.0562 642.382 56.9946C636.076 49.0432 625.723 43.4818 614.118 41.8142L606.862 40.7707L615.059 43.7806ZM487.446 72.4266C470.519 78.9641 453.03 89.0945 440.588 99.5749L430.36 108.187L447.792 108.249C474.622 108.345 499.387 101.828 511.415 91.5049C518.229 85.659 519.986 76.3593 515.209 71.4035C510.199 66.2063 502.858 66.4764 487.446 72.4266ZM571.701 80.3084C572.424 93.1295 574.686 96.9599 580.334 94.924C583.596 93.7495 583.491 93.0088 579.284 87.4617C576.715 84.0733 573.808 78.4157 572.823 74.8861C571.435 69.9037 571.184 71.115 571.701 80.3084ZM706.008 85.8821C706.008 88.7917 708.426 89.6286 718.89 90.3386C729.624 91.0691 733.35 92.4134 741.225 98.4024C753.617 107.827 758.427 110.372 753.142 104.713C740.042 90.6803 706.008 77.0816 706.008 85.8821ZM555.654 101.167C545.467 102.755 520.953 107.725 501.178 112.212C433.408 127.591 422.269 129.258 380.242 130.328C328.501 131.646 285.384 127.351 273.345 119.678C267.738 116.106 262.299 114.51 255.732 114.51C250.506 114.51 246.231 115.246 246.231 116.147C246.231 119.768 269.263 141.732 281.85 150.113C308.429 167.814 345.745 181.384 381.17 186.233C404.272 189.397 437.705 187.686 460.866 182.157C478.967 177.834 522.969 158.819 522.969 155.318C522.969 154.217 518.053 155.656 512.045 158.516C477.738 174.838 432.935 182.542 397.044 178.284C360.386 173.936 321.432 157.917 296.007 136.733C287.275 129.459 287.04 129.015 292.969 130.991C310.09 136.698 350.705 141.241 384.846 141.267C432.231 141.304 459.284 138.11 525.536 124.655C555.85 118.498 577.203 117.061 586.904 120.525C596.618 123.992 606.469 135.55 642.502 185.752C677.863 235.016 684.681 242.435 700.183 248.516L708.287 251.696L700.055 243.965C689.728 234.269 613.562 111.541 615.275 107.354C616.005 105.566 614.654 103.411 611.952 102.053C604.792 98.4536 575.958 98.0014 555.654 101.167ZM743.629 114.51C743.385 120.284 744.174 122.694 746.307 122.694C751.336 122.694 752.131 119.06 748.532 112.523C746.656 109.114 744.862 106.325 744.548 106.325C744.235 106.325 743.821 110.008 743.629 114.51ZM763.149 109.511C760.111 111.506 758.305 114.825 758.305 118.401C758.305 129.856 742.18 135.374 734.553 126.531C729.55 120.73 723.205 121.139 704.556 128.464C672.357 141.112 663.473 148.607 672.416 155.576C678.29 160.153 688.209 174.871 703.009 200.972C717.864 227.169 726.044 237.279 732.389 237.279C734.466 237.279 748.257 233.972 763.033 229.929C783.716 224.271 795.396 222.315 813.774 221.435L837.646 220.289L853.749 208.274C879.705 188.906 878.733 189.194 917.96 189.194C954.884 189.194 957.248 187.95 933.937 180.793C918.407 176.023 908.429 171.02 902.446 164.998C898.116 160.644 897.554 158.559 898.813 151.559C899.632 147.005 902.356 140.825 904.869 137.828C910.074 131.611 929.849 122.725 938.683 122.633C944.117 122.576 944.261 122.379 940.407 120.278C928.786 113.945 852.156 106.356 799.647 106.337C774.508 106.327 766.992 106.98 763.149 109.511ZM178.136 112.627C171.854 116.063 173.743 118.06 184.673 119.531C202.103 121.88 210.499 124.943 222.105 133.193C237.447 144.095 241.18 143.471 234.388 131.139C230.908 124.818 218.527 116.464 207.229 112.811C198.194 109.892 183.311 109.797 178.136 112.627ZM1074 114.303L1068.89 118.189L1081.93 119.639C1097.73 121.401 1111.43 126.709 1121.43 134.955C1131.43 143.203 1135.83 143.217 1132.78 134.99C1126.06 116.896 1088.14 103.549 1074 114.303ZM261.484 117.055C261.484 117.456 268.595 123.185 277.282 129.784C291.997 140.96 292.446 141.161 283.837 132.69C275.916 124.896 261.484 114.802 261.484 117.055ZM559.587 139.096C548.191 151.565 527.305 167.687 514.956 173.549C498.154 181.527 436.149 194.309 414.257 194.309C405.941 194.309 404.97 194.979 397.123 206.075C392.547 212.545 385.661 223.001 381.822 229.307C374.899 240.675 374.875 240.806 379.146 244.434C389.084 252.88 402.867 254.38 476.791 255.053L547.191 255.696L556.162 246.439C568.667 233.538 581.626 230.129 611.335 231.934C629.558 233.039 636.571 234.512 651.643 240.391C669.21 247.245 675.501 248.817 675.501 246.351C675.501 245.713 668.868 236.736 660.76 226.401C652.652 216.066 644.313 205.103 642.227 202.04C630.053 184.152 577.02 128.833 572.047 128.833C570.354 128.833 564.747 133.451 559.587 139.096ZM1148.61 138.227C1149.08 139.25 1152.05 144.69 1155.21 150.317C1160.91 160.45 1161.29 160.691 1195.51 175.559C1256.23 201.933 1295.03 211.184 1310.42 202.952C1314.35 200.855 1273.39 179.109 1242.05 166.646C1221.65 158.535 1190.93 148.347 1171.14 143.131C1161.72 140.649 1152.6 138.11 1150.88 137.492C1149.16 136.872 1148.14 137.204 1148.61 138.227ZM638.78 140.645C642.487 149.401 659.222 173.42 660.926 172.432C662.15 171.72 662.423 172.201 661.549 173.529C659.633 176.436 665.397 184.639 667.875 182.532C668.857 181.695 668.977 182.133 668.136 183.504C667.273 184.916 672.945 196.026 681.191 209.081C696.753 233.72 703.349 241.891 706.3 240.178C707.311 239.593 707.553 240.54 706.84 242.288C706.125 244.035 706.383 245.531 707.409 245.615C708.435 245.698 711.481 246.153 714.179 246.625C716.877 247.098 719.082 247.129 719.082 246.697C719.082 245.604 658.051 148.607 656.256 146.843C653.7 144.336 637.983 138.761 638.78 140.645ZM928.995 140.486C923.685 141.457 913.016 150.006 913.016 153.288C913.016 154.596 919.61 155.447 929.904 155.467C939.191 155.488 953.655 156.869 962.044 158.537C970.432 160.206 977.542 161.571 977.842 161.571C978.141 161.571 978.387 160.315 978.387 158.778C978.387 157.241 980.46 153.509 982.994 150.485C985.528 147.461 987.169 144.582 986.641 144.085C982.719 140.404 942.995 137.922 928.995 140.486ZM189.576 143.156C191.374 144.246 193.825 145.139 195.024 145.139C196.222 145.139 195.732 144.246 193.934 143.156C192.137 142.065 189.685 141.173 188.487 141.173C187.288 141.173 187.778 142.065 189.576 143.156ZM1089.7 143.903C1090.2 144.312 1093.06 145.744 1096.06 147.084C1101.19 149.38 1101.26 149.339 1097.27 146.338C1093.8 143.727 1086.71 141.445 1089.7 143.903ZM648.357 147.107C647.666 148.155 647.936 149.495 648.954 150.086C649.972 150.677 650.806 149.82 650.806 148.181C650.806 144.731 650.118 144.431 648.357 147.107ZM1033.75 151.852L1029.59 156.456L1034.5 152.558C1039.1 148.895 1040.39 147.248 1038.65 147.248C1038.23 147.248 1036.03 149.321 1033.75 151.852ZM213.546 150.068C213.546 150.491 215.26 152.104 217.359 153.648C220.815 156.192 220.891 156.12 218.183 152.875C215.335 149.466 213.546 148.384 213.546 150.068ZM127.384 163.754C126.593 164.953 126.415 166.375 126.986 166.912C127.556 167.448 128.605 166.465 129.315 164.728C130.788 161.123 129.533 160.489 127.384 163.754ZM205.289 172.903C202.121 176.275 192.694 176.929 190.709 173.916C189.214 171.642 180.378 172.739 163.972 177.234C151.942 180.529 150.829 181.632 155.256 185.861C157.442 187.948 156.945 189.255 152.748 192.476C146.525 197.25 142.982 196.632 142.036 190.61C141.374 186.389 141.123 186.348 135.848 189.593C129.186 193.692 129.903 200.378 138.275 212.166C147.061 224.537 157.098 229.732 173.582 230.44C194.625 231.345 209.157 224.447 217.368 209.656C221.615 202.003 224.569 190.217 222.24 190.217C221.281 190.217 220.996 186.726 221.606 182.46C222.403 176.874 221.734 173.938 219.22 171.978C216.33 169.727 215.725 169.723 215.725 171.961C215.725 174.065 215.143 174.12 213.11 172.211C209.809 169.111 208.763 169.203 205.289 172.903ZM1099.89 173.553C1094.95 176.334 1093.17 176.465 1089.52 174.323C1087.09 172.901 1082.42 172.254 1079.14 172.886C1065.02 175.608 1048.12 180.768 1048.12 182.356C1048.12 183.303 1049.1 184.079 1050.3 184.079C1053.89 184.079 1052.76 190.588 1048.66 193.507C1042.77 197.706 1039.4 196.861 1039.4 191.187C1039.4 186.086 1039.32 186.061 1032.75 189.247C1025.88 192.587 1025.8 193.211 1030.76 205.678C1033.61 212.852 1043.92 222.949 1052.66 227.136C1065.42 233.248 1088.44 231.77 1100.25 224.083C1112.87 215.876 1120.16 201.056 1119.21 185.574C1118.81 179.08 1117.97 173.285 1117.34 172.696C1114.52 170.04 1105.34 170.49 1099.89 173.553ZM226.212 184.269C227.485 200.781 222.573 212.365 209.835 222.894C193.762 236.178 174.918 238.789 155.712 230.389C149.671 227.748 142.245 222.814 139.208 219.428C134.213 213.852 132.3 210.274 127.424 197.379C126.51 194.964 125.473 194.295 124.894 195.748C124.353 197.1 125.809 202.238 128.127 207.161C131.877 215.121 132.004 216.727 129.269 221.628C123.209 232.489 135.301 244.475 158.782 250.885C179.733 256.604 203.295 251.992 218.913 239.118C224.336 234.645 226.62 231.042 226.62 226.956C226.62 218.108 222.952 217.801 213.456 225.857C200.911 236.499 200.842 234.844 213.358 223.467C225.888 212.078 232.366 195.801 229.877 181.967C227.587 169.242 225.173 170.76 226.212 184.269ZM1123.45 182.033C1127.17 216.6 1094.18 242.392 1058.24 233.021C1046.24 229.892 1031.71 216.52 1026.51 203.832C1023.67 196.892 1022.16 194.895 1022.08 197.993C1021.92 204.491 1027.51 214.272 1036.92 223.977L1044.85 232.157L1036.86 225.28C1028.03 217.668 1024.15 218.18 1024.15 226.956C1024.15 231.083 1026.47 234.674 1032.16 239.37C1044.33 249.4 1053.52 252.33 1073.32 252.486C1088.73 252.608 1092.49 251.866 1103.71 246.476C1118.81 239.231 1126.15 229.888 1122.21 222.958C1119.79 218.722 1119.65 218.753 1111.86 225.169C1099.77 235.136 1088.18 239.274 1073.18 238.979L1060.1 238.725L1075.73 237.371C1095.58 235.65 1109.49 228.106 1118.75 214.047C1125.93 203.149 1128.71 184.926 1124.58 175.894C1122.68 171.732 1122.47 172.876 1123.45 182.033ZM182.893 177.081C181.226 178.967 177.938 179.939 175.001 179.411C171.78 178.834 169.965 179.489 169.965 181.228C169.965 182.945 171.372 183.477 173.778 182.665C175.877 181.959 176.946 182.057 176.158 182.884C175.369 183.71 172.917 184.635 170.71 184.938C168.503 185.243 166.94 186.094 167.241 186.831C167.542 187.567 167.786 189.147 167.786 190.338C167.786 191.529 168.79 191.922 170.019 191.21C171.246 190.495 171.983 191.132 171.654 192.623C171.253 194.434 173.403 195.326 178.136 195.312C182.03 195.302 185.218 195.912 185.218 196.667C185.218 199.288 192.614 197.006 193.437 194.131C194.085 191.87 193.762 191.909 191.953 194.309C190.256 196.564 189.635 196.669 189.609 194.7C189.591 193.227 188.7 192.531 187.628 193.151C186.558 193.773 185.734 192.216 185.8 189.691C185.867 187.168 185.14 183.26 184.187 181.01L182.453 176.917L185.946 181.01C188.598 184.118 189.463 184.363 189.541 182.033C189.631 179.305 189.899 179.305 191.953 182.033C194.008 184.76 194.167 184.76 193.374 182.033C192.884 180.345 191.093 178.922 189.395 178.871C187.698 178.82 186.552 177.668 186.852 176.314C187.591 172.966 186.31 173.216 182.893 177.081ZM1085.7 176.772C1088.21 179.825 1087.64 182.45 1084.82 180.815C1083.25 179.903 1082.9 180.254 1083.89 181.75C1084.75 183.068 1086.31 183.653 1087.35 183.05C1088.39 182.448 1089.63 184.965 1090.12 188.644L1091 195.333L1091.35 188.91C1091.55 185.231 1090.07 180.842 1087.88 178.636C1085.79 176.518 1084.8 175.679 1085.7 176.772ZM214.635 179.986C213.894 181.112 214.328 182.033 215.596 182.033C216.864 182.033 217.904 181.112 217.904 179.986C217.904 178.861 217.472 177.94 216.943 177.94C216.413 177.94 215.376 178.861 214.635 179.986ZM1062.64 179.305C1061.84 180.054 1061.19 181.619 1061.19 182.784C1061.19 184.064 1062.21 183.944 1063.77 182.477C1065.19 181.145 1065.84 179.579 1065.22 178.998C1064.6 178.417 1063.44 178.554 1062.64 179.305ZM202.106 182.835C200.007 184.33 198.292 186.731 198.292 188.171C198.292 191.203 204.657 196.196 208.643 196.29C210.379 196.331 211.367 193.389 211.367 188.171C211.367 179.471 208.854 178.024 202.106 182.835ZM1064.08 187.035C1061.03 193.031 1060.87 194.809 1063.2 196.888C1065.51 198.95 1065.77 198.467 1064.61 194.309C1063.25 189.429 1063.32 189.388 1066 193.434C1068.07 196.542 1070.21 197.348 1074.06 196.456C1085.83 193.724 1085.44 181.701 1073.53 180.365C1068.8 179.833 1067.14 181.005 1064.08 187.035ZM1097.93 183.946C1093.13 187.645 1093.03 188.136 1096.41 191.371C1100.66 195.427 1111.4 197.158 1110.25 193.602C1109.84 192.304 1108.9 188.709 1108.18 185.613C1106.62 178.945 1104.81 178.65 1097.93 183.946ZM159.575 188.171C159.575 192.11 160.024 193.722 160.571 191.752C161.12 189.781 161.12 186.561 160.571 184.59C160.024 182.62 159.575 184.232 159.575 188.171ZM1017.78 185.272C1017.89 187.655 1018.4 188.14 1019.1 186.51C1019.73 185.032 1019.65 183.266 1018.93 182.587C1018.2 181.908 1017.69 183.115 1017.78 185.272ZM1071.68 183.43C1073.25 184.021 1075.13 183.948 1075.85 183.268C1076.58 182.589 1075.29 182.106 1072.99 182.194C1070.46 182.292 1069.94 182.777 1071.68 183.43ZM1113.99 190.217C1113.99 194.156 1114.44 195.768 1114.99 193.798C1115.54 191.827 1115.54 188.607 1114.99 186.636C1114.44 184.666 1113.99 186.278 1113.99 190.217ZM178.136 190.559C174.909 193.732 174.837 194.309 177.659 194.309C179.496 194.309 181.577 192.889 182.287 191.152C184.176 186.526 182.481 186.284 178.136 190.559ZM268.021 196.243C268.021 202.392 268.204 202.494 279.06 202.494C289.818 202.494 290.084 202.351 289.411 196.867C288.781 191.715 287.851 191.187 278.372 190.616C268.137 190 268.021 190.064 268.021 196.243ZM298.528 196.274V202.494H317.194H335.861L335.171 196.867C334.489 191.291 334.319 191.234 316.505 190.647L298.528 190.051V196.274ZM164.912 195.562C165.886 197.943 165.528 198.598 163.798 197.594C160.366 195.603 160.551 197.356 164.062 200.094C166.186 201.749 166.953 201.32 167.191 198.338C167.365 196.167 166.603 193.863 165.493 193.221C164.371 192.57 164.114 193.608 164.912 195.562ZM214.936 197.379C215.627 199.067 216.577 200.448 217.047 200.448C217.518 200.448 217.904 199.067 217.904 197.379C217.904 195.691 216.954 194.309 215.792 194.309C214.633 194.309 214.247 195.691 214.936 197.379ZM1033.86 196.493C1033.07 197.692 1032.89 199.114 1033.46 199.65C1034.04 200.186 1035.08 199.204 1035.79 197.467C1037.27 193.861 1036.01 193.227 1033.86 196.493ZM1084.88 199.936C1082.17 203.182 1082.25 203.253 1085.7 200.71C1089.33 198.035 1090.49 196.356 1088.69 196.356C1088.24 196.356 1086.53 197.966 1084.88 199.936ZM143.849 199.232C143.832 200.251 146.505 204.395 149.791 208.44C155.341 215.274 156.113 218.62 151.827 217.277C150.837 216.968 150.68 217.703 151.476 218.912C152.493 220.461 153.799 220.424 155.899 218.785C157.538 217.509 159.693 216.938 160.689 217.515C161.684 218.094 162.465 214.72 162.419 210.018C162.338 201.565 162.255 201.475 154.738 201.825C150.556 202.021 146.403 201.101 145.509 199.779C144.614 198.459 143.869 198.214 143.849 199.232ZM887.957 203.724C876.243 209.334 856.361 220.873 856.361 222.061C856.361 222.46 864.72 218.681 874.935 213.664C885.153 208.647 895.074 204.54 896.981 204.54C898.889 204.54 910.203 213.977 922.12 225.513C940.38 243.188 943.422 247.049 941.459 250.067C940.176 252.037 939.882 253.648 940.801 253.648C941.721 253.648 943.625 251.917 945.033 249.799C947.281 246.421 945.876 244.528 933.51 234.269C925.764 227.842 915.339 217.144 910.345 210.492C905.35 203.842 900.72 198.426 900.057 198.455C899.395 198.484 893.95 200.855 887.957 203.724ZM181.95 202.494C178.398 203.928 178.271 204.278 181.276 204.397C183.303 204.475 185.567 203.619 186.308 202.494C187.857 200.141 187.781 200.141 181.95 202.494ZM190.727 202.4C188.883 205.201 191.653 214.19 195.213 216.964C196.88 218.264 197.612 220.285 196.841 221.458C195.993 222.749 196.505 222.97 198.146 222.018C200.083 220.893 200.184 219.821 198.497 218.237C195.052 215.002 204.498 205.827 208.259 208.757C210.175 210.251 211.46 210.093 212.611 208.221C213.508 206.758 213.465 206.224 212.513 207.03C211.563 207.839 208.331 206.687 205.333 204.473C199.499 200.166 192.823 199.216 190.727 202.4ZM1043.79 204.54C1044.75 206.228 1048.05 209.819 1051.13 212.52C1056.8 217.505 1058.2 216.827 1059.17 208.632C1060.01 201.504 1058.92 200.546 1050.52 201.007C1043.73 201.379 1042.39 202.085 1043.79 204.54ZM1064.97 202.748C1066.45 204.147 1068.2 204.776 1068.87 204.145C1069.55 203.515 1068.34 202.371 1066.19 201.602C1063.08 200.493 1062.83 200.726 1064.97 202.748ZM1088.54 202.318C1087.87 203.347 1087.56 207.388 1087.87 211.299L1088.43 218.405L1094.59 214.288C1102.13 209.257 1104.24 204.73 1100.19 202.318C1096.21 199.955 1090.1 199.955 1088.54 202.318ZM368.166 211.894C362.823 217.063 352.875 225.36 346.061 230.328L333.671 239.362L312.286 234.246C287.406 228.296 283.419 228.044 277.699 232.075C273.868 234.774 274.186 234.856 281.096 232.937C287.633 231.122 294.865 232.302 331.743 241.211C372.081 250.953 388.465 254.21 369.95 248.802L361.835 246.435L375.683 225.998C383.299 214.759 389.097 204.872 388.57 204.029C385.949 199.836 377.104 203.245 368.166 211.894ZM688.303 203.517C688.153 204.08 687.893 205.232 687.726 206.075C687.558 206.918 686.555 208.991 685.499 210.679C683.943 213.167 684.13 213.267 686.49 211.211C689.242 208.813 691.404 202.494 689.473 202.494C688.979 202.494 688.453 202.954 688.303 203.517ZM271.874 206.024C275.79 206.478 281.673 206.47 284.948 206.003C288.223 205.535 285.018 205.162 277.827 205.174C270.636 205.185 267.958 205.567 271.874 206.024ZM307.854 206.046C313.583 206.47 322.408 206.464 327.466 206.036C332.523 205.606 327.836 205.26 317.05 205.267C306.264 205.273 302.126 205.625 307.854 206.046ZM1172.49 206.382C1167.19 207.057 1162.44 208.8 1161.93 210.257C1161.28 212.107 1162.54 212.565 1166.12 211.779C1196.47 205.109 1197.26 204.884 1189.75 205.019C1185.56 205.093 1177.79 205.706 1172.49 206.382ZM142.821 208.491C142.13 209.539 142.4 210.879 143.418 211.471C144.435 212.062 145.27 211.204 145.27 209.566C145.27 206.116 144.581 205.815 142.821 208.491ZM1069.49 210.167C1067.68 212.138 1065.6 215.358 1064.86 217.329C1063.7 220.394 1064.91 220.909 1073.24 220.909C1084.22 220.909 1085.66 218.239 1078.54 211.065C1073.2 205.684 1073.55 205.719 1069.49 210.167ZM1105.34 207.64C1107.53 209.909 1098.23 219.103 1095.4 217.462C1094.15 216.735 1093.87 217.206 1094.76 218.546C1096.81 221.666 1096.53 221.779 1103.45 214.996C1108.07 210.47 1108.8 208.712 1106.58 207.505C1104.99 206.64 1104.43 206.701 1105.34 207.64ZM170.49 212.696C166.101 219.293 167.285 220.909 176.502 220.909C185.543 220.909 186.789 219.305 182.963 212.59C180.045 207.472 173.928 207.526 170.49 212.696ZM271.874 210.116C275.79 210.57 281.673 210.562 284.948 210.095C288.223 209.627 285.018 209.255 277.827 209.267C270.636 209.277 267.958 209.66 271.874 210.116ZM307.854 210.138C313.583 210.562 322.408 210.556 327.466 210.128C332.523 209.699 327.836 209.353 317.05 209.359C306.264 209.365 302.126 209.717 307.854 210.138ZM1042.67 214.771C1044.84 217.022 1047.1 218.863 1047.7 218.863C1048.3 218.863 1047.02 217.022 1044.85 214.771C1042.68 212.52 1040.41 210.679 1039.81 210.679C1039.21 210.679 1040.5 212.52 1042.67 214.771ZM204.55 216.306C201.842 219.551 201.918 219.622 205.374 217.079C209.004 214.405 210.157 212.725 208.364 212.725C207.913 212.725 206.196 214.335 204.55 216.306ZM269.695 214.208C273.611 214.662 279.494 214.654 282.769 214.188C286.044 213.719 282.839 213.347 275.648 213.359C268.457 213.369 265.779 213.752 269.695 214.208ZM306.699 214.223C311.794 214.654 320.127 214.654 325.221 214.223C330.316 213.793 326.147 213.439 315.96 213.439C305.773 213.439 301.605 213.793 306.699 214.223ZM694.84 213.748C694.69 214.311 694.43 215.463 694.263 216.306C694.095 217.149 693.093 219.221 692.036 220.909C690.48 223.397 690.667 223.498 693.027 221.441C695.779 219.043 697.941 212.725 696.01 212.725C695.516 212.725 694.991 213.185 694.84 213.748ZM132.921 218.227C132.921 221.558 145.612 231.142 155.801 235.505C161.48 237.935 169.074 239.147 177.591 238.979L190.666 238.725L175.253 237.385C158.706 235.947 142.659 228.961 136.29 220.422C134.438 217.938 132.921 216.95 132.921 218.227ZM951.149 219.935C977.524 223.524 989.901 223.676 988.742 220.398C988.086 218.548 980.045 217.76 959.687 217.554L931.538 217.265L951.149 219.935ZM282.845 220.39C295.194 220.756 314.805 220.754 326.426 220.388C338.047 220.019 327.945 219.721 303.976 219.723C280.006 219.725 270.497 220.025 282.845 220.39ZM169.383 225.255C170.863 226.655 172.621 227.283 173.29 226.653C173.961 226.023 172.752 224.879 170.603 224.11C167.498 223.001 167.248 223.234 169.383 225.255ZM181.95 225.002C181.209 226.127 182.189 227.048 184.129 227.048C186.068 227.048 187.048 226.127 186.308 225.002C185.567 223.876 184.586 222.956 184.129 222.956C183.671 222.956 182.69 223.876 181.95 225.002ZM1064.46 225.002C1063.72 226.127 1064.7 227.048 1066.64 227.048C1068.58 227.048 1069.56 226.127 1068.82 225.002C1068.08 223.876 1067.1 222.956 1066.64 222.956C1066.18 222.956 1065.2 223.876 1064.46 225.002ZM1076.44 225.002C1071.32 226.542 1071.43 226.653 1078.21 226.843C1082.5 226.966 1084.87 226.221 1084.07 225.002C1083.33 223.876 1082.54 223.048 1082.31 223.16C1082.08 223.273 1079.44 224.101 1076.44 225.002ZM1047.53 233.44C1049.01 234.84 1050.77 235.468 1051.44 234.837C1052.11 234.207 1050.9 233.063 1048.75 232.294C1045.65 231.185 1045.4 231.418 1047.53 233.44ZM1303.15 233.54C1299 234.657 1285.76 236.358 1273.73 237.315C1252.86 238.977 1253.19 239.012 1280.73 238.034C1307.56 237.082 1309.6 237.272 1309.63 240.724C1309.65 242.768 1310.62 245.821 1311.78 247.509C1313.31 249.729 1313.9 247.888 1313.93 240.859C1313.94 235.515 1313.22 231.224 1312.32 231.324C1311.42 231.427 1307.3 232.423 1303.15 233.54ZM130.86 244.69C141.783 255.471 153.064 259.737 169.965 259.481L184.129 259.266L170.749 257.63C156.37 255.868 138.754 248.571 132.039 241.592C129.755 239.22 126.866 237.279 125.619 237.279C124.371 237.279 126.728 240.614 130.86 244.69ZM1024.4 241.524C1026.31 244.254 1032 249.234 1037.04 252.592C1045.09 257.953 1048.26 258.747 1062.96 259.111C1078.41 259.494 1078.85 259.397 1068.6 257.871C1051.52 255.328 1042.31 251.888 1031.16 243.894C1022.63 237.784 1021.51 237.389 1024.4 241.524ZM341.019 241.371C343.416 242.339 346.848 243.128 348.646 243.128C350.705 243.128 350.304 242.48 347.556 241.371C345.159 240.403 341.727 239.613 339.93 239.613C337.87 239.613 338.271 240.262 341.019 241.371ZM582.737 243.264C545.91 248.807 563.466 258.546 610.13 258.46C638.813 258.407 655.89 255.473 655.89 250.595C655.89 249.005 652.214 246.703 647.719 245.484C636.897 242.545 596.646 241.17 582.737 243.264ZM354.775 244.815C356.347 245.406 358.227 245.332 358.95 244.653C359.674 243.974 358.388 243.491 356.092 243.579C353.553 243.677 353.037 244.162 354.775 244.815ZM380.924 252.999C382.495 253.59 384.375 253.517 385.099 252.837C385.822 252.158 384.537 251.675 382.24 251.763C379.701 251.861 379.185 252.346 380.924 252.999ZM389.64 255.045C391.211 255.637 393.092 255.563 393.815 254.884C394.538 254.204 393.253 253.721 390.956 253.809C388.418 253.908 387.901 254.393 389.64 255.045Z" fill="black" stroke="black" stroke-width="2" mask="url(#path-9-inside-1_4002_2)"/>
</svg>
