<svg width="1214" height="259" viewBox="0 0 1214 259" fill="none" xmlns="http://www.w3.org/2000/svg">
<path d="M163 111.5L214.5 145L223.5 213L186.5 244L144 239L122.5 227L87 201V155L113 111.5H163Z" fill="#8F8F8F"/>
<path d="M233 185H243H290L298.5 216.5H269.5L264 213L261.5 219.5L233 225V185Z" fill="#8F8F8F"/>
<path d="M927 128.5H983L1039.5 139L1045 166.5L1039.5 221L1013 238H991H966L940.5 221L913.5 188.5L927 128.5Z" fill="#8F8F8F"/>
<path d="M163 111.5L214.5 145L223.5 213L186.5 244L144 239L122.5 227L87 201V155L113 111.5H163Z" stroke="#F8F8F8"/>
<path d="M233 185H243H290L298.5 216.5H269.5L264 213L261.5 219.5L233 225V185Z" stroke="#F8F8F8"/>
<path d="M927 128.5H983L1039.5 139L1045 166.5L1039.5 221L1013 238H991H966L940.5 221L913.5 188.5L927 128.5Z" stroke="#F8F8F8"/>
<path d="M179 116.5L221.5 136.5L218.5 112.5L202 101L179 93L152 87L139 111L179 116.5Z" fill="#FFF7F7"/>
<path d="M148 251.5H171V243L143.5 238.5L130 234L113.5 218.5V234L148 251.5Z" fill="#FFF7F7"/>
<path d="M578 100L575 94L580.5 100L594 104L597 102V94L594 74.5L588.5 58L580.5 45L566 33L551 31L543 34.5L518.5 52L514.5 64.5V77.5V94L534.5 100L575 105.5L578 100Z" fill="#FFF7F7"/>
<path d="M696.5 100L717.5 89.5L716 82.5L692 81L682 74.5L673 67.5L660.5 63.5H651.5L648.5 78L650 85L662.5 81L677 78L680.5 89.5L682 110H685.5L696.5 100Z" fill="#FFF7F7"/>
<path d="M960 235.5L1000.5 245.5L1001 246.5L998 253L954.5 245.5L935.5 235.5V217L960 235.5Z" fill="#FFF7F7"/>
<path d="M1038.5 132.5L1047.5 126.5L1046 118L1029.5 101.5L1006 91.5H987.5L976.5 97L982 111L1038.5 132.5Z" fill="#FFF7F7"/>
<path d="M1210.5 235.5L1129 237.5H1123L1115.5 224.5L1117.5 218.5H1164.5H1181.5L1198 222.5L1206 226.5L1210.5 230.5V235.5Z" fill="#FFF7F7"/>
<path d="M179 116.5L221.5 136.5L218.5 112.5L202 101L179 93L152 87L139 111L179 116.5Z" stroke="white"/>
<path d="M148 251.5H171V243L143.5 238.5L130 234L113.5 218.5V234L148 251.5Z" stroke="white"/>
<path d="M578 100L575 94L580.5 100L594 104L597 102V94L594 74.5L588.5 58L580.5 45L566 33L551 31L543 34.5L518.5 52L514.5 64.5V77.5V94L534.5 100L575 105.5L578 100Z" stroke="white"/>
<path d="M696.5 100L717.5 89.5L716 82.5L692 81L682 74.5L673 67.5L660.5 63.5H651.5L648.5 78L650 85L662.5 81L677 78L680.5 89.5L682 110H685.5L696.5 100Z" stroke="white"/>
<path d="M960 235.5L1000.5 245.5L1001 246.5L998 253L954.5 245.5L935.5 235.5V217L960 235.5Z" stroke="white"/>
<path d="M1038.5 132.5L1047.5 126.5L1046 118L1029.5 101.5L1006 91.5H987.5L976.5 97L982 111L1038.5 132.5Z" stroke="white"/>
<path d="M1210.5 235.5L1129 237.5H1123L1115.5 224.5L1117.5 218.5H1164.5H1181.5L1198 222.5L1206 226.5L1210.5 230.5V235.5Z" stroke="white"/>
<path d="M354 210H520.5L537.5 206.5L531 186.5L510 142.5L419.5 140L315 147L239 155L226 176.5L354 210Z" fill="#E6930D"/>
<path d="M561 177L562.5 166L640 151L852.5 142.5L883.5 171.5L920 207L898.5 231.5L817.5 221L790 218H759L735.5 224L684 238.5L573.5 229.5L568 202L561 177Z" fill="#E6930D"/>
<path d="M1189.5 188.5L1062 169L1048.5 212L1082.5 216L1142 212L1189.5 188.5Z" fill="#E6930D"/>
<path d="M354 210H520.5L537.5 206.5L531 186.5L510 142.5L419.5 140L315 147L239 155L226 176.5L354 210Z" stroke="white"/>
<path d="M561 177L562.5 166L640 151L852.5 142.5L883.5 171.5L920 207L898.5 231.5L817.5 221L790 218H759L735.5 224L684 238.5L573.5 229.5L568 202L561 177Z" stroke="white"/>
<path d="M1189.5 188.5L1062 169L1048.5 212L1082.5 216L1142 212L1189.5 188.5Z" stroke="white"/>
<path d="M132 86.5L181 91.5L182.5 48L178.5 28.5L165.5 15L134.5 10H81.5L72.5 13L103.5 25L132 86.5Z" fill="#FFD93F"/>
<path d="M227.5 133.5L222 108.5L227.5 96.5L314.5 106L326 110.5V113L283.5 124L227.5 133.5Z" fill="#FFD93F"/>
<path d="M374.5 141.5L238 155L235.5 145.5L303 125L348.5 115L400.5 104L483.5 89.5L486.5 84L495 85.5L526.5 98.5L551.5 104.5L581 109.5L610.5 109L634.5 107.5L665.5 98H680V107.5H675.5L687 116L694 98H708L725 89L867.5 107.5L931.5 111.5L918.5 143H725L601 147.5L556.5 153L572.5 227L576 241.5H566.5L530 185L515 138L374.5 141.5Z" fill="#FFD93F"/>
<path d="M466 242.5L454.5 232L326 216.5H271.5L262.5 221L227.5 233.5L291.5 232L384 248L466 242.5Z" fill="#FFD93F"/>
<path d="M478.5 10L475 4L474 18.5L480.5 22.5L478.5 10Z" fill="#FFD93F"/>
<path d="M1071.5 170L1060 145H1085.5L1158 168.5L1189 180.5L1184 186.5L1071.5 170Z" fill="#FFD93F"/>
<path d="M132 86.5L181 91.5L182.5 48L178.5 28.5L165.5 15L134.5 10H81.5L72.5 13L103.5 25L132 86.5Z" stroke="#FFD93F"/>
<path d="M227.5 133.5L222 108.5L227.5 96.5L314.5 106L326 110.5V113L283.5 124L227.5 133.5Z" stroke="#FFD93F"/>
<path d="M374.5 141.5L238 155L235.5 145.5L303 125L348.5 115L400.5 104L483.5 89.5L486.5 84L495 85.5L526.5 98.5L551.5 104.5L581 109.5L610.5 109L634.5 107.5L665.5 98H680V107.5H675.5L687 116L694 98H708L725 89L867.5 107.5L931.5 111.5L918.5 143H725L601 147.5L556.5 153L572.5 227L576 241.5H566.5L530 185L515 138L374.5 141.5Z" stroke="#FFD93F"/>
<path d="M466 242.5L454.5 232L326 216.5H271.5L262.5 221L227.5 233.5L291.5 232L384 248L466 242.5Z" stroke="#FFD93F"/>
<path d="M478.5 10L475 4L474 18.5L480.5 22.5L478.5 10Z" stroke="#FFD93F"/>
<path d="M1071.5 170L1060 145H1085.5L1158 168.5L1189 180.5L1184 186.5L1071.5 170Z" stroke="#FFD93F"/>
<mask id="path-5-inside-1_4002_5" fill="white">
<path fill-rule="evenodd" clip-rule="evenodd" d="M469.57 6.28907C468.277 10.0202 466.184 29.4293 464.92 49.4213L462.624 85.7667L447.478 87.1957C410.757 90.6632 323.03 106.01 320.758 109.366C320.098 110.34 300.681 108.732 277.611 105.792C232.828 100.084 224.184 98.5641 228.094 97.0856C229.45 96.5729 249.563 98.6114 272.788 101.616C296.014 104.62 316.01 106.739 317.224 106.323C319.702 105.474 236.669 94.3161 228.303 94.3738C224.811 94.3964 221.545 96.3752 218.902 100.071C214.865 105.717 214.837 105.724 209.203 101.978C206.095 99.9128 199.263 96.2538 194.02 93.8487L184.487 89.4731L184.475 64.6587C184.469 51.0089 183.576 36.558 182.488 32.5448C180.247 24.2651 170.182 13.3621 161.78 10.1108C158.209 8.73118 131.988 7.93844 90.5365 7.95903C26.3635 7.99404 24.772 8.09285 17.1039 12.592C1.11332 21.9754 0.936714 22.6591 0.260406 77.627C-0.329607 125.666 -0.265388 126.558 4.2741 133.402C13.7926 147.756 17.0055 148.903 49.665 149.63L79.1275 150.285V173.31C79.1275 194.933 79.5189 197.181 85.5354 210.215C93.8297 228.179 108.297 243.023 125.805 251.533C138.488 257.698 140.722 258.108 161.593 258.108C183.343 258.108 184.194 257.931 198.72 250.378C215.17 241.823 231.742 239.638 233.007 245.856C233.583 248.694 248.267 249.091 365.605 249.46C438.179 249.686 497.555 249.223 497.555 248.43C497.555 247.638 495.976 245.955 494.043 244.691C491.248 242.863 492.167 242.63 498.559 243.542C502.974 244.174 553.771 245.313 611.444 246.073C669.117 246.835 716.302 248 716.302 248.665C716.302 249.328 754.456 249.684 801.091 249.454C883.015 249.048 885.86 248.904 885.304 245.138C884.779 241.569 886.691 241.127 908 239.879L931.269 238.514L940.485 245.02C972.265 267.455 1021.29 262.294 1047.11 233.798C1053.86 226.359 1072.05 224.316 1084.55 229.594C1089.52 231.686 1093.58 233.949 1093.58 234.62C1093.58 235.291 1084.78 237.468 1074.02 239.455C1048.38 244.189 1047.43 244.493 1047.43 247.951C1047.43 250.465 1059.76 250.901 1130.72 250.901H1214V242.094C1214 237.249 1212.53 231.128 1210.73 228.492C1206.68 222.566 1196.33 217.955 1187.08 217.955C1180.28 217.955 1180.15 217.797 1182.07 212.13C1183.68 207.409 1186.23 205.607 1195.51 202.642C1208.71 198.425 1214.24 194.218 1212.54 189.676C1209.94 182.732 1146.76 156.932 1091.12 140.092C1069.99 133.697 1059.11 129.424 1058.44 127.262C1056.35 120.487 1036.67 102.538 1024.74 96.5091C1000.18 84.1029 974.194 84.1441 949.475 96.6305L936.796 103.034L902.306 97.6993C836.048 87.4511 762.808 80.4933 712.653 79.6841C693.279 79.369 689.761 78.7781 686.715 75.3208C678.852 66.4007 652.428 57.9522 649.191 63.3244C648.28 64.8399 650.961 65.5812 657.351 65.5812C669.462 65.5812 682.276 71.88 689.251 81.2634C696.59 91.1368 693.757 92.8171 685.452 83.5161C677.22 74.2933 670.357 71.4517 657.754 72.0406C649.225 72.4401 648.069 73.0393 648.069 77.0566C648.069 81.2078 648.703 81.4734 655.079 79.9991C658.934 79.1055 661.633 79.1322 661.075 80.0568C660.519 80.9813 657.3 82.3609 653.923 83.1208C650.545 83.8826 648.278 85.0131 648.884 85.637C649.49 86.2588 654.097 85.1551 659.125 83.1866C667.656 79.8426 668.599 79.8323 673.341 83.0198C680.369 87.7434 678.689 90.5727 665.675 95.9264C645.163 104.369 631.322 107.157 604.42 108.265C580.739 109.241 577.829 108.991 577.829 106.002C577.829 102.207 577.767 102.215 589.33 104.511L597.819 106.195L599.17 98.8091C600.848 89.6337 597.031 69.9671 590.902 56.1978C579.481 30.5454 553.065 21.5347 529.137 35.1269C517.078 41.9797 512.607 51.0521 512.607 68.6699V83.0836H499.109H485.611L484.641 74.8472C484.109 70.3172 483.122 55.1415 482.45 41.123C480.75 5.6672 475.091 -9.63816 469.57 6.28907ZM475.821 8.95562C475.789 11.2206 476.538 14.927 477.487 17.192C479.684 22.4387 479.684 17.0253 477.487 9.98517C476.194 5.84636 475.869 5.64456 475.821 8.95562ZM101.203 15.238C126.001 19.2615 144.868 25.4367 152.504 32.0321C158.914 37.5649 158.918 37.5814 157.672 52.7117C155.847 74.8616 162.785 88.2315 176.1 88.2315H180.867L180.168 60.5817C179.378 29.275 177.754 25.1114 163.301 17.3341C156.247 13.5371 151.462 13.0326 119.264 12.6908L83.1412 12.3058L101.203 15.238ZM558.764 35.7282C568.393 39.2204 577.829 49.3431 577.829 56.1793C577.829 58.8994 578.377 62.5914 579.047 64.3828C579.846 66.5202 579.158 67.6403 577.04 67.6403C572.991 67.6403 572.892 70.4696 576.826 73.8177C582.192 78.3868 580.013 80.1927 573.314 76.7251C566.183 73.0331 555.754 63.7404 555.754 61.0779C555.754 60.1575 557.108 59.4039 558.764 59.4039C560.42 59.4039 561.774 58.014 561.774 56.3152C561.774 51.9499 555.784 52.4502 555.613 56.83C555.493 59.9104 555.222 59.8363 553.747 56.3152C552.788 54.0234 551.959 53.4592 551.881 55.0427C551.57 61.325 560.253 71.5135 570.697 77.1246C580.233 82.2477 581.855 84.0473 583.697 91.5507C585.74 99.8757 590.149 103.984 594.251 101.383C596.79 99.7728 595.293 84.7351 591.004 68.7873C585.672 48.9642 569.398 32.4583 555.451 32.726C551.959 32.7919 552.818 33.5723 558.764 35.7282ZM514.949 64.5517C514.152 68.0521 514.664 74.6742 516.129 79.8385C518.117 86.8457 520.008 89.3907 524.315 90.863C532.553 93.6799 532.854 91.5569 525.541 82.2229C521.948 77.6352 518.412 70.3934 517.682 66.129L516.355 58.3743L514.949 64.5517ZM489.923 86.1723C490.431 87.8711 494.461 92.0984 498.88 95.566L506.913 101.873L471.631 104.404C389.976 110.264 310.955 123.941 260.266 140.986C245.64 145.905 240.875 148.833 243.354 151.378C243.944 151.982 261.418 150.555 282.186 148.207C385.896 136.481 476.618 131.522 588.094 131.493C656.443 131.473 659.791 131.294 664.655 127.367C670.523 122.631 675.446 110.867 671.545 110.906C670.222 110.919 664.174 112.379 658.103 114.149C642.805 118.612 581.688 120.471 559.543 117.15C539.773 114.185 511.017 105.283 512.619 102.627C513.237 101.601 510.776 99.2271 507.154 97.3492C503.53 95.4733 497.963 91.4972 494.782 88.5115C491.483 85.4146 489.395 84.4097 489.923 86.1723ZM704.73 90.3503C701.126 93.7149 699.406 96.4679 700.907 96.4679C703.534 96.4679 708.11 92.0758 711.098 86.6871C713.213 82.8716 711.989 83.5758 704.73 90.3503ZM682.94 97.7116C682.681 107.105 683.279 107.945 688.025 104.863C690.391 103.325 690.431 101.98 688.264 96.6141C684.491 87.2678 683.219 87.5293 682.94 97.7116ZM162.879 97.483C156.722 102.065 158.934 104.686 169.052 104.795C179.695 104.908 190.498 108.843 200.751 116.338C218.104 129.022 216.597 128.403 216.597 122.849C216.597 116.734 206.651 105.886 195.876 100.244C184.854 94.4747 168.733 93.126 162.879 97.483ZM533.177 95.7719C534.558 96.3443 536.815 96.3443 538.194 95.7719C539.575 95.2015 538.445 94.7341 535.685 94.7341C532.926 94.7341 531.798 95.2015 533.177 95.7719ZM989.566 96.5956C981.996 99.7089 985.707 103.566 997.774 105.124C1012.25 106.996 1020.27 110.556 1031.18 119.948C1040.61 128.063 1044.92 127.55 1041.64 118.704C1035.8 102.942 1005.46 90.0599 989.566 96.5956ZM549.733 98.632C561.845 100.843 571.337 100.652 560.771 98.4096C556.356 97.4727 550.034 96.7685 546.723 96.8447C542.208 96.9477 542.962 97.3965 549.733 98.632ZM669.141 100.063C665.829 100.411 655.896 102.754 647.065 105.273C633.505 109.14 626.022 109.844 598.901 109.807C571.779 109.77 564.373 109.051 551.216 105.174C535.734 100.613 515.011 98.8523 518.728 102.413C521.413 104.986 544.365 110.55 561.967 112.893C581.213 115.457 621.141 115.467 639.038 112.914C657.798 110.237 680.178 104.651 680.178 102.643C680.178 100.306 676.042 99.3404 669.141 100.063ZM571.433 101.992C572.88 102.588 574.612 102.513 575.278 101.83C575.945 101.146 574.761 100.66 572.645 100.749C570.307 100.848 569.832 101.336 571.433 101.992ZM695.366 107.278C692.045 114.866 687.664 120.275 679.697 126.624L674.198 131.003L708.796 132.348C751.542 134.012 816.975 137.465 843.736 139.472C859.424 140.648 865.473 140.311 871.441 137.926C877.546 135.488 882.274 135.266 895.021 136.814C903.85 137.887 910.966 137.959 910.966 136.975C910.966 135.997 912.87 132.453 915.198 129.099C917.526 125.744 918.977 122.532 918.421 121.962C914.452 117.889 746.475 100.596 710.809 100.588C698.627 100.586 698.216 100.763 695.366 107.278ZM229.952 110.53C225.808 115.228 225.583 118.455 229.641 115C233.209 111.961 233.725 115.134 230.243 118.706C228.569 120.424 228.519 121.177 230.077 121.177C231.309 121.177 232.772 120.02 233.33 118.603C234.046 116.781 234.387 116.896 234.5 118.997C234.618 121.196 235.479 120.93 237.833 117.967C239.98 115.261 240.701 115 240.061 117.152C239.453 119.19 240.476 120.44 242.906 120.627C244.991 120.79 246.713 119.82 246.729 118.476C246.749 116.935 247.307 116.793 248.235 118.089C250.213 120.85 260.747 121.533 260.747 118.9C260.747 117.753 259.844 117.388 258.74 118.089C257.637 118.789 256.72 118.148 256.703 116.666C256.681 114.708 256.14 114.815 254.727 117.059C253.314 119.303 252.772 119.41 252.75 117.452C252.734 115.97 251.817 115.329 250.713 116.029C249.609 116.73 248.706 116.143 248.706 114.728C248.706 113.268 247.331 113.884 245.531 116.151C242.698 119.721 242.481 119.752 243.502 116.437C244.171 114.269 243.821 113.25 242.664 113.985C241.572 114.677 240.679 114.37 240.679 113.303C240.679 112.237 243.388 111.477 246.699 111.615C250.011 111.755 252.72 112.519 252.72 113.316C252.72 114.112 254.526 114.407 256.734 113.97C258.941 113.534 260.747 114.106 260.747 115.239C260.747 116.373 261.64 116.736 262.732 116.044C263.89 115.309 264.239 116.328 263.571 118.496C262.497 121.978 262.614 121.972 265.465 118.399C267.96 115.274 270.057 114.854 277.169 116.06C294.92 119.071 283.015 115.29 261.566 111.106C234.534 105.833 234.1 105.824 229.952 110.53ZM235.997 112.255C235.26 113.009 234.658 114.584 234.658 115.756C234.658 117.045 235.593 116.923 237.032 115.447C238.339 114.106 238.941 112.531 238.371 111.946C237.801 111.359 236.731 111.499 235.997 112.255ZM152.002 122.584C153.449 123.179 155.181 123.105 155.847 122.421C156.514 121.737 155.33 121.251 153.214 121.34C150.876 121.439 150.401 121.927 152.002 122.584ZM178.633 130.165C179.095 130.577 181.728 132.018 184.487 133.367C189.217 135.677 189.281 135.636 185.609 132.616C182.412 129.988 175.88 127.692 178.633 130.165ZM195.525 135.591C197.521 137.856 199.609 139.709 200.161 139.709C200.712 139.709 199.528 137.856 197.532 135.591C195.535 133.326 193.448 131.473 192.896 131.473C192.344 131.473 193.528 133.326 195.525 135.591ZM947.902 140.224L944.079 144.857L948.594 140.934C952.837 137.249 954.023 135.591 952.417 135.591C952.036 135.591 950.005 137.675 947.902 140.224ZM1001.27 136.476C1001.27 137.043 1003.08 138.496 1005.29 139.709C1007.5 140.922 1009.3 141.449 1009.3 140.883C1009.3 140.317 1007.5 138.863 1005.29 137.65C1003.08 136.437 1001.27 135.91 1001.27 136.476ZM1023.35 138.428C1023.35 138.855 1024.93 140.477 1026.86 142.032C1030.04 144.591 1030.11 144.519 1027.62 141.254C1025 137.823 1023.35 136.734 1023.35 138.428ZM517.624 140.671C517.624 142.302 536.974 190.03 540.183 196.314C543.207 202.238 543.209 202.238 544.684 197.471C545.828 193.771 546.552 193.339 547.915 195.548C549.372 197.908 549.671 197.867 549.671 195.305C549.671 193.606 548.796 190.827 547.727 189.128C545.997 186.383 545.77 186.383 545.68 189.128C545.617 190.998 544.445 190.184 542.709 187.069C540.881 183.789 539.755 183.041 539.603 185.01C539.472 186.708 537.239 183.465 534.638 177.803C529.43 166.461 528.15 160.416 532.675 168.537C534.439 171.704 535.597 172.496 535.685 170.596C535.774 168.695 536.932 169.488 538.696 172.655C540.432 175.77 541.604 176.584 541.666 174.714C541.756 171.969 541.983 171.969 543.713 174.714C545.443 177.459 545.657 177.459 545.657 174.714C545.657 173.015 544.782 170.236 543.713 168.537C541.983 165.792 541.756 165.792 541.666 168.537C541.604 170.406 540.432 169.593 538.696 166.478C536.932 163.311 535.774 162.518 535.685 164.419C535.597 166.319 534.439 165.526 532.675 162.359C530.939 159.244 529.767 158.431 529.705 160.3C529.615 163.045 529.388 163.045 527.658 160.3C526.588 158.602 525.713 156.285 525.713 155.153C525.713 154.02 526.588 154.483 527.658 156.182C529.388 158.927 529.603 158.927 529.603 156.182C529.603 154.483 528.728 151.704 527.658 150.005C525.928 147.26 525.691 147.26 525.519 150.005C525.41 151.704 524.04 150.081 522.472 146.401C519.976 140.545 517.624 137.765 517.624 140.671ZM523.803 145.028C523.899 147.427 524.375 147.915 525.015 146.274C525.595 144.787 525.523 143.01 524.856 142.326C524.19 141.643 523.717 142.858 523.803 145.028ZM372.127 146C329.53 147.565 258.658 153.032 249.11 155.49C245.507 156.419 244.61 157.891 245.084 162.096C245.634 166.964 247.612 168.166 264.761 174.063C290.406 182.885 336.871 194.342 365.103 198.806C382.338 201.532 400.378 202.463 436.346 202.483C482.171 202.51 494.997 201.406 521.94 195.114L531.274 192.933L520.937 170.573L510.6 148.211L500.566 147.128C480.716 144.985 415.423 144.41 372.127 146ZM527.807 145.565C527.889 146.309 529.711 150.623 531.858 155.153C535.477 162.794 535.954 160.626 532.763 151.034C531.844 148.269 532.406 148.607 534.471 152.064C536.392 155.274 537.588 156.048 537.652 154.123C537.742 151.378 537.985 151.378 539.838 154.123C541.551 156.662 541.792 156.479 541.192 153.093C540.793 150.828 539.388 149.208 538.076 149.49C536.761 149.772 535.685 149.185 535.685 148.187C535.685 147.186 533.879 145.882 531.672 145.289C529.464 144.699 527.724 144.822 527.807 145.565ZM754.432 149.348C715.702 150.849 662.625 154.5 638.035 157.354C613.479 160.204 564.56 169.111 562.639 171.082C562.21 171.52 564.55 182.811 567.837 196.168C571.126 209.525 573.815 222.105 573.815 224.123C573.815 227.489 577.502 227.911 618.468 229.239C672.267 230.984 707.235 228.566 737.374 221.017C757.526 215.968 761.895 215.577 787.545 216.52C802.998 217.089 822.414 219.094 830.692 220.976C842.723 223.711 851.064 224.116 872.248 222.992L898.752 221.586L893.723 211.405C890.958 205.805 886.035 194.134 882.784 185.471C878.314 173.563 874.315 167.062 866.394 158.832L855.914 147.946L812.699 148.355C788.93 148.58 762.71 149.027 754.432 149.348ZM862.802 148.778C862.802 150.913 878.284 160.029 890.713 165.211C899.679 168.949 902.939 169.581 902.939 167.585C902.939 166.091 900.552 164.25 897.634 163.498C893.478 162.429 875.244 154.166 864.307 148.397C863.478 147.96 862.802 148.131 862.802 148.778ZM1069.83 156.637C1070.88 161.418 1071.91 165.434 1072.13 165.557C1073.21 166.185 1125.92 175.344 1148.78 178.876C1194.82 185.99 1196.46 184.069 1155.98 170.46C1132.33 162.51 1077.31 147.946 1070.91 147.946C1068.44 147.946 1068.25 149.439 1069.83 156.637ZM543.067 154.374C542.406 156.969 542.28 159.518 542.79 160.039C543.297 160.56 543.727 159.674 543.743 158.07C543.769 155.667 544.118 155.698 545.72 158.241C547.45 160.986 547.672 160.986 547.727 158.241C547.781 155.496 548.003 155.496 549.733 158.241C550.803 159.94 551.678 162.257 551.678 163.389C551.678 164.522 550.803 164.058 549.733 162.359C548.003 159.615 547.789 159.615 547.789 162.359C547.789 164.058 548.664 166.838 549.733 168.537C551.463 171.282 551.692 171.282 551.79 168.537C551.85 166.838 553.287 168.073 554.981 171.282C556.677 174.49 557.564 178.447 556.954 180.076C556.346 181.707 557.61 187.633 559.768 193.246C561.925 198.859 563.221 204.701 562.651 206.225C562.081 207.748 563.458 213.405 565.708 218.794C570.207 229.565 570.897 233.012 567.602 228.251C565.963 225.883 565.72 226.602 566.561 231.34C567.534 236.807 567.223 236.57 563.863 229.281C561.774 224.751 559.962 222.434 559.836 224.133C559.705 225.904 558.283 224.714 556.5 221.341C553.219 215.124 550.781 194.554 553.932 199.658C555.397 202.032 555.704 201.993 555.754 199.423C555.808 196.679 556.031 196.679 557.761 199.423C559.972 202.934 560.452 199.528 558.485 194.272C557.452 191.51 556.84 191.376 555.342 193.588C554.07 195.47 553.879 194.889 554.74 191.743C555.433 189.218 554.983 185.512 553.743 183.507C551.861 180.465 551.66 180.885 552.535 186.039L553.582 192.217L550.745 186.039C549.183 182.642 547.867 181.081 547.817 182.572C547.767 184.06 548.68 187.108 549.844 189.342C552.246 193.946 550.281 203.665 547.785 199.522C546.749 197.803 545.932 198.363 545.182 201.312C544.58 203.673 544.841 205.129 545.762 204.544C546.683 203.96 548.072 205.58 548.846 208.144C551.65 217.414 558.222 230.261 559.689 229.33C560.512 228.807 562.204 230.668 563.444 233.463C566.998 241.464 571.211 239.912 570.601 230.825C569.615 216.146 568.18 208.475 564.921 200.47C563.121 196.051 562.118 191.179 562.692 189.645C563.314 187.983 562.846 187.419 561.536 188.249C560.121 189.146 559.737 188.267 560.46 185.782C561.768 181.285 551.463 152.76 548.9 153.783C547.949 154.164 546.518 153.39 545.722 152.066C544.788 150.518 543.839 151.343 543.067 154.374ZM160.03 153.47C161.477 154.065 163.208 153.991 163.875 153.308C164.541 152.624 163.357 152.138 161.242 152.227C158.904 152.325 158.428 152.813 160.03 153.47ZM1032.74 155.47C1032.02 156.211 1031.98 160.337 1032.65 164.641C1034.44 176.16 1031.83 189.921 1026.26 198.355C1020.52 207.026 1020.01 209.295 1024.68 205.337C1031.69 199.399 1035.69 185.648 1035.1 169.476C1034.79 161.031 1034.43 154.123 1034.3 154.123C1034.16 154.123 1033.46 154.728 1032.74 155.47ZM169.319 158.05C169.939 159.075 168.571 159.413 166.281 158.799C161.28 157.457 146.054 162.25 147.531 164.703C148.103 165.652 147.214 165.895 145.554 165.242C140.539 163.268 138.111 166.165 140.878 170.816C142.971 174.335 142.737 175.404 139.333 177.858C137.125 179.45 134.191 181.746 132.811 182.961C130.88 184.664 130.302 183.692 130.302 178.742C130.302 174.331 129.515 172.688 127.794 173.512C126.415 174.173 123.637 175.301 121.625 176.022C116.959 177.694 118.345 184.518 125.955 197.333C132.873 208.984 152.247 220.315 158.45 216.341C160.852 214.801 162.669 214.659 163.445 215.946C167.09 221.998 190.63 208.671 197.271 196.794C204.708 183.492 205.463 179.176 201.224 174.212C199.193 171.833 198.667 170.569 200.054 171.401C203.65 173.559 205.097 168.207 202.681 161.684C201.104 157.428 199.294 156.182 194.69 156.182C191.417 156.182 188.18 157.109 187.497 158.241C186.815 159.374 183.602 160.3 180.355 160.3C177.108 160.3 174.453 159.374 174.453 158.241C174.453 157.109 173.044 156.182 171.324 156.182C169.604 156.182 168.701 157.022 169.319 158.05ZM537.754 158.241C537.754 159.94 538.629 162.72 539.699 164.419C541.429 167.163 541.644 167.163 541.644 164.419C541.644 162.72 540.769 159.94 539.699 158.241C537.969 155.496 537.754 155.496 537.754 158.241ZM987.513 158.398C982.705 159.368 977.374 161.351 975.667 162.804C973.959 164.258 972.474 165.08 972.367 164.631C972.261 164.182 970.078 164.497 967.513 165.333C963.216 166.731 963.1 167.132 966.024 170.448C968.926 173.738 968.883 174.337 965.51 177.469C960.419 182.197 955.117 181.841 955.117 176.773C955.117 172.068 954.36 171.823 948.964 174.786C937.063 181.322 955.41 209.575 975.578 215.775C982.255 217.826 984.095 217.785 985.5 215.55C986.931 213.277 987.529 213.29 988.998 215.627C990.483 217.993 992.37 217.902 1000.69 215.066C1018.06 209.144 1029.22 193.203 1029.07 174.514C1028.93 158.264 1028.03 156.182 1021.09 156.182C1017.79 156.182 1015.5 156.878 1016.01 157.726C1016.52 158.575 1013.48 159.52 1009.25 159.825C1005.02 160.129 1000.99 159.433 1000.29 158.28C999.598 157.127 998.406 156.283 997.644 156.409C996.881 156.532 992.323 157.428 987.513 158.398ZM206.723 164.933C209.516 174.832 205.485 191.679 197.883 201.884C175.557 231.848 127.222 223.293 117.775 187.705C116.517 182.961 114.755 179.541 113.862 180.105C112.971 180.671 112.088 176.679 111.903 171.232C111.592 162.127 111.502 161.96 110.773 169.148C109.453 182.158 119.871 203.719 132.116 213.322C136.808 217.004 139.803 220.015 138.769 220.015C137.733 220.015 132.817 216.339 127.844 211.846C122.869 207.353 118.225 204.264 117.527 204.981C116.826 205.7 116.254 209.035 116.254 212.394C116.254 225.9 138.089 238.547 161.408 238.547C184.927 238.547 206.562 225.91 206.562 212.171C206.562 203.612 204.074 202.636 198.324 208.943C195.681 211.842 191.712 215.132 189.504 216.253C187.297 217.373 188.426 215.83 192.015 212.824C201.991 204.466 208.451 191.461 210.253 176.108C211.124 168.673 211.104 163.055 210.205 163.626C209.306 164.194 208.569 163.216 208.569 161.451C208.569 159.687 207.728 158.241 206.703 158.241C205.555 158.241 205.563 160.823 206.723 164.933ZM937.214 161.501C937.31 163.9 937.785 164.388 938.426 162.747C939.006 161.26 938.933 159.483 938.267 158.799C937.601 158.116 937.127 159.33 937.214 161.501ZM161.408 162.248C165.133 163.786 165.061 163.961 160.405 164.678C157.12 165.183 155.482 166.686 155.663 169.031C155.813 171 155.137 172.103 154.158 171.481C153.178 170.862 152.377 171.768 152.377 173.499C152.377 175.348 153.535 176.188 155.185 175.538C156.728 174.93 158.583 175.412 159.303 176.609C160.1 177.933 159.393 178.305 157.499 177.56C155.532 176.786 154.384 177.477 154.384 179.436C154.384 181.602 156.188 182.413 160.349 182.117C166.875 181.653 169.915 179.668 167.654 177.348C166.859 176.53 165.284 177.226 164.156 178.892C162.366 181.538 162.217 181.53 162.976 178.832C163.455 177.134 165.33 175.873 167.144 176.03C168.956 176.186 170.439 175.132 170.439 173.685C170.439 172.237 168.956 171.183 167.144 171.339C165.33 171.498 163.455 170.236 162.976 168.537C162.217 165.839 162.366 165.831 164.156 168.477C167.156 172.908 169.147 169.634 166.518 164.596C165.286 162.234 162.729 160.366 160.836 160.445C157.999 160.564 158.099 160.881 161.408 162.248ZM195.653 163.815C194.565 166.749 194.794 166.986 196.777 164.968C198.15 163.57 198.766 161.909 198.148 161.276C197.53 160.642 196.408 161.785 195.653 163.815ZM543.765 161.981C543.737 163.469 544.666 166.517 545.83 168.751C548.435 173.744 546.26 183.023 543.524 178.589C542.067 176.23 541.768 176.271 541.768 178.832C541.768 180.531 542.537 183.167 543.478 184.691C544.728 186.717 545.567 185.916 546.595 181.709C547.694 177.22 548.405 176.613 549.84 178.939C551.429 181.515 551.688 181.501 551.74 178.832C551.794 176.088 552.017 176.088 553.747 178.832C555.477 181.577 555.692 181.577 555.692 178.832C555.692 177.134 554.817 174.354 553.747 172.655C552.017 169.91 551.78 169.91 551.608 172.655C551.501 174.354 549.705 172.037 547.616 167.507C545.527 162.977 543.795 160.49 543.765 161.981ZM984.216 162.359C983.534 163.492 983.654 165.578 984.483 166.992C985.556 168.827 985.041 168.778 982.683 166.815C979.133 163.863 975.085 165.164 975.344 169.173C975.458 170.942 975.785 170.907 976.514 169.052C977.071 167.637 978.386 166.478 979.438 166.478C980.605 166.478 980.646 167.876 979.54 170.081C978.547 172.064 978.181 174.972 978.727 176.545C979.333 178.293 978.837 178.847 977.453 177.967C976.205 177.177 975.171 177.743 975.155 179.226C975.131 181.207 974.559 181.102 972.996 178.832C971.103 176.088 970.957 176.088 971.687 178.832C972.139 180.531 973.337 181.935 974.348 181.952C975.36 181.97 977.306 182.714 978.675 183.603C980.443 184.756 980.784 184.153 979.859 181.513C979.145 179.473 979.297 178.491 980.2 179.329C981.101 180.169 983.012 179.858 984.445 178.637C985.884 177.414 988.213 177.165 989.646 178.081C993.764 180.716 999.267 181.069 999.267 178.699C999.267 177.506 998.418 177.068 997.383 177.727C996.345 178.384 995.454 177.28 995.402 175.274C995.141 165.316 994.704 164.386 991.523 167.025C989.088 169.047 988.771 169.041 989.969 166.992C990.953 165.314 990.212 164.408 987.846 164.388C984.768 164.361 984.673 164.052 987.226 162.359C989.034 161.161 989.283 160.352 987.846 160.331C986.532 160.315 984.898 161.227 984.216 162.359ZM170.535 166.663C173.06 171.502 174.796 171.852 173.046 167.17C172.091 164.616 172.49 164.176 174.613 165.44C176.185 166.377 176.761 166.346 175.9 165.376C175.041 164.406 173.02 163.414 171.41 163.173C169.131 162.829 168.938 163.599 170.535 166.663ZM149.496 167.933C148.408 170.868 148.637 171.105 150.619 169.087C151.992 167.688 152.608 166.027 151.99 165.395C151.372 164.76 150.25 165.903 149.496 167.933ZM184.935 167.625C178.878 171.976 179.329 176.061 186.271 179.745C191.892 182.726 192.101 182.658 193.056 177.533C194.132 171.755 192.825 164.419 190.72 164.419C189.99 164.419 187.387 165.862 184.935 167.625ZM1011.03 168.407C1007.29 171.555 1006.73 173.143 1008.39 175.931C1009.55 177.873 1012.49 180.218 1014.92 181.141C1019.05 182.712 1019.34 182.234 1019.34 173.619C1019.34 163.403 1017.98 162.553 1011.03 168.407ZM144.667 172.655C144.667 175.486 145.123 176.646 145.679 175.229C146.237 173.814 146.237 171.498 145.679 170.081C145.123 168.667 144.667 169.824 144.667 172.655ZM176.851 173.685C176.891 177.082 177.341 178.223 177.85 176.219C178.36 174.216 178.326 171.436 177.776 170.042C177.226 168.648 176.811 170.287 176.851 173.685ZM991.398 173.855C991.495 176.254 991.97 176.742 992.61 175.101C993.19 173.615 993.118 171.838 992.452 171.154C991.786 170.47 991.312 171.685 991.398 173.855ZM535.748 174.714C535.748 176.413 536.623 179.193 537.692 180.891C539.422 183.636 539.637 183.636 539.637 180.891C539.637 179.193 538.762 176.413 537.692 174.714C535.962 171.969 535.748 171.969 535.748 174.714ZM1022.65 177.737C1022.03 179.399 1022.38 181.307 1023.44 181.977C1024.49 182.646 1025.36 181.285 1025.36 178.954C1025.36 173.981 1024.24 173.481 1022.65 177.737ZM1069.92 188.3C1068.63 195.243 1066.97 202.572 1066.21 204.59C1064.94 207.979 1065.97 208.15 1079.72 206.822C1104.63 204.415 1135.7 199.601 1156.3 194.951C1175.4 190.643 1181.44 187.194 1170.35 186.945C1167.31 186.875 1144 184.314 1118.54 181.25L1072.25 175.68L1069.92 188.3ZM146.357 180.646C146.357 182.654 154.16 190.145 155 188.945C155.326 188.479 153.513 186.048 150.975 183.54C148.434 181.032 146.357 179.73 146.357 180.646ZM949.096 181.013C949.096 182.211 949.999 182.621 951.103 181.921C952.207 181.221 953.11 180.241 953.11 179.74C953.11 179.24 952.207 178.832 951.103 178.832C949.999 178.832 949.096 179.814 949.096 181.013ZM984.107 181.071C982.04 184.505 986.69 188.442 989.46 185.601C991.776 183.224 990.327 178.832 987.226 178.832C986.253 178.832 984.85 179.839 984.107 181.071ZM170.718 185.078C168.113 187.306 166.845 189.128 167.898 189.128C168.954 189.128 171.453 187.275 173.449 185.01C178.039 179.806 176.851 179.835 170.718 185.078ZM939.106 183.344C939.274 193.637 956.447 215.497 967.087 218.962C969.5 219.747 971.039 220.838 970.505 221.384C968.835 223.097 958.38 216.537 952.267 209.941C947.777 205.094 945.785 204.149 943.738 205.891C937.153 211.498 945.136 224.884 959.885 232.968C966.748 236.73 971.416 237.505 987.226 237.505C1003.04 237.505 1007.7 236.73 1014.57 232.968C1029.32 224.884 1037.3 211.498 1030.71 205.891C1028.67 204.149 1026.67 205.094 1022.19 209.941C1016.21 216.384 1005.63 223.109 1004.03 221.472C1003.55 220.976 1005.83 219.434 1009.09 218.044C1015.5 215.322 1023.37 207.66 1019.77 207.66C1018.55 207.66 1016.95 208.683 1016.2 209.933C1015.44 211.183 1011.1 213.944 1006.55 216.065C995.866 221.042 978.683 221.089 968.161 216.172C958.217 211.527 945.353 197.206 943.754 189.004C942.532 182.734 939.026 178.466 939.106 183.344ZM141.34 186.601C134.539 188.072 133.342 190.79 137.451 195.447C145.05 204.063 147.551 204.036 148.051 195.334C148.546 186.706 147.453 185.282 141.34 186.601ZM175.813 186.36C172.779 189.472 174.543 199.327 178.523 201.514C180.76 202.743 181.976 204.771 181.222 206.023C180.363 207.452 180.778 207.709 182.346 206.717C184.13 205.584 184.222 204.505 182.669 202.912C181.118 201.32 181.744 199.331 184.876 195.911C187.535 193.005 188.513 190.427 187.371 189.332C184.541 186.624 177.357 184.775 175.813 186.36ZM966.871 186.645C958.829 188.862 958.773 188.939 961.831 193.419C963.455 195.797 966.531 198.997 968.667 200.533C972.271 203.124 972.691 202.695 974.495 194.607C976.514 185.553 975.325 184.312 966.871 186.645ZM1001.15 187.147C999.466 188.216 999.279 190.866 1000.52 196.137L1002.28 203.612L1008.26 197.914C1011.55 194.78 1015.09 192.501 1016.12 192.847C1017.16 193.195 1016.93 192.138 1015.6 190.501C1012.72 186.941 1004.49 185.03 1001.15 187.147ZM160.03 190.534C161.477 191.129 163.208 191.055 163.875 190.372C164.541 189.688 163.357 189.202 161.242 189.291C158.904 189.389 158.428 189.877 160.03 190.534ZM539.761 190.157C539.761 191.29 540.636 193.606 541.706 195.305C542.776 197.004 543.651 197.467 543.651 196.335C543.651 195.202 542.776 192.886 541.706 191.187C540.636 189.488 539.761 189.025 539.761 190.157ZM984.844 190.534C986.291 191.129 988.023 191.055 988.689 190.372C989.355 189.688 988.171 189.202 986.056 189.291C983.718 189.389 983.243 189.877 984.844 190.534ZM128.295 194.024C128.295 194.451 129.875 196.073 131.807 197.628C134.99 200.187 135.06 200.115 132.566 196.85C129.943 193.419 128.295 192.33 128.295 194.024ZM155.619 198.322C153.836 201.112 152.377 203.892 152.377 204.499C152.377 205.105 156.441 205.601 161.408 205.601C171.28 205.601 171.988 204.668 167.314 197.824C163.257 191.877 159.636 192.031 155.619 198.322ZM241.233 200.352L239.047 207.66H250.025H261.002L260.372 200.968C259.788 194.741 259.178 194.232 251.582 193.66C243.797 193.075 243.318 193.386 241.233 200.352ZM956.301 195.007C955.717 195.974 957.695 198.985 960.698 201.699L966.154 206.63L961.621 201.33C959.126 198.415 957.697 195.404 958.444 194.638C959.188 193.872 959.251 193.246 958.58 193.246C957.908 193.246 956.883 194.039 956.301 195.007ZM982.52 197.012C977.138 203.113 978.5 205.601 987.226 205.601C996.137 205.601 997.72 202.351 991.583 196.654C986.993 192.392 986.582 192.406 982.52 197.012ZM1013.16 200.968L1008.3 206.63L1013.82 201.639C1016.85 198.892 1019.34 196.345 1019.34 195.977C1019.34 194.36 1017.71 195.676 1013.16 200.968ZM268.775 202.459C268.775 207.209 269.513 207.658 277.304 207.629C286.302 207.596 285.981 206.818 274.293 200.325C268.941 197.35 268.775 197.416 268.775 202.459ZM555.254 205.28C553.755 211.164 557.616 223.587 559.812 219.94C560.867 218.19 561.768 218.81 562.742 221.956C563.514 224.456 564.57 226.068 565.086 225.539C565.601 225.01 564.6 221.085 562.862 216.817C561.124 212.548 560.227 207.12 560.869 204.754C561.708 201.664 561.503 201.244 560.143 203.26C558.571 205.586 558.094 205.595 557.351 203.313C556.813 201.656 555.979 202.438 555.254 205.28ZM968.629 207.915C969.991 209.324 971.611 209.956 972.227 209.322C972.845 208.687 971.731 207.536 969.753 206.762C966.893 205.646 966.662 205.881 968.629 207.915ZM1003.28 207.66C1001.47 208.858 1001.22 209.668 1002.66 209.688C1003.98 209.705 1005.61 208.792 1006.29 207.66C1007.83 205.103 1007.14 205.103 1003.28 207.66ZM151.374 209.719C148.103 211.162 147.986 211.515 150.754 211.634C152.62 211.712 154.705 210.852 155.388 209.719C156.815 207.351 156.744 207.351 151.374 209.719ZM167.429 209.719C168.111 210.852 169.572 211.778 170.676 211.778C171.78 211.778 172.125 210.852 171.443 209.719C170.76 208.587 169.299 207.66 168.195 207.66C167.092 207.66 166.746 208.587 167.429 209.719ZM555.816 208.689C555.816 209.822 556.691 212.139 557.761 213.837C558.83 215.536 559.705 215.999 559.705 214.867C559.705 213.734 558.83 211.418 557.761 209.719C556.691 208.02 555.816 207.557 555.816 208.689ZM977.192 209.719C975.384 210.917 975.135 211.727 976.572 211.747C977.886 211.764 979.52 210.852 980.202 209.719C981.741 207.162 981.047 207.162 977.192 209.719ZM994.718 209.974C996.08 211.383 997.7 212.015 998.316 211.381C998.934 210.747 997.82 209.595 995.841 208.821C992.982 207.705 992.751 207.94 994.718 209.974ZM242.184 211.208C245.77 211.665 251.642 211.665 255.228 211.208C258.815 210.753 255.881 210.378 248.706 210.378C241.532 210.378 238.598 210.753 242.184 211.208ZM274.33 211.212C277.936 211.669 283.354 211.661 286.371 211.191C289.387 210.72 286.435 210.345 279.812 210.357C273.19 210.368 270.723 210.753 274.33 211.212ZM240.133 215.324C243.695 215.779 250.017 215.785 254.181 215.34C258.343 214.894 255.429 214.523 247.703 214.513C239.976 214.504 236.569 214.869 240.133 215.324ZM274.249 215.324C277.811 215.779 284.133 215.785 288.297 215.34C292.459 214.894 289.546 214.523 281.819 214.513C274.093 214.504 270.685 214.869 274.249 215.324ZM238.126 219.442C241.688 219.897 248.01 219.903 252.174 219.459C256.336 219.012 253.422 218.641 245.696 218.631C237.97 218.623 234.562 218.987 238.126 219.442ZM271.434 219.432C272.196 220.698 269.409 222.103 264.54 222.901C257.422 224.069 240.679 231.241 240.679 233.121C240.679 233.489 245.702 232.05 251.839 229.923C280.549 219.98 340.7 220.894 421.044 232.495C436.91 234.787 450.258 236.284 450.707 235.824C451.914 234.587 402.206 226.711 371.09 223.21C334.427 219.084 269.748 216.631 271.434 219.432ZM144.35 221.979C146.006 223.13 149.09 224.083 151.207 224.102C156.341 224.143 154.74 222.965 147.36 221.271C142.963 220.262 142.153 220.453 144.35 221.979ZM172.446 222.074C168.312 223.433 168.135 223.754 171.443 223.896C173.65 223.991 176.811 223.171 178.466 222.074C181.982 219.743 179.542 219.743 172.446 222.074ZM748.219 222.1C743.145 222.98 735.018 225.663 730.157 228.062C725.296 230.461 723.125 231.842 725.332 231.136C757.673 220.768 801.647 220.074 842.733 229.283C849.908 230.891 858.035 232.695 860.795 233.294C863.554 233.893 860.622 232.577 854.281 230.372C829.351 221.705 774.94 217.461 748.219 222.1ZM1147.14 223.523C1127.52 227.395 1128.1 229.184 1147.95 226.025C1167.37 222.932 1194.94 224.337 1203.78 228.869C1210.47 232.299 1210.54 232.291 1207.17 228.465C1199.65 219.947 1175.39 217.949 1147.14 223.523ZM940.988 226.037C946.67 236.93 967.862 247.022 984.033 246.536L992.243 246.289L983.212 244.306C967.854 240.935 957.238 236.337 947.858 228.99C941.354 223.896 939.443 223.074 940.988 226.037ZM974.81 223.48C976.257 224.075 977.989 224.001 978.655 223.317C979.321 222.634 978.137 222.148 976.022 222.236C973.684 222.335 973.208 222.823 974.81 223.48ZM996.885 223.48C998.332 224.075 1000.06 224.001 1000.73 223.317C1001.4 222.634 1000.21 222.148 998.097 222.236C995.759 222.335 995.284 222.823 996.885 223.48ZM122.68 232.901C132.901 242.893 143.692 246.968 158.785 246.536L167.429 246.289L158.398 244.244C139.728 240.017 135.159 238.489 129.299 234.5C125.987 232.248 121.02 228.891 118.261 227.04C115.502 225.189 117.49 227.827 122.68 232.901ZM160.03 225.539C161.477 226.134 163.208 226.06 163.875 225.377C164.541 224.693 163.357 224.207 161.242 224.296C158.904 224.394 158.428 224.882 160.03 225.539ZM984.718 225.496C986.098 226.068 988.356 226.068 989.735 225.496C991.115 224.926 989.986 224.458 987.226 224.458C984.467 224.458 983.339 224.926 984.718 225.496ZM1125.32 229.657C1126.77 230.253 1128.5 230.178 1129.17 229.495C1129.83 228.811 1128.65 228.325 1126.54 228.414C1124.2 228.513 1123.72 229.001 1125.32 229.657ZM455.036 237.894C456.483 238.489 458.215 238.415 458.881 237.731C459.548 237.048 458.364 236.562 456.248 236.65C453.91 236.749 453.435 237.237 455.036 237.894Z"/>
</mask>
<path fill-rule="evenodd" clip-rule="evenodd" d="M469.57 6.28907C468.277 10.0202 466.184 29.4293 464.92 49.4213L462.624 85.7667L447.478 87.1957C410.757 90.6632 323.03 106.01 320.758 109.366C320.098 110.34 300.681 108.732 277.611 105.792C232.828 100.084 224.184 98.5641 228.094 97.0856C229.45 96.5729 249.563 98.6114 272.788 101.616C296.014 104.62 316.01 106.739 317.224 106.323C319.702 105.474 236.669 94.3161 228.303 94.3738C224.811 94.3964 221.545 96.3752 218.902 100.071C214.865 105.717 214.837 105.724 209.203 101.978C206.095 99.9128 199.263 96.2538 194.02 93.8487L184.487 89.4731L184.475 64.6587C184.469 51.0089 183.576 36.558 182.488 32.5448C180.247 24.2651 170.182 13.3621 161.78 10.1108C158.209 8.73118 131.988 7.93844 90.5365 7.95903C26.3635 7.99404 24.772 8.09285 17.1039 12.592C1.11332 21.9754 0.936714 22.6591 0.260406 77.627C-0.329607 125.666 -0.265388 126.558 4.2741 133.402C13.7926 147.756 17.0055 148.903 49.665 149.63L79.1275 150.285V173.31C79.1275 194.933 79.5189 197.181 85.5354 210.215C93.8297 228.179 108.297 243.023 125.805 251.533C138.488 257.698 140.722 258.108 161.593 258.108C183.343 258.108 184.194 257.931 198.72 250.378C215.17 241.823 231.742 239.638 233.007 245.856C233.583 248.694 248.267 249.091 365.605 249.46C438.179 249.686 497.555 249.223 497.555 248.43C497.555 247.638 495.976 245.955 494.043 244.691C491.248 242.863 492.167 242.63 498.559 243.542C502.974 244.174 553.771 245.313 611.444 246.073C669.117 246.835 716.302 248 716.302 248.665C716.302 249.328 754.456 249.684 801.091 249.454C883.015 249.048 885.86 248.904 885.304 245.138C884.779 241.569 886.691 241.127 908 239.879L931.269 238.514L940.485 245.02C972.265 267.455 1021.29 262.294 1047.11 233.798C1053.86 226.359 1072.05 224.316 1084.55 229.594C1089.52 231.686 1093.58 233.949 1093.58 234.62C1093.58 235.291 1084.78 237.468 1074.02 239.455C1048.38 244.189 1047.43 244.493 1047.43 247.951C1047.43 250.465 1059.76 250.901 1130.72 250.901H1214V242.094C1214 237.249 1212.53 231.128 1210.73 228.492C1206.68 222.566 1196.33 217.955 1187.08 217.955C1180.28 217.955 1180.15 217.797 1182.07 212.13C1183.68 207.409 1186.23 205.607 1195.51 202.642C1208.71 198.425 1214.24 194.218 1212.54 189.676C1209.94 182.732 1146.76 156.932 1091.12 140.092C1069.99 133.697 1059.11 129.424 1058.44 127.262C1056.35 120.487 1036.67 102.538 1024.74 96.5091C1000.18 84.1029 974.194 84.1441 949.475 96.6305L936.796 103.034L902.306 97.6993C836.048 87.4511 762.808 80.4933 712.653 79.6841C693.279 79.369 689.761 78.7781 686.715 75.3208C678.852 66.4007 652.428 57.9522 649.191 63.3244C648.28 64.8399 650.961 65.5812 657.351 65.5812C669.462 65.5812 682.276 71.88 689.251 81.2634C696.59 91.1368 693.757 92.8171 685.452 83.5161C677.22 74.2933 670.357 71.4517 657.754 72.0406C649.225 72.4401 648.069 73.0393 648.069 77.0566C648.069 81.2078 648.703 81.4734 655.079 79.9991C658.934 79.1055 661.633 79.1322 661.075 80.0568C660.519 80.9813 657.3 82.3609 653.923 83.1208C650.545 83.8826 648.278 85.0131 648.884 85.637C649.49 86.2588 654.097 85.1551 659.125 83.1866C667.656 79.8426 668.599 79.8323 673.341 83.0198C680.369 87.7434 678.689 90.5727 665.675 95.9264C645.163 104.369 631.322 107.157 604.42 108.265C580.739 109.241 577.829 108.991 577.829 106.002C577.829 102.207 577.767 102.215 589.33 104.511L597.819 106.195L599.17 98.8091C600.848 89.6337 597.031 69.9671 590.902 56.1978C579.481 30.5454 553.065 21.5347 529.137 35.1269C517.078 41.9797 512.607 51.0521 512.607 68.6699V83.0836H499.109H485.611L484.641 74.8472C484.109 70.3172 483.122 55.1415 482.45 41.123C480.75 5.6672 475.091 -9.63816 469.57 6.28907ZM475.821 8.95562C475.789 11.2206 476.538 14.927 477.487 17.192C479.684 22.4387 479.684 17.0253 477.487 9.98517C476.194 5.84636 475.869 5.64456 475.821 8.95562ZM101.203 15.238C126.001 19.2615 144.868 25.4367 152.504 32.0321C158.914 37.5649 158.918 37.5814 157.672 52.7117C155.847 74.8616 162.785 88.2315 176.1 88.2315H180.867L180.168 60.5817C179.378 29.275 177.754 25.1114 163.301 17.3341C156.247 13.5371 151.462 13.0326 119.264 12.6908L83.1412 12.3058L101.203 15.238ZM558.764 35.7282C568.393 39.2204 577.829 49.3431 577.829 56.1793C577.829 58.8994 578.377 62.5914 579.047 64.3828C579.846 66.5202 579.158 67.6403 577.04 67.6403C572.991 67.6403 572.892 70.4696 576.826 73.8177C582.192 78.3868 580.013 80.1927 573.314 76.7251C566.183 73.0331 555.754 63.7404 555.754 61.0779C555.754 60.1575 557.108 59.4039 558.764 59.4039C560.42 59.4039 561.774 58.014 561.774 56.3152C561.774 51.9499 555.784 52.4502 555.613 56.83C555.493 59.9104 555.222 59.8363 553.747 56.3152C552.788 54.0234 551.959 53.4592 551.881 55.0427C551.57 61.325 560.253 71.5135 570.697 77.1246C580.233 82.2477 581.855 84.0473 583.697 91.5507C585.74 99.8757 590.149 103.984 594.251 101.383C596.79 99.7728 595.293 84.7351 591.004 68.7873C585.672 48.9642 569.398 32.4583 555.451 32.726C551.959 32.7919 552.818 33.5723 558.764 35.7282ZM514.949 64.5517C514.152 68.0521 514.664 74.6742 516.129 79.8385C518.117 86.8457 520.008 89.3907 524.315 90.863C532.553 93.6799 532.854 91.5569 525.541 82.2229C521.948 77.6352 518.412 70.3934 517.682 66.129L516.355 58.3743L514.949 64.5517ZM489.923 86.1723C490.431 87.8711 494.461 92.0984 498.88 95.566L506.913 101.873L471.631 104.404C389.976 110.264 310.955 123.941 260.266 140.986C245.64 145.905 240.875 148.833 243.354 151.378C243.944 151.982 261.418 150.555 282.186 148.207C385.896 136.481 476.618 131.522 588.094 131.493C656.443 131.473 659.791 131.294 664.655 127.367C670.523 122.631 675.446 110.867 671.545 110.906C670.222 110.919 664.174 112.379 658.103 114.149C642.805 118.612 581.688 120.471 559.543 117.15C539.773 114.185 511.017 105.283 512.619 102.627C513.237 101.601 510.776 99.2271 507.154 97.3492C503.53 95.4733 497.963 91.4972 494.782 88.5115C491.483 85.4146 489.395 84.4097 489.923 86.1723ZM704.73 90.3503C701.126 93.7149 699.406 96.4679 700.907 96.4679C703.534 96.4679 708.11 92.0758 711.098 86.6871C713.213 82.8716 711.989 83.5758 704.73 90.3503ZM682.94 97.7116C682.681 107.105 683.279 107.945 688.025 104.863C690.391 103.325 690.431 101.98 688.264 96.6141C684.491 87.2678 683.219 87.5293 682.94 97.7116ZM162.879 97.483C156.722 102.065 158.934 104.686 169.052 104.795C179.695 104.908 190.498 108.843 200.751 116.338C218.104 129.022 216.597 128.403 216.597 122.849C216.597 116.734 206.651 105.886 195.876 100.244C184.854 94.4747 168.733 93.126 162.879 97.483ZM533.177 95.7719C534.558 96.3443 536.815 96.3443 538.194 95.7719C539.575 95.2015 538.445 94.7341 535.685 94.7341C532.926 94.7341 531.798 95.2015 533.177 95.7719ZM989.566 96.5956C981.996 99.7089 985.707 103.566 997.774 105.124C1012.25 106.996 1020.27 110.556 1031.18 119.948C1040.61 128.063 1044.92 127.55 1041.64 118.704C1035.8 102.942 1005.46 90.0599 989.566 96.5956ZM549.733 98.632C561.845 100.843 571.337 100.652 560.771 98.4096C556.356 97.4727 550.034 96.7685 546.723 96.8447C542.208 96.9477 542.962 97.3965 549.733 98.632ZM669.141 100.063C665.829 100.411 655.896 102.754 647.065 105.273C633.505 109.14 626.022 109.844 598.901 109.807C571.779 109.77 564.373 109.051 551.216 105.174C535.734 100.613 515.011 98.8523 518.728 102.413C521.413 104.986 544.365 110.55 561.967 112.893C581.213 115.457 621.141 115.467 639.038 112.914C657.798 110.237 680.178 104.651 680.178 102.643C680.178 100.306 676.042 99.3404 669.141 100.063ZM571.433 101.992C572.88 102.588 574.612 102.513 575.278 101.83C575.945 101.146 574.761 100.66 572.645 100.749C570.307 100.848 569.832 101.336 571.433 101.992ZM695.366 107.278C692.045 114.866 687.664 120.275 679.697 126.624L674.198 131.003L708.796 132.348C751.542 134.012 816.975 137.465 843.736 139.472C859.424 140.648 865.473 140.311 871.441 137.926C877.546 135.488 882.274 135.266 895.021 136.814C903.85 137.887 910.966 137.959 910.966 136.975C910.966 135.997 912.87 132.453 915.198 129.099C917.526 125.744 918.977 122.532 918.421 121.962C914.452 117.889 746.475 100.596 710.809 100.588C698.627 100.586 698.216 100.763 695.366 107.278ZM229.952 110.53C225.808 115.228 225.583 118.455 229.641 115C233.209 111.961 233.725 115.134 230.243 118.706C228.569 120.424 228.519 121.177 230.077 121.177C231.309 121.177 232.772 120.02 233.33 118.603C234.046 116.781 234.387 116.896 234.5 118.997C234.618 121.196 235.479 120.93 237.833 117.967C239.98 115.261 240.701 115 240.061 117.152C239.453 119.19 240.476 120.44 242.906 120.627C244.991 120.79 246.713 119.82 246.729 118.476C246.749 116.935 247.307 116.793 248.235 118.089C250.213 120.85 260.747 121.533 260.747 118.9C260.747 117.753 259.844 117.388 258.74 118.089C257.637 118.789 256.72 118.148 256.703 116.666C256.681 114.708 256.14 114.815 254.727 117.059C253.314 119.303 252.772 119.41 252.75 117.452C252.734 115.97 251.817 115.329 250.713 116.029C249.609 116.73 248.706 116.143 248.706 114.728C248.706 113.268 247.331 113.884 245.531 116.151C242.698 119.721 242.481 119.752 243.502 116.437C244.171 114.269 243.821 113.25 242.664 113.985C241.572 114.677 240.679 114.37 240.679 113.303C240.679 112.237 243.388 111.477 246.699 111.615C250.011 111.755 252.72 112.519 252.72 113.316C252.72 114.112 254.526 114.407 256.734 113.97C258.941 113.534 260.747 114.106 260.747 115.239C260.747 116.373 261.64 116.736 262.732 116.044C263.89 115.309 264.239 116.328 263.571 118.496C262.497 121.978 262.614 121.972 265.465 118.399C267.96 115.274 270.057 114.854 277.169 116.06C294.92 119.071 283.015 115.29 261.566 111.106C234.534 105.833 234.1 105.824 229.952 110.53ZM235.997 112.255C235.26 113.009 234.658 114.584 234.658 115.756C234.658 117.045 235.593 116.923 237.032 115.447C238.339 114.106 238.941 112.531 238.371 111.946C237.801 111.359 236.731 111.499 235.997 112.255ZM152.002 122.584C153.449 123.179 155.181 123.105 155.847 122.421C156.514 121.737 155.33 121.251 153.214 121.34C150.876 121.439 150.401 121.927 152.002 122.584ZM178.633 130.165C179.095 130.577 181.728 132.018 184.487 133.367C189.217 135.677 189.281 135.636 185.609 132.616C182.412 129.988 175.88 127.692 178.633 130.165ZM195.525 135.591C197.521 137.856 199.609 139.709 200.161 139.709C200.712 139.709 199.528 137.856 197.532 135.591C195.535 133.326 193.448 131.473 192.896 131.473C192.344 131.473 193.528 133.326 195.525 135.591ZM947.902 140.224L944.079 144.857L948.594 140.934C952.837 137.249 954.023 135.591 952.417 135.591C952.036 135.591 950.005 137.675 947.902 140.224ZM1001.27 136.476C1001.27 137.043 1003.08 138.496 1005.29 139.709C1007.5 140.922 1009.3 141.449 1009.3 140.883C1009.3 140.317 1007.5 138.863 1005.29 137.65C1003.08 136.437 1001.27 135.91 1001.27 136.476ZM1023.35 138.428C1023.35 138.855 1024.93 140.477 1026.86 142.032C1030.04 144.591 1030.11 144.519 1027.62 141.254C1025 137.823 1023.35 136.734 1023.35 138.428ZM517.624 140.671C517.624 142.302 536.974 190.03 540.183 196.314C543.207 202.238 543.209 202.238 544.684 197.471C545.828 193.771 546.552 193.339 547.915 195.548C549.372 197.908 549.671 197.867 549.671 195.305C549.671 193.606 548.796 190.827 547.727 189.128C545.997 186.383 545.77 186.383 545.68 189.128C545.617 190.998 544.445 190.184 542.709 187.069C540.881 183.789 539.755 183.041 539.603 185.01C539.472 186.708 537.239 183.465 534.638 177.803C529.43 166.461 528.15 160.416 532.675 168.537C534.439 171.704 535.597 172.496 535.685 170.596C535.774 168.695 536.932 169.488 538.696 172.655C540.432 175.77 541.604 176.584 541.666 174.714C541.756 171.969 541.983 171.969 543.713 174.714C545.443 177.459 545.657 177.459 545.657 174.714C545.657 173.015 544.782 170.236 543.713 168.537C541.983 165.792 541.756 165.792 541.666 168.537C541.604 170.406 540.432 169.593 538.696 166.478C536.932 163.311 535.774 162.518 535.685 164.419C535.597 166.319 534.439 165.526 532.675 162.359C530.939 159.244 529.767 158.431 529.705 160.3C529.615 163.045 529.388 163.045 527.658 160.3C526.588 158.602 525.713 156.285 525.713 155.153C525.713 154.02 526.588 154.483 527.658 156.182C529.388 158.927 529.603 158.927 529.603 156.182C529.603 154.483 528.728 151.704 527.658 150.005C525.928 147.26 525.691 147.26 525.519 150.005C525.41 151.704 524.04 150.081 522.472 146.401C519.976 140.545 517.624 137.765 517.624 140.671ZM523.803 145.028C523.899 147.427 524.375 147.915 525.015 146.274C525.595 144.787 525.523 143.01 524.856 142.326C524.19 141.643 523.717 142.858 523.803 145.028ZM372.127 146C329.53 147.565 258.658 153.032 249.11 155.49C245.507 156.419 244.61 157.891 245.084 162.096C245.634 166.964 247.612 168.166 264.761 174.063C290.406 182.885 336.871 194.342 365.103 198.806C382.338 201.532 400.378 202.463 436.346 202.483C482.171 202.51 494.997 201.406 521.94 195.114L531.274 192.933L520.937 170.573L510.6 148.211L500.566 147.128C480.716 144.985 415.423 144.41 372.127 146ZM527.807 145.565C527.889 146.309 529.711 150.623 531.858 155.153C535.477 162.794 535.954 160.626 532.763 151.034C531.844 148.269 532.406 148.607 534.471 152.064C536.392 155.274 537.588 156.048 537.652 154.123C537.742 151.378 537.985 151.378 539.838 154.123C541.551 156.662 541.792 156.479 541.192 153.093C540.793 150.828 539.388 149.208 538.076 149.49C536.761 149.772 535.685 149.185 535.685 148.187C535.685 147.186 533.879 145.882 531.672 145.289C529.464 144.699 527.724 144.822 527.807 145.565ZM754.432 149.348C715.702 150.849 662.625 154.5 638.035 157.354C613.479 160.204 564.56 169.111 562.639 171.082C562.21 171.52 564.55 182.811 567.837 196.168C571.126 209.525 573.815 222.105 573.815 224.123C573.815 227.489 577.502 227.911 618.468 229.239C672.267 230.984 707.235 228.566 737.374 221.017C757.526 215.968 761.895 215.577 787.545 216.52C802.998 217.089 822.414 219.094 830.692 220.976C842.723 223.711 851.064 224.116 872.248 222.992L898.752 221.586L893.723 211.405C890.958 205.805 886.035 194.134 882.784 185.471C878.314 173.563 874.315 167.062 866.394 158.832L855.914 147.946L812.699 148.355C788.93 148.58 762.71 149.027 754.432 149.348ZM862.802 148.778C862.802 150.913 878.284 160.029 890.713 165.211C899.679 168.949 902.939 169.581 902.939 167.585C902.939 166.091 900.552 164.25 897.634 163.498C893.478 162.429 875.244 154.166 864.307 148.397C863.478 147.96 862.802 148.131 862.802 148.778ZM1069.83 156.637C1070.88 161.418 1071.91 165.434 1072.13 165.557C1073.21 166.185 1125.92 175.344 1148.78 178.876C1194.82 185.99 1196.46 184.069 1155.98 170.46C1132.33 162.51 1077.31 147.946 1070.91 147.946C1068.44 147.946 1068.25 149.439 1069.83 156.637ZM543.067 154.374C542.406 156.969 542.28 159.518 542.79 160.039C543.297 160.56 543.727 159.674 543.743 158.07C543.769 155.667 544.118 155.698 545.72 158.241C547.45 160.986 547.672 160.986 547.727 158.241C547.781 155.496 548.003 155.496 549.733 158.241C550.803 159.94 551.678 162.257 551.678 163.389C551.678 164.522 550.803 164.058 549.733 162.359C548.003 159.615 547.789 159.615 547.789 162.359C547.789 164.058 548.664 166.838 549.733 168.537C551.463 171.282 551.692 171.282 551.79 168.537C551.85 166.838 553.287 168.073 554.981 171.282C556.677 174.49 557.564 178.447 556.954 180.076C556.346 181.707 557.61 187.633 559.768 193.246C561.925 198.859 563.221 204.701 562.651 206.225C562.081 207.748 563.458 213.405 565.708 218.794C570.207 229.565 570.897 233.012 567.602 228.251C565.963 225.883 565.72 226.602 566.561 231.34C567.534 236.807 567.223 236.57 563.863 229.281C561.774 224.751 559.962 222.434 559.836 224.133C559.705 225.904 558.283 224.714 556.5 221.341C553.219 215.124 550.781 194.554 553.932 199.658C555.397 202.032 555.704 201.993 555.754 199.423C555.808 196.679 556.031 196.679 557.761 199.423C559.972 202.934 560.452 199.528 558.485 194.272C557.452 191.51 556.84 191.376 555.342 193.588C554.07 195.47 553.879 194.889 554.74 191.743C555.433 189.218 554.983 185.512 553.743 183.507C551.861 180.465 551.66 180.885 552.535 186.039L553.582 192.217L550.745 186.039C549.183 182.642 547.867 181.081 547.817 182.572C547.767 184.06 548.68 187.108 549.844 189.342C552.246 193.946 550.281 203.665 547.785 199.522C546.749 197.803 545.932 198.363 545.182 201.312C544.58 203.673 544.841 205.129 545.762 204.544C546.683 203.96 548.072 205.58 548.846 208.144C551.65 217.414 558.222 230.261 559.689 229.33C560.512 228.807 562.204 230.668 563.444 233.463C566.998 241.464 571.211 239.912 570.601 230.825C569.615 216.146 568.18 208.475 564.921 200.47C563.121 196.051 562.118 191.179 562.692 189.645C563.314 187.983 562.846 187.419 561.536 188.249C560.121 189.146 559.737 188.267 560.46 185.782C561.768 181.285 551.463 152.76 548.9 153.783C547.949 154.164 546.518 153.39 545.722 152.066C544.788 150.518 543.839 151.343 543.067 154.374ZM160.03 153.47C161.477 154.065 163.208 153.991 163.875 153.308C164.541 152.624 163.357 152.138 161.242 152.227C158.904 152.325 158.428 152.813 160.03 153.47ZM1032.74 155.47C1032.02 156.211 1031.98 160.337 1032.65 164.641C1034.44 176.16 1031.83 189.921 1026.26 198.355C1020.52 207.026 1020.01 209.295 1024.68 205.337C1031.69 199.399 1035.69 185.648 1035.1 169.476C1034.79 161.031 1034.43 154.123 1034.3 154.123C1034.16 154.123 1033.46 154.728 1032.74 155.47ZM169.319 158.05C169.939 159.075 168.571 159.413 166.281 158.799C161.28 157.457 146.054 162.25 147.531 164.703C148.103 165.652 147.214 165.895 145.554 165.242C140.539 163.268 138.111 166.165 140.878 170.816C142.971 174.335 142.737 175.404 139.333 177.858C137.125 179.45 134.191 181.746 132.811 182.961C130.88 184.664 130.302 183.692 130.302 178.742C130.302 174.331 129.515 172.688 127.794 173.512C126.415 174.173 123.637 175.301 121.625 176.022C116.959 177.694 118.345 184.518 125.955 197.333C132.873 208.984 152.247 220.315 158.45 216.341C160.852 214.801 162.669 214.659 163.445 215.946C167.09 221.998 190.63 208.671 197.271 196.794C204.708 183.492 205.463 179.176 201.224 174.212C199.193 171.833 198.667 170.569 200.054 171.401C203.65 173.559 205.097 168.207 202.681 161.684C201.104 157.428 199.294 156.182 194.69 156.182C191.417 156.182 188.18 157.109 187.497 158.241C186.815 159.374 183.602 160.3 180.355 160.3C177.108 160.3 174.453 159.374 174.453 158.241C174.453 157.109 173.044 156.182 171.324 156.182C169.604 156.182 168.701 157.022 169.319 158.05ZM537.754 158.241C537.754 159.94 538.629 162.72 539.699 164.419C541.429 167.163 541.644 167.163 541.644 164.419C541.644 162.72 540.769 159.94 539.699 158.241C537.969 155.496 537.754 155.496 537.754 158.241ZM987.513 158.398C982.705 159.368 977.374 161.351 975.667 162.804C973.959 164.258 972.474 165.08 972.367 164.631C972.261 164.182 970.078 164.497 967.513 165.333C963.216 166.731 963.1 167.132 966.024 170.448C968.926 173.738 968.883 174.337 965.51 177.469C960.419 182.197 955.117 181.841 955.117 176.773C955.117 172.068 954.36 171.823 948.964 174.786C937.063 181.322 955.41 209.575 975.578 215.775C982.255 217.826 984.095 217.785 985.5 215.55C986.931 213.277 987.529 213.29 988.998 215.627C990.483 217.993 992.37 217.902 1000.69 215.066C1018.06 209.144 1029.22 193.203 1029.07 174.514C1028.93 158.264 1028.03 156.182 1021.09 156.182C1017.79 156.182 1015.5 156.878 1016.01 157.726C1016.52 158.575 1013.48 159.52 1009.25 159.825C1005.02 160.129 1000.99 159.433 1000.29 158.28C999.598 157.127 998.406 156.283 997.644 156.409C996.881 156.532 992.323 157.428 987.513 158.398ZM206.723 164.933C209.516 174.832 205.485 191.679 197.883 201.884C175.557 231.848 127.222 223.293 117.775 187.705C116.517 182.961 114.755 179.541 113.862 180.105C112.971 180.671 112.088 176.679 111.903 171.232C111.592 162.127 111.502 161.96 110.773 169.148C109.453 182.158 119.871 203.719 132.116 213.322C136.808 217.004 139.803 220.015 138.769 220.015C137.733 220.015 132.817 216.339 127.844 211.846C122.869 207.353 118.225 204.264 117.527 204.981C116.826 205.7 116.254 209.035 116.254 212.394C116.254 225.9 138.089 238.547 161.408 238.547C184.927 238.547 206.562 225.91 206.562 212.171C206.562 203.612 204.074 202.636 198.324 208.943C195.681 211.842 191.712 215.132 189.504 216.253C187.297 217.373 188.426 215.83 192.015 212.824C201.991 204.466 208.451 191.461 210.253 176.108C211.124 168.673 211.104 163.055 210.205 163.626C209.306 164.194 208.569 163.216 208.569 161.451C208.569 159.687 207.728 158.241 206.703 158.241C205.555 158.241 205.563 160.823 206.723 164.933ZM937.214 161.501C937.31 163.9 937.785 164.388 938.426 162.747C939.006 161.26 938.933 159.483 938.267 158.799C937.601 158.116 937.127 159.33 937.214 161.501ZM161.408 162.248C165.133 163.786 165.061 163.961 160.405 164.678C157.12 165.183 155.482 166.686 155.663 169.031C155.813 171 155.137 172.103 154.158 171.481C153.178 170.862 152.377 171.768 152.377 173.499C152.377 175.348 153.535 176.188 155.185 175.538C156.728 174.93 158.583 175.412 159.303 176.609C160.1 177.933 159.393 178.305 157.499 177.56C155.532 176.786 154.384 177.477 154.384 179.436C154.384 181.602 156.188 182.413 160.349 182.117C166.875 181.653 169.915 179.668 167.654 177.348C166.859 176.53 165.284 177.226 164.156 178.892C162.366 181.538 162.217 181.53 162.976 178.832C163.455 177.134 165.33 175.873 167.144 176.03C168.956 176.186 170.439 175.132 170.439 173.685C170.439 172.237 168.956 171.183 167.144 171.339C165.33 171.498 163.455 170.236 162.976 168.537C162.217 165.839 162.366 165.831 164.156 168.477C167.156 172.908 169.147 169.634 166.518 164.596C165.286 162.234 162.729 160.366 160.836 160.445C157.999 160.564 158.099 160.881 161.408 162.248ZM195.653 163.815C194.565 166.749 194.794 166.986 196.777 164.968C198.15 163.57 198.766 161.909 198.148 161.276C197.53 160.642 196.408 161.785 195.653 163.815ZM543.765 161.981C543.737 163.469 544.666 166.517 545.83 168.751C548.435 173.744 546.26 183.023 543.524 178.589C542.067 176.23 541.768 176.271 541.768 178.832C541.768 180.531 542.537 183.167 543.478 184.691C544.728 186.717 545.567 185.916 546.595 181.709C547.694 177.22 548.405 176.613 549.84 178.939C551.429 181.515 551.688 181.501 551.74 178.832C551.794 176.088 552.017 176.088 553.747 178.832C555.477 181.577 555.692 181.577 555.692 178.832C555.692 177.134 554.817 174.354 553.747 172.655C552.017 169.91 551.78 169.91 551.608 172.655C551.501 174.354 549.705 172.037 547.616 167.507C545.527 162.977 543.795 160.49 543.765 161.981ZM984.216 162.359C983.534 163.492 983.654 165.578 984.483 166.992C985.556 168.827 985.041 168.778 982.683 166.815C979.133 163.863 975.085 165.164 975.344 169.173C975.458 170.942 975.785 170.907 976.514 169.052C977.071 167.637 978.386 166.478 979.438 166.478C980.605 166.478 980.646 167.876 979.54 170.081C978.547 172.064 978.181 174.972 978.727 176.545C979.333 178.293 978.837 178.847 977.453 177.967C976.205 177.177 975.171 177.743 975.155 179.226C975.131 181.207 974.559 181.102 972.996 178.832C971.103 176.088 970.957 176.088 971.687 178.832C972.139 180.531 973.337 181.935 974.348 181.952C975.36 181.97 977.306 182.714 978.675 183.603C980.443 184.756 980.784 184.153 979.859 181.513C979.145 179.473 979.297 178.491 980.2 179.329C981.101 180.169 983.012 179.858 984.445 178.637C985.884 177.414 988.213 177.165 989.646 178.081C993.764 180.716 999.267 181.069 999.267 178.699C999.267 177.506 998.418 177.068 997.383 177.727C996.345 178.384 995.454 177.28 995.402 175.274C995.141 165.316 994.704 164.386 991.523 167.025C989.088 169.047 988.771 169.041 989.969 166.992C990.953 165.314 990.212 164.408 987.846 164.388C984.768 164.361 984.673 164.052 987.226 162.359C989.034 161.161 989.283 160.352 987.846 160.331C986.532 160.315 984.898 161.227 984.216 162.359ZM170.535 166.663C173.06 171.502 174.796 171.852 173.046 167.17C172.091 164.616 172.49 164.176 174.613 165.44C176.185 166.377 176.761 166.346 175.9 165.376C175.041 164.406 173.02 163.414 171.41 163.173C169.131 162.829 168.938 163.599 170.535 166.663ZM149.496 167.933C148.408 170.868 148.637 171.105 150.619 169.087C151.992 167.688 152.608 166.027 151.99 165.395C151.372 164.76 150.25 165.903 149.496 167.933ZM184.935 167.625C178.878 171.976 179.329 176.061 186.271 179.745C191.892 182.726 192.101 182.658 193.056 177.533C194.132 171.755 192.825 164.419 190.72 164.419C189.99 164.419 187.387 165.862 184.935 167.625ZM1011.03 168.407C1007.29 171.555 1006.73 173.143 1008.39 175.931C1009.55 177.873 1012.49 180.218 1014.92 181.141C1019.05 182.712 1019.34 182.234 1019.34 173.619C1019.34 163.403 1017.98 162.553 1011.03 168.407ZM144.667 172.655C144.667 175.486 145.123 176.646 145.679 175.229C146.237 173.814 146.237 171.498 145.679 170.081C145.123 168.667 144.667 169.824 144.667 172.655ZM176.851 173.685C176.891 177.082 177.341 178.223 177.85 176.219C178.36 174.216 178.326 171.436 177.776 170.042C177.226 168.648 176.811 170.287 176.851 173.685ZM991.398 173.855C991.495 176.254 991.97 176.742 992.61 175.101C993.19 173.615 993.118 171.838 992.452 171.154C991.786 170.47 991.312 171.685 991.398 173.855ZM535.748 174.714C535.748 176.413 536.623 179.193 537.692 180.891C539.422 183.636 539.637 183.636 539.637 180.891C539.637 179.193 538.762 176.413 537.692 174.714C535.962 171.969 535.748 171.969 535.748 174.714ZM1022.65 177.737C1022.03 179.399 1022.38 181.307 1023.44 181.977C1024.49 182.646 1025.36 181.285 1025.36 178.954C1025.36 173.981 1024.24 173.481 1022.65 177.737ZM1069.92 188.3C1068.63 195.243 1066.97 202.572 1066.21 204.59C1064.94 207.979 1065.97 208.15 1079.72 206.822C1104.63 204.415 1135.7 199.601 1156.3 194.951C1175.4 190.643 1181.44 187.194 1170.35 186.945C1167.31 186.875 1144 184.314 1118.54 181.25L1072.25 175.68L1069.92 188.3ZM146.357 180.646C146.357 182.654 154.16 190.145 155 188.945C155.326 188.479 153.513 186.048 150.975 183.54C148.434 181.032 146.357 179.73 146.357 180.646ZM949.096 181.013C949.096 182.211 949.999 182.621 951.103 181.921C952.207 181.221 953.11 180.241 953.11 179.74C953.11 179.24 952.207 178.832 951.103 178.832C949.999 178.832 949.096 179.814 949.096 181.013ZM984.107 181.071C982.04 184.505 986.69 188.442 989.46 185.601C991.776 183.224 990.327 178.832 987.226 178.832C986.253 178.832 984.85 179.839 984.107 181.071ZM170.718 185.078C168.113 187.306 166.845 189.128 167.898 189.128C168.954 189.128 171.453 187.275 173.449 185.01C178.039 179.806 176.851 179.835 170.718 185.078ZM939.106 183.344C939.274 193.637 956.447 215.497 967.087 218.962C969.5 219.747 971.039 220.838 970.505 221.384C968.835 223.097 958.38 216.537 952.267 209.941C947.777 205.094 945.785 204.149 943.738 205.891C937.153 211.498 945.136 224.884 959.885 232.968C966.748 236.73 971.416 237.505 987.226 237.505C1003.04 237.505 1007.7 236.73 1014.57 232.968C1029.32 224.884 1037.3 211.498 1030.71 205.891C1028.67 204.149 1026.67 205.094 1022.19 209.941C1016.21 216.384 1005.63 223.109 1004.03 221.472C1003.55 220.976 1005.83 219.434 1009.09 218.044C1015.5 215.322 1023.37 207.66 1019.77 207.66C1018.55 207.66 1016.95 208.683 1016.2 209.933C1015.44 211.183 1011.1 213.944 1006.55 216.065C995.866 221.042 978.683 221.089 968.161 216.172C958.217 211.527 945.353 197.206 943.754 189.004C942.532 182.734 939.026 178.466 939.106 183.344ZM141.34 186.601C134.539 188.072 133.342 190.79 137.451 195.447C145.05 204.063 147.551 204.036 148.051 195.334C148.546 186.706 147.453 185.282 141.34 186.601ZM175.813 186.36C172.779 189.472 174.543 199.327 178.523 201.514C180.76 202.743 181.976 204.771 181.222 206.023C180.363 207.452 180.778 207.709 182.346 206.717C184.13 205.584 184.222 204.505 182.669 202.912C181.118 201.32 181.744 199.331 184.876 195.911C187.535 193.005 188.513 190.427 187.371 189.332C184.541 186.624 177.357 184.775 175.813 186.36ZM966.871 186.645C958.829 188.862 958.773 188.939 961.831 193.419C963.455 195.797 966.531 198.997 968.667 200.533C972.271 203.124 972.691 202.695 974.495 194.607C976.514 185.553 975.325 184.312 966.871 186.645ZM1001.15 187.147C999.466 188.216 999.279 190.866 1000.52 196.137L1002.28 203.612L1008.26 197.914C1011.55 194.78 1015.09 192.501 1016.12 192.847C1017.16 193.195 1016.93 192.138 1015.6 190.501C1012.72 186.941 1004.49 185.03 1001.15 187.147ZM160.03 190.534C161.477 191.129 163.208 191.055 163.875 190.372C164.541 189.688 163.357 189.202 161.242 189.291C158.904 189.389 158.428 189.877 160.03 190.534ZM539.761 190.157C539.761 191.29 540.636 193.606 541.706 195.305C542.776 197.004 543.651 197.467 543.651 196.335C543.651 195.202 542.776 192.886 541.706 191.187C540.636 189.488 539.761 189.025 539.761 190.157ZM984.844 190.534C986.291 191.129 988.023 191.055 988.689 190.372C989.355 189.688 988.171 189.202 986.056 189.291C983.718 189.389 983.243 189.877 984.844 190.534ZM128.295 194.024C128.295 194.451 129.875 196.073 131.807 197.628C134.99 200.187 135.06 200.115 132.566 196.85C129.943 193.419 128.295 192.33 128.295 194.024ZM155.619 198.322C153.836 201.112 152.377 203.892 152.377 204.499C152.377 205.105 156.441 205.601 161.408 205.601C171.28 205.601 171.988 204.668 167.314 197.824C163.257 191.877 159.636 192.031 155.619 198.322ZM241.233 200.352L239.047 207.66H250.025H261.002L260.372 200.968C259.788 194.741 259.178 194.232 251.582 193.66C243.797 193.075 243.318 193.386 241.233 200.352ZM956.301 195.007C955.717 195.974 957.695 198.985 960.698 201.699L966.154 206.63L961.621 201.33C959.126 198.415 957.697 195.404 958.444 194.638C959.188 193.872 959.251 193.246 958.58 193.246C957.908 193.246 956.883 194.039 956.301 195.007ZM982.52 197.012C977.138 203.113 978.5 205.601 987.226 205.601C996.137 205.601 997.72 202.351 991.583 196.654C986.993 192.392 986.582 192.406 982.52 197.012ZM1013.16 200.968L1008.3 206.63L1013.82 201.639C1016.85 198.892 1019.34 196.345 1019.34 195.977C1019.34 194.36 1017.71 195.676 1013.16 200.968ZM268.775 202.459C268.775 207.209 269.513 207.658 277.304 207.629C286.302 207.596 285.981 206.818 274.293 200.325C268.941 197.35 268.775 197.416 268.775 202.459ZM555.254 205.28C553.755 211.164 557.616 223.587 559.812 219.94C560.867 218.19 561.768 218.81 562.742 221.956C563.514 224.456 564.57 226.068 565.086 225.539C565.601 225.01 564.6 221.085 562.862 216.817C561.124 212.548 560.227 207.12 560.869 204.754C561.708 201.664 561.503 201.244 560.143 203.26C558.571 205.586 558.094 205.595 557.351 203.313C556.813 201.656 555.979 202.438 555.254 205.28ZM968.629 207.915C969.991 209.324 971.611 209.956 972.227 209.322C972.845 208.687 971.731 207.536 969.753 206.762C966.893 205.646 966.662 205.881 968.629 207.915ZM1003.28 207.66C1001.47 208.858 1001.22 209.668 1002.66 209.688C1003.98 209.705 1005.61 208.792 1006.29 207.66C1007.83 205.103 1007.14 205.103 1003.28 207.66ZM151.374 209.719C148.103 211.162 147.986 211.515 150.754 211.634C152.62 211.712 154.705 210.852 155.388 209.719C156.815 207.351 156.744 207.351 151.374 209.719ZM167.429 209.719C168.111 210.852 169.572 211.778 170.676 211.778C171.78 211.778 172.125 210.852 171.443 209.719C170.76 208.587 169.299 207.66 168.195 207.66C167.092 207.66 166.746 208.587 167.429 209.719ZM555.816 208.689C555.816 209.822 556.691 212.139 557.761 213.837C558.83 215.536 559.705 215.999 559.705 214.867C559.705 213.734 558.83 211.418 557.761 209.719C556.691 208.02 555.816 207.557 555.816 208.689ZM977.192 209.719C975.384 210.917 975.135 211.727 976.572 211.747C977.886 211.764 979.52 210.852 980.202 209.719C981.741 207.162 981.047 207.162 977.192 209.719ZM994.718 209.974C996.08 211.383 997.7 212.015 998.316 211.381C998.934 210.747 997.82 209.595 995.841 208.821C992.982 207.705 992.751 207.94 994.718 209.974ZM242.184 211.208C245.77 211.665 251.642 211.665 255.228 211.208C258.815 210.753 255.881 210.378 248.706 210.378C241.532 210.378 238.598 210.753 242.184 211.208ZM274.33 211.212C277.936 211.669 283.354 211.661 286.371 211.191C289.387 210.72 286.435 210.345 279.812 210.357C273.19 210.368 270.723 210.753 274.33 211.212ZM240.133 215.324C243.695 215.779 250.017 215.785 254.181 215.34C258.343 214.894 255.429 214.523 247.703 214.513C239.976 214.504 236.569 214.869 240.133 215.324ZM274.249 215.324C277.811 215.779 284.133 215.785 288.297 215.34C292.459 214.894 289.546 214.523 281.819 214.513C274.093 214.504 270.685 214.869 274.249 215.324ZM238.126 219.442C241.688 219.897 248.01 219.903 252.174 219.459C256.336 219.012 253.422 218.641 245.696 218.631C237.97 218.623 234.562 218.987 238.126 219.442ZM271.434 219.432C272.196 220.698 269.409 222.103 264.54 222.901C257.422 224.069 240.679 231.241 240.679 233.121C240.679 233.489 245.702 232.05 251.839 229.923C280.549 219.98 340.7 220.894 421.044 232.495C436.91 234.787 450.258 236.284 450.707 235.824C451.914 234.587 402.206 226.711 371.09 223.21C334.427 219.084 269.748 216.631 271.434 219.432ZM144.35 221.979C146.006 223.13 149.09 224.083 151.207 224.102C156.341 224.143 154.74 222.965 147.36 221.271C142.963 220.262 142.153 220.453 144.35 221.979ZM172.446 222.074C168.312 223.433 168.135 223.754 171.443 223.896C173.65 223.991 176.811 223.171 178.466 222.074C181.982 219.743 179.542 219.743 172.446 222.074ZM748.219 222.1C743.145 222.98 735.018 225.663 730.157 228.062C725.296 230.461 723.125 231.842 725.332 231.136C757.673 220.768 801.647 220.074 842.733 229.283C849.908 230.891 858.035 232.695 860.795 233.294C863.554 233.893 860.622 232.577 854.281 230.372C829.351 221.705 774.94 217.461 748.219 222.1ZM1147.14 223.523C1127.52 227.395 1128.1 229.184 1147.95 226.025C1167.37 222.932 1194.94 224.337 1203.78 228.869C1210.47 232.299 1210.54 232.291 1207.17 228.465C1199.65 219.947 1175.39 217.949 1147.14 223.523ZM940.988 226.037C946.67 236.93 967.862 247.022 984.033 246.536L992.243 246.289L983.212 244.306C967.854 240.935 957.238 236.337 947.858 228.99C941.354 223.896 939.443 223.074 940.988 226.037ZM974.81 223.48C976.257 224.075 977.989 224.001 978.655 223.317C979.321 222.634 978.137 222.148 976.022 222.236C973.684 222.335 973.208 222.823 974.81 223.48ZM996.885 223.48C998.332 224.075 1000.06 224.001 1000.73 223.317C1001.4 222.634 1000.21 222.148 998.097 222.236C995.759 222.335 995.284 222.823 996.885 223.48ZM122.68 232.901C132.901 242.893 143.692 246.968 158.785 246.536L167.429 246.289L158.398 244.244C139.728 240.017 135.159 238.489 129.299 234.5C125.987 232.248 121.02 228.891 118.261 227.04C115.502 225.189 117.49 227.827 122.68 232.901ZM160.03 225.539C161.477 226.134 163.208 226.06 163.875 225.377C164.541 224.693 163.357 224.207 161.242 224.296C158.904 224.394 158.428 224.882 160.03 225.539ZM984.718 225.496C986.098 226.068 988.356 226.068 989.735 225.496C991.115 224.926 989.986 224.458 987.226 224.458C984.467 224.458 983.339 224.926 984.718 225.496ZM1125.32 229.657C1126.77 230.253 1128.5 230.178 1129.17 229.495C1129.83 228.811 1128.65 228.325 1126.54 228.414C1124.2 228.513 1123.72 229.001 1125.32 229.657ZM455.036 237.894C456.483 238.489 458.215 238.415 458.881 237.731C459.548 237.048 458.364 236.562 456.248 236.65C453.91 236.749 453.435 237.237 455.036 237.894Z" fill="black" stroke="black" stroke-width="2" mask="url(#path-5-inside-1_4002_5)"/>
</svg>
