<svg width="1305" height="273" viewBox="0 0 1305 273" fill="none" xmlns="http://www.w3.org/2000/svg">
<path d="M342 213.5L345 198.5L294 182.5H255L261 216H339.5L342 213.5Z" fill="#8F8F8F" stroke="#8F8F8F"/>
<path d="M179 131.5L232 157L230.5 201V224L219 250.5L173.5 256L143.5 252.5L123 238L100 223V150L143.5 131.5H179Z" fill="#8F8F8F"/>
<path d="M1051 132.5L1082 139.5L1136 164.5V229.5L1097 260L1040.5 252.5L1018 238H1005.5L1001.5 182.5L1010.5 162L1021.5 139.5L1051 132.5Z" fill="#8F8F8F"/>
<path d="M179 131.5L232 157L230.5 201V224L219 250.5L173.5 256L143.5 252.5L123 238L100 223V150L143.5 131.5H179Z" stroke="#F8F8F8"/>
<path d="M1051 132.5L1082 139.5L1136 164.5V229.5L1097 260L1040.5 252.5L1018 238H1005.5L1001.5 182.5L1010.5 162L1021.5 139.5L1051 132.5Z" stroke="#F8F8F8"/>
<path d="M213.5 137L154.5 119.5L187.5 107.5L213.5 114L234.5 137L241 153.5L213.5 137Z" fill="white"/>
<path d="M148 264.5L126 254.5L111.746 238.867L119.5 237.5L128.5 246L161.5 256.5L183.5 259L148 264.5Z" fill="white"/>
<path d="M555 80L561 76L589 53.5L597.5 52.5L604.5 53.5L614.5 56L623 63L630 70L635 77.5L637.5 87.5L643 103L645 114L643 124.5H635L630 119.5L617.5 104.5L598.5 93H580L556 96.5L554 95V89L555 80Z" fill="white"/>
<path d="M711.5 140L704 143.5L694 138L708.5 115.5L716 102.5L710.5 100.5L709.5 93L710.5 83.5L715 82.5L724.5 84.5L730 87L731 87.5L733 90.5V93.5V96L723.5 102L715 128L711.5 140Z" fill="white"/>
<path d="M1035 263.5L1011 243L1006 229L1037 250.5L1063 256.5L1075.5 258.5V265L1035 263.5Z" fill="white"/>
<path d="M1130.5 151.5L1060 122L1059 109L1094.5 110L1111 118.5L1130.5 136.5V151.5Z" fill="white"/>
<path d="M110.5 237.5L111.746 238.867M111.746 238.867L126 254.5L148 264.5L183.5 259L161.5 256.5L128.5 246L119.5 237.5L111.746 238.867ZM154.5 119.5L213.5 137L241 153.5L234.5 137L213.5 114L187.5 107.5L154.5 119.5ZM561 76L555 80L554 89V95L556 96.5L580 93H598.5L617.5 104.5L630 119.5L635 124.5H643L645 114L643 103L637.5 87.5L635 77.5L630 70L623 63L614.5 56L604.5 53.5L597.5 52.5L589 53.5L561 76ZM704 143.5L711.5 140L715 128L723.5 102L733 96V93.5V90.5L731 87.5L730 87L724.5 84.5L715 82.5L710.5 83.5L709.5 93L710.5 100.5L716 102.5L708.5 115.5L694 138L704 143.5ZM1011 243L1035 263.5L1075.5 265V258.5L1063 256.5L1037 250.5L1006 229L1011 243ZM1060 122L1130.5 151.5V136.5L1111 118.5L1094.5 110L1059 109L1060 122Z" stroke="white"/>
<path d="M553 96L589 86.5L613 101.5L637 137H640L700 126.5L697 133.5L693.5 136L697 140.5H711L720 117.5L728.5 111L746.5 98.5H753L762.5 104L934 112.5L970 115L1009 118L1016 122.5L990 159.5L1000.5 231.5L927.5 227.5L900.5 237.5L833.5 221L742 250.5L700.5 257L640.5 261L509.5 258.5H376L238 200V107L403 111.5L553 96Z" fill="#47438A" stroke="#47438A"/>
<path d="M227.5 128.5L216 96H221L227.5 65.5L287.5 40.5L393 3.5H398.5L501.5 1H515L522.5 2.5L527.5 1L545.5 3.5L551 10L553 51L549 53.5L535 55.5V96L257.5 130.5L234.5 133.5L227.5 128.5Z" fill="#47438A" stroke="#47438A"/>
<path d="M199 93.5L203 97L205.5 109H165L141 112L86.5 167.5H2.5V13.5H4.5H162.5L165 16L199 50V93.5Z" fill="#76749A"/>
<path d="M270 165L248.5 114L283 133.68L275.5 127L284 133H292.5H399.5L506.5 134L575 135.5L601.5 148L629.5 181.5L535 185L470 181.5L376.5 185L362.5 179.93L412.5 209.5L270 165Z" fill="#76749A"/>
<path d="M353 197.5L376.5 202.5L360.468 235.798L396 243L399.5 246.5L355 248.5L356.689 243.012L265 246.5L246 214.5H265L347 216L353 197.5Z" fill="#76749A"/>
<path d="M1271.5 246.5L1146 223V156L1204 168L1298 197.5V223L1271.5 246.5Z" fill="#76749A"/>
<path d="M362.5 179.93L412.5 209.5L270 165L248.5 114L283 133.68M362.5 179.93L376.5 185L470 181.5L535 185L629.5 181.5L601.5 148L575 135.5L506.5 134L399.5 133H292.5H284L275.5 127L283 133.68M362.5 179.93L341 167.215L319.5 154.5L283 133.68M203 97L199 93.5V50L165 16L162.5 13.5H4.5H2.5V167.5H86.5L141 112L165 109H205.5L203 97ZM353 197.5L376.5 202.5L357 243L265 246.5L246 214.5H265L347 216L353 197.5ZM399.5 246.5L396 243L359 235.5L355 248.5L399.5 246.5ZM1146 223L1271.5 246.5L1298 223V197.5L1204 168L1146 156V223Z" stroke="#E4DBD4"/>
<mask id="path-9-inside-1_4002_6" fill="white">
<path fill-rule="evenodd" clip-rule="evenodd" d="M395.134 1.20593C391.349 1.65215 351.148 16.0581 305.798 33.2192L223.34 64.4179L222.687 76.0873L222.033 87.7566H211.247H200.462L200.407 67.7994L200.353 47.8422L182.771 29.932L165.189 12.0217H82.5945H0V90.8269V169.632H39.9834H79.9667L78.9404 184.634C76.5872 219.097 96.4242 250.632 130.313 266.292C144.167 272.693 145.975 273 169.922 273C192.65 273 196.202 272.478 207.611 267.455C214.54 264.405 225.879 256.83 232.808 250.619C246.143 238.672 246.232 238.657 256.972 246.773C257.493 247.166 254.349 250.926 249.982 255.127L242.044 262.766L464.748 262.542L687.452 262.319L744.104 253.037C775.263 247.932 800.977 243.942 801.247 244.17C801.517 244.397 790.241 249.135 776.189 254.697L750.641 264.812L840.934 265.347C890.594 265.641 931.891 265.181 932.704 264.323C933.517 263.468 935.787 258.215 937.748 252.652L941.317 242.538L935.314 236.586L929.313 230.633L957.537 232.13L985.763 233.626L1000.03 247.355C1009.1 256.085 1019.05 263.253 1027.37 267.041C1039.48 272.564 1042.27 273 1065.5 273C1089.05 273 1091.41 272.617 1104.72 266.634C1112.51 263.132 1123.48 256.422 1129.11 251.723C1137.54 244.673 1140.69 243.263 1147.08 243.666C1151.35 243.936 1154.83 244.628 1154.83 245.203C1154.83 245.778 1150.21 250.656 1144.57 256.044L1134.3 265.836H1215.38H1296.46V260.975C1296.46 249.418 1293.87 243.668 1288.06 242.297C1282.44 240.97 1282.4 240.872 1286.66 237.974C1289.06 236.342 1294.32 232.091 1298.36 228.527C1305.49 222.241 1305.67 221.693 1304.38 210.116C1301.79 186.812 1309.79 190.826 1225.23 170.406L1149.98 152.234L1141.6 140.706C1125.3 118.265 1101.85 105.96 1072.63 104.51C1052.8 103.53 1039.33 105.974 1023.55 113.414C1013.57 118.118 1012.7 118.19 999.58 115.41C991.378 113.674 941.346 110.409 873.751 107.204C783.927 102.944 760.298 101.241 755.328 98.6767C748.552 95.1786 749.898 94.6218 728.307 109.855C720.385 115.445 720.31 115.396 723.542 106.688C724.814 103.256 727.83 99.9642 730.24 99.3726C733.537 98.5621 734.445 96.9041 733.916 92.6711C733.528 89.5803 731.959 86.8171 730.432 86.5325C728.904 86.248 728.658 86.4854 729.887 87.0565C731.116 87.6296 732.12 89.8014 732.12 91.8831C732.12 95.7026 730.297 96.5889 717.413 99.0247C710.364 100.357 710.331 100.324 710.331 92.1635C710.331 86.0741 711.314 83.7221 714.144 83.0262C717.014 82.3221 716.744 82.0314 713.055 81.8533C708.523 81.6343 708.152 82.4858 708.152 93.0928C708.152 102.768 708.699 104.373 711.636 103.313C714.218 102.384 713.582 104.578 709.181 111.793C705.912 117.15 702.138 122.545 700.794 123.786C699.447 125.028 684.757 128.189 668.149 130.809L637.949 135.576L633.979 130.631C631.796 127.91 630.251 125.456 630.55 125.178C630.846 124.899 634.186 125.505 637.971 126.525C644.601 128.312 644.933 128.105 647.075 120.861C649.724 111.898 649.901 107.407 647.687 105.325C646.787 104.482 646.009 103.176 645.955 102.427C645.458 95.5265 641.501 83.1961 637.265 75.3422C627.832 57.8577 612.384 49.7193 591.684 51.3302C568.498 53.1376 553.786 66.4853 552.81 86.598C552.463 93.756 551.515 95.9196 548.724 95.9298C546.724 95.938 543.538 96.5029 541.643 97.1866C538.64 98.2694 538.196 95.7844 538.196 77.9683V57.5097L545.611 56.2018C549.69 55.4833 553.472 53.768 554.017 52.3925C554.562 51.0149 554.411 39.9126 553.681 27.7193C552.566 9.00868 551.698 5.09707 548.129 2.6449C544.658 0.260277 531.188 -0.200279 472.956 0.0678636C433.936 0.24799 398.916 0.759711 395.134 1.20593ZM398.489 3.93445C391.379 4.93947 357.595 16.5576 317.869 31.6575C280.258 45.9509 244.341 59.5852 238.052 61.9555C228.33 65.6194 226.617 67.0687 226.613 71.6373C226.611 74.593 225.996 79.8883 225.247 83.4069L223.885 89.8035H290.708H357.534L383.524 74.9635C397.818 66.8005 408.632 59.8391 407.554 59.4911C406.006 58.9896 290.562 69.9814 249.487 74.5377C244.694 75.0699 241.752 75.0679 242.951 74.5337C246.217 73.0783 372.97 54.9654 394.981 52.81C412.484 51.0947 415.328 50.1593 428.731 41.7139L443.366 32.4906H480.709C511.761 32.4906 518.524 31.9563 520.851 29.322C524.346 25.3653 531.53 26.2148 534.694 30.9554C539.732 38.5043 526.933 46.6387 520.851 39.7529C518.533 37.1288 511.92 36.5844 482.341 36.5844H446.63L435.799 43.2367C429.844 46.8966 424.952 50.3497 424.931 50.9126C424.911 51.4755 428.569 51.8091 433.064 51.6515C437.557 51.4959 465.992 51.2667 496.251 51.1398L551.269 50.9126V30.8347C551.269 0.401518 557.658 2.86798 477.909 2.50773C440.959 2.33988 405.22 2.98265 398.489 3.93445ZM3.69546 15.3724C2.86093 16.1564 2.17893 25.8545 2.17893 36.9262V57.0532L48.4812 57.0327L94.7834 57.0143L104.351 49.8686C113.322 43.1692 114.915 42.725 129.954 42.725C138.772 42.725 145.988 41.8653 145.988 40.8152C145.988 37.6098 154.715 36.0911 158.077 38.7131C159.818 40.0702 161.241 43.3514 161.241 46.0062C161.241 52.3106 151.035 55.3195 147.043 50.19C145.091 47.6826 140.933 46.8188 130.81 46.8188C118.741 46.8188 116.189 47.572 108.264 53.4712L99.3309 60.1236L51.3007 61.147L3.26839 62.1705L2.68662 113.854L2.10485 165.538H42.4521C69.4904 165.538 82.7993 164.82 82.7993 163.363C82.7993 162.165 85.4119 156.174 88.6062 150.048C95.9906 135.879 115.967 117.891 132.302 110.7C143.805 105.636 147.171 105.155 171.046 105.155H197.193L196.537 76.0586L195.881 46.9621L179.106 30.6013L162.33 14.2405L83.7711 14.0952C40.5651 14.0133 4.52999 14.5885 3.69546 15.3724ZM600.711 56.1853C611.948 60.0928 627.346 75.0781 622.867 77.7432C620.692 79.0389 620.629 79.5137 622.629 79.5383C626.828 79.5854 625.965 89.392 621.694 90.1658C618.337 90.7737 618.358 91.1278 621.954 94.5072C627.854 100.048 624.653 100.83 615.003 96.2041C604.378 91.1135 597.517 82.2893 601.502 78.8383C603.55 77.0636 603.832 77.1168 602.666 79.0573C600.94 81.927 604.81 82.6434 606.679 79.8003C608.311 77.3195 602.838 73.3178 600.221 75.0802C593.087 79.8842 603.054 93.672 617.722 99.2928C624.969 102.07 627.996 104.5 628.846 108.225C631.086 118.055 634.005 122.554 638.143 122.554C645.164 122.554 645.654 113.637 639.649 95.1417C631.009 68.5342 620.167 57.5629 599.206 54.2224C591.887 53.0557 591.948 53.1355 600.711 56.1853ZM391.216 76.4987L362.792 92.8738L294.155 93.8972L225.519 94.9207L224.857 106.975C224.269 117.686 224.842 119.663 229.999 124.719C234.897 129.523 237.039 130.232 243.735 129.263C248.097 128.631 251.98 127.874 252.364 127.579C252.747 127.286 250.978 123.213 248.435 118.529C243.84 110.066 243.837 110.027 248.261 112.25C250.71 113.482 252.477 115.248 252.189 116.178C251.902 117.107 255.989 126.203 261.273 136.393L270.882 154.917L335.213 179.639C370.595 193.235 399.768 204.147 400.043 203.883C400.317 203.621 367.304 184.126 326.683 160.56C286.059 136.997 253.211 117.348 253.688 116.9C254.166 116.452 258.438 118.184 263.182 120.748L271.806 125.413L334.732 116.749C369.339 111.984 427.423 103.972 463.807 98.9449C500.191 93.9177 530.831 89.8035 531.898 89.8035C535.071 89.8035 534.295 63.2328 531.114 62.9585C529.617 62.8275 503.921 62.1377 474.015 61.4234L419.642 60.1236L391.216 76.4987ZM555.627 88.4382C555.627 92.5668 556.584 95.9441 557.752 95.9441C558.972 95.9441 559.303 93.1133 558.527 89.2917C556.638 79.9641 555.627 79.6673 555.627 88.4382ZM720.818 85.0608C722.389 85.6524 724.27 85.5787 724.993 84.8991C725.716 84.2195 724.431 83.7365 722.134 83.8245C719.596 83.9228 719.079 84.4079 720.818 85.0608ZM439.054 110.475C361.158 119.33 293.238 127.112 288.122 127.767C259.857 131.384 296.197 132.287 428.754 131.259C538.882 130.408 578.397 130.727 584.182 132.522C595.14 135.918 602.019 142.918 631.338 180.507C645.554 198.731 662.806 220.78 669.681 229.504C690.662 256.138 681.648 247.176 655.784 215.687L631.406 186.007H597.942C568.912 186.007 564.648 186.419 565.748 189.114C567.735 193.978 562.469 210.813 556.337 219.202C553.065 223.678 546.218 228.943 539.701 231.995C509.632 246.071 475.379 228.345 471.383 196.639L470.041 186.007H423.499C397.899 186.007 376.955 186.361 376.955 186.793C376.955 187.225 387.194 193.417 399.709 200.554C412.225 207.692 422.122 213.855 421.701 214.248C421.281 214.643 418.062 213.569 414.548 211.861C408.458 208.904 380.892 202.096 379.665 203.246C379.345 203.547 376.754 211.075 373.909 219.975C369.213 234.652 369.065 236.291 372.298 237.607C374.259 238.406 402.339 242.767 434.696 247.301C492.344 255.38 495.279 255.585 580.685 257.468C658.176 259.177 670.258 259.012 689.631 255.976C701.615 254.097 711.73 251.915 712.107 251.125C712.484 250.337 714.07 250.153 715.632 250.716C717.197 251.278 726.941 250.351 737.291 248.654C751.225 246.37 766.417 241.367 795.863 229.373L835.62 213.174L842.962 218.854L850.303 224.534L867.419 217.652C876.832 213.867 886.456 209.804 888.805 208.623C896.25 204.88 900.578 206.239 910.719 215.511L920.598 224.544L944.259 226.003L967.922 227.465L966.449 218.506C962.61 195.13 963.786 196.974 948.793 190.84C941.169 187.718 935.231 184.883 935.6 184.538C935.968 184.192 944.019 185.301 953.491 187.004C975.478 190.957 975.132 190.985 975.638 185.242C976.047 180.605 975.132 180.266 955.694 177.848C935.937 175.392 928.102 173.159 930.697 170.721C931.388 170.07 941.616 170.903 953.423 172.569C965.231 174.236 975.008 175.408 975.147 175.173C975.289 174.94 977.668 168.762 980.436 161.445C986.107 146.449 994.736 133.646 1004.22 126.146L1010.63 121.08L1002.66 118.736C998.237 117.439 951.434 114.618 897.719 112.411C844.39 110.221 790.871 107.871 778.791 107.19L756.825 105.951L739.487 118.857C729.95 125.956 720.226 132.807 717.875 134.08C713.362 136.526 712.349 146.404 715.434 157.863L716.951 163.491H796.146C872.304 163.491 875.557 163.332 880.937 159.357C884.016 157.083 886.844 153.263 887.223 150.866C888.188 144.777 894.451 141.375 899.353 144.275C907.892 149.327 903.949 159.398 893.433 159.398C890.169 159.398 885.724 161.24 883.556 163.491C879.747 167.444 876.845 167.585 799.329 167.585C729.421 167.585 719.047 167.982 719.047 170.656C719.047 172.344 720.518 173.726 722.315 173.726C724.113 173.726 725.584 175.421 725.584 177.492C725.584 180.368 722.742 181.899 713.586 183.962C706.989 185.45 701.186 186.286 700.691 185.821C700.195 185.356 699.114 182.444 698.288 179.351C696.894 174.129 697.264 173.726 703.489 173.726C708.553 173.726 709.887 172.975 708.941 170.656C707.932 168.187 703.038 167.585 683.951 167.585C669.581 167.585 660.216 166.777 660.216 165.538C660.216 164.31 668.931 163.491 682.005 163.491C693.989 163.491 703.794 163.113 703.794 162.65C703.794 162.188 701.698 156.661 699.133 150.369C696.109 142.943 693.242 138.951 690.963 138.99C689.032 139.025 678.137 140.783 666.752 142.896C655.368 145.01 645.314 146.087 644.414 145.286C643.512 144.486 654.555 141.698 668.955 139.093C692.368 134.855 699.694 132.348 696.745 129.579C696.222 129.087 682.663 130.97 666.609 133.76L637.422 138.835L632.683 133.253C630.077 130.182 626.872 127.556 625.56 127.415C624.248 127.274 622.684 126.928 622.084 126.647C621.485 126.367 618.053 126.021 614.458 125.88C610.863 125.739 607.921 124.934 607.921 124.089C607.921 122.617 608.841 122.257 611.19 122.81C611.789 122.951 613.996 123.194 616.092 123.352C618.188 123.51 621.132 124.371 622.629 125.264C626.756 127.726 625.887 123.618 621.54 120.114C619.444 118.423 615.192 117.209 612.098 117.416C608.743 117.639 606.468 116.722 606.468 115.146C606.468 113.691 607.531 113.124 608.83 113.887C612.366 115.967 616.637 116.266 616.637 114.436C616.637 112.405 609.871 107.032 608.154 107.695C607.453 107.968 606.867 106.586 606.856 104.625C606.828 100.365 593.863 93.8051 586.132 94.1408C583.136 94.2697 516.951 101.62 439.054 110.475ZM732.957 109.888C725.629 115.166 718.574 122.095 717.28 125.288C714.172 132.952 715.865 132.254 739.367 116.2C752.034 107.548 757.335 102.793 755.52 101.712C750.528 98.732 746.347 100.247 732.957 109.888ZM715.645 107.744C712.523 109.777 697.257 133.762 697.257 136.638C697.257 137.897 700.118 138.929 703.616 138.929C709.536 138.929 710.311 137.973 714.831 125.112C717.5 117.514 720.136 110.145 720.688 108.737C721.797 105.912 719.236 105.409 715.645 107.744ZM172.68 112.651C164.067 116.765 167.021 119.85 180.877 121.209C195.189 122.615 205.689 126.905 218.738 136.679C223.397 140.167 228.053 143.023 229.088 143.023C232.416 143.023 231.097 137.666 226.064 130.741C216.045 116.955 185.405 106.572 172.68 112.651ZM1070.1 112.862C1063.63 116.006 1063.73 119.32 1070.31 119.997C1088.44 121.866 1099.02 125.495 1111 133.957C1118.06 138.943 1124.44 143.023 1125.17 143.023C1125.91 143.023 1126.51 141.023 1126.51 138.579C1126.51 132.102 1109.31 117.569 1096.98 113.623C1084.53 109.64 1077.16 109.431 1070.1 112.862ZM606.468 131.589C606.468 133.15 610.039 133.924 616.456 133.754C621.949 133.609 627.913 134.483 629.711 135.697C632.467 137.559 632.554 137.394 630.266 134.638C628.761 132.823 624.889 131.546 621.551 131.763C618.25 131.978 614.567 131.63 613.369 130.993C609.39 128.874 606.468 129.126 606.468 131.589ZM243.992 138.867C249.078 145.575 252.449 148.087 254.183 146.459C256.007 144.744 245.696 132.788 242.393 132.788C240.194 132.788 240.626 134.426 243.992 138.867ZM325.406 157.13L364.282 179.867H418.392H472.501L477.567 171.257C480.354 166.523 486.884 159.846 492.081 156.417C500.659 150.76 503.1 150.187 518.585 150.187C534.019 150.187 536.526 150.772 544.944 156.329C550.197 159.797 556.207 166.216 558.749 171.073L563.253 179.676L594.469 179.77L625.682 179.867L612.303 165.725C594.558 146.967 585.943 141.676 568.701 138.943C560.127 137.584 501.659 136.243 420.533 135.545L286.529 134.395L325.406 157.13ZM161.786 138.292C163.884 138.808 167.313 138.808 169.412 138.292C171.51 137.778 169.793 137.357 165.599 137.357C161.404 137.357 159.687 137.778 161.786 138.292ZM606.712 139.111C605.259 141.322 605.549 141.404 616.092 141.774C620.587 141.932 625.42 142.754 626.837 143.6C628.251 144.445 630.055 144.154 630.844 142.957C631.824 141.465 633.419 141.614 635.897 143.434C639.043 145.745 639.167 145.673 636.853 142.881C635.162 140.843 631.179 139.784 625.959 139.985C621.431 140.159 616.746 139.788 615.548 139.162C611.791 137.195 607.987 137.173 606.712 139.111ZM1058.44 138.329C1061.15 138.818 1065.07 138.8 1067.16 138.288C1069.24 137.776 1067.02 137.375 1062.23 137.398C1057.43 137.42 1055.73 137.84 1058.44 138.329ZM187.094 146.173C191.125 147.818 195.047 149.13 195.809 149.092C198.644 148.942 186.17 143.168 183.03 143.176C181.232 143.18 183.061 144.529 187.094 146.173ZM129.509 153.769L123.11 160.421L130.191 154.409C134.085 151.104 137.273 148.109 137.273 147.757C137.273 146.175 135.475 147.569 129.509 153.769ZM206.998 152.234C209.813 155.048 212.607 157.351 213.206 157.351C213.805 157.351 211.992 155.048 209.177 152.234C206.362 149.419 203.569 147.116 202.969 147.116C202.37 147.116 204.183 149.419 206.998 152.234ZM613.652 149.088C614.295 149.691 617.681 150.301 621.176 150.443C624.673 150.584 627.778 150.911 628.076 151.173C628.375 151.435 632.317 151.845 636.834 152.082C642.582 152.385 644.357 151.869 642.754 150.363C641.492 149.178 634.164 148.158 626.471 148.099C618.777 148.037 613.007 148.484 613.652 149.088ZM620.189 157.275C620.832 157.879 623.237 158.489 625.534 158.63C627.83 158.771 630.201 159.117 630.8 159.398C631.399 159.678 635.568 160.038 640.061 160.196C644.556 160.354 649.702 161.291 651.5 162.276C653.67 163.465 653.472 162.779 650.914 160.233C647.95 157.283 643.817 156.37 633.038 156.286C625.327 156.225 619.544 156.671 620.189 157.275ZM1154.12 164.005C1156.38 172.342 1156.48 205.625 1154.26 213.065C1152.82 217.908 1153.46 219.046 1159.23 221.846C1167.37 225.803 1169.52 224.702 1171.33 215.632C1173.01 207.221 1168.29 206.55 1222.4 222.913L1262.11 234.924L1276.07 229.674C1283.75 226.785 1291.48 222.483 1293.25 220.11C1297.19 214.829 1297.44 202.376 1293.71 197.582C1291.87 195.222 1268.85 188.277 1224.53 176.714C1187.99 167.184 1156.8 158.929 1155.21 158.37C1152.95 157.58 1152.71 158.829 1154.12 164.005ZM119.741 165.714C118.403 168.062 117.719 170.369 118.222 170.84C118.723 171.311 120.253 169.391 121.619 166.57C124.622 160.38 123.16 159.713 119.741 165.714ZM626.743 165.995C627.342 166.906 628.678 167.162 629.711 166.562C630.743 165.962 632.086 166.228 632.694 167.151C633.302 168.076 638.518 168.709 644.283 168.56C650.051 168.41 656.239 169.28 658.037 170.494C660.858 172.399 660.904 172.221 658.372 169.186C656.76 167.252 654.799 165.749 654.014 165.845C653.23 165.944 652.099 165.809 651.5 165.549C648.36 164.177 625.815 164.584 626.743 165.995ZM178.666 173.214C178.661 174.06 175.426 174.811 171.473 174.886C167.52 174.96 162.376 175.803 160.04 176.755C157.704 177.709 155.303 178.614 154.704 178.767C145.019 181.234 143.966 182.206 146.594 186.261C148.875 189.778 148.518 190.936 144.112 194.328C137.277 199.59 135.094 199.322 135.094 193.214C135.094 188.496 134.699 188.31 129.433 190.564C124.515 192.67 123.933 193.904 124.983 199.99C127.352 213.698 143.635 228.879 159.474 232.146C166.788 233.657 170.336 231.763 165.535 228.912C163.773 227.864 163.234 226.994 164.337 226.976C165.442 226.959 168.141 228.472 170.336 230.337C178.698 237.448 202.479 224.88 211.245 208.717C215.03 201.74 216.636 183.817 214.243 175.261C213.143 171.325 201.727 170.148 199.372 173.726C198.631 174.852 194.652 175.773 190.528 175.773C186.403 175.773 183.03 174.852 183.03 173.726C183.03 172.6 182.05 171.679 180.851 171.679C179.653 171.679 178.67 172.369 178.666 173.214ZM634.136 174.608C635.417 175.812 642.544 176.796 649.975 176.796C660.529 176.796 663.484 177.468 663.484 179.867C663.484 181.985 661.122 182.978 655.858 183.07C651.663 183.144 647.251 182.708 646.053 182.104C641.459 179.789 638.123 180.127 640.379 182.681C641.693 184.167 647.654 185.068 655.208 184.92C662.157 184.785 669.271 185.665 671.017 186.877C672.764 188.087 671.537 185.766 668.291 181.717C663.776 176.086 660.985 174.45 656.4 174.747C653.106 174.962 649.43 174.614 648.232 173.978C647.033 173.339 642.847 172.727 638.93 172.619C633.875 172.477 632.482 173.055 634.136 174.608ZM1067.92 174.004C1062.65 174.913 1056.36 177.296 1053.92 179.297C1051.49 181.299 1050.2 181.799 1051.07 180.405C1052.21 178.577 1051.44 178.292 1048.3 179.381C1043.98 180.884 1043.32 182.683 1045.31 187.54C1045.88 188.947 1043.3 192.77 1039.58 196.037C1033.56 201.326 1032.81 201.537 1032.81 197.965C1032.81 195.759 1031.92 194.469 1030.84 195.099C1029.75 195.732 1029.36 194.444 1029.98 192.242C1030.99 188.594 1030.58 188.457 1025.39 190.705C1020.54 192.801 1019.88 194.092 1021 199.312C1022.96 208.466 1031.8 220.131 1041 225.717C1050.54 231.507 1062.28 234.271 1064.3 231.201C1065.25 229.755 1066.99 229.833 1069.73 231.44C1075.5 234.828 1097.59 224.219 1104.15 214.905C1110.4 206.03 1114.05 193.955 1111.26 191.337C1109.96 190.113 1109.95 188.511 1111.23 187.059C1112.38 185.762 1112.53 182.11 1111.58 178.763C1110.21 173.949 1108.55 172.684 1103.05 172.264C1099.29 171.98 1095.62 172.651 1094.89 173.759C1093.28 176.215 1082.41 176.428 1079.55 174.062C1078.41 173.12 1073.18 173.093 1067.92 174.004ZM218.926 188.76C218.863 204.839 215.812 212.209 205.037 222.333C190.798 235.708 167.307 239.761 149.257 231.954C144.463 229.88 139.56 227.756 138.362 227.232C137.164 226.708 137.654 228.005 139.451 230.114C141.983 233.086 141.086 232.873 135.466 229.168C131.477 226.54 127.685 223.099 127.04 221.521C125.397 217.497 119.841 222.026 119.841 227.391C119.841 240.534 144.735 253.69 170.022 253.915C183.028 254.029 187.495 253.059 199.464 247.524C216.2 239.783 222.17 231.872 217.902 223.078L215.307 217.734L210.609 223.083C208.022 226.024 202.967 230.122 199.372 232.185C195.239 234.559 196.753 232.623 203.497 226.916C217.063 215.437 222.142 205.056 222.203 188.687C222.229 181.717 221.514 175.587 220.617 175.067C219.719 174.545 218.956 180.708 218.926 188.76ZM1115.27 186.226C1116.7 210.001 1103.66 227.643 1079.87 234.14C1062.15 238.977 1045.98 235.251 1032.07 223.13C1025.39 217.31 1017.56 204.499 1017.56 199.394C1017.56 197.66 1016.51 196.242 1015.24 196.242C1012.67 196.242 1014.13 202.131 1018.89 210.914C1021.39 215.534 1021.37 217.228 1018.78 221.914C1008 241.449 1051.79 260.676 1086.65 251.708C1099.8 248.325 1114.35 237.374 1115.24 230.191C1116.35 221.136 1112.32 219.118 1105.28 225.211C1097.73 231.741 1089.14 237.179 1086.38 237.179C1085.21 237.179 1088.87 234.428 1094.52 231.065C1112.37 220.43 1122.7 199.289 1119.03 180.904C1116.73 169.395 1114.46 172.614 1115.27 186.226ZM1065.24 177.441C1067.64 179.019 1067.28 179.709 1063.45 180.851C1060.42 181.756 1059.09 183.385 1059.87 185.274C1060.54 186.92 1060.24 187.774 1059.2 187.17C1058.16 186.568 1056.71 188.883 1055.98 192.318C1055.07 196.59 1053.78 198.084 1051.9 197.048C1050.39 196.217 1051.02 197.539 1053.31 199.983C1055.59 202.429 1057.96 204.429 1058.57 204.429C1059.18 204.429 1059.03 203.813 1058.23 203.06C1057.43 202.307 1058.45 199.949 1060.5 197.818C1063.73 194.467 1063.81 193.665 1061.05 191.867C1058.29 190.064 1058.3 189.907 1061.14 190.676C1062.94 191.165 1064.27 193.077 1064.1 194.928C1063.94 196.776 1064.92 198.274 1066.28 198.258C1070.41 198.205 1075.29 194.526 1073.49 192.83C1072.56 191.958 1070.89 192.598 1069.77 194.254C1068.53 196.092 1067.73 196.315 1067.71 194.827C1067.65 190.326 1072.66 189.438 1075.92 193.37C1078.92 196.981 1079.06 196.993 1077.77 193.515C1077.01 191.454 1076.39 189.022 1076.39 188.113C1076.39 187.205 1074.67 186.591 1072.58 186.746C1069.92 186.945 1068.76 185.539 1068.76 182.094C1068.76 179.379 1067.29 176.776 1065.5 176.309C1062.8 175.611 1062.76 175.81 1065.24 177.441ZM1078.79 179.263C1080.38 181.744 1082.14 183.334 1082.72 182.796C1083.29 182.257 1081.99 180.227 1079.83 178.282C1076.08 174.907 1076.03 174.95 1078.79 179.263ZM1103.93 178.843C1103.24 180.532 1103.63 181.913 1104.78 181.913C1105.95 181.913 1106.9 180.532 1106.9 178.843C1106.9 177.154 1106.51 175.773 1106.04 175.773C1105.57 175.773 1104.62 177.154 1103.93 178.843ZM177.7 180.442C178.372 182.081 177.48 183.279 175.593 183.279C173.798 183.279 172.846 182.491 173.478 181.529C174.112 180.567 171.78 179.983 168.298 180.233C162.505 180.646 158.866 185.966 164.328 186.038C165.627 186.056 165.32 186.883 163.646 187.878C161.975 188.873 161.208 191.163 161.945 192.965C163.396 196.52 160.132 197.58 158.317 194.144C157.709 192.989 157.465 193.22 157.778 194.655C158.328 197.173 159.391 197.503 168.867 198.084C172.499 198.307 172.68 198.682 169.957 200.335C168.159 201.426 167.802 202.333 169.161 202.352C172.523 202.393 179.572 191.984 179.221 187.497C179.064 185.504 179.858 184.407 180.984 185.059C182.108 185.714 183.1 185.043 183.183 183.569C183.268 182.096 184.239 182.732 185.344 184.984L187.351 189.078L186.795 184.984C186.488 182.732 185.272 180.876 184.089 180.859C182.908 180.841 180.727 180.102 179.241 179.218C177.454 178.151 176.933 178.565 177.7 180.442ZM1011.45 182.937C1011.49 186.314 1011.98 187.448 1012.53 185.457C1013.09 183.465 1013.05 180.702 1012.45 179.316C1011.86 177.93 1011.4 179.56 1011.45 182.937ZM1098.57 179.025C1098.36 180.253 1095.73 182.306 1092.73 183.588C1089.74 184.871 1087.29 187.299 1087.29 188.987C1087.29 192.234 1097.51 199.601 1099.47 197.763C1100.1 197.169 1100.25 192.207 1099.79 186.738C1099.34 181.271 1098.79 177.799 1098.57 179.025ZM194.966 184.362L188.961 188.799L194.868 193.573C202.085 199.404 204.819 198.17 204.819 189.078C204.819 180.086 202.351 178.905 194.966 184.362ZM1069.85 183.96C1069.85 185.086 1070.83 186.007 1072.03 186.007C1073.23 186.007 1074.21 185.086 1074.21 183.96C1074.21 182.835 1073.23 181.913 1072.03 181.913C1070.83 181.913 1069.85 182.835 1069.85 183.96ZM1083.1 189.247C1083.2 191.632 1083.72 192.117 1084.42 190.486C1085.05 189.008 1084.97 187.241 1084.24 186.562C1083.52 185.882 1083.01 187.09 1083.1 189.247ZM265.104 189.419C264.304 190.169 263.65 193.392 263.65 196.583V202.382H282.171C298.42 202.382 300.692 201.938 300.692 198.77C300.692 192.678 270.17 184.658 265.104 189.419ZM646.933 190.887C648.188 192.31 653.664 193.274 659.584 193.116C665.323 192.965 671.001 193.349 672.2 193.972C676.749 196.334 680.142 195.996 677.856 193.409C676.601 191.986 671.126 191.022 665.205 191.18C659.466 191.331 653.788 190.946 652.589 190.324C648.04 187.962 644.647 188.3 646.933 190.887ZM164.649 192.748C165.468 194.766 166.686 195.902 167.357 195.271C168.028 194.643 167.359 192.991 165.869 191.601C163.716 189.595 163.468 189.831 164.649 192.748ZM185.209 193.292C185.209 195.046 184.296 195.953 183.18 195.306C182.065 194.657 180.59 194.983 179.901 196.029C179.215 197.075 180.372 197.693 182.474 197.404C185.867 196.938 189.595 190.101 186.458 190.101C185.771 190.101 185.209 191.538 185.209 193.292ZM209.521 194.195C209.521 197.009 210.016 198.162 210.62 196.753C211.225 195.347 211.225 193.044 210.62 191.636C210.016 190.23 209.521 191.38 209.521 194.195ZM129.557 196.379C128.766 197.578 128.587 199.001 129.158 199.537C129.729 200.073 130.777 199.091 131.488 197.353C132.96 193.747 131.705 193.112 129.557 196.379ZM1055.83 197.689C1054.65 200.606 1054.9 200.841 1057.05 198.835C1058.54 197.445 1059.21 195.793 1058.54 195.165C1057.87 194.535 1056.65 195.671 1055.83 197.689ZM1077.71 200.024L1073.58 205.453L1078.68 200.905C1081.48 198.403 1083.34 195.959 1082.81 195.476C1082.27 194.991 1079.98 197.038 1077.71 200.024ZM118.858 201.359C119.554 204.736 120.268 209.067 120.449 210.983C120.628 212.901 121.214 214.058 121.75 213.554C122.286 213.051 125.051 215.857 127.897 219.791C130.742 223.725 134.067 226.945 135.283 226.945C136.499 226.945 135.048 223.932 132.058 220.252C129.071 216.569 124.593 209.432 122.109 204.388C118.562 197.183 117.865 196.534 118.858 201.359ZM653.23 198.606C654.779 200.468 657.721 201.74 659.767 201.431C661.811 201.119 664.465 201.412 665.663 202.081C666.861 202.751 671.969 203.371 677.013 203.461C683.437 203.574 685.589 202.949 684.199 201.375C683.107 200.141 676.529 199.24 669.581 199.375C662.632 199.511 655.477 198.63 653.679 197.419C650.89 195.542 650.824 195.716 653.23 198.606ZM159.746 202.894C162.032 204.863 166.49 206.382 169.654 206.267C174.927 206.075 174.816 205.925 168.335 204.48C164.448 203.615 159.99 202.096 158.428 201.109C156.865 200.12 157.458 200.925 159.746 202.894ZM309.408 200.335C309.408 201.461 312.105 202.368 315.4 202.352C320.069 202.327 320.671 201.881 318.124 200.335C313.86 197.748 309.408 197.748 309.408 200.335ZM183.459 209.305C184.553 213.876 185.765 217.914 186.152 218.278C186.54 218.643 189.961 216.025 193.757 212.459C197.553 208.893 200.161 205.512 199.557 204.943C198.952 204.374 194.633 203.252 189.963 202.45L181.472 200.993L183.459 209.305ZM356.926 208.406L351.897 216.68L304.634 216.694C275.495 216.704 256.854 217.495 256.024 218.757C255.142 220.098 270.909 220.804 301.703 220.804H348.729L345.223 225.831C340.741 232.257 342.704 235.133 351.568 235.133C358.26 235.133 358.959 234.363 365.736 219.564C369.653 211.002 372.556 203.748 372.185 203.443C371.813 203.14 369.359 202.272 366.731 201.512C362.77 200.37 361.099 201.545 356.926 208.406ZM1065.09 201.733C1066.66 202.325 1068.54 202.251 1069.26 201.572C1069.99 200.892 1068.7 200.409 1066.41 200.497C1063.87 200.595 1063.35 201.081 1065.09 201.733ZM141.931 208.92C144.33 212.083 148.067 215.564 150.237 216.655C153.567 218.33 154.395 217.654 155.523 212.349C157.349 203.774 155.748 202.159 145.96 202.702L137.571 203.166L141.931 208.92ZM1038.12 204.642C1037.3 205.885 1039.1 209.223 1042.12 212.058C1048.59 218.137 1052.42 216.778 1052.42 208.402C1052.42 203.105 1051.65 202.382 1046.01 202.382C1042.49 202.382 1038.94 203.4 1038.12 204.642ZM1080.4 203.396C1078.67 205.017 1080.89 214.502 1083.32 215.918C1085.56 217.212 1093.11 211.554 1096.06 206.38C1097.55 203.754 1096.4 203.084 1089.74 202.716C1085.27 202.466 1081.06 202.773 1080.4 203.396ZM272.976 205.936C278.705 206.359 287.529 206.353 292.587 205.925C297.644 205.496 292.957 205.15 282.171 205.156C271.386 205.162 267.248 205.514 272.976 205.936ZM314.341 205.899C317.653 206.368 322.556 206.355 325.236 205.87C327.916 205.385 325.205 205 319.213 205.015C313.221 205.031 311.029 205.428 314.341 205.899ZM1028.45 206.276C1028.45 208.4 1032.6 211.477 1033.83 210.263C1034.23 209.87 1033.18 208.359 1031.5 206.908C1029.83 205.455 1028.45 205.17 1028.45 206.276ZM1063.9 205.848C1066.02 206.368 1068.97 206.333 1070.44 205.772C1071.92 205.211 1070.18 204.787 1066.59 204.828C1062.99 204.869 1061.78 205.328 1063.9 205.848ZM662.443 209.602C663.545 210.848 670.356 211.737 677.699 211.593C684.994 211.448 691.457 212.08 692.061 212.997C693.834 215.695 690.647 218.958 687.847 217.31C683.528 214.768 666.633 215.13 668.916 217.718C670.008 218.952 676.586 219.853 683.535 219.717C690.483 219.582 697.628 220.462 699.415 221.674C701.199 222.884 699.585 220.207 695.826 215.724C689.126 207.733 688.707 207.569 674.721 207.461C664.578 207.381 661.028 207.999 662.443 209.602ZM136.39 210.257C135.763 211.211 138.048 214.51 141.469 217.589C145.986 221.654 148.145 222.495 149.355 220.655C150.34 219.159 150.122 218.647 148.821 219.402C146.195 220.925 136.582 211.9 138.706 209.907C139.515 209.145 139.582 208.523 138.854 208.523C138.125 208.523 137.015 209.303 136.39 210.257ZM164.847 212.267C160.315 216.971 160.262 220.014 164.688 221.609C169.403 223.308 172.663 223.123 176.321 220.948C178.958 219.38 178.868 218.319 175.726 213.814C171.344 207.532 169.641 207.291 164.847 212.267ZM201.207 209.907C202.017 210.668 200.466 213.661 197.757 216.559L192.835 221.828L198.76 216.925C203.941 212.637 205.066 208.523 201.059 208.523C200.331 208.523 200.398 209.145 201.207 209.907ZM272.976 210.029C278.705 210.453 287.529 210.447 292.587 210.019C297.644 209.589 292.957 209.244 282.171 209.25C271.386 209.256 267.248 209.608 272.976 210.029ZM315.352 210.001C319.22 210.453 326.083 210.459 330.605 210.017C335.124 209.573 331.96 209.205 323.571 209.194C315.182 209.186 311.482 209.548 315.352 210.001ZM1060.16 214.465C1057.21 219.818 1057.23 220.53 1060.4 221.67C1064.69 223.216 1079.82 220.776 1076.93 219.003C1075.8 218.305 1073.7 215.663 1072.28 213.128C1068.75 206.834 1064.08 207.35 1060.16 214.465ZM274.057 214.117C279.182 214.551 287.026 214.545 291.488 214.105C295.951 213.665 291.759 213.311 282.171 213.319C272.584 213.325 268.932 213.685 274.057 214.117ZM319.815 214.117C324.939 214.551 332.784 214.545 337.246 214.105C341.708 213.665 337.516 213.311 327.929 213.319C318.342 213.325 314.69 213.685 319.815 214.117ZM1034.99 215.437C1034.99 215.861 1036.71 217.474 1038.8 219.019C1042.26 221.564 1042.34 221.492 1039.63 218.246C1036.78 214.836 1034.99 213.753 1034.99 215.437ZM188.617 222.251C187.436 225.168 187.684 225.404 189.837 223.398C191.327 222.008 191.996 220.356 191.325 219.728C190.654 219.097 189.436 220.233 188.617 222.251ZM1027.37 224.644C1034.01 231.516 1045.43 238.289 1047.34 236.494C1047.92 235.951 1046.25 234.866 1043.63 234.087C1041.01 233.305 1034.81 229.34 1029.85 225.275C1020.89 217.933 1020.87 217.928 1027.37 224.644ZM675.671 226.151C677.97 228.754 681.447 228.82 685.668 226.343C687.082 225.512 688.764 225.627 689.405 226.599C690.043 227.571 693.298 228.192 696.636 227.977C699.975 227.762 704.176 228.593 705.973 229.823C708.797 231.757 708.843 231.583 706.309 228.546C704.696 226.611 702.735 225.109 701.951 225.205C701.166 225.303 700.036 225.168 699.436 224.908C698.837 224.646 692.758 224.268 685.925 224.065C676.488 223.785 674.023 224.286 675.671 226.151ZM268.488 233.102C262.467 243.005 263.779 243.85 270.654 234.498L275.635 227.725L312.676 233.45C333.049 236.598 351.675 238.954 354.07 238.688C357.928 238.258 281.064 224.714 275.635 224.867C274.436 224.902 271.22 228.607 268.488 233.102ZM681.356 233.296C683.179 235.415 687.805 236.264 696.608 236.093C703.557 235.957 710.712 236.838 712.51 238.049C715.284 239.916 715.36 239.744 713.011 236.922C711.325 234.891 707.701 233.796 703.718 234.115C700.127 234.402 696.626 233.784 695.939 232.738C695.231 231.659 693.599 231.6 692.161 232.601C689.063 234.756 686.284 234.633 682.005 232.15C679.323 230.593 679.205 230.797 681.356 233.296ZM150.346 237.179C152.144 238.27 155.085 239.114 156.883 239.05C159.038 238.977 158.667 238.34 155.793 237.179C149.804 234.762 146.363 234.762 150.346 237.179ZM183.03 237.179C178.541 238.53 178.35 238.85 181.941 238.991C184.337 239.085 187.769 238.27 189.567 237.179C193.384 234.862 190.735 234.862 183.03 237.179ZM119.46 240.602C126.53 253.022 146.422 261.965 166.019 261.537C175.312 261.333 175.273 261.304 161.953 258.559C143.652 254.789 135.187 251.209 125.308 243.064C119.037 237.894 117.566 237.274 119.46 240.602ZM1052.02 238.577C1053.59 239.169 1055.47 239.095 1056.19 238.416C1056.91 237.736 1055.63 237.253 1053.33 237.341C1050.79 237.439 1050.28 237.925 1052.02 238.577ZM1078.16 238.577C1079.73 239.169 1081.61 239.095 1082.34 238.416C1083.06 237.736 1081.78 237.253 1079.48 237.341C1076.94 237.439 1076.42 237.925 1078.16 238.577ZM165.08 240.673C167.791 241.163 171.713 241.144 173.796 240.633C175.879 240.121 173.661 239.72 168.867 239.742C164.073 239.765 162.369 240.184 165.08 240.673ZM362.288 240.645C364.409 241.165 367.35 241.13 368.825 240.569C370.3 240.008 368.566 239.585 364.971 239.625C361.375 239.666 360.168 240.125 362.288 240.645ZM689.697 241.173C687.971 243.797 687.823 243.766 703.25 244.118C710.141 244.276 717.249 245.261 719.047 246.302C721.738 247.864 721.849 247.657 719.679 245.138C717.929 243.105 713.53 242.166 706.605 242.346C700.866 242.495 695.031 241.809 693.638 240.823C692.135 239.756 690.535 239.9 689.697 241.173ZM1018.71 244.147C1025.53 253.917 1039.96 260.178 1057.49 260.968L1073.12 261.673L1058.66 258.809C1042.99 255.706 1033.64 251.86 1022.22 243.822L1014.89 238.665L1018.71 244.147ZM1062.8 240.673C1065.51 241.163 1069.43 241.144 1071.51 240.633C1073.6 240.121 1071.38 239.72 1066.59 239.742C1061.79 239.765 1060.09 240.184 1062.8 240.673ZM375.362 242.692C377.482 243.212 380.424 243.177 381.899 242.616C383.374 242.055 381.64 241.631 378.044 241.672C374.449 241.713 373.242 242.172 375.362 242.692ZM387.305 244.675C388.804 245.244 391.255 245.244 392.752 244.675C394.251 244.108 393.024 243.643 390.028 243.643C387.032 243.643 385.808 244.108 387.305 244.675ZM693.852 248.992C694.597 249.69 696.737 250.472 698.611 250.732C700.482 250.99 701.406 250.63 700.663 249.93C699.918 249.232 697.778 248.45 695.904 248.19C694.033 247.932 693.109 248.292 693.852 248.992Z"/>
</mask>
<path fill-rule="evenodd" clip-rule="evenodd" d="M395.134 1.20593C391.349 1.65215 351.148 16.0581 305.798 33.2192L223.34 64.4179L222.687 76.0873L222.033 87.7566H211.247H200.462L200.407 67.7994L200.353 47.8422L182.771 29.932L165.189 12.0217H82.5945H0V90.8269V169.632H39.9834H79.9667L78.9404 184.634C76.5872 219.097 96.4242 250.632 130.313 266.292C144.167 272.693 145.975 273 169.922 273C192.65 273 196.202 272.478 207.611 267.455C214.54 264.405 225.879 256.83 232.808 250.619C246.143 238.672 246.232 238.657 256.972 246.773C257.493 247.166 254.349 250.926 249.982 255.127L242.044 262.766L464.748 262.542L687.452 262.319L744.104 253.037C775.263 247.932 800.977 243.942 801.247 244.17C801.517 244.397 790.241 249.135 776.189 254.697L750.641 264.812L840.934 265.347C890.594 265.641 931.891 265.181 932.704 264.323C933.517 263.468 935.787 258.215 937.748 252.652L941.317 242.538L935.314 236.586L929.313 230.633L957.537 232.13L985.763 233.626L1000.03 247.355C1009.1 256.085 1019.05 263.253 1027.37 267.041C1039.48 272.564 1042.27 273 1065.5 273C1089.05 273 1091.41 272.617 1104.72 266.634C1112.51 263.132 1123.48 256.422 1129.11 251.723C1137.54 244.673 1140.69 243.263 1147.08 243.666C1151.35 243.936 1154.83 244.628 1154.83 245.203C1154.83 245.778 1150.21 250.656 1144.57 256.044L1134.3 265.836H1215.38H1296.46V260.975C1296.46 249.418 1293.87 243.668 1288.06 242.297C1282.44 240.97 1282.4 240.872 1286.66 237.974C1289.06 236.342 1294.32 232.091 1298.36 228.527C1305.49 222.241 1305.67 221.693 1304.38 210.116C1301.79 186.812 1309.79 190.826 1225.23 170.406L1149.98 152.234L1141.6 140.706C1125.3 118.265 1101.85 105.96 1072.63 104.51C1052.8 103.53 1039.33 105.974 1023.55 113.414C1013.57 118.118 1012.7 118.19 999.58 115.41C991.378 113.674 941.346 110.409 873.751 107.204C783.927 102.944 760.298 101.241 755.328 98.6767C748.552 95.1786 749.898 94.6218 728.307 109.855C720.385 115.445 720.31 115.396 723.542 106.688C724.814 103.256 727.83 99.9642 730.24 99.3726C733.537 98.5621 734.445 96.9041 733.916 92.6711C733.528 89.5803 731.959 86.8171 730.432 86.5325C728.904 86.248 728.658 86.4854 729.887 87.0565C731.116 87.6296 732.12 89.8014 732.12 91.8831C732.12 95.7026 730.297 96.5889 717.413 99.0247C710.364 100.357 710.331 100.324 710.331 92.1635C710.331 86.0741 711.314 83.7221 714.144 83.0262C717.014 82.3221 716.744 82.0314 713.055 81.8533C708.523 81.6343 708.152 82.4858 708.152 93.0928C708.152 102.768 708.699 104.373 711.636 103.313C714.218 102.384 713.582 104.578 709.181 111.793C705.912 117.15 702.138 122.545 700.794 123.786C699.447 125.028 684.757 128.189 668.149 130.809L637.949 135.576L633.979 130.631C631.796 127.91 630.251 125.456 630.55 125.178C630.846 124.899 634.186 125.505 637.971 126.525C644.601 128.312 644.933 128.105 647.075 120.861C649.724 111.898 649.901 107.407 647.687 105.325C646.787 104.482 646.009 103.176 645.955 102.427C645.458 95.5265 641.501 83.1961 637.265 75.3422C627.832 57.8577 612.384 49.7193 591.684 51.3302C568.498 53.1376 553.786 66.4853 552.81 86.598C552.463 93.756 551.515 95.9196 548.724 95.9298C546.724 95.938 543.538 96.5029 541.643 97.1866C538.64 98.2694 538.196 95.7844 538.196 77.9683V57.5097L545.611 56.2018C549.69 55.4833 553.472 53.768 554.017 52.3925C554.562 51.0149 554.411 39.9126 553.681 27.7193C552.566 9.00868 551.698 5.09707 548.129 2.6449C544.658 0.260277 531.188 -0.200279 472.956 0.0678636C433.936 0.24799 398.916 0.759711 395.134 1.20593ZM398.489 3.93445C391.379 4.93947 357.595 16.5576 317.869 31.6575C280.258 45.9509 244.341 59.5852 238.052 61.9555C228.33 65.6194 226.617 67.0687 226.613 71.6373C226.611 74.593 225.996 79.8883 225.247 83.4069L223.885 89.8035H290.708H357.534L383.524 74.9635C397.818 66.8005 408.632 59.8391 407.554 59.4911C406.006 58.9896 290.562 69.9814 249.487 74.5377C244.694 75.0699 241.752 75.0679 242.951 74.5337C246.217 73.0783 372.97 54.9654 394.981 52.81C412.484 51.0947 415.328 50.1593 428.731 41.7139L443.366 32.4906H480.709C511.761 32.4906 518.524 31.9563 520.851 29.322C524.346 25.3653 531.53 26.2148 534.694 30.9554C539.732 38.5043 526.933 46.6387 520.851 39.7529C518.533 37.1288 511.92 36.5844 482.341 36.5844H446.63L435.799 43.2367C429.844 46.8966 424.952 50.3497 424.931 50.9126C424.911 51.4755 428.569 51.8091 433.064 51.6515C437.557 51.4959 465.992 51.2667 496.251 51.1398L551.269 50.9126V30.8347C551.269 0.401518 557.658 2.86798 477.909 2.50773C440.959 2.33988 405.22 2.98265 398.489 3.93445ZM3.69546 15.3724C2.86093 16.1564 2.17893 25.8545 2.17893 36.9262V57.0532L48.4812 57.0327L94.7834 57.0143L104.351 49.8686C113.322 43.1692 114.915 42.725 129.954 42.725C138.772 42.725 145.988 41.8653 145.988 40.8152C145.988 37.6098 154.715 36.0911 158.077 38.7131C159.818 40.0702 161.241 43.3514 161.241 46.0062C161.241 52.3106 151.035 55.3195 147.043 50.19C145.091 47.6826 140.933 46.8188 130.81 46.8188C118.741 46.8188 116.189 47.572 108.264 53.4712L99.3309 60.1236L51.3007 61.147L3.26839 62.1705L2.68662 113.854L2.10485 165.538H42.4521C69.4904 165.538 82.7993 164.82 82.7993 163.363C82.7993 162.165 85.4119 156.174 88.6062 150.048C95.9906 135.879 115.967 117.891 132.302 110.7C143.805 105.636 147.171 105.155 171.046 105.155H197.193L196.537 76.0586L195.881 46.9621L179.106 30.6013L162.33 14.2405L83.7711 14.0952C40.5651 14.0133 4.52999 14.5885 3.69546 15.3724ZM600.711 56.1853C611.948 60.0928 627.346 75.0781 622.867 77.7432C620.692 79.0389 620.629 79.5137 622.629 79.5383C626.828 79.5854 625.965 89.392 621.694 90.1658C618.337 90.7737 618.358 91.1278 621.954 94.5072C627.854 100.048 624.653 100.83 615.003 96.2041C604.378 91.1135 597.517 82.2893 601.502 78.8383C603.55 77.0636 603.832 77.1168 602.666 79.0573C600.94 81.927 604.81 82.6434 606.679 79.8003C608.311 77.3195 602.838 73.3178 600.221 75.0802C593.087 79.8842 603.054 93.672 617.722 99.2928C624.969 102.07 627.996 104.5 628.846 108.225C631.086 118.055 634.005 122.554 638.143 122.554C645.164 122.554 645.654 113.637 639.649 95.1417C631.009 68.5342 620.167 57.5629 599.206 54.2224C591.887 53.0557 591.948 53.1355 600.711 56.1853ZM391.216 76.4987L362.792 92.8738L294.155 93.8972L225.519 94.9207L224.857 106.975C224.269 117.686 224.842 119.663 229.999 124.719C234.897 129.523 237.039 130.232 243.735 129.263C248.097 128.631 251.98 127.874 252.364 127.579C252.747 127.286 250.978 123.213 248.435 118.529C243.84 110.066 243.837 110.027 248.261 112.25C250.71 113.482 252.477 115.248 252.189 116.178C251.902 117.107 255.989 126.203 261.273 136.393L270.882 154.917L335.213 179.639C370.595 193.235 399.768 204.147 400.043 203.883C400.317 203.621 367.304 184.126 326.683 160.56C286.059 136.997 253.211 117.348 253.688 116.9C254.166 116.452 258.438 118.184 263.182 120.748L271.806 125.413L334.732 116.749C369.339 111.984 427.423 103.972 463.807 98.9449C500.191 93.9177 530.831 89.8035 531.898 89.8035C535.071 89.8035 534.295 63.2328 531.114 62.9585C529.617 62.8275 503.921 62.1377 474.015 61.4234L419.642 60.1236L391.216 76.4987ZM555.627 88.4382C555.627 92.5668 556.584 95.9441 557.752 95.9441C558.972 95.9441 559.303 93.1133 558.527 89.2917C556.638 79.9641 555.627 79.6673 555.627 88.4382ZM720.818 85.0608C722.389 85.6524 724.27 85.5787 724.993 84.8991C725.716 84.2195 724.431 83.7365 722.134 83.8245C719.596 83.9228 719.079 84.4079 720.818 85.0608ZM439.054 110.475C361.158 119.33 293.238 127.112 288.122 127.767C259.857 131.384 296.197 132.287 428.754 131.259C538.882 130.408 578.397 130.727 584.182 132.522C595.14 135.918 602.019 142.918 631.338 180.507C645.554 198.731 662.806 220.78 669.681 229.504C690.662 256.138 681.648 247.176 655.784 215.687L631.406 186.007H597.942C568.912 186.007 564.648 186.419 565.748 189.114C567.735 193.978 562.469 210.813 556.337 219.202C553.065 223.678 546.218 228.943 539.701 231.995C509.632 246.071 475.379 228.345 471.383 196.639L470.041 186.007H423.499C397.899 186.007 376.955 186.361 376.955 186.793C376.955 187.225 387.194 193.417 399.709 200.554C412.225 207.692 422.122 213.855 421.701 214.248C421.281 214.643 418.062 213.569 414.548 211.861C408.458 208.904 380.892 202.096 379.665 203.246C379.345 203.547 376.754 211.075 373.909 219.975C369.213 234.652 369.065 236.291 372.298 237.607C374.259 238.406 402.339 242.767 434.696 247.301C492.344 255.38 495.279 255.585 580.685 257.468C658.176 259.177 670.258 259.012 689.631 255.976C701.615 254.097 711.73 251.915 712.107 251.125C712.484 250.337 714.07 250.153 715.632 250.716C717.197 251.278 726.941 250.351 737.291 248.654C751.225 246.37 766.417 241.367 795.863 229.373L835.62 213.174L842.962 218.854L850.303 224.534L867.419 217.652C876.832 213.867 886.456 209.804 888.805 208.623C896.25 204.88 900.578 206.239 910.719 215.511L920.598 224.544L944.259 226.003L967.922 227.465L966.449 218.506C962.61 195.13 963.786 196.974 948.793 190.84C941.169 187.718 935.231 184.883 935.6 184.538C935.968 184.192 944.019 185.301 953.491 187.004C975.478 190.957 975.132 190.985 975.638 185.242C976.047 180.605 975.132 180.266 955.694 177.848C935.937 175.392 928.102 173.159 930.697 170.721C931.388 170.07 941.616 170.903 953.423 172.569C965.231 174.236 975.008 175.408 975.147 175.173C975.289 174.94 977.668 168.762 980.436 161.445C986.107 146.449 994.736 133.646 1004.22 126.146L1010.63 121.08L1002.66 118.736C998.237 117.439 951.434 114.618 897.719 112.411C844.39 110.221 790.871 107.871 778.791 107.19L756.825 105.951L739.487 118.857C729.95 125.956 720.226 132.807 717.875 134.08C713.362 136.526 712.349 146.404 715.434 157.863L716.951 163.491H796.146C872.304 163.491 875.557 163.332 880.937 159.357C884.016 157.083 886.844 153.263 887.223 150.866C888.188 144.777 894.451 141.375 899.353 144.275C907.892 149.327 903.949 159.398 893.433 159.398C890.169 159.398 885.724 161.24 883.556 163.491C879.747 167.444 876.845 167.585 799.329 167.585C729.421 167.585 719.047 167.982 719.047 170.656C719.047 172.344 720.518 173.726 722.315 173.726C724.113 173.726 725.584 175.421 725.584 177.492C725.584 180.368 722.742 181.899 713.586 183.962C706.989 185.45 701.186 186.286 700.691 185.821C700.195 185.356 699.114 182.444 698.288 179.351C696.894 174.129 697.264 173.726 703.489 173.726C708.553 173.726 709.887 172.975 708.941 170.656C707.932 168.187 703.038 167.585 683.951 167.585C669.581 167.585 660.216 166.777 660.216 165.538C660.216 164.31 668.931 163.491 682.005 163.491C693.989 163.491 703.794 163.113 703.794 162.65C703.794 162.188 701.698 156.661 699.133 150.369C696.109 142.943 693.242 138.951 690.963 138.99C689.032 139.025 678.137 140.783 666.752 142.896C655.368 145.01 645.314 146.087 644.414 145.286C643.512 144.486 654.555 141.698 668.955 139.093C692.368 134.855 699.694 132.348 696.745 129.579C696.222 129.087 682.663 130.97 666.609 133.76L637.422 138.835L632.683 133.253C630.077 130.182 626.872 127.556 625.56 127.415C624.248 127.274 622.684 126.928 622.084 126.647C621.485 126.367 618.053 126.021 614.458 125.88C610.863 125.739 607.921 124.934 607.921 124.089C607.921 122.617 608.841 122.257 611.19 122.81C611.789 122.951 613.996 123.194 616.092 123.352C618.188 123.51 621.132 124.371 622.629 125.264C626.756 127.726 625.887 123.618 621.54 120.114C619.444 118.423 615.192 117.209 612.098 117.416C608.743 117.639 606.468 116.722 606.468 115.146C606.468 113.691 607.531 113.124 608.83 113.887C612.366 115.967 616.637 116.266 616.637 114.436C616.637 112.405 609.871 107.032 608.154 107.695C607.453 107.968 606.867 106.586 606.856 104.625C606.828 100.365 593.863 93.8051 586.132 94.1408C583.136 94.2697 516.951 101.62 439.054 110.475ZM732.957 109.888C725.629 115.166 718.574 122.095 717.28 125.288C714.172 132.952 715.865 132.254 739.367 116.2C752.034 107.548 757.335 102.793 755.52 101.712C750.528 98.732 746.347 100.247 732.957 109.888ZM715.645 107.744C712.523 109.777 697.257 133.762 697.257 136.638C697.257 137.897 700.118 138.929 703.616 138.929C709.536 138.929 710.311 137.973 714.831 125.112C717.5 117.514 720.136 110.145 720.688 108.737C721.797 105.912 719.236 105.409 715.645 107.744ZM172.68 112.651C164.067 116.765 167.021 119.85 180.877 121.209C195.189 122.615 205.689 126.905 218.738 136.679C223.397 140.167 228.053 143.023 229.088 143.023C232.416 143.023 231.097 137.666 226.064 130.741C216.045 116.955 185.405 106.572 172.68 112.651ZM1070.1 112.862C1063.63 116.006 1063.73 119.32 1070.31 119.997C1088.44 121.866 1099.02 125.495 1111 133.957C1118.06 138.943 1124.44 143.023 1125.17 143.023C1125.91 143.023 1126.51 141.023 1126.51 138.579C1126.51 132.102 1109.31 117.569 1096.98 113.623C1084.53 109.64 1077.16 109.431 1070.1 112.862ZM606.468 131.589C606.468 133.15 610.039 133.924 616.456 133.754C621.949 133.609 627.913 134.483 629.711 135.697C632.467 137.559 632.554 137.394 630.266 134.638C628.761 132.823 624.889 131.546 621.551 131.763C618.25 131.978 614.567 131.63 613.369 130.993C609.39 128.874 606.468 129.126 606.468 131.589ZM243.992 138.867C249.078 145.575 252.449 148.087 254.183 146.459C256.007 144.744 245.696 132.788 242.393 132.788C240.194 132.788 240.626 134.426 243.992 138.867ZM325.406 157.13L364.282 179.867H418.392H472.501L477.567 171.257C480.354 166.523 486.884 159.846 492.081 156.417C500.659 150.76 503.1 150.187 518.585 150.187C534.019 150.187 536.526 150.772 544.944 156.329C550.197 159.797 556.207 166.216 558.749 171.073L563.253 179.676L594.469 179.77L625.682 179.867L612.303 165.725C594.558 146.967 585.943 141.676 568.701 138.943C560.127 137.584 501.659 136.243 420.533 135.545L286.529 134.395L325.406 157.13ZM161.786 138.292C163.884 138.808 167.313 138.808 169.412 138.292C171.51 137.778 169.793 137.357 165.599 137.357C161.404 137.357 159.687 137.778 161.786 138.292ZM606.712 139.111C605.259 141.322 605.549 141.404 616.092 141.774C620.587 141.932 625.42 142.754 626.837 143.6C628.251 144.445 630.055 144.154 630.844 142.957C631.824 141.465 633.419 141.614 635.897 143.434C639.043 145.745 639.167 145.673 636.853 142.881C635.162 140.843 631.179 139.784 625.959 139.985C621.431 140.159 616.746 139.788 615.548 139.162C611.791 137.195 607.987 137.173 606.712 139.111ZM1058.44 138.329C1061.15 138.818 1065.07 138.8 1067.16 138.288C1069.24 137.776 1067.02 137.375 1062.23 137.398C1057.43 137.42 1055.73 137.84 1058.44 138.329ZM187.094 146.173C191.125 147.818 195.047 149.13 195.809 149.092C198.644 148.942 186.17 143.168 183.03 143.176C181.232 143.18 183.061 144.529 187.094 146.173ZM129.509 153.769L123.11 160.421L130.191 154.409C134.085 151.104 137.273 148.109 137.273 147.757C137.273 146.175 135.475 147.569 129.509 153.769ZM206.998 152.234C209.813 155.048 212.607 157.351 213.206 157.351C213.805 157.351 211.992 155.048 209.177 152.234C206.362 149.419 203.569 147.116 202.969 147.116C202.37 147.116 204.183 149.419 206.998 152.234ZM613.652 149.088C614.295 149.691 617.681 150.301 621.176 150.443C624.673 150.584 627.778 150.911 628.076 151.173C628.375 151.435 632.317 151.845 636.834 152.082C642.582 152.385 644.357 151.869 642.754 150.363C641.492 149.178 634.164 148.158 626.471 148.099C618.777 148.037 613.007 148.484 613.652 149.088ZM620.189 157.275C620.832 157.879 623.237 158.489 625.534 158.63C627.83 158.771 630.201 159.117 630.8 159.398C631.399 159.678 635.568 160.038 640.061 160.196C644.556 160.354 649.702 161.291 651.5 162.276C653.67 163.465 653.472 162.779 650.914 160.233C647.95 157.283 643.817 156.37 633.038 156.286C625.327 156.225 619.544 156.671 620.189 157.275ZM1154.12 164.005C1156.38 172.342 1156.48 205.625 1154.26 213.065C1152.82 217.908 1153.46 219.046 1159.23 221.846C1167.37 225.803 1169.52 224.702 1171.33 215.632C1173.01 207.221 1168.29 206.55 1222.4 222.913L1262.11 234.924L1276.07 229.674C1283.75 226.785 1291.48 222.483 1293.25 220.11C1297.19 214.829 1297.44 202.376 1293.71 197.582C1291.87 195.222 1268.85 188.277 1224.53 176.714C1187.99 167.184 1156.8 158.929 1155.21 158.37C1152.95 157.58 1152.71 158.829 1154.12 164.005ZM119.741 165.714C118.403 168.062 117.719 170.369 118.222 170.84C118.723 171.311 120.253 169.391 121.619 166.57C124.622 160.38 123.16 159.713 119.741 165.714ZM626.743 165.995C627.342 166.906 628.678 167.162 629.711 166.562C630.743 165.962 632.086 166.228 632.694 167.151C633.302 168.076 638.518 168.709 644.283 168.56C650.051 168.41 656.239 169.28 658.037 170.494C660.858 172.399 660.904 172.221 658.372 169.186C656.76 167.252 654.799 165.749 654.014 165.845C653.23 165.944 652.099 165.809 651.5 165.549C648.36 164.177 625.815 164.584 626.743 165.995ZM178.666 173.214C178.661 174.06 175.426 174.811 171.473 174.886C167.52 174.96 162.376 175.803 160.04 176.755C157.704 177.709 155.303 178.614 154.704 178.767C145.019 181.234 143.966 182.206 146.594 186.261C148.875 189.778 148.518 190.936 144.112 194.328C137.277 199.59 135.094 199.322 135.094 193.214C135.094 188.496 134.699 188.31 129.433 190.564C124.515 192.67 123.933 193.904 124.983 199.99C127.352 213.698 143.635 228.879 159.474 232.146C166.788 233.657 170.336 231.763 165.535 228.912C163.773 227.864 163.234 226.994 164.337 226.976C165.442 226.959 168.141 228.472 170.336 230.337C178.698 237.448 202.479 224.88 211.245 208.717C215.03 201.74 216.636 183.817 214.243 175.261C213.143 171.325 201.727 170.148 199.372 173.726C198.631 174.852 194.652 175.773 190.528 175.773C186.403 175.773 183.03 174.852 183.03 173.726C183.03 172.6 182.05 171.679 180.851 171.679C179.653 171.679 178.67 172.369 178.666 173.214ZM634.136 174.608C635.417 175.812 642.544 176.796 649.975 176.796C660.529 176.796 663.484 177.468 663.484 179.867C663.484 181.985 661.122 182.978 655.858 183.07C651.663 183.144 647.251 182.708 646.053 182.104C641.459 179.789 638.123 180.127 640.379 182.681C641.693 184.167 647.654 185.068 655.208 184.92C662.157 184.785 669.271 185.665 671.017 186.877C672.764 188.087 671.537 185.766 668.291 181.717C663.776 176.086 660.985 174.45 656.4 174.747C653.106 174.962 649.43 174.614 648.232 173.978C647.033 173.339 642.847 172.727 638.93 172.619C633.875 172.477 632.482 173.055 634.136 174.608ZM1067.92 174.004C1062.65 174.913 1056.36 177.296 1053.92 179.297C1051.49 181.299 1050.2 181.799 1051.07 180.405C1052.21 178.577 1051.44 178.292 1048.3 179.381C1043.98 180.884 1043.32 182.683 1045.31 187.54C1045.88 188.947 1043.3 192.77 1039.58 196.037C1033.56 201.326 1032.81 201.537 1032.81 197.965C1032.81 195.759 1031.92 194.469 1030.84 195.099C1029.75 195.732 1029.36 194.444 1029.98 192.242C1030.99 188.594 1030.58 188.457 1025.39 190.705C1020.54 192.801 1019.88 194.092 1021 199.312C1022.96 208.466 1031.8 220.131 1041 225.717C1050.54 231.507 1062.28 234.271 1064.3 231.201C1065.25 229.755 1066.99 229.833 1069.73 231.44C1075.5 234.828 1097.59 224.219 1104.15 214.905C1110.4 206.03 1114.05 193.955 1111.26 191.337C1109.96 190.113 1109.95 188.511 1111.23 187.059C1112.38 185.762 1112.53 182.11 1111.58 178.763C1110.21 173.949 1108.55 172.684 1103.05 172.264C1099.29 171.98 1095.62 172.651 1094.89 173.759C1093.28 176.215 1082.41 176.428 1079.55 174.062C1078.41 173.12 1073.18 173.093 1067.92 174.004ZM218.926 188.76C218.863 204.839 215.812 212.209 205.037 222.333C190.798 235.708 167.307 239.761 149.257 231.954C144.463 229.88 139.56 227.756 138.362 227.232C137.164 226.708 137.654 228.005 139.451 230.114C141.983 233.086 141.086 232.873 135.466 229.168C131.477 226.54 127.685 223.099 127.04 221.521C125.397 217.497 119.841 222.026 119.841 227.391C119.841 240.534 144.735 253.69 170.022 253.915C183.028 254.029 187.495 253.059 199.464 247.524C216.2 239.783 222.17 231.872 217.902 223.078L215.307 217.734L210.609 223.083C208.022 226.024 202.967 230.122 199.372 232.185C195.239 234.559 196.753 232.623 203.497 226.916C217.063 215.437 222.142 205.056 222.203 188.687C222.229 181.717 221.514 175.587 220.617 175.067C219.719 174.545 218.956 180.708 218.926 188.76ZM1115.27 186.226C1116.7 210.001 1103.66 227.643 1079.87 234.14C1062.15 238.977 1045.98 235.251 1032.07 223.13C1025.39 217.31 1017.56 204.499 1017.56 199.394C1017.56 197.66 1016.51 196.242 1015.24 196.242C1012.67 196.242 1014.13 202.131 1018.89 210.914C1021.39 215.534 1021.37 217.228 1018.78 221.914C1008 241.449 1051.79 260.676 1086.65 251.708C1099.8 248.325 1114.35 237.374 1115.24 230.191C1116.35 221.136 1112.32 219.118 1105.28 225.211C1097.73 231.741 1089.14 237.179 1086.38 237.179C1085.21 237.179 1088.87 234.428 1094.52 231.065C1112.37 220.43 1122.7 199.289 1119.03 180.904C1116.73 169.395 1114.46 172.614 1115.27 186.226ZM1065.24 177.441C1067.64 179.019 1067.28 179.709 1063.45 180.851C1060.42 181.756 1059.09 183.385 1059.87 185.274C1060.54 186.92 1060.24 187.774 1059.2 187.17C1058.16 186.568 1056.71 188.883 1055.98 192.318C1055.07 196.59 1053.78 198.084 1051.9 197.048C1050.39 196.217 1051.02 197.539 1053.31 199.983C1055.59 202.429 1057.96 204.429 1058.57 204.429C1059.18 204.429 1059.03 203.813 1058.23 203.06C1057.43 202.307 1058.45 199.949 1060.5 197.818C1063.73 194.467 1063.81 193.665 1061.05 191.867C1058.29 190.064 1058.3 189.907 1061.14 190.676C1062.94 191.165 1064.27 193.077 1064.1 194.928C1063.94 196.776 1064.92 198.274 1066.28 198.258C1070.41 198.205 1075.29 194.526 1073.49 192.83C1072.56 191.958 1070.89 192.598 1069.77 194.254C1068.53 196.092 1067.73 196.315 1067.71 194.827C1067.65 190.326 1072.66 189.438 1075.92 193.37C1078.92 196.981 1079.06 196.993 1077.77 193.515C1077.01 191.454 1076.39 189.022 1076.39 188.113C1076.39 187.205 1074.67 186.591 1072.58 186.746C1069.92 186.945 1068.76 185.539 1068.76 182.094C1068.76 179.379 1067.29 176.776 1065.5 176.309C1062.8 175.611 1062.76 175.81 1065.24 177.441ZM1078.79 179.263C1080.38 181.744 1082.14 183.334 1082.72 182.796C1083.29 182.257 1081.99 180.227 1079.83 178.282C1076.08 174.907 1076.03 174.95 1078.79 179.263ZM1103.93 178.843C1103.24 180.532 1103.63 181.913 1104.78 181.913C1105.95 181.913 1106.9 180.532 1106.9 178.843C1106.9 177.154 1106.51 175.773 1106.04 175.773C1105.57 175.773 1104.62 177.154 1103.93 178.843ZM177.7 180.442C178.372 182.081 177.48 183.279 175.593 183.279C173.798 183.279 172.846 182.491 173.478 181.529C174.112 180.567 171.78 179.983 168.298 180.233C162.505 180.646 158.866 185.966 164.328 186.038C165.627 186.056 165.32 186.883 163.646 187.878C161.975 188.873 161.208 191.163 161.945 192.965C163.396 196.52 160.132 197.58 158.317 194.144C157.709 192.989 157.465 193.22 157.778 194.655C158.328 197.173 159.391 197.503 168.867 198.084C172.499 198.307 172.68 198.682 169.957 200.335C168.159 201.426 167.802 202.333 169.161 202.352C172.523 202.393 179.572 191.984 179.221 187.497C179.064 185.504 179.858 184.407 180.984 185.059C182.108 185.714 183.1 185.043 183.183 183.569C183.268 182.096 184.239 182.732 185.344 184.984L187.351 189.078L186.795 184.984C186.488 182.732 185.272 180.876 184.089 180.859C182.908 180.841 180.727 180.102 179.241 179.218C177.454 178.151 176.933 178.565 177.7 180.442ZM1011.45 182.937C1011.49 186.314 1011.98 187.448 1012.53 185.457C1013.09 183.465 1013.05 180.702 1012.45 179.316C1011.86 177.93 1011.4 179.56 1011.45 182.937ZM1098.57 179.025C1098.36 180.253 1095.73 182.306 1092.73 183.588C1089.74 184.871 1087.29 187.299 1087.29 188.987C1087.29 192.234 1097.51 199.601 1099.47 197.763C1100.1 197.169 1100.25 192.207 1099.79 186.738C1099.34 181.271 1098.79 177.799 1098.57 179.025ZM194.966 184.362L188.961 188.799L194.868 193.573C202.085 199.404 204.819 198.17 204.819 189.078C204.819 180.086 202.351 178.905 194.966 184.362ZM1069.85 183.96C1069.85 185.086 1070.83 186.007 1072.03 186.007C1073.23 186.007 1074.21 185.086 1074.21 183.96C1074.21 182.835 1073.23 181.913 1072.03 181.913C1070.83 181.913 1069.85 182.835 1069.85 183.96ZM1083.1 189.247C1083.2 191.632 1083.72 192.117 1084.42 190.486C1085.05 189.008 1084.97 187.241 1084.24 186.562C1083.52 185.882 1083.01 187.09 1083.1 189.247ZM265.104 189.419C264.304 190.169 263.65 193.392 263.65 196.583V202.382H282.171C298.42 202.382 300.692 201.938 300.692 198.77C300.692 192.678 270.17 184.658 265.104 189.419ZM646.933 190.887C648.188 192.31 653.664 193.274 659.584 193.116C665.323 192.965 671.001 193.349 672.2 193.972C676.749 196.334 680.142 195.996 677.856 193.409C676.601 191.986 671.126 191.022 665.205 191.18C659.466 191.331 653.788 190.946 652.589 190.324C648.04 187.962 644.647 188.3 646.933 190.887ZM164.649 192.748C165.468 194.766 166.686 195.902 167.357 195.271C168.028 194.643 167.359 192.991 165.869 191.601C163.716 189.595 163.468 189.831 164.649 192.748ZM185.209 193.292C185.209 195.046 184.296 195.953 183.18 195.306C182.065 194.657 180.59 194.983 179.901 196.029C179.215 197.075 180.372 197.693 182.474 197.404C185.867 196.938 189.595 190.101 186.458 190.101C185.771 190.101 185.209 191.538 185.209 193.292ZM209.521 194.195C209.521 197.009 210.016 198.162 210.62 196.753C211.225 195.347 211.225 193.044 210.62 191.636C210.016 190.23 209.521 191.38 209.521 194.195ZM129.557 196.379C128.766 197.578 128.587 199.001 129.158 199.537C129.729 200.073 130.777 199.091 131.488 197.353C132.96 193.747 131.705 193.112 129.557 196.379ZM1055.83 197.689C1054.65 200.606 1054.9 200.841 1057.05 198.835C1058.54 197.445 1059.21 195.793 1058.54 195.165C1057.87 194.535 1056.65 195.671 1055.83 197.689ZM1077.71 200.024L1073.58 205.453L1078.68 200.905C1081.48 198.403 1083.34 195.959 1082.81 195.476C1082.27 194.991 1079.98 197.038 1077.71 200.024ZM118.858 201.359C119.554 204.736 120.268 209.067 120.449 210.983C120.628 212.901 121.214 214.058 121.75 213.554C122.286 213.051 125.051 215.857 127.897 219.791C130.742 223.725 134.067 226.945 135.283 226.945C136.499 226.945 135.048 223.932 132.058 220.252C129.071 216.569 124.593 209.432 122.109 204.388C118.562 197.183 117.865 196.534 118.858 201.359ZM653.23 198.606C654.779 200.468 657.721 201.74 659.767 201.431C661.811 201.119 664.465 201.412 665.663 202.081C666.861 202.751 671.969 203.371 677.013 203.461C683.437 203.574 685.589 202.949 684.199 201.375C683.107 200.141 676.529 199.24 669.581 199.375C662.632 199.511 655.477 198.63 653.679 197.419C650.89 195.542 650.824 195.716 653.23 198.606ZM159.746 202.894C162.032 204.863 166.49 206.382 169.654 206.267C174.927 206.075 174.816 205.925 168.335 204.48C164.448 203.615 159.99 202.096 158.428 201.109C156.865 200.12 157.458 200.925 159.746 202.894ZM309.408 200.335C309.408 201.461 312.105 202.368 315.4 202.352C320.069 202.327 320.671 201.881 318.124 200.335C313.86 197.748 309.408 197.748 309.408 200.335ZM183.459 209.305C184.553 213.876 185.765 217.914 186.152 218.278C186.54 218.643 189.961 216.025 193.757 212.459C197.553 208.893 200.161 205.512 199.557 204.943C198.952 204.374 194.633 203.252 189.963 202.45L181.472 200.993L183.459 209.305ZM356.926 208.406L351.897 216.68L304.634 216.694C275.495 216.704 256.854 217.495 256.024 218.757C255.142 220.098 270.909 220.804 301.703 220.804H348.729L345.223 225.831C340.741 232.257 342.704 235.133 351.568 235.133C358.26 235.133 358.959 234.363 365.736 219.564C369.653 211.002 372.556 203.748 372.185 203.443C371.813 203.14 369.359 202.272 366.731 201.512C362.77 200.37 361.099 201.545 356.926 208.406ZM1065.09 201.733C1066.66 202.325 1068.54 202.251 1069.26 201.572C1069.99 200.892 1068.7 200.409 1066.41 200.497C1063.87 200.595 1063.35 201.081 1065.09 201.733ZM141.931 208.92C144.33 212.083 148.067 215.564 150.237 216.655C153.567 218.33 154.395 217.654 155.523 212.349C157.349 203.774 155.748 202.159 145.96 202.702L137.571 203.166L141.931 208.92ZM1038.12 204.642C1037.3 205.885 1039.1 209.223 1042.12 212.058C1048.59 218.137 1052.42 216.778 1052.42 208.402C1052.42 203.105 1051.65 202.382 1046.01 202.382C1042.49 202.382 1038.94 203.4 1038.12 204.642ZM1080.4 203.396C1078.67 205.017 1080.89 214.502 1083.32 215.918C1085.56 217.212 1093.11 211.554 1096.06 206.38C1097.55 203.754 1096.4 203.084 1089.74 202.716C1085.27 202.466 1081.06 202.773 1080.4 203.396ZM272.976 205.936C278.705 206.359 287.529 206.353 292.587 205.925C297.644 205.496 292.957 205.15 282.171 205.156C271.386 205.162 267.248 205.514 272.976 205.936ZM314.341 205.899C317.653 206.368 322.556 206.355 325.236 205.87C327.916 205.385 325.205 205 319.213 205.015C313.221 205.031 311.029 205.428 314.341 205.899ZM1028.45 206.276C1028.45 208.4 1032.6 211.477 1033.83 210.263C1034.23 209.87 1033.18 208.359 1031.5 206.908C1029.83 205.455 1028.45 205.17 1028.45 206.276ZM1063.9 205.848C1066.02 206.368 1068.97 206.333 1070.44 205.772C1071.92 205.211 1070.18 204.787 1066.59 204.828C1062.99 204.869 1061.78 205.328 1063.9 205.848ZM662.443 209.602C663.545 210.848 670.356 211.737 677.699 211.593C684.994 211.448 691.457 212.08 692.061 212.997C693.834 215.695 690.647 218.958 687.847 217.31C683.528 214.768 666.633 215.13 668.916 217.718C670.008 218.952 676.586 219.853 683.535 219.717C690.483 219.582 697.628 220.462 699.415 221.674C701.199 222.884 699.585 220.207 695.826 215.724C689.126 207.733 688.707 207.569 674.721 207.461C664.578 207.381 661.028 207.999 662.443 209.602ZM136.39 210.257C135.763 211.211 138.048 214.51 141.469 217.589C145.986 221.654 148.145 222.495 149.355 220.655C150.34 219.159 150.122 218.647 148.821 219.402C146.195 220.925 136.582 211.9 138.706 209.907C139.515 209.145 139.582 208.523 138.854 208.523C138.125 208.523 137.015 209.303 136.39 210.257ZM164.847 212.267C160.315 216.971 160.262 220.014 164.688 221.609C169.403 223.308 172.663 223.123 176.321 220.948C178.958 219.38 178.868 218.319 175.726 213.814C171.344 207.532 169.641 207.291 164.847 212.267ZM201.207 209.907C202.017 210.668 200.466 213.661 197.757 216.559L192.835 221.828L198.76 216.925C203.941 212.637 205.066 208.523 201.059 208.523C200.331 208.523 200.398 209.145 201.207 209.907ZM272.976 210.029C278.705 210.453 287.529 210.447 292.587 210.019C297.644 209.589 292.957 209.244 282.171 209.25C271.386 209.256 267.248 209.608 272.976 210.029ZM315.352 210.001C319.22 210.453 326.083 210.459 330.605 210.017C335.124 209.573 331.96 209.205 323.571 209.194C315.182 209.186 311.482 209.548 315.352 210.001ZM1060.16 214.465C1057.21 219.818 1057.23 220.53 1060.4 221.67C1064.69 223.216 1079.82 220.776 1076.93 219.003C1075.8 218.305 1073.7 215.663 1072.28 213.128C1068.75 206.834 1064.08 207.35 1060.16 214.465ZM274.057 214.117C279.182 214.551 287.026 214.545 291.488 214.105C295.951 213.665 291.759 213.311 282.171 213.319C272.584 213.325 268.932 213.685 274.057 214.117ZM319.815 214.117C324.939 214.551 332.784 214.545 337.246 214.105C341.708 213.665 337.516 213.311 327.929 213.319C318.342 213.325 314.69 213.685 319.815 214.117ZM1034.99 215.437C1034.99 215.861 1036.71 217.474 1038.8 219.019C1042.26 221.564 1042.34 221.492 1039.63 218.246C1036.78 214.836 1034.99 213.753 1034.99 215.437ZM188.617 222.251C187.436 225.168 187.684 225.404 189.837 223.398C191.327 222.008 191.996 220.356 191.325 219.728C190.654 219.097 189.436 220.233 188.617 222.251ZM1027.37 224.644C1034.01 231.516 1045.43 238.289 1047.34 236.494C1047.92 235.951 1046.25 234.866 1043.63 234.087C1041.01 233.305 1034.81 229.34 1029.85 225.275C1020.89 217.933 1020.87 217.928 1027.37 224.644ZM675.671 226.151C677.97 228.754 681.447 228.82 685.668 226.343C687.082 225.512 688.764 225.627 689.405 226.599C690.043 227.571 693.298 228.192 696.636 227.977C699.975 227.762 704.176 228.593 705.973 229.823C708.797 231.757 708.843 231.583 706.309 228.546C704.696 226.611 702.735 225.109 701.951 225.205C701.166 225.303 700.036 225.168 699.436 224.908C698.837 224.646 692.758 224.268 685.925 224.065C676.488 223.785 674.023 224.286 675.671 226.151ZM268.488 233.102C262.467 243.005 263.779 243.85 270.654 234.498L275.635 227.725L312.676 233.45C333.049 236.598 351.675 238.954 354.07 238.688C357.928 238.258 281.064 224.714 275.635 224.867C274.436 224.902 271.22 228.607 268.488 233.102ZM681.356 233.296C683.179 235.415 687.805 236.264 696.608 236.093C703.557 235.957 710.712 236.838 712.51 238.049C715.284 239.916 715.36 239.744 713.011 236.922C711.325 234.891 707.701 233.796 703.718 234.115C700.127 234.402 696.626 233.784 695.939 232.738C695.231 231.659 693.599 231.6 692.161 232.601C689.063 234.756 686.284 234.633 682.005 232.15C679.323 230.593 679.205 230.797 681.356 233.296ZM150.346 237.179C152.144 238.27 155.085 239.114 156.883 239.05C159.038 238.977 158.667 238.34 155.793 237.179C149.804 234.762 146.363 234.762 150.346 237.179ZM183.03 237.179C178.541 238.53 178.35 238.85 181.941 238.991C184.337 239.085 187.769 238.27 189.567 237.179C193.384 234.862 190.735 234.862 183.03 237.179ZM119.46 240.602C126.53 253.022 146.422 261.965 166.019 261.537C175.312 261.333 175.273 261.304 161.953 258.559C143.652 254.789 135.187 251.209 125.308 243.064C119.037 237.894 117.566 237.274 119.46 240.602ZM1052.02 238.577C1053.59 239.169 1055.47 239.095 1056.19 238.416C1056.91 237.736 1055.63 237.253 1053.33 237.341C1050.79 237.439 1050.28 237.925 1052.02 238.577ZM1078.16 238.577C1079.73 239.169 1081.61 239.095 1082.34 238.416C1083.06 237.736 1081.78 237.253 1079.48 237.341C1076.94 237.439 1076.42 237.925 1078.16 238.577ZM165.08 240.673C167.791 241.163 171.713 241.144 173.796 240.633C175.879 240.121 173.661 239.72 168.867 239.742C164.073 239.765 162.369 240.184 165.08 240.673ZM362.288 240.645C364.409 241.165 367.35 241.13 368.825 240.569C370.3 240.008 368.566 239.585 364.971 239.625C361.375 239.666 360.168 240.125 362.288 240.645ZM689.697 241.173C687.971 243.797 687.823 243.766 703.25 244.118C710.141 244.276 717.249 245.261 719.047 246.302C721.738 247.864 721.849 247.657 719.679 245.138C717.929 243.105 713.53 242.166 706.605 242.346C700.866 242.495 695.031 241.809 693.638 240.823C692.135 239.756 690.535 239.9 689.697 241.173ZM1018.71 244.147C1025.53 253.917 1039.96 260.178 1057.49 260.968L1073.12 261.673L1058.66 258.809C1042.99 255.706 1033.64 251.86 1022.22 243.822L1014.89 238.665L1018.71 244.147ZM1062.8 240.673C1065.51 241.163 1069.43 241.144 1071.51 240.633C1073.6 240.121 1071.38 239.72 1066.59 239.742C1061.79 239.765 1060.09 240.184 1062.8 240.673ZM375.362 242.692C377.482 243.212 380.424 243.177 381.899 242.616C383.374 242.055 381.64 241.631 378.044 241.672C374.449 241.713 373.242 242.172 375.362 242.692ZM387.305 244.675C388.804 245.244 391.255 245.244 392.752 244.675C394.251 244.108 393.024 243.643 390.028 243.643C387.032 243.643 385.808 244.108 387.305 244.675ZM693.852 248.992C694.597 249.69 696.737 250.472 698.611 250.732C700.482 250.99 701.406 250.63 700.663 249.93C699.918 249.232 697.778 248.45 695.904 248.19C694.033 247.932 693.109 248.292 693.852 248.992Z" fill="black" stroke="black" stroke-width="2" mask="url(#path-9-inside-1_4002_6)"/>
</svg>
