<svg width="42" height="17" viewBox="0 0 42 17" fill="none" xmlns="http://www.w3.org/2000/svg">
<path d="M26.4619 7.30144H25.002V4.38157C25.002 3.57816 25.6585 2.92163 26.4619 2.92163V7.30144Z" fill="url(#paint0_radial_2373_2)"/>
<path d="M38.1429 7.30139H25.002V11.6827H38.1429V7.30139Z" fill="#EE3124"/>
<path d="M38.1422 7.30139H16.2402V11.6827H38.1422V7.30139Z" fill="#EE3124"/>
<path d="M38.1422 7.30139H16.2402V11.6827H38.1422V7.30139Z" fill="url(#paint1_radial_2373_2)"/>
<path d="M17.7004 5.84143C13.8611 5.84143 10.0776 6.73296 6.63338 8.4558L0.179688 11.6826H22.0802V7.30137L20.6203 5.84143H17.7004Z" fill="url(#paint2_linear_2373_2)"/>
<path fill-rule="evenodd" clip-rule="evenodd" d="M20.626 11.6826V5.84583L22.08 7.30136V11.6826H20.626Z" fill="url(#paint3_linear_2373_2)"/>
<path d="M38.1425 8.76282H6.02095L3.09961 10.2213H38.1425V8.76282Z" fill="url(#paint4_linear_2373_2)"/>
<path d="M38.1425 8.76282H6.02095L3.09961 10.2213H38.1425V8.76282Z" fill="url(#paint5_linear_2373_2)"/>
<path d="M35.2227 10.9189H41.0624V1.42786H35.2227V10.9189Z" fill="url(#paint6_radial_2373_2)"/>
<path d="M35.2227 4.38157H41.0624V2.92163H35.2227V4.38157Z" fill="url(#paint7_linear_2373_2)"/>
<path d="M35.2227 4.38157H41.0624V2.92163H35.2227V4.38157Z" fill="url(#paint8_linear_2373_2)"/>
<path d="M35.2227 1.46165H41.0624V0.00170898H35.2227V1.46165Z" fill="url(#paint9_linear_2373_2)"/>
<path d="M35.2227 1.46165H41.0624V0.00170898H35.2227V1.46165Z" fill="url(#paint10_linear_2373_2)"/>
<path d="M35.2227 1.46165H41.0624V0.00170898H35.2227V1.46165Z" fill="url(#paint11_linear_2373_2)"/>
<path d="M38.1424 11.6827H23.54V14.6026H38.1394L38.1424 11.6827Z" fill="#A0393E"/>
<path d="M38.1424 11.6827H23.54V14.6026H38.1394L38.1424 11.6827Z" fill="url(#paint12_radial_2373_2)"/>
<path d="M38.1424 11.6827H23.54V14.6026H38.1394L38.1424 11.6827Z" fill="url(#paint13_linear_2373_2)"/>
<path d="M26.0928 11.6827H0.179688V14.6026H26.0928V11.6827Z" fill="url(#paint14_linear_2373_2)"/>
<path d="M26.0928 11.6827H0.179688V14.6026H26.0928V11.6827Z" fill="url(#paint15_linear_2373_2)"/>
<path d="M26.0928 11.6827H0.179688V14.6026H26.0928V11.6827Z" fill="url(#paint16_linear_2373_2)"/>
<path d="M26.0928 11.6827H0.179688V14.6026H26.0928V11.6827Z" fill="url(#paint17_radial_2373_2)"/>
<path d="M26.0928 11.6827H0.179688V14.6026H26.0928V11.6827Z" fill="url(#paint18_linear_2373_2)"/>
<path d="M35.223 7.30144H26.4619V2.92163C29.2658 2.92163 31.9521 4.03054 33.9379 6.01629L35.223 7.30144Z" fill="url(#paint19_radial_2373_2)"/>
<path d="M27.1918 14.6026H23.542V10.2213H27.1918C27.4796 10.2211 27.7646 10.2777 28.0304 10.3878C28.2963 10.4978 28.5379 10.6593 28.7413 10.8628C28.9447 11.0664 29.106 11.308 29.2159 11.574C29.3258 11.8399 29.3821 12.1249 29.3817 12.4127C29.3817 12.7002 29.3251 12.9849 29.215 13.2505C29.1049 13.5161 28.9436 13.7574 28.7402 13.9607C28.5369 14.1639 28.2954 14.3251 28.0298 14.435C27.7641 14.5449 27.4794 14.6013 27.1918 14.6011" fill="url(#paint20_radial_2373_2)"/>
<path d="M27.1918 14.6026H23.542V10.2213H27.1918C27.4796 10.2211 27.7646 10.2777 28.0304 10.3878C28.2963 10.4978 28.5379 10.6593 28.7413 10.8628C28.9447 11.0664 29.106 11.308 29.2159 11.574C29.3258 11.8399 29.3821 12.1249 29.3817 12.4127C29.3817 12.7002 29.3251 12.9849 29.215 13.2505C29.1049 13.5161 28.9436 13.7574 28.7402 13.9607C28.5369 14.1639 28.2954 14.3251 28.0298 14.435C27.7641 14.5449 27.4794 14.6013 27.1918 14.6011" fill="url(#paint21_radial_2373_2)"/>
<path d="M27.1918 14.6026H23.542V10.2213H27.1918C27.4796 10.2211 27.7646 10.2777 28.0304 10.3878C28.2963 10.4978 28.5379 10.6593 28.7413 10.8628C28.9447 11.0664 29.106 11.308 29.2159 11.574C29.3258 11.8399 29.3821 12.1249 29.3817 12.4127C29.3817 12.7002 29.3251 12.9849 29.215 13.2505C29.1049 13.5161 28.9436 13.7574 28.7402 13.9607C28.5369 14.1639 28.2954 14.3251 28.0298 14.435C27.7641 14.5449 27.4794 14.6013 27.1918 14.6011" fill="url(#paint22_linear_2373_2)"/>
<path d="M23.54 10.2228H22.0801V14.6026H23.5415L23.54 10.2228Z" fill="url(#paint23_linear_2373_2)"/>
<path d="M23.54 10.2228H22.0801V14.6026H23.5415L23.54 10.2228Z" fill="url(#paint24_linear_2373_2)"/>
<g filter="url(#filter0_ii_2373_2)">
<path d="M9.67109 16.0625C10.3495 16.074 11.0234 15.9503 11.6535 15.6986C12.2836 15.4469 12.8573 15.0723 13.3412 14.5967C13.825 14.121 14.2093 13.5537 14.4716 12.9279C14.7339 12.3022 14.869 11.6305 14.869 10.9519C14.869 10.2734 14.7339 9.60172 14.4716 8.97596C14.2093 8.35021 13.825 7.78294 13.3412 7.30724C12.8573 6.83155 12.2836 6.45695 11.6535 6.20528C11.0234 5.95362 10.3495 5.82993 9.67109 5.84143C8.3307 5.86416 7.0529 6.41258 6.11303 7.36851C5.17317 8.32445 4.64648 9.61137 4.64648 10.9519C4.64648 12.2925 5.17317 13.5794 6.11303 14.5354C7.0529 15.4913 8.3307 16.0397 9.67109 16.0625Z" fill="url(#paint25_linear_2373_2)"/>
<path d="M9.67109 16.0625C10.3495 16.074 11.0234 15.9503 11.6535 15.6986C12.2836 15.4469 12.8573 15.0723 13.3412 14.5967C13.825 14.121 14.2093 13.5537 14.4716 12.9279C14.7339 12.3022 14.869 11.6305 14.869 10.9519C14.869 10.2734 14.7339 9.60172 14.4716 8.97596C14.2093 8.35021 13.825 7.78294 13.3412 7.30724C12.8573 6.83155 12.2836 6.45695 11.6535 6.20528C11.0234 5.95362 10.3495 5.82993 9.67109 5.84143C8.3307 5.86416 7.0529 6.41258 6.11303 7.36851C5.17317 8.32445 4.64648 9.61137 4.64648 10.9519C4.64648 12.2925 5.17317 13.5794 6.11303 14.5354C7.0529 15.4913 8.3307 16.0397 9.67109 16.0625Z" fill="url(#paint26_radial_2373_2)"/>
<path d="M9.67109 16.0625C10.3495 16.074 11.0234 15.9503 11.6535 15.6986C12.2836 15.4469 12.8573 15.0723 13.3412 14.5967C13.825 14.121 14.2093 13.5537 14.4716 12.9279C14.7339 12.3022 14.869 11.6305 14.869 10.9519C14.869 10.2734 14.7339 9.60172 14.4716 8.97596C14.2093 8.35021 13.825 7.78294 13.3412 7.30724C12.8573 6.83155 12.2836 6.45695 11.6535 6.20528C11.0234 5.95362 10.3495 5.82993 9.67109 5.84143C8.3307 5.86416 7.0529 6.41258 6.11303 7.36851C5.17317 8.32445 4.64648 9.61137 4.64648 10.9519C4.64648 12.2925 5.17317 13.5794 6.11303 14.5354C7.0529 15.4913 8.3307 16.0397 9.67109 16.0625Z" fill="url(#paint27_radial_2373_2)"/>
</g>
<g filter="url(#filter1_ii_2373_2)">
<path d="M9.67111 12.8401C9.92348 12.8472 10.1747 12.8035 10.4099 12.7118C10.6452 12.6201 10.8596 12.4821 11.0406 12.3061C11.2216 12.1301 11.3655 11.9196 11.4637 11.687C11.562 11.4544 11.6126 11.2045 11.6126 10.952C11.6126 10.6996 11.562 10.4497 11.4637 10.2171C11.3655 9.9845 11.2216 9.77398 11.0406 9.59796C10.8596 9.42194 10.6452 9.28399 10.4099 9.19227C10.1747 9.10056 9.92348 9.05693 9.67111 9.06397C9.17947 9.07768 8.71258 9.28262 8.36969 9.6352C8.0268 9.98779 7.83496 10.4602 7.83496 10.952C7.83496 11.4439 8.0268 11.9163 8.36969 12.2689C8.71258 12.6215 9.17947 12.8264 9.67111 12.8401Z" fill="#D9D2E8"/>
</g>
<path fill-rule="evenodd" clip-rule="evenodd" d="M31.1923 4.03784L27.9229 7.3014H35.2225L33.9374 6.01625C33.134 5.21358 32.2066 4.54556 31.1908 4.03784" fill="url(#paint28_radial_2373_2)"/>
<path fill-rule="evenodd" clip-rule="evenodd" d="M31.1923 4.03784L27.9229 7.3014H35.2225L33.9374 6.01625C33.134 5.21358 32.2066 4.54556 31.1908 4.03784" fill="url(#paint29_radial_2373_2)"/>
<g filter="url(#filter2_ii_2373_2)">
<path d="M35.9514 16.0625C36.6298 16.074 37.3037 15.9503 37.9338 15.6986C38.5639 15.4469 39.1376 15.0723 39.6214 14.5967C40.1053 14.121 40.4895 13.5537 40.7519 12.9279C41.0142 12.3022 41.1493 11.6305 41.1493 10.9519C41.1493 10.2734 41.0142 9.60172 40.7519 8.97596C40.4895 8.35021 40.1053 7.78294 39.6214 7.30724C39.1376 6.83155 38.5639 6.45695 37.9338 6.20528C37.3037 5.95362 36.6298 5.82993 35.9514 5.84143C34.611 5.86416 33.3332 6.41258 32.3933 7.36851C31.4534 8.32445 30.9268 9.61137 30.9268 10.9519C30.9268 12.2925 31.4534 13.5794 32.3933 14.5354C33.3332 15.4913 34.611 16.0397 35.9514 16.0625Z" fill="url(#paint30_linear_2373_2)"/>
<path d="M35.9514 16.0625C36.6298 16.074 37.3037 15.9503 37.9338 15.6986C38.5639 15.4469 39.1376 15.0723 39.6214 14.5967C40.1053 14.121 40.4895 13.5537 40.7519 12.9279C41.0142 12.3022 41.1493 11.6305 41.1493 10.9519C41.1493 10.2734 41.0142 9.60172 40.7519 8.97596C40.4895 8.35021 40.1053 7.78294 39.6214 7.30724C39.1376 6.83155 38.5639 6.45695 37.9338 6.20528C37.3037 5.95362 36.6298 5.82993 35.9514 5.84143C34.611 5.86416 33.3332 6.41258 32.3933 7.36851C31.4534 8.32445 30.9268 9.61137 30.9268 10.9519C30.9268 12.2925 31.4534 13.5794 32.3933 14.5354C33.3332 15.4913 34.611 16.0397 35.9514 16.0625Z" fill="url(#paint31_radial_2373_2)"/>
<path d="M35.9514 16.0625C36.6298 16.074 37.3037 15.9503 37.9338 15.6986C38.5639 15.4469 39.1376 15.0723 39.6214 14.5967C40.1053 14.121 40.4895 13.5537 40.7519 12.9279C41.0142 12.3022 41.1493 11.6305 41.1493 10.9519C41.1493 10.2734 41.0142 9.60172 40.7519 8.97596C40.4895 8.35021 40.1053 7.78294 39.6214 7.30724C39.1376 6.83155 38.5639 6.45695 37.9338 6.20528C37.3037 5.95362 36.6298 5.82993 35.9514 5.84143C34.611 5.86416 33.3332 6.41258 32.3933 7.36851C31.4534 8.32445 30.9268 9.61137 30.9268 10.9519C30.9268 12.2925 31.4534 13.5794 32.3933 14.5354C33.3332 15.4913 34.611 16.0397 35.9514 16.0625Z" fill="url(#paint32_radial_2373_2)"/>
</g>
<g filter="url(#filter3_ii_2373_2)">
<path d="M35.9514 12.8401C36.2038 12.8472 36.455 12.8035 36.6902 12.7118C36.9254 12.6201 37.1399 12.4821 37.3209 12.3061C37.5019 12.1301 37.6458 11.9196 37.744 11.687C37.8422 11.4544 37.8929 11.2045 37.8929 10.952C37.8929 10.6996 37.8422 10.4497 37.744 10.2171C37.6458 9.9845 37.5019 9.77398 37.3209 9.59796C37.1399 9.42194 36.9254 9.28399 36.6902 9.19227C36.455 9.10056 36.2038 9.05693 35.9514 9.06397C35.4597 9.07768 34.9929 9.28262 34.65 9.6352C34.3071 9.98779 34.1152 10.4602 34.1152 10.952C34.1152 11.4439 34.3071 11.9163 34.65 12.2689C34.9929 12.6215 35.4597 12.8264 35.9514 12.8401Z" fill="#D2CBE1"/>
</g>
<g filter="url(#filter4_f_2373_2)">
<path d="M10.1058 14.159C11.9991 14.159 13.5339 12.6242 13.5339 10.7309C13.5339 8.83765 11.9991 7.30286 10.1058 7.30286C8.21253 7.30286 6.67773 8.83765 6.67773 10.7309C6.67773 12.6242 8.21253 14.159 10.1058 14.159Z" stroke="url(#paint33_linear_2373_2)"/>
</g>
<g filter="url(#filter5_f_2373_2)">
<path d="M36.3597 14.159C38.253 14.159 39.7878 12.6242 39.7878 10.7309C39.7878 8.83765 38.253 7.30286 36.3597 7.30286C34.4664 7.30286 32.9316 8.83765 32.9316 10.7309C32.9316 12.6242 34.4664 14.159 36.3597 14.159Z" stroke="url(#paint34_linear_2373_2)"/>
</g>
<defs>
<filter id="filter0_ii_2373_2" x="4.64648" y="5.8407" width="10.2227" height="10.3725" filterUnits="userSpaceOnUse" color-interpolation-filters="sRGB">
<feFlood flood-opacity="0" result="BackgroundImageFix"/>
<feBlend mode="normal" in="SourceGraphic" in2="BackgroundImageFix" result="shape"/>
<feColorMatrix in="SourceAlpha" type="matrix" values="0 0 0 0 0 0 0 0 0 0 0 0 0 0 0 0 0 0 127 0" result="hardAlpha"/>
<feOffset/>
<feGaussianBlur stdDeviation="0.5"/>
<feComposite in2="hardAlpha" operator="arithmetic" k2="-1" k3="1"/>
<feColorMatrix type="matrix" values="0 0 0 0 0.145098 0 0 0 0 0.0823529 0 0 0 0 0.215686 0 0 0 1 0"/>
<feBlend mode="normal" in2="shape" result="effect1_innerShadow_2373_2"/>
<feColorMatrix in="SourceAlpha" type="matrix" values="0 0 0 0 0 0 0 0 0 0 0 0 0 0 0 0 0 0 127 0" result="hardAlpha"/>
<feOffset dy="0.15"/>
<feGaussianBlur stdDeviation="0.125"/>
<feComposite in2="hardAlpha" operator="arithmetic" k2="-1" k3="1"/>
<feColorMatrix type="matrix" values="0 0 0 0 0.207843 0 0 0 0 0.0313726 0 0 0 0 0.235294 0 0 0 1 0"/>
<feBlend mode="normal" in2="effect1_innerShadow_2373_2" result="effect2_innerShadow_2373_2"/>
</filter>
<filter id="filter1_ii_2373_2" x="7.78496" y="9.01323" width="3.87734" height="3.87759" filterUnits="userSpaceOnUse" color-interpolation-filters="sRGB">
<feFlood flood-opacity="0" result="BackgroundImageFix"/>
<feBlend mode="normal" in="SourceGraphic" in2="BackgroundImageFix" result="shape"/>
<feColorMatrix in="SourceAlpha" type="matrix" values="0 0 0 0 0 0 0 0 0 0 0 0 0 0 0 0 0 0 127 0" result="hardAlpha"/>
<feOffset dx="0.05" dy="-0.05"/>
<feGaussianBlur stdDeviation="0.05"/>
<feComposite in2="hardAlpha" operator="arithmetic" k2="-1" k3="1"/>
<feColorMatrix type="matrix" values="0 0 0 0 0.478431 0 0 0 0 0.364706 0 0 0 0 0.584314 0 0 0 1 0"/>
<feBlend mode="normal" in2="shape" result="effect1_innerShadow_2373_2"/>
<feColorMatrix in="SourceAlpha" type="matrix" values="0 0 0 0 0 0 0 0 0 0 0 0 0 0 0 0 0 0 127 0" result="hardAlpha"/>
<feOffset dx="-0.05" dy="0.05"/>
<feGaussianBlur stdDeviation="0.05"/>
<feComposite in2="hardAlpha" operator="arithmetic" k2="-1" k3="1"/>
<feColorMatrix type="matrix" values="0 0 0 0 0.807843 0 0 0 0 0.764706 0 0 0 0 0.858824 0 0 0 1 0"/>
<feBlend mode="normal" in2="effect1_innerShadow_2373_2" result="effect2_innerShadow_2373_2"/>
</filter>
<filter id="filter2_ii_2373_2" x="30.9268" y="5.8407" width="10.2227" height="10.3725" filterUnits="userSpaceOnUse" color-interpolation-filters="sRGB">
<feFlood flood-opacity="0" result="BackgroundImageFix"/>
<feBlend mode="normal" in="SourceGraphic" in2="BackgroundImageFix" result="shape"/>
<feColorMatrix in="SourceAlpha" type="matrix" values="0 0 0 0 0 0 0 0 0 0 0 0 0 0 0 0 0 0 127 0" result="hardAlpha"/>
<feOffset/>
<feGaussianBlur stdDeviation="0.5"/>
<feComposite in2="hardAlpha" operator="arithmetic" k2="-1" k3="1"/>
<feColorMatrix type="matrix" values="0 0 0 0 0.145098 0 0 0 0 0.0823529 0 0 0 0 0.215686 0 0 0 1 0"/>
<feBlend mode="normal" in2="shape" result="effect1_innerShadow_2373_2"/>
<feColorMatrix in="SourceAlpha" type="matrix" values="0 0 0 0 0 0 0 0 0 0 0 0 0 0 0 0 0 0 127 0" result="hardAlpha"/>
<feOffset dy="0.15"/>
<feGaussianBlur stdDeviation="0.125"/>
<feComposite in2="hardAlpha" operator="arithmetic" k2="-1" k3="1"/>
<feColorMatrix type="matrix" values="0 0 0 0 0.207843 0 0 0 0 0.0313726 0 0 0 0 0.235294 0 0 0 1 0"/>
<feBlend mode="normal" in2="effect1_innerShadow_2373_2" result="effect2_innerShadow_2373_2"/>
</filter>
<filter id="filter3_ii_2373_2" x="34.0652" y="9.01323" width="3.87734" height="3.87759" filterUnits="userSpaceOnUse" color-interpolation-filters="sRGB">
<feFlood flood-opacity="0" result="BackgroundImageFix"/>
<feBlend mode="normal" in="SourceGraphic" in2="BackgroundImageFix" result="shape"/>
<feColorMatrix in="SourceAlpha" type="matrix" values="0 0 0 0 0 0 0 0 0 0 0 0 0 0 0 0 0 0 127 0" result="hardAlpha"/>
<feOffset dx="0.05" dy="-0.05"/>
<feGaussianBlur stdDeviation="0.05"/>
<feComposite in2="hardAlpha" operator="arithmetic" k2="-1" k3="1"/>
<feColorMatrix type="matrix" values="0 0 0 0 0.478431 0 0 0 0 0.364706 0 0 0 0 0.584314 0 0 0 1 0"/>
<feBlend mode="normal" in2="shape" result="effect1_innerShadow_2373_2"/>
<feColorMatrix in="SourceAlpha" type="matrix" values="0 0 0 0 0 0 0 0 0 0 0 0 0 0 0 0 0 0 127 0" result="hardAlpha"/>
<feOffset dx="-0.05" dy="0.05"/>
<feGaussianBlur stdDeviation="0.05"/>
<feComposite in2="hardAlpha" operator="arithmetic" k2="-1" k3="1"/>
<feColorMatrix type="matrix" values="0 0 0 0 0.807843 0 0 0 0 0.764706 0 0 0 0 0.858824 0 0 0 1 0"/>
<feBlend mode="normal" in2="effect1_innerShadow_2373_2" result="effect2_innerShadow_2373_2"/>
</filter>
<filter id="filter4_f_2373_2" x="5.42773" y="6.05286" width="9.35645" height="9.35608" filterUnits="userSpaceOnUse" color-interpolation-filters="sRGB">
<feFlood flood-opacity="0" result="BackgroundImageFix"/>
<feBlend mode="normal" in="SourceGraphic" in2="BackgroundImageFix" result="shape"/>
<feGaussianBlur stdDeviation="0.375" result="effect1_foregroundBlur_2373_2"/>
</filter>
<filter id="filter5_f_2373_2" x="31.6816" y="6.05286" width="9.35645" height="9.35608" filterUnits="userSpaceOnUse" color-interpolation-filters="sRGB">
<feFlood flood-opacity="0" result="BackgroundImageFix"/>
<feBlend mode="normal" in="SourceGraphic" in2="BackgroundImageFix" result="shape"/>
<feGaussianBlur stdDeviation="0.375" result="effect1_foregroundBlur_2373_2"/>
</filter>
<radialGradient id="paint0_radial_2373_2" cx="0" cy="0" r="1" gradientUnits="userSpaceOnUse" gradientTransform="translate(26.3238 3.97032) rotate(90) scale(3.92432 3.29753)">
<stop stop-color="#727273"/>
<stop offset="1" stop-color="#4E2A2A"/>
</radialGradient>
<radialGradient id="paint1_radial_2373_2" cx="0" cy="0" r="1" gradientUnits="userSpaceOnUse" gradientTransform="translate(31.3243 11.6827) rotate(180) scale(1.56055 3.2034)">
<stop offset="0.155" stop-color="#AA2E30"/>
<stop offset="1" stop-color="#AA2E30" stop-opacity="0"/>
</radialGradient>
<linearGradient id="paint2_linear_2373_2" x1="2.95416" y1="11.6826" x2="22.0802" y2="11.6826" gradientUnits="userSpaceOnUse">
<stop stop-color="#C03131"/>
<stop offset="1" stop-color="#FC443F"/>
</linearGradient>
<linearGradient id="paint3_linear_2373_2" x1="21.353" y1="6.56698" x2="21.353" y2="11.6826" gradientUnits="userSpaceOnUse">
<stop stop-color="#FF5752"/>
<stop offset="1" stop-color="#FF5752" stop-opacity="0"/>
</linearGradient>
<linearGradient id="paint4_linear_2373_2" x1="9.22577" y1="9.49866" x2="24.4949" y2="9.49866" gradientUnits="userSpaceOnUse">
<stop stop-color="#C5C5C7"/>
<stop offset="1" stop-color="#F0EBED"/>
</linearGradient>
<linearGradient id="paint5_linear_2373_2" x1="31.7388" y1="9.84529" x2="29.352" y2="9.84529" gradientUnits="userSpaceOnUse">
<stop stop-color="#B9B3BA"/>
<stop offset="1" stop-color="#B9B3BA" stop-opacity="0"/>
</linearGradient>
<radialGradient id="paint6_radial_2373_2" cx="0" cy="0" r="1" gradientUnits="userSpaceOnUse" gradientTransform="translate(38.1425 6.17339) rotate(-88.2109) scale(7.03395 17.5842)">
<stop stop-color="#ED4C48"/>
<stop offset="1" stop-color="#B5312D"/>
</radialGradient>
<linearGradient id="paint7_linear_2373_2" x1="35.2183" y1="3.65894" x2="41.058" y2="3.65894" gradientUnits="userSpaceOnUse">
<stop stop-color="#E4AA2D"/>
<stop offset="1" stop-color="#F38320"/>
</linearGradient>
<linearGradient id="paint8_linear_2373_2" x1="34.7541" y1="3.92185" x2="36.3257" y2="3.92185" gradientUnits="userSpaceOnUse">
<stop stop-color="#B58B2C"/>
<stop offset="1" stop-color="#B58B2C" stop-opacity="0"/>
</linearGradient>
<linearGradient id="paint9_linear_2373_2" x1="35.2227" y1="0.731677" x2="41.0624" y2="0.731677" gradientUnits="userSpaceOnUse">
<stop stop-color="#B9AAB5"/>
<stop offset="0.693" stop-color="#D8D4E0"/>
<stop offset="1" stop-color="#C7C5CC"/>
</linearGradient>
<linearGradient id="paint10_linear_2373_2" x1="35.067" y1="1.46165" x2="36.4314" y2="1.46165" gradientUnits="userSpaceOnUse">
<stop stop-color="#94858A"/>
<stop offset="1" stop-color="#94858A" stop-opacity="0"/>
</linearGradient>
<linearGradient id="paint11_linear_2373_2" x1="41.2622" y1="1.46165" x2="40.8494" y2="1.46165" gradientUnits="userSpaceOnUse">
<stop stop-color="#94858A"/>
<stop offset="1" stop-color="#94858A" stop-opacity="0"/>
</linearGradient>
<radialGradient id="paint12_radial_2373_2" cx="0" cy="0" r="1" gradientUnits="userSpaceOnUse" gradientTransform="translate(32.7932 13.1427) rotate(180) scale(2.9834 4.08373)">
<stop offset="0.429" stop-color="#620B25"/>
<stop offset="1" stop-color="#620B25" stop-opacity="0"/>
</radialGradient>
<linearGradient id="paint13_linear_2373_2" x1="32.1425" y1="11.6827" x2="32.1425" y2="11.8179" gradientUnits="userSpaceOnUse">
<stop stop-color="#B11B27"/>
<stop offset="1" stop-color="#B11B27" stop-opacity="0"/>
</linearGradient>
<linearGradient id="paint14_linear_2373_2" x1="1.99506" y1="14.6026" x2="27.0035" y2="14.6026" gradientUnits="userSpaceOnUse">
<stop stop-color="#AB3138"/>
<stop offset="1" stop-color="#C8494E"/>
</linearGradient>
<linearGradient id="paint15_linear_2373_2" x1="21.6866" y1="15.2151" x2="19.2279" y2="14.3706" gradientUnits="userSpaceOnUse">
<stop stop-color="#722026"/>
<stop offset="1" stop-color="#722026" stop-opacity="0"/>
</linearGradient>
<linearGradient id="paint16_linear_2373_2" x1="19.2999" y1="15.3061" x2="19.2999" y2="13.4247" gradientUnits="userSpaceOnUse">
<stop stop-color="#722026"/>
<stop offset="1" stop-color="#722026" stop-opacity="0"/>
</linearGradient>
<radialGradient id="paint17_radial_2373_2" cx="0" cy="0" r="1" gradientUnits="userSpaceOnUse" gradientTransform="translate(7.59541 13.1427) rotate(170.73) scale(4.60407 3.26297)">
<stop stop-color="#722026"/>
<stop offset="1" stop-color="#722026" stop-opacity="0"/>
</radialGradient>
<linearGradient id="paint18_linear_2373_2" x1="15.4444" y1="11.6827" x2="15.4444" y2="11.8179" gradientUnits="userSpaceOnUse">
<stop stop-color="#BF212E"/>
<stop offset="1" stop-color="#BF212E" stop-opacity="0"/>
</linearGradient>
<radialGradient id="paint19_radial_2373_2" cx="0" cy="0" r="1" gradientUnits="userSpaceOnUse" gradientTransform="translate(27.3326 7.30198) rotate(-68.122) scale(5.17332 11.0514)">
<stop stop-color="#FF5A56"/>
<stop offset="1" stop-color="#FF4940"/>
</radialGradient>
<radialGradient id="paint20_radial_2373_2" cx="0" cy="0" r="1" gradientUnits="userSpaceOnUse" gradientTransform="translate(24.0737 10.5797) scale(5.30792 3.58008)">
<stop stop-color="#FFE042"/>
<stop offset="1" stop-color="#DC8B38"/>
</radialGradient>
<radialGradient id="paint21_radial_2373_2" cx="0" cy="0" r="1" gradientUnits="userSpaceOnUse" gradientTransform="translate(23.5405 12.4127) scale(5.48953 4.57717)">
<stop offset="0.749" stop-color="#E57A14" stop-opacity="0"/>
<stop offset="1" stop-color="#E57A14"/>
</radialGradient>
<linearGradient id="paint22_linear_2373_2" x1="24.9916" y1="15.995" x2="24.9916" y2="13.3791" gradientUnits="userSpaceOnUse">
<stop stop-color="#97594D"/>
<stop offset="0.93" stop-color="#97594D" stop-opacity="0"/>
</linearGradient>
<linearGradient id="paint23_linear_2373_2" x1="22.8115" y1="10.2213" x2="22.8115" y2="12.4127" gradientUnits="userSpaceOnUse">
<stop stop-color="#626162"/>
<stop offset="1" stop-color="#646367"/>
</linearGradient>
<linearGradient id="paint24_linear_2373_2" x1="23.5415" y1="14.6026" x2="23.5415" y2="11.4286" gradientUnits="userSpaceOnUse">
<stop stop-color="#2B1B41"/>
<stop offset="1" stop-color="#2B1B41" stop-opacity="0"/>
</linearGradient>
<linearGradient id="paint25_linear_2373_2" x1="7.31375" y1="9.66753" x2="14.9894" y2="9.66753" gradientUnits="userSpaceOnUse">
<stop offset="0.239" stop-color="#34214F"/>
<stop offset="1" stop-color="#241337"/>
</linearGradient>
<radialGradient id="paint26_radial_2373_2" cx="0" cy="0" r="1" gradientUnits="userSpaceOnUse" gradientTransform="translate(9.67109 10.4959) rotate(-65.5366) scale(2.78835 2.91234)">
<stop offset="0.523" stop-color="#2D114D"/>
<stop offset="1" stop-color="#2B1249" stop-opacity="0"/>
</radialGradient>
<radialGradient id="paint27_radial_2373_2" cx="0" cy="0" r="1" gradientUnits="userSpaceOnUse" gradientTransform="translate(11.0649 11.3052) rotate(33.4863) scale(1.13148 1.2714)">
<stop stop-color="#392A49"/>
<stop offset="1" stop-color="#392A49" stop-opacity="0"/>
</radialGradient>
<radialGradient id="paint28_radial_2373_2" cx="0" cy="0" r="1" gradientUnits="userSpaceOnUse" gradientTransform="translate(29.421 5.1864) rotate(28.0725) scale(3.12109 2.02629)">
<stop stop-color="#F8F2F5"/>
<stop offset="1" stop-color="#F2DEE2"/>
</radialGradient>
<radialGradient id="paint29_radial_2373_2" cx="0" cy="0" r="1" gradientUnits="userSpaceOnUse" gradientTransform="translate(31.0731 8.00927) rotate(-52.409) scale(3.64921 6.44634)">
<stop offset="0.688" stop-color="#C8BBBA" stop-opacity="0"/>
<stop offset="1" stop-color="#C8BBBA"/>
</radialGradient>
<linearGradient id="paint30_linear_2373_2" x1="33.5955" y1="9.66753" x2="41.2712" y2="9.66753" gradientUnits="userSpaceOnUse">
<stop offset="0.239" stop-color="#34214F"/>
<stop offset="1" stop-color="#241337"/>
</linearGradient>
<radialGradient id="paint31_radial_2373_2" cx="0" cy="0" r="1" gradientUnits="userSpaceOnUse" gradientTransform="translate(35.9514 10.4959) rotate(-65.5366) scale(2.78835 2.91234)">
<stop offset="0.523" stop-color="#2D114D"/>
<stop offset="1" stop-color="#2B1249" stop-opacity="0"/>
</radialGradient>
<radialGradient id="paint32_radial_2373_2" cx="0" cy="0" r="1" gradientUnits="userSpaceOnUse" gradientTransform="translate(37.3467 11.3052) rotate(33.4863) scale(1.13148 1.2714)">
<stop stop-color="#392A49"/>
<stop offset="1" stop-color="#392A49" stop-opacity="0"/>
</radialGradient>
<linearGradient id="paint33_linear_2373_2" x1="12.6658" y1="7.30139" x2="7.49436" y2="13.4055" gradientUnits="userSpaceOnUse">
<stop offset="0.083" stop-color="#615B6B"/>
<stop offset="0.391" stop-color="#615B6B" stop-opacity="0"/>
<stop offset="0.692" stop-color="#615B6B" stop-opacity="0"/>
<stop offset="0.935" stop-color="#615B6B"/>
</linearGradient>
<linearGradient id="paint34_linear_2373_2" x1="38.9197" y1="7.30139" x2="33.7483" y2="13.4055" gradientUnits="userSpaceOnUse">
<stop offset="0.083" stop-color="#615B6B"/>
<stop offset="0.391" stop-color="#615B6B" stop-opacity="0"/>
<stop offset="0.692" stop-color="#615B6B" stop-opacity="0"/>
<stop offset="0.935" stop-color="#615B6B"/>
</linearGradient>
</defs>
</svg>
