<svg width="267" height="122" viewBox="0 0 267 122" fill="none" xmlns="http://www.w3.org/2000/svg">
<path d="M14.1504 92.2758C10.3743 101.087 16.7398 118.061 72.4103 115.472C88.1793 114.738 104.061 114.19 119.216 113.784C85.0985 111.262 47.3891 105.06 14.1504 92.2758Z" fill="#DCD4D4"/>
<path d="M206.732 112.775C188.364 114.957 155.862 116.493 119.216 113.784C157.565 112.757 191.266 112.646 206.732 112.775Z" fill="#DCD4D4"/>
<path fill-rule="evenodd" clip-rule="evenodd" d="M266.998 121.331V61.5C33.7795 61.5223 -146.5 34.5 266.999 25.5C-58.9366 25.6668 48.3103 3.248 31.0961 2.84767C13.8819 2.44734 3.19148 8.40797 -0.00195312 11.4383V121.331H266.998ZM14.1504 92.2758C10.3743 101.087 16.7398 118.061 72.4103 115.472C88.1793 114.738 104.061 114.19 119.216 113.784C155.862 116.493 188.364 114.957 206.732 112.775C191.266 112.646 157.565 112.757 119.216 113.784C85.0985 111.262 47.3891 105.06 14.1504 92.2758Z" fill="white"/>
<path d="M266.998 3.06745L-0.00195312 0V11.4383C3.19148 8.40797 13.8819 2.44734 31.0961 2.84767C48.3103 3.248 -58.9366 25.6668 266.999 25.5C-146.5 34.5 33.7795 61.5223 266.998 61.5V3.06745Z" fill="white"/>
</svg>
