<svg width="291" height="115" viewBox="0 0 291 115" fill="none" xmlns="http://www.w3.org/2000/svg">
<path d="M32.0138 106.216H257.01C261.177 104.828 270.621 98.7165 275.066 85.3834C252.787 92.3277 172.987 106.216 32.0138 106.216Z" fill="#DCD4D4"/>
<path fill-rule="evenodd" clip-rule="evenodd" d="M290.897 114.437V11.416C289.56 4.38226 281.475 2.77305 277.6 2.84767C-48.3352 3.01447 18.415 11.8163 1.20078 11.416C-16.0134 11.0157 396.999 57.5 1.17843 57.5V114.437H290.897ZM32.0138 106.216H257.01C261.177 104.828 270.621 98.7165 275.066 85.3834C252.787 92.3277 172.987 106.216 32.0138 106.216Z" fill="white"/>
<path d="M290.897 0H1.17843V57.5C396.999 57.5 -16.0134 11.0157 1.20078 11.416C18.415 11.8163 -48.3352 3.01447 277.6 2.84767C281.475 2.77305 289.56 4.38226 290.897 11.416V0Z" fill="white"/>
</svg>
