<?xml version="1.0" encoding="UTF-8"?><svg id="Layer_1" xmlns="http://www.w3.org/2000/svg" viewBox="0 0 1164.68 341.02"><defs><style>.cls-1{fill:none;}.cls-1,.cls-2{stroke-width:0px;}.cls-2{fill:#fff;}</style></defs><rect class="cls-1" width="1164.68" height="341.02"/><path class="cls-2" d="M209.12,85.25h33.13l36.05,149.8h3.41l36.05-149.8h33.13l-43.36,170.51h-55.05l-43.36-170.51ZM371.33,85.25h109.61v29.23h-77.46v40.68h70.64v29.23h-70.64v42.14h78.92v29.23h-111.07V85.25ZM506.98,85.25h74.05c31.91,0,53.1,18.03,53.1,45.55v2.92c0,20.46-10.96,32.88-25.33,38.73v4.38c12.91.73,20.46,9.5,20.46,23.14v55.78h-32.15v-51.15c0-7.79-3.65-13.15-13.15-13.15h-44.82v64.31h-32.15V85.25ZM577.62,162.23c15.1,0,24.36-9.01,24.36-22.65v-2.44c0-13.64-8.77-22.66-24.36-22.66h-38.49v47.74h38.49ZM785.71,190.97v-40.92c0-43.85,27.28-68.2,70.15-68.2s70.15,24.36,70.15,68.2v40.92c0,43.85-27.28,68.2-70.15,68.2s-70.15-24.36-70.15-68.2ZM893.86,191.94v-42.87c0-23.38-14.13-38.49-38-38.49s-38,15.1-38,38.49v42.87c0,23.38,14.13,38.49,38,38.49s38-15.1,38-38.49ZM983.21,169.78l-49.45-84.52h36.54l33.86,61.63h4.38l33.86-61.63h36.54l-49.45,84.52,49.94,85.99h-36.54l-34.35-63.09h-4.38l-34.35,63.09h-36.54l49.93-85.99ZM117.41,226.53v-42.14h70.64v-29.23h-70.64v-40.68h77.46v-29.23h-62.75l-46.86,46.86v123.65h111.07v-29.23h-78.92ZM768.41,114.48v-29.23h-60.32l-46.86,46.86v123.65h32.15v-70.88h69.18v-29.23h-69.18v-41.17h75.03Z"/></svg>