<svg width="1234" height="258" viewBox="0 0 1234 258" fill="none" xmlns="http://www.w3.org/2000/svg">
<path d="M135 128.5L155.5 154.5L164.5 214.5L121.5 241H86.5L62 234L48.5 225.5L33 220L20.5 172.5L16 133.5L48.5 128.5L103.5 116.5L135 128.5Z" fill="#8F8F8F"/>
<path d="M164.5 185.5L187.5 181.5L231 191L238.5 214.5L213 217L208.5 214.5L203.5 220H169L164.5 185.5Z" fill="#8F8F8F"/>
<path d="M1037.5 225L1047 178L1044.5 140L1022 127L978 124H940.5L928.5 148.5L989.5 150.5L930 162V204.5L948.5 228.5L966.5 236.5L999.5 240.5L1037.5 225Z" fill="#8F8F8F"/>
<path d="M33 53.5L39 49.5L56.5 52L113.5 62L120.5 67.5L139 98.5L135 100L103.5 80.5L56.5 78H39L33 72.5V62V53.5Z" fill="#8F8F8F"/>
<path d="M135 128.5L155.5 154.5L164.5 214.5L121.5 241H86.5L62 234L48.5 225.5L33 220L20.5 172.5L16 133.5L48.5 128.5L103.5 116.5L135 128.5Z" stroke="#F8F8F8"/>
<path d="M164.5 185.5L187.5 181.5L231 191L238.5 214.5L213 217L208.5 214.5L203.5 220H169L164.5 185.5Z" stroke="#F8F8F8"/>
<path d="M1037.5 225L1047 178L1044.5 140L1022 127L978 124H940.5L928.5 148.5L989.5 150.5L930 162V204.5L948.5 228.5L966.5 236.5L999.5 240.5L1037.5 225Z" stroke="#F8F8F8"/>
<path d="M33 53.5L39 49.5L56.5 52L113.5 62L120.5 67.5L139 98.5L135 100L103.5 80.5L56.5 78H39L33 72.5V62V53.5Z" stroke="#F8F8F8"/>
<path d="M472.5 142.5L499.5 200L458 211.5H342.5L257 202L191 185L175 153L324.5 142.5H362H428.5H472.5Z" fill="#322BB7"/>
<path d="M902.5 229L906 200L866 163.5L847 144L745 141L557.5 152.5L523 163.5L539 233L596.5 237L660.5 230L720 220.5L758.5 218L803 219.5L855.5 229H902.5Z" fill="#322BB7"/>
<path d="M472.5 142.5L499.5 200L458 211.5H342.5L257 202L191 185L175 153L324.5 142.5H362H428.5H472.5Z" stroke="#8F8F8F"/>
<path d="M902.5 229L906 200L866 163.5L847 144L745 141L557.5 152.5L523 163.5L539 233L596.5 237L660.5 230L720 220.5L758.5 218L803 219.5L855.5 229H902.5Z" stroke="#8F8F8F"/>
<path d="M248.5 206L417 227.5L429 242L187.5 244.5L168 227.5L204.5 216H233L248.5 206Z" fill="#A6A2F0"/>
<path d="M115 120L168 134L146 106L110.5 90.5L82.5 96V106L115 120Z" fill="#A6A2F0"/>
<path d="M471.5 136L523.5 144.5V163L527 181L531 186V194.5L540 242L521.5 237.5L471.5 136Z" fill="#A6A2F0"/>
<path d="M844.5 245L862 230L861 229L857.5 227L801.5 220L749 217L726.5 220L699 227L685 235.5L844.5 245Z" fill="#A6A2F0"/>
<path d="M1208 195L1078 214H1063.5L1066 167.5L1127 177.5L1197.5 184.5L1208 195Z" fill="#A6A2F0"/>
<path d="M1127 216.5H1159H1184.5L1214.5 219L1225.5 225L1227.5 228V240H1200H1130L1127 216.5Z" fill="#A6A2F0"/>
<path d="M857.5 156L894 171.5L903 167.5V148.5L872.5 143H844.5L857.5 156Z" fill="#A6A2F0"/>
<path d="M435.5 7L431 2V21L438 23L435.5 7Z" fill="#A6A2F0"/>
<path d="M670 99.5L663.5 108.5L653.5 106.5L634.5 111L590.5 116.5H557L525.5 115L492.5 108.5L476 103.5L474.5 94L517.5 101.5L525.5 105.5L547 109H550.5H555.5H560H563.5L567 108.5L570 109L575.5 108.5L605 106.5L624 102.5L651 97L658.5 83L665.5 91.5L673.5 97L677 83L682.5 80L693 85.5V95L670 99.5Z" fill="#A6A2F0"/>
<path d="M160.5 97L164 95L208.5 99.5L258.5 105.5L275.5 113.5L226 111L208.5 108.5L189.5 104L166 102L160.5 97Z" fill="#A6A2F0"/>
<path d="M248.5 206L417 227.5L429 242L187.5 244.5L168 227.5L204.5 216H233L248.5 206Z" stroke="#8F8F8F"/>
<path d="M115 120L168 134L146 106L110.5 90.5L82.5 96V106L115 120Z" stroke="#8F8F8F"/>
<path d="M471.5 136L523.5 144.5V163L527 181L531 186V194.5L540 242L521.5 237.5L471.5 136Z" stroke="#8F8F8F"/>
<path d="M844.5 245L862 230L861 229L857.5 227L801.5 220L749 217L726.5 220L699 227L685 235.5L844.5 245Z" stroke="#8F8F8F"/>
<path d="M1208 195L1078 214H1063.5L1066 167.5L1127 177.5L1197.5 184.5L1208 195Z" stroke="#8F8F8F"/>
<path d="M1127 216.5H1159H1184.5L1214.5 219L1225.5 225L1227.5 228V240H1200H1130L1127 216.5Z" stroke="#8F8F8F"/>
<path d="M857.5 156L894 171.5L903 167.5V148.5L872.5 143H844.5L857.5 156Z" stroke="#8F8F8F"/>
<path d="M435.5 7L431 2V21L438 23L435.5 7Z" stroke="#8F8F8F"/>
<path d="M670 99.5L663.5 108.5L653.5 106.5L634.5 111L590.5 116.5H557L525.5 115L492.5 108.5L476 103.5L474.5 94L517.5 101.5L525.5 105.5L547 109H550.5H555.5H560H563.5L567 108.5L570 109L575.5 108.5L605 106.5L624 102.5L651 97L658.5 83L665.5 91.5L673.5 97L677 83L682.5 80L693 85.5V95L670 99.5Z" stroke="#8F8F8F"/>
<path d="M160.5 97L164 95L208.5 99.5L258.5 105.5L275.5 113.5L226 111L208.5 108.5L189.5 104L166 102L160.5 97Z" stroke="#8F8F8F"/>
<path d="M186.5 125L164 124L159.5 110L165 102L197.5 106L229 113.5L226.5 124L186.5 125Z" fill="#2B6FB7"/>
<path d="M173 161.5L177.5 130L234 126L443 91L444.5 84.5H451L473.5 93.5L477 103.5L502.5 110.5L545.5 116.5L602.5 115.5L650.5 107.5L654.5 112L642.5 134.5H611.5L423.5 139L311 142L211 151L182 152.5L173 161.5Z" fill="#2B6FB7"/>
<path d="M1073.5 165.5L1066.5 140L1140.5 155L1200 175L1213.5 185.5H1200L1114 175L1073.5 165.5Z" fill="#2B6FB7"/>
<path d="M893 143L654.5 139L645.5 136V131.5L650.5 123.5L671 99L707 93.5H787.5L844.5 107.5L927.5 110.5V131L893 143Z" fill="#2B6FB7"/>
<path d="M186.5 125L164 124L159.5 110L165 102L197.5 106L229 113.5L226.5 124L186.5 125Z" stroke="#8F8F8F"/>
<path d="M173 161.5L177.5 130L234 126L443 91L444.5 84.5H451L473.5 93.5L477 103.5L502.5 110.5L545.5 116.5L602.5 115.5L650.5 107.5L654.5 112L642.5 134.5H611.5L423.5 139L311 142L211 151L182 152.5L173 161.5Z" stroke="#8F8F8F"/>
<path d="M1073.5 165.5L1066.5 140L1140.5 155L1200 175L1213.5 185.5H1200L1114 175L1073.5 165.5Z" stroke="#8F8F8F"/>
<path d="M893 143L654.5 139L645.5 136V131.5L650.5 123.5L671 99L707 93.5H787.5L844.5 107.5L927.5 110.5V131L893 143Z" stroke="#8F8F8F"/>
<path d="M88 240.5L105 244.5L84.5 253L66.5 244.5L53.5 242L43.5 233.5L37 222.5H43.5L53.5 229.5L70 236L88 240.5Z" fill="white"/>
<path d="M142 103L159.5 129.5H142L99.5 117.5L82.5 104.5L92 93H118.5L142 103Z" fill="white"/>
<path d="M474 57.5L479.5 55.5V56.5L491 39.5L520 30.5L533 33.5L544 41.5L555 55.5L560 67.5L564 81.5L566.5 89.5L563 98V102.5H558.5H551.5L544 100L541 103.5L537.5 106L514 102.5L499.5 100L483 95.5L475 87L474 76.5V64V57.5Z" fill="white"/>
<path d="M642 77L670 91.5H673L665 78.5L657 72.5L646 67L633.5 63.5H621.5L620 75V78L621.5 85L634.5 81L642 77Z" fill="white"/>
<path d="M958 233.5L996.5 243.5L998 245L982 250L953.5 243.5L937 233.5L926 222.5L931 216L958 233.5Z" fill="white"/>
<path d="M973 104.5L1052 131.5L1050.5 114.5L1025 97L1001 90L982 94L973 104.5Z" fill="white"/>
<path d="M88 240.5L105 244.5L84.5 253L66.5 244.5L53.5 242L43.5 233.5L37 222.5H43.5L53.5 229.5L70 236L88 240.5Z" stroke="#8F8F8F"/>
<path d="M142 103L159.5 129.5H142L99.5 117.5L82.5 104.5L92 93H118.5L142 103Z" stroke="#8F8F8F"/>
<path d="M474 57.5L479.5 55.5V56.5L491 39.5L520 30.5L533 33.5L544 41.5L555 55.5L560 67.5L564 81.5L566.5 89.5L563 98V102.5H558.5H551.5L544 100L541 103.5L537.5 106L514 102.5L499.5 100L483 95.5L475 87L474 76.5V64V57.5Z" stroke="#8F8F8F"/>
<path d="M642 77L670 91.5H673L665 78.5L657 72.5L646 67L633.5 63.5H621.5L620 75V78L621.5 85L634.5 81L642 77Z" stroke="#8F8F8F"/>
<path d="M958 233.5L996.5 243.5L998 245L982 250L953.5 243.5L937 233.5L926 222.5L931 216L958 233.5Z" stroke="#8F8F8F"/>
<path d="M973 104.5L1052 131.5L1050.5 114.5L1025 97L1001 90L982 94L973 104.5Z" stroke="#8F8F8F"/>
<path d="M271.5 166.5L260 160.5L263 159L276.5 160.5L293.5 164.5L313 167L324.5 164L337.5 157.5L335 156.5L336 153L349 152L360 155.5L374.5 161.5L388.5 161L400.5 157.5V153L393.5 150L388.5 149.5L391 145.5L384 139L418.5 149.5L441.5 161.5L451.5 163L456 165.5L462.5 170.5L469.5 173.5L468 175.5H452.5L435 174.5L419 181L412 183L409.5 178.5L404 181L395.5 185L388.5 189H380.5L374 186.5L367.5 185.5L362 183L355 181.5L346.5 181L342 180L345 179V174L342 173.5H337.5L332.5 175.5L326.5 176.5L320.5 180L314.5 181H306.5L298.5 180L289.5 178L281.5 172.5L271.5 166.5Z" fill="#EE1C00"/>
<path d="M763 159.5L791.5 178.5L788.5 183.5L777 195.5L762 204.5H757L753 202.5L757 198.5L761 196.5L763 193.5L762 191L755 190H745L732.5 191L724.5 196.5L714 207.5L704.5 216L693.5 218H681.5L669.5 216L662.5 210H673.5L693.5 204.5L698 199.5L658.5 192.5L652 191L647 190H640.5H635L630.5 191L622.5 193.5L618 196.5L607.5 201L610.5 195L612 192.5L615 190V188L613 187H609.5L602 188L591.5 190L582.5 193.5L569.5 196.5H559H550.5L544.5 192.5H553.5L581.5 180.5L599 173L603.5 159.5L613 155H625L640.5 163L650.5 169L655 159.5L664 155L672.5 152.5L683 153.5L701 159.5L716.5 166.5L728.5 169L736.5 166.5L745 161.5L736.5 155L723.5 151.5L726.5 147H746.5L763 159.5Z" fill="#EE1C00"/>
<path d="M271.5 166.5L260 160.5L263 159L276.5 160.5L293.5 164.5L313 167L324.5 164L337.5 157.5L335 156.5L336 153L349 152L360 155.5L374.5 161.5L388.5 161L400.5 157.5V153L393.5 150L388.5 149.5L391 145.5L384 139L418.5 149.5L441.5 161.5L451.5 163L456 165.5L462.5 170.5L469.5 173.5L468 175.5H452.5L435 174.5L419 181L412 183L409.5 178.5L404 181L395.5 185L388.5 189H380.5L374 186.5L367.5 185.5L362 183L355 181.5L346.5 181L342 180L345 179V174L342 173.5H337.5L332.5 175.5L326.5 176.5L320.5 180L314.5 181H306.5L298.5 180L289.5 178L281.5 172.5L271.5 166.5Z" stroke="#EE1C00"/>
<path d="M763 159.5L791.5 178.5L788.5 183.5L777 195.5L762 204.5H757L753 202.5L757 198.5L761 196.5L763 193.5L762 191L755 190H745L732.5 191L724.5 196.5L714 207.5L704.5 216L693.5 218H681.5L669.5 216L662.5 210H673.5L693.5 204.5L698 199.5L658.5 192.5L652 191L647 190H640.5H635L630.5 191L622.5 193.5L618 196.5L607.5 201L610.5 195L612 192.5L615 190V188L613 187H609.5L602 188L591.5 190L582.5 193.5L569.5 196.5H559H550.5L544.5 192.5H553.5L581.5 180.5L599 173L603.5 159.5L613 155H625L640.5 163L650.5 169L655 159.5L664 155L672.5 152.5L683 153.5L701 159.5L716.5 166.5L728.5 169L736.5 166.5L745 161.5L736.5 155L723.5 151.5L726.5 147H746.5L763 159.5Z" stroke="#EE1C00"/>
<path d="M762 181L770.5 175L762 169L755 165.5L746.5 174L731 176.5L712.5 175L688.5 164.5H685L683.5 166L685 168.5L682 176L668.5 182L665.5 184.5L697.5 185.5L704.5 184.5H711.5V189H717.5L729.5 184.5H740.5L749.5 183.5L762 181Z" fill="#DC8E24" stroke="#DC8E24"/>
<path d="M815 181L828.5 174.5L840.5 175.5L841.5 178L836.5 181L827 184.5L819.5 188L812 192L809.5 200L816.5 201L827 202.5C828.2 204.5 825.5 206 824 206.5H813.5L801 200L796.5 194L815 181Z" fill="#DC8E24"/>
<path d="M671 169.5L672.5 166.5L660.5 164L656.5 165.5L657.5 169.5L664 171.5L671 169.5Z" fill="#DC8E24"/>
<path d="M423 162.5L412 156.5L402.5 164.5L385 168.5L380 170.5V172H399.5L406 167L423 162.5Z" fill="#DC8E24"/>
<path d="M813.5 206.5L801 200L796.5 194L815 181L828.5 174.5L840.5 175.5L841.5 178L836.5 181L827 184.5L819.5 188L812 192L809.5 200L816.5 201L827 202.5M813.5 206.5L827 202.5M813.5 206.5H824C825.5 206 828.2 204.5 827 202.5M672.5 166.5L671 169.5L664 171.5L657.5 169.5L656.5 165.5L660.5 164L672.5 166.5ZM412 156.5L423 162.5L406 167L399.5 172H380V170.5L385 168.5L402.5 164.5L412 156.5Z" stroke="#DC8E24"/>
<mask id="path-10-inside-1_4002_3" fill="white">
<path fill-rule="evenodd" clip-rule="evenodd" d="M426.058 6.74208C424.656 10.7441 422.358 29.946 420.953 49.4105L418.396 84.803L381.373 89.2133C361.01 91.6379 329.649 96.1363 311.682 99.2111C293.715 102.284 276.074 105.275 272.481 105.855C268.887 106.436 265.377 107.74 264.677 108.756C263.95 109.816 243.975 108.352 217.854 105.328C169.338 99.7096 159.823 98.1835 164.087 96.7025C165.559 96.1917 187.386 98.2224 212.59 101.215C237.794 104.208 259.494 106.319 260.812 105.904C263.501 105.059 173.393 93.9435 164.314 94.0009C160.57 94.0235 157.013 95.9681 154.3 99.4758C151.985 102.469 149.016 104.292 147.703 103.527C146.39 102.762 140.207 93.1599 133.965 82.1898C127.724 71.2175 122.401 61.9704 122.135 61.6381C121.872 61.3058 118.84 60.5714 115.399 60.0032C111.958 59.435 105.712 58.1386 101.52 57.1212C97.3274 56.1038 82.1369 53.4494 67.7631 51.2238C53.3893 48.9982 39.928 46.551 37.8482 45.7839C33.0852 44.0259 29.6377 51.6792 29.6812 63.9129C29.7422 81.8144 27.9237 80.9467 65.1845 80.8174C93.3049 80.719 99.0587 81.24 103.639 84.2923C108.981 87.8533 108.905 87.882 93.8384 87.9312C54.4586 88.0625 26.6453 103.681 11.1935 134.341C0.328227 155.902 -1.8126 166.692 1.31043 184.132C6.70496 214.257 25.3604 238.193 53.0822 250.562C66.8462 256.703 69.2702 257.112 91.9198 257.112C115.523 257.112 116.447 256.935 132.21 249.411C150.926 240.476 167.691 238.726 169.575 245.508C170.581 249.134 176.49 249.288 313.566 249.259C392.184 249.243 456.509 248.509 456.509 247.631C456.509 246.753 454.795 245.005 452.698 243.746C449.664 241.924 450.661 241.692 457.598 242.601C462.389 243.231 517.515 244.365 580.102 245.122C642.689 245.881 693.894 247.126 693.894 247.891C693.894 248.654 735.299 249.196 785.908 249.093L877.922 248.907L877.297 244.607C876.705 240.523 877.927 240.242 901.926 238.952L927.179 237.592L937.179 244.074C971.668 266.422 1024.87 261.282 1052.89 232.894C1060.21 225.483 1079.95 223.448 1093.52 228.706C1098.91 230.79 1103.32 233.044 1103.32 233.713C1103.32 234.381 1093.77 236.55 1082.1 238.529C1054.27 243.245 1053.24 243.549 1053.24 246.993C1053.24 249.497 1066.62 249.932 1143.62 249.932H1234V241.159C1234 236.332 1232.4 230.234 1230.45 227.608C1226.06 221.705 1214.83 217.112 1204.78 217.112C1197.41 217.112 1197.26 216.954 1199.35 211.309C1201.09 206.605 1203.86 204.81 1213.94 201.857C1228.26 197.656 1234.26 193.465 1232.41 188.94C1229.6 182.023 1161.04 156.32 1100.65 139.545C1078.41 133.367 1065.9 128.889 1065.22 126.866C1063 120.28 1041.02 101.882 1028.36 96.0091C1001.96 83.7713 973.667 83.8533 946.936 96.2491L933.176 102.629L895.748 97.3137C823.713 87.0861 736.432 79.599 680.457 78.8462C668.853 78.6903 664.909 77.7713 660.856 74.276C650.176 65.0678 624.499 57.8371 621.065 63.0699C620.076 64.5796 622.986 65.3181 629.92 65.3181C643.063 65.3181 656.969 71.5929 664.539 80.9405C672.503 90.7763 669.428 92.4502 660.416 83.1846C651.483 73.997 644.034 71.1662 630.358 71.7529C621.102 72.1508 619.847 72.7477 619.847 76.7498C619.847 80.8851 620.536 81.1497 627.455 79.681C631.638 78.7908 634.567 78.8175 633.962 79.7385C633.359 80.6595 629.865 82.0339 626.2 82.7908C622.535 83.5497 620.074 84.6759 620.732 85.2974C621.389 85.9169 626.39 84.8174 631.845 82.8564C641.103 79.5251 642.127 79.5149 647.273 82.6902C654.9 87.3958 653.077 90.2143 638.954 95.5476C616.694 103.958 601.673 106.735 572.479 107.839C546.781 108.811 543.623 108.563 543.623 105.584C543.623 101.804 543.555 101.812 556.104 104.099L565.316 105.777L566.782 98.4193C568.603 89.2789 564.46 69.6872 557.809 55.9704C545.415 30.4157 516.748 21.4394 490.782 34.9798C477.695 41.8065 472.843 50.8443 472.843 68.395V82.7538H458.231H443.618L442.499 72.4975C441.882 66.8565 440.765 51.6259 440.014 38.6516C438.056 4.76876 431.779 -9.5819 426.058 6.74208ZM432.923 8.90822C432.888 11.1646 433.7 14.8569 434.73 17.1133C437.115 22.3399 437.115 16.9471 434.73 9.93385C433.328 5.8108 432.975 5.60978 432.923 8.90822ZM522.933 35.5665C532.877 38.8649 543.623 49.6628 543.623 56.354C543.623 58.8443 544.217 62.3396 544.945 64.1242C545.811 66.2534 545.064 67.3693 542.767 67.3693C538.479 67.3693 538.239 70.1652 542.257 73.3078C543.901 74.5919 546.861 81.0636 548.836 87.6892C551.445 96.4481 553.636 100.032 556.868 100.828C564.73 102.764 565.035 93.1394 557.888 68.5119C552.16 48.7828 534.495 32.3214 519.337 32.5881C515.555 32.6537 516.491 33.4311 522.933 35.5665ZM34.3767 63.2668C34.4485 74.0524 34.5509 74.2534 36.7288 67.8596C38.3316 63.1499 38.3099 59.8104 36.6547 56.5776C34.6685 52.7028 34.3135 53.7489 34.3767 63.2668ZM41.2282 64.8237L40.8296 76.6L72.5674 76.9877L104.305 77.3754L111.08 83.4677C114.805 86.8195 121.517 90.9774 125.994 92.7086L134.137 95.8573L127.497 85.203C123.845 79.3426 119.846 72.6103 118.611 70.2432C116.327 65.8658 104.826 62.754 65.5852 55.8925C40.8667 51.5705 41.6899 51.2689 41.2282 64.8237ZM515.478 55.0617C515.145 62.4627 534.334 79.8533 542.534 79.5846C543.732 79.5457 541.771 78.0544 538.178 76.2739C530.769 72.6021 519.666 63.3406 519.666 60.8319C519.666 59.915 521.136 59.1643 522.933 59.1643C524.73 59.1643 526.2 57.7797 526.2 56.0874C526.2 51.7387 519.699 52.2371 519.514 56.6002C519.383 59.6689 519.089 59.595 517.488 56.0874C516.247 53.3653 515.57 53.0207 515.478 55.0617ZM475.384 64.2924C474.52 67.7796 475.075 74.3765 476.665 79.521C478.823 86.5015 480.875 89.0369 485.548 90.5035C494.488 93.3097 494.815 91.1948 486.879 81.8964C482.98 77.3262 479.143 70.1119 478.35 65.8637L476.911 58.1386L475.384 64.2924ZM448.226 85.8307C448.777 87.523 453.151 91.7343 457.946 95.1886L466.664 101.472L428.375 103.993C339.763 109.831 254.008 123.455 199 140.435C183.128 145.336 177.958 148.253 180.647 150.788C181.288 151.389 200.25 149.968 222.789 147.629C335.336 135.947 433.787 131.008 554.762 130.979C628.935 130.959 632.568 130.78 637.847 126.868C644.215 122.15 649.557 110.432 645.324 110.471C643.889 110.483 637.325 111.937 630.737 113.701C614.135 118.146 547.811 119.999 523.778 116.69C502.324 113.736 471.118 104.869 472.856 102.222C473.526 101.201 470.856 98.8358 466.925 96.965C462.992 95.0963 456.951 91.1353 453.499 88.161C449.919 85.0759 447.654 84.0749 448.226 85.8307ZM681.337 89.9928C677.425 93.3445 675.559 96.0871 677.188 96.0871C680.039 96.0871 685.004 91.7117 688.247 86.3436C690.542 82.5426 689.214 83.2441 681.337 89.9928ZM657.69 97.326C657.409 106.684 658.058 107.521 663.208 104.45C665.776 102.918 665.819 101.578 663.467 96.2327C659.373 86.922 657.992 87.1825 657.69 97.326ZM93.3158 97.0983C86.6341 101.662 89.0341 104.274 100.015 104.382C111.564 104.495 123.287 108.415 134.414 115.882C153.141 128.448 151.61 127.806 151.61 123.076C151.61 117.238 139.741 104.951 129.215 99.8942C117.172 94.1076 99.6881 92.7456 93.3158 97.0983ZM495.303 95.4368C496.873 96.0296 498.752 95.9558 499.476 95.2748C500.199 94.5938 498.914 94.1096 496.618 94.1978C494.081 94.2963 493.565 94.7825 495.303 95.4368ZM990.443 96.2142C982.228 99.3158 986.255 103.158 999.35 104.711C1015.05 106.575 1023.76 110.122 1035.6 119.478C1045.83 127.562 1050.51 127.051 1046.95 118.239C1040.61 102.536 1007.69 89.7035 990.443 96.2142ZM513.133 98.2429C526.276 100.446 536.577 100.255 525.111 98.0214C520.32 97.0881 513.459 96.3866 509.866 96.4625C504.966 96.565 505.785 97.0122 513.133 98.2429ZM479.485 102.009C482.399 104.573 507.307 110.116 526.409 112.45C547.294 115.004 590.625 115.014 610.047 112.471C631.268 109.691 654.693 104.208 654.693 102.019C654.693 98.6573 635.332 100.138 618.238 104.805C603.799 108.747 596.257 109.414 566.49 109.375C537.056 109.338 529.018 108.622 514.742 104.76C497.94 100.216 475.452 98.4624 479.485 102.009ZM536.682 101.591C538.252 102.183 540.132 102.11 540.855 101.429C541.578 100.748 540.293 100.263 537.997 100.352C535.46 100.45 534.944 100.936 536.682 101.591ZM671.175 106.856C667.57 114.415 662.816 119.804 654.17 126.128L648.203 130.491L685.749 131.83C732.137 133.488 803.146 136.928 832.187 138.928C849.212 140.099 855.776 139.763 862.253 137.387C868.878 134.959 874.009 134.737 887.842 136.28C897.423 137.348 905.145 137.42 905.145 136.44C905.145 135.465 907.212 131.935 909.738 128.594C912.265 125.252 913.844 122.056 913.245 121.494C908.917 117.418 726.721 100.192 687.933 100.19C674.714 100.19 674.267 100.368 671.175 106.856ZM166.104 110.095C161.606 114.776 161.363 117.991 165.766 114.548C169.638 111.521 170.198 114.682 166.42 118.241C164.603 119.952 164.549 120.702 166.239 120.702C167.576 120.702 169.164 119.549 169.769 118.138C170.547 116.323 170.917 116.438 171.039 118.53C171.167 120.721 172.102 120.456 174.656 117.504C176.986 114.809 177.768 114.548 177.074 116.692C176.414 118.723 177.524 119.968 180.162 120.155C182.425 120.317 184.293 119.351 184.311 118.011C184.332 116.477 184.938 116.335 185.944 117.625C188.091 120.376 199.523 121.057 199.523 118.434C199.523 117.291 198.543 116.928 197.345 117.625C196.147 118.323 195.152 117.685 195.134 116.208C195.11 114.257 194.522 114.364 192.989 116.6C191.456 118.836 190.868 118.942 190.844 116.992C190.827 115.515 189.831 114.877 188.634 115.574C187.436 116.272 186.456 115.687 186.456 114.278C186.456 112.823 184.964 113.437 183.01 115.695C179.935 119.252 179.7 119.283 180.809 115.98C181.534 113.82 181.155 112.805 179.898 113.537C178.713 114.226 177.744 113.921 177.744 112.858C177.744 111.796 180.684 111.039 184.278 111.176C187.871 111.316 190.811 112.077 190.811 112.871C190.811 113.664 192.771 113.958 195.167 113.523C197.563 113.088 199.523 113.658 199.523 114.786C199.523 115.917 200.492 116.278 201.677 115.588C202.933 114.856 203.312 115.872 202.587 118.032C201.409 121.537 201.507 121.543 204.486 118.138C206.213 116.163 209.478 114.454 211.741 114.339C216.597 114.093 180.944 106.575 174.271 106.438C171.762 106.386 168.086 108.032 166.104 110.095ZM172.663 111.814C171.864 112.565 171.211 114.134 171.211 115.301C171.211 116.585 172.226 116.464 173.787 114.994C175.205 113.658 175.858 112.089 175.24 111.506C174.621 110.922 173.461 111.061 172.663 111.814ZM218.579 115.906C220.077 116.477 222.527 116.477 224.024 115.906C225.522 115.338 224.296 114.873 221.301 114.873C218.307 114.873 217.083 115.338 218.579 115.906ZM110.412 129.656C110.913 130.066 113.77 131.502 116.765 132.846C121.898 135.147 121.968 135.106 117.982 132.097C114.513 129.48 107.424 127.192 110.412 129.656ZM128.743 135.061C130.91 137.318 133.175 139.164 133.774 139.164C134.373 139.164 133.088 137.318 130.921 135.061C128.754 132.805 126.489 130.959 125.89 130.959C125.291 130.959 126.576 132.805 128.743 135.061ZM945.229 139.676L941.08 144.292L945.98 140.384C950.584 136.712 951.871 135.061 950.129 135.061C949.715 135.061 947.511 137.137 945.229 139.676ZM1027.1 137.888C1027.1 138.312 1028.82 139.929 1030.92 141.478C1034.37 144.027 1034.45 143.955 1031.74 140.702C1028.89 137.285 1027.1 136.2 1027.1 137.888ZM478.287 140.122C478.287 141.244 498.201 186.759 502.348 195.118C504.452 199.358 505.687 200.146 507.165 198.195C508.522 196.408 508.814 197.042 508.08 200.191C507.49 202.732 507.823 204.335 508.823 203.752C509.822 203.169 511.33 204.784 512.17 207.338C515.213 216.572 522.345 229.37 523.937 228.443C524.83 227.922 526.666 229.776 528.012 232.56C531.638 240.055 536.462 239.065 535.826 230.958C534.635 215.799 532.901 207.102 529.578 199.608C527.644 195.252 526.572 190.437 527.195 188.909C527.87 187.254 527.363 186.692 525.941 187.518C524.405 188.413 523.989 187.537 524.773 185.061C526.193 180.581 515.01 152.165 512.229 153.184C511.197 153.564 509.524 152.641 508.509 151.133C507.03 148.936 506.667 149.002 506.667 151.471C506.667 153.164 507.616 155.933 508.777 157.625C510.654 160.359 510.896 160.359 510.955 157.625C511.014 154.891 511.255 154.891 513.133 157.625C514.294 159.317 515.243 161.625 515.243 162.753C515.243 163.881 514.294 163.42 513.133 161.728C511.255 158.993 511.022 158.993 511.022 161.728C511.022 163.42 511.972 166.189 513.133 167.881C515.01 170.616 515.258 170.616 515.365 167.881C515.43 166.189 516.99 167.42 518.828 170.616C520.668 173.812 521.631 177.754 520.969 179.377C520.309 181.001 521.681 186.905 524.022 192.497C526.363 198.088 527.735 203.996 527.071 205.625C526.407 207.253 527.006 210.593 528.4 213.046C529.793 215.502 531.213 221.803 531.555 227.054L532.176 236.599L528.26 228.394C526.106 223.881 524.257 221.573 524.151 223.266C523.978 225.99 523.719 225.992 521.901 223.282C520.773 221.6 520.311 217.908 520.879 215.077C521.781 210.579 521.653 210.447 519.854 214.035L517.796 218.137L517.297 214.035C517.022 211.779 516.957 208.24 517.151 206.172C517.343 204.103 516.456 200.872 515.18 198.993C513.333 196.275 513.094 196.835 514.01 201.727C515.019 207.11 514.673 206.853 511.24 199.69C509.082 195.186 506.824 192.417 506.225 193.537C505.626 194.657 505.486 194.289 505.918 192.72C507.163 188.164 504.243 181.245 502.313 184.187C501.274 185.769 499.293 183.44 496.866 177.791C491.309 164.839 490.623 162.091 494.392 167.881C496.507 171.124 497.79 171.879 497.888 169.933C497.984 168.039 499.24 168.829 501.155 171.984C503.038 175.088 504.31 175.898 504.378 174.035C504.476 171.301 504.722 171.301 506.599 174.035C508.477 176.77 508.71 176.77 508.71 174.035C508.71 172.343 507.76 169.574 506.599 167.881C504.722 165.147 504.476 165.147 504.378 167.881C504.31 169.744 503.038 168.934 501.155 165.83C499.24 162.675 497.984 161.886 497.888 163.779C497.792 165.672 496.535 164.882 494.621 161.728C492.737 158.624 491.465 157.814 491.398 159.676C491.3 162.411 491.054 162.411 489.176 159.676C488.016 157.984 487.066 155.676 487.066 154.548C487.066 153.42 488.016 153.882 489.176 155.574C491.054 158.308 491.287 158.308 491.287 155.574C491.287 153.882 490.337 151.112 489.176 149.42C487.299 146.686 487.042 146.686 486.855 149.42C486.737 151.112 485.25 149.496 483.549 145.83C480.84 139.997 478.287 137.227 478.287 140.122ZM484.993 144.462C485.097 146.852 485.614 147.338 486.308 145.703C486.938 144.222 486.859 142.452 486.136 141.771C485.413 141.09 484.899 142.3 484.993 144.462ZM343.261 144.651C294.017 145.767 212.117 151.096 189.045 154.686C182.732 155.666 181.919 156.495 182.512 161.332C183.126 166.347 185.09 167.457 203.879 173.387C231.709 182.175 282.133 193.588 312.771 198.035C331.474 200.751 351.051 201.678 390.084 201.699C439.813 201.725 453.732 200.626 482.972 194.357L493.101 192.185L481.883 169.994C468.938 144.39 470.828 145.379 434.73 145.342L414.041 145.32L428.197 153.603C437.359 158.965 444.141 161.586 447.423 161.034C450.727 160.48 454.296 161.881 457.67 165.059C460.851 168.056 465.399 169.933 469.478 169.933C473.126 169.933 476.109 170.878 476.109 172.035C476.109 176.027 465.662 177.853 449.426 176.696C434.922 175.664 431.749 176.132 420.533 180.969C407.337 186.659 403.785 186.675 408.764 181.024C410.397 179.172 406.915 180.534 401.026 184.052C388.401 191.592 382.503 191.937 365.954 186.105C357.724 183.204 350.833 182.119 345.182 182.833C335.786 184.021 335.065 183.268 340.332 177.787C343.489 174.499 343.52 174.035 340.569 174.035C338.718 174.035 332.931 175.861 327.709 178.093C315.97 183.11 297.665 183.467 288.161 178.864C284.328 177.008 277.784 172.854 273.618 169.633C267.909 165.221 263.752 163.779 256.739 163.779C251.621 163.779 247.435 162.954 247.435 161.947C247.435 156.325 269.423 156.212 289.903 161.728C308.345 166.696 315.535 166.696 326.927 161.728C335.12 158.156 335.281 157.92 329.649 157.777C320.711 157.549 322.417 153.996 332.718 151.383C343.561 148.634 354.758 150.275 364.795 156.089C373.089 160.891 387.386 161.73 395.054 157.863C401.86 154.433 398.774 150.905 389.827 151.89C381.456 152.809 381.031 152.259 386.066 147.018C389.52 143.424 389.176 143.285 377.899 143.699C371.425 143.937 355.838 144.366 343.261 144.651ZM489.338 144.997C489.427 145.738 491.404 150.035 493.735 154.548C497.661 162.16 498.18 160 494.717 150.446C493.665 147.539 494.142 147.779 496.357 151.268C498.709 154.975 499.82 155.484 500.843 153.319C501.59 151.74 501.662 152.503 501.002 155.02C500.34 157.535 500.902 161.227 502.248 163.225C504.289 166.251 504.502 165.832 503.535 160.702C502.596 155.724 503.202 156.269 506.71 163.566C509.115 168.567 510.478 174.505 509.77 176.899C508.84 180.039 509.06 180.441 510.574 178.38C512.218 176.142 513.011 176.573 514.339 180.431C516.088 185.51 517.497 195.496 517.876 205.489C518.007 208.989 518.747 210.308 519.732 208.808C522.005 205.342 524.536 213.282 522.776 218.361C521.764 221.288 521.96 221.545 523.578 219.405C525.296 217.134 526.028 217.473 527.25 221.097C528.088 223.588 529.234 225.194 529.793 224.667C530.353 224.14 529.253 220.197 527.348 215.904C525.444 211.61 524.384 206.876 524.993 205.381C525.601 203.887 524.148 198.002 521.764 192.304C519.379 186.605 517.994 181.077 518.686 180.021C519.381 178.964 519.287 176.142 518.479 173.746C517.469 170.743 516.504 170.167 515.376 171.883C514.361 173.43 511.61 169.436 508.141 161.387C505.062 154.24 501.494 148.626 500.214 148.907C498.935 149.188 497.888 148.604 497.888 147.609C497.888 146.612 495.928 145.313 493.532 144.723C491.137 144.134 489.248 144.257 489.338 144.997ZM399.34 150.261C403.232 151.945 406.414 154.062 406.41 154.963C406.397 157.527 388.577 163.781 381.349 163.758C377.769 163.748 369.597 161.44 363.19 158.63C356.783 155.822 347.963 153.582 343.59 153.652C336.897 153.763 336.379 154.064 340.316 155.559C347.965 158.468 348.579 161.728 341.477 161.728C337.96 161.728 331.564 163.112 327.262 164.805C316.593 169.003 301.311 168.624 284.809 163.752C267.276 158.575 261.707 158.403 269.471 163.276C272.607 165.246 279.067 169.42 283.827 172.554C296.785 181.087 310.615 181.972 326.615 175.291C335.192 171.709 341.257 170.388 345.127 171.258C354.222 173.301 355.624 174.784 349.772 176.164C344.979 177.295 345.489 177.703 354.15 179.687C359.54 180.921 368.26 183.428 373.528 185.258C385.446 189.395 393.157 187.305 404.513 176.862C412.181 169.81 417.244 169.99 414.302 177.211C412.769 180.973 412.667 180.985 424.407 176.093C432.528 172.708 437.215 172.193 451.362 173.12C467.563 174.185 468.119 174.084 461.67 171.266C457.922 169.627 454.189 167.272 453.375 166.033C452.562 164.792 448.841 163.779 445.106 163.779C440.854 163.779 434.007 160.985 426.794 156.304C417.98 150.587 412.569 148.638 403.768 148.013L392.262 147.196L399.34 150.261ZM753.473 150.054C755.699 151.397 764.435 157.898 772.885 164.501C787.204 175.687 788.82 176.419 796.608 175.245C807.362 173.625 807.316 176.372 796.514 180.86C791.612 182.897 785.719 187.711 782.476 192.324C775.644 202.049 761.218 208.047 749.599 205.996C740.968 204.47 736.957 200.702 743.965 200.702C749.902 200.702 761.407 195.098 761.407 192.205C761.407 189.652 734.435 191.701 728.437 194.71C726.475 195.695 721.403 201.042 717.169 206.595C705.204 222.281 686.918 225.313 665.724 215.128C651.707 208.394 650.559 203.364 663.918 207.225C669.936 208.964 674.211 208.888 681.735 206.903C695.699 203.221 698.688 199.21 687.465 199.21C682.709 199.21 671.103 197.11 661.673 194.544C634.112 187.042 615.803 192.365 607.9 210.179C606.21 213.992 603.304 217.112 601.447 217.112C599.589 217.112 598.069 216.788 598.069 216.392C598.069 212.919 604.047 200.433 608.281 195.061L613.536 188.394H608.048C605.029 188.394 595.053 190.702 585.879 193.522C566.457 199.494 555.853 199.943 543.577 195.317C538.712 193.483 534.312 192.376 533.803 192.858C533.293 193.338 534.515 201.202 536.521 210.335L540.166 226.939L588.173 228.367C646.086 230.09 684.142 227.662 716.761 220.162C738.631 215.132 743.373 214.743 771.208 215.682C787.977 216.248 809.048 218.236 818.031 220.098C831.051 222.798 840.198 223.2 863.113 222.078L891.86 220.671L886.418 210.558C883.426 204.995 878.09 193.381 874.562 184.751C869.712 172.889 865.371 166.413 856.775 158.214L845.403 147.369L797.416 147.49C759.441 147.584 750.274 148.12 753.473 150.054ZM852.877 148.197C852.877 150.325 869.679 159.406 883.166 164.569C892.897 168.292 896.434 168.921 896.434 166.934C896.434 165.445 894.097 163.67 891.24 162.995C887.187 162.037 866.715 153.568 854.51 147.8C853.611 147.375 852.877 147.553 852.877 148.197ZM1077.55 156.027C1078.68 160.79 1079.8 164.784 1080.04 164.901C1081.66 165.713 1138.14 174.731 1162.8 178.115C1213.61 185.088 1215.24 183.442 1171.04 169.797C1145.37 161.877 1085.66 147.369 1078.72 147.369C1076.04 147.369 1075.84 148.856 1077.55 156.027ZM690.627 151.471C686.644 152.425 685.718 153.133 688.258 153.281C690.549 153.414 696.508 155.777 701.501 158.534C706.495 161.291 715.152 164.63 720.74 165.955C729.504 168.033 731.684 167.881 736.604 164.843C741.744 161.672 741.977 161.008 738.954 158.16C735.378 154.792 726.76 154.107 717.85 156.485L712.406 157.937L717.548 153.678L722.69 149.42L709.925 149.662C702.904 149.795 694.221 150.61 690.627 151.471ZM736.362 152.798C739.956 154.567 744.087 157.432 745.544 159.168C747.761 161.808 746.964 162.94 740.65 166.126C729.68 171.664 720.603 170.841 703.57 162.759C685.533 154.204 667.466 152.844 658.874 159.397L653.863 163.219H663.128C673.675 163.219 679.553 166.813 674.276 170.035C667.623 174.099 661.076 174.542 657.152 171.196C652.824 167.508 650.337 168.669 650.337 174.378C650.337 176.445 649.357 178.138 648.159 178.138C641.107 178.138 651.526 158.909 661.292 153.9C666.536 151.211 666.486 151.172 659.321 152.333C655.279 152.987 646.948 153.551 640.809 153.588C630.327 153.65 629.913 153.845 634.003 156.805C636.399 158.538 639.82 160.747 641.608 161.713C643.394 162.681 644.207 164.082 643.412 164.831C642.619 165.58 638.98 164.109 635.327 161.566C630.763 158.388 625.636 156.942 618.937 156.942C607.405 156.942 602.424 160.193 602.424 167.721C602.424 170.743 601.201 174.425 599.702 175.902C598.206 177.381 601.288 176.554 606.552 174.068C614.496 170.314 617.053 169.945 621.583 171.888C625.523 173.58 627.705 173.609 629.417 171.996C633.28 168.357 626.42 165.547 616.036 166.515C606.014 167.449 604.021 165.313 611.43 161.58C615.211 159.672 618.061 160.109 626.675 163.908C636.723 168.341 637.085 168.778 633.666 172.335C630.27 175.869 630.364 176.093 635.299 176.177C639.328 176.247 638.529 176.948 631.825 179.223C621.032 182.884 621.711 182.927 622.474 178.651C623.345 173.767 615.404 172.911 607.035 176.987C603.42 178.749 596.738 180.193 592.189 180.197C587.482 180.201 580.624 182.132 576.29 184.675C572.098 187.133 564.258 190.298 558.868 191.707L549.067 194.271L561.509 194.411C569.134 194.495 578.231 192.96 585.002 190.445C596.435 186.201 619.847 184.774 619.847 188.322C619.847 189.41 617.802 191.332 615.304 192.591C607.07 196.743 612.336 196.626 621.002 192.466C632.03 187.169 646.883 187.252 666.362 192.716C676.563 195.578 685.318 196.714 692.285 196.084C701.092 195.286 702.701 195.67 702.161 198.429C701.225 203.221 683.523 210.946 673.287 211.03C664.565 211.104 664.539 211.128 669.938 214.035C676.571 217.608 695.987 217.996 703.646 214.708C706.726 213.387 711.121 209.448 713.412 205.955C722.452 192.179 727.169 189.787 747.264 188.794C762.951 188.019 765.763 188.363 765.763 191.065C765.763 192.817 763.18 196.164 760.024 198.501C754.689 202.454 754.606 202.753 758.833 202.753C767.035 202.753 774.494 198.088 781.975 188.281C789.288 178.696 789.306 178.618 784.628 176.54C782.038 175.389 774.529 170.062 767.941 164.702C754.724 153.947 745.087 149.377 735.887 149.502L729.829 149.584L736.362 152.798ZM409.814 153.059C409.145 153.691 408.596 155.873 408.596 157.91C408.596 160.647 405.382 162.493 396.287 164.983C384.522 168.206 374.539 168.062 360.684 164.476C356.01 163.266 355.62 163.506 357.935 166.169C361.001 169.695 372.185 173.104 387.447 175.168C395.71 176.283 398.733 175.847 401.993 173.069C407.747 168.165 422.9 165.211 428.312 167.939C431.235 169.414 433.82 169.442 436.392 168.031C439.781 166.171 439.8 165.949 436.581 165.892C434.606 165.859 428.049 162.698 422.012 158.87C415.973 155.045 410.484 152.429 409.814 153.059ZM1037.29 154.864C1036.51 155.603 1036.47 159.713 1037.19 164C1039.14 175.475 1036.31 189.184 1030.26 197.586C1024.03 206.224 1023.48 208.484 1028.55 204.542C1036.16 198.626 1040.49 184.927 1039.85 168.817C1039.52 160.405 1039.13 153.523 1038.98 153.523C1038.84 153.523 1038.08 154.126 1037.29 154.864ZM100.304 157.434C100.977 158.456 99.4921 158.792 97.0072 158.181C91.58 156.844 75.0567 161.619 76.6596 164.062C77.2803 165.008 76.3155 165.25 74.5144 164.599C69.072 162.632 66.4368 165.518 69.44 170.152C71.7115 173.658 71.4567 174.722 67.7631 177.168C65.3674 178.753 62.1834 181.04 60.6851 182.251C58.59 183.947 57.9628 182.979 57.9628 178.048C57.9628 173.654 57.109 172.017 55.2405 172.837C53.7443 173.496 50.7301 174.62 48.5458 175.338C43.4823 177.003 44.9871 183.801 53.2455 196.568C60.6263 207.978 81.7841 219.459 88.3307 215.608C90.7111 214.207 93.0348 214.043 94.2501 215.188C96.9876 217.766 109.049 214.291 119.095 208.031C128.331 202.273 139.967 182.54 137.58 176.681C136.35 173.662 135.834 173.578 134.166 176.117C132.652 178.427 132.284 178.095 132.558 174.665C132.754 172.218 133.697 170.673 134.656 171.231C137.676 172.989 138.811 166.761 136.509 161.055C134.797 156.815 132.833 155.574 127.837 155.574C124.285 155.574 120.772 156.497 120.031 157.625C119.291 158.753 115.804 159.676 112.28 159.676C108.757 159.676 105.875 158.753 105.875 157.625C105.875 156.497 104.347 155.574 102.48 155.574C100.614 155.574 99.6337 156.411 100.304 157.434ZM988.215 157.781C982.997 158.747 977.212 160.723 975.359 162.171C973.506 163.619 971.894 164.437 971.779 163.99C971.663 163.543 969.294 163.857 966.51 164.69C961.848 166.082 961.721 166.482 964.894 169.785C968.044 173.063 967.998 173.66 964.337 176.78C958.812 181.49 953.058 181.135 953.058 176.086C953.058 171.399 952.237 171.155 946.381 174.107C933.466 180.618 953.376 208.763 975.263 214.94C982.509 216.983 984.506 216.942 986.031 214.716C987.59 212.441 988.217 212.441 989.776 214.716C992.464 218.638 1007.21 214.154 1017.25 206.367C1028.16 197.894 1033.43 187.221 1033.31 173.82C1033.14 154.538 1030.8 152.565 1014.65 158.066C1008.9 160.023 1006.42 160.023 1003.09 158.066C1000.76 156.696 998.594 155.674 998.279 155.799C997.963 155.923 993.435 156.815 988.215 157.781ZM140.895 164.292C143.927 174.152 139.551 190.936 131.302 201.102C107.073 230.952 54.6198 222.429 44.3686 186.977C43.0031 182.251 41.091 178.843 40.1218 179.406C39.1549 179.97 38.1966 175.992 37.9963 170.567C37.6587 161.496 37.5607 161.33 36.7701 168.491C35.3371 181.451 46.6423 202.929 59.9315 212.497C65.0233 216.164 68.2727 219.163 67.1511 219.163C66.0273 219.163 60.6916 215.502 55.2949 211.026C49.896 206.55 44.8565 203.473 44.0986 204.187C43.3385 204.903 42.7178 208.226 42.7178 211.571C42.7178 225.026 66.4128 237.625 91.7194 237.625C117.242 237.625 140.721 225.036 140.721 211.35C140.721 202.823 138.02 201.85 131.781 208.133C128.913 211.022 124.605 214.3 122.209 215.415C119.814 216.531 121.04 214.995 124.934 212C135.76 203.674 142.77 190.718 144.726 175.424C145.671 168.017 145.649 162.421 144.674 162.989C143.698 163.555 142.899 162.581 142.899 160.823C142.899 159.065 141.986 157.625 140.873 157.625C139.628 157.625 139.636 160.197 140.895 164.292ZM411.21 161.832C408.413 166.05 409.326 166.482 415.885 164.052C419.25 162.805 419.413 162.173 416.885 160.197C414.522 158.351 413.281 158.708 411.21 161.832ZM575.548 160.747C566.157 162.234 551.128 164.989 542.148 166.87C526.187 170.216 525.854 170.413 527.182 175.752C527.929 178.757 531.146 183.401 534.33 186.076C539.324 190.271 541.665 190.786 551.424 189.838C558.166 189.182 566.329 186.599 571.645 183.438C576.547 180.523 581.559 178.138 582.78 178.138C585.666 178.138 585.581 176.905 582.362 172.05C578.579 166.343 582.247 164.142 586.348 169.656C591.084 176.025 595.795 174.423 599.11 165.317C602.405 156.267 603.058 156.394 575.548 160.747ZM91.7194 161.617C95.7615 163.149 95.6831 163.324 90.6305 164.037C87.0653 164.54 85.2882 166.037 85.4842 168.374C85.6476 170.335 84.9136 171.434 83.8508 170.815C82.788 170.197 81.9191 171.1 81.9191 172.825C81.9191 174.667 83.1757 175.504 84.9659 174.856C86.6407 174.251 88.653 174.731 89.4348 175.922C90.2994 177.241 89.5328 177.613 87.477 176.87C85.3427 176.099 84.0969 176.788 84.0969 178.739C84.0969 180.897 86.0548 181.705 90.5695 181.41C97.6518 180.948 100.951 178.971 98.4969 176.659C97.6344 175.844 95.9248 176.538 94.7009 178.197C92.7582 180.833 92.5971 180.825 93.4203 178.138C93.9408 176.445 95.9749 175.19 97.9437 175.346C99.9103 175.502 101.52 174.378 101.52 172.845C101.52 171.122 100.069 170.501 97.7085 171.217C94.8141 172.093 94.605 171.894 96.8439 170.388C100.784 167.736 96.3691 159.617 91.0987 159.82C88.0192 159.939 88.1281 160.255 91.7194 161.617ZM128.882 163.178C127.702 166.101 127.95 166.337 130.102 164.327C131.591 162.934 132.26 161.278 131.589 160.649C130.918 160.017 129.701 161.155 128.882 163.178ZM752.696 163.732C752.696 170.507 742.528 175.075 727.747 174.944C717.709 174.854 711.021 173.27 699.583 168.277C684.512 161.697 678.649 160.323 678.649 163.369C678.649 164.271 679.74 166.037 681.073 167.293C682.406 168.548 682.774 170.675 681.892 172.019C679.614 175.494 663.33 182.136 656.871 182.226C652.55 182.288 652.099 182.714 654.693 184.292C656.49 185.385 669.476 186.294 683.549 186.312L709.139 186.343V191.828V197.315L714.751 192.349C719.575 188.08 723.206 187.211 740.626 186.15C756.747 185.17 762.294 183.978 767.745 180.32L774.599 175.725L765.824 169.74C761 166.448 757.052 162.835 757.052 161.715C757.052 160.593 756.072 159.676 754.874 159.676C753.676 159.676 752.696 161.502 752.696 163.732ZM984.637 161.728C983.896 162.856 984.027 164.934 984.926 166.343C986.091 168.171 985.532 168.121 982.973 166.167C979.12 163.225 974.727 164.521 975.008 168.515C975.133 170.277 975.487 170.242 976.278 168.394C976.883 166.985 978.31 165.83 979.451 165.83C980.751 165.83 980.74 167.209 979.421 169.531C978.136 171.791 978.092 174.384 979.31 176.197C982.565 181.042 981.64 183.36 978.173 179.042C975.727 175.998 974.952 175.785 974.871 178.138C974.782 180.872 974.514 180.872 972.46 178.138C970.407 175.403 970.248 175.403 971.04 178.138C971.53 179.83 972.831 181.229 973.928 181.245C975.026 181.264 977.151 182.011 978.648 182.905C980.146 183.801 981.37 183.904 981.37 183.137C981.37 182.368 982.881 182.919 984.728 184.363C987.115 186.23 988.764 186.353 990.419 184.794C993.653 181.748 990.425 177.578 986.05 179.145C983.312 180.125 983.062 179.861 984.992 178.027C986.481 176.614 988.724 176.329 990.436 177.336C992.037 178.277 994.328 179.209 995.526 179.403C996.724 179.598 999.052 180.086 1000.7 180.486C1002.34 180.886 1004.13 179.83 1004.67 178.138C1005.55 175.403 1005.4 175.403 1003.35 178.138C1001.65 180.398 1001.03 180.503 1001 178.53C1000.99 177.053 1000.05 176.38 998.925 177.036C997.799 177.691 996.833 176.591 996.776 174.593C996.493 164.673 996.018 163.746 992.566 166.376C989.924 168.39 989.58 168.384 990.881 166.343C991.948 164.671 991.144 163.769 988.576 163.748C985.236 163.721 985.133 163.414 987.903 161.728C989.866 160.534 990.136 159.728 988.576 159.707C987.15 159.691 985.377 160.599 984.637 161.728ZM101.624 166.015C104.364 170.835 106.248 171.184 104.349 166.519C103.312 163.976 103.745 163.537 106.05 164.796C107.755 165.73 108.38 165.699 107.446 164.733C106.514 163.767 104.32 162.778 102.574 162.538C100.1 162.195 99.8907 162.962 101.624 166.015ZM78.7917 167.28C77.6113 170.203 77.8596 170.439 80.0113 168.429C81.5009 167.036 82.1695 165.381 81.4988 164.751C80.828 164.119 79.6106 165.258 78.7917 167.28ZM117.25 166.973C110.673 171.311 111.168 175.377 118.72 179.055C124.731 181.984 125.093 181.908 126.264 177.508C127.599 172.503 125.859 163.779 123.529 163.779C122.736 163.779 119.912 165.217 117.25 166.973ZM1013.73 167.752C1009.68 170.889 1009.07 172.47 1010.88 175.248C1012.13 177.182 1015.32 179.518 1017.95 180.437C1022.44 182.002 1022.75 181.526 1022.75 172.944C1022.75 162.768 1021.28 161.92 1013.73 167.752ZM657.96 167.881C658.7 169.01 661.697 169.933 664.622 169.933C667.546 169.933 669.938 169.01 669.938 167.881C669.938 166.753 666.939 165.83 663.276 165.83C659.388 165.83 657.173 166.686 657.96 167.881ZM686.498 169.258C687.212 171.937 684.834 174.661 678.172 178.792L668.849 184.577L691.172 183.721C708.405 183.059 713.495 183.467 713.495 185.508C713.495 187.592 714.762 187.528 719.484 185.208C723.084 183.438 731.826 182.261 741.406 182.253C754.719 182.242 763.211 180.523 767.647 176.94C768.085 176.587 765.706 174.08 762.363 171.371L756.283 166.443L751.696 171.465C747.968 175.547 744.455 176.688 732.917 177.559C718.979 178.614 713.847 177.358 688.064 166.577C686.455 165.906 685.873 166.903 686.498 169.258ZM73.5518 171.984C73.5518 174.804 74.0462 175.959 74.6494 174.548C75.2549 173.139 75.2549 170.831 74.6494 169.42C74.0462 168.011 73.5518 169.163 73.5518 171.984ZM108.478 173.01C108.521 176.394 109.009 177.531 109.562 175.535C110.116 173.539 110.079 170.77 109.482 169.381C108.885 167.992 108.434 169.625 108.478 173.01ZM387.907 169.933L381.373 171.498L388.996 171.709C393.188 171.826 398.088 171.026 399.885 169.933C402.572 168.296 402.381 167.982 398.796 168.156C396.4 168.271 391.5 169.071 387.907 169.933ZM992.431 173.18C992.536 175.57 993.052 176.056 993.747 174.421C994.376 172.94 994.298 171.17 993.575 170.489C992.852 169.808 992.338 171.018 992.431 173.18ZM497.955 174.035C497.955 175.728 498.905 178.497 500.066 180.189C501.943 182.923 502.176 182.923 502.176 180.189C502.176 178.497 501.227 175.728 500.066 174.035C498.188 171.301 497.955 171.301 497.955 174.035ZM822.387 174.197C819.392 175.367 812.36 179.959 806.761 184.402C801.162 188.845 793.997 193.405 790.841 194.536C784.675 196.745 785.259 200.702 791.749 200.702C793.923 200.702 800.354 202.64 806.042 205.011C812.968 207.896 818.587 208.905 823.053 208.064C830.796 206.605 837.632 201.411 837.632 196.989C837.632 194.433 836.918 194.521 833.411 197.508C830.123 200.312 827.217 200.792 820.233 199.68C815.307 198.897 811.602 197.327 812.003 196.195C812.404 195.063 818.118 190.987 824.702 187.139C833.215 182.16 839.592 180.021 846.792 179.725C858.152 179.26 858.692 177.245 848.003 175.2C833.122 172.353 827.66 172.14 822.387 174.197ZM823.476 177.879C812.238 182.722 792.649 197.902 800.609 195.6C803.603 194.733 812.48 190.45 820.336 186.08C828.191 181.713 836.031 178.123 837.758 178.107C840.409 178.08 840.389 177.764 837.632 176.086C833.413 173.518 833.67 173.486 823.476 177.879ZM1026.34 177.046C1025.67 178.702 1026.05 180.603 1027.2 181.27C1028.35 181.937 1029.28 180.581 1029.28 178.259C1029.28 173.305 1028.07 172.807 1026.34 177.046ZM1077.65 187.5C1076.25 194.454 1074.44 201.787 1073.62 203.797C1072.24 207.176 1073.35 207.342 1088.27 205.998C1129.49 202.285 1192.62 191.643 1192.62 188.408C1192.62 187.645 1176.7 185.379 1157.23 183.371C1137.77 181.362 1112.47 178.624 1101.02 177.286L1080.2 174.856L1077.65 187.5ZM76.3895 178.267C74.7975 180.694 81.2831 188.394 84.918 188.394C86.1985 188.394 85.0661 186.956 82.4047 185.2C77.5264 181.984 75.3964 176.634 80.0788 179.358C81.636 180.267 82.0018 179.922 81.0371 178.456C79.114 175.522 78.2146 175.485 76.3895 178.267ZM504.598 177.044C504.502 178.134 506.07 183.094 508.087 188.064C511.321 196.043 511.95 196.591 513.459 192.747C514.4 190.353 514.285 186.318 513.2 183.779C511.382 179.518 511.212 179.479 510.994 183.266C510.807 186.527 510.145 186.105 507.767 181.215C506.122 177.83 504.696 175.953 504.598 177.044ZM946.524 180.31C946.524 181.504 947.504 181.912 948.702 181.215C949.9 180.517 950.88 179.541 950.88 179.042C950.88 178.544 949.9 178.138 948.702 178.138C947.504 178.138 946.524 179.116 946.524 180.31ZM101.822 184.359C98.9956 186.579 97.6192 188.394 98.7626 188.394C99.9081 188.394 102.62 186.548 104.786 184.292C109.767 179.108 108.478 179.137 101.822 184.359ZM935.683 182.632C935.866 192.886 954.502 214.663 966.049 218.115C968.667 218.896 970.337 219.984 969.758 220.527C967.946 222.234 956.599 215.699 949.965 209.128C945.093 204.3 942.931 203.358 940.709 205.093C933.564 210.679 942.227 224.014 958.232 232.068C971.169 238.578 1004.58 238.628 1017.3 232.156C1034.06 223.635 1041.76 212.57 1035.71 205.709C1033.28 202.952 1031.97 203.432 1025.12 209.596C1017.01 216.886 1007.85 222.222 1006.16 220.632C1005.62 220.127 1008.09 218.585 1011.63 217.2C1018.58 214.488 1027.13 206.856 1023.21 206.856C1021.9 206.856 1020.21 207.791 1019.46 208.936C1018.71 210.08 1014.28 212.849 1009.62 215.089C998.701 220.336 979.135 220.449 967.214 215.335C956.423 210.708 942.463 196.441 940.727 188.271C939.401 182.025 935.596 177.773 935.683 182.632ZM68.4447 186.423C65.2281 187.274 61.8851 187.373 61.0183 186.644C58.5029 184.527 62.6408 191.098 66.4368 195.251C68.338 197.329 71.4306 199.805 73.3101 200.753C76.1108 202.166 76.8186 201.048 77.2236 194.577C77.7942 185.471 76.518 184.287 68.4447 186.423ZM107.352 185.637C105.015 187.836 105.636 198.269 108.19 199.756C110.645 201.186 118.095 195.77 121.205 190.298C122.423 188.152 122.166 187.02 120.458 187.007C119.025 186.997 115.822 186.372 113.341 185.617C110.858 184.864 108.162 184.872 107.352 185.637ZM965.813 185.92C957.087 188.13 957.026 188.205 960.345 192.669C962.107 195.038 965.445 198.226 967.763 199.756C971.674 202.337 972.129 201.91 974.087 193.853C976.278 184.833 974.989 183.596 965.813 185.92ZM1003.06 186.396C1000.13 188.103 1002.28 200.702 1005.5 200.702C1006.6 200.702 1009.71 198.626 1012.4 196.086C1015.1 193.547 1018.21 191.754 1019.31 192.099C1020.41 192.445 1020.13 191.393 1018.7 189.762C1015.59 186.232 1006.64 184.308 1003.06 186.396ZM90.2232 189.795C91.7934 190.388 93.6729 190.314 94.396 189.633C95.119 188.952 93.8341 188.468 91.5386 188.556C89.0014 188.655 88.4853 189.141 90.2232 189.795ZM985.318 189.795C986.889 190.388 988.768 190.314 989.491 189.633C990.214 188.952 988.929 188.468 986.634 188.556C984.097 188.655 983.58 189.141 985.318 189.795ZM55.7849 193.272C55.7849 193.697 57.4989 195.313 59.5961 196.862C63.0502 199.411 63.1264 199.34 60.4194 196.086C57.5729 192.669 55.7849 191.584 55.7849 193.272ZM85.4363 197.553C83.5024 200.332 81.9191 203.102 81.9191 203.707C81.9191 204.31 86.3292 204.804 91.7194 204.804C102.432 204.804 103.201 203.875 98.1288 197.057C93.7252 191.133 89.7963 191.286 85.4363 197.553ZM178.345 199.576L175.974 206.856H187.887H199.799L199.116 200.189C198.482 193.986 197.82 193.479 189.577 192.909C181.129 192.326 180.608 192.636 178.345 199.576ZM954.343 194.251C953.709 195.215 955.856 198.214 959.114 200.917L965.036 205.83L960.116 200.55C957.409 197.645 955.859 194.646 956.669 193.883C957.477 193.12 957.544 192.497 956.817 192.497C956.087 192.497 954.974 193.286 954.343 194.251ZM982.796 196.248C976.955 202.326 978.434 204.804 987.903 204.804C997.573 204.804 999.291 201.567 992.631 195.892C987.651 191.645 987.204 191.66 982.796 196.248ZM1016.05 200.189L1010.77 205.83L1016.76 200.858C1020.05 198.121 1022.75 195.584 1022.75 195.217C1022.75 193.606 1020.98 194.917 1016.05 200.189ZM208.234 201.674C208.234 206.406 209.036 206.853 217.49 206.825C227.256 206.792 226.907 206.017 214.223 199.549C208.415 196.585 208.234 196.65 208.234 201.674ZM519.734 197.625C519.734 198.753 520.683 201.061 521.844 202.753C523.005 204.445 523.954 204.907 523.954 203.779C523.954 202.65 523.005 200.343 521.844 198.65C520.683 196.958 519.734 196.497 519.734 197.625ZM805.925 201.697C808.251 203.405 813.641 204.724 817.903 204.628C824.846 204.47 825.088 204.291 820.209 202.909C817.215 202.062 811.824 200.743 808.231 199.978C802.076 198.669 801.944 198.767 805.925 201.697ZM967.721 207.11C969.2 208.513 970.958 209.143 971.626 208.511C972.297 207.879 971.088 206.732 968.941 205.961C965.837 204.849 965.587 205.083 967.721 207.11ZM1005.33 206.856C1003.36 208.049 1003.09 208.855 1004.65 208.876C1006.08 208.892 1007.85 207.984 1008.59 206.856C1010.26 204.308 1009.51 204.308 1005.33 206.856ZM80.8302 208.907C77.2803 210.345 77.154 210.695 80.1572 210.814C82.1826 210.892 84.4454 210.035 85.1859 208.907C86.7343 206.548 86.6581 206.548 80.8302 208.907ZM98.2529 208.907C98.9934 210.035 100.579 210.958 101.777 210.958C102.974 210.958 103.349 210.035 102.609 208.907C101.868 207.779 100.283 206.856 99.0849 206.856C97.8871 206.856 97.5125 207.779 98.2529 208.907ZM977.014 208.907C975.052 210.101 974.782 210.907 976.341 210.927C977.768 210.944 979.54 210.035 980.281 208.907C981.951 206.359 981.198 206.359 977.014 208.907ZM996.033 209.161C997.512 210.564 999.27 211.194 999.938 210.562C1000.61 209.93 999.4 208.784 997.253 208.012C994.149 206.901 993.899 207.134 996.033 209.161ZM179.378 210.39C183.27 210.845 189.642 210.845 193.534 210.39C197.426 209.937 194.242 209.563 186.456 209.563C178.67 209.563 175.486 209.937 179.378 210.39ZM214.262 210.394C218.176 210.849 224.056 210.841 227.33 210.373C230.603 209.904 227.399 209.53 220.212 209.543C213.025 209.553 210.349 209.937 214.262 210.394ZM177.152 214.49C181.018 214.944 187.878 214.95 192.397 214.507C196.914 214.062 193.752 213.692 185.367 213.682C176.982 213.674 173.284 214.037 177.152 214.49ZM214.175 214.49C218.041 214.944 224.901 214.95 229.42 214.507C233.937 214.062 230.775 213.692 222.39 213.682C214.005 213.674 210.307 214.037 214.175 214.49ZM174.974 218.593C178.84 219.046 185.7 219.052 190.219 218.609C194.736 218.164 191.574 217.795 183.189 217.785C174.804 217.776 171.106 218.14 174.974 218.593ZM211.139 218.611C211.943 219.836 208.84 221.255 203.639 222.039C195.914 223.202 177.744 230.347 177.744 232.219C177.744 232.587 183.196 231.153 189.855 229.034C220.925 219.155 289.085 220.125 374.569 231.664C391.189 233.906 405.186 235.368 405.671 234.911C406.984 233.672 352.885 225.817 319.267 222.363C279.709 218.297 209.332 215.856 211.139 218.611ZM73.2077 221.12C75.0044 222.267 78.3518 223.216 80.6494 223.235C86.2203 223.276 84.4824 222.103 76.4745 220.414C71.7028 219.409 70.823 219.6 73.2077 221.12ZM103.698 221.214C99.2112 222.568 99.0195 222.888 102.609 223.03C105.004 223.124 108.434 222.308 110.231 221.214C114.047 218.892 111.398 218.892 103.698 221.214ZM725.138 222.234C717.768 223.744 708.947 226.498 705.537 228.355C702.129 230.213 701.299 231.108 703.694 230.347C736.615 219.869 785.669 219.124 831.098 228.414C838.884 230.006 847.704 231.795 850.699 232.392C853.694 232.989 850.512 231.678 843.63 229.481C814.161 220.078 753.72 216.38 725.138 222.234ZM1161.45 222.659C1141.25 226.316 1140.3 228.464 1160.23 225.417C1179.83 222.423 1205.39 222.759 1217.44 226.176C1225.59 228.486 1227.22 228.533 1225.34 226.404C1218.93 219.128 1190.23 217.446 1161.45 222.659ZM937.726 225.163C943.891 236.014 966.889 246.068 984.438 245.583L993.348 245.337L983.548 243.362C966.881 240.004 955.36 235.424 945.181 228.105C938.122 223.03 936.049 222.211 937.726 225.163ZM974.429 222.615C975.999 223.208 977.879 223.134 978.602 222.453C979.325 221.772 978.04 221.288 975.744 221.376C973.207 221.475 972.691 221.961 974.429 222.615ZM998.385 222.615C999.956 223.208 1001.84 223.134 1002.56 222.453C1003.28 221.772 1002 221.288 999.701 221.376C997.164 221.475 996.647 221.961 998.385 222.615ZM49.6913 232C60.7831 241.955 72.4934 246.014 88.8729 245.583L98.2529 245.337L88.4526 243.3C68.1921 239.089 63.2332 237.567 56.8738 233.594C53.2804 231.35 47.8902 228.006 44.8957 226.162C41.9011 224.318 44.0594 226.946 49.6913 232ZM90.2232 224.667C91.7934 225.26 93.6729 225.186 94.396 224.505C95.119 223.824 93.8341 223.34 91.5386 223.428C89.0014 223.526 88.4853 224.012 90.2232 224.667ZM985.181 224.624C986.679 225.194 989.13 225.194 990.626 224.624C992.124 224.055 990.898 223.59 987.903 223.59C984.909 223.59 983.685 224.055 985.181 224.624ZM1137.77 228.769C1139.34 229.362 1141.22 229.288 1141.94 228.607C1142.66 227.926 1141.38 227.442 1139.08 227.53C1136.55 227.629 1136.03 228.115 1137.77 228.769ZM410.367 236.974C411.937 237.567 413.816 237.493 414.539 236.812C415.263 236.131 413.978 235.647 411.682 235.735C409.145 235.834 408.629 236.32 410.367 236.974Z"/>
</mask>
<path fill-rule="evenodd" clip-rule="evenodd" d="M426.058 6.74208C424.656 10.7441 422.358 29.946 420.953 49.4105L418.396 84.803L381.373 89.2133C361.01 91.6379 329.649 96.1363 311.682 99.2111C293.715 102.284 276.074 105.275 272.481 105.855C268.887 106.436 265.377 107.74 264.677 108.756C263.95 109.816 243.975 108.352 217.854 105.328C169.338 99.7096 159.823 98.1835 164.087 96.7025C165.559 96.1917 187.386 98.2224 212.59 101.215C237.794 104.208 259.494 106.319 260.812 105.904C263.501 105.059 173.393 93.9435 164.314 94.0009C160.57 94.0235 157.013 95.9681 154.3 99.4758C151.985 102.469 149.016 104.292 147.703 103.527C146.39 102.762 140.207 93.1599 133.965 82.1898C127.724 71.2175 122.401 61.9704 122.135 61.6381C121.872 61.3058 118.84 60.5714 115.399 60.0032C111.958 59.435 105.712 58.1386 101.52 57.1212C97.3274 56.1038 82.1369 53.4494 67.7631 51.2238C53.3893 48.9982 39.928 46.551 37.8482 45.7839C33.0852 44.0259 29.6377 51.6792 29.6812 63.9129C29.7422 81.8144 27.9237 80.9467 65.1845 80.8174C93.3049 80.719 99.0587 81.24 103.639 84.2923C108.981 87.8533 108.905 87.882 93.8384 87.9312C54.4586 88.0625 26.6453 103.681 11.1935 134.341C0.328227 155.902 -1.8126 166.692 1.31043 184.132C6.70496 214.257 25.3604 238.193 53.0822 250.562C66.8462 256.703 69.2702 257.112 91.9198 257.112C115.523 257.112 116.447 256.935 132.21 249.411C150.926 240.476 167.691 238.726 169.575 245.508C170.581 249.134 176.49 249.288 313.566 249.259C392.184 249.243 456.509 248.509 456.509 247.631C456.509 246.753 454.795 245.005 452.698 243.746C449.664 241.924 450.661 241.692 457.598 242.601C462.389 243.231 517.515 244.365 580.102 245.122C642.689 245.881 693.894 247.126 693.894 247.891C693.894 248.654 735.299 249.196 785.908 249.093L877.922 248.907L877.297 244.607C876.705 240.523 877.927 240.242 901.926 238.952L927.179 237.592L937.179 244.074C971.668 266.422 1024.87 261.282 1052.89 232.894C1060.21 225.483 1079.95 223.448 1093.52 228.706C1098.91 230.79 1103.32 233.044 1103.32 233.713C1103.32 234.381 1093.77 236.55 1082.1 238.529C1054.27 243.245 1053.24 243.549 1053.24 246.993C1053.24 249.497 1066.62 249.932 1143.62 249.932H1234V241.159C1234 236.332 1232.4 230.234 1230.45 227.608C1226.06 221.705 1214.83 217.112 1204.78 217.112C1197.41 217.112 1197.26 216.954 1199.35 211.309C1201.09 206.605 1203.86 204.81 1213.94 201.857C1228.26 197.656 1234.26 193.465 1232.41 188.94C1229.6 182.023 1161.04 156.32 1100.65 139.545C1078.41 133.367 1065.9 128.889 1065.22 126.866C1063 120.28 1041.02 101.882 1028.36 96.0091C1001.96 83.7713 973.667 83.8533 946.936 96.2491L933.176 102.629L895.748 97.3137C823.713 87.0861 736.432 79.599 680.457 78.8462C668.853 78.6903 664.909 77.7713 660.856 74.276C650.176 65.0678 624.499 57.8371 621.065 63.0699C620.076 64.5796 622.986 65.3181 629.92 65.3181C643.063 65.3181 656.969 71.5929 664.539 80.9405C672.503 90.7763 669.428 92.4502 660.416 83.1846C651.483 73.997 644.034 71.1662 630.358 71.7529C621.102 72.1508 619.847 72.7477 619.847 76.7498C619.847 80.8851 620.536 81.1497 627.455 79.681C631.638 78.7908 634.567 78.8175 633.962 79.7385C633.359 80.6595 629.865 82.0339 626.2 82.7908C622.535 83.5497 620.074 84.6759 620.732 85.2974C621.389 85.9169 626.39 84.8174 631.845 82.8564C641.103 79.5251 642.127 79.5149 647.273 82.6902C654.9 87.3958 653.077 90.2143 638.954 95.5476C616.694 103.958 601.673 106.735 572.479 107.839C546.781 108.811 543.623 108.563 543.623 105.584C543.623 101.804 543.555 101.812 556.104 104.099L565.316 105.777L566.782 98.4193C568.603 89.2789 564.46 69.6872 557.809 55.9704C545.415 30.4157 516.748 21.4394 490.782 34.9798C477.695 41.8065 472.843 50.8443 472.843 68.395V82.7538H458.231H443.618L442.499 72.4975C441.882 66.8565 440.765 51.6259 440.014 38.6516C438.056 4.76876 431.779 -9.5819 426.058 6.74208ZM432.923 8.90822C432.888 11.1646 433.7 14.8569 434.73 17.1133C437.115 22.3399 437.115 16.9471 434.73 9.93385C433.328 5.8108 432.975 5.60978 432.923 8.90822ZM522.933 35.5665C532.877 38.8649 543.623 49.6628 543.623 56.354C543.623 58.8443 544.217 62.3396 544.945 64.1242C545.811 66.2534 545.064 67.3693 542.767 67.3693C538.479 67.3693 538.239 70.1652 542.257 73.3078C543.901 74.5919 546.861 81.0636 548.836 87.6892C551.445 96.4481 553.636 100.032 556.868 100.828C564.73 102.764 565.035 93.1394 557.888 68.5119C552.16 48.7828 534.495 32.3214 519.337 32.5881C515.555 32.6537 516.491 33.4311 522.933 35.5665ZM34.3767 63.2668C34.4485 74.0524 34.5509 74.2534 36.7288 67.8596C38.3316 63.1499 38.3099 59.8104 36.6547 56.5776C34.6685 52.7028 34.3135 53.7489 34.3767 63.2668ZM41.2282 64.8237L40.8296 76.6L72.5674 76.9877L104.305 77.3754L111.08 83.4677C114.805 86.8195 121.517 90.9774 125.994 92.7086L134.137 95.8573L127.497 85.203C123.845 79.3426 119.846 72.6103 118.611 70.2432C116.327 65.8658 104.826 62.754 65.5852 55.8925C40.8667 51.5705 41.6899 51.2689 41.2282 64.8237ZM515.478 55.0617C515.145 62.4627 534.334 79.8533 542.534 79.5846C543.732 79.5457 541.771 78.0544 538.178 76.2739C530.769 72.6021 519.666 63.3406 519.666 60.8319C519.666 59.915 521.136 59.1643 522.933 59.1643C524.73 59.1643 526.2 57.7797 526.2 56.0874C526.2 51.7387 519.699 52.2371 519.514 56.6002C519.383 59.6689 519.089 59.595 517.488 56.0874C516.247 53.3653 515.57 53.0207 515.478 55.0617ZM475.384 64.2924C474.52 67.7796 475.075 74.3765 476.665 79.521C478.823 86.5015 480.875 89.0369 485.548 90.5035C494.488 93.3097 494.815 91.1948 486.879 81.8964C482.98 77.3262 479.143 70.1119 478.35 65.8637L476.911 58.1386L475.384 64.2924ZM448.226 85.8307C448.777 87.523 453.151 91.7343 457.946 95.1886L466.664 101.472L428.375 103.993C339.763 109.831 254.008 123.455 199 140.435C183.128 145.336 177.958 148.253 180.647 150.788C181.288 151.389 200.25 149.968 222.789 147.629C335.336 135.947 433.787 131.008 554.762 130.979C628.935 130.959 632.568 130.78 637.847 126.868C644.215 122.15 649.557 110.432 645.324 110.471C643.889 110.483 637.325 111.937 630.737 113.701C614.135 118.146 547.811 119.999 523.778 116.69C502.324 113.736 471.118 104.869 472.856 102.222C473.526 101.201 470.856 98.8358 466.925 96.965C462.992 95.0963 456.951 91.1353 453.499 88.161C449.919 85.0759 447.654 84.0749 448.226 85.8307ZM681.337 89.9928C677.425 93.3445 675.559 96.0871 677.188 96.0871C680.039 96.0871 685.004 91.7117 688.247 86.3436C690.542 82.5426 689.214 83.2441 681.337 89.9928ZM657.69 97.326C657.409 106.684 658.058 107.521 663.208 104.45C665.776 102.918 665.819 101.578 663.467 96.2327C659.373 86.922 657.992 87.1825 657.69 97.326ZM93.3158 97.0983C86.6341 101.662 89.0341 104.274 100.015 104.382C111.564 104.495 123.287 108.415 134.414 115.882C153.141 128.448 151.61 127.806 151.61 123.076C151.61 117.238 139.741 104.951 129.215 99.8942C117.172 94.1076 99.6881 92.7456 93.3158 97.0983ZM495.303 95.4368C496.873 96.0296 498.752 95.9558 499.476 95.2748C500.199 94.5938 498.914 94.1096 496.618 94.1978C494.081 94.2963 493.565 94.7825 495.303 95.4368ZM990.443 96.2142C982.228 99.3158 986.255 103.158 999.35 104.711C1015.05 106.575 1023.76 110.122 1035.6 119.478C1045.83 127.562 1050.51 127.051 1046.95 118.239C1040.61 102.536 1007.69 89.7035 990.443 96.2142ZM513.133 98.2429C526.276 100.446 536.577 100.255 525.111 98.0214C520.32 97.0881 513.459 96.3866 509.866 96.4625C504.966 96.565 505.785 97.0122 513.133 98.2429ZM479.485 102.009C482.399 104.573 507.307 110.116 526.409 112.45C547.294 115.004 590.625 115.014 610.047 112.471C631.268 109.691 654.693 104.208 654.693 102.019C654.693 98.6573 635.332 100.138 618.238 104.805C603.799 108.747 596.257 109.414 566.49 109.375C537.056 109.338 529.018 108.622 514.742 104.76C497.94 100.216 475.452 98.4624 479.485 102.009ZM536.682 101.591C538.252 102.183 540.132 102.11 540.855 101.429C541.578 100.748 540.293 100.263 537.997 100.352C535.46 100.45 534.944 100.936 536.682 101.591ZM671.175 106.856C667.57 114.415 662.816 119.804 654.17 126.128L648.203 130.491L685.749 131.83C732.137 133.488 803.146 136.928 832.187 138.928C849.212 140.099 855.776 139.763 862.253 137.387C868.878 134.959 874.009 134.737 887.842 136.28C897.423 137.348 905.145 137.42 905.145 136.44C905.145 135.465 907.212 131.935 909.738 128.594C912.265 125.252 913.844 122.056 913.245 121.494C908.917 117.418 726.721 100.192 687.933 100.19C674.714 100.19 674.267 100.368 671.175 106.856ZM166.104 110.095C161.606 114.776 161.363 117.991 165.766 114.548C169.638 111.521 170.198 114.682 166.42 118.241C164.603 119.952 164.549 120.702 166.239 120.702C167.576 120.702 169.164 119.549 169.769 118.138C170.547 116.323 170.917 116.438 171.039 118.53C171.167 120.721 172.102 120.456 174.656 117.504C176.986 114.809 177.768 114.548 177.074 116.692C176.414 118.723 177.524 119.968 180.162 120.155C182.425 120.317 184.293 119.351 184.311 118.011C184.332 116.477 184.938 116.335 185.944 117.625C188.091 120.376 199.523 121.057 199.523 118.434C199.523 117.291 198.543 116.928 197.345 117.625C196.147 118.323 195.152 117.685 195.134 116.208C195.11 114.257 194.522 114.364 192.989 116.6C191.456 118.836 190.868 118.942 190.844 116.992C190.827 115.515 189.831 114.877 188.634 115.574C187.436 116.272 186.456 115.687 186.456 114.278C186.456 112.823 184.964 113.437 183.01 115.695C179.935 119.252 179.7 119.283 180.809 115.98C181.534 113.82 181.155 112.805 179.898 113.537C178.713 114.226 177.744 113.921 177.744 112.858C177.744 111.796 180.684 111.039 184.278 111.176C187.871 111.316 190.811 112.077 190.811 112.871C190.811 113.664 192.771 113.958 195.167 113.523C197.563 113.088 199.523 113.658 199.523 114.786C199.523 115.917 200.492 116.278 201.677 115.588C202.933 114.856 203.312 115.872 202.587 118.032C201.409 121.537 201.507 121.543 204.486 118.138C206.213 116.163 209.478 114.454 211.741 114.339C216.597 114.093 180.944 106.575 174.271 106.438C171.762 106.386 168.086 108.032 166.104 110.095ZM172.663 111.814C171.864 112.565 171.211 114.134 171.211 115.301C171.211 116.585 172.226 116.464 173.787 114.994C175.205 113.658 175.858 112.089 175.24 111.506C174.621 110.922 173.461 111.061 172.663 111.814ZM218.579 115.906C220.077 116.477 222.527 116.477 224.024 115.906C225.522 115.338 224.296 114.873 221.301 114.873C218.307 114.873 217.083 115.338 218.579 115.906ZM110.412 129.656C110.913 130.066 113.77 131.502 116.765 132.846C121.898 135.147 121.968 135.106 117.982 132.097C114.513 129.48 107.424 127.192 110.412 129.656ZM128.743 135.061C130.91 137.318 133.175 139.164 133.774 139.164C134.373 139.164 133.088 137.318 130.921 135.061C128.754 132.805 126.489 130.959 125.89 130.959C125.291 130.959 126.576 132.805 128.743 135.061ZM945.229 139.676L941.08 144.292L945.98 140.384C950.584 136.712 951.871 135.061 950.129 135.061C949.715 135.061 947.511 137.137 945.229 139.676ZM1027.1 137.888C1027.1 138.312 1028.82 139.929 1030.92 141.478C1034.37 144.027 1034.45 143.955 1031.74 140.702C1028.89 137.285 1027.1 136.2 1027.1 137.888ZM478.287 140.122C478.287 141.244 498.201 186.759 502.348 195.118C504.452 199.358 505.687 200.146 507.165 198.195C508.522 196.408 508.814 197.042 508.08 200.191C507.49 202.732 507.823 204.335 508.823 203.752C509.822 203.169 511.33 204.784 512.17 207.338C515.213 216.572 522.345 229.37 523.937 228.443C524.83 227.922 526.666 229.776 528.012 232.56C531.638 240.055 536.462 239.065 535.826 230.958C534.635 215.799 532.901 207.102 529.578 199.608C527.644 195.252 526.572 190.437 527.195 188.909C527.87 187.254 527.363 186.692 525.941 187.518C524.405 188.413 523.989 187.537 524.773 185.061C526.193 180.581 515.01 152.165 512.229 153.184C511.197 153.564 509.524 152.641 508.509 151.133C507.03 148.936 506.667 149.002 506.667 151.471C506.667 153.164 507.616 155.933 508.777 157.625C510.654 160.359 510.896 160.359 510.955 157.625C511.014 154.891 511.255 154.891 513.133 157.625C514.294 159.317 515.243 161.625 515.243 162.753C515.243 163.881 514.294 163.42 513.133 161.728C511.255 158.993 511.022 158.993 511.022 161.728C511.022 163.42 511.972 166.189 513.133 167.881C515.01 170.616 515.258 170.616 515.365 167.881C515.43 166.189 516.99 167.42 518.828 170.616C520.668 173.812 521.631 177.754 520.969 179.377C520.309 181.001 521.681 186.905 524.022 192.497C526.363 198.088 527.735 203.996 527.071 205.625C526.407 207.253 527.006 210.593 528.4 213.046C529.793 215.502 531.213 221.803 531.555 227.054L532.176 236.599L528.26 228.394C526.106 223.881 524.257 221.573 524.151 223.266C523.978 225.99 523.719 225.992 521.901 223.282C520.773 221.6 520.311 217.908 520.879 215.077C521.781 210.579 521.653 210.447 519.854 214.035L517.796 218.137L517.297 214.035C517.022 211.779 516.957 208.24 517.151 206.172C517.343 204.103 516.456 200.872 515.18 198.993C513.333 196.275 513.094 196.835 514.01 201.727C515.019 207.11 514.673 206.853 511.24 199.69C509.082 195.186 506.824 192.417 506.225 193.537C505.626 194.657 505.486 194.289 505.918 192.72C507.163 188.164 504.243 181.245 502.313 184.187C501.274 185.769 499.293 183.44 496.866 177.791C491.309 164.839 490.623 162.091 494.392 167.881C496.507 171.124 497.79 171.879 497.888 169.933C497.984 168.039 499.24 168.829 501.155 171.984C503.038 175.088 504.31 175.898 504.378 174.035C504.476 171.301 504.722 171.301 506.599 174.035C508.477 176.77 508.71 176.77 508.71 174.035C508.71 172.343 507.76 169.574 506.599 167.881C504.722 165.147 504.476 165.147 504.378 167.881C504.31 169.744 503.038 168.934 501.155 165.83C499.24 162.675 497.984 161.886 497.888 163.779C497.792 165.672 496.535 164.882 494.621 161.728C492.737 158.624 491.465 157.814 491.398 159.676C491.3 162.411 491.054 162.411 489.176 159.676C488.016 157.984 487.066 155.676 487.066 154.548C487.066 153.42 488.016 153.882 489.176 155.574C491.054 158.308 491.287 158.308 491.287 155.574C491.287 153.882 490.337 151.112 489.176 149.42C487.299 146.686 487.042 146.686 486.855 149.42C486.737 151.112 485.25 149.496 483.549 145.83C480.84 139.997 478.287 137.227 478.287 140.122ZM484.993 144.462C485.097 146.852 485.614 147.338 486.308 145.703C486.938 144.222 486.859 142.452 486.136 141.771C485.413 141.09 484.899 142.3 484.993 144.462ZM343.261 144.651C294.017 145.767 212.117 151.096 189.045 154.686C182.732 155.666 181.919 156.495 182.512 161.332C183.126 166.347 185.09 167.457 203.879 173.387C231.709 182.175 282.133 193.588 312.771 198.035C331.474 200.751 351.051 201.678 390.084 201.699C439.813 201.725 453.732 200.626 482.972 194.357L493.101 192.185L481.883 169.994C468.938 144.39 470.828 145.379 434.73 145.342L414.041 145.32L428.197 153.603C437.359 158.965 444.141 161.586 447.423 161.034C450.727 160.48 454.296 161.881 457.67 165.059C460.851 168.056 465.399 169.933 469.478 169.933C473.126 169.933 476.109 170.878 476.109 172.035C476.109 176.027 465.662 177.853 449.426 176.696C434.922 175.664 431.749 176.132 420.533 180.969C407.337 186.659 403.785 186.675 408.764 181.024C410.397 179.172 406.915 180.534 401.026 184.052C388.401 191.592 382.503 191.937 365.954 186.105C357.724 183.204 350.833 182.119 345.182 182.833C335.786 184.021 335.065 183.268 340.332 177.787C343.489 174.499 343.52 174.035 340.569 174.035C338.718 174.035 332.931 175.861 327.709 178.093C315.97 183.11 297.665 183.467 288.161 178.864C284.328 177.008 277.784 172.854 273.618 169.633C267.909 165.221 263.752 163.779 256.739 163.779C251.621 163.779 247.435 162.954 247.435 161.947C247.435 156.325 269.423 156.212 289.903 161.728C308.345 166.696 315.535 166.696 326.927 161.728C335.12 158.156 335.281 157.92 329.649 157.777C320.711 157.549 322.417 153.996 332.718 151.383C343.561 148.634 354.758 150.275 364.795 156.089C373.089 160.891 387.386 161.73 395.054 157.863C401.86 154.433 398.774 150.905 389.827 151.89C381.456 152.809 381.031 152.259 386.066 147.018C389.52 143.424 389.176 143.285 377.899 143.699C371.425 143.937 355.838 144.366 343.261 144.651ZM489.338 144.997C489.427 145.738 491.404 150.035 493.735 154.548C497.661 162.16 498.18 160 494.717 150.446C493.665 147.539 494.142 147.779 496.357 151.268C498.709 154.975 499.82 155.484 500.843 153.319C501.59 151.74 501.662 152.503 501.002 155.02C500.34 157.535 500.902 161.227 502.248 163.225C504.289 166.251 504.502 165.832 503.535 160.702C502.596 155.724 503.202 156.269 506.71 163.566C509.115 168.567 510.478 174.505 509.77 176.899C508.84 180.039 509.06 180.441 510.574 178.38C512.218 176.142 513.011 176.573 514.339 180.431C516.088 185.51 517.497 195.496 517.876 205.489C518.007 208.989 518.747 210.308 519.732 208.808C522.005 205.342 524.536 213.282 522.776 218.361C521.764 221.288 521.96 221.545 523.578 219.405C525.296 217.134 526.028 217.473 527.25 221.097C528.088 223.588 529.234 225.194 529.793 224.667C530.353 224.14 529.253 220.197 527.348 215.904C525.444 211.61 524.384 206.876 524.993 205.381C525.601 203.887 524.148 198.002 521.764 192.304C519.379 186.605 517.994 181.077 518.686 180.021C519.381 178.964 519.287 176.142 518.479 173.746C517.469 170.743 516.504 170.167 515.376 171.883C514.361 173.43 511.61 169.436 508.141 161.387C505.062 154.24 501.494 148.626 500.214 148.907C498.935 149.188 497.888 148.604 497.888 147.609C497.888 146.612 495.928 145.313 493.532 144.723C491.137 144.134 489.248 144.257 489.338 144.997ZM399.34 150.261C403.232 151.945 406.414 154.062 406.41 154.963C406.397 157.527 388.577 163.781 381.349 163.758C377.769 163.748 369.597 161.44 363.19 158.63C356.783 155.822 347.963 153.582 343.59 153.652C336.897 153.763 336.379 154.064 340.316 155.559C347.965 158.468 348.579 161.728 341.477 161.728C337.96 161.728 331.564 163.112 327.262 164.805C316.593 169.003 301.311 168.624 284.809 163.752C267.276 158.575 261.707 158.403 269.471 163.276C272.607 165.246 279.067 169.42 283.827 172.554C296.785 181.087 310.615 181.972 326.615 175.291C335.192 171.709 341.257 170.388 345.127 171.258C354.222 173.301 355.624 174.784 349.772 176.164C344.979 177.295 345.489 177.703 354.15 179.687C359.54 180.921 368.26 183.428 373.528 185.258C385.446 189.395 393.157 187.305 404.513 176.862C412.181 169.81 417.244 169.99 414.302 177.211C412.769 180.973 412.667 180.985 424.407 176.093C432.528 172.708 437.215 172.193 451.362 173.12C467.563 174.185 468.119 174.084 461.67 171.266C457.922 169.627 454.189 167.272 453.375 166.033C452.562 164.792 448.841 163.779 445.106 163.779C440.854 163.779 434.007 160.985 426.794 156.304C417.98 150.587 412.569 148.638 403.768 148.013L392.262 147.196L399.34 150.261ZM753.473 150.054C755.699 151.397 764.435 157.898 772.885 164.501C787.204 175.687 788.82 176.419 796.608 175.245C807.362 173.625 807.316 176.372 796.514 180.86C791.612 182.897 785.719 187.711 782.476 192.324C775.644 202.049 761.218 208.047 749.599 205.996C740.968 204.47 736.957 200.702 743.965 200.702C749.902 200.702 761.407 195.098 761.407 192.205C761.407 189.652 734.435 191.701 728.437 194.71C726.475 195.695 721.403 201.042 717.169 206.595C705.204 222.281 686.918 225.313 665.724 215.128C651.707 208.394 650.559 203.364 663.918 207.225C669.936 208.964 674.211 208.888 681.735 206.903C695.699 203.221 698.688 199.21 687.465 199.21C682.709 199.21 671.103 197.11 661.673 194.544C634.112 187.042 615.803 192.365 607.9 210.179C606.21 213.992 603.304 217.112 601.447 217.112C599.589 217.112 598.069 216.788 598.069 216.392C598.069 212.919 604.047 200.433 608.281 195.061L613.536 188.394H608.048C605.029 188.394 595.053 190.702 585.879 193.522C566.457 199.494 555.853 199.943 543.577 195.317C538.712 193.483 534.312 192.376 533.803 192.858C533.293 193.338 534.515 201.202 536.521 210.335L540.166 226.939L588.173 228.367C646.086 230.09 684.142 227.662 716.761 220.162C738.631 215.132 743.373 214.743 771.208 215.682C787.977 216.248 809.048 218.236 818.031 220.098C831.051 222.798 840.198 223.2 863.113 222.078L891.86 220.671L886.418 210.558C883.426 204.995 878.09 193.381 874.562 184.751C869.712 172.889 865.371 166.413 856.775 158.214L845.403 147.369L797.416 147.49C759.441 147.584 750.274 148.12 753.473 150.054ZM852.877 148.197C852.877 150.325 869.679 159.406 883.166 164.569C892.897 168.292 896.434 168.921 896.434 166.934C896.434 165.445 894.097 163.67 891.24 162.995C887.187 162.037 866.715 153.568 854.51 147.8C853.611 147.375 852.877 147.553 852.877 148.197ZM1077.55 156.027C1078.68 160.79 1079.8 164.784 1080.04 164.901C1081.66 165.713 1138.14 174.731 1162.8 178.115C1213.61 185.088 1215.24 183.442 1171.04 169.797C1145.37 161.877 1085.66 147.369 1078.72 147.369C1076.04 147.369 1075.84 148.856 1077.55 156.027ZM690.627 151.471C686.644 152.425 685.718 153.133 688.258 153.281C690.549 153.414 696.508 155.777 701.501 158.534C706.495 161.291 715.152 164.63 720.74 165.955C729.504 168.033 731.684 167.881 736.604 164.843C741.744 161.672 741.977 161.008 738.954 158.16C735.378 154.792 726.76 154.107 717.85 156.485L712.406 157.937L717.548 153.678L722.69 149.42L709.925 149.662C702.904 149.795 694.221 150.61 690.627 151.471ZM736.362 152.798C739.956 154.567 744.087 157.432 745.544 159.168C747.761 161.808 746.964 162.94 740.65 166.126C729.68 171.664 720.603 170.841 703.57 162.759C685.533 154.204 667.466 152.844 658.874 159.397L653.863 163.219H663.128C673.675 163.219 679.553 166.813 674.276 170.035C667.623 174.099 661.076 174.542 657.152 171.196C652.824 167.508 650.337 168.669 650.337 174.378C650.337 176.445 649.357 178.138 648.159 178.138C641.107 178.138 651.526 158.909 661.292 153.9C666.536 151.211 666.486 151.172 659.321 152.333C655.279 152.987 646.948 153.551 640.809 153.588C630.327 153.65 629.913 153.845 634.003 156.805C636.399 158.538 639.82 160.747 641.608 161.713C643.394 162.681 644.207 164.082 643.412 164.831C642.619 165.58 638.98 164.109 635.327 161.566C630.763 158.388 625.636 156.942 618.937 156.942C607.405 156.942 602.424 160.193 602.424 167.721C602.424 170.743 601.201 174.425 599.702 175.902C598.206 177.381 601.288 176.554 606.552 174.068C614.496 170.314 617.053 169.945 621.583 171.888C625.523 173.58 627.705 173.609 629.417 171.996C633.28 168.357 626.42 165.547 616.036 166.515C606.014 167.449 604.021 165.313 611.43 161.58C615.211 159.672 618.061 160.109 626.675 163.908C636.723 168.341 637.085 168.778 633.666 172.335C630.27 175.869 630.364 176.093 635.299 176.177C639.328 176.247 638.529 176.948 631.825 179.223C621.032 182.884 621.711 182.927 622.474 178.651C623.345 173.767 615.404 172.911 607.035 176.987C603.42 178.749 596.738 180.193 592.189 180.197C587.482 180.201 580.624 182.132 576.29 184.675C572.098 187.133 564.258 190.298 558.868 191.707L549.067 194.271L561.509 194.411C569.134 194.495 578.231 192.96 585.002 190.445C596.435 186.201 619.847 184.774 619.847 188.322C619.847 189.41 617.802 191.332 615.304 192.591C607.07 196.743 612.336 196.626 621.002 192.466C632.03 187.169 646.883 187.252 666.362 192.716C676.563 195.578 685.318 196.714 692.285 196.084C701.092 195.286 702.701 195.67 702.161 198.429C701.225 203.221 683.523 210.946 673.287 211.03C664.565 211.104 664.539 211.128 669.938 214.035C676.571 217.608 695.987 217.996 703.646 214.708C706.726 213.387 711.121 209.448 713.412 205.955C722.452 192.179 727.169 189.787 747.264 188.794C762.951 188.019 765.763 188.363 765.763 191.065C765.763 192.817 763.18 196.164 760.024 198.501C754.689 202.454 754.606 202.753 758.833 202.753C767.035 202.753 774.494 198.088 781.975 188.281C789.288 178.696 789.306 178.618 784.628 176.54C782.038 175.389 774.529 170.062 767.941 164.702C754.724 153.947 745.087 149.377 735.887 149.502L729.829 149.584L736.362 152.798ZM409.814 153.059C409.145 153.691 408.596 155.873 408.596 157.91C408.596 160.647 405.382 162.493 396.287 164.983C384.522 168.206 374.539 168.062 360.684 164.476C356.01 163.266 355.62 163.506 357.935 166.169C361.001 169.695 372.185 173.104 387.447 175.168C395.71 176.283 398.733 175.847 401.993 173.069C407.747 168.165 422.9 165.211 428.312 167.939C431.235 169.414 433.82 169.442 436.392 168.031C439.781 166.171 439.8 165.949 436.581 165.892C434.606 165.859 428.049 162.698 422.012 158.87C415.973 155.045 410.484 152.429 409.814 153.059ZM1037.29 154.864C1036.51 155.603 1036.47 159.713 1037.19 164C1039.14 175.475 1036.31 189.184 1030.26 197.586C1024.03 206.224 1023.48 208.484 1028.55 204.542C1036.16 198.626 1040.49 184.927 1039.85 168.817C1039.52 160.405 1039.13 153.523 1038.98 153.523C1038.84 153.523 1038.08 154.126 1037.29 154.864ZM100.304 157.434C100.977 158.456 99.4921 158.792 97.0072 158.181C91.58 156.844 75.0567 161.619 76.6596 164.062C77.2803 165.008 76.3155 165.25 74.5144 164.599C69.072 162.632 66.4368 165.518 69.44 170.152C71.7115 173.658 71.4567 174.722 67.7631 177.168C65.3674 178.753 62.1834 181.04 60.6851 182.251C58.59 183.947 57.9628 182.979 57.9628 178.048C57.9628 173.654 57.109 172.017 55.2405 172.837C53.7443 173.496 50.7301 174.62 48.5458 175.338C43.4823 177.003 44.9871 183.801 53.2455 196.568C60.6263 207.978 81.7841 219.459 88.3307 215.608C90.7111 214.207 93.0348 214.043 94.2501 215.188C96.9876 217.766 109.049 214.291 119.095 208.031C128.331 202.273 139.967 182.54 137.58 176.681C136.35 173.662 135.834 173.578 134.166 176.117C132.652 178.427 132.284 178.095 132.558 174.665C132.754 172.218 133.697 170.673 134.656 171.231C137.676 172.989 138.811 166.761 136.509 161.055C134.797 156.815 132.833 155.574 127.837 155.574C124.285 155.574 120.772 156.497 120.031 157.625C119.291 158.753 115.804 159.676 112.28 159.676C108.757 159.676 105.875 158.753 105.875 157.625C105.875 156.497 104.347 155.574 102.48 155.574C100.614 155.574 99.6337 156.411 100.304 157.434ZM988.215 157.781C982.997 158.747 977.212 160.723 975.359 162.171C973.506 163.619 971.894 164.437 971.779 163.99C971.663 163.543 969.294 163.857 966.51 164.69C961.848 166.082 961.721 166.482 964.894 169.785C968.044 173.063 967.998 173.66 964.337 176.78C958.812 181.49 953.058 181.135 953.058 176.086C953.058 171.399 952.237 171.155 946.381 174.107C933.466 180.618 953.376 208.763 975.263 214.94C982.509 216.983 984.506 216.942 986.031 214.716C987.59 212.441 988.217 212.441 989.776 214.716C992.464 218.638 1007.21 214.154 1017.25 206.367C1028.16 197.894 1033.43 187.221 1033.31 173.82C1033.14 154.538 1030.8 152.565 1014.65 158.066C1008.9 160.023 1006.42 160.023 1003.09 158.066C1000.76 156.696 998.594 155.674 998.279 155.799C997.963 155.923 993.435 156.815 988.215 157.781ZM140.895 164.292C143.927 174.152 139.551 190.936 131.302 201.102C107.073 230.952 54.6198 222.429 44.3686 186.977C43.0031 182.251 41.091 178.843 40.1218 179.406C39.1549 179.97 38.1966 175.992 37.9963 170.567C37.6587 161.496 37.5607 161.33 36.7701 168.491C35.3371 181.451 46.6423 202.929 59.9315 212.497C65.0233 216.164 68.2727 219.163 67.1511 219.163C66.0273 219.163 60.6916 215.502 55.2949 211.026C49.896 206.55 44.8565 203.473 44.0986 204.187C43.3385 204.903 42.7178 208.226 42.7178 211.571C42.7178 225.026 66.4128 237.625 91.7194 237.625C117.242 237.625 140.721 225.036 140.721 211.35C140.721 202.823 138.02 201.85 131.781 208.133C128.913 211.022 124.605 214.3 122.209 215.415C119.814 216.531 121.04 214.995 124.934 212C135.76 203.674 142.77 190.718 144.726 175.424C145.671 168.017 145.649 162.421 144.674 162.989C143.698 163.555 142.899 162.581 142.899 160.823C142.899 159.065 141.986 157.625 140.873 157.625C139.628 157.625 139.636 160.197 140.895 164.292ZM411.21 161.832C408.413 166.05 409.326 166.482 415.885 164.052C419.25 162.805 419.413 162.173 416.885 160.197C414.522 158.351 413.281 158.708 411.21 161.832ZM575.548 160.747C566.157 162.234 551.128 164.989 542.148 166.87C526.187 170.216 525.854 170.413 527.182 175.752C527.929 178.757 531.146 183.401 534.33 186.076C539.324 190.271 541.665 190.786 551.424 189.838C558.166 189.182 566.329 186.599 571.645 183.438C576.547 180.523 581.559 178.138 582.78 178.138C585.666 178.138 585.581 176.905 582.362 172.05C578.579 166.343 582.247 164.142 586.348 169.656C591.084 176.025 595.795 174.423 599.11 165.317C602.405 156.267 603.058 156.394 575.548 160.747ZM91.7194 161.617C95.7615 163.149 95.6831 163.324 90.6305 164.037C87.0653 164.54 85.2882 166.037 85.4842 168.374C85.6476 170.335 84.9136 171.434 83.8508 170.815C82.788 170.197 81.9191 171.1 81.9191 172.825C81.9191 174.667 83.1757 175.504 84.9659 174.856C86.6407 174.251 88.653 174.731 89.4348 175.922C90.2994 177.241 89.5328 177.613 87.477 176.87C85.3427 176.099 84.0969 176.788 84.0969 178.739C84.0969 180.897 86.0548 181.705 90.5695 181.41C97.6518 180.948 100.951 178.971 98.4969 176.659C97.6344 175.844 95.9248 176.538 94.7009 178.197C92.7582 180.833 92.5971 180.825 93.4203 178.138C93.9408 176.445 95.9749 175.19 97.9437 175.346C99.9103 175.502 101.52 174.378 101.52 172.845C101.52 171.122 100.069 170.501 97.7085 171.217C94.8141 172.093 94.605 171.894 96.8439 170.388C100.784 167.736 96.3691 159.617 91.0987 159.82C88.0192 159.939 88.1281 160.255 91.7194 161.617ZM128.882 163.178C127.702 166.101 127.95 166.337 130.102 164.327C131.591 162.934 132.26 161.278 131.589 160.649C130.918 160.017 129.701 161.155 128.882 163.178ZM752.696 163.732C752.696 170.507 742.528 175.075 727.747 174.944C717.709 174.854 711.021 173.27 699.583 168.277C684.512 161.697 678.649 160.323 678.649 163.369C678.649 164.271 679.74 166.037 681.073 167.293C682.406 168.548 682.774 170.675 681.892 172.019C679.614 175.494 663.33 182.136 656.871 182.226C652.55 182.288 652.099 182.714 654.693 184.292C656.49 185.385 669.476 186.294 683.549 186.312L709.139 186.343V191.828V197.315L714.751 192.349C719.575 188.08 723.206 187.211 740.626 186.15C756.747 185.17 762.294 183.978 767.745 180.32L774.599 175.725L765.824 169.74C761 166.448 757.052 162.835 757.052 161.715C757.052 160.593 756.072 159.676 754.874 159.676C753.676 159.676 752.696 161.502 752.696 163.732ZM984.637 161.728C983.896 162.856 984.027 164.934 984.926 166.343C986.091 168.171 985.532 168.121 982.973 166.167C979.12 163.225 974.727 164.521 975.008 168.515C975.133 170.277 975.487 170.242 976.278 168.394C976.883 166.985 978.31 165.83 979.451 165.83C980.751 165.83 980.74 167.209 979.421 169.531C978.136 171.791 978.092 174.384 979.31 176.197C982.565 181.042 981.64 183.36 978.173 179.042C975.727 175.998 974.952 175.785 974.871 178.138C974.782 180.872 974.514 180.872 972.46 178.138C970.407 175.403 970.248 175.403 971.04 178.138C971.53 179.83 972.831 181.229 973.928 181.245C975.026 181.264 977.151 182.011 978.648 182.905C980.146 183.801 981.37 183.904 981.37 183.137C981.37 182.368 982.881 182.919 984.728 184.363C987.115 186.23 988.764 186.353 990.419 184.794C993.653 181.748 990.425 177.578 986.05 179.145C983.312 180.125 983.062 179.861 984.992 178.027C986.481 176.614 988.724 176.329 990.436 177.336C992.037 178.277 994.328 179.209 995.526 179.403C996.724 179.598 999.052 180.086 1000.7 180.486C1002.34 180.886 1004.13 179.83 1004.67 178.138C1005.55 175.403 1005.4 175.403 1003.35 178.138C1001.65 180.398 1001.03 180.503 1001 178.53C1000.99 177.053 1000.05 176.38 998.925 177.036C997.799 177.691 996.833 176.591 996.776 174.593C996.493 164.673 996.018 163.746 992.566 166.376C989.924 168.39 989.58 168.384 990.881 166.343C991.948 164.671 991.144 163.769 988.576 163.748C985.236 163.721 985.133 163.414 987.903 161.728C989.866 160.534 990.136 159.728 988.576 159.707C987.15 159.691 985.377 160.599 984.637 161.728ZM101.624 166.015C104.364 170.835 106.248 171.184 104.349 166.519C103.312 163.976 103.745 163.537 106.05 164.796C107.755 165.73 108.38 165.699 107.446 164.733C106.514 163.767 104.32 162.778 102.574 162.538C100.1 162.195 99.8907 162.962 101.624 166.015ZM78.7917 167.28C77.6113 170.203 77.8596 170.439 80.0113 168.429C81.5009 167.036 82.1695 165.381 81.4988 164.751C80.828 164.119 79.6106 165.258 78.7917 167.28ZM117.25 166.973C110.673 171.311 111.168 175.377 118.72 179.055C124.731 181.984 125.093 181.908 126.264 177.508C127.599 172.503 125.859 163.779 123.529 163.779C122.736 163.779 119.912 165.217 117.25 166.973ZM1013.73 167.752C1009.68 170.889 1009.07 172.47 1010.88 175.248C1012.13 177.182 1015.32 179.518 1017.95 180.437C1022.44 182.002 1022.75 181.526 1022.75 172.944C1022.75 162.768 1021.28 161.92 1013.73 167.752ZM657.96 167.881C658.7 169.01 661.697 169.933 664.622 169.933C667.546 169.933 669.938 169.01 669.938 167.881C669.938 166.753 666.939 165.83 663.276 165.83C659.388 165.83 657.173 166.686 657.96 167.881ZM686.498 169.258C687.212 171.937 684.834 174.661 678.172 178.792L668.849 184.577L691.172 183.721C708.405 183.059 713.495 183.467 713.495 185.508C713.495 187.592 714.762 187.528 719.484 185.208C723.084 183.438 731.826 182.261 741.406 182.253C754.719 182.242 763.211 180.523 767.647 176.94C768.085 176.587 765.706 174.08 762.363 171.371L756.283 166.443L751.696 171.465C747.968 175.547 744.455 176.688 732.917 177.559C718.979 178.614 713.847 177.358 688.064 166.577C686.455 165.906 685.873 166.903 686.498 169.258ZM73.5518 171.984C73.5518 174.804 74.0462 175.959 74.6494 174.548C75.2549 173.139 75.2549 170.831 74.6494 169.42C74.0462 168.011 73.5518 169.163 73.5518 171.984ZM108.478 173.01C108.521 176.394 109.009 177.531 109.562 175.535C110.116 173.539 110.079 170.77 109.482 169.381C108.885 167.992 108.434 169.625 108.478 173.01ZM387.907 169.933L381.373 171.498L388.996 171.709C393.188 171.826 398.088 171.026 399.885 169.933C402.572 168.296 402.381 167.982 398.796 168.156C396.4 168.271 391.5 169.071 387.907 169.933ZM992.431 173.18C992.536 175.57 993.052 176.056 993.747 174.421C994.376 172.94 994.298 171.17 993.575 170.489C992.852 169.808 992.338 171.018 992.431 173.18ZM497.955 174.035C497.955 175.728 498.905 178.497 500.066 180.189C501.943 182.923 502.176 182.923 502.176 180.189C502.176 178.497 501.227 175.728 500.066 174.035C498.188 171.301 497.955 171.301 497.955 174.035ZM822.387 174.197C819.392 175.367 812.36 179.959 806.761 184.402C801.162 188.845 793.997 193.405 790.841 194.536C784.675 196.745 785.259 200.702 791.749 200.702C793.923 200.702 800.354 202.64 806.042 205.011C812.968 207.896 818.587 208.905 823.053 208.064C830.796 206.605 837.632 201.411 837.632 196.989C837.632 194.433 836.918 194.521 833.411 197.508C830.123 200.312 827.217 200.792 820.233 199.68C815.307 198.897 811.602 197.327 812.003 196.195C812.404 195.063 818.118 190.987 824.702 187.139C833.215 182.16 839.592 180.021 846.792 179.725C858.152 179.26 858.692 177.245 848.003 175.2C833.122 172.353 827.66 172.14 822.387 174.197ZM823.476 177.879C812.238 182.722 792.649 197.902 800.609 195.6C803.603 194.733 812.48 190.45 820.336 186.08C828.191 181.713 836.031 178.123 837.758 178.107C840.409 178.08 840.389 177.764 837.632 176.086C833.413 173.518 833.67 173.486 823.476 177.879ZM1026.34 177.046C1025.67 178.702 1026.05 180.603 1027.2 181.27C1028.35 181.937 1029.28 180.581 1029.28 178.259C1029.28 173.305 1028.07 172.807 1026.34 177.046ZM1077.65 187.5C1076.25 194.454 1074.44 201.787 1073.62 203.797C1072.24 207.176 1073.35 207.342 1088.27 205.998C1129.49 202.285 1192.62 191.643 1192.62 188.408C1192.62 187.645 1176.7 185.379 1157.23 183.371C1137.77 181.362 1112.47 178.624 1101.02 177.286L1080.2 174.856L1077.65 187.5ZM76.3895 178.267C74.7975 180.694 81.2831 188.394 84.918 188.394C86.1985 188.394 85.0661 186.956 82.4047 185.2C77.5264 181.984 75.3964 176.634 80.0788 179.358C81.636 180.267 82.0018 179.922 81.0371 178.456C79.114 175.522 78.2146 175.485 76.3895 178.267ZM504.598 177.044C504.502 178.134 506.07 183.094 508.087 188.064C511.321 196.043 511.95 196.591 513.459 192.747C514.4 190.353 514.285 186.318 513.2 183.779C511.382 179.518 511.212 179.479 510.994 183.266C510.807 186.527 510.145 186.105 507.767 181.215C506.122 177.83 504.696 175.953 504.598 177.044ZM946.524 180.31C946.524 181.504 947.504 181.912 948.702 181.215C949.9 180.517 950.88 179.541 950.88 179.042C950.88 178.544 949.9 178.138 948.702 178.138C947.504 178.138 946.524 179.116 946.524 180.31ZM101.822 184.359C98.9956 186.579 97.6192 188.394 98.7626 188.394C99.9081 188.394 102.62 186.548 104.786 184.292C109.767 179.108 108.478 179.137 101.822 184.359ZM935.683 182.632C935.866 192.886 954.502 214.663 966.049 218.115C968.667 218.896 970.337 219.984 969.758 220.527C967.946 222.234 956.599 215.699 949.965 209.128C945.093 204.3 942.931 203.358 940.709 205.093C933.564 210.679 942.227 224.014 958.232 232.068C971.169 238.578 1004.58 238.628 1017.3 232.156C1034.06 223.635 1041.76 212.57 1035.71 205.709C1033.28 202.952 1031.97 203.432 1025.12 209.596C1017.01 216.886 1007.85 222.222 1006.16 220.632C1005.62 220.127 1008.09 218.585 1011.63 217.2C1018.58 214.488 1027.13 206.856 1023.21 206.856C1021.9 206.856 1020.21 207.791 1019.46 208.936C1018.71 210.08 1014.28 212.849 1009.62 215.089C998.701 220.336 979.135 220.449 967.214 215.335C956.423 210.708 942.463 196.441 940.727 188.271C939.401 182.025 935.596 177.773 935.683 182.632ZM68.4447 186.423C65.2281 187.274 61.8851 187.373 61.0183 186.644C58.5029 184.527 62.6408 191.098 66.4368 195.251C68.338 197.329 71.4306 199.805 73.3101 200.753C76.1108 202.166 76.8186 201.048 77.2236 194.577C77.7942 185.471 76.518 184.287 68.4447 186.423ZM107.352 185.637C105.015 187.836 105.636 198.269 108.19 199.756C110.645 201.186 118.095 195.77 121.205 190.298C122.423 188.152 122.166 187.02 120.458 187.007C119.025 186.997 115.822 186.372 113.341 185.617C110.858 184.864 108.162 184.872 107.352 185.637ZM965.813 185.92C957.087 188.13 957.026 188.205 960.345 192.669C962.107 195.038 965.445 198.226 967.763 199.756C971.674 202.337 972.129 201.91 974.087 193.853C976.278 184.833 974.989 183.596 965.813 185.92ZM1003.06 186.396C1000.13 188.103 1002.28 200.702 1005.5 200.702C1006.6 200.702 1009.71 198.626 1012.4 196.086C1015.1 193.547 1018.21 191.754 1019.31 192.099C1020.41 192.445 1020.13 191.393 1018.7 189.762C1015.59 186.232 1006.64 184.308 1003.06 186.396ZM90.2232 189.795C91.7934 190.388 93.6729 190.314 94.396 189.633C95.119 188.952 93.8341 188.468 91.5386 188.556C89.0014 188.655 88.4853 189.141 90.2232 189.795ZM985.318 189.795C986.889 190.388 988.768 190.314 989.491 189.633C990.214 188.952 988.929 188.468 986.634 188.556C984.097 188.655 983.58 189.141 985.318 189.795ZM55.7849 193.272C55.7849 193.697 57.4989 195.313 59.5961 196.862C63.0502 199.411 63.1264 199.34 60.4194 196.086C57.5729 192.669 55.7849 191.584 55.7849 193.272ZM85.4363 197.553C83.5024 200.332 81.9191 203.102 81.9191 203.707C81.9191 204.31 86.3292 204.804 91.7194 204.804C102.432 204.804 103.201 203.875 98.1288 197.057C93.7252 191.133 89.7963 191.286 85.4363 197.553ZM178.345 199.576L175.974 206.856H187.887H199.799L199.116 200.189C198.482 193.986 197.82 193.479 189.577 192.909C181.129 192.326 180.608 192.636 178.345 199.576ZM954.343 194.251C953.709 195.215 955.856 198.214 959.114 200.917L965.036 205.83L960.116 200.55C957.409 197.645 955.859 194.646 956.669 193.883C957.477 193.12 957.544 192.497 956.817 192.497C956.087 192.497 954.974 193.286 954.343 194.251ZM982.796 196.248C976.955 202.326 978.434 204.804 987.903 204.804C997.573 204.804 999.291 201.567 992.631 195.892C987.651 191.645 987.204 191.66 982.796 196.248ZM1016.05 200.189L1010.77 205.83L1016.76 200.858C1020.05 198.121 1022.75 195.584 1022.75 195.217C1022.75 193.606 1020.98 194.917 1016.05 200.189ZM208.234 201.674C208.234 206.406 209.036 206.853 217.49 206.825C227.256 206.792 226.907 206.017 214.223 199.549C208.415 196.585 208.234 196.65 208.234 201.674ZM519.734 197.625C519.734 198.753 520.683 201.061 521.844 202.753C523.005 204.445 523.954 204.907 523.954 203.779C523.954 202.65 523.005 200.343 521.844 198.65C520.683 196.958 519.734 196.497 519.734 197.625ZM805.925 201.697C808.251 203.405 813.641 204.724 817.903 204.628C824.846 204.47 825.088 204.291 820.209 202.909C817.215 202.062 811.824 200.743 808.231 199.978C802.076 198.669 801.944 198.767 805.925 201.697ZM967.721 207.11C969.2 208.513 970.958 209.143 971.626 208.511C972.297 207.879 971.088 206.732 968.941 205.961C965.837 204.849 965.587 205.083 967.721 207.11ZM1005.33 206.856C1003.36 208.049 1003.09 208.855 1004.65 208.876C1006.08 208.892 1007.85 207.984 1008.59 206.856C1010.26 204.308 1009.51 204.308 1005.33 206.856ZM80.8302 208.907C77.2803 210.345 77.154 210.695 80.1572 210.814C82.1826 210.892 84.4454 210.035 85.1859 208.907C86.7343 206.548 86.6581 206.548 80.8302 208.907ZM98.2529 208.907C98.9934 210.035 100.579 210.958 101.777 210.958C102.974 210.958 103.349 210.035 102.609 208.907C101.868 207.779 100.283 206.856 99.0849 206.856C97.8871 206.856 97.5125 207.779 98.2529 208.907ZM977.014 208.907C975.052 210.101 974.782 210.907 976.341 210.927C977.768 210.944 979.54 210.035 980.281 208.907C981.951 206.359 981.198 206.359 977.014 208.907ZM996.033 209.161C997.512 210.564 999.27 211.194 999.938 210.562C1000.61 209.93 999.4 208.784 997.253 208.012C994.149 206.901 993.899 207.134 996.033 209.161ZM179.378 210.39C183.27 210.845 189.642 210.845 193.534 210.39C197.426 209.937 194.242 209.563 186.456 209.563C178.67 209.563 175.486 209.937 179.378 210.39ZM214.262 210.394C218.176 210.849 224.056 210.841 227.33 210.373C230.603 209.904 227.399 209.53 220.212 209.543C213.025 209.553 210.349 209.937 214.262 210.394ZM177.152 214.49C181.018 214.944 187.878 214.95 192.397 214.507C196.914 214.062 193.752 213.692 185.367 213.682C176.982 213.674 173.284 214.037 177.152 214.49ZM214.175 214.49C218.041 214.944 224.901 214.95 229.42 214.507C233.937 214.062 230.775 213.692 222.39 213.682C214.005 213.674 210.307 214.037 214.175 214.49ZM174.974 218.593C178.84 219.046 185.7 219.052 190.219 218.609C194.736 218.164 191.574 217.795 183.189 217.785C174.804 217.776 171.106 218.14 174.974 218.593ZM211.139 218.611C211.943 219.836 208.84 221.255 203.639 222.039C195.914 223.202 177.744 230.347 177.744 232.219C177.744 232.587 183.196 231.153 189.855 229.034C220.925 219.155 289.085 220.125 374.569 231.664C391.189 233.906 405.186 235.368 405.671 234.911C406.984 233.672 352.885 225.817 319.267 222.363C279.709 218.297 209.332 215.856 211.139 218.611ZM73.2077 221.12C75.0044 222.267 78.3518 223.216 80.6494 223.235C86.2203 223.276 84.4824 222.103 76.4745 220.414C71.7028 219.409 70.823 219.6 73.2077 221.12ZM103.698 221.214C99.2112 222.568 99.0195 222.888 102.609 223.03C105.004 223.124 108.434 222.308 110.231 221.214C114.047 218.892 111.398 218.892 103.698 221.214ZM725.138 222.234C717.768 223.744 708.947 226.498 705.537 228.355C702.129 230.213 701.299 231.108 703.694 230.347C736.615 219.869 785.669 219.124 831.098 228.414C838.884 230.006 847.704 231.795 850.699 232.392C853.694 232.989 850.512 231.678 843.63 229.481C814.161 220.078 753.72 216.38 725.138 222.234ZM1161.45 222.659C1141.25 226.316 1140.3 228.464 1160.23 225.417C1179.83 222.423 1205.39 222.759 1217.44 226.176C1225.59 228.486 1227.22 228.533 1225.34 226.404C1218.93 219.128 1190.23 217.446 1161.45 222.659ZM937.726 225.163C943.891 236.014 966.889 246.068 984.438 245.583L993.348 245.337L983.548 243.362C966.881 240.004 955.36 235.424 945.181 228.105C938.122 223.03 936.049 222.211 937.726 225.163ZM974.429 222.615C975.999 223.208 977.879 223.134 978.602 222.453C979.325 221.772 978.04 221.288 975.744 221.376C973.207 221.475 972.691 221.961 974.429 222.615ZM998.385 222.615C999.956 223.208 1001.84 223.134 1002.56 222.453C1003.28 221.772 1002 221.288 999.701 221.376C997.164 221.475 996.647 221.961 998.385 222.615ZM49.6913 232C60.7831 241.955 72.4934 246.014 88.8729 245.583L98.2529 245.337L88.4526 243.3C68.1921 239.089 63.2332 237.567 56.8738 233.594C53.2804 231.35 47.8902 228.006 44.8957 226.162C41.9011 224.318 44.0594 226.946 49.6913 232ZM90.2232 224.667C91.7934 225.26 93.6729 225.186 94.396 224.505C95.119 223.824 93.8341 223.34 91.5386 223.428C89.0014 223.526 88.4853 224.012 90.2232 224.667ZM985.181 224.624C986.679 225.194 989.13 225.194 990.626 224.624C992.124 224.055 990.898 223.59 987.903 223.59C984.909 223.59 983.685 224.055 985.181 224.624ZM1137.77 228.769C1139.34 229.362 1141.22 229.288 1141.94 228.607C1142.66 227.926 1141.38 227.442 1139.08 227.53C1136.55 227.629 1136.03 228.115 1137.77 228.769ZM410.367 236.974C411.937 237.567 413.816 237.493 414.539 236.812C415.263 236.131 413.978 235.647 411.682 235.735C409.145 235.834 408.629 236.32 410.367 236.974Z" fill="black" stroke="black" stroke-width="2" mask="url(#path-10-inside-1_4002_3)"/>
</svg>
