<svg width="1216" height="275" viewBox="0 0 1216 275" fill="none" xmlns="http://www.w3.org/2000/svg">
<path d="M156.5 125.5L231 151L205 106H187.5H140.5L156.5 125.5Z" fill="white"/>
<path d="M119 259.5L173 265.5L179.5 256H156.5L136.5 251L122.5 241L113.5 234H106.5L119 259.5Z" fill="white"/>
<path d="M184 68L180.5 77.5L145.5 39L106.5 21L109 11.5H142L167.5 14L178 21L184 34V68Z" fill="white"/>
<path d="M393.5 72L455 58L484 72L471.5 106L409.5 113.5L388 106L393.5 72Z" fill="white"/>
<path d="M526 64.5L543.5 46.5L561 40L573.5 41L583 46.5L594 55.5L602 67.5L604 83L609.5 103L604 113.5L594 108.5L577.5 99.5L557 98H533L526 92.5L524.5 77.5L526 64.5Z" fill="white"/>
<path d="M688.5 131L702 116.5L704.5 108.5L682 93.5L670.5 86L653 81L649 83L653 93.5H663.5L676 96.5L683 103L675 120L688.5 131Z" fill="white"/>
<path d="M523.5 235L572 238.5L609.5 235L616 259L580 263H543.5L523.5 260.5L509 249L523.5 235Z" fill="white"/>
<path d="M156.5 125.5L231 151L205 106H187.5H140.5L156.5 125.5Z" stroke="white"/>
<path d="M119 259.5L173 265.5L179.5 256H156.5L136.5 251L122.5 241L113.5 234H106.5L119 259.5Z" stroke="white"/>
<path d="M184 68L180.5 77.5L145.5 39L106.5 21L109 11.5H142L167.5 14L178 21L184 34V68Z" stroke="white"/>
<path d="M393.5 72L455 58L484 72L471.5 106L409.5 113.5L388 106L393.5 72Z" stroke="white"/>
<path d="M526 64.5L543.5 46.5L561 40L573.5 41L583 46.5L594 55.5L602 67.5L604 83L609.5 103L604 113.5L594 108.5L577.5 99.5L557 98H533L526 92.5L524.5 77.5L526 64.5Z" stroke="white"/>
<path d="M688.5 131L702 116.5L704.5 108.5L682 93.5L670.5 86L653 81L649 83L653 93.5H663.5L676 96.5L683 103L675 120L688.5 131Z" stroke="white"/>
<path d="M523.5 235L572 238.5L609.5 235L616 259L580 263H543.5L523.5 260.5L509 249L523.5 235Z" stroke="white"/>
<path d="M664 251L672.5 235L628 151L602.5 136L584 137.5L598.5 164L616 193.5L639.5 235L653 251H664Z" fill="white"/>
<path d="M829 135H917L919 173H824L829 135Z" fill="white"/>
<path d="M1004 108.5L975.5 114L1041.5 145L1048 138L1035 119L1014.5 108.5H1004Z" fill="white"/>
<path d="M978.5 255.5L998.5 261L970 265L946.5 255.5L935 239H944L959.5 250.5L978.5 255.5Z" fill="white"/>
<path d="M1062.5 201L1092 197.5L1112 207L1079.5 217.5H1062.5V201Z" fill="white"/>
<path d="M1154.5 228.5H1191L1202.5 231H1209L1210.5 232V240V249L1208 255.5L1154.5 253V228.5Z" fill="white"/>
<path d="M365 261.5L372.5 250V195.5H340.5L316 227H284.5H255L248.5 235L294.5 255L365 261.5Z" fill="white"/>
<path d="M664 251L672.5 235L628 151L602.5 136L584 137.5L598.5 164L616 193.5L639.5 235L653 251H664Z" stroke="white"/>
<path d="M829 135H917L919 173H824L829 135Z" stroke="white"/>
<path d="M1004 108.5L975.5 114L1041.5 145L1048 138L1035 119L1014.5 108.5H1004Z" stroke="white"/>
<path d="M978.5 255.5L998.5 261L970 265L946.5 255.5L935 239H944L959.5 250.5L978.5 255.5Z" stroke="white"/>
<path d="M1062.5 201L1092 197.5L1112 207L1079.5 217.5H1062.5V201Z" stroke="white"/>
<path d="M1154.5 228.5H1191L1202.5 231H1209L1210.5 232V240V249L1208 255.5L1154.5 253V228.5Z" stroke="white"/>
<path d="M365 261.5L372.5 250V195.5H340.5L316 227H284.5H255L248.5 235L294.5 255L365 261.5Z" stroke="white"/>
<path d="M349 196.5L493 177V175L569 183.5L640.5 256L654 253L640.5 235L613.5 191.5L579 127.5L573.5 99L555.5 97L520 99L498.5 101L456.5 109L372 117L345.5 109L291 101H218.5L221 123.5L260 161L349 196.5Z" fill="#56BF59"/>
<path d="M506 56.5L513 35L517.5 27.5V17L490 6L437.5 1.5L372 6L332.5 13.5L291 26.5L237 45.5L214 56.5L206 65.5L209 77.5L221 80L305 68.5L399 48L466.5 41.5L506 56.5Z" fill="#56BF59"/>
<path d="M795.5 191.5L851.5 199.5L848.5 216.5L858 230.5L869.5 241.5L874.5 248.5L865 258.5L861.5 255.5L860 253L834.5 235H792L783.5 218.5L795.5 191.5Z" fill="#56BF59"/>
<path d="M942.5 123.5L955 112H948L904 106.5L828 99L783.5 97L689 92V97L692.5 99L856.5 114L942.5 123.5Z" fill="#56BF59"/>
<path d="M1061 164L1051.5 136L1075 140.5L1123.5 157L1171.5 178.5L1205 197.5L1210.5 203L1200.5 215L1171.5 219L1061 164Z" fill="#56BF59"/>
<path d="M349 196.5L493 177V175L569 183.5L640.5 256L654 253L640.5 235L613.5 191.5L579 127.5L573.5 99L555.5 97L520 99L498.5 101L456.5 109L372 117L345.5 109L291 101H218.5L221 123.5L260 161L349 196.5Z" stroke="white"/>
<path d="M506 56.5L513 35L517.5 27.5V17L490 6L437.5 1.5L372 6L332.5 13.5L291 26.5L237 45.5L214 56.5L206 65.5L209 77.5L221 80L305 68.5L399 48L466.5 41.5L506 56.5Z" stroke="white"/>
<path d="M795.5 191.5L851.5 199.5L848.5 216.5L858 230.5L869.5 241.5L874.5 248.5L865 258.5L861.5 255.5L860 253L834.5 235H792L783.5 218.5L795.5 191.5Z" stroke="white"/>
<path d="M942.5 123.5L955 112H948L904 106.5L828 99L783.5 97L689 92V97L692.5 99L856.5 114L942.5 123.5Z" stroke="white"/>
<path d="M1061 164L1051.5 136L1075 140.5L1123.5 157L1171.5 178.5L1205 197.5L1210.5 203L1200.5 215L1171.5 219L1061 164Z" stroke="white"/>
<path d="M174.5 132.5L218 152.5L226 235L190.5 257.5H160.5L129 247L119 238L99 228.5V171.5L112.5 132.5H174.5Z" fill="#8F8F8F"/>
<path d="M304.5 231.5L316 219.5H318.5L316 192L304.5 178H243.5L228 188L243.5 223.5L304.5 231.5Z" fill="#8F8F8F"/>
<path d="M930.5 139L977 135.5H980.5H1006.5L1044.5 162.5V191L1042.5 232.5L1010 255H971.5L959.5 250L930.5 228.5L927 193.5L930.5 139Z" fill="#8F8F8F"/>
<path d="M174.5 132.5L218 152.5L226 235L190.5 257.5H160.5L129 247L119 238L99 228.5V171.5L112.5 132.5H174.5Z" stroke="#F8F8F8"/>
<path d="M304.5 231.5L316 219.5H318.5L316 192L304.5 178H243.5L228 188L243.5 223.5L304.5 231.5Z" stroke="#F8F8F8"/>
<path d="M930.5 139L977 135.5H980.5H1006.5L1044.5 162.5V191L1042.5 232.5L1010 255H971.5L959.5 250L930.5 228.5L927 193.5L930.5 139Z" stroke="#F8F8F8"/>
<path d="M385 93.5L437.5 50L491.5 61V93.5L427.5 114.5L385 122V93.5Z" fill="#5F5958"/>
<path d="M372 259.5L377 246.5L372 197H339.5L308 231L289.5 227H261H242.5L255.5 240.5L285.5 252.5L339.5 259.5H372Z" fill="#5F5958"/>
<path d="M509.5 246.5L526.5 222.5L566.5 227L609.5 246.5L606 259.5H526.5H513.5L509.5 246.5Z" fill="#5F5958"/>
<path d="M916.5 182V139H846.5L826 163.5L846.5 182H916.5Z" fill="#5F5958"/>
<path d="M385 93.5L437.5 50L491.5 61V93.5L427.5 114.5L385 122V93.5Z" stroke="white"/>
<path d="M372 259.5L377 246.5L372 197H339.5L308 231L289.5 227H261H242.5L255.5 240.5L285.5 252.5L339.5 259.5H372Z" stroke="white"/>
<path d="M509.5 246.5L526.5 222.5L566.5 227L609.5 246.5L606 259.5H526.5H513.5L509.5 246.5Z" stroke="white"/>
<path d="M916.5 182V139H846.5L826 163.5L846.5 182H916.5Z" stroke="white"/>
<mask id="path-6-inside-1_4002_4" fill="white">
<path fill-rule="evenodd" clip-rule="evenodd" d="M393.294 1.04426C390.535 1.46166 377.893 3.306 365.201 5.14623C336.445 9.31194 301.139 19.0888 265.331 32.8052C222.494 49.2131 206.816 57.0531 205.416 62.765C204.158 67.9094 205.113 76.4917 207.615 82.4832C208.941 85.6661 207.814 86.0814 197.865 86.0814H186.614L186.606 57.8097C186.6 33.3974 186.064 28.6395 182.681 22.9564C175.527 10.9322 169.299 9.09193 133.078 8.30443L100.609 7.59918L97.6392 13.4283C88.776 30.8231 59.897 44.6834 25.5159 48.0472C18.6554 48.7175 10.1093 49.7271 6.52145 50.2905L0 51.3144V96.4134C0 146.879 1.45478 154.429 12.77 162.699C18.5009 166.887 21.7997 167.36 49.7416 167.997L80.4225 168.699L79.1223 180.476C76.5498 203.768 85.9608 231.322 102.337 248.445C140.845 288.71 203.483 282.186 234.772 234.653C237.714 230.183 237.889 230.164 242.526 233.828L247.267 237.577L242.211 245.787C239.428 250.302 234.261 256.491 230.725 259.538L224.298 265.079L424.677 264.452L625.056 263.825L689.267 250.016C724.583 242.421 754.833 236.209 756.488 236.213C761.958 236.222 742.866 246.506 724.128 253.643C713.997 257.505 704.762 261.629 703.606 262.813C702.146 264.31 725.896 264.964 781.756 264.964H862.004L870.405 256.191L878.807 247.419L868.696 238.494C863.135 233.586 858.961 229.186 859.421 228.715C859.88 228.244 872.781 228.832 888.087 230.022C910.822 231.791 916.272 232.831 917.839 235.701C922.206 243.696 937.66 258.465 947.268 263.823C987.139 286.06 1034.43 274.258 1058.56 236.049C1063.77 227.812 1068.06 223.307 1071.45 222.522C1074.25 221.876 1083.31 219.641 1091.59 217.558C1136.71 206.204 1150.29 208.46 1146.94 226.751L1145.53 234.443L1137.12 233.057C1132.5 232.294 1122.15 229.447 1114.12 226.729C1091.93 219.211 1089.61 219.68 1080.02 233.608C1071.72 245.663 1062.41 255.49 1053.52 261.57C1048.87 264.754 1053.43 264.964 1127.12 264.964C1195.86 264.964 1206.08 264.561 1208.83 261.734C1211.14 259.367 1211.99 254.353 1211.99 243.005C1211.99 227.625 1211.95 227.518 1207.11 228.76C1202.31 229.998 1202.33 229.868 1209.12 218.311C1212.91 211.873 1216 205.729 1216 204.656C1216 201.88 1211.3 198.453 1191.92 187.111C1161.82 169.494 1120.68 152.624 1076.02 139.592C1057.5 134.187 1052.18 131.694 1045.21 125.168C1022.9 104.272 989.407 97.3346 960.441 107.611C951.418 110.812 949.026 110.831 928.336 107.854C869.46 99.3825 832.521 96.3888 760.502 94.2586C727.945 93.2943 698.373 91.8818 694.785 91.1169C691.198 90.352 688.264 90.5268 688.264 91.5034C688.264 93.8248 689.817 93.9337 754.863 96.1955C827.333 98.7142 897.143 104.823 938.86 112.297L947.661 113.872L942.34 116.792C937.65 119.364 933.858 119.183 910.463 115.278C858.835 106.663 805.995 101.733 731.831 98.6073L690.118 96.8493L677.91 89.1286C670.542 84.4694 662.218 81.0049 656.917 80.3921L648.132 79.3785L648.162 91.4685C648.18 98.118 648.856 102.518 649.667 101.247C651.206 98.8356 664.185 95.188 664.185 97.168C664.185 97.791 661.251 99.2447 657.663 100.398C651.435 102.401 651.411 102.444 657.162 101.36C660.473 100.735 665.459 99.7444 668.244 99.1563C671.712 98.4243 674.445 99.3784 676.925 102.187C680.46 106.192 680.346 106.404 671.836 111.516C659.887 118.692 641.468 122.744 613.327 124.393C588.032 125.876 583.929 124.593 588.145 116.52C589.66 113.621 589.337 112.811 586.668 112.811C584.788 112.811 583.756 112.293 584.374 111.662C584.99 111.028 590.506 111.851 596.629 113.49L607.761 116.469L609.888 110.22C612.575 102.323 612.613 94.9289 609.974 93.2573C608.853 92.5459 608.351 91.2752 608.859 90.4322C610.38 87.9114 603.73 67.087 598.936 59.3518C593.139 50.0006 588.458 45.8328 579.398 41.9529C561.036 34.0923 535.471 41.7596 527.648 57.4725C524.088 64.6237 523.448 68.8614 524.06 81.2639L524.804 96.3538L517.741 97.5649C513.858 98.2311 509.147 99.2057 507.273 99.73C500.882 101.519 493.861 80.8404 497.515 70.9915C498.646 67.9402 503.625 62.9541 508.637 59.8535C513.662 56.7426 519.051 51.3412 520.717 47.745C524.578 39.4054 524.59 22.4691 520.737 16.8332C513.758 6.62253 475.717 -0.382688 429.413 0.0162003C412.306 0.164241 396.053 0.626869 393.294 1.04426ZM375.234 6.9659C334.404 12.758 301.409 22.2799 248.899 43.423C217.632 56.0147 208.686 61.8233 208.686 69.5399C208.686 71.8531 209.154 73.7447 209.726 73.7447C210.298 73.7447 219.554 69.2418 230.294 63.7396C278.506 39.0373 327.943 23.3738 381.254 15.9059C401.972 13.0047 471.284 12.8012 489.611 15.5872L500.647 17.2671L500.316 32.6551L499.987 48.0431L502.031 32.9532C504.195 16.9977 503.801 17.3617 514.693 21.2518C518.181 22.4979 518.082 22.1216 513.953 18.3877C508.346 13.3173 494.063 8.81435 474.561 5.96868C455.127 3.13123 398.228 3.70283 375.234 6.9659ZM136.449 16.1999C174.508 18.3609 176.972 20.5096 178.222 52.6694C178.704 65.0432 179.886 73.7447 181.086 73.7447C182.406 73.7447 182.763 66.1226 182.097 52.1636C180.45 17.7009 175.822 13.9135 136.011 14.4481L111.366 14.7771L136.449 16.1999ZM561.848 42.066C582.099 50.5413 587.898 56.4218 589.435 70.0437C590.159 76.4834 589.692 77.8569 586.768 77.8569C583.688 77.8569 583.841 78.5334 587.934 82.9972C593.809 89.4062 590.169 89.6879 579.661 83.6367C569.8 77.9577 564.411 70.2102 567.976 66.8423C569.883 65.0411 570.095 65.1542 568.887 67.3296C567.87 69.1554 568.177 69.8689 569.746 69.3343C573.767 67.9608 573.173 64.5353 568.803 63.8938C556.713 62.1194 570.456 83.0569 584.894 88.4069C589.945 90.278 592.405 92.624 593.159 96.286C595.232 106.369 597.883 110.755 601.9 110.755C607.077 110.755 609.346 102.086 606.421 93.4814C603.549 85.0328 599.45 68.81 599.933 67.8066C600.144 67.3666 599.556 66.4413 598.629 65.7505C597.7 65.0576 594.514 61.153 591.548 57.0716C585.733 49.0712 576.179 43.4785 565.52 41.8357C561.844 41.2703 560.193 41.3731 561.848 42.066ZM448.873 72.5789C433.285 79.1482 417.18 89.328 405.723 99.8595L396.304 108.514L412.356 108.575C437.064 108.672 459.869 102.123 470.945 91.7502C477.22 85.8758 478.837 76.5307 474.439 71.5508C469.825 66.3282 463.065 66.5997 448.873 72.5789ZM526.434 80.499C527.128 93.3889 529.215 97.2297 534.41 95.1859C537.456 93.9893 537.414 93.4012 533.912 88.3617C531.803 85.3289 529.115 79.6416 527.937 75.7247C525.944 69.104 525.84 69.4392 526.434 80.499ZM650.139 86.3467C650.139 89.5707 651.698 90.1937 659.778 90.1937C669.3 90.1937 672.019 91.5158 692.277 106.001L697.294 109.587L693.543 105.113C686.536 96.7507 669.253 86.141 659.67 84.3152C651.064 82.6765 650.139 82.8739 650.139 86.3467ZM511.683 101.459C502.302 103.055 479.728 108.049 461.518 112.558C399.111 128.012 388.853 129.688 350.152 130.763C302.505 132.087 262.8 127.771 251.714 120.061C246.551 116.471 241.543 114.867 235.495 114.867C230.683 114.867 226.746 115.607 226.746 116.512C226.746 120.151 247.956 142.222 259.546 150.644C284.022 168.431 318.385 182.067 351.007 186.94C372.281 190.119 403.068 188.4 424.396 182.845C441.065 178.5 481.584 159.393 481.584 155.874C481.584 154.768 477.296 156.078 472.053 158.784C447.169 171.629 411.748 180.663 386.271 180.663C368.171 180.663 341.144 175.348 323.211 168.261C307.508 162.055 275.221 141.737 267.978 133.5L264.061 129.046L269.882 131.314C284.59 137.044 322.583 141.765 354.223 141.794C397.243 141.835 432.372 137.217 488.774 124.107C500.821 121.307 516.427 119.008 523.45 118.998C546.755 118.965 550.304 122.586 595.964 193C623.232 235.048 626.738 239.425 638.849 246.543C652.454 254.54 653.672 254.192 644.61 244.907C635.145 235.208 565.017 111.865 566.586 107.677C567.258 105.88 566.014 103.715 563.526 102.349C556.932 98.7328 530.381 98.2784 511.683 101.459ZM684.783 114.867C684.558 120.67 685.284 123.092 687.249 123.092C691.88 123.092 692.612 119.44 689.297 112.871C687.57 109.445 685.918 106.643 685.629 106.643C685.34 106.643 684.959 110.344 684.783 114.867ZM164.04 112.976C158.255 116.428 159.994 118.435 170.059 119.913C186.11 122.273 193.842 125.351 204.529 133.642C215.455 142.113 218.719 143.299 218.719 138.79C218.719 135.755 211.678 125.672 206.726 121.615C195.296 112.248 172.867 107.708 164.04 112.976ZM989.262 114.448L984.302 118.564L996.309 120.022C1010.87 121.792 1023.47 127.126 1032.68 135.412C1039.3 141.364 1045.44 143.499 1045.44 139.845C1045.44 135.293 1035.37 123.637 1026.69 118.134C1013.91 110.039 996.626 108.337 989.262 114.448ZM240.792 117.425C240.792 117.828 247.34 123.585 255.34 130.216C268.891 141.447 269.304 141.648 261.376 133.136C254.082 125.304 240.792 115.161 240.792 117.425ZM1057.75 138.811C1058.17 139.777 1060.89 145.195 1063.8 150.849C1069.05 161.021 1069.44 161.29 1100.84 176.222C1156.31 202.602 1192.54 212.017 1206.73 203.741C1209.04 202.39 1191.3 190.864 1169.39 179.481C1146 167.335 1116.58 155.467 1087.98 146.643C1075.07 142.656 1062.81 138.868 1060.75 138.225C1058.69 137.581 1057.34 137.844 1057.75 138.811ZM588.231 140.988C592.264 150.574 600.975 163.821 602.576 162.808C603.732 162.078 603.991 162.545 603.178 163.893C601.414 166.815 606.722 175.058 609.003 172.94C609.908 172.099 610.001 172.566 609.208 173.977C607.466 177.079 612.691 185.386 615.023 183.221C615.928 182.38 616.038 182.82 615.264 184.198C614.469 185.616 619.692 196.781 627.285 209.899C641.617 234.659 647.691 242.869 650.407 241.148C651.339 240.56 651.561 241.512 650.905 243.268C650.247 245.024 650.484 246.527 651.429 246.611C652.374 246.696 655.179 247.152 657.663 247.627C660.148 248.102 662.15 247.802 662.114 246.961C662.004 244.3 656.815 238.249 655.659 239.431C655.051 240.054 654.688 239.347 654.854 237.858C655.334 233.543 631.622 193.047 629.428 194.435C628.339 195.126 628.064 194.665 628.82 193.413C630.586 190.485 619.345 171.83 617.084 173.938C616.149 174.809 616.038 174.357 616.839 172.93C618.025 170.822 605.333 145.709 603.084 145.709C602.747 145.709 599.107 144.27 594.997 142.51C590.888 140.75 587.842 140.065 588.231 140.988ZM855.48 140.97C850.59 141.946 840.766 150.537 840.766 153.835C840.766 155.149 846.838 156.004 856.317 156.025C864.869 156.045 878.189 157.433 885.914 159.109C893.638 160.787 900.185 162.158 900.462 162.158C900.737 162.158 900.964 160.896 900.964 159.351C900.964 157.807 902.872 154.057 905.206 151.018C907.539 147.979 909.05 145.086 908.565 144.586C904.953 140.887 868.372 138.393 855.48 140.97ZM174.574 143.653C176.23 144.749 178.487 145.645 179.591 145.645C180.694 145.645 180.243 144.749 178.587 143.653C176.932 142.557 174.675 141.661 173.571 141.661C172.467 141.661 172.919 142.557 174.574 143.653ZM1003.47 144.403C1003.93 144.815 1006.56 146.254 1009.32 147.601C1014.05 149.908 1014.11 149.866 1010.44 146.85C1007.25 144.227 1000.71 141.934 1003.47 144.403ZM597.05 147.623C596.414 148.676 596.663 150.023 597.6 150.617C598.537 151.211 599.305 150.35 599.305 148.703C599.305 145.236 598.671 144.934 597.05 147.623ZM951.941 152.391L948.119 157.018L952.634 153.101C956.876 149.42 958.061 147.765 956.456 147.765C956.075 147.765 954.044 149.848 951.941 152.391ZM196.647 150.598C196.647 151.024 198.226 152.644 200.158 154.197C203.341 156.752 203.411 156.68 200.917 153.419C198.294 149.994 196.647 148.906 196.647 150.598ZM117.304 164.352C116.575 165.557 116.411 166.986 116.937 167.524C117.462 168.063 118.428 167.076 119.082 165.331C120.438 161.708 119.282 161.07 117.304 164.352ZM190.627 172.276C190.627 175.169 178.503 177.287 176.089 174.813C173.721 172.387 166.429 173.284 150.997 177.898C139.918 181.208 138.893 182.316 142.97 186.566C144.983 188.663 144.525 189.977 140.661 193.214C134.93 198.011 131.667 197.39 130.796 191.339C130.186 187.097 129.955 187.056 125.097 190.317C120.918 193.123 120.248 194.807 121.255 199.966C122.962 208.723 130.086 218.833 139.084 225.273C153.238 235.403 179.541 233.378 192.295 221.173C199.99 213.812 209.337 190.944 204.653 190.944C203.77 190.944 203.507 187.436 204.069 183.149C204.804 177.536 204.188 174.585 201.872 172.615C199.211 170.354 198.653 170.35 198.653 172.599C198.653 174.713 198.118 174.768 196.246 172.85C193.382 169.916 190.627 169.634 190.627 172.276ZM1012.86 174.199C1008.31 176.993 1006.67 177.125 1003.3 174.972C1001.07 173.543 996.767 172.893 993.745 173.528C980.742 176.263 965.175 181.449 965.175 183.044C965.175 183.996 966.078 184.775 967.182 184.775C970.488 184.775 969.449 191.316 965.677 194.25C960.253 198.469 957.148 197.62 957.148 191.918C957.148 186.85 957.008 186.801 951.329 189.809C945.783 192.749 945.602 193.271 947.501 200.932C950.049 211.219 959.402 222.838 969.3 228.014C981.105 234.184 1002.28 232.718 1013.19 224.975C1024.8 216.728 1031.52 201.835 1030.64 186.278C1030.28 179.752 1029.5 173.929 1028.92 173.337C1026.32 170.668 1017.87 171.121 1012.86 174.199ZM1034.44 172.371C1033.78 173.465 1033.79 178.786 1034.47 184.193C1038.54 216.952 1006.93 243.184 974.495 233.956C963.449 230.812 950.067 217.375 945.281 204.625C942.681 197.694 941.268 195.656 941.2 198.736C940.981 208.624 951.299 223.309 965.121 232.78C967.848 234.649 969.104 236.178 967.91 236.178C966.716 236.178 961.565 232.414 956.462 227.81C946.419 218.753 943.102 218.765 943.102 227.861C943.102 232.009 945.237 235.617 950.481 240.336C961.659 250.392 970.163 253.359 988.251 253.516C1002.02 253.635 1005.97 252.817 1016.01 247.765C1023.25 244.123 1029.18 239.413 1031.56 235.428C1036.26 227.516 1036.28 226.792 1031.89 222.314C1028.55 218.903 1028.6 218.288 1033 209.463C1036.82 201.812 1037.52 197.595 1037.02 185.291C1036.68 177.094 1036.24 170.385 1036.03 170.385C1035.82 170.382 1035.1 171.277 1034.44 172.371ZM208.301 184.816C209.483 201.572 205 213.162 193.23 223.78C178.429 237.128 161.076 239.752 143.39 231.312C137.827 228.657 130.989 223.7 128.192 220.297C123.593 214.694 121.831 211.098 117.34 198.14C116.499 195.714 115.544 195.042 115.01 196.501C114.513 197.861 115.853 203.023 117.988 207.971C121.441 215.969 121.558 217.583 119.04 222.507C113.459 233.421 124.594 245.466 146.217 251.908C165.51 257.655 187.208 253.02 201.589 240.083C206.584 235.588 208.686 231.968 208.686 227.861C208.686 218.971 205.309 218.662 196.565 226.757C192.19 230.808 187.998 234.122 187.25 234.122C186.503 234.122 189.698 230.785 194.347 226.706C206.166 216.339 211.321 205.18 211.528 189.504C211.62 182.493 210.735 175.772 209.559 174.567C208.048 173.018 207.679 176.018 208.301 184.816ZM169.74 176.249C169.158 177.213 169.979 179.756 171.564 181.903C173.798 184.923 174.468 185.108 174.542 182.719C174.624 179.978 174.871 179.978 176.763 182.719C178.656 185.46 178.802 185.46 178.072 182.719C177.62 181.023 175.971 179.594 174.408 179.543C172.845 179.491 171.789 178.334 172.066 176.972C172.646 174.108 171.287 173.685 169.74 176.249ZM999.789 177.433C1002.1 180.501 1001.57 183.139 998.976 181.496C997.529 180.579 997.206 180.932 998.113 182.435C998.912 183.76 1000.35 184.348 1001.3 183.741C1002.26 183.137 1003.41 185.666 1003.85 189.363L1004.66 196.084L1004.99 189.63C1005.17 185.933 1003.81 181.523 1001.8 179.306C999.865 177.178 998.96 176.335 999.789 177.433ZM197.927 179.635C197.293 181.331 197.648 182.719 198.716 182.719C199.785 182.719 200.66 181.331 200.66 179.635C200.66 177.939 200.305 176.551 199.871 176.551C199.438 176.551 198.563 177.939 197.927 179.635ZM156.515 181.983C156.515 183.64 157.841 184.159 160.026 183.355C161.959 182.645 162.944 182.744 162.218 183.575C161.491 184.405 159.234 185.335 157.201 185.639C155.168 185.945 153.73 186.801 154.007 187.541C154.283 188.281 154.508 189.868 154.508 191.065C154.508 192.262 155.433 192.656 156.565 191.941C157.695 191.223 158.373 191.863 158.07 193.362C157.701 195.181 159.681 196.078 164.04 196.063C167.625 196.053 170.561 196.666 170.561 197.425C170.561 200.059 177.371 197.766 178.13 194.877C178.726 192.605 178.429 192.644 176.763 195.056C175.2 197.322 174.628 197.427 174.604 195.449C174.588 193.921 173.559 193.399 172.227 194.244C170.629 195.255 170.306 194.591 171.215 192.161C171.952 190.197 171.679 186.916 170.609 184.868C168.268 180.383 156.515 177.978 156.515 181.983ZM978.553 179.978C977.816 180.731 977.215 182.304 977.215 183.474C977.215 184.761 978.15 184.64 979.588 183.165C980.895 181.827 981.497 180.254 980.927 179.67C980.357 179.086 979.287 179.224 978.553 179.978ZM186.112 183.525C184.18 185.028 182.601 187.44 182.601 188.888C182.601 191.935 188.462 196.952 192.132 197.046C193.731 197.087 194.64 194.131 194.64 188.888C194.64 180.145 192.327 178.691 186.112 183.525ZM981.354 184.535C979.813 187.483 979.837 190.078 981.434 193.672C983.26 197.78 984.605 198.436 988.815 197.283C995.707 195.395 998.956 190.021 996.065 185.289C992.808 179.96 983.979 179.506 981.354 184.535ZM1011.05 184.642C1006.62 188.359 1006.53 188.853 1009.65 192.103C1013.56 196.179 1023.45 197.918 1022.39 194.345C1022.01 193.041 1021.15 189.428 1020.48 186.317C1019.05 179.617 1017.38 179.32 1011.05 184.642ZM937.241 185.974C937.337 188.369 937.813 188.857 938.453 187.218C939.033 185.734 938.961 183.959 938.294 183.276C937.628 182.594 937.155 183.807 937.241 185.974ZM986.872 184.124C988.319 184.718 990.051 184.644 990.717 183.961C991.383 183.279 990.199 182.793 988.084 182.882C985.747 182.98 985.271 183.468 986.872 184.124ZM1025.84 190.944C1025.84 194.902 1026.25 196.522 1026.76 194.542C1027.26 192.562 1027.26 189.326 1026.76 187.346C1026.25 185.365 1025.84 186.986 1025.84 190.944ZM164.04 191.287C161.068 194.476 161.002 195.056 163.6 195.056C165.292 195.056 167.208 193.629 167.862 191.883C169.602 187.234 168.041 186.992 164.04 191.287ZM146.64 192.142C146.737 194.538 147.212 195.025 147.852 193.386C148.432 191.902 148.36 190.127 147.694 189.445C147.028 188.762 146.554 189.975 146.64 192.142ZM991.684 192.179C990.259 193.761 989.98 195.056 991.064 195.056C993.147 195.056 996.163 191.145 994.973 189.986C994.588 189.609 993.107 190.596 991.684 192.179ZM246.812 196.999C246.812 203.178 246.98 203.28 256.977 203.28C266.884 203.28 267.129 203.137 266.509 197.626C265.929 192.449 265.072 191.918 256.343 191.345C246.918 190.726 246.812 190.79 246.812 196.999ZM274.904 197.03V203.28H292.093H309.283L308.647 197.626C308.019 192.023 307.863 191.966 291.459 191.376L274.904 190.777V197.03ZM151.862 196.314C152.758 198.708 152.429 199.366 150.836 198.356C147.676 196.355 147.846 198.118 151.079 200.869C153.035 202.532 153.742 202.1 153.96 199.105C154.121 196.923 153.419 194.608 152.397 193.962C151.364 193.308 151.127 194.351 151.862 196.314ZM977.215 195.177C977.215 196.374 976.171 196.695 974.897 195.889C973.494 194.998 973.125 195.321 973.96 196.705C974.716 197.961 976.657 198.469 978.27 197.836C979.885 197.201 980.706 195.854 980.094 194.84C978.595 192.356 977.215 192.517 977.215 195.177ZM197.927 198.14C198.563 199.836 199.438 201.224 199.871 201.224C200.305 201.224 200.66 199.836 200.66 198.14C200.66 196.444 199.785 195.056 198.716 195.056C197.648 195.056 197.293 196.444 197.927 198.14ZM952.05 197.25C951.321 198.455 951.157 199.884 951.682 200.422C952.208 200.961 953.173 199.974 953.828 198.229C955.184 194.606 954.028 193.968 952.05 197.25ZM999.03 200.71C996.536 203.971 996.606 204.043 999.789 201.488C1003.13 198.8 1004.19 197.112 1002.54 197.112C1002.13 197.112 1000.55 198.73 999.03 200.71ZM817.69 204.516C806.902 210.154 788.594 221.749 788.594 222.943C788.594 223.344 796.291 219.546 805.698 214.505C815.107 209.463 824.243 205.337 825.999 205.337C827.757 205.337 838.175 214.819 849.149 226.412C865.965 244.173 868.766 248.053 866.958 251.085C865.776 253.065 865.505 254.684 866.352 254.684C867.199 254.684 868.952 252.944 870.249 250.816C872.319 247.421 871.025 245.519 859.638 235.21C852.504 228.752 842.905 218.002 838.306 211.318C833.706 204.635 829.442 199.193 828.832 199.222C828.222 199.25 823.208 201.634 817.69 204.516ZM136.764 207.845C138.901 210.921 141.526 213.991 142.595 214.669C143.665 215.346 144.012 216.777 143.366 217.848C142.719 218.919 141.21 219.176 140.013 218.418C138.682 217.575 138.415 218 139.328 219.512C140.446 221.366 141.505 221.401 143.562 219.651C145.071 218.368 147.056 217.795 147.973 218.374C148.89 218.956 149.608 215.566 149.566 210.841L149.492 202.252H141.186H132.879L136.764 207.845ZM167.551 203.28C164.28 204.722 164.164 205.073 166.931 205.193C168.797 205.271 170.882 204.411 171.564 203.28C172.991 200.916 172.921 200.916 167.551 203.28ZM175.634 203.186C173.936 206.001 176.487 215.033 179.765 217.821C181.3 219.127 181.975 221.158 181.264 222.337C180.484 223.634 180.955 223.856 182.466 222.9C184.25 221.769 184.342 220.692 182.789 219.1C179.617 215.85 188.315 206.63 191.779 209.574C193.543 211.075 194.727 210.917 195.786 209.036C196.613 207.565 196.573 207.029 195.696 207.839C194.821 208.651 191.845 207.493 189.084 205.269C183.712 200.941 177.564 199.987 175.634 203.186ZM337.811 213.88C331.356 220.568 322.461 228.55 318.046 231.618C313.632 234.686 309.494 237.924 308.854 238.816C308.212 239.709 298.731 238.101 287.785 235.243C264.657 229.206 260.997 228.951 255.723 233.006C252.196 235.718 252.489 235.8 258.851 233.871C264.871 232.048 271.531 233.234 305.491 242.186C342.637 251.976 357.725 255.249 340.675 249.815L333.202 247.436L345.954 226.899C352.967 215.605 358.375 205.783 357.972 205.071C357.568 204.36 355.507 203.313 353.394 202.748C350.637 202.008 346.231 205.156 337.811 213.88ZM961.188 205.337C962.075 207.033 965.117 210.641 967.948 213.355C973.173 218.364 974.461 217.684 975.35 209.449C976.123 202.285 975.124 201.323 967.392 201.786C961.138 202.16 959.898 202.869 961.188 205.337ZM980.692 203.535C982.054 204.942 983.674 205.573 984.29 204.94C984.908 204.306 983.794 203.157 981.816 202.384C978.956 201.27 978.725 201.504 980.692 203.535ZM1002.4 203.104C1001.78 204.138 1001.5 208.199 1001.78 212.128L1002.3 219.269L1007.97 215.132C1014.91 210.076 1016.86 205.528 1013.12 203.104C1009.46 200.729 1003.84 200.729 1002.4 203.104ZM633.835 204.309C633.697 204.874 633.458 206.032 633.303 206.879C633.149 207.726 632.226 209.809 631.253 211.505C629.82 214.005 629.992 214.106 632.165 212.04C634.7 209.63 636.69 203.28 634.912 203.28C634.457 203.28 633.973 203.743 633.835 204.309ZM250.36 206.827C253.965 207.284 259.383 207.276 262.399 206.807C265.415 206.336 262.463 205.962 255.842 205.974C249.22 205.984 246.754 206.369 250.36 206.827ZM283.493 206.85C288.768 207.276 296.895 207.269 301.552 206.84C306.209 206.408 301.893 206.06 291.96 206.067C282.028 206.073 278.217 206.426 283.493 206.85ZM1079.71 207.187C1074.83 207.866 1070.45 209.617 1069.98 211.081C1069.38 212.94 1070.54 213.401 1073.84 212.611C1101.79 205.908 1102.52 205.682 1095.6 205.818C1091.74 205.892 1084.59 206.509 1079.71 207.187ZM131.519 209.307C130.883 210.36 131.131 211.706 132.068 212.301C133.006 212.895 133.774 212.033 133.774 210.386C133.774 206.92 133.14 206.618 131.519 209.307ZM984.854 210.991C983.194 212.971 981.278 216.207 980.592 218.187C979.526 221.267 980.638 221.786 988.313 221.786C998.422 221.786 999.745 219.102 993.189 211.894C988.273 206.486 988.6 206.521 984.854 210.991ZM1017.87 208.452C1019.88 210.732 1011.32 219.97 1008.72 218.321C1007.57 217.591 1007.31 218.064 1008.13 219.411C1010.01 222.546 1009.76 222.659 1016.13 215.843C1020.38 211.295 1021.06 209.529 1019.02 208.316C1017.55 207.446 1017.03 207.508 1017.87 208.452ZM156.998 213.532C152.957 220.161 154.047 221.786 162.535 221.786C170.86 221.786 172.008 220.174 168.484 213.425C165.797 208.283 160.165 208.337 156.998 213.532ZM250.36 210.94C253.965 211.396 259.383 211.388 262.399 210.919C265.415 210.448 262.463 210.074 255.842 210.086C249.22 210.097 246.754 210.481 250.36 210.94ZM283.493 210.962C288.768 211.388 296.895 211.382 301.552 210.952C306.209 210.52 301.893 210.173 291.96 210.179C282.028 210.185 278.217 210.539 283.493 210.962ZM960.158 215.617C962.155 217.879 964.242 219.729 964.794 219.729C965.345 219.729 964.162 217.879 962.165 215.617C960.168 213.355 958.082 211.505 957.53 211.505C956.978 211.505 958.162 213.355 960.158 215.617ZM188.364 217.159C185.869 220.42 185.94 220.492 189.122 217.937C192.465 215.249 193.527 213.561 191.875 213.561C191.46 213.561 189.879 215.179 188.364 217.159ZM248.353 215.052C251.959 215.508 257.377 215.5 260.393 215.031C263.408 214.56 260.457 214.186 253.835 214.199C247.213 214.209 244.747 214.593 248.353 215.052ZM282.429 215.066C287.12 215.5 294.794 215.5 299.485 215.066C304.177 214.634 300.338 214.279 290.957 214.279C281.576 214.279 277.738 214.634 282.429 215.066ZM639.855 214.589C639.716 215.155 639.478 216.312 639.323 217.159C639.169 218.006 638.245 220.089 637.272 221.786C635.84 224.286 636.012 224.387 638.185 222.32C640.72 219.91 642.71 213.561 640.932 213.561C640.477 213.561 639.993 214.024 639.855 214.589ZM122.403 219.09C122.403 222.437 134.089 232.068 143.472 236.452C148.701 238.895 155.694 240.112 163.538 239.943L175.578 239.688L161.385 238.342C146.147 236.896 131.37 229.876 125.505 221.296C123.799 218.8 122.403 217.807 122.403 219.09ZM875.881 220.807C900.169 224.413 911.567 224.565 910.499 221.272C909.895 219.413 902.491 218.621 883.743 218.414L857.822 218.124L875.881 220.807ZM260.463 221.263C271.834 221.631 289.894 221.629 300.595 221.261C311.296 220.891 301.993 220.591 279.921 220.593C257.848 220.595 249.091 220.897 260.463 221.263ZM1024.38 223.817C1020.75 229.841 1003.85 237.067 990.404 238.342L976.211 239.688L988.359 239.988C997.732 240.223 1002.82 239.106 1010.66 235.105C1019.53 230.578 1030.18 221.786 1026.81 221.786C1026.15 221.786 1025.06 222.701 1024.38 223.817ZM155.979 226.153C157.342 227.559 158.961 228.19 159.577 227.557C160.195 226.924 159.081 225.774 157.103 225.001C154.243 223.887 154.013 224.121 155.979 226.153ZM167.551 225.898C166.869 227.029 167.772 227.954 169.558 227.954C171.344 227.954 172.247 227.029 171.564 225.898C170.882 224.767 169.979 223.842 169.558 223.842C169.136 223.842 168.233 224.767 167.551 225.898ZM980.224 225.898C979.542 227.029 980.445 227.954 982.231 227.954C984.017 227.954 984.92 227.029 984.238 225.898C983.555 224.767 982.652 223.842 982.231 223.842C981.81 223.842 980.907 224.767 980.224 225.898ZM991.261 225.898C986.545 227.446 986.641 227.557 992.884 227.748C996.841 227.872 999.022 227.123 998.284 225.898C997.602 224.767 996.871 223.934 996.66 224.047C996.45 224.16 994.02 224.993 991.261 225.898ZM1200.03 234.478C1196.21 235.601 1184.02 237.311 1172.94 238.28C1153.42 239.984 1153.63 240.009 1179.38 239.061C1203.92 238.159 1205.97 238.366 1206 241.757C1206.02 243.778 1206.9 246.819 1207.97 248.515C1209.38 250.746 1209.93 248.896 1209.95 241.833C1209.97 236.462 1209.3 232.151 1208.48 232.251C1207.65 232.354 1203.85 233.355 1200.03 234.478ZM120.504 245.682C130.563 256.516 140.952 260.803 156.515 260.546L169.558 260.33L157.237 258.685C143.996 256.914 127.774 249.582 121.59 242.569C119.487 240.186 116.826 238.235 115.679 238.235C114.529 238.235 116.7 241.586 120.504 245.682ZM943.335 242.501C945.093 245.244 950.332 250.249 954.975 253.623C962.392 259.01 965.303 259.807 978.846 260.173C993.073 260.558 993.476 260.461 984.041 258.927C968.313 256.372 959.831 252.915 949.56 244.882C941.71 238.742 940.672 238.346 943.335 242.501ZM314.033 242.347C316.24 243.319 319.401 244.113 321.056 244.113C322.952 244.113 322.583 243.461 320.053 242.347C317.846 241.374 314.685 240.581 313.03 240.581C311.133 240.581 311.503 241.232 314.033 242.347ZM536.623 244.249C502.71 249.819 518.877 259.606 561.848 259.52C588.261 259.466 603.987 256.518 603.987 251.616C603.987 250.018 600.602 247.705 596.462 246.48C586.497 243.527 549.431 242.145 536.623 244.249ZM326.701 245.807C328.147 246.402 329.879 246.327 330.545 245.645C331.212 244.962 330.028 244.477 327.913 244.565C325.575 244.664 325.099 245.151 326.701 245.807ZM350.78 254.032C352.227 254.626 353.958 254.552 354.625 253.869C355.291 253.187 354.107 252.701 351.992 252.79C349.654 252.889 349.179 253.376 350.78 254.032ZM358.806 256.088C360.253 256.682 361.985 256.608 362.651 255.925C363.317 255.243 362.133 254.758 360.018 254.846C357.681 254.945 357.205 255.432 358.806 256.088Z"/>
</mask>
<path fill-rule="evenodd" clip-rule="evenodd" d="M393.294 1.04426C390.535 1.46166 377.893 3.306 365.201 5.14623C336.445 9.31194 301.139 19.0888 265.331 32.8052C222.494 49.2131 206.816 57.0531 205.416 62.765C204.158 67.9094 205.113 76.4917 207.615 82.4832C208.941 85.6661 207.814 86.0814 197.865 86.0814H186.614L186.606 57.8097C186.6 33.3974 186.064 28.6395 182.681 22.9564C175.527 10.9322 169.299 9.09193 133.078 8.30443L100.609 7.59918L97.6392 13.4283C88.776 30.8231 59.897 44.6834 25.5159 48.0472C18.6554 48.7175 10.1093 49.7271 6.52145 50.2905L0 51.3144V96.4134C0 146.879 1.45478 154.429 12.77 162.699C18.5009 166.887 21.7997 167.36 49.7416 167.997L80.4225 168.699L79.1223 180.476C76.5498 203.768 85.9608 231.322 102.337 248.445C140.845 288.71 203.483 282.186 234.772 234.653C237.714 230.183 237.889 230.164 242.526 233.828L247.267 237.577L242.211 245.787C239.428 250.302 234.261 256.491 230.725 259.538L224.298 265.079L424.677 264.452L625.056 263.825L689.267 250.016C724.583 242.421 754.833 236.209 756.488 236.213C761.958 236.222 742.866 246.506 724.128 253.643C713.997 257.505 704.762 261.629 703.606 262.813C702.146 264.31 725.896 264.964 781.756 264.964H862.004L870.405 256.191L878.807 247.419L868.696 238.494C863.135 233.586 858.961 229.186 859.421 228.715C859.88 228.244 872.781 228.832 888.087 230.022C910.822 231.791 916.272 232.831 917.839 235.701C922.206 243.696 937.66 258.465 947.268 263.823C987.139 286.06 1034.43 274.258 1058.56 236.049C1063.77 227.812 1068.06 223.307 1071.45 222.522C1074.25 221.876 1083.31 219.641 1091.59 217.558C1136.71 206.204 1150.29 208.46 1146.94 226.751L1145.53 234.443L1137.12 233.057C1132.5 232.294 1122.15 229.447 1114.12 226.729C1091.93 219.211 1089.61 219.68 1080.02 233.608C1071.72 245.663 1062.41 255.49 1053.52 261.57C1048.87 264.754 1053.43 264.964 1127.12 264.964C1195.86 264.964 1206.08 264.561 1208.83 261.734C1211.14 259.367 1211.99 254.353 1211.99 243.005C1211.99 227.625 1211.95 227.518 1207.11 228.76C1202.31 229.998 1202.33 229.868 1209.12 218.311C1212.91 211.873 1216 205.729 1216 204.656C1216 201.88 1211.3 198.453 1191.92 187.111C1161.82 169.494 1120.68 152.624 1076.02 139.592C1057.5 134.187 1052.18 131.694 1045.21 125.168C1022.9 104.272 989.407 97.3346 960.441 107.611C951.418 110.812 949.026 110.831 928.336 107.854C869.46 99.3825 832.521 96.3888 760.502 94.2586C727.945 93.2943 698.373 91.8818 694.785 91.1169C691.198 90.352 688.264 90.5268 688.264 91.5034C688.264 93.8248 689.817 93.9337 754.863 96.1955C827.333 98.7142 897.143 104.823 938.86 112.297L947.661 113.872L942.34 116.792C937.65 119.364 933.858 119.183 910.463 115.278C858.835 106.663 805.995 101.733 731.831 98.6073L690.118 96.8493L677.91 89.1286C670.542 84.4694 662.218 81.0049 656.917 80.3921L648.132 79.3785L648.162 91.4685C648.18 98.118 648.856 102.518 649.667 101.247C651.206 98.8356 664.185 95.188 664.185 97.168C664.185 97.791 661.251 99.2447 657.663 100.398C651.435 102.401 651.411 102.444 657.162 101.36C660.473 100.735 665.459 99.7444 668.244 99.1563C671.712 98.4243 674.445 99.3784 676.925 102.187C680.46 106.192 680.346 106.404 671.836 111.516C659.887 118.692 641.468 122.744 613.327 124.393C588.032 125.876 583.929 124.593 588.145 116.52C589.66 113.621 589.337 112.811 586.668 112.811C584.788 112.811 583.756 112.293 584.374 111.662C584.99 111.028 590.506 111.851 596.629 113.49L607.761 116.469L609.888 110.22C612.575 102.323 612.613 94.9289 609.974 93.2573C608.853 92.5459 608.351 91.2752 608.859 90.4322C610.38 87.9114 603.73 67.087 598.936 59.3518C593.139 50.0006 588.458 45.8328 579.398 41.9529C561.036 34.0923 535.471 41.7596 527.648 57.4725C524.088 64.6237 523.448 68.8614 524.06 81.2639L524.804 96.3538L517.741 97.5649C513.858 98.2311 509.147 99.2057 507.273 99.73C500.882 101.519 493.861 80.8404 497.515 70.9915C498.646 67.9402 503.625 62.9541 508.637 59.8535C513.662 56.7426 519.051 51.3412 520.717 47.745C524.578 39.4054 524.59 22.4691 520.737 16.8332C513.758 6.62253 475.717 -0.382688 429.413 0.0162003C412.306 0.164241 396.053 0.626869 393.294 1.04426ZM375.234 6.9659C334.404 12.758 301.409 22.2799 248.899 43.423C217.632 56.0147 208.686 61.8233 208.686 69.5399C208.686 71.8531 209.154 73.7447 209.726 73.7447C210.298 73.7447 219.554 69.2418 230.294 63.7396C278.506 39.0373 327.943 23.3738 381.254 15.9059C401.972 13.0047 471.284 12.8012 489.611 15.5872L500.647 17.2671L500.316 32.6551L499.987 48.0431L502.031 32.9532C504.195 16.9977 503.801 17.3617 514.693 21.2518C518.181 22.4979 518.082 22.1216 513.953 18.3877C508.346 13.3173 494.063 8.81435 474.561 5.96868C455.127 3.13123 398.228 3.70283 375.234 6.9659ZM136.449 16.1999C174.508 18.3609 176.972 20.5096 178.222 52.6694C178.704 65.0432 179.886 73.7447 181.086 73.7447C182.406 73.7447 182.763 66.1226 182.097 52.1636C180.45 17.7009 175.822 13.9135 136.011 14.4481L111.366 14.7771L136.449 16.1999ZM561.848 42.066C582.099 50.5413 587.898 56.4218 589.435 70.0437C590.159 76.4834 589.692 77.8569 586.768 77.8569C583.688 77.8569 583.841 78.5334 587.934 82.9972C593.809 89.4062 590.169 89.6879 579.661 83.6367C569.8 77.9577 564.411 70.2102 567.976 66.8423C569.883 65.0411 570.095 65.1542 568.887 67.3296C567.87 69.1554 568.177 69.8689 569.746 69.3343C573.767 67.9608 573.173 64.5353 568.803 63.8938C556.713 62.1194 570.456 83.0569 584.894 88.4069C589.945 90.278 592.405 92.624 593.159 96.286C595.232 106.369 597.883 110.755 601.9 110.755C607.077 110.755 609.346 102.086 606.421 93.4814C603.549 85.0328 599.45 68.81 599.933 67.8066C600.144 67.3666 599.556 66.4413 598.629 65.7505C597.7 65.0576 594.514 61.153 591.548 57.0716C585.733 49.0712 576.179 43.4785 565.52 41.8357C561.844 41.2703 560.193 41.3731 561.848 42.066ZM448.873 72.5789C433.285 79.1482 417.18 89.328 405.723 99.8595L396.304 108.514L412.356 108.575C437.064 108.672 459.869 102.123 470.945 91.7502C477.22 85.8758 478.837 76.5307 474.439 71.5508C469.825 66.3282 463.065 66.5997 448.873 72.5789ZM526.434 80.499C527.128 93.3889 529.215 97.2297 534.41 95.1859C537.456 93.9893 537.414 93.4012 533.912 88.3617C531.803 85.3289 529.115 79.6416 527.937 75.7247C525.944 69.104 525.84 69.4392 526.434 80.499ZM650.139 86.3467C650.139 89.5707 651.698 90.1937 659.778 90.1937C669.3 90.1937 672.019 91.5158 692.277 106.001L697.294 109.587L693.543 105.113C686.536 96.7507 669.253 86.141 659.67 84.3152C651.064 82.6765 650.139 82.8739 650.139 86.3467ZM511.683 101.459C502.302 103.055 479.728 108.049 461.518 112.558C399.111 128.012 388.853 129.688 350.152 130.763C302.505 132.087 262.8 127.771 251.714 120.061C246.551 116.471 241.543 114.867 235.495 114.867C230.683 114.867 226.746 115.607 226.746 116.512C226.746 120.151 247.956 142.222 259.546 150.644C284.022 168.431 318.385 182.067 351.007 186.94C372.281 190.119 403.068 188.4 424.396 182.845C441.065 178.5 481.584 159.393 481.584 155.874C481.584 154.768 477.296 156.078 472.053 158.784C447.169 171.629 411.748 180.663 386.271 180.663C368.171 180.663 341.144 175.348 323.211 168.261C307.508 162.055 275.221 141.737 267.978 133.5L264.061 129.046L269.882 131.314C284.59 137.044 322.583 141.765 354.223 141.794C397.243 141.835 432.372 137.217 488.774 124.107C500.821 121.307 516.427 119.008 523.45 118.998C546.755 118.965 550.304 122.586 595.964 193C623.232 235.048 626.738 239.425 638.849 246.543C652.454 254.54 653.672 254.192 644.61 244.907C635.145 235.208 565.017 111.865 566.586 107.677C567.258 105.88 566.014 103.715 563.526 102.349C556.932 98.7328 530.381 98.2784 511.683 101.459ZM684.783 114.867C684.558 120.67 685.284 123.092 687.249 123.092C691.88 123.092 692.612 119.44 689.297 112.871C687.57 109.445 685.918 106.643 685.629 106.643C685.34 106.643 684.959 110.344 684.783 114.867ZM164.04 112.976C158.255 116.428 159.994 118.435 170.059 119.913C186.11 122.273 193.842 125.351 204.529 133.642C215.455 142.113 218.719 143.299 218.719 138.79C218.719 135.755 211.678 125.672 206.726 121.615C195.296 112.248 172.867 107.708 164.04 112.976ZM989.262 114.448L984.302 118.564L996.309 120.022C1010.87 121.792 1023.47 127.126 1032.68 135.412C1039.3 141.364 1045.44 143.499 1045.44 139.845C1045.44 135.293 1035.37 123.637 1026.69 118.134C1013.91 110.039 996.626 108.337 989.262 114.448ZM240.792 117.425C240.792 117.828 247.34 123.585 255.34 130.216C268.891 141.447 269.304 141.648 261.376 133.136C254.082 125.304 240.792 115.161 240.792 117.425ZM1057.75 138.811C1058.17 139.777 1060.89 145.195 1063.8 150.849C1069.05 161.021 1069.44 161.29 1100.84 176.222C1156.31 202.602 1192.54 212.017 1206.73 203.741C1209.04 202.39 1191.3 190.864 1169.39 179.481C1146 167.335 1116.58 155.467 1087.98 146.643C1075.07 142.656 1062.81 138.868 1060.75 138.225C1058.69 137.581 1057.34 137.844 1057.75 138.811ZM588.231 140.988C592.264 150.574 600.975 163.821 602.576 162.808C603.732 162.078 603.991 162.545 603.178 163.893C601.414 166.815 606.722 175.058 609.003 172.94C609.908 172.099 610.001 172.566 609.208 173.977C607.466 177.079 612.691 185.386 615.023 183.221C615.928 182.38 616.038 182.82 615.264 184.198C614.469 185.616 619.692 196.781 627.285 209.899C641.617 234.659 647.691 242.869 650.407 241.148C651.339 240.56 651.561 241.512 650.905 243.268C650.247 245.024 650.484 246.527 651.429 246.611C652.374 246.696 655.179 247.152 657.663 247.627C660.148 248.102 662.15 247.802 662.114 246.961C662.004 244.3 656.815 238.249 655.659 239.431C655.051 240.054 654.688 239.347 654.854 237.858C655.334 233.543 631.622 193.047 629.428 194.435C628.339 195.126 628.064 194.665 628.82 193.413C630.586 190.485 619.345 171.83 617.084 173.938C616.149 174.809 616.038 174.357 616.839 172.93C618.025 170.822 605.333 145.709 603.084 145.709C602.747 145.709 599.107 144.27 594.997 142.51C590.888 140.75 587.842 140.065 588.231 140.988ZM855.48 140.97C850.59 141.946 840.766 150.537 840.766 153.835C840.766 155.149 846.838 156.004 856.317 156.025C864.869 156.045 878.189 157.433 885.914 159.109C893.638 160.787 900.185 162.158 900.462 162.158C900.737 162.158 900.964 160.896 900.964 159.351C900.964 157.807 902.872 154.057 905.206 151.018C907.539 147.979 909.05 145.086 908.565 144.586C904.953 140.887 868.372 138.393 855.48 140.97ZM174.574 143.653C176.23 144.749 178.487 145.645 179.591 145.645C180.694 145.645 180.243 144.749 178.587 143.653C176.932 142.557 174.675 141.661 173.571 141.661C172.467 141.661 172.919 142.557 174.574 143.653ZM1003.47 144.403C1003.93 144.815 1006.56 146.254 1009.32 147.601C1014.05 149.908 1014.11 149.866 1010.44 146.85C1007.25 144.227 1000.71 141.934 1003.47 144.403ZM597.05 147.623C596.414 148.676 596.663 150.023 597.6 150.617C598.537 151.211 599.305 150.35 599.305 148.703C599.305 145.236 598.671 144.934 597.05 147.623ZM951.941 152.391L948.119 157.018L952.634 153.101C956.876 149.42 958.061 147.765 956.456 147.765C956.075 147.765 954.044 149.848 951.941 152.391ZM196.647 150.598C196.647 151.024 198.226 152.644 200.158 154.197C203.341 156.752 203.411 156.68 200.917 153.419C198.294 149.994 196.647 148.906 196.647 150.598ZM117.304 164.352C116.575 165.557 116.411 166.986 116.937 167.524C117.462 168.063 118.428 167.076 119.082 165.331C120.438 161.708 119.282 161.07 117.304 164.352ZM190.627 172.276C190.627 175.169 178.503 177.287 176.089 174.813C173.721 172.387 166.429 173.284 150.997 177.898C139.918 181.208 138.893 182.316 142.97 186.566C144.983 188.663 144.525 189.977 140.661 193.214C134.93 198.011 131.667 197.39 130.796 191.339C130.186 187.097 129.955 187.056 125.097 190.317C120.918 193.123 120.248 194.807 121.255 199.966C122.962 208.723 130.086 218.833 139.084 225.273C153.238 235.403 179.541 233.378 192.295 221.173C199.99 213.812 209.337 190.944 204.653 190.944C203.77 190.944 203.507 187.436 204.069 183.149C204.804 177.536 204.188 174.585 201.872 172.615C199.211 170.354 198.653 170.35 198.653 172.599C198.653 174.713 198.118 174.768 196.246 172.85C193.382 169.916 190.627 169.634 190.627 172.276ZM1012.86 174.199C1008.31 176.993 1006.67 177.125 1003.3 174.972C1001.07 173.543 996.767 172.893 993.745 173.528C980.742 176.263 965.175 181.449 965.175 183.044C965.175 183.996 966.078 184.775 967.182 184.775C970.488 184.775 969.449 191.316 965.677 194.25C960.253 198.469 957.148 197.62 957.148 191.918C957.148 186.85 957.008 186.801 951.329 189.809C945.783 192.749 945.602 193.271 947.501 200.932C950.049 211.219 959.402 222.838 969.3 228.014C981.105 234.184 1002.28 232.718 1013.19 224.975C1024.8 216.728 1031.52 201.835 1030.64 186.278C1030.28 179.752 1029.5 173.929 1028.92 173.337C1026.32 170.668 1017.87 171.121 1012.86 174.199ZM1034.44 172.371C1033.78 173.465 1033.79 178.786 1034.47 184.193C1038.54 216.952 1006.93 243.184 974.495 233.956C963.449 230.812 950.067 217.375 945.281 204.625C942.681 197.694 941.268 195.656 941.2 198.736C940.981 208.624 951.299 223.309 965.121 232.78C967.848 234.649 969.104 236.178 967.91 236.178C966.716 236.178 961.565 232.414 956.462 227.81C946.419 218.753 943.102 218.765 943.102 227.861C943.102 232.009 945.237 235.617 950.481 240.336C961.659 250.392 970.163 253.359 988.251 253.516C1002.02 253.635 1005.97 252.817 1016.01 247.765C1023.25 244.123 1029.18 239.413 1031.56 235.428C1036.26 227.516 1036.28 226.792 1031.89 222.314C1028.55 218.903 1028.6 218.288 1033 209.463C1036.82 201.812 1037.52 197.595 1037.02 185.291C1036.68 177.094 1036.24 170.385 1036.03 170.385C1035.82 170.382 1035.1 171.277 1034.44 172.371ZM208.301 184.816C209.483 201.572 205 213.162 193.23 223.78C178.429 237.128 161.076 239.752 143.39 231.312C137.827 228.657 130.989 223.7 128.192 220.297C123.593 214.694 121.831 211.098 117.34 198.14C116.499 195.714 115.544 195.042 115.01 196.501C114.513 197.861 115.853 203.023 117.988 207.971C121.441 215.969 121.558 217.583 119.04 222.507C113.459 233.421 124.594 245.466 146.217 251.908C165.51 257.655 187.208 253.02 201.589 240.083C206.584 235.588 208.686 231.968 208.686 227.861C208.686 218.971 205.309 218.662 196.565 226.757C192.19 230.808 187.998 234.122 187.25 234.122C186.503 234.122 189.698 230.785 194.347 226.706C206.166 216.339 211.321 205.18 211.528 189.504C211.62 182.493 210.735 175.772 209.559 174.567C208.048 173.018 207.679 176.018 208.301 184.816ZM169.74 176.249C169.158 177.213 169.979 179.756 171.564 181.903C173.798 184.923 174.468 185.108 174.542 182.719C174.624 179.978 174.871 179.978 176.763 182.719C178.656 185.46 178.802 185.46 178.072 182.719C177.62 181.023 175.971 179.594 174.408 179.543C172.845 179.491 171.789 178.334 172.066 176.972C172.646 174.108 171.287 173.685 169.74 176.249ZM999.789 177.433C1002.1 180.501 1001.57 183.139 998.976 181.496C997.529 180.579 997.206 180.932 998.113 182.435C998.912 183.76 1000.35 184.348 1001.3 183.741C1002.26 183.137 1003.41 185.666 1003.85 189.363L1004.66 196.084L1004.99 189.63C1005.17 185.933 1003.81 181.523 1001.8 179.306C999.865 177.178 998.96 176.335 999.789 177.433ZM197.927 179.635C197.293 181.331 197.648 182.719 198.716 182.719C199.785 182.719 200.66 181.331 200.66 179.635C200.66 177.939 200.305 176.551 199.871 176.551C199.438 176.551 198.563 177.939 197.927 179.635ZM156.515 181.983C156.515 183.64 157.841 184.159 160.026 183.355C161.959 182.645 162.944 182.744 162.218 183.575C161.491 184.405 159.234 185.335 157.201 185.639C155.168 185.945 153.73 186.801 154.007 187.541C154.283 188.281 154.508 189.868 154.508 191.065C154.508 192.262 155.433 192.656 156.565 191.941C157.695 191.223 158.373 191.863 158.07 193.362C157.701 195.181 159.681 196.078 164.04 196.063C167.625 196.053 170.561 196.666 170.561 197.425C170.561 200.059 177.371 197.766 178.13 194.877C178.726 192.605 178.429 192.644 176.763 195.056C175.2 197.322 174.628 197.427 174.604 195.449C174.588 193.921 173.559 193.399 172.227 194.244C170.629 195.255 170.306 194.591 171.215 192.161C171.952 190.197 171.679 186.916 170.609 184.868C168.268 180.383 156.515 177.978 156.515 181.983ZM978.553 179.978C977.816 180.731 977.215 182.304 977.215 183.474C977.215 184.761 978.15 184.64 979.588 183.165C980.895 181.827 981.497 180.254 980.927 179.67C980.357 179.086 979.287 179.224 978.553 179.978ZM186.112 183.525C184.18 185.028 182.601 187.44 182.601 188.888C182.601 191.935 188.462 196.952 192.132 197.046C193.731 197.087 194.64 194.131 194.64 188.888C194.64 180.145 192.327 178.691 186.112 183.525ZM981.354 184.535C979.813 187.483 979.837 190.078 981.434 193.672C983.26 197.78 984.605 198.436 988.815 197.283C995.707 195.395 998.956 190.021 996.065 185.289C992.808 179.96 983.979 179.506 981.354 184.535ZM1011.05 184.642C1006.62 188.359 1006.53 188.853 1009.65 192.103C1013.56 196.179 1023.45 197.918 1022.39 194.345C1022.01 193.041 1021.15 189.428 1020.48 186.317C1019.05 179.617 1017.38 179.32 1011.05 184.642ZM937.241 185.974C937.337 188.369 937.813 188.857 938.453 187.218C939.033 185.734 938.961 183.959 938.294 183.276C937.628 182.594 937.155 183.807 937.241 185.974ZM986.872 184.124C988.319 184.718 990.051 184.644 990.717 183.961C991.383 183.279 990.199 182.793 988.084 182.882C985.747 182.98 985.271 183.468 986.872 184.124ZM1025.84 190.944C1025.84 194.902 1026.25 196.522 1026.76 194.542C1027.26 192.562 1027.26 189.326 1026.76 187.346C1026.25 185.365 1025.84 186.986 1025.84 190.944ZM164.04 191.287C161.068 194.476 161.002 195.056 163.6 195.056C165.292 195.056 167.208 193.629 167.862 191.883C169.602 187.234 168.041 186.992 164.04 191.287ZM146.64 192.142C146.737 194.538 147.212 195.025 147.852 193.386C148.432 191.902 148.36 190.127 147.694 189.445C147.028 188.762 146.554 189.975 146.64 192.142ZM991.684 192.179C990.259 193.761 989.98 195.056 991.064 195.056C993.147 195.056 996.163 191.145 994.973 189.986C994.588 189.609 993.107 190.596 991.684 192.179ZM246.812 196.999C246.812 203.178 246.98 203.28 256.977 203.28C266.884 203.28 267.129 203.137 266.509 197.626C265.929 192.449 265.072 191.918 256.343 191.345C246.918 190.726 246.812 190.79 246.812 196.999ZM274.904 197.03V203.28H292.093H309.283L308.647 197.626C308.019 192.023 307.863 191.966 291.459 191.376L274.904 190.777V197.03ZM151.862 196.314C152.758 198.708 152.429 199.366 150.836 198.356C147.676 196.355 147.846 198.118 151.079 200.869C153.035 202.532 153.742 202.1 153.96 199.105C154.121 196.923 153.419 194.608 152.397 193.962C151.364 193.308 151.127 194.351 151.862 196.314ZM977.215 195.177C977.215 196.374 976.171 196.695 974.897 195.889C973.494 194.998 973.125 195.321 973.96 196.705C974.716 197.961 976.657 198.469 978.27 197.836C979.885 197.201 980.706 195.854 980.094 194.84C978.595 192.356 977.215 192.517 977.215 195.177ZM197.927 198.14C198.563 199.836 199.438 201.224 199.871 201.224C200.305 201.224 200.66 199.836 200.66 198.14C200.66 196.444 199.785 195.056 198.716 195.056C197.648 195.056 197.293 196.444 197.927 198.14ZM952.05 197.25C951.321 198.455 951.157 199.884 951.682 200.422C952.208 200.961 953.173 199.974 953.828 198.229C955.184 194.606 954.028 193.968 952.05 197.25ZM999.03 200.71C996.536 203.971 996.606 204.043 999.789 201.488C1003.13 198.8 1004.19 197.112 1002.54 197.112C1002.13 197.112 1000.55 198.73 999.03 200.71ZM817.69 204.516C806.902 210.154 788.594 221.749 788.594 222.943C788.594 223.344 796.291 219.546 805.698 214.505C815.107 209.463 824.243 205.337 825.999 205.337C827.757 205.337 838.175 214.819 849.149 226.412C865.965 244.173 868.766 248.053 866.958 251.085C865.776 253.065 865.505 254.684 866.352 254.684C867.199 254.684 868.952 252.944 870.249 250.816C872.319 247.421 871.025 245.519 859.638 235.21C852.504 228.752 842.905 218.002 838.306 211.318C833.706 204.635 829.442 199.193 828.832 199.222C828.222 199.25 823.208 201.634 817.69 204.516ZM136.764 207.845C138.901 210.921 141.526 213.991 142.595 214.669C143.665 215.346 144.012 216.777 143.366 217.848C142.719 218.919 141.21 219.176 140.013 218.418C138.682 217.575 138.415 218 139.328 219.512C140.446 221.366 141.505 221.401 143.562 219.651C145.071 218.368 147.056 217.795 147.973 218.374C148.89 218.956 149.608 215.566 149.566 210.841L149.492 202.252H141.186H132.879L136.764 207.845ZM167.551 203.28C164.28 204.722 164.164 205.073 166.931 205.193C168.797 205.271 170.882 204.411 171.564 203.28C172.991 200.916 172.921 200.916 167.551 203.28ZM175.634 203.186C173.936 206.001 176.487 215.033 179.765 217.821C181.3 219.127 181.975 221.158 181.264 222.337C180.484 223.634 180.955 223.856 182.466 222.9C184.25 221.769 184.342 220.692 182.789 219.1C179.617 215.85 188.315 206.63 191.779 209.574C193.543 211.075 194.727 210.917 195.786 209.036C196.613 207.565 196.573 207.029 195.696 207.839C194.821 208.651 191.845 207.493 189.084 205.269C183.712 200.941 177.564 199.987 175.634 203.186ZM337.811 213.88C331.356 220.568 322.461 228.55 318.046 231.618C313.632 234.686 309.494 237.924 308.854 238.816C308.212 239.709 298.731 238.101 287.785 235.243C264.657 229.206 260.997 228.951 255.723 233.006C252.196 235.718 252.489 235.8 258.851 233.871C264.871 232.048 271.531 233.234 305.491 242.186C342.637 251.976 357.725 255.249 340.675 249.815L333.202 247.436L345.954 226.899C352.967 215.605 358.375 205.783 357.972 205.071C357.568 204.36 355.507 203.313 353.394 202.748C350.637 202.008 346.231 205.156 337.811 213.88ZM961.188 205.337C962.075 207.033 965.117 210.641 967.948 213.355C973.173 218.364 974.461 217.684 975.35 209.449C976.123 202.285 975.124 201.323 967.392 201.786C961.138 202.16 959.898 202.869 961.188 205.337ZM980.692 203.535C982.054 204.942 983.674 205.573 984.29 204.94C984.908 204.306 983.794 203.157 981.816 202.384C978.956 201.27 978.725 201.504 980.692 203.535ZM1002.4 203.104C1001.78 204.138 1001.5 208.199 1001.78 212.128L1002.3 219.269L1007.97 215.132C1014.91 210.076 1016.86 205.528 1013.12 203.104C1009.46 200.729 1003.84 200.729 1002.4 203.104ZM633.835 204.309C633.697 204.874 633.458 206.032 633.303 206.879C633.149 207.726 632.226 209.809 631.253 211.505C629.82 214.005 629.992 214.106 632.165 212.04C634.7 209.63 636.69 203.28 634.912 203.28C634.457 203.28 633.973 203.743 633.835 204.309ZM250.36 206.827C253.965 207.284 259.383 207.276 262.399 206.807C265.415 206.336 262.463 205.962 255.842 205.974C249.22 205.984 246.754 206.369 250.36 206.827ZM283.493 206.85C288.768 207.276 296.895 207.269 301.552 206.84C306.209 206.408 301.893 206.06 291.96 206.067C282.028 206.073 278.217 206.426 283.493 206.85ZM1079.71 207.187C1074.83 207.866 1070.45 209.617 1069.98 211.081C1069.38 212.94 1070.54 213.401 1073.84 212.611C1101.79 205.908 1102.52 205.682 1095.6 205.818C1091.74 205.892 1084.59 206.509 1079.71 207.187ZM131.519 209.307C130.883 210.36 131.131 211.706 132.068 212.301C133.006 212.895 133.774 212.033 133.774 210.386C133.774 206.92 133.14 206.618 131.519 209.307ZM984.854 210.991C983.194 212.971 981.278 216.207 980.592 218.187C979.526 221.267 980.638 221.786 988.313 221.786C998.422 221.786 999.745 219.102 993.189 211.894C988.273 206.486 988.6 206.521 984.854 210.991ZM1017.87 208.452C1019.88 210.732 1011.32 219.97 1008.72 218.321C1007.57 217.591 1007.31 218.064 1008.13 219.411C1010.01 222.546 1009.76 222.659 1016.13 215.843C1020.38 211.295 1021.06 209.529 1019.02 208.316C1017.55 207.446 1017.03 207.508 1017.87 208.452ZM156.998 213.532C152.957 220.161 154.047 221.786 162.535 221.786C170.86 221.786 172.008 220.174 168.484 213.425C165.797 208.283 160.165 208.337 156.998 213.532ZM250.36 210.94C253.965 211.396 259.383 211.388 262.399 210.919C265.415 210.448 262.463 210.074 255.842 210.086C249.22 210.097 246.754 210.481 250.36 210.94ZM283.493 210.962C288.768 211.388 296.895 211.382 301.552 210.952C306.209 210.52 301.893 210.173 291.96 210.179C282.028 210.185 278.217 210.539 283.493 210.962ZM960.158 215.617C962.155 217.879 964.242 219.729 964.794 219.729C965.345 219.729 964.162 217.879 962.165 215.617C960.168 213.355 958.082 211.505 957.53 211.505C956.978 211.505 958.162 213.355 960.158 215.617ZM188.364 217.159C185.869 220.42 185.94 220.492 189.122 217.937C192.465 215.249 193.527 213.561 191.875 213.561C191.46 213.561 189.879 215.179 188.364 217.159ZM248.353 215.052C251.959 215.508 257.377 215.5 260.393 215.031C263.408 214.56 260.457 214.186 253.835 214.199C247.213 214.209 244.747 214.593 248.353 215.052ZM282.429 215.066C287.12 215.5 294.794 215.5 299.485 215.066C304.177 214.634 300.338 214.279 290.957 214.279C281.576 214.279 277.738 214.634 282.429 215.066ZM639.855 214.589C639.716 215.155 639.478 216.312 639.323 217.159C639.169 218.006 638.245 220.089 637.272 221.786C635.84 224.286 636.012 224.387 638.185 222.32C640.72 219.91 642.71 213.561 640.932 213.561C640.477 213.561 639.993 214.024 639.855 214.589ZM122.403 219.09C122.403 222.437 134.089 232.068 143.472 236.452C148.701 238.895 155.694 240.112 163.538 239.943L175.578 239.688L161.385 238.342C146.147 236.896 131.37 229.876 125.505 221.296C123.799 218.8 122.403 217.807 122.403 219.09ZM875.881 220.807C900.169 224.413 911.567 224.565 910.499 221.272C909.895 219.413 902.491 218.621 883.743 218.414L857.822 218.124L875.881 220.807ZM260.463 221.263C271.834 221.631 289.894 221.629 300.595 221.261C311.296 220.891 301.993 220.591 279.921 220.593C257.848 220.595 249.091 220.897 260.463 221.263ZM1024.38 223.817C1020.75 229.841 1003.85 237.067 990.404 238.342L976.211 239.688L988.359 239.988C997.732 240.223 1002.82 239.106 1010.66 235.105C1019.53 230.578 1030.18 221.786 1026.81 221.786C1026.15 221.786 1025.06 222.701 1024.38 223.817ZM155.979 226.153C157.342 227.559 158.961 228.19 159.577 227.557C160.195 226.924 159.081 225.774 157.103 225.001C154.243 223.887 154.013 224.121 155.979 226.153ZM167.551 225.898C166.869 227.029 167.772 227.954 169.558 227.954C171.344 227.954 172.247 227.029 171.564 225.898C170.882 224.767 169.979 223.842 169.558 223.842C169.136 223.842 168.233 224.767 167.551 225.898ZM980.224 225.898C979.542 227.029 980.445 227.954 982.231 227.954C984.017 227.954 984.92 227.029 984.238 225.898C983.555 224.767 982.652 223.842 982.231 223.842C981.81 223.842 980.907 224.767 980.224 225.898ZM991.261 225.898C986.545 227.446 986.641 227.557 992.884 227.748C996.841 227.872 999.022 227.123 998.284 225.898C997.602 224.767 996.871 223.934 996.66 224.047C996.45 224.16 994.02 224.993 991.261 225.898ZM1200.03 234.478C1196.21 235.601 1184.02 237.311 1172.94 238.28C1153.42 239.984 1153.63 240.009 1179.38 239.061C1203.92 238.159 1205.97 238.366 1206 241.757C1206.02 243.778 1206.9 246.819 1207.97 248.515C1209.38 250.746 1209.93 248.896 1209.95 241.833C1209.97 236.462 1209.3 232.151 1208.48 232.251C1207.65 232.354 1203.85 233.355 1200.03 234.478ZM120.504 245.682C130.563 256.516 140.952 260.803 156.515 260.546L169.558 260.33L157.237 258.685C143.996 256.914 127.774 249.582 121.59 242.569C119.487 240.186 116.826 238.235 115.679 238.235C114.529 238.235 116.7 241.586 120.504 245.682ZM943.335 242.501C945.093 245.244 950.332 250.249 954.975 253.623C962.392 259.01 965.303 259.807 978.846 260.173C993.073 260.558 993.476 260.461 984.041 258.927C968.313 256.372 959.831 252.915 949.56 244.882C941.71 238.742 940.672 238.346 943.335 242.501ZM314.033 242.347C316.24 243.319 319.401 244.113 321.056 244.113C322.952 244.113 322.583 243.461 320.053 242.347C317.846 241.374 314.685 240.581 313.03 240.581C311.133 240.581 311.503 241.232 314.033 242.347ZM536.623 244.249C502.71 249.819 518.877 259.606 561.848 259.52C588.261 259.466 603.987 256.518 603.987 251.616C603.987 250.018 600.602 247.705 596.462 246.48C586.497 243.527 549.431 242.145 536.623 244.249ZM326.701 245.807C328.147 246.402 329.879 246.327 330.545 245.645C331.212 244.962 330.028 244.477 327.913 244.565C325.575 244.664 325.099 245.151 326.701 245.807ZM350.78 254.032C352.227 254.626 353.958 254.552 354.625 253.869C355.291 253.187 354.107 252.701 351.992 252.79C349.654 252.889 349.179 253.376 350.78 254.032ZM358.806 256.088C360.253 256.682 361.985 256.608 362.651 255.925C363.317 255.243 362.133 254.758 360.018 254.846C357.681 254.945 357.205 255.432 358.806 256.088Z" fill="black" stroke="black" stroke-width="2" mask="url(#path-6-inside-1_4002_4)"/>
</svg>
