<svg width="100" height="100" viewBox="0 0 100 100" fill="none" xmlns="http://www.w3.org/2000/svg">
<g clip-path="url(#clip0_3775_166)">
<path d="M100 50C100 22.386 77.614 0 50 0C22.386 0 0 22.386 0 50C0 73.448 16.144 93.124 37.922 98.528V65.28H27.612V50H37.922V43.416C37.922 26.398 45.624 18.51 62.332 18.51C65.5 18.51 70.966 19.132 73.202 19.752V33.602C72.022 33.478 69.972 33.416 67.426 33.416C59.228 33.416 56.06 36.522 56.06 44.596V50H72.392L69.586 65.28H56.06V99.634C80.818 96.644 100.002 75.564 100.002 50H100Z" fill="#E22626"/>
</g>
<defs>
<clipPath id="clip0_3775_166">
<rect width="100" height="100" fill="white"/>
</clipPath>
</defs>
</svg>
