<svg width="100" height="100" viewBox="0 0 100 100" fill="none" xmlns="http://www.w3.org/2000/svg">
<path d="M66.29 0C78.2416 0.020771 78.7073 0.121263 81.043 0.458984C85.8643 1.15446 89.9098 3.07709 93.2168 6.2373C95.0703 8.0213 96.3473 9.76619 97.4971 12.1025C98.8983 14.9566 99.586 17.6572 99.9014 21.6729C99.969 22.5367 100 36.2478 100 49.9678C100 63.6865 99.972 77.4236 99.9043 78.2852C99.5928 82.237 98.9043 84.9605 97.5469 87.7607C96.2218 90.5053 94.3138 92.9278 91.9561 94.8584C89.5982 96.789 86.8471 98.1813 83.8955 98.9385C81.7229 99.5 79.7578 99.7636 76.374 99.9229C75.1666 99.9844 62.5376 100 49.9092 100C37.2809 100 24.6601 99.9611 23.4219 99.9072C20.4996 99.7688 18.2231 99.4771 16.1621 98.9463C10.2094 97.4077 5.1564 93.2838 2.51074 87.791C1.12645 84.9216 0.473036 82.2984 0.126953 78.1289C0.026972 76.9442 0.00292975 70.8437 0.00292969 49.9805C0.00292969 42.9517 -0.00475961 37.7113 0.00292969 33.7295C0.0229258 21.784 0.12157 21.3064 0.459961 18.9678C1.15598 14.1504 3.07947 10.0978 6.25195 6.80371C7.99382 4.99756 9.75822 3.70825 11.9961 2.59668C14.9001 1.15046 17.5661 0.476312 21.8496 0.120117C23.0363 0.0216473 29.1421 0 50.0166 0H66.29ZM49.9883 13.0781C39.9683 13.0781 38.7094 13.1216 34.7725 13.3008C30.8429 13.4808 28.1605 14.1036 25.8135 15.0166C23.3855 15.9597 21.3253 17.2213 19.2734 19.2744C17.22 21.3269 15.9587 23.3875 15.0127 25.8154C14.0975 28.164 13.4748 30.848 13.2979 34.7773C13.1225 38.7161 13.0762 39.9758 13.0762 50.0039C13.0762 60.0324 13.1204 61.2878 13.2988 65.2266C13.4796 69.1576 14.1025 71.8406 15.0146 74.1885C15.9583 76.6171 17.2188 78.678 19.2715 80.7305C21.3226 82.7845 23.3831 84.049 25.8096 84.9922C28.1582 85.9052 30.8415 86.527 34.7705 86.707C38.7082 86.8863 39.9662 86.9307 49.9912 86.9307C60.017 86.9307 61.2717 86.8863 65.209 86.707C69.1389 86.527 71.8251 85.9053 74.1738 84.9922C76.601 84.0491 78.6579 82.7844 80.709 80.7305C82.7624 78.678 84.0238 76.6174 84.9697 74.1895C85.8772 71.8409 86.5 69.1569 86.6846 65.2275C86.8615 61.2887 86.9072 60.0324 86.9072 50.0039C86.9072 39.9758 86.8615 38.7171 86.6846 34.7783C86.5 30.8474 85.8772 28.1642 84.9697 25.8164C84.0238 23.3877 82.7624 21.3269 80.709 19.2744C78.6556 17.2205 76.6021 15.959 74.1719 15.0166C71.8185 14.1034 69.1341 13.4808 65.2041 13.3008C61.267 13.1216 60.0131 13.0781 49.9883 13.0781ZM46.6826 19.7324C47.6654 19.7309 48.7623 19.7324 49.9941 19.7324C59.8507 19.7324 61.0198 19.7684 64.9121 19.9453C68.5111 20.11 70.4644 20.7114 71.7656 21.2168C73.4883 21.8861 74.7165 22.6861 76.0078 23.9785C77.2998 25.2709 78.0999 26.5015 78.7705 28.2246C79.2758 29.5247 79.8782 31.4789 80.042 35.0791C80.2189 38.9717 80.2578 40.1414 80.2578 49.9961C80.2578 59.8502 80.2189 61.0198 80.042 64.9121C79.8774 68.5122 79.2758 70.4665 78.7705 71.7666C78.1014 73.4898 77.2999 74.7171 76.0078 76.0088C74.7158 77.3011 73.4891 78.1012 71.7656 78.7705C70.4659 79.2782 68.5111 79.8783 64.9121 80.043C61.0205 80.2199 59.8507 80.2588 49.9941 80.2588C40.1372 80.2588 38.9687 80.2199 35.0771 80.043C31.478 79.8768 29.5247 79.2749 28.2227 78.7695C26.4999 78.1003 25.2696 77.3002 23.9775 76.0078C22.6855 74.7154 21.8855 73.4877 21.2148 71.7637C20.7096 70.4636 20.1072 68.5094 19.9434 64.9092C19.7665 61.0167 19.7314 59.847 19.7314 49.9863C19.7314 40.126 19.7665 38.9626 19.9434 35.0703C20.1079 31.47 20.7096 29.5155 21.2148 28.2139C21.8839 26.4907 22.6855 25.2601 23.9775 23.9678C25.2696 22.6754 26.4999 21.8749 28.2227 21.2041C29.5239 20.6964 31.4781 20.0961 35.0771 19.9307C38.4826 19.7768 39.8026 19.7313 46.6826 19.7236V19.7324ZM49.9941 31.041C39.5249 31.0413 31.0373 39.5318 31.0371 50.0039C31.0371 60.4762 39.5248 68.9636 49.9941 68.9639C60.4637 68.9639 68.9502 60.4763 68.9502 50.0039C68.95 39.5317 60.4636 31.041 49.9941 31.041ZM49.9941 37.6953C56.7896 37.6953 62.2996 43.2058 62.2998 50.0039C62.2998 56.8014 56.7898 62.3135 49.9941 62.3135C43.1979 62.3132 37.6895 56.8012 37.6895 50.0039C37.6897 43.206 43.1981 37.6956 49.9941 37.6953ZM69.7002 25.8643C68.8242 25.8643 67.9677 26.1236 67.2393 26.6104C66.5107 27.0973 65.9427 27.7899 65.6074 28.5996C65.2722 29.4094 65.1844 30.3006 65.3555 31.1602C65.5265 32.0197 65.9487 32.8091 66.5684 33.4287C67.188 34.0483 67.9775 34.4708 68.8369 34.6416C69.6963 34.8124 70.5871 34.7242 71.3965 34.3887C72.2058 34.0531 72.8972 33.4846 73.3838 32.7559C73.8704 32.027 74.1302 31.1694 74.1299 30.293C74.1296 27.8468 72.1457 25.8623 69.7002 25.8623V25.8643Z" fill="#E22626"/>
</svg>
