<svg width="100" height="100" viewBox="0 0 100 100" fill="none" xmlns="http://www.w3.org/2000/svg">
<path d="M71.569 36.0979C77.9997 40.7112 85.8775 43.4255 94.3859 43.4255V26.9944C92.7757 26.9947 91.1696 26.8262 89.5942 26.4912V39.4249C81.0865 39.4249 73.2097 36.7106 66.7773 32.0977V65.6288C66.7773 82.4028 53.2277 95.9998 36.5143 95.9998C30.2782 95.9998 24.4819 94.1078 19.667 90.8629C25.1625 96.5019 32.8263 100 41.305 100C58.0194 100 71.5697 86.403 71.5697 69.6284V36.0979H71.569ZM77.4801 19.521C74.1937 15.9178 72.0359 11.2613 71.569 6.11339V4H67.0282C68.1712 10.543 72.0698 16.133 77.4801 19.521ZM30.2382 77.991C28.402 75.5749 27.4098 72.6193 27.4142 69.5803C27.4142 61.9086 33.6118 55.6882 41.2578 55.6882C42.6828 55.6878 44.0992 55.9068 45.4572 56.3392V39.5409C43.8702 39.3226 42.2685 39.2299 40.6675 39.2639V52.3389C39.3085 51.9065 37.8914 51.6869 36.4661 51.6882C28.8201 51.6882 22.6229 57.908 22.6229 65.5808C22.6229 71.006 25.7206 75.7029 30.2382 77.991Z" fill="#E77C7C"/>
<path d="M66.7767 32.0973C73.209 36.7102 81.0858 39.4245 89.5936 39.4245V26.4909C84.8446 25.4757 80.6404 22.9852 77.4795 19.521C72.0688 16.1326 68.1705 10.5427 67.0276 4H55.1001V69.6277C55.0731 77.2785 48.8862 83.4735 41.2565 83.4735C36.7605 83.4735 32.7662 81.3227 30.2365 77.991C25.7193 75.7029 22.6216 71.0056 22.6216 65.5811C22.6216 57.909 28.8187 51.6886 36.4648 51.6886C37.9298 51.6886 39.3417 51.9175 40.6662 52.3393V39.2643C24.2465 39.6047 11.041 53.0689 11.041 69.6281C11.041 77.8942 14.3295 85.3879 19.6667 90.8632C24.4816 94.1078 30.2779 96.0001 36.514 96.0001C53.2277 96.0001 66.777 82.4024 66.777 65.6288V32.0973H66.7767Z" fill="#E22626"/>
<path d="M89.5939 26.4908V22.9937C85.3115 23.0002 81.1132 21.7966 77.4798 19.5206C80.6962 23.0544 84.9314 25.4911 89.5939 26.4908ZM67.0279 3.99993C66.9189 3.37463 66.8351 2.74521 66.777 2.11339V0H50.3084V65.6284C50.2821 73.2782 44.0955 79.4732 36.4652 79.4732C34.225 79.4732 32.1099 78.9395 30.2369 77.9913C32.7665 81.3227 36.7608 83.4731 41.2568 83.4731C48.8858 83.4731 55.0738 77.2788 55.1004 69.628V3.99993H67.0279ZM40.6672 39.2642V35.5412C39.2912 35.3525 37.9038 35.2577 36.5147 35.2584C19.7996 35.2581 6.25 48.8558 6.25 65.6284C6.25 76.1439 11.5752 85.4111 19.6674 90.8624C14.3302 85.3875 11.0417 77.8935 11.0417 69.6276C11.0417 53.0688 24.2468 39.6046 40.6672 39.2642Z" fill="#E22626"/>
</svg>
