<svg xmlns="http://www.w3.org/2000/svg" xmlns:xlink="http://www.w3.org/1999/xlink" width="600" zoomAndPan="magnify" viewBox="0 0 450 37.5" height="50" preserveAspectRatio="xMidYMid meet" version="1.0"><defs><g/><clipPath id="1c82ded730"><path d="M 2.960938 0 L 447.039062 0 L 447.039062 37.007812 L 2.960938 37.007812 Z M 2.960938 0 " clip-rule="nonzero"/></clipPath><clipPath id="22be8d3bb0"><path d="M 0.566406 10 L 13 10 L 13 22 L 0.566406 22 Z M 0.566406 10 " clip-rule="nonzero"/></clipPath><clipPath id="7927ba955f"><rect x="0" width="440" y="0" height="28"/></clipPath></defs><g clip-path="url(#1c82ded730)"><path fill="#ffffff" d="M 2.960938 0 L 447.039062 0 L 447.039062 37.007812 L 2.960938 37.007812 Z M 2.960938 0 " fill-opacity="1" fill-rule="nonzero"/><path fill="#ffffff" d="M 2.960938 0 L 447.039062 0 L 447.039062 37.007812 L 2.960938 37.007812 Z M 2.960938 0 " fill-opacity="1" fill-rule="nonzero"/></g><g transform="matrix(1, 0, 0, 1, 5, 5)"><g clip-path="url(#7927ba955f)"><g clip-path="url(#22be8d3bb0)"><g fill="#000000" fill-opacity="1"><g transform="translate(0.746505, 21.695559)"><g><path d="M 11.390625 -11.390625 L 7.1875 0 L 4.203125 0 L 0 -11.390625 L 2.703125 -11.390625 L 5.71875 -2.78125 L 8.703125 -11.390625 Z M 11.390625 -11.390625 "/></g></g></g></g><g fill="#000000" fill-opacity="1"><g transform="translate(14.420885, 21.695559)"><g><path d="M 7.234375 -12.875 L 4.15625 -12.875 L 4.15625 -15.953125 L 7.234375 -15.953125 Z M 9.5625 0 L 1.90625 0 L 1.90625 -2.28125 L 4.421875 -2.28125 L 4.421875 -9.109375 L 1.90625 -9.109375 L 1.90625 -11.390625 L 6.953125 -11.390625 L 6.953125 -2.28125 L 9.5625 -2.28125 Z M 9.5625 0 "/></g></g></g><g fill="#000000" fill-opacity="1"><g transform="translate(28.095265, 21.695559)"><g><path d="M 11.09375 -3.40625 C 11.09375 -2.664062 10.925781 -2.0625 10.59375 -1.59375 C 10.257812 -1.132812 9.828125 -0.757812 9.296875 -0.46875 C 8.773438 -0.1875 8.1875 0.00390625 7.53125 0.109375 C 6.882812 0.222656 6.253906 0.28125 5.640625 0.28125 C 4.597656 0.28125 3.5625 0.128906 2.53125 -0.171875 C 1.507812 -0.472656 0.625 -0.867188 -0.125 -1.359375 L 0.921875 -3.4375 C 1.828125 -2.914062 2.648438 -2.546875 3.390625 -2.328125 C 4.140625 -2.109375 4.890625 -2 5.640625 -2 C 6.660156 -2 7.398438 -2.109375 7.859375 -2.328125 C 8.328125 -2.546875 8.5625 -2.847656 8.5625 -3.234375 C 8.5625 -3.421875 8.492188 -3.570312 8.359375 -3.6875 C 8.234375 -3.8125 8.019531 -3.925781 7.71875 -4.03125 C 7.414062 -4.132812 7.015625 -4.234375 6.515625 -4.328125 C 6.023438 -4.429688 5.414062 -4.539062 4.6875 -4.65625 C 4.09375 -4.757812 3.53125 -4.878906 3 -5.015625 C 2.476562 -5.160156 2.019531 -5.363281 1.625 -5.625 C 1.226562 -5.882812 0.910156 -6.210938 0.671875 -6.609375 C 0.429688 -7.015625 0.3125 -7.519531 0.3125 -8.125 C 0.3125 -8.726562 0.46875 -9.253906 0.78125 -9.703125 C 1.09375 -10.160156 1.503906 -10.535156 2.015625 -10.828125 C 2.523438 -11.128906 3.097656 -11.34375 3.734375 -11.46875 C 4.367188 -11.601562 5.003906 -11.671875 5.640625 -11.671875 C 6.535156 -11.671875 7.40625 -11.550781 8.25 -11.3125 C 9.09375 -11.082031 9.832031 -10.753906 10.46875 -10.328125 L 9.46875 -8.359375 C 8.832031 -8.765625 8.210938 -9.035156 7.609375 -9.171875 C 7.015625 -9.316406 6.359375 -9.390625 5.640625 -9.390625 C 5.335938 -9.390625 5.019531 -9.375 4.6875 -9.34375 C 4.363281 -9.3125 4.0625 -9.25 3.78125 -9.15625 C 3.507812 -9.0625 3.28125 -8.929688 3.09375 -8.765625 C 2.914062 -8.609375 2.828125 -8.414062 2.828125 -8.1875 C 2.828125 -7.882812 3.09375 -7.640625 3.625 -7.453125 C 4.15625 -7.265625 5.066406 -7.078125 6.359375 -6.890625 C 7.054688 -6.785156 7.691406 -6.65625 8.265625 -6.5 C 8.847656 -6.351562 9.347656 -6.148438 9.765625 -5.890625 C 10.179688 -5.640625 10.503906 -5.3125 10.734375 -4.90625 C 10.972656 -4.507812 11.09375 -4.007812 11.09375 -3.40625 Z M 11.09375 -3.40625 "/></g></g></g><g fill="#000000" fill-opacity="1"><g transform="translate(41.769645, 21.695559)"><g><path d="M 7.234375 -12.875 L 4.15625 -12.875 L 4.15625 -15.953125 L 7.234375 -15.953125 Z M 9.5625 0 L 1.90625 0 L 1.90625 -2.28125 L 4.421875 -2.28125 L 4.421875 -9.109375 L 1.90625 -9.109375 L 1.90625 -11.390625 L 6.953125 -11.390625 L 6.953125 -2.28125 L 9.5625 -2.28125 Z M 9.5625 0 "/></g></g></g><g fill="#000000" fill-opacity="1"><g transform="translate(55.444026, 21.695559)"><g><path d="M 11.515625 -3.625 C 11.390625 -2.425781 10.921875 -1.472656 10.109375 -0.765625 C 9.296875 -0.0664062 8.28125 0.28125 7.0625 0.28125 C 6.394531 0.28125 5.785156 0.171875 5.234375 -0.046875 C 4.679688 -0.265625 4.207031 -0.566406 3.8125 -0.953125 C 3.425781 -1.347656 3.125 -1.820312 2.90625 -2.375 C 2.6875 -2.925781 2.578125 -3.53125 2.578125 -4.1875 L 2.578125 -9.109375 L 0 -9.109375 L 0 -11.390625 L 2.578125 -11.390625 L 2.578125 -15.953125 L 5.109375 -15.953125 L 5.109375 -11.390625 L 9.890625 -11.390625 L 9.890625 -9.109375 L 5.109375 -9.109375 L 5.109375 -4.1875 C 5.109375 -3.445312 5.285156 -2.894531 5.640625 -2.53125 C 6.003906 -2.175781 6.476562 -2 7.0625 -2 C 7.78125 -2 8.316406 -2.207031 8.671875 -2.625 C 9.023438 -3.039062 9.234375 -3.546875 9.296875 -4.140625 Z M 11.515625 -3.625 "/></g></g></g><g fill="#000000" fill-opacity="1"><g transform="translate(69.118406, 21.695559)"><g/></g></g><g fill="#000000" fill-opacity="1"><g transform="translate(82.792786, 21.695559)"><g><path d="M 11.109375 -8.703125 C 10.816406 -8.847656 10.507812 -8.957031 10.1875 -9.03125 C 9.875 -9.101562 9.515625 -9.140625 9.109375 -9.140625 C 8.546875 -9.140625 8.015625 -9.054688 7.515625 -8.890625 C 7.023438 -8.722656 6.601562 -8.472656 6.25 -8.140625 C 5.894531 -7.804688 5.613281 -7.390625 5.40625 -6.890625 C 5.207031 -6.390625 5.109375 -5.796875 5.109375 -5.109375 L 5.109375 -2.28125 L 7.671875 -2.28125 L 7.671875 0 L 0 0 L 0 -2.28125 L 2.578125 -2.28125 L 2.578125 -9.109375 L 0 -9.109375 L 0 -11.390625 L 5.109375 -11.390625 L 5.109375 -8.53125 C 5.523438 -9.675781 6.140625 -10.484375 6.953125 -10.953125 C 7.765625 -11.429688 8.726562 -11.671875 9.84375 -11.671875 C 10.195312 -11.671875 10.5625 -11.632812 10.9375 -11.5625 C 11.320312 -11.488281 11.703125 -11.359375 12.078125 -11.171875 Z M 11.109375 -8.703125 "/></g></g></g><g fill="#000000" fill-opacity="1"><g transform="translate(96.467166, 21.695559)"><g><path d="M 2.328125 -4.734375 C 2.441406 -3.953125 2.8125 -3.300781 3.4375 -2.78125 C 4.0625 -2.257812 4.898438 -2 5.953125 -2 C 6.773438 -2 7.488281 -2.128906 8.09375 -2.390625 C 8.707031 -2.648438 9.234375 -2.988281 9.671875 -3.40625 L 10.96875 -1.625 C 10.238281 -0.894531 9.460938 -0.394531 8.640625 -0.125 C 7.816406 0.144531 6.921875 0.28125 5.953125 0.28125 C 5.078125 0.28125 4.257812 0.132812 3.5 -0.15625 C 2.738281 -0.445312 2.082031 -0.851562 1.53125 -1.375 C 0.976562 -1.90625 0.539062 -2.535156 0.21875 -3.265625 C -0.09375 -3.992188 -0.25 -4.800781 -0.25 -5.6875 C -0.25 -6.550781 -0.101562 -7.347656 0.1875 -8.078125 C 0.476562 -8.804688 0.882812 -9.4375 1.40625 -9.96875 C 1.9375 -10.507812 2.566406 -10.925781 3.296875 -11.21875 C 4.035156 -11.519531 4.847656 -11.671875 5.734375 -11.671875 C 6.660156 -11.671875 7.5 -11.507812 8.25 -11.1875 C 9 -10.875 9.640625 -10.421875 10.171875 -9.828125 C 10.703125 -9.234375 11.117188 -8.503906 11.421875 -7.640625 C 11.722656 -6.785156 11.875 -5.816406 11.875 -4.734375 Z M 9.015625 -6.953125 C 8.878906 -7.691406 8.5 -8.28125 7.875 -8.71875 C 7.25 -9.164062 6.535156 -9.390625 5.734375 -9.390625 C 4.929688 -9.390625 4.210938 -9.164062 3.578125 -8.71875 C 2.941406 -8.28125 2.5625 -7.691406 2.4375 -6.953125 Z M 9.015625 -6.953125 "/></g></g></g><g fill="#000000" fill-opacity="1"><g transform="translate(110.141547, 21.695559)"><g><path d="M 11.390625 -9.109375 L 6.953125 -9.109375 L 6.953125 -2.28125 L 9.5625 -2.28125 L 9.5625 0 L 1.90625 0 L 1.90625 -2.28125 L 4.421875 -2.28125 L 4.421875 -9.109375 L 1.90625 -9.109375 L 1.90625 -11.390625 L 4.421875 -11.390625 C 4.421875 -12.960938 4.898438 -14.160156 5.859375 -14.984375 C 6.828125 -15.816406 8.128906 -16.234375 9.765625 -16.234375 C 10.015625 -16.234375 10.273438 -16.21875 10.546875 -16.1875 C 10.828125 -16.164062 11.109375 -16.140625 11.390625 -16.109375 L 11.390625 -13.875 C 10.910156 -13.925781 10.46875 -13.953125 10.0625 -13.953125 C 9.414062 -13.953125 8.890625 -13.90625 8.484375 -13.8125 C 8.085938 -13.71875 7.773438 -13.566406 7.546875 -13.359375 C 7.328125 -13.148438 7.171875 -12.882812 7.078125 -12.5625 C 6.992188 -12.238281 6.953125 -11.847656 6.953125 -11.390625 L 11.390625 -11.390625 Z M 11.390625 -9.109375 "/></g></g></g><g fill="#000000" fill-opacity="1"><g transform="translate(123.815927, 21.695559)"><g><path d="M 9.59375 0 L 1.9375 0 L 1.9375 -2.28125 L 4.421875 -2.28125 L 4.421875 -13.671875 L 1.9375 -13.671875 L 1.9375 -15.953125 L 6.953125 -15.953125 L 6.953125 -2.28125 L 9.59375 -2.28125 Z M 9.59375 0 "/></g></g></g><g fill="#000000" fill-opacity="1"><g transform="translate(137.490307, 21.695559)"><g><path d="M 2.328125 -4.734375 C 2.441406 -3.953125 2.8125 -3.300781 3.4375 -2.78125 C 4.0625 -2.257812 4.898438 -2 5.953125 -2 C 6.773438 -2 7.488281 -2.128906 8.09375 -2.390625 C 8.707031 -2.648438 9.234375 -2.988281 9.671875 -3.40625 L 10.96875 -1.625 C 10.238281 -0.894531 9.460938 -0.394531 8.640625 -0.125 C 7.816406 0.144531 6.921875 0.28125 5.953125 0.28125 C 5.078125 0.28125 4.257812 0.132812 3.5 -0.15625 C 2.738281 -0.445312 2.082031 -0.851562 1.53125 -1.375 C 0.976562 -1.90625 0.539062 -2.535156 0.21875 -3.265625 C -0.09375 -3.992188 -0.25 -4.800781 -0.25 -5.6875 C -0.25 -6.550781 -0.101562 -7.347656 0.1875 -8.078125 C 0.476562 -8.804688 0.882812 -9.4375 1.40625 -9.96875 C 1.9375 -10.507812 2.566406 -10.925781 3.296875 -11.21875 C 4.035156 -11.519531 4.847656 -11.671875 5.734375 -11.671875 C 6.660156 -11.671875 7.5 -11.507812 8.25 -11.1875 C 9 -10.875 9.640625 -10.421875 10.171875 -9.828125 C 10.703125 -9.234375 11.117188 -8.503906 11.421875 -7.640625 C 11.722656 -6.785156 11.875 -5.816406 11.875 -4.734375 Z M 9.015625 -6.953125 C 8.878906 -7.691406 8.5 -8.28125 7.875 -8.71875 C 7.25 -9.164062 6.535156 -9.390625 5.734375 -9.390625 C 4.929688 -9.390625 4.210938 -9.164062 3.578125 -8.71875 C 2.941406 -8.28125 2.5625 -7.691406 2.4375 -6.953125 Z M 9.015625 -6.953125 "/></g></g></g><g fill="#000000" fill-opacity="1"><g transform="translate(151.164687, 21.695559)"><g><path d="M 10.96875 -1.625 C 10.238281 -0.894531 9.46875 -0.394531 8.65625 -0.125 C 7.84375 0.144531 6.960938 0.28125 6.015625 0.28125 C 5.066406 0.28125 4.203125 0.140625 3.421875 -0.140625 C 2.640625 -0.429688 1.976562 -0.832031 1.4375 -1.34375 C 0.894531 -1.863281 0.476562 -2.488281 0.1875 -3.21875 C -0.101562 -3.957031 -0.25 -4.78125 -0.25 -5.6875 C -0.25 -6.550781 -0.101562 -7.351562 0.1875 -8.09375 C 0.476562 -8.832031 0.867188 -9.460938 1.359375 -9.984375 C 1.859375 -10.515625 2.441406 -10.925781 3.109375 -11.21875 C 3.773438 -11.519531 4.484375 -11.671875 5.234375 -11.671875 C 6.015625 -11.671875 6.691406 -11.503906 7.265625 -11.171875 C 7.847656 -10.847656 8.269531 -10.375 8.53125 -9.75 L 8.53125 -11.390625 L 10.796875 -11.390625 L 10.796875 -6.09375 L 8.53125 -6.09375 C 8.53125 -7.09375 8.253906 -7.890625 7.703125 -8.484375 C 7.160156 -9.085938 6.445312 -9.390625 5.5625 -9.390625 C 5.207031 -9.390625 4.835938 -9.316406 4.453125 -9.171875 C 4.066406 -9.035156 3.710938 -8.816406 3.390625 -8.515625 C 3.066406 -8.210938 2.800781 -7.828125 2.59375 -7.359375 C 2.382812 -6.898438 2.28125 -6.34375 2.28125 -5.6875 C 2.28125 -5.050781 2.378906 -4.5 2.578125 -4.03125 C 2.785156 -3.570312 3.050781 -3.191406 3.375 -2.890625 C 3.707031 -2.597656 4.097656 -2.375 4.546875 -2.21875 C 5.003906 -2.070312 5.472656 -2 5.953125 -2 C 6.773438 -2 7.488281 -2.128906 8.09375 -2.390625 C 8.707031 -2.648438 9.234375 -2.988281 9.671875 -3.40625 Z M 10.96875 -1.625 "/></g></g></g><g fill="#000000" fill-opacity="1"><g transform="translate(164.839067, 21.695559)"><g><path d="M 11.515625 -3.625 C 11.390625 -2.425781 10.921875 -1.472656 10.109375 -0.765625 C 9.296875 -0.0664062 8.28125 0.28125 7.0625 0.28125 C 6.394531 0.28125 5.785156 0.171875 5.234375 -0.046875 C 4.679688 -0.265625 4.207031 -0.566406 3.8125 -0.953125 C 3.425781 -1.347656 3.125 -1.820312 2.90625 -2.375 C 2.6875 -2.925781 2.578125 -3.53125 2.578125 -4.1875 L 2.578125 -9.109375 L 0 -9.109375 L 0 -11.390625 L 2.578125 -11.390625 L 2.578125 -15.953125 L 5.109375 -15.953125 L 5.109375 -11.390625 L 9.890625 -11.390625 L 9.890625 -9.109375 L 5.109375 -9.109375 L 5.109375 -4.1875 C 5.109375 -3.445312 5.285156 -2.894531 5.640625 -2.53125 C 6.003906 -2.175781 6.476562 -2 7.0625 -2 C 7.78125 -2 8.316406 -2.207031 8.671875 -2.625 C 9.023438 -3.039062 9.234375 -3.546875 9.296875 -4.140625 Z M 11.515625 -3.625 "/></g></g></g><g fill="#000000" fill-opacity="1"><g transform="translate(178.513458, 21.695559)"><g><path d="M 7.234375 -12.875 L 4.15625 -12.875 L 4.15625 -15.953125 L 7.234375 -15.953125 Z M 9.5625 0 L 1.90625 0 L 1.90625 -2.28125 L 4.421875 -2.28125 L 4.421875 -9.109375 L 1.90625 -9.109375 L 1.90625 -11.390625 L 6.953125 -11.390625 L 6.953125 -2.28125 L 9.5625 -2.28125 Z M 9.5625 0 "/></g></g></g><g fill="#000000" fill-opacity="1"><g transform="translate(192.187828, 21.695559)"><g><path d="M 11.6875 -5.6875 C 11.6875 -4.800781 11.546875 -3.992188 11.265625 -3.265625 C 10.984375 -2.535156 10.578125 -1.90625 10.046875 -1.375 C 9.523438 -0.851562 8.894531 -0.445312 8.15625 -0.15625 C 7.425781 0.132812 6.613281 0.28125 5.71875 0.28125 C 4.820312 0.28125 4.003906 0.132812 3.265625 -0.15625 C 2.535156 -0.445312 1.90625 -0.851562 1.375 -1.375 C 0.851562 -1.90625 0.453125 -2.535156 0.171875 -3.265625 C -0.109375 -3.992188 -0.25 -4.800781 -0.25 -5.6875 C -0.25 -6.550781 -0.109375 -7.351562 0.171875 -8.09375 C 0.453125 -8.832031 0.851562 -9.46875 1.375 -10 C 1.90625 -10.53125 2.535156 -10.941406 3.265625 -11.234375 C 4.003906 -11.523438 4.820312 -11.671875 5.71875 -11.671875 C 6.613281 -11.671875 7.425781 -11.523438 8.15625 -11.234375 C 8.894531 -10.941406 9.523438 -10.53125 10.046875 -10 C 10.578125 -9.46875 10.984375 -8.832031 11.265625 -8.09375 C 11.546875 -7.351562 11.6875 -6.550781 11.6875 -5.6875 Z M 9.171875 -5.6875 C 9.171875 -6.195312 9.09375 -6.679688 8.9375 -7.140625 C 8.78125 -7.609375 8.550781 -8.003906 8.25 -8.328125 C 7.945312 -8.648438 7.578125 -8.90625 7.140625 -9.09375 C 6.710938 -9.289062 6.238281 -9.390625 5.71875 -9.390625 C 5.175781 -9.390625 4.691406 -9.289062 4.265625 -9.09375 C 3.835938 -8.90625 3.476562 -8.648438 3.1875 -8.328125 C 2.894531 -8.003906 2.671875 -7.609375 2.515625 -7.140625 C 2.359375 -6.679688 2.28125 -6.195312 2.28125 -5.6875 C 2.28125 -5.144531 2.359375 -4.65625 2.515625 -4.21875 C 2.671875 -3.78125 2.894531 -3.394531 3.1875 -3.0625 C 3.476562 -2.726562 3.835938 -2.46875 4.265625 -2.28125 C 4.691406 -2.09375 5.175781 -2 5.71875 -2 C 6.238281 -2 6.710938 -2.09375 7.140625 -2.28125 C 7.578125 -2.46875 7.945312 -2.726562 8.25 -3.0625 C 8.550781 -3.394531 8.78125 -3.78125 8.9375 -4.21875 C 9.09375 -4.65625 9.171875 -5.144531 9.171875 -5.6875 Z M 9.171875 -5.6875 "/></g></g></g><g fill="#000000" fill-opacity="1"><g transform="translate(205.862198, 21.695559)"><g><path d="M 10.796875 0 L 8.265625 0 L 8.265625 -7.03125 C 8.265625 -7.914062 8.097656 -8.53125 7.765625 -8.875 C 7.429688 -9.21875 6.945312 -9.390625 6.3125 -9.390625 C 5.375 -9.390625 4.609375 -9.007812 4.015625 -8.25 C 3.421875 -7.5 3.125 -6.453125 3.125 -5.109375 L 3.125 0 L 0.59375 0 L 0.59375 -11.390625 L 3.125 -11.390625 L 3.125 -8.53125 C 3.382812 -9.519531 3.851562 -10.289062 4.53125 -10.84375 C 5.21875 -11.394531 6.0625 -11.671875 7.0625 -11.671875 C 8.226562 -11.671875 9.140625 -11.289062 9.796875 -10.53125 C 10.460938 -9.769531 10.796875 -8.601562 10.796875 -7.03125 Z M 10.796875 0 "/></g></g></g><g fill="#000000" fill-opacity="1"><g transform="translate(219.536588, 21.695559)"><g><path d="M 11.09375 -3.40625 C 11.09375 -2.664062 10.925781 -2.0625 10.59375 -1.59375 C 10.257812 -1.132812 9.828125 -0.757812 9.296875 -0.46875 C 8.773438 -0.1875 8.1875 0.00390625 7.53125 0.109375 C 6.882812 0.222656 6.253906 0.28125 5.640625 0.28125 C 4.597656 0.28125 3.5625 0.128906 2.53125 -0.171875 C 1.507812 -0.472656 0.625 -0.867188 -0.125 -1.359375 L 0.921875 -3.4375 C 1.828125 -2.914062 2.648438 -2.546875 3.390625 -2.328125 C 4.140625 -2.109375 4.890625 -2 5.640625 -2 C 6.660156 -2 7.398438 -2.109375 7.859375 -2.328125 C 8.328125 -2.546875 8.5625 -2.847656 8.5625 -3.234375 C 8.5625 -3.421875 8.492188 -3.570312 8.359375 -3.6875 C 8.234375 -3.8125 8.019531 -3.925781 7.71875 -4.03125 C 7.414062 -4.132812 7.015625 -4.234375 6.515625 -4.328125 C 6.023438 -4.429688 5.414062 -4.539062 4.6875 -4.65625 C 4.09375 -4.757812 3.53125 -4.878906 3 -5.015625 C 2.476562 -5.160156 2.019531 -5.363281 1.625 -5.625 C 1.226562 -5.882812 0.910156 -6.210938 0.671875 -6.609375 C 0.429688 -7.015625 0.3125 -7.519531 0.3125 -8.125 C 0.3125 -8.726562 0.46875 -9.253906 0.78125 -9.703125 C 1.09375 -10.160156 1.503906 -10.535156 2.015625 -10.828125 C 2.523438 -11.128906 3.097656 -11.34375 3.734375 -11.46875 C 4.367188 -11.601562 5.003906 -11.671875 5.640625 -11.671875 C 6.535156 -11.671875 7.40625 -11.550781 8.25 -11.3125 C 9.09375 -11.082031 9.832031 -10.753906 10.46875 -10.328125 L 9.46875 -8.359375 C 8.832031 -8.765625 8.210938 -9.035156 7.609375 -9.171875 C 7.015625 -9.316406 6.359375 -9.390625 5.640625 -9.390625 C 5.335938 -9.390625 5.019531 -9.375 4.6875 -9.34375 C 4.363281 -9.3125 4.0625 -9.25 3.78125 -9.15625 C 3.507812 -9.0625 3.28125 -8.929688 3.09375 -8.765625 C 2.914062 -8.609375 2.828125 -8.414062 2.828125 -8.1875 C 2.828125 -7.882812 3.09375 -7.640625 3.625 -7.453125 C 4.15625 -7.265625 5.066406 -7.078125 6.359375 -6.890625 C 7.054688 -6.785156 7.691406 -6.65625 8.265625 -6.5 C 8.847656 -6.351562 9.347656 -6.148438 9.765625 -5.890625 C 10.179688 -5.640625 10.503906 -5.3125 10.734375 -4.90625 C 10.972656 -4.507812 11.09375 -4.007812 11.09375 -3.40625 Z M 11.09375 -3.40625 "/></g></g></g><g fill="#000000" fill-opacity="1"><g transform="translate(233.210978, 21.695559)"><g><path d="M 0.59375 -11.390625 L 3.125 -11.390625 L 3.125 -10.375 C 3.613281 -10.800781 4.101562 -11.125 4.59375 -11.34375 C 5.082031 -11.5625 5.644531 -11.671875 6.28125 -11.671875 C 7.019531 -11.671875 7.703125 -11.519531 8.328125 -11.21875 C 8.953125 -10.925781 9.488281 -10.515625 9.9375 -9.984375 C 10.382812 -9.460938 10.738281 -8.832031 11 -8.09375 C 11.257812 -7.351562 11.390625 -6.550781 11.390625 -5.6875 C 11.390625 -4.8125 11.257812 -4.003906 11 -3.265625 C 10.738281 -2.535156 10.382812 -1.90625 9.9375 -1.375 C 9.488281 -0.851562 8.953125 -0.445312 8.328125 -0.15625 C 7.703125 0.132812 7.019531 0.28125 6.28125 0.28125 C 5.644531 0.28125 5.082031 0.164062 4.59375 -0.0625 C 4.101562 -0.289062 3.613281 -0.617188 3.125 -1.046875 L 3.125 4.5625 L 0.59375 4.5625 Z M 3.125 -3.0625 C 3.425781 -2.726562 3.8125 -2.46875 4.28125 -2.28125 C 4.75 -2.09375 5.203125 -2 5.640625 -2 C 6.585938 -2 7.359375 -2.335938 7.953125 -3.015625 C 8.554688 -3.691406 8.859375 -4.582031 8.859375 -5.6875 C 8.859375 -6.789062 8.554688 -7.679688 7.953125 -8.359375 C 7.359375 -9.046875 6.585938 -9.390625 5.640625 -9.390625 C 5.203125 -9.390625 4.75 -9.300781 4.28125 -9.125 C 3.8125 -8.945312 3.425781 -8.691406 3.125 -8.359375 Z M 3.125 -3.0625 "/></g></g></g><g fill="#000000" fill-opacity="1"><g transform="translate(246.885349, 21.695559)"><g><path d="M 11.109375 -8.703125 C 10.816406 -8.847656 10.507812 -8.957031 10.1875 -9.03125 C 9.875 -9.101562 9.515625 -9.140625 9.109375 -9.140625 C 8.546875 -9.140625 8.015625 -9.054688 7.515625 -8.890625 C 7.023438 -8.722656 6.601562 -8.472656 6.25 -8.140625 C 5.894531 -7.804688 5.613281 -7.390625 5.40625 -6.890625 C 5.207031 -6.390625 5.109375 -5.796875 5.109375 -5.109375 L 5.109375 -2.28125 L 7.671875 -2.28125 L 7.671875 0 L 0 0 L 0 -2.28125 L 2.578125 -2.28125 L 2.578125 -9.109375 L 0 -9.109375 L 0 -11.390625 L 5.109375 -11.390625 L 5.109375 -8.53125 C 5.523438 -9.675781 6.140625 -10.484375 6.953125 -10.953125 C 7.765625 -11.429688 8.726562 -11.671875 9.84375 -11.671875 C 10.195312 -11.671875 10.5625 -11.632812 10.9375 -11.5625 C 11.320312 -11.488281 11.703125 -11.359375 12.078125 -11.171875 Z M 11.109375 -8.703125 "/></g></g></g><g fill="#000000" fill-opacity="1"><g transform="translate(260.559719, 21.695559)"><g><path d="M 11.6875 -5.6875 C 11.6875 -4.800781 11.546875 -3.992188 11.265625 -3.265625 C 10.984375 -2.535156 10.578125 -1.90625 10.046875 -1.375 C 9.523438 -0.851562 8.894531 -0.445312 8.15625 -0.15625 C 7.425781 0.132812 6.613281 0.28125 5.71875 0.28125 C 4.820312 0.28125 4.003906 0.132812 3.265625 -0.15625 C 2.535156 -0.445312 1.90625 -0.851562 1.375 -1.375 C 0.851562 -1.90625 0.453125 -2.535156 0.171875 -3.265625 C -0.109375 -3.992188 -0.25 -4.800781 -0.25 -5.6875 C -0.25 -6.550781 -0.109375 -7.351562 0.171875 -8.09375 C 0.453125 -8.832031 0.851562 -9.46875 1.375 -10 C 1.90625 -10.53125 2.535156 -10.941406 3.265625 -11.234375 C 4.003906 -11.523438 4.820312 -11.671875 5.71875 -11.671875 C 6.613281 -11.671875 7.425781 -11.523438 8.15625 -11.234375 C 8.894531 -10.941406 9.523438 -10.53125 10.046875 -10 C 10.578125 -9.46875 10.984375 -8.832031 11.265625 -8.09375 C 11.546875 -7.351562 11.6875 -6.550781 11.6875 -5.6875 Z M 9.171875 -5.6875 C 9.171875 -6.195312 9.09375 -6.679688 8.9375 -7.140625 C 8.78125 -7.609375 8.550781 -8.003906 8.25 -8.328125 C 7.945312 -8.648438 7.578125 -8.90625 7.140625 -9.09375 C 6.710938 -9.289062 6.238281 -9.390625 5.71875 -9.390625 C 5.175781 -9.390625 4.691406 -9.289062 4.265625 -9.09375 C 3.835938 -8.90625 3.476562 -8.648438 3.1875 -8.328125 C 2.894531 -8.003906 2.671875 -7.609375 2.515625 -7.140625 C 2.359375 -6.679688 2.28125 -6.195312 2.28125 -5.6875 C 2.28125 -5.144531 2.359375 -4.65625 2.515625 -4.21875 C 2.671875 -3.78125 2.894531 -3.394531 3.1875 -3.0625 C 3.476562 -2.726562 3.835938 -2.46875 4.265625 -2.28125 C 4.691406 -2.09375 5.175781 -2 5.71875 -2 C 6.238281 -2 6.710938 -2.09375 7.140625 -2.28125 C 7.578125 -2.46875 7.945312 -2.726562 8.25 -3.0625 C 8.550781 -3.394531 8.78125 -3.78125 8.9375 -4.21875 C 9.09375 -4.65625 9.171875 -5.144531 9.171875 -5.6875 Z M 9.171875 -5.6875 "/></g></g></g><g fill="#000000" fill-opacity="1"><g transform="translate(274.234109, 21.695559)"><g><path d="M 4.203125 4.828125 C 2.472656 4.828125 1.070312 4.179688 0 2.890625 L 1.5 1.203125 C 1.882812 1.660156 2.289062 2 2.71875 2.21875 C 3.15625 2.445312 3.648438 2.5625 4.203125 2.5625 C 5.054688 2.5625 5.6875 2.328125 6.09375 1.859375 C 6.507812 1.390625 6.71875 0.769531 6.71875 0 L 6.71875 -9.109375 L 4.140625 -9.109375 L 4.140625 -11.390625 L 9.25 -11.390625 L 9.25 0 C 9.25 0.726562 9.125 1.390625 8.875 1.984375 C 8.632812 2.585938 8.289062 3.097656 7.84375 3.515625 C 7.40625 3.941406 6.875 4.265625 6.25 4.484375 C 5.632812 4.710938 4.953125 4.828125 4.203125 4.828125 Z M 9.515625 -12.875 L 6.4375 -12.875 L 6.4375 -15.953125 L 9.515625 -15.953125 Z M 9.515625 -12.875 "/></g></g></g><g fill="#000000" fill-opacity="1"><g transform="translate(287.908499, 21.695559)"><g><path d="M 2.328125 -4.734375 C 2.441406 -3.953125 2.8125 -3.300781 3.4375 -2.78125 C 4.0625 -2.257812 4.898438 -2 5.953125 -2 C 6.773438 -2 7.488281 -2.128906 8.09375 -2.390625 C 8.707031 -2.648438 9.234375 -2.988281 9.671875 -3.40625 L 10.96875 -1.625 C 10.238281 -0.894531 9.460938 -0.394531 8.640625 -0.125 C 7.816406 0.144531 6.921875 0.28125 5.953125 0.28125 C 5.078125 0.28125 4.257812 0.132812 3.5 -0.15625 C 2.738281 -0.445312 2.082031 -0.851562 1.53125 -1.375 C 0.976562 -1.90625 0.539062 -2.535156 0.21875 -3.265625 C -0.09375 -3.992188 -0.25 -4.800781 -0.25 -5.6875 C -0.25 -6.550781 -0.101562 -7.347656 0.1875 -8.078125 C 0.476562 -8.804688 0.882812 -9.4375 1.40625 -9.96875 C 1.9375 -10.507812 2.566406 -10.925781 3.296875 -11.21875 C 4.035156 -11.519531 4.847656 -11.671875 5.734375 -11.671875 C 6.660156 -11.671875 7.5 -11.507812 8.25 -11.1875 C 9 -10.875 9.640625 -10.421875 10.171875 -9.828125 C 10.703125 -9.234375 11.117188 -8.503906 11.421875 -7.640625 C 11.722656 -6.785156 11.875 -5.816406 11.875 -4.734375 Z M 9.015625 -6.953125 C 8.878906 -7.691406 8.5 -8.28125 7.875 -8.71875 C 7.25 -9.164062 6.535156 -9.390625 5.734375 -9.390625 C 4.929688 -9.390625 4.210938 -9.164062 3.578125 -8.71875 C 2.941406 -8.28125 2.5625 -7.691406 2.4375 -6.953125 Z M 9.015625 -6.953125 "/></g></g></g><g fill="#000000" fill-opacity="1"><g transform="translate(301.582869, 21.695559)"><g><path d="M 10.96875 -1.625 C 10.238281 -0.894531 9.46875 -0.394531 8.65625 -0.125 C 7.84375 0.144531 6.960938 0.28125 6.015625 0.28125 C 5.066406 0.28125 4.203125 0.140625 3.421875 -0.140625 C 2.640625 -0.429688 1.976562 -0.832031 1.4375 -1.34375 C 0.894531 -1.863281 0.476562 -2.488281 0.1875 -3.21875 C -0.101562 -3.957031 -0.25 -4.78125 -0.25 -5.6875 C -0.25 -6.550781 -0.101562 -7.351562 0.1875 -8.09375 C 0.476562 -8.832031 0.867188 -9.460938 1.359375 -9.984375 C 1.859375 -10.515625 2.441406 -10.925781 3.109375 -11.21875 C 3.773438 -11.519531 4.484375 -11.671875 5.234375 -11.671875 C 6.015625 -11.671875 6.691406 -11.503906 7.265625 -11.171875 C 7.847656 -10.847656 8.269531 -10.375 8.53125 -9.75 L 8.53125 -11.390625 L 10.796875 -11.390625 L 10.796875 -6.09375 L 8.53125 -6.09375 C 8.53125 -7.09375 8.253906 -7.890625 7.703125 -8.484375 C 7.160156 -9.085938 6.445312 -9.390625 5.5625 -9.390625 C 5.207031 -9.390625 4.835938 -9.316406 4.453125 -9.171875 C 4.066406 -9.035156 3.710938 -8.816406 3.390625 -8.515625 C 3.066406 -8.210938 2.800781 -7.828125 2.59375 -7.359375 C 2.382812 -6.898438 2.28125 -6.34375 2.28125 -5.6875 C 2.28125 -5.050781 2.378906 -4.5 2.578125 -4.03125 C 2.785156 -3.570312 3.050781 -3.191406 3.375 -2.890625 C 3.707031 -2.597656 4.097656 -2.375 4.546875 -2.21875 C 5.003906 -2.070312 5.472656 -2 5.953125 -2 C 6.773438 -2 7.488281 -2.128906 8.09375 -2.390625 C 8.707031 -2.648438 9.234375 -2.988281 9.671875 -3.40625 Z M 10.96875 -1.625 "/></g></g></g><g fill="#000000" fill-opacity="1"><g transform="translate(315.257239, 21.695559)"><g><path d="M 11.515625 -3.625 C 11.390625 -2.425781 10.921875 -1.472656 10.109375 -0.765625 C 9.296875 -0.0664062 8.28125 0.28125 7.0625 0.28125 C 6.394531 0.28125 5.785156 0.171875 5.234375 -0.046875 C 4.679688 -0.265625 4.207031 -0.566406 3.8125 -0.953125 C 3.425781 -1.347656 3.125 -1.820312 2.90625 -2.375 C 2.6875 -2.925781 2.578125 -3.53125 2.578125 -4.1875 L 2.578125 -9.109375 L 0 -9.109375 L 0 -11.390625 L 2.578125 -11.390625 L 2.578125 -15.953125 L 5.109375 -15.953125 L 5.109375 -11.390625 L 9.890625 -11.390625 L 9.890625 -9.109375 L 5.109375 -9.109375 L 5.109375 -4.1875 C 5.109375 -3.445312 5.285156 -2.894531 5.640625 -2.53125 C 6.003906 -2.175781 6.476562 -2 7.0625 -2 C 7.78125 -2 8.316406 -2.207031 8.671875 -2.625 C 9.023438 -3.039062 9.234375 -3.546875 9.296875 -4.140625 Z M 11.515625 -3.625 "/></g></g></g><g fill="#000000" fill-opacity="1"><g transform="translate(328.93163, 21.695559)"><g><path d="M 7.234375 -12.875 L 4.15625 -12.875 L 4.15625 -15.953125 L 7.234375 -15.953125 Z M 9.5625 0 L 1.90625 0 L 1.90625 -2.28125 L 4.421875 -2.28125 L 4.421875 -9.109375 L 1.90625 -9.109375 L 1.90625 -11.390625 L 6.953125 -11.390625 L 6.953125 -2.28125 L 9.5625 -2.28125 Z M 9.5625 0 "/></g></g></g><g fill="#000000" fill-opacity="1"><g transform="translate(342.60602, 21.695559)"><g><path d="M 11.6875 -5.6875 C 11.6875 -4.800781 11.546875 -3.992188 11.265625 -3.265625 C 10.984375 -2.535156 10.578125 -1.90625 10.046875 -1.375 C 9.523438 -0.851562 8.894531 -0.445312 8.15625 -0.15625 C 7.425781 0.132812 6.613281 0.28125 5.71875 0.28125 C 4.820312 0.28125 4.003906 0.132812 3.265625 -0.15625 C 2.535156 -0.445312 1.90625 -0.851562 1.375 -1.375 C 0.851562 -1.90625 0.453125 -2.535156 0.171875 -3.265625 C -0.109375 -3.992188 -0.25 -4.800781 -0.25 -5.6875 C -0.25 -6.550781 -0.109375 -7.351562 0.171875 -8.09375 C 0.453125 -8.832031 0.851562 -9.46875 1.375 -10 C 1.90625 -10.53125 2.535156 -10.941406 3.265625 -11.234375 C 4.003906 -11.523438 4.820312 -11.671875 5.71875 -11.671875 C 6.613281 -11.671875 7.425781 -11.523438 8.15625 -11.234375 C 8.894531 -10.941406 9.523438 -10.53125 10.046875 -10 C 10.578125 -9.46875 10.984375 -8.832031 11.265625 -8.09375 C 11.546875 -7.351562 11.6875 -6.550781 11.6875 -5.6875 Z M 9.171875 -5.6875 C 9.171875 -6.195312 9.09375 -6.679688 8.9375 -7.140625 C 8.78125 -7.609375 8.550781 -8.003906 8.25 -8.328125 C 7.945312 -8.648438 7.578125 -8.90625 7.140625 -9.09375 C 6.710938 -9.289062 6.238281 -9.390625 5.71875 -9.390625 C 5.175781 -9.390625 4.691406 -9.289062 4.265625 -9.09375 C 3.835938 -8.90625 3.476562 -8.648438 3.1875 -8.328125 C 2.894531 -8.003906 2.671875 -7.609375 2.515625 -7.140625 C 2.359375 -6.679688 2.28125 -6.195312 2.28125 -5.6875 C 2.28125 -5.144531 2.359375 -4.65625 2.515625 -4.21875 C 2.671875 -3.78125 2.894531 -3.394531 3.1875 -3.0625 C 3.476562 -2.726562 3.835938 -2.46875 4.265625 -2.28125 C 4.691406 -2.09375 5.175781 -2 5.71875 -2 C 6.238281 -2 6.710938 -2.09375 7.140625 -2.28125 C 7.578125 -2.46875 7.945312 -2.726562 8.25 -3.0625 C 8.550781 -3.394531 8.78125 -3.78125 8.9375 -4.21875 C 9.09375 -4.65625 9.171875 -5.144531 9.171875 -5.6875 Z M 9.171875 -5.6875 "/></g></g></g><g fill="#000000" fill-opacity="1"><g transform="translate(356.28041, 21.695559)"><g><path d="M 10.796875 0 L 8.265625 0 L 8.265625 -7.03125 C 8.265625 -7.914062 8.097656 -8.53125 7.765625 -8.875 C 7.429688 -9.21875 6.945312 -9.390625 6.3125 -9.390625 C 5.375 -9.390625 4.609375 -9.007812 4.015625 -8.25 C 3.421875 -7.5 3.125 -6.453125 3.125 -5.109375 L 3.125 0 L 0.59375 0 L 0.59375 -11.390625 L 3.125 -11.390625 L 3.125 -8.53125 C 3.382812 -9.519531 3.851562 -10.289062 4.53125 -10.84375 C 5.21875 -11.394531 6.0625 -11.671875 7.0625 -11.671875 C 8.226562 -11.671875 9.140625 -11.289062 9.796875 -10.53125 C 10.460938 -9.769531 10.796875 -8.601562 10.796875 -7.03125 Z M 10.796875 0 "/></g></g></g><g fill="#000000" fill-opacity="1"><g transform="translate(369.95476, 21.695559)"><g><path d="M 11.09375 -3.40625 C 11.09375 -2.664062 10.925781 -2.0625 10.59375 -1.59375 C 10.257812 -1.132812 9.828125 -0.757812 9.296875 -0.46875 C 8.773438 -0.1875 8.1875 0.00390625 7.53125 0.109375 C 6.882812 0.222656 6.253906 0.28125 5.640625 0.28125 C 4.597656 0.28125 3.5625 0.128906 2.53125 -0.171875 C 1.507812 -0.472656 0.625 -0.867188 -0.125 -1.359375 L 0.921875 -3.4375 C 1.828125 -2.914062 2.648438 -2.546875 3.390625 -2.328125 C 4.140625 -2.109375 4.890625 -2 5.640625 -2 C 6.660156 -2 7.398438 -2.109375 7.859375 -2.328125 C 8.328125 -2.546875 8.5625 -2.847656 8.5625 -3.234375 C 8.5625 -3.421875 8.492188 -3.570312 8.359375 -3.6875 C 8.234375 -3.8125 8.019531 -3.925781 7.71875 -4.03125 C 7.414062 -4.132812 7.015625 -4.234375 6.515625 -4.328125 C 6.023438 -4.429688 5.414062 -4.539062 4.6875 -4.65625 C 4.09375 -4.757812 3.53125 -4.878906 3 -5.015625 C 2.476562 -5.160156 2.019531 -5.363281 1.625 -5.625 C 1.226562 -5.882812 0.910156 -6.210938 0.671875 -6.609375 C 0.429688 -7.015625 0.3125 -7.519531 0.3125 -8.125 C 0.3125 -8.726562 0.46875 -9.253906 0.78125 -9.703125 C 1.09375 -10.160156 1.503906 -10.535156 2.015625 -10.828125 C 2.523438 -11.128906 3.097656 -11.34375 3.734375 -11.46875 C 4.367188 -11.601562 5.003906 -11.671875 5.640625 -11.671875 C 6.535156 -11.671875 7.40625 -11.550781 8.25 -11.3125 C 9.09375 -11.082031 9.832031 -10.753906 10.46875 -10.328125 L 9.46875 -8.359375 C 8.832031 -8.765625 8.210938 -9.035156 7.609375 -9.171875 C 7.015625 -9.316406 6.359375 -9.390625 5.640625 -9.390625 C 5.335938 -9.390625 5.019531 -9.375 4.6875 -9.34375 C 4.363281 -9.3125 4.0625 -9.25 3.78125 -9.15625 C 3.507812 -9.0625 3.28125 -8.929688 3.09375 -8.765625 C 2.914062 -8.609375 2.828125 -8.414062 2.828125 -8.1875 C 2.828125 -7.882812 3.09375 -7.640625 3.625 -7.453125 C 4.15625 -7.265625 5.066406 -7.078125 6.359375 -6.890625 C 7.054688 -6.785156 7.691406 -6.65625 8.265625 -6.5 C 8.847656 -6.351562 9.347656 -6.148438 9.765625 -5.890625 C 10.179688 -5.640625 10.503906 -5.3125 10.734375 -4.90625 C 10.972656 -4.507812 11.09375 -4.007812 11.09375 -3.40625 Z M 11.09375 -3.40625 "/></g></g></g><g fill="#000000" fill-opacity="1"><g transform="translate(383.62915, 21.695559)"><g><path d="M 7.234375 0 L 4.15625 0 L 4.15625 -3.078125 L 7.234375 -3.078125 Z M 7.234375 0 "/></g></g></g><g fill="#000000" fill-opacity="1"><g transform="translate(397.30354, 21.695559)"><g><path d="M 11.6875 -5.6875 C 11.6875 -4.800781 11.546875 -3.992188 11.265625 -3.265625 C 10.984375 -2.535156 10.578125 -1.90625 10.046875 -1.375 C 9.523438 -0.851562 8.894531 -0.445312 8.15625 -0.15625 C 7.425781 0.132812 6.613281 0.28125 5.71875 0.28125 C 4.820312 0.28125 4.003906 0.132812 3.265625 -0.15625 C 2.535156 -0.445312 1.90625 -0.851562 1.375 -1.375 C 0.851562 -1.90625 0.453125 -2.535156 0.171875 -3.265625 C -0.109375 -3.992188 -0.25 -4.800781 -0.25 -5.6875 C -0.25 -6.550781 -0.109375 -7.351562 0.171875 -8.09375 C 0.453125 -8.832031 0.851562 -9.46875 1.375 -10 C 1.90625 -10.53125 2.535156 -10.941406 3.265625 -11.234375 C 4.003906 -11.523438 4.820312 -11.671875 5.71875 -11.671875 C 6.613281 -11.671875 7.425781 -11.523438 8.15625 -11.234375 C 8.894531 -10.941406 9.523438 -10.53125 10.046875 -10 C 10.578125 -9.46875 10.984375 -8.832031 11.265625 -8.09375 C 11.546875 -7.351562 11.6875 -6.550781 11.6875 -5.6875 Z M 9.171875 -5.6875 C 9.171875 -6.195312 9.09375 -6.679688 8.9375 -7.140625 C 8.78125 -7.609375 8.550781 -8.003906 8.25 -8.328125 C 7.945312 -8.648438 7.578125 -8.90625 7.140625 -9.09375 C 6.710938 -9.289062 6.238281 -9.390625 5.71875 -9.390625 C 5.175781 -9.390625 4.691406 -9.289062 4.265625 -9.09375 C 3.835938 -8.90625 3.476562 -8.648438 3.1875 -8.328125 C 2.894531 -8.003906 2.671875 -7.609375 2.515625 -7.140625 C 2.359375 -6.679688 2.28125 -6.195312 2.28125 -5.6875 C 2.28125 -5.144531 2.359375 -4.65625 2.515625 -4.21875 C 2.671875 -3.78125 2.894531 -3.394531 3.1875 -3.0625 C 3.476562 -2.726562 3.835938 -2.46875 4.265625 -2.28125 C 4.691406 -2.09375 5.175781 -2 5.71875 -2 C 6.238281 -2 6.710938 -2.09375 7.140625 -2.28125 C 7.578125 -2.46875 7.945312 -2.726562 8.25 -3.0625 C 8.550781 -3.394531 8.78125 -3.78125 8.9375 -4.21875 C 9.09375 -4.65625 9.171875 -5.144531 9.171875 -5.6875 Z M 9.171875 -5.6875 "/></g></g></g><g fill="#000000" fill-opacity="1"><g transform="translate(410.977889, 21.695559)"><g><path d="M 11.109375 -8.703125 C 10.816406 -8.847656 10.507812 -8.957031 10.1875 -9.03125 C 9.875 -9.101562 9.515625 -9.140625 9.109375 -9.140625 C 8.546875 -9.140625 8.015625 -9.054688 7.515625 -8.890625 C 7.023438 -8.722656 6.601562 -8.472656 6.25 -8.140625 C 5.894531 -7.804688 5.613281 -7.390625 5.40625 -6.890625 C 5.207031 -6.390625 5.109375 -5.796875 5.109375 -5.109375 L 5.109375 -2.28125 L 7.671875 -2.28125 L 7.671875 0 L 0 0 L 0 -2.28125 L 2.578125 -2.28125 L 2.578125 -9.109375 L 0 -9.109375 L 0 -11.390625 L 5.109375 -11.390625 L 5.109375 -8.53125 C 5.523438 -9.675781 6.140625 -10.484375 6.953125 -10.953125 C 7.765625 -11.429688 8.726562 -11.671875 9.84375 -11.671875 C 10.195312 -11.671875 10.5625 -11.632812 10.9375 -11.5625 C 11.320312 -11.488281 11.703125 -11.359375 12.078125 -11.171875 Z M 11.109375 -8.703125 "/></g></g></g><g fill="#000000" fill-opacity="1"><g transform="translate(424.65228, 21.695559)"><g><path d="M 10.796875 -0.125 C 10.796875 0.65625 10.660156 1.351562 10.390625 1.96875 C 10.117188 2.582031 9.738281 3.097656 9.25 3.515625 C 8.769531 3.941406 8.203125 4.265625 7.546875 4.484375 C 6.890625 4.710938 6.160156 4.828125 5.359375 4.828125 C 3.378906 4.828125 1.6875 4.226562 0.28125 3.03125 L 1.484375 1.078125 C 2.648438 2.078125 3.941406 2.578125 5.359375 2.578125 C 6.234375 2.578125 6.9375 2.363281 7.46875 1.9375 C 8 1.507812 8.265625 0.835938 8.265625 -0.078125 L 8.265625 -1.296875 C 7.742188 -0.847656 7.242188 -0.515625 6.765625 -0.296875 C 6.285156 -0.078125 5.726562 0.03125 5.09375 0.03125 C 4.351562 0.03125 3.671875 -0.125 3.046875 -0.4375 C 2.421875 -0.75 1.878906 -1.171875 1.421875 -1.703125 C 0.972656 -2.234375 0.617188 -2.851562 0.359375 -3.5625 C 0.0976562 -4.28125 -0.03125 -5.035156 -0.03125 -5.828125 C -0.03125 -6.628906 0.0976562 -7.382812 0.359375 -8.09375 C 0.617188 -8.8125 0.972656 -9.429688 1.421875 -9.953125 C 1.878906 -10.484375 2.421875 -10.898438 3.046875 -11.203125 C 3.671875 -11.515625 4.351562 -11.671875 5.09375 -11.671875 C 5.726562 -11.671875 6.289062 -11.5625 6.78125 -11.34375 C 7.28125 -11.125 7.773438 -10.800781 8.265625 -10.375 L 8.265625 -11.390625 L 10.796875 -11.390625 Z M 8.265625 -8.359375 C 7.960938 -8.691406 7.570312 -8.945312 7.09375 -9.125 C 6.625 -9.300781 6.164062 -9.390625 5.71875 -9.390625 C 4.757812 -9.390625 3.984375 -9.054688 3.390625 -8.390625 C 2.796875 -7.722656 2.5 -6.867188 2.5 -5.828125 C 2.5 -5.316406 2.578125 -4.84375 2.734375 -4.40625 C 2.898438 -3.96875 3.125 -3.585938 3.40625 -3.265625 C 3.6875 -2.953125 4.023438 -2.703125 4.421875 -2.515625 C 4.816406 -2.335938 5.25 -2.25 5.71875 -2.25 C 6.164062 -2.25 6.625 -2.335938 7.09375 -2.515625 C 7.570312 -2.703125 7.960938 -2.960938 8.265625 -3.296875 Z M 8.265625 -8.359375 "/></g></g></g></g></g></svg>