<svg width="497" height="434" viewBox="0 0 497 434" fill="none" xmlns="http://www.w3.org/2000/svg">
<path d="M133.501 73.9998C171.95 -13.6133 338.5 32.5002 360.5 82C382.5 131.5 392.404 211.587 336.404 282.087C280.653 352.274 209.838 369.087 151.404 282.087C106.403 215.087 103 143.5 133.501 73.9998Z" fill="#322222"/>
<path d="M182.963 15.9902C182.734 18.5988 182.918 21.3217 183.151 23.9854C183.385 26.6642 183.665 29.2725 183.651 31.7178V31.7188C183.491 62.2403 184.34 92.7986 182.982 123.256C179.221 123.2 175.461 123.055 171.69 122.91C167.862 122.764 164.023 122.619 160.17 122.574C152.108 105.522 145.663 87.6335 140.284 69.5186C143.648 66.0802 146.695 62.3539 149.783 58.7148C152.943 54.9925 156.155 51.3538 159.839 48.1465C160.672 47.4222 162.4 46.2007 164.566 44.7412C166.722 43.288 169.284 41.6175 171.762 40.002C174.238 38.388 176.633 36.8275 178.449 35.5986C179.357 34.9847 180.126 34.4499 180.691 34.0303C180.973 33.8208 181.21 33.6352 181.39 33.4805C181.48 33.4033 181.561 33.3296 181.628 33.2607C181.689 33.1981 181.761 33.1167 181.814 33.0254C182.337 32.1191 182.579 30.8677 182.682 29.5029C182.786 28.1252 182.753 26.5655 182.683 25.0049C182.612 23.4256 182.505 21.8774 182.454 20.4375C182.404 19.0029 182.413 17.7515 182.565 16.8174L182.602 16.585L182.448 16.4082C182.395 16.3482 182.341 16.2924 182.285 16.2402C182.515 16.101 182.745 15.9625 182.977 15.8252L182.963 15.9902ZM352.956 65.0791L333.073 122.574C329.233 122.62 325.411 122.767 321.599 122.914C317.835 123.06 314.081 123.204 310.317 123.256L309.724 30.6543C309.739 31.0342 309.762 31.3847 309.794 31.6973C309.845 32.1981 309.922 32.6426 310.045 32.958V32.959C310.091 33.0744 310.165 33.1709 310.223 33.2383C310.287 33.3131 310.365 33.3909 310.449 33.4688C310.619 33.6247 310.844 33.8072 311.111 34.0098C311.645 34.416 312.38 34.9281 313.25 35.5117C314.992 36.6801 317.305 38.155 319.704 39.6807C322.106 41.208 324.597 42.7872 326.705 44.1699C328.558 45.3853 330.093 46.4338 331.012 47.1572L331.366 47.4473C338.383 53.4361 344.467 60.8816 350.041 68.2861L350.173 68.4609L350.39 68.4834C350.648 68.5099 350.871 68.4104 351.036 68.2979C351.203 68.1841 351.356 68.0276 351.494 67.8564C351.772 67.5127 352.054 67.0318 352.33 66.4775C352.538 66.0604 352.747 65.588 352.956 65.0791ZM355.788 56.8955L354.362 61.0205C354.699 59.875 354.988 58.7405 355.192 57.7451C355.294 57.2422 355.376 56.7704 355.431 56.3477C355.544 56.5242 355.661 56.7026 355.788 56.8955ZM309.629 15.8486C309.926 16.2309 310.193 16.5964 310.404 16.8818C310.502 17.0156 310.592 17.1358 310.664 17.2285C310.358 18.7997 310.015 22.0688 309.832 25.2158C309.77 26.288 309.727 27.3522 309.709 28.3369L309.631 16.0312L309.629 15.8486ZM243.507 0.529297C266.77 0.0798879 290.189 4.7243 307.858 14.0459L307.86 14.0469C308.083 14.1638 308.369 14.4041 308.692 14.7412C308.955 15.0158 309.219 15.3352 309.474 15.6553L309.383 15.6025L308.079 14.8584C294.557 7.2952 279.313 3.67537 264.058 1.93945H264.057C250.37 0.388474 235.984 0.324262 222.013 2.44238C229.038 1.30388 236.262 0.669277 243.507 0.529297Z" fill="black" stroke="#2B0B0B"/>
<path d="M181.412 16.8494C181.419 16.8504 181.458 16.8589 181.531 16.9177C181.401 17.9155 181.398 19.1509 181.444 20.4724C181.493 21.9061 181.602 23.5154 181.67 25.0496C181.739 26.6023 181.77 28.1124 181.671 29.4275C181.571 30.7552 181.343 31.8214 180.938 32.5271H180.937C180.948 32.5076 180.946 32.5176 180.902 32.5632C180.863 32.6033 180.806 32.6562 180.729 32.7224C180.574 32.8549 180.358 33.0238 180.084 33.2273C179.538 33.6334 178.783 34.1586 177.879 34.7703C176.071 35.9933 173.684 37.5489 171.205 39.1648C168.729 40.7792 166.161 42.4536 163.997 43.9119C162.112 45.1824 160.511 46.3032 159.546 47.0808L159.173 47.3923C155.428 50.6526 152.177 54.3404 149.015 58.0671C146.036 61.5785 143.141 65.1168 139.965 68.405C139.764 67.6584 139.577 66.8802 139.389 66.0828C139.131 64.9876 138.871 63.8547 138.573 62.7419C138.009 60.6401 137.298 58.5581 136.157 56.8308C139.607 51.8855 147.743 42.7334 156.434 34.4773C160.859 30.2734 165.417 26.3134 169.559 23.2673C173.72 20.2069 177.399 18.1177 180.079 17.5789C180.384 17.5178 180.629 17.3649 180.812 17.2351C180.902 17.1709 180.994 17.1 181.065 17.0466C181.141 16.9888 181.203 16.9451 181.259 16.9109C181.372 16.8417 181.408 16.8487 181.412 16.8494Z" fill="#0B0101" stroke="#2B0B0B"/>
<path d="M311.553 17.8779C328.728 27.8356 342.612 38.5918 354.476 54.9648C354.502 55.1313 354.509 55.4131 354.471 55.8223C354.427 56.2957 354.333 56.8827 354.197 57.5449C353.925 58.868 353.494 60.4601 352.998 61.9912C352.5 63.5247 351.943 64.9794 351.419 66.0322C351.156 66.5618 350.913 66.9677 350.703 67.2285C350.66 67.2818 350.619 67.3243 350.584 67.3604C345.065 60.0478 339.005 52.67 332.006 46.6865H332.005C331.11 45.9217 329.354 44.7143 327.249 43.332C325.133 41.9435 322.634 40.3593 320.234 38.833C317.832 37.3052 315.53 35.8366 313.799 34.6768C312.933 34.0963 312.217 33.5976 311.706 33.21C311.449 33.0156 311.252 32.8554 311.116 32.7305C311.047 32.6679 311.001 32.6196 310.972 32.5859C310.966 32.5789 310.962 32.5727 310.958 32.5684C310.891 32.3824 310.826 32.0601 310.779 31.5957C310.731 31.1221 310.703 30.5385 310.694 29.875C310.675 28.5484 310.727 26.9277 310.824 25.2744C310.99 22.4178 311.286 19.5067 311.553 17.8779Z" fill="#0B0101" stroke="#2B0B0B"/>
<path d="M269.688 3.69067C282.441 5.56698 294.986 8.96047 306.336 15.0588L269.688 3.69067ZM307.191 15.5266C307.67 15.7912 308.147 16.0606 308.622 16.3352L309.307 123.27C267.502 123.784 225.786 123.793 183.981 123.27C185.335 92.8984 184.498 62.393 184.649 32.0276C221.443 13.2173 269.61 13.0827 306.468 31.4758L307.191 31.8372V15.5266Z" fill="black" stroke="#2B0B0B"/>
<path d="M183.939 16.3354C207.562 2.63129 237.019 -0.110374 263.89 2.93799L306.191 16.061V30.2231C269.296 12.123 221.423 12.3027 184.644 30.9087C184.603 28.6421 184.353 26.2564 184.147 23.894C183.923 21.3222 183.752 18.7668 183.939 16.3354Z" fill="black" stroke="#2B0B0B"/>
<path d="M329.239 298.093C331.079 300.105 333.75 303.623 336.518 307.023C337.98 308.819 339.464 310.574 340.846 312.025C342.219 313.466 343.527 314.647 344.64 315.257C345.299 315.618 346.389 316.022 347.673 316.441C348.969 316.864 350.501 317.312 352.067 317.758C354.897 318.562 357.823 319.354 359.735 319.971C333.962 360.514 293.528 386.009 249.912 404.012V356.435C257.037 356.213 268.086 354.63 274.871 352.954H274.872C299.028 346.97 311.239 326.8 322.398 306.695L321.605 306.101C313.838 313.986 303.481 323.788 292.282 332.108C281.422 340.176 269.817 346.814 259.044 348.997L258.004 349.194C241.672 352.069 224.096 346.921 208.186 337.874C194.019 329.818 181.221 318.693 171.865 307.488C198.602 329.843 224.412 339.89 249.913 338.522C276.559 337.093 302.763 323.202 329.239 298.093Z" fill="#030916" stroke="#2B0B0B"/>
<path d="M436.218 344.969C436.205 344.969 436.225 344.968 436.297 344.982C436.361 344.995 436.447 345.015 436.556 345.044C436.773 345.102 437.062 345.191 437.416 345.306C438.123 345.538 439.067 345.873 440.176 346.281C442.392 347.097 445.248 348.2 448.139 349.344C453.937 351.637 459.818 354.071 460.969 354.674C464.496 356.52 469.715 360.021 472.286 362.927L472.435 363.095H472.441C475.897 367.067 478.829 372.727 481.306 378.699C483.783 384.674 485.787 390.92 487.402 396.028C486.974 396.899 486.162 398.228 485.145 399.807C484.062 401.487 482.773 403.416 481.514 405.331C480.258 407.241 479.034 409.135 478.095 410.729C477.625 411.526 477.222 412.256 476.921 412.879C476.626 413.489 476.407 414.04 476.337 414.467V414.468C476.159 415.566 476.2 417.022 476.33 418.626C476.46 420.237 476.685 422.048 476.889 423.865C477.094 425.689 477.278 427.525 477.337 429.213C477.39 430.732 477.336 432.103 477.115 433.223C469.1 433.34 461.079 433.187 453.054 433.218L455.81 376.218L455.825 375.903L455.547 375.754L418.138 355.606C420.047 354.455 423.781 352.073 427.37 349.863C429.462 348.575 431.512 347.341 433.145 346.428C433.962 345.972 434.669 345.599 435.22 345.342C435.496 345.213 435.725 345.116 435.906 345.052C435.996 345.021 436.069 344.999 436.126 344.985C436.154 344.978 436.177 344.974 436.193 344.971C436.201 344.97 436.207 344.969 436.212 344.969H436.218Z" fill="#030916" stroke="#2B0B0B"/>
<path d="M244.551 433.353C246.161 433.353 247.801 433.353 249.411 433.353V355.953C247.991 355.983 245.961 355.993 244.551 355.953" stroke="#2B0B0B"/>
<path d="M490.463 405.169C492.813 414.301 494.294 423.547 496.389 432.792C496.349 432.799 496.306 432.809 496.259 432.817C495.939 432.869 495.491 432.91 494.942 432.941C493.848 433.002 492.408 433.019 490.913 433.016C488.343 433.011 485.585 432.944 484.266 432.943C483.987 422.386 483.198 413.188 490.463 405.169Z" fill="#030916" stroke="#2B0B0B"/>
<path d="M487.843 397.376C488.189 398.397 488.558 399.409 488.915 400.415C489.372 401.705 489.811 402.993 490.172 404.316C482.111 412.794 482.983 422.616 483.267 433.258C482.406 433.27 481.538 433.265 480.664 433.257C479.828 433.249 478.986 433.239 478.145 433.243C478.355 432.053 478.397 430.668 478.346 429.208C478.285 427.478 478.094 425.609 477.889 423.783C477.682 421.949 477.461 420.165 477.333 418.575C477.204 416.978 477.175 415.627 477.334 414.658C477.379 414.384 477.542 413.944 477.832 413.344C478.116 412.755 478.504 412.053 478.967 411.267C479.893 409.696 481.105 407.82 482.36 405.91C483.613 404.005 484.91 402.064 485.995 400.38C486.724 399.248 487.367 398.215 487.843 397.376Z" fill="black" stroke="#2B0B0B"/>
<path d="M138.637 320.958C136.42 321.669 130.195 323.373 124.299 325.051C121.152 325.947 118.092 326.839 115.76 327.578C114.593 327.947 113.615 328.276 112.902 328.546C112.582 328.668 112.322 328.776 112.126 328.868L116.992 336.017C130.745 348.191 147.114 367.333 160.236 382.873L165.646 389.285C173.572 398.666 181.918 408.293 188.267 418.93L189.243 420.566L187.589 419.621C169.643 409.358 151.969 398.606 134.294 387.882C116.695 377.205 99.0942 366.553 81.2051 356.429L43.5146 376.677L46.2588 433.302C66.5547 433.408 86.8953 433.302 107.196 433.3L115.099 394.729L115.238 394.05L115.839 394.396L182.058 432.609C193.334 432.591 204.643 432.793 215.951 432.985C227.14 433.175 238.33 433.354 249.5 433.301V405.597C205.545 387.541 164.658 361.912 138.637 320.958Z" fill="black" stroke="#2B0B0B"/>
<path d="M362.51 320.952C364.758 321.66 371.115 323.367 377.137 325.048C380.344 325.944 383.464 326.835 385.841 327.574C387.03 327.943 388.027 328.273 388.754 328.543C389.081 328.665 389.345 328.774 389.546 328.866L384.588 336.011C368.566 349.926 349.06 372.94 334.994 389.277C326.916 398.658 318.41 408.285 311.938 418.922L310.947 420.551L312.61 419.619C330.907 409.354 348.911 398.264 366.914 387.204C384.841 376.19 402.768 365.205 421 355.08L459.486 376.667L456.688 433.297C435.992 433.403 415.249 433.298 394.548 433.296L385.989 395.072L385.842 394.414L385.255 394.746L318.26 432.605C306.764 432.587 295.236 432.789 283.708 432.981C272.299 433.171 260.89 433.35 249.501 433.297V405.596C294.306 387.54 335.985 361.909 362.51 320.952Z" fill="black" stroke="#2B0B0B"/>
<path d="M169.733 297.972C167.892 299.984 165.221 303.503 162.453 306.903C160.991 308.699 159.508 310.454 158.125 311.905C156.753 313.345 155.444 314.526 154.331 315.136C153.673 315.498 152.582 315.902 151.298 316.321C150.002 316.743 148.471 317.192 146.905 317.637C144.075 318.442 141.148 319.233 139.237 319.851C165.009 360.393 205.444 385.889 249.06 403.892V356.315C241.934 356.093 230.885 354.51 224.101 352.833H224.1C199.943 346.85 187.732 326.68 176.573 306.575L177.366 305.981C185.133 313.866 195.49 323.668 206.69 331.988C217.55 340.056 229.154 346.694 239.927 348.876L240.967 349.074C257.299 351.948 274.876 346.801 290.785 337.753C304.952 329.697 317.75 318.573 327.107 307.368C300.369 329.723 274.559 339.77 249.059 338.402C222.412 336.972 196.209 323.081 169.733 297.972Z" fill="#030916" stroke="#2B0B0B"/>
<path d="M169.378 298.284C169.556 298.501 169.745 298.773 169.944 299.095C170.236 299.569 170.531 300.111 170.846 300.678C171.456 301.777 172.152 303.003 172.96 303.714L172.978 303.73L179.24 308.746C179.235 308.804 179.24 308.858 179.248 308.903C179.277 309.064 179.364 309.195 179.422 309.274C179.49 309.365 179.574 309.458 179.663 309.549C180.014 309.904 180.614 310.387 181.238 310.89C181.875 311.404 182.557 311.954 183.115 312.467C183.393 312.723 183.632 312.963 183.814 313.177C184.002 313.398 184.102 313.561 184.14 313.664C184.26 313.994 184.49 314.336 184.777 314.68C185.068 315.03 185.442 315.41 185.881 315.811C186.759 316.613 187.925 317.53 189.277 318.518C191.981 320.494 195.469 322.78 198.976 325.032C202.489 327.289 206.018 329.508 208.826 331.365C210.23 332.292 211.447 333.124 212.385 333.82C213.341 334.528 213.959 335.06 214.214 335.39L214.309 335.512L214.455 335.56C229.212 340.332 237.94 342.777 242.983 344.029C245.504 344.654 247.107 344.982 248.085 345.155C248.471 345.223 248.761 345.265 248.971 345.293V403.865C205.811 386.893 164.073 359.871 139.338 319.646C141.182 319.059 144.16 318.245 147.034 317.419C148.632 316.96 150.194 316.498 151.494 316.073C152.779 315.654 153.853 315.256 154.446 314.921C155.556 314.295 156.774 313.059 158.026 311.58C159.287 310.089 160.63 308.294 161.98 306.506C163.335 304.711 164.699 302.921 166.021 301.412C167.217 300.047 168.349 298.947 169.378 298.284Z" fill="#030916" stroke="#2B0B0B"/>
<path d="M329.112 297.914C328.98 298.114 328.852 298.373 328.725 298.694C328.528 299.193 328.357 299.773 328.167 300.391C327.982 300.998 327.779 301.637 327.527 302.208C327.276 302.777 326.956 303.323 326.512 303.714L326.49 303.734L326.466 303.75L319.675 308.452C319.674 308.455 319.674 308.458 319.673 308.461C319.646 308.602 319.571 308.699 319.536 308.74C319.459 308.833 319.354 308.915 319.266 308.977C319.169 309.046 319.051 309.121 318.921 309.2C318.409 309.51 317.584 309.947 316.731 310.417C315.864 310.893 314.953 311.409 314.227 311.896C313.863 312.14 313.558 312.368 313.332 312.573C313.094 312.789 312.996 312.933 312.971 313.001C312.747 313.616 312.142 314.358 311.35 315.159C310.539 315.979 309.466 316.923 308.226 317.942C305.744 319.981 302.552 322.35 299.34 324.685C296.122 327.025 292.888 329.326 290.299 331.246C289.006 332.204 287.88 333.063 287.004 333.777C286.115 334.502 285.522 335.049 285.258 335.39L285.163 335.512L285.017 335.56C270.259 340.333 261.281 342.807 255.987 344.089C253.34 344.73 251.611 345.074 250.54 345.257C250.081 345.336 249.742 345.383 249.503 345.414C249.512 353.875 249.756 364.596 250.001 375.19C250.244 385.64 250.485 395.968 250.499 403.867C293.682 386.892 336.995 359.859 361.741 319.64C359.836 319.056 356.5 318.243 353.257 317.417C351.459 316.96 349.695 316.5 348.244 316.077C346.815 315.66 345.63 315.261 345.028 314.921L345.027 314.922C343.921 314.299 342.641 313.042 341.298 311.53C339.944 310.005 338.477 308.164 337.002 306.328C335.522 304.485 334.031 302.644 332.615 301.098C331.338 299.705 330.151 298.584 329.112 297.914Z" fill="#030916" stroke="#2B0B0B"/>
<path d="M170.408 298.284C170.586 298.501 170.775 298.773 170.974 299.095C171.266 299.569 171.562 300.111 171.876 300.678C172.486 301.777 173.183 303.003 173.99 303.714L174.008 303.73L180.27 308.746C180.266 308.804 180.27 308.858 180.279 308.903C180.308 309.064 180.394 309.195 180.452 309.274C180.52 309.365 180.604 309.458 180.694 309.549C181.044 309.904 181.645 310.387 182.268 310.89C182.905 311.404 183.588 311.954 184.145 312.467C184.423 312.723 184.662 312.963 184.844 313.177C185.032 313.398 185.132 313.561 185.17 313.664C185.29 313.994 185.52 314.336 185.807 314.68C186.098 315.03 186.472 315.41 186.911 315.811C187.789 316.613 188.955 317.53 190.307 318.518C193.011 320.494 196.499 322.78 200.006 325.032C203.519 327.289 207.048 329.508 209.857 331.365C211.26 332.292 212.477 333.124 213.415 333.82C214.371 334.528 214.989 335.06 215.244 335.39L215.339 335.512L215.486 335.56C230.243 340.333 239.222 342.807 244.516 344.089C247.163 344.73 248.891 345.074 249.962 345.257C250.421 345.336 250.76 345.383 250.999 345.414C250.991 353.876 250.747 364.596 250.501 375.19C250.259 385.64 250.018 395.968 250.003 403.866C206.82 386.891 163.508 359.859 138.762 319.64C140.668 319.056 144.003 318.243 147.245 317.418C149.044 316.96 150.807 316.5 152.258 316.076C153.688 315.659 154.874 315.261 155.476 314.921C156.586 314.295 157.805 313.059 159.056 311.58C160.317 310.089 161.66 308.294 163.01 306.506C164.365 304.711 165.73 302.921 167.051 301.412C168.248 300.047 169.38 298.947 170.408 298.284Z" fill="#030916" stroke="#2B0B0B"/>
<path d="M61.7788 344.115C61.7916 344.115 61.7729 344.114 61.7007 344.128C61.6363 344.141 61.5501 344.161 61.4409 344.191C61.2229 344.25 60.9332 344.339 60.5786 344.456C59.8703 344.69 58.9234 345.03 57.812 345.443C55.5905 346.268 52.7266 347.385 49.8286 348.542C44.3789 350.719 38.8574 353.02 37.2378 353.801L36.9673 353.937C33.4313 355.805 28.1992 359.349 25.6206 362.291L25.4712 362.462H25.4634C21.9987 366.483 19.0582 372.212 16.5757 378.257C14.0915 384.306 12.0816 390.63 10.4624 395.801C10.8916 396.683 11.707 398.03 12.729 399.631C13.8142 401.331 15.1067 403.283 16.3687 405.221C17.6276 407.154 18.8546 409.072 19.7964 410.686C20.267 411.492 20.6704 412.23 20.9722 412.86C21.2683 413.478 21.4872 414.034 21.5571 414.464V414.465C21.7353 415.576 21.6939 417.048 21.564 418.671C21.4335 420.301 21.209 422.135 21.0044 423.974C20.799 425.82 20.613 427.679 20.5542 429.388C20.5012 430.927 20.5552 432.317 20.7778 433.453C28.8139 433.571 36.8559 433.417 44.9019 433.448L42.1392 375.749L42.1235 375.436L42.3989 375.285L79.9146 354.887C78.004 353.724 74.253 351.31 70.6479 349.069C68.5503 347.765 66.4961 346.516 64.8589 345.592C64.0395 345.13 63.3314 344.753 62.7788 344.492C62.5021 344.362 62.2717 344.263 62.0903 344.198C62.0003 344.166 61.9274 344.145 61.8706 344.131C61.8424 344.124 61.8197 344.12 61.8032 344.117C61.7952 344.116 61.7891 344.115 61.7847 344.115H61.7788Z" fill="#030916" stroke="#2B0B0B"/>
<path d="M107.853 433.228C119.989 433.222 132.182 433.063 144.376 432.897C156.158 432.738 167.941 432.574 179.669 432.541L115.571 395.463L107.853 433.228Z" fill="black" stroke="#2B0B0B"/>
<path d="M393.375 433.344C380.956 433.338 368.478 433.18 356 433.014C343.944 432.853 331.887 432.689 319.886 432.655L385.477 395.451L393.375 433.344Z" fill="black" stroke="#2B0B0B"/>
<path d="M254.42 433.233C252.81 433.233 251.17 433.233 249.56 433.233V355.833C250.98 355.863 253.01 355.873 254.42 355.833" stroke="#2B0B0B"/>
<path d="M7.2583 405.897C4.97787 414.949 3.53873 424.115 1.50439 433.279C1.53981 433.286 1.5782 433.295 1.62061 433.302C1.93003 433.354 2.3648 433.394 2.89795 433.425C3.96059 433.485 5.36009 433.503 6.81299 433.5C9.30015 433.494 11.9709 433.428 13.2593 433.427C13.5297 422.964 14.2943 413.846 7.2583 405.897Z" fill="#030916" stroke="#2B0B0B"/>
<path d="M9.81201 397.128C9.46637 398.163 9.09806 399.187 8.7417 400.206C8.2838 401.515 7.84551 402.823 7.48389 404.166C15.5444 412.755 14.6701 422.705 14.3872 433.492C15.2476 433.505 16.1144 433.499 16.9878 433.491C17.8234 433.483 18.6659 433.473 19.5073 433.477C19.296 432.27 19.2537 430.865 19.3052 429.382C19.366 427.631 19.5566 425.737 19.7622 423.887C19.9687 422.03 20.1898 420.222 20.3179 418.611C20.4465 416.993 20.4754 415.623 20.3159 414.639C20.2706 414.36 20.108 413.912 19.8179 413.304C19.5334 412.708 19.146 411.996 18.6831 411.2C17.7576 409.608 16.5464 407.707 15.2915 405.772C14.0396 403.842 12.7417 401.875 11.6567 400.168C10.9285 399.023 10.2869 397.978 9.81201 397.128Z" fill="black" stroke="#2B0B0B"/>
<path d="M387.821 329.353C388.538 328.998 389.467 328.904 390.737 329.368L390.754 329.374L390.77 329.379C394.706 330.523 398.689 331.968 402.682 333.422C406.669 334.873 410.667 336.332 414.609 337.492C420.108 339.116 425.85 341.244 431.251 343.059V343.06C432.722 343.556 434.294 343.523 435.505 343.392C436.114 343.326 436.643 343.234 437.029 343.167C437.226 343.132 437.376 343.106 437.486 343.091C437.52 343.086 437.546 343.084 437.565 343.082C443.342 345.094 450.557 348.018 457.228 351.636C458.953 352.572 460.637 353.554 462.249 354.575C462.244 354.572 462.238 354.569 462.232 354.566C461.03 353.937 455.094 351.287 449.315 348.806C446.42 347.564 443.555 346.359 441.327 345.466C440.214 345.019 439.255 344.649 438.531 344.39C438.17 344.261 437.861 344.158 437.617 344.087C437.496 344.051 437.385 344.021 437.289 344.001C437.245 343.991 437.197 343.982 437.146 343.975L436.995 343.965C436.802 343.967 436.583 344.026 436.376 344.096C436.157 344.171 435.901 344.277 435.618 344.406C435.052 344.665 434.347 345.032 433.552 345.47C431.96 346.348 429.977 347.531 427.964 348.761C424.425 350.924 420.81 353.222 418.989 354.314L418.324 354.705C400.342 364.898 382.658 375.624 364.992 386.37C347.881 396.778 330.786 407.202 313.443 417.182C318.787 408.573 325.394 400.608 331.958 392.818L334.943 389.276C348.765 372.873 367.846 349.871 383.492 335.992C383.755 335.76 383.97 335.431 384.158 335.087C384.349 334.736 384.534 334.325 384.719 333.899C385.096 333.032 385.485 332.086 385.99 331.242C386.495 330.399 387.083 329.719 387.821 329.353Z" fill="black" stroke="#2B0B0B"/>
<path d="M112.181 329.353C111.464 328.998 110.535 328.904 109.265 329.368L109.248 329.374L109.232 329.379C105.296 330.523 101.313 331.968 97.3203 333.422C93.3334 334.873 89.3352 336.332 85.3926 337.492C79.8939 339.116 74.1521 341.244 68.751 343.059V343.06C67.28 343.556 65.7076 343.523 64.4971 343.392C63.888 343.326 63.3588 343.234 62.9727 343.167C62.7756 343.132 62.6259 343.106 62.5156 343.091C62.4815 343.086 62.4556 343.084 62.4365 343.082C56.6387 345.098 49.0483 347.775 42.002 351.146C37.235 353.427 32.7526 356.011 29.248 358.901C29.6333 358.676 30.0227 358.453 30.4141 358.236C32.8932 356.863 35.5239 355.611 37.2695 354.697C38.4724 354.068 44.5343 351.385 50.4375 348.872C53.3953 347.613 56.3243 346.392 58.5986 345.486C59.7351 345.034 60.7126 344.658 61.4502 344.395C61.8181 344.264 62.1321 344.16 62.3789 344.088C62.5022 344.052 62.615 344.022 62.7119 344.001C62.7556 343.991 62.8043 343.982 62.8545 343.975L63.0068 343.965C63.1995 343.967 63.4187 344.026 63.626 344.096C63.8454 344.171 64.1012 344.277 64.3838 344.406C64.9499 344.665 65.6551 345.032 66.4502 345.47C68.042 346.348 70.025 347.531 72.0381 348.761C75.5768 350.924 79.1916 353.222 81.0127 354.314L81.6777 354.705C99.6616 364.898 117.221 375.674 134.762 386.467C151.754 396.923 168.73 407.393 186.066 417.377C180.356 408.088 173.529 399.41 166.541 391.044L165.059 389.276C151.237 372.873 132.156 349.871 116.51 335.992C116.247 335.76 116.032 335.431 115.844 335.087C115.653 334.736 115.468 334.325 115.283 333.899C114.906 333.032 114.517 332.086 114.012 331.242C113.507 330.399 112.918 329.719 112.181 329.353Z" fill="black" stroke="#2B0B0B"/>
<path d="M135.553 57.7214C136.474 59.243 137.097 61.0654 137.614 62.991C137.907 64.0851 138.163 65.199 138.424 66.3025C138.659 67.2991 138.901 68.2861 139.17 69.2253L139.157 69.239L139.241 69.5242C144.61 87.613 151.034 105.494 159.057 122.557C154.847 122.462 147.795 121.948 140.908 121.611C137.247 121.432 133.639 121.304 130.557 121.318C127.681 121.331 125.219 121.468 123.593 121.819L123.28 121.892C122.697 122.037 122.05 122.442 121.426 122.941C120.79 123.451 120.131 124.099 119.525 124.79C118.918 125.481 118.354 126.224 117.913 126.928C117.533 127.536 117.225 128.143 117.07 128.677L117.012 128.901C116.796 129.894 116.697 131.367 116.682 133.176C116.667 134.994 116.737 137.183 116.872 139.621C117.142 144.498 117.671 150.395 118.294 156.364C119.54 168.302 121.166 180.55 121.866 185.555C123.375 196.359 125.428 211.498 128.127 221.867C139.285 264.778 182.706 287.599 229.376 291.819C276.047 296.039 326.25 281.692 351.174 249.939V249.938C354.963 245.109 358.182 237.949 360.908 229.577C363.638 221.195 365.885 211.559 367.715 201.747C371.375 182.123 373.369 161.761 374.19 149.255C374.406 145.95 375.265 139.702 374.983 134.061C374.841 131.236 374.414 128.506 373.45 126.332C372.482 124.145 370.95 122.478 368.603 121.892C367.069 121.509 364.577 121.366 361.628 121.356C358.664 121.346 355.187 121.471 351.657 121.644C344.989 121.972 338.156 122.467 334.127 122.557L356.473 57.946C388.509 106.45 381.713 166.574 369.733 220.921C366.107 237.356 362.041 250.529 355.819 262.514C349.598 274.496 341.21 285.311 328.916 297.011C302.413 322.244 276.308 336.085 249.869 337.504C223.439 338.922 196.569 327.931 168.522 303.275C167.025 301.958 164.873 300.232 163.675 299.099C136.909 273.794 119.486 228.65 114.018 182.096C108.587 135.856 114.968 88.3747 135.553 57.7214Z" fill="black" stroke="#2B0B0B"/>
<path d="M122.5 341.5C122.5 341.5 116.683 327.712 112.5 327.999C111.697 328.054 111.268 328.258 110.5 328.499C109.497 328.814 108.5 329.499 108.5 329.499L122.5 341.5Z" fill="black"/>
<path d="M375 344C375 344 384.817 327.712 389 327.998C389.803 328.053 390.232 328.258 391 328.499C392.003 328.813 393 330 393 330L375 344Z" fill="black"/>
<path d="M357.343 133H133.376C129.006 133 125.464 136.487 125.538 140.856C125.892 161.628 128.54 218.172 146.501 244C170.532 278.557 202.409 284 244.501 284C288.501 284 322.709 282.488 347.501 244C364.461 217.67 365.427 161.161 365.182 140.644C365.131 136.362 361.625 133 357.343 133Z" fill="black"/>
<path d="M220 133L208.492 281.764C191.373 279.109 176.395 273.584 163.304 262.646L170.681 133H220Z" fill="#130202"/>
<rect x="1" y="432" width="496" height="2" fill="black"/>
</svg>
