<?xml version="1.0" encoding="UTF-8"?>
<svg version="1.1" xmlns="http://www.w3.org/2000/svg" viewBox="0 0 993 996">
<path d="M0 0 C0.95769791 -0.00979385 1.91539581 -0.01958771 2.90211487 -0.02967834 C23.51506558 -0.19707192 43.56027456 -0.20439578 63.7890625 4.23828125 C65.32626953 4.56771729 65.32626953 4.56771729 66.89453125 4.90380859 C113.85185066 15.20671113 156.22382903 37.88303261 190.7890625 71.23828125 C191.37751953 71.80482422 191.96597656 72.37136719 192.57226562 72.95507812 C200.17962016 80.31834642 207.35409765 87.80744495 213.7890625 96.23828125 C214.19656738 96.76405762 214.60407227 97.28983398 215.02392578 97.83154297 C247.69372418 140.14402314 267.16985689 191.64257561 268.7890625 245.23828125 C269.75827637 245.21000244 269.75827637 245.21000244 270.74707031 245.18115234 C278.14812702 245.0613558 285.22768166 245.75397931 292.5390625 246.86328125 C293.71283447 247.04076904 294.88660645 247.21825684 296.09594727 247.40112305 C342.92459523 254.84732984 387.41386242 275.6568004 422.7890625 307.23828125 C424.05363281 308.33849609 424.05363281 308.33849609 425.34375 309.4609375 C436.04756318 318.88234495 446.12318451 328.89612794 454.7890625 340.23828125 C455.30581543 340.90569336 455.82256836 341.57310547 456.35498047 342.26074219 C465.19325362 353.72402029 472.93658 365.48869702 479.7890625 378.23828125 C480.15725098 378.91955078 480.52543945 379.60082031 480.90478516 380.30273438 C493.62996406 404.10016706 501.92016613 429.75201713 506.7890625 456.23828125 C507.03897949 457.59107178 507.03897949 457.59107178 507.29394531 458.97119141 C513.47099277 494.23663315 510.84562646 531.76762544 501.7890625 566.23828125 C501.57411133 567.06602051 501.35916016 567.89375977 501.13769531 568.74658203 C490.40809975 609.2191297 468.76571324 646.15276432 439.7890625 676.23828125 C438.84087646 677.22731445 438.84087646 677.22731445 437.87353516 678.23632812 C428.72908771 687.7245843 419.43172241 696.46448565 408.7890625 704.23828125 C407.63801233 705.09634277 406.48697073 705.95441576 405.3359375 706.8125 C397.14319756 712.85125314 388.6181623 718.18541288 379.7890625 723.23828125 C378.66628906 723.89441406 377.54351563 724.55054688 376.38671875 725.2265625 C344.15445166 743.31868992 308.25615104 751.70210541 271.7890625 755.23828125 C271.72436768 755.93050781 271.65967285 756.62273438 271.59301758 757.3359375 C267.07794072 804.40125372 253.78292648 849.51812516 225.7890625 888.23828125 C225.05171875 889.26824219 224.314375 890.29820312 223.5546875 891.359375 C221.351393 894.36351236 219.09191835 897.30986185 216.7890625 900.23828125 C216.04011719 901.19347656 215.29117188 902.14867187 214.51953125 903.1328125 C202.23486302 918.20329526 188.22505103 932.61881434 172.44287109 944.02880859 C170.71541479 945.29214171 169.02727733 946.59783597 167.33984375 947.9140625 C157.12350774 955.78857299 146.15824125 962.17596111 134.7890625 968.23828125 C133.96196777 968.68059082 133.13487305 969.12290039 132.28271484 969.57861328 C96.75984496 988.25660763 56.54969803 996.92994948 16.6015625 996.67578125 C15.5792453 996.67273987 14.5569281 996.66969849 13.50363159 996.66656494 C-2.71140246 996.59548447 -18.32318655 995.72757317 -34.2109375 992.23828125 C-35.74814453 991.90884521 -35.74814453 991.90884521 -37.31640625 991.57275391 C-79.590887 982.29731271 -118.86196742 963.11807209 -151.2109375 934.23828125 C-152.05398438 933.50480469 -152.89703125 932.77132812 -153.765625 932.015625 C-164.49804736 922.56903599 -174.42583624 912.5288807 -183.2109375 901.23828125 C-183.98695313 900.27921875 -184.76296875 899.32015625 -185.5625 898.33203125 C-219.29589657 855.9243327 -235.90458472 804.79850817 -239.2109375 751.23828125 C-240.32432495 751.25785889 -240.32432495 751.25785889 -241.46020508 751.27783203 C-297.73167801 751.83934352 -357.63899488 725.56053681 -398.2109375 687.23828125 C-399.49821668 686.1290026 -400.78982034 685.02472034 -402.0859375 683.92578125 C-411.36684893 675.80732741 -419.63643503 666.95930397 -427.2109375 657.23828125 C-428.21842265 655.98281015 -429.22625827 654.72762025 -430.234375 653.47265625 C-442.28725744 638.28971958 -452.02371065 621.79065654 -460.2109375 604.23828125 C-460.50806641 603.61066895 -460.80519531 602.98305664 -461.11132812 602.33642578 C-474.77525022 573.27454354 -483.23482962 540.12861996 -483.4140625 507.91796875 C-483.42112213 507.06478058 -483.42818176 506.21159241 -483.43545532 505.33255005 C-483.66665388 469.16167978 -483.66665388 469.16167978 -480.2109375 451.23828125 C-480.01757812 450.22024414 -479.82421875 449.20220703 -479.625 448.15332031 C-470.50364505 401.74420414 -449.46659981 358.91152772 -417.2109375 324.23828125 C-416.01872537 322.86736495 -414.83101751 321.49251501 -413.6484375 320.11328125 C-407.62831988 313.23905083 -401.17321571 307.22293976 -394.0390625 301.51171875 C-392.23708805 300.06317023 -390.45341878 298.59133203 -388.6953125 297.08984375 C-375.76905748 286.10649209 -361.22206991 277.08073434 -346.2109375 269.23828125 C-345.09404541 268.64732666 -345.09404541 268.64732666 -343.95458984 268.04443359 C-313.30945895 252.0266865 -275.98690977 240.78897928 -241.2109375 241.23828125 C-241.22906494 240.51850098 -241.24719238 239.7987207 -241.26586914 239.05712891 C-241.37332221 231.43717119 -240.78524386 224.14357595 -239.6484375 216.61328125 C-239.47352783 215.45248047 -239.29861816 214.29167969 -239.1184082 213.09570312 C-236.04108867 193.89260675 -230.55495918 175.23193089 -223.2109375 157.23828125 C-222.91638672 156.50770508 -222.62183594 155.77712891 -222.31835938 155.02441406 C-211.27711623 127.96979129 -194.90878023 104.0279386 -175.265625 82.515625 C-173.50527952 80.56451965 -171.81909427 78.57814581 -170.1484375 76.55078125 C-167.49319665 73.43123598 -164.56096642 70.80398925 -161.4375 68.16015625 C-159.89951086 66.83262878 -158.39572357 65.46480182 -156.921875 64.06640625 C-144.15142528 51.96808546 -129.60601814 41.71743945 -114.2109375 33.23828125 C-113.38142578 32.77711914 -112.55191406 32.31595703 -111.69726562 31.84082031 C-77.60692776 13.03362387 -39.25796711 0.33206077 0 0 Z " fill="#F58D77" transform="translate(483.2109375,-0.23828125)"/>
<path d="M0 0 C0.72052551 0.00254791 1.44105103 0.00509583 2.18341064 0.00772095 C6.95589839 0.02756925 11.7277834 0.07081373 16.5 0.125 C17.80275879 0.13587646 17.80275879 0.13587646 19.13183594 0.14697266 C36.93176562 0.38996105 55.663722 4.45170676 72.5 10.125 C73.67296631 10.51679443 73.67296631 10.51679443 74.86962891 10.91650391 C101.03797034 19.75313757 124.83453866 31.90616173 146.5 49.125 C147.39589844 49.82882813 148.29179688 50.53265625 149.21484375 51.2578125 C159.39585814 59.40846678 169.17225567 68.06610532 177.5 78.125 C178.30566406 79.0428125 179.11132812 79.960625 179.94140625 80.90625 C214.57218646 120.48787014 233.04291221 169.87955432 235.5 222.125 C234.72100342 222.19493164 233.94200684 222.26486328 233.1394043 222.33691406 C217.70045959 223.75130741 202.5720899 225.36427989 187.5 229.125 C186.2625 229.42148438 185.025 229.71796875 183.75 230.0234375 C153.74254762 237.58997183 124.70958739 250.02487898 99.5 268.125 C98.53191406 268.81980469 97.56382812 269.51460938 96.56640625 270.23046875 C81.52897488 281.27877658 66.3807829 293.67904806 54.5 308.125 C53.7678125 308.96933594 53.035625 309.81367188 52.28125 310.68359375 C17.0669841 351.74833104 -5.2788195 404.20065299 -8.25390625 458.359375 C-8.5 461.125 -8.5 461.125 -9.5 463.125 C-55.75557684 461.63784731 -101.21676153 445.05775482 -137.5 416.125 C-138.3971875 415.41988281 -139.294375 414.71476562 -140.21875 413.98828125 C-173.46735218 387.37984531 -197.93340475 353.71595783 -213.5 314.125 C-213.78117676 313.41085937 -214.06235352 312.69671875 -214.35205078 311.9609375 C-218.87120057 300.29579677 -222.05766323 288.38784393 -224.5 276.125 C-224.66661133 275.29983887 -224.83322266 274.47467773 -225.00488281 273.62451172 C-231.56812191 239.22525753 -229.28964208 200.61517882 -219.5 167.125 C-219.15291992 165.90345215 -219.15291992 165.90345215 -218.79882812 164.65722656 C-212.49767264 142.85932691 -202.41432686 121.78719138 -189.5 103.125 C-188.80261719 102.11695312 -188.10523438 101.10890625 -187.38671875 100.0703125 C-185.47009165 97.38331295 -183.50693744 94.74505479 -181.5 92.125 C-180.87738281 91.30902344 -180.25476563 90.49304688 -179.61328125 89.65234375 C-167.9768589 74.75866728 -154.527383 60.61101718 -139.5 49.125 C-138.57719238 48.412229 -138.57719238 48.412229 -137.63574219 47.68505859 C-103.69949734 21.65413638 -65.49541643 7.56980557 -23.5 1.125 C-22.23027344 0.91875 -20.96054687 0.7125 -19.65234375 0.5 C-13.1478974 -0.26102278 -6.54024274 -0.02736542 0 0 Z " fill="#F27391" transform="translate(492.5,22.875)"/>
<path d="M0 0 C1.03253906 0.00902344 2.06507813 0.01804687 3.12890625 0.02734375 C4.27166016 0.04474609 4.27166016 0.04474609 5.4375 0.0625 C5.49695801 0.8814978 5.49695801 0.8814978 5.55761719 1.71704102 C7.04205479 21.44734914 9.55505969 41.11131702 15.4375 60.0625 C15.70546387 60.93455078 15.97342773 61.80660156 16.24951172 62.70507812 C28.37606726 101.71467918 48.06384287 136.57088265 76.4375 166.0625 C77.03723633 166.68946777 77.63697266 167.31643555 78.25488281 167.96240234 C87.09593945 177.15719023 96.13888594 185.53711464 106.4375 193.0625 C107.08799316 193.5467041 107.73848633 194.0309082 108.40869141 194.52978516 C118.93465968 202.3458498 129.82766725 208.98737502 141.4375 215.0625 C142.1166748 215.42327637 142.79584961 215.78405273 143.49560547 216.15576172 C176.44369537 233.59886814 212.35951985 242.00902432 249.4375 244.0625 C249.81680041 254.02703783 248.6876366 263.14858575 246.83447266 272.91357422 C246.48553624 274.8024662 246.18242207 276.69970232 245.88671875 278.59765625 C240.31824557 311.59180684 224.55281543 343.56833454 204.4375 370.0625 C203.77234375 370.94035156 203.1071875 371.81820313 202.421875 372.72265625 C197.13466198 379.50361441 191.36076974 385.83738386 185.4375 392.0625 C184.62853271 392.91448975 184.62853271 392.91448975 183.80322266 393.78369141 C176.09851049 401.84013559 168.11593177 409.14866313 159.15673828 415.78759766 C157.48778678 417.0252098 155.83572447 418.28303819 154.18359375 419.54296875 C138.74075517 431.13027367 121.73326035 439.92951564 103.8515625 447.09375 C102.22148073 447.74789285 100.59651588 448.41491239 98.9765625 449.09375 C93.02182577 451.56164717 87.0522439 453.45497832 80.8125 455.0625 C79.83410156 455.31668701 78.85570312 455.57087402 77.84765625 455.83276367 C66.83255543 458.60140996 55.66808394 460.4181109 44.4375 462.0625 C42.79539551 462.32619385 42.79539551 462.32619385 41.12011719 462.59521484 C37.19910588 463.09274969 33.33637804 463.25865677 29.390625 463.30078125 C28.6300882 463.31052979 27.86955139 463.32027832 27.08596802 463.33032227 C1.43640339 463.59072063 -22.82190816 461.2632389 -47.5625 454.0625 C-48.29130371 453.85431641 -49.02010742 453.64613281 -49.77099609 453.43164062 C-95.24437327 440.18004001 -138.17518279 409.86924906 -166.29492188 371.77880859 C-167.55192094 370.07682411 -168.8297632 368.39205002 -170.109375 366.70703125 C-176.86818598 357.67176073 -182.36431016 348.0635481 -187.5625 338.0625 C-187.94792969 337.32966797 -188.33335937 336.59683594 -188.73046875 335.84179688 C-196.01254744 321.83684348 -200.95758709 307.13222571 -205.5625 292.0625 C-205.79839844 291.29873047 -206.03429687 290.53496094 -206.27734375 289.74804688 C-216.9637889 254.30117817 -216.71570188 213.81334681 -207.5625 178.0625 C-207.19895804 176.5638653 -206.83569732 175.06516237 -206.47265625 173.56640625 C-198.5474009 141.50529344 -183.45569239 111.63524022 -162.5625 86.0625 C-162.14709961 85.54558594 -161.73169922 85.02867187 -161.30371094 84.49609375 C-150.74273562 71.38147299 -138.9333308 59.32006872 -125.5625 49.0625 C-124.39676059 48.13328254 -123.23142135 47.20356291 -122.06640625 46.2734375 C-89.0915527 20.33858803 -42.54735975 -0.48905011 0 0 Z " fill="#F37B84" transform="translate(236.5625,264.9375)"/>
<path d="M0 0 C0.72499695 -0.00133942 1.4499939 -0.00267883 2.19696045 -0.00405884 C14.39184761 0.00080583 26.14273212 0.93607116 38.125 3.25 C39.47252479 3.49291788 40.82017579 3.73513697 42.16796875 3.9765625 C45.83821858 4.66877542 49.48003215 5.43561456 53.125 6.25 C53.76211914 6.39018555 54.39923828 6.53037109 55.05566406 6.67480469 C108.16095093 18.51955848 156.95339244 53.01685363 188.125 97.25 C188.96452845 98.39736619 189.80435981 99.54451082 190.64453125 100.69140625 C210.77562595 128.85635877 223.83626542 163.06331981 228.83251953 197.24951172 C229.11943906 199.21196462 229.43251784 201.17053592 229.74609375 203.12890625 C232.63363515 222.61259185 231.887139 242.79731029 229.125 262.25 C229.01784668 263.03810059 228.91069336 263.82620117 228.80029297 264.63818359 C227.27517696 275.71358938 225.08633352 286.47170511 222.125 297.25 C221.87878906 298.17167969 221.63257813 299.09335937 221.37890625 300.04296875 C219.51067179 306.68206182 216.87573251 312.93403236 214.125 319.25 C213.52981653 320.65098586 212.93477271 322.05203105 212.33984375 323.453125 C186.50816869 383.62019191 138.14141171 426.01647043 78.125 450.25 C77.15304687 450.65089844 76.18109375 451.05179688 75.1796875 451.46484375 C56.89130155 458.602474 34.73461524 463.57315606 15.125 463.25 C15.04983154 462.48558594 14.97466309 461.72117187 14.8972168 460.93359375 C13.12619171 443.1349924 11.31145547 425.87151824 6.15625 408.6875 C5.10449173 405.1816391 4.14791054 401.65683233 3.1875 398.125 C1.30504647 391.57985389 -1.10979427 385.46640878 -3.875 379.25 C-4.52026665 377.74119971 -5.16473602 376.23205831 -5.80859375 374.72265625 C-18.77465398 344.70440582 -37.36467822 318.82747777 -59.875 295.25 C-60.50792969 294.57582031 -61.14085937 293.90164063 -61.79296875 293.20703125 C-65.89778263 288.94621494 -70.41100128 285.24943294 -75.0234375 281.55078125 C-76.80072136 280.11678099 -78.55973113 278.6594471 -80.2890625 277.16796875 C-102.53614331 258.13435517 -128.77815379 244.84320407 -155.875 234.25 C-157.12388725 233.74395659 -158.37261547 233.2375203 -159.62109375 232.73046875 C-182.46526517 223.92274048 -207.61894867 220.46496315 -231.875 218.25 C-234.52956463 170.23072991 -209.38973141 117.78329926 -178.26953125 82.27734375 C-176.57961325 80.41868962 -174.87943516 78.5693001 -173.16796875 76.73046875 C-171.21231934 74.61490252 -169.34934119 72.45756709 -167.5 70.25 C-157.99996252 59.40852205 -146.46012808 50.71784462 -134.875 42.25 C-134.28444824 41.81333008 -133.69389648 41.37666016 -133.08544922 40.92675781 C-94.66272842 12.81474683 -47.15096421 0.05175516 0 0 Z " fill="#EE3E79" transform="translate(738.875,267.75)"/>
<path d="M0 0 C0.95769791 -0.00979385 1.91539581 -0.01958771 2.90211487 -0.02967834 C23.51506558 -0.19707192 43.56027456 -0.20439578 63.7890625 4.23828125 C65.32626953 4.56771729 65.32626953 4.56771729 66.89453125 4.90380859 C113.85185066 15.20671113 156.22382903 37.88303261 190.7890625 71.23828125 C191.37751953 71.80482422 191.96597656 72.37136719 192.57226562 72.95507812 C200.17962016 80.31834642 207.35409765 87.80744495 213.7890625 96.23828125 C214.19656738 96.76405762 214.60407227 97.28983398 215.02392578 97.83154297 C247.69372418 140.14402314 267.16985689 191.64257561 268.7890625 245.23828125 C269.75827637 245.21000244 269.75827637 245.21000244 270.74707031 245.18115234 C278.14812702 245.0613558 285.22768166 245.75397931 292.5390625 246.86328125 C293.71283447 247.04076904 294.88660645 247.21825684 296.09594727 247.40112305 C342.92459523 254.84732984 387.41386242 275.6568004 422.7890625 307.23828125 C424.05363281 308.33849609 424.05363281 308.33849609 425.34375 309.4609375 C436.04756318 318.88234495 446.12318451 328.89612794 454.7890625 340.23828125 C455.30581543 340.90569336 455.82256836 341.57310547 456.35498047 342.26074219 C465.19325362 353.72402029 472.93658 365.48869702 479.7890625 378.23828125 C480.15725098 378.91955078 480.52543945 379.60082031 480.90478516 380.30273438 C493.62996406 404.10016706 501.92016613 429.75201713 506.7890625 456.23828125 C507.03897949 457.59107178 507.03897949 457.59107178 507.29394531 458.97119141 C513.47099277 494.23663315 510.84562646 531.76762544 501.7890625 566.23828125 C501.57411133 567.06602051 501.35916016 567.89375977 501.13769531 568.74658203 C490.40809975 609.2191297 468.76571324 646.15276432 439.7890625 676.23828125 C438.84087646 677.22731445 438.84087646 677.22731445 437.87353516 678.23632812 C428.72908771 687.7245843 419.43172241 696.46448565 408.7890625 704.23828125 C407.63801233 705.09634277 406.48697073 705.95441576 405.3359375 706.8125 C397.14319756 712.85125314 388.6181623 718.18541288 379.7890625 723.23828125 C378.66628906 723.89441406 377.54351563 724.55054688 376.38671875 725.2265625 C344.15445166 743.31868992 308.25615104 751.70210541 271.7890625 755.23828125 C271.72436768 755.93050781 271.65967285 756.62273438 271.59301758 757.3359375 C267.07794072 804.40125372 253.78292648 849.51812516 225.7890625 888.23828125 C225.05171875 889.26824219 224.314375 890.29820312 223.5546875 891.359375 C221.351393 894.36351236 219.09191835 897.30986185 216.7890625 900.23828125 C216.04011719 901.19347656 215.29117188 902.14867187 214.51953125 903.1328125 C202.23486302 918.20329526 188.22505103 932.61881434 172.44287109 944.02880859 C170.71541479 945.29214171 169.02727733 946.59783597 167.33984375 947.9140625 C157.12350774 955.78857299 146.15824125 962.17596111 134.7890625 968.23828125 C133.96196777 968.68059082 133.13487305 969.12290039 132.28271484 969.57861328 C96.75984496 988.25660763 56.54969803 996.92994948 16.6015625 996.67578125 C15.5792453 996.67273987 14.5569281 996.66969849 13.50363159 996.66656494 C-2.71140246 996.59548447 -18.32318655 995.72757317 -34.2109375 992.23828125 C-35.74814453 991.90884521 -35.74814453 991.90884521 -37.31640625 991.57275391 C-79.590887 982.29731271 -118.86196742 963.11807209 -151.2109375 934.23828125 C-152.05398438 933.50480469 -152.89703125 932.77132812 -153.765625 932.015625 C-164.49804736 922.56903599 -174.42583624 912.5288807 -183.2109375 901.23828125 C-183.98695313 900.27921875 -184.76296875 899.32015625 -185.5625 898.33203125 C-219.29589657 855.9243327 -235.90458472 804.79850817 -239.2109375 751.23828125 C-240.32432495 751.25785889 -240.32432495 751.25785889 -241.46020508 751.27783203 C-297.73167801 751.83934352 -357.63899488 725.56053681 -398.2109375 687.23828125 C-399.49821668 686.1290026 -400.78982034 685.02472034 -402.0859375 683.92578125 C-411.36684893 675.80732741 -419.63643503 666.95930397 -427.2109375 657.23828125 C-428.21842265 655.98281015 -429.22625827 654.72762025 -430.234375 653.47265625 C-442.28725744 638.28971958 -452.02371065 621.79065654 -460.2109375 604.23828125 C-460.50806641 603.61066895 -460.80519531 602.98305664 -461.11132812 602.33642578 C-474.77525022 573.27454354 -483.23482962 540.12861996 -483.4140625 507.91796875 C-483.42112213 507.06478058 -483.42818176 506.21159241 -483.43545532 505.33255005 C-483.66665388 469.16167978 -483.66665388 469.16167978 -480.2109375 451.23828125 C-480.01757812 450.22024414 -479.82421875 449.20220703 -479.625 448.15332031 C-470.50364505 401.74420414 -449.46659981 358.91152772 -417.2109375 324.23828125 C-416.01872537 322.86736495 -414.83101751 321.49251501 -413.6484375 320.11328125 C-407.62831988 313.23905083 -401.17321571 307.22293976 -394.0390625 301.51171875 C-392.23708805 300.06317023 -390.45341878 298.59133203 -388.6953125 297.08984375 C-375.76905748 286.10649209 -361.22206991 277.08073434 -346.2109375 269.23828125 C-345.09404541 268.64732666 -345.09404541 268.64732666 -343.95458984 268.04443359 C-313.30945895 252.0266865 -275.98690977 240.78897928 -241.2109375 241.23828125 C-241.22906494 240.51850098 -241.24719238 239.7987207 -241.26586914 239.05712891 C-241.37332221 231.43717119 -240.78524386 224.14357595 -239.6484375 216.61328125 C-239.47352783 215.45248047 -239.29861816 214.29167969 -239.1184082 213.09570312 C-236.04108867 193.89260675 -230.55495918 175.23193089 -223.2109375 157.23828125 C-222.91638672 156.50770508 -222.62183594 155.77712891 -222.31835938 155.02441406 C-211.27711623 127.96979129 -194.90878023 104.0279386 -175.265625 82.515625 C-173.50527952 80.56451965 -171.81909427 78.57814581 -170.1484375 76.55078125 C-167.49319665 73.43123598 -164.56096642 70.80398925 -161.4375 68.16015625 C-159.89951086 66.83262878 -158.39572357 65.46480182 -156.921875 64.06640625 C-144.15142528 51.96808546 -129.60601814 41.71743945 -114.2109375 33.23828125 C-113.38142578 32.77711914 -112.55191406 32.31595703 -111.69726562 31.84082031 C-77.60692776 13.03362387 -39.25796711 0.33206077 0 0 Z M-32.2109375 27.23828125 C-33.14470215 27.42551758 -34.0784668 27.61275391 -35.04052734 27.80566406 C-70.2637317 35.06210787 -103.26897601 50.58447176 -131.2109375 73.23828125 C-131.79746094 73.71056152 -132.38398438 74.1828418 -132.98828125 74.66943359 C-147.71489397 86.62865667 -160.94830504 99.96979417 -172.2109375 115.23828125 C-172.92636719 116.181875 -173.64179688 117.12546875 -174.37890625 118.09765625 C-187.28188941 135.3681869 -197.9449606 154.93628696 -205.2109375 175.23828125 C-205.45650391 175.90827148 -205.70207031 176.57826172 -205.95507812 177.26855469 C-209.17283082 186.10311872 -211.80637694 195.02314333 -213.9609375 204.17578125 C-214.15953369 204.99570557 -214.35812988 205.81562988 -214.56274414 206.66040039 C-218.09555252 222.41808743 -218.62091282 238.58935322 -218.5859375 254.67578125 C-218.58572601 255.58360352 -218.58551453 256.49142578 -218.58529663 257.42675781 C-218.53410392 279.59247286 -216.19332652 301.10958093 -209.2109375 322.23828125 C-208.7775708 323.58116211 -208.7775708 323.58116211 -208.33544922 324.95117188 C-194.34301457 368.02492503 -168.92022973 407.0054587 -133.2109375 435.23828125 C-132.42332031 435.893125 -131.63570313 436.54796875 -130.82421875 437.22265625 C-108.12041031 455.9861343 -80.47234438 470.11752429 -52.2109375 478.23828125 C-51.48970703 478.44791504 -50.76847656 478.65754883 -50.02539062 478.87353516 C-33.93169583 483.4702883 -17.00056367 486.61624677 -0.2109375 486.23828125 C1.4915684 482.83326945 1.33819691 478.92965567 1.6640625 475.17578125 C4.62158635 443.91651357 13.15618381 414.49700751 26.7890625 386.23828125 C27.31838379 385.1385498 27.31838379 385.1385498 27.85839844 384.01660156 C37.88188461 363.49321003 51.65470737 344.57347177 67.265625 327.94921875 C69.36325333 325.69572949 71.3696536 323.40487961 73.3515625 321.05078125 C97.7007355 293.1578319 134.30991495 272.54326326 168.7890625 260.23828125 C169.89894531 259.82964844 171.00882813 259.42101562 172.15234375 259 C183.14642649 255.11902872 194.38588146 252.59821812 205.7890625 250.23828125 C206.54477539 250.08085449 207.30048828 249.92342773 208.07910156 249.76123047 C220.2177937 247.28605347 232.44908885 246.19731088 244.7890625 245.23828125 C242.21493192 190.50413626 222.07511957 138.92309497 184.21484375 98.81640625 C182.10220306 96.57108764 180.09125634 94.27927915 178.1015625 91.92578125 C174.64431955 87.95605288 170.81135324 84.62157932 166.7890625 81.23828125 C165.38527344 80.00271484 165.38527344 80.00271484 163.953125 78.7421875 C126.27643363 45.76170726 75.94784416 24.74568928 25.7890625 23.23828125 C24.65823242 23.20428223 23.52740234 23.1702832 22.36230469 23.13525391 C3.77370972 22.6646868 -13.9111418 23.51577428 -32.2109375 27.23828125 Z M-373.2109375 315.23828125 C-373.76023926 315.68606934 -374.30954102 316.13385742 -374.87548828 316.59521484 C-389.25652321 328.37938958 -402.187502 341.24979429 -413.2109375 356.23828125 C-413.63713379 356.80901367 -414.06333008 357.37974609 -414.50244141 357.96777344 C-430.01919758 378.7859412 -442.82737014 402.2693824 -450.2109375 427.23828125 C-450.46568848 428.09035156 -450.72043945 428.94242188 -450.98291016 429.8203125 C-455.18884685 444.15953972 -457.66904801 458.39050898 -459.2109375 473.23828125 C-459.30375 474.03403564 -459.3965625 474.82979004 -459.4921875 475.6496582 C-463.06124607 507.54811918 -458.63980548 539.99023678 -448.2109375 570.23828125 C-447.90285156 571.13933594 -447.59476562 572.04039062 -447.27734375 572.96875 C-437.84217971 600.09974037 -423.97349159 624.49784632 -405.2109375 646.23828125 C-404.45425781 647.12515625 -403.69757813 648.01203125 -402.91796875 648.92578125 C-392.59720046 660.69881524 -381.51892701 671.67488781 -368.9140625 680.97949219 C-367.25058819 682.20897521 -365.60566198 683.46044337 -363.9609375 684.71484375 C-336.02733038 705.67855663 -303.32848161 718.65701255 -269.2109375 725.23828125 C-268.38706543 725.40344238 -267.56319336 725.56860352 -266.71435547 725.73876953 C-239.56383029 730.9823401 -210.16449002 729.77575657 -183.2109375 724.23828125 C-182.3564502 724.07279785 -181.50196289 723.90731445 -180.62158203 723.73681641 C-137.43292414 715.35871212 -98.86133027 693.35399469 -67.2109375 663.23828125 C-66.64294434 662.69896973 -66.07495117 662.1596582 -65.48974609 661.60400391 C-56.89395105 653.38348811 -49.28123851 644.79578443 -42.2109375 635.23828125 C-41.78329102 634.67141602 -41.35564453 634.10455078 -40.91503906 633.52050781 C-34.14733304 624.53959285 -28.47462951 615.16773676 -23.2109375 605.23828125 C-22.86289062 604.59133301 -22.51484375 603.94438477 -22.15625 603.27783203 C-16.83048504 593.32455795 -12.6824999 583.13281688 -8.98828125 572.47216797 C-8.27777921 570.4303672 -7.5450104 568.39831626 -6.8046875 566.3671875 C-0.37829756 548.16561356 3.36638439 528.54649105 2.7890625 509.23828125 C2.16789551 509.20387939 1.54672852 509.16947754 0.90673828 509.1340332 C-21.60937158 507.80725713 -43.80461454 504.54261831 -65.2109375 497.23828125 C-65.9745459 496.97789062 -66.7381543 496.7175 -67.52490234 496.44921875 C-78.40143865 492.68671518 -88.92265205 488.40251828 -99.2109375 483.23828125 C-99.9534375 482.86832031 -100.6959375 482.49835938 -101.4609375 482.1171875 C-135.46090637 465.06128206 -166.84249005 440.19657921 -189.2109375 409.23828125 C-190.06428142 408.09053367 -190.91846189 406.94340763 -191.7734375 405.796875 C-197.81743642 397.6056056 -203.17678301 389.08162808 -208.2109375 380.23828125 C-208.54834961 379.64998535 -208.88576172 379.06168945 -209.23339844 378.45556641 C-228.9935451 343.70662556 -238.77094734 304.95122454 -241.2109375 265.23828125 C-287.56194021 262.74032302 -338.23218784 286.42904618 -373.2109375 315.23828125 Z M213.7890625 271.23828125 C212.94279297 271.37218262 212.09652344 271.50608398 211.22460938 271.64404297 C169.78386999 278.54247113 129.88796997 299.44763144 99.26953125 327.9453125 C97.15396502 329.90096191 94.99662959 331.76394006 92.7890625 333.61328125 C53.83336978 367.7488984 27.24088629 424.22031643 23.62597656 475.55419922 C23.49036425 479.13118317 23.59209231 482.66714276 23.7890625 486.23828125 C24.41022949 486.30297607 25.03139648 486.3676709 25.67138672 486.43432617 C47.72674824 488.781713 69.82522465 491.72783971 90.7890625 499.23828125 C91.88710205 499.62089111 91.88710205 499.62089111 93.00732422 500.01123047 C118.34245673 508.85447618 142.10903954 520.31710528 163.7890625 536.23828125 C164.37800293 536.67027832 164.96694336 537.10227539 165.57373047 537.54736328 C172.18120559 542.43308109 178.47471118 547.58556818 184.5234375 553.15625 C186.59798286 555.06268565 188.71172181 556.90593735 190.8515625 558.73828125 C199.02732713 565.8961796 206.04669257 573.73269286 212.7890625 582.23828125 C213.66312373 583.31066168 214.5381554 584.38225173 215.4140625 585.453125 C232.17874332 606.12005919 245.12947991 629.48325781 254.7890625 654.23828125 C255.17320312 655.17929687 255.55734375 656.1203125 255.953125 657.08984375 C265.24886322 680.89600262 268.30794598 706.00694839 270.7890625 731.23828125 C290.1164523 730.68717685 309.62064389 726.83720817 327.7890625 720.23828125 C329.00021729 719.80708984 329.00021729 719.80708984 330.23583984 719.3671875 C342.17831895 715.08822454 353.62485653 710.26359842 364.7890625 704.23828125 C365.9440625 703.6246875 367.0990625 703.01109375 368.2890625 702.37890625 C405.0566754 682.15671916 436.46202841 650.90382974 456.7890625 614.23828125 C457.15692871 613.59391113 457.52479492 612.94954102 457.90380859 612.28564453 C465.66288713 598.6733999 471.18989806 584.3162843 476.05737305 569.44824219 C476.54602365 567.97234455 477.05020326 566.50149999 477.56958008 565.03613281 C479.53653481 559.42472634 480.79827589 553.83544822 481.8515625 547.98828125 C482.02147705 547.06660156 482.1913916 546.14492188 482.36645508 545.1953125 C493.50082441 484.21553077 482.37098909 422.16390949 447.65625 370.33203125 C440.20926281 359.56238695 431.8650664 349.67189191 422.7890625 340.23828125 C422.18932617 339.61131348 421.58958984 338.9843457 420.97167969 338.33837891 C397.91216314 314.35624959 370.87140173 296.72962107 340.10253906 284.18701172 C338.19456813 283.40457451 336.29862176 282.59288255 334.40625 281.7734375 C318.16058359 274.99357939 300.2792165 271.67054304 282.87744141 269.50439453 C280.97634767 269.26214621 279.08132308 268.97341494 277.1875 268.6796875 C270.63633052 267.87653156 264.00509893 267.99463154 257.4140625 267.98828125 C256.68830017 267.98727417 255.96253784 267.98626709 255.21478271 267.98522949 C241.25506861 267.99823769 227.5875316 269.03828245 213.7890625 271.23828125 Z M25.7890625 510.23828125 C25.65951172 511.96884766 25.65951172 511.96884766 25.52734375 513.734375 C23.75939428 535.05415764 19.33587873 555.88147524 12.7890625 576.23828125 C12.50724121 577.11516602 12.22541992 577.99205078 11.93505859 578.89550781 C1.22149716 611.53903735 -16.50129643 641.83519723 -40.03125 666.90625 C-41.91839027 668.92528717 -43.69391252 670.99021392 -45.4609375 673.11328125 C-69.25969178 700.375704 -103.48669465 720.95275169 -137.09228516 733.43603516 C-138.91204891 734.12510449 -140.71057631 734.86980175 -142.50390625 735.625 C-165.38373115 745.20611558 -190.70543179 748.18407219 -215.2109375 750.23828125 C-215.46257433 758.27368446 -214.7525935 765.8749526 -213.4609375 773.80078125 C-213.18479614 775.51575806 -213.18479614 775.51575806 -212.90307617 777.26538086 C-212.35594705 780.59283349 -211.78909412 783.91609234 -211.2109375 787.23828125 C-210.9946167 788.49898437 -210.9946167 788.49898437 -210.77392578 789.78515625 C-204.66538218 824.14108633 -187.79547825 857.08100453 -166.2109375 884.23828125 C-165.08558594 885.66914062 -165.08558594 885.66914062 -163.9375 887.12890625 C-159.34450513 892.8662309 -154.50971629 898.15098365 -149.2109375 903.23828125 C-144.2109375 908.23828125 -144.2109375 908.23828125 -142.3984375 910.15625 C-102.91633771 951.16247496 -44.59100588 971.74597832 11.25390625 973.484375 C59.622948 974.34189994 109.41778907 961.10267811 148.7890625 932.23828125 C149.74167969 931.55636719 150.69429687 930.87445312 151.67578125 930.171875 C170.64971921 916.3072589 187.86478103 900.20420658 201.7890625 881.23828125 C202.63666687 880.10933605 203.48432316 878.98042982 204.33203125 877.8515625 C226.23341475 848.31281684 239.6991438 814.35131101 245.7890625 778.23828125 C245.97001465 777.25118164 246.1509668 776.26408203 246.33740234 775.24707031 C248.17911408 764.19020471 248.18644444 753.17201834 248.1640625 741.98828125 C248.16351868 740.96871338 248.16297485 739.94914551 248.16241455 738.89868164 C248.12348246 723.02061865 247.41081179 707.76280143 243.7890625 692.23828125 C243.56943848 691.28711426 243.34981445 690.33594727 243.12353516 689.35595703 C233.97788943 650.98049101 215.97844056 615.01097651 188.7890625 586.23828125 C187.59577284 584.86830277 186.4080508 583.49345032 185.2265625 582.11328125 C178.38950247 574.30620355 170.89124141 567.70861286 162.7890625 561.23828125 C161.99757813 560.57957031 161.20609375 559.92085937 160.390625 559.2421875 C142.63814093 544.58606693 122.49497157 533.86666892 101.24145508 525.23706055 C99.6235082 524.5781237 98.0111172 523.90535412 96.4050293 523.21801758 C89.62690368 520.37160196 82.7301565 518.44457847 75.6015625 516.67578125 C74.38210938 516.372771 73.16265625 516.06976074 71.90625 515.75756836 C56.89274914 512.14968037 41.29580081 509.33788999 25.7890625 510.23828125 Z " fill="#FEFEFE" transform="translate(483.2109375,-0.23828125)"/>
<path d="M0 0 C2.5546115 1.27730575 2.74993472 2.28047882 3.8828125 4.8671875 C4.24109131 5.66503662 4.59937012 6.46288574 4.96850586 7.28491211 C5.35014893 8.13964111 5.73179199 8.99437012 6.125 9.875 C9.69458545 17.61688417 13.57311122 24.38407379 19 31 C19.77085937 31.99386719 20.54171875 32.98773437 21.3359375 34.01171875 C33.58270706 49.40710573 49.83011607 59.72094127 67.33984375 68.203125 C76.08451426 72.45085712 83.58555407 77.73607154 91 84 C91.80179688 84.64324219 92.60359375 85.28648437 93.4296875 85.94921875 C114.37751792 103.5172874 126.11127546 129.49889195 130.64013672 155.90991211 C130.93169639 157.60329224 131.25583624 159.29104113 131.58984375 160.9765625 C135.48418222 189.68340039 126.63602671 219.45327019 109.96875 242.8515625 C108.05143275 245.30907628 106.05960962 247.66098598 104 250 C103.31421875 250.81726563 102.6284375 251.63453125 101.921875 252.4765625 C81.74405032 275.92058183 52.24667121 289.68246705 21.6015625 292.2890625 C-17.62829143 293.87833164 -60.9676561 266.10907093 -88.99926758 240.50952148 C-90.4666988 239.15117933 -91.92320385 237.78106045 -93.37890625 236.41015625 C-95.94767935 233.98907597 -95.94767935 233.98907597 -98.63671875 231.91015625 C-100.78008304 230.17775107 -102.48025402 228.47545609 -104.25 226.375 C-106.11512917 224.18237492 -107.98129763 222.01982227 -109.95703125 219.92578125 C-123.38515798 205.65061128 -133.86417655 189.26656768 -143 172 C-143.37318359 171.30293945 -143.74636719 170.60587891 -144.13085938 169.88769531 C-155.42469979 148.47601474 -162.1859514 124.80598343 -166 101 C-166.12842285 100.22398437 -166.2568457 99.44796875 -166.38916016 98.6484375 C-167.68198157 90.69261341 -168.08947326 83.0453628 -168 75 C-167.26289795 74.94054199 -166.5257959 74.88108398 -165.76635742 74.81982422 C-140.23062269 72.67787567 -115.98695663 68.28037624 -92 59 C-90.33085802 58.37595733 -88.66158524 57.75226441 -86.9921875 57.12890625 C-57.89361634 46.07639641 -31.86712171 29.03930756 -9 8 C-6.84042485 6.0942822 -4.66986815 4.20197795 -2.49609375 2.3125 C-1.64347059 1.56450684 -0.80201622 0.80201622 0 0 Z " fill="#EA6F65" transform="translate(436,675)"/>
<path d="M0 0 C0.80083008 0.26844727 1.60166016 0.53689453 2.42675781 0.81347656 C28.57508503 9.64036982 52.35251321 21.79544718 74 39 C75.34384766 40.05574219 75.34384766 40.05574219 76.71484375 41.1328125 C86.89585814 49.28346678 96.67225567 57.94110532 105 68 C105.80566406 68.9178125 106.61132812 69.835625 107.44140625 70.78125 C142.07218646 110.36287014 160.54291221 159.75455432 163 212 C162.22100342 212.06993164 161.44200684 212.13986328 160.6394043 212.21191406 C145.20045959 213.62630741 130.0720899 215.23927989 115 219 C113.14375 219.44472656 113.14375 219.44472656 111.25 219.8984375 C81.24254762 227.46497183 52.20958739 239.89987898 27 258 C26.03191406 258.69480469 25.06382812 259.38960938 24.06640625 260.10546875 C14.07224524 267.44838289 4.6383181 275.48916096 -4.51171875 283.85546875 C-6 285 -6 285 -8 285 C-8.49628906 283.97261719 -8.99257813 282.94523437 -9.50390625 281.88671875 C-23.33329784 253.53097268 -42.55723293 235.31311998 -70.625 221 C-79.12122616 216.65087138 -86.75092116 212.26889136 -94 206 C-94.75047607 205.36046387 -94.75047607 205.36046387 -95.51611328 204.70800781 C-113.99809243 188.85652956 -126.33534828 168.36642954 -133 145 C-133.29632324 144.00371582 -133.29632324 144.00371582 -133.59863281 142.98730469 C-142.08621379 113.71834703 -136.50499561 82.78373684 -122.16625977 56.36865234 C-106.04474493 27.86021977 -79.61538557 8.61221326 -48.5625 -0.75 C-32.12383726 -4.87798515 -16.11401646 -5.54500797 0 0 Z " fill="#E05179" transform="translate(565,33)"/>
<path d="M0 0 C1.03253906 0.00902344 2.06507813 0.01804687 3.12890625 0.02734375 C4.27166016 0.04474609 4.27166016 0.04474609 5.4375 0.0625 C5.49695801 0.8814978 5.49695801 0.8814978 5.55761719 1.71704102 C7.04205479 21.44734914 9.55505969 41.11131702 15.4375 60.0625 C15.70546387 60.93455078 15.97342773 61.80660156 16.24951172 62.70507812 C28.72570477 102.83941901 49.34378212 139.46374459 79.4375 169.0625 C78.4375 172.0625 78.4375 172.0625 75.11328125 173.9375 C73.66089073 174.64999984 72.2063062 175.35803815 70.75 176.0625 C43.74513745 189.77231135 26.43252716 213.41204665 13.9375 240.375 C5.51770251 257.38879769 -10.52330742 272.38170162 -26.5625 282.0625 C-27.6865625 282.74699219 -28.810625 283.43148438 -29.96875 284.13671875 C-48.23538325 294.77047292 -68.19012933 299.49820376 -89.1875 299.4375 C-89.89559814 299.43695618 -90.60369629 299.43641235 -91.33325195 299.43585205 C-102.23332502 299.39736744 -112.20128586 298.61207283 -122.5625 295.0625 C-123.54114014 294.74901611 -123.54114014 294.74901611 -124.53955078 294.42919922 C-151.14738725 285.87187287 -175.0723566 268.11349144 -189.5625 244.0625 C-189.93858398 243.44455566 -190.31466797 242.82661133 -190.70214844 242.18994141 C-199.91405028 226.75826845 -206.30508094 209.07053723 -207.5625 191.0625 C-207.6553125 190.04929687 -207.748125 189.03609375 -207.84375 187.9921875 C-209.61316457 152.6923669 -183.91717209 112.20007972 -162.5625 86.0625 C-162.14709961 85.54558594 -161.73169922 85.02867187 -161.30371094 84.49609375 C-150.74273562 71.38147299 -138.9333308 59.32006872 -125.5625 49.0625 C-124.39676059 48.13328254 -123.23142135 47.20356291 -122.06640625 46.2734375 C-89.0915527 20.33858803 -42.54735975 -0.48905011 0 0 Z " fill="#E85F6B" transform="translate(236.5625,264.9375)"/>
<path d="M0 0 C29.83357644 -1.05727621 60.27071287 10.77086644 82.09765625 30.78515625 C83.98595814 32.56350408 85.8542517 34.36074744 87.72265625 36.16015625 C88.37878906 36.753125 89.03492188 37.34609375 89.7109375 37.95703125 C107.05673186 54.06668854 119.58359163 81.84709681 120.84008789 105.35742188 C121.01052899 111.77254802 120.00659291 117.46653092 118.41015625 123.66015625 C118.19681641 124.53285156 117.98347656 125.40554688 117.76367188 126.3046875 C115.19687171 136.64850908 111.97805904 146.38930931 107.72265625 156.16015625 C107.12747278 157.56114211 106.53242896 158.9621873 105.9375 160.36328125 C80.10582494 220.53034816 31.73906796 262.92662668 -28.27734375 287.16015625 C-29.24929688 287.56105469 -30.22125 287.96195313 -31.22265625 288.375 C-49.5110422 295.51263025 -71.66772851 300.48331231 -91.27734375 300.16015625 C-91.35251221 299.39574219 -91.42768066 298.63132812 -91.50512695 297.84375 C-93.27615204 280.04514865 -95.09088828 262.78167449 -100.24609375 245.59765625 C-101.29785202 242.09179535 -102.25443321 238.56698858 -103.21484375 235.03515625 C-105.09729728 228.49001014 -107.51213802 222.37656503 -110.27734375 216.16015625 C-110.9226104 214.65135596 -111.56707977 213.14221456 -112.2109375 211.6328125 C-124.32322209 183.59117258 -141.28628789 158.07913274 -162.67163086 136.23168945 C-166.27734375 132.47658041 -166.27734375 132.47658041 -166.27734375 129.16015625 C-165.41753906 128.75925781 -164.55773437 128.35835937 -163.671875 127.9453125 C-150.75585258 121.73379027 -139.68236594 114.10232158 -129.27734375 104.16015625 C-128.37628906 103.35384766 -128.37628906 103.35384766 -127.45703125 102.53125 C-117.20908644 93.02211052 -110.86977236 80.78143511 -104.60107422 68.49462891 C-89.29096074 38.58982782 -65.08290958 16.59792019 -33.109375 5.6328125 C-25.9607237 3.34484142 -18.70151579 2.14741317 -11.27734375 1.16015625 C-9.95476562 0.96486328 -9.95476562 0.96486328 -8.60546875 0.765625 C-5.74080451 0.38468561 -2.88144684 0.20264034 0 0 Z " fill="#C71E5E" transform="translate(845.27734375,430.83984375)"/>
</svg>
