<svg width="48" height="48" viewBox="0 0 48 48" fill="none" xmlns="http://www.w3.org/2000/svg">
<path d="M4.79992 48H27.8875C29.2725 48.0008 30.6412 47.6857 31.8994 47.0765C33.1577 46.4672 34.2756 45.5782 35.1762 44.4707L47.4208 29.4341C47.6772 29.1198 47.8563 28.7439 47.9422 28.3396C48.028 27.9353 48.0182 27.5149 47.9134 27.1156C47.8086 26.7163 47.6121 26.3502 47.3412 26.0496C47.0703 25.749 46.7334 25.5232 46.3601 25.392L41.6369 23.7348C40.4954 23.3442 39.28 23.2558 38.0983 23.4774C36.9166 23.6991 35.805 24.2239 34.8618 25.0055L27.218 31.44L25.7372 28.32C24.9439 26.6382 23.7191 25.2238 22.2014 24.237C20.6837 23.2503 18.9339 22.7306 17.1501 22.7369H4.79992C2.15277 22.7369 0 25.003 0 27.7895V42.9474C0 45.7339 2.15277 48 4.79992 48ZM4.79992 27.7895H17.1501C18.9813 27.7895 20.6253 28.8581 21.4437 30.5811L22.5164 32.8421H11.9998V37.8947H26.4332C26.8024 37.8896 27.1655 37.7945 27.494 37.6168L27.5012 37.6143L27.5108 37.6093H27.518L27.5228 37.6067H27.5324L27.5348 37.6042C27.5564 37.6118 27.542 37.6017 27.542 37.6017C27.566 37.6017 27.5468 37.5992 27.5468 37.5992H27.5492L27.554 37.5966L27.5612 37.5941L27.5708 37.5891L27.578 37.5865L27.5828 37.584C27.59 37.584 27.5876 37.5815 27.5876 37.5815L27.5948 37.5764L27.6044 37.5714L27.6116 37.5688L27.6164 37.5663H27.6188L27.6236 37.5638L27.6308 37.5613L27.6356 37.5587C27.6572 37.5562 27.6428 37.5562 27.6428 37.5562L27.6476 37.5537C27.74 37.4949 27.8283 37.4291 27.9115 37.3566L37.8618 28.9769C38.4906 28.4514 39.357 28.2872 40.1178 28.555L41.4545 29.0249L31.5355 41.2093C31.0792 41.7546 30.518 42.1916 29.8891 42.4913C29.2602 42.7909 28.5779 42.9464 27.8875 42.9474H4.79992V27.7895ZM33.5587 2.37618e-05C33.1675 0.00507639 31.1443 0.0985498 28.7995 1.78108C26.5172 0.144024 24.542 0.0126552 24.0764 0.00254989L24.0044 2.37618e-05H23.9948C22.0724 2.37618e-05 20.2629 0.79076 18.9093 2.21813C17.5509 3.65055 16.7997 5.55286 16.7997 7.57897C16.7997 9.60507 17.5509 11.5074 18.8661 12.8943L27.0596 21.9537C27.285 22.2 27.5553 22.3959 27.8544 22.5297C28.1535 22.6634 28.4751 22.7322 28.8 22.732C29.125 22.7317 29.4465 22.6625 29.7454 22.5283C30.0443 22.3941 30.3144 22.1978 30.5395 21.9512L38.6898 12.9373C40.0506 11.5074 40.7993 9.60507 40.7993 7.57897C40.7993 5.55286 40.0482 3.65055 38.6922 2.22065C38.0258 1.51466 37.233 0.954867 36.3596 0.573687C35.4862 0.192508 34.5497 -0.00247746 33.6043 2.37618e-05H33.5587ZM35.9994 7.57897C35.9994 8.25349 35.7498 8.8876 35.253 9.41054L28.7995 16.5474L22.3028 9.36507C21.8492 8.8876 21.5997 8.25349 21.5997 7.57897C21.5997 6.90444 21.8492 6.27034 22.3052 5.79034C22.7392 5.32564 23.3302 5.06046 23.9492 5.05265C24.0092 5.05518 25.154 5.13349 26.51 6.27792C26.7044 6.44213 26.9012 6.62907 27.1028 6.83876L28.7995 8.62486L30.4963 6.83876C30.6979 6.62907 30.8947 6.44213 31.0891 6.27792C32.3587 5.20423 33.4315 5.07034 33.6139 5.05518C33.9267 5.05512 34.2364 5.12027 34.5251 5.24689C34.8139 5.3735 35.076 5.55906 35.2962 5.79286C35.7498 6.27034 35.9994 6.90444 35.9994 7.57897Z" fill="black"/>
</svg>
