<svg width="48" height="48" viewBox="0 0 48 48" fill="none" xmlns="http://www.w3.org/2000/svg">
<path d="M43.2 10.1053H36V5.05263C36 2.26611 33.8472 0 31.2 0H16.8C14.1528 0 12 2.26611 12 5.05263V10.1053H4.8C2.1528 10.1053 0 12.3714 0 15.1579V42.9474C0 45.7339 2.1528 48 4.8 48H43.2C45.8472 48 48 45.7339 48 42.9474V15.1579C48 12.3714 45.8472 10.1053 43.2 10.1053ZM31.2 5.05263V10.1053H16.8V5.05263H31.2ZM43.2 15.1579V22.7368H4.8V15.1579H43.2ZM4.8 42.9474V27.7895H19.2V32.8421H28.8V27.7895H43.2L43.2024 42.9474H4.8Z" fill="black"/>
</svg>
