<svg width="48" height="48" viewBox="0 0 48 48" fill="none" xmlns="http://www.w3.org/2000/svg">
<path d="M24 38.4C33.6 38.4 36 28.8 36 28.8H12C12 28.8 14.4 38.4 24 38.4Z" fill="black"/>
<path d="M24 0C10.7664 0 0 10.7664 0 24C0 37.2336 10.7664 48 24 48C37.2336 48 48 37.2336 48 24C48 10.7664 37.2336 0 24 0ZM24 43.2C13.4136 43.2 4.8 34.5864 4.8 24C4.8 13.4136 13.4136 4.8 24 4.8C34.5864 4.8 43.2 13.4136 43.2 24C43.2 34.5864 34.5864 43.2 24 43.2Z" fill="black"/>
<path d="M26.4 24L31.2 24.0288C31.2288 22.92 31.6656 21.6 33.6 21.6C35.5344 21.6 35.9712 22.92 36 24H40.8C40.8 21.1056 38.8824 16.8 33.6 16.8C28.3176 16.8 26.4 21.1056 26.4 24ZM14.4 21.6C16.3344 21.6 16.7712 22.92 16.8 24H21.6C21.6 21.1056 19.6824 16.8 14.4 16.8C9.1176 16.8 7.2 21.1056 7.2 24L12 24.0288C12.0288 22.92 12.4656 21.6 14.4 21.6Z" fill="black"/>
</svg>
