<svg width="80" height="107" viewBox="0 0 80 107" fill="none" xmlns="http://www.w3.org/2000/svg">
<path d="M36.8563 106.296C35.1084 104.337 33.3605 102.377 31.58 100.113C32.1065 99.6086 32.6711 99.4078 33.3822 99.1364C33.5233 98.6912 33.5233 98.3167 33.5016 97.7793C32.2205 95.8414 31.0697 93.9741 29.6747 92.313C27.08 89.2298 24.6427 86.1411 22.7916 82.4444C21.0437 78.9486 17.5805 76.4136 16.3971 72.4076C16.142 71.5445 15.2463 70.866 14.6004 69.9974C14.4321 69.802 14.3127 69.7152 14.1878 69.6337C14.1878 69.6446 14.2095 69.6392 14.1607 69.5306C13.987 69.3352 13.8621 69.2483 13.7319 69.1723C13.7319 69.1832 13.7536 69.1778 13.7481 69.0421C13.5907 68.6838 13.4387 68.4667 13.2813 68.255C13.2813 68.2658 13.2976 68.255 13.2976 68.0975C12.9882 67.5819 12.6842 67.2236 12.3694 66.8707C12.3585 66.8707 12.3802 66.8762 12.3857 66.735C12.2337 66.3822 12.0817 66.1705 11.9134 65.9642C11.9025 65.9642 11.9134 65.9534 11.9188 65.8014C11.7723 65.3943 11.6257 65.1391 11.4466 64.7049C11.1263 63.071 11.0069 61.5511 10.5183 60.1614C9.57383 57.469 8.48273 54.8146 7.31023 52.209C6.98453 51.4816 6.16486 50.9822 5.50804 50.206C5.35062 49.56 5.25835 49.0878 5.35063 48.5829C5.79032 47.9315 6.36572 47.2204 6.23001 46.6939C4.79695 41.1462 5.45378 35.6799 6.85427 30.2843C8.16248 25.2523 9.92124 20.3451 14.3127 17.0936C19.3284 13.3752 24.5015 9.86312 29.6041 6.25875C29.8267 6.10133 30.0438 5.94392 30.3315 5.74307C29.7995 5.52594 29.4087 5.36852 28.8496 5.14596C30.2283 4.62485 31.3791 4.19059 32.7254 3.72375C34.3593 3.96803 35.8032 4.24487 37.1385 4.65742C34.9075 5.93849 32.7796 7.08928 30.4889 8.26178C23.8719 10.7371 19.0407 15.2805 14.7307 20.4591C13.7753 21.6099 13.0859 22.9832 12.1468 24.3457C8.60217 30.0888 7.60878 36.3151 7.95076 42.7693C8.10275 45.6245 8.78673 48.4527 9.22099 51.4328C9.47069 51.8345 9.72037 52.0896 9.98636 52.5184C11.8754 57.3333 13.5256 62.083 15.6698 66.5939C20.6529 77.0867 27.8616 86.1899 34.381 95.8848C36.1669 99.0821 37.9365 102.116 39.831 105.363C38.4305 105.791 37.6434 106.036 36.8563 106.275M34.761 99.7009C34.7121 99.6792 34.6578 99.6629 34.609 99.6412C34.6578 99.728 34.7067 99.8203 34.8641 100.103C34.9564 100.227 35.0812 100.309 35.2875 100.477C35.3309 100.499 35.3744 100.521 35.4178 100.537C35.3635 100.466 35.3092 100.39 35.1735 100.108C35.0921 99.9723 34.9781 99.88 34.7555 99.6955L34.761 99.7009Z" fill="#13171A"/>
<path d="M5.56231 50.396C6.15399 50.9986 6.97363 51.5034 7.29933 52.2308C8.47183 54.8363 9.56293 57.4853 10.5074 60.1832C10.996 61.5728 11.1154 63.0927 11.4248 64.8841C11.5985 65.4703 11.7505 65.72 11.9025 65.9697C11.9025 65.9697 11.8917 65.986 11.9025 66.1217C12.0654 66.4691 12.2173 66.6808 12.3639 66.8925C12.3639 66.8925 12.3368 66.8925 12.3585 67.0337C12.6787 67.5439 12.9827 67.9076 13.2813 68.2713C13.2813 68.2713 13.2596 68.2767 13.2704 68.407C13.4333 68.7544 13.5853 68.9715 13.7318 69.1941C13.7318 69.1941 13.7101 69.1941 13.7644 69.2918C13.9435 69.4709 14.0629 69.5632 14.1878 69.6501C14.1878 69.6501 14.1661 69.6501 14.2204 69.7478C14.3615 69.9649 14.4809 70.0572 14.6275 70.1115C15.23 70.8769 16.1203 71.55 16.3754 72.4131C17.5588 76.4191 21.022 78.9541 22.7699 82.4499C24.6209 86.1466 27.0528 89.2298 29.6529 92.3185C31.048 93.9796 32.1988 95.8469 33.4364 97.8336C33.4147 98.0399 33.3224 98.1322 33.1976 98.1159C32.9099 98.0888 32.7416 98.0833 32.5245 97.9585C32.3345 97.7576 32.1988 97.6762 32.0251 97.4699C31.8568 97.2854 31.7157 97.2148 31.5365 97.0954C31.4931 97.0411 31.3574 97.0791 31.2597 96.938C29.9352 95.2172 28.703 93.6376 27.4762 92.058C20.5606 83.1502 13.9327 74.0415 8.65639 64.0427C5.05746 57.2193 1.74624 50.2766 1.76253 42.0853C1.90909 40.0497 1.75165 38.177 2.14791 36.4291C2.95672 32.8356 4.05868 29.3018 5.08462 25.6431C5.20947 25.4097 5.30719 25.3012 5.60031 25.2143C6.93024 24.2426 8.08643 23.2656 9.67691 21.9302C8.56954 21.6805 8.22213 21.6045 7.94529 21.3982C11.6474 15.9917 16.5437 11.9965 22.0805 7.93613C20.5009 7.93613 19.5509 7.93613 18.601 7.93613C19.958 6.85048 21.1957 5.53684 22.7102 4.74431C24.2301 3.94636 26.0214 3.66409 27.8236 3.36011C29.4684 3.63695 30.9883 3.70752 32.5082 3.78351C31.3574 4.21777 30.2066 4.65203 28.8278 5.17315C29.3815 5.39571 29.7723 5.55313 30.3097 5.77026C30.0275 5.9711 29.8049 6.12852 29.5824 6.28594C24.4798 9.89031 19.3066 13.4024 14.2909 17.1208C9.89947 20.3723 8.14072 25.2794 6.8325 30.3114C5.42658 35.7126 4.77521 41.1788 6.20827 46.7211C6.34398 47.2476 5.76316 47.9587 5.25833 48.4581C3.47243 41.2711 4.06953 34.3555 6.53396 27.505C6.64795 27.2662 6.6588 27.0816 6.66423 26.8971C6.49595 27.0436 6.32769 27.1956 6.03457 27.4399C1.68653 35.6149 2.86445 43.8387 5.41574 52.1059C5.45916 51.5414 5.50258 50.9714 5.54601 50.4069M6.0834 55.162C6.51223 56.1337 6.94106 57.1054 7.3699 58.077C7.60874 57.9359 7.85302 57.7948 8.09187 57.6536C7.41876 56.7145 6.74565 55.77 6.0834 55.162ZM9.30236 61.6217L9.4055 61.6814C9.4055 61.6814 9.38921 61.5402 9.30236 61.6217ZM8.92781 60.612L8.8681 60.7586C8.8681 60.7586 8.99295 60.7206 8.92781 60.612ZM8.36328 59.7924C8.42842 59.7978 8.49355 59.8086 8.55869 59.8141C8.53155 59.7706 8.50441 59.7272 8.36328 59.7924ZM7.89646 58.8695C7.97245 58.875 8.043 58.8804 8.119 58.8913C8.08643 58.8424 8.05388 58.7935 7.89646 58.8695Z" fill="#30363A"/>
<path d="M78.3065 49.6632C78.3065 49.6632 78.3119 49.8206 78.1708 50.0106C77.9699 50.7869 77.9102 51.3677 77.8451 51.9539C77.8451 51.9539 77.8505 52.1059 77.7202 52.2308C77.5248 52.7953 77.4651 53.2296 77.3999 53.6693C75.3915 61.2797 72.3788 68.369 67.3794 74.5898C65.3438 77.1248 63.927 80.1538 62.1791 82.933C61.8262 83.4922 61.2726 83.921 60.8112 84.4041C58.6996 86.6188 56.5826 88.8336 54.4818 91.0592C54.281 91.2709 54.1996 91.5857 54.0259 91.83C52.7556 93.5887 51.4692 95.3366 50.2044 97.0954C49.7538 97.7142 49.4336 98.4633 48.8853 98.9681C47.6965 100.059 46.4046 101.031 45.015 101.943C44.7707 101.036 44.6621 100.238 44.6078 99.3373C44.901 98.9084 45.1398 98.5827 45.4981 98.181C45.9541 97.7685 46.296 97.4374 46.8117 97.1171C50.3346 94.8535 52.9728 92.0308 54.0964 87.8511C56.6043 84.529 59.2044 81.4457 61.4734 78.1399C64.3341 73.9764 66.9234 69.6229 69.7515 65.2369C69.9687 64.8081 70.0609 64.4932 70.1315 64.1893C70.1098 64.2055 70.1478 64.2435 70.2889 64.1784C71.076 62.7508 71.722 61.3937 72.4711 59.9281C72.6937 59.4612 72.8131 59.0975 73.0302 58.6144C73.5188 58.0987 73.9042 57.697 74.2299 57.4528C73.8173 58.6741 73.4645 59.7326 73.0031 60.8889C72.8131 61.2526 72.7316 61.5294 72.6502 61.8008C72.8999 61.5565 73.155 61.3123 73.5242 60.9649C74.0507 59.8032 74.4579 58.7393 74.9138 57.6265C74.9627 57.5668 74.9246 57.4256 75.0006 57.3171C75.1798 56.8828 75.2829 56.5463 75.4512 56.0849C75.6412 55.4877 75.7606 55.0155 75.9398 54.4347C75.9832 54.2392 75.9723 54.1524 76.032 53.9081C76.3469 52.6379 76.5965 51.5305 76.9005 50.2603C76.9765 49.7609 76.9982 49.4244 77.1177 48.9413C77.2534 48.1162 77.2914 47.4376 77.3565 46.5854C77.3891 46.0697 77.3945 45.7277 77.5465 45.2555C77.6605 41.4068 77.6279 37.6885 77.7853 33.9484C78.0947 33.9158 78.2196 33.8995 78.3336 34.0787C78.3445 34.9038 78.3608 35.5334 78.3771 36.3585C78.5128 37.5202 78.7733 38.4973 78.7461 39.4635C78.6484 42.867 78.453 46.2651 78.2956 49.6632H78.3065Z" fill="#13171A"/>
<path d="M1.73542 42.297C1.76799 50.2711 5.07925 57.2193 8.67819 64.0372C13.9545 74.0415 20.5824 83.1447 27.498 92.0525C28.7248 93.6321 29.957 95.2117 31.0643 96.9705C30.4998 97.1713 30.0601 97.193 29.615 97.2202C29.1373 96.7533 28.6542 96.2865 28.0462 95.6351C27.3243 94.7612 26.7326 94.0664 26.1463 93.377C26.1355 93.2304 26.0703 93.1055 25.8261 92.8233C25.077 91.9765 24.4527 91.3251 23.8285 90.6683C23.823 90.5163 23.7633 90.386 23.519 90.0929C22.7808 89.2298 22.1674 88.5675 21.5486 87.8998C21.5486 87.7478 21.4835 87.623 21.2555 87.3299C20.8049 86.7979 20.4738 86.4614 20.1372 86.1248C20.1318 85.9674 20.0667 85.8371 19.8387 85.5331C19.399 84.9957 19.0787 84.6537 18.753 84.3063C17.4883 82.5204 16.218 80.7291 14.8176 78.7098C14.3833 78.1073 14.0847 77.7327 13.7862 77.3636C13.7862 77.3636 13.7156 77.4233 13.7428 77.2387C13.1782 76.2345 12.592 75.4094 12.0057 74.5843C12.0057 74.5843 11.8971 74.6603 11.9243 74.4595C10.4315 71.7996 8.91161 69.3352 7.39713 66.8707C6.50689 64.9871 5.61122 63.0981 4.63413 60.9105C3.34763 56.5625 2.14256 52.513 0.937485 48.4689C0.937485 48.0455 0.948347 47.6275 1.07862 46.9653C1.38261 45.2445 1.55632 43.768 1.73002 42.2861L1.73542 42.297Z" fill="#F1F2F3"/>
<path d="M5.45382 25.2033C5.32897 25.2901 5.22582 25.4041 4.96526 25.6755C4.26501 26.5278 3.74933 27.2389 3.23364 27.7654C3.81989 25.567 4.40615 23.5531 4.99783 21.5446C6.28975 19.4493 7.49482 17.2943 8.92788 15.2967C9.42186 14.6019 10.5401 14.3902 11.2621 13.8148C13.6614 11.9149 16.0172 9.95528 18.5088 7.97397C19.5781 7.93054 20.5281 7.93054 22.1077 7.93054C16.5709 11.9909 11.6746 15.9915 7.83683 21.4849C6.9086 22.8691 6.18664 24.0362 5.45925 25.2033H5.45382Z" fill="#F1F2F3"/>
<path d="M32.7253 3.74539C31.0154 3.70197 29.4955 3.62597 27.9702 3.41427C28.1276 3.19714 28.285 3.12657 28.4099 2.92572C28.3719 2.80087 28.361 2.81716 28.361 2.81716C29.3273 2.64888 30.2989 2.48061 31.5908 2.30147C32.8936 2.16034 33.8707 2.03006 34.9618 2.04092C38.5064 2.97458 41.9425 3.76711 45.2809 4.67905C44.8249 5.01018 44.4667 5.21645 44.0433 5.46072C45.498 6.45952 46.8008 7.34976 47.9353 8.23457C46.6326 7.80031 45.5035 7.37147 44.1898 6.93721C42.5668 6.85036 41.1826 6.76351 40.8786 4.84733C40.8298 4.5542 39.9449 4.23394 39.4347 4.21222C38.7073 4.17965 37.9745 4.41307 37.2417 4.53249C35.7977 4.25565 34.3593 3.97881 32.7253 3.73454V3.74539Z" fill="#7F878C"/>
<path d="M34.8478 1.90532C33.8707 2.0356 32.8882 2.16588 31.7266 2.27987C32.34 1.84018 33.1054 1.15079 33.9413 1.04766C36.5252 0.738244 39.1362 0.651392 42.0837 0.62425C43.8805 0.607966 45.5904 1.93246 46.7195 0C47.5446 0.271413 48.3696 0.542826 49.439 1.02594C50.1067 1.2865 50.5247 1.33535 50.9426 1.38421C53.5211 2.44815 56.0995 3.51752 58.9765 4.6466C59.3728 4.67374 59.4596 4.63574 59.5519 4.59774C59.5519 4.59774 59.5138 4.6086 59.541 4.76059C59.8667 4.96143 60.1653 5.00486 60.4693 5.04829C60.4693 5.04829 60.4367 5.05914 60.3987 5.20028C60.5507 5.40112 60.7407 5.46083 60.9307 5.52055C60.9307 5.52055 60.8926 5.52055 60.8926 5.66168C61.5169 6.16651 62.1412 6.52477 62.7654 6.88847C62.7654 6.88847 62.7274 6.88847 62.7328 7.06217C62.7328 7.44758 62.7328 7.65928 62.57 7.87098C54.0368 2.10074 44.7653 0.499401 34.8424 1.89446L34.8478 1.90532Z" fill="#3E4347"/>
<path d="M4.82952 21.5557C4.40611 23.5587 3.81444 25.5726 3.0762 27.8579C2.10454 32.9604 1.29031 37.7916 0.470641 42.6282C0.340362 42.4436 0.112379 42.2645 0.101523 42.0745C-0.343595 35.0069 0.617203 28.2161 4.13472 21.9411C4.23243 21.7728 4.48211 21.6914 4.82952 21.5557Z" fill="#191E21"/>
<path d="M36.9703 106.421C37.6434 106.057 38.4305 105.813 39.831 105.384C37.9365 102.138 36.1669 99.0983 34.5493 95.9282C36.6717 96.3028 38.3708 97.0899 38.6422 99.4512C38.6639 99.6194 39.1144 99.7389 39.3696 100.075C39.6355 101.378 39.907 102.486 40.2598 103.718C40.5149 103.94 40.6886 104.043 40.8623 104.179C40.8623 104.217 40.8026 104.25 40.7646 104.385C40.4606 104.771 40.2001 105.026 39.9504 105.406C40.0915 105.645 40.2164 105.759 40.3412 105.867C39.4347 106.958 38.4142 107.485 36.9757 106.416L36.9703 106.421Z" fill="#3E4347"/>
<path d="M0.476028 42.8453C1.29027 37.797 2.10993 32.9658 3.08159 28.0424C3.74926 27.239 4.26496 26.5333 4.92178 25.7788C4.0804 29.2963 2.97845 32.8247 2.16964 36.4236C1.77338 38.1715 1.93079 40.0443 1.78422 42.0799C1.56167 43.7735 1.38255 45.25 1.08399 46.8405C0.801722 45.6571 0.638876 44.3598 0.476028 42.8398V42.8453Z" fill="#697075"/>
<path d="M78.3444 33.8887C78.2196 33.9049 78.0947 33.9158 77.7147 33.7964C76.3359 29.6166 75.2177 25.578 74.2624 21.4308C75.424 22.929 76.4228 24.5358 77.4216 26.1371C77.4216 26.1371 77.3891 26.1371 77.2859 26.2728C77.2479 26.6473 77.313 26.8862 77.3782 27.125C77.3945 27.277 77.4054 27.4344 77.4379 27.8633C77.6062 28.2758 77.7636 28.417 77.9156 28.5581C77.9156 28.6992 77.9048 28.8349 77.8451 29.2475C77.9591 29.9152 78.1219 30.306 78.2847 30.7023C78.2847 30.7023 78.3282 30.8543 78.2902 31.142C78.2847 32.2493 78.3119 33.069 78.3444 33.8941V33.8887Z" fill="#30363A"/>
<path d="M0.71491 48.5232C2.14254 52.5238 3.34762 56.5679 4.54726 60.7856C4.08586 60.5088 3.47788 60.1343 3.20646 59.5969C1.5617 56.3616 0.921177 52.8007 0.0635118 49.3157C0.0146574 49.1149 0.340332 48.8217 0.72031 48.5232H0.71491Z" fill="#30363A"/>
<path d="M44.5535 99.4404C44.6621 100.238 44.7652 101.031 44.8847 102.008C43.9184 102.806 42.9413 103.425 41.6874 104.049C41.4106 104.054 41.2043 104 41.2368 103.848C42.0185 102.453 42.7622 101.21 43.647 99.9127C43.9347 99.7227 44.0813 99.587 44.3038 99.4567C44.3853 99.4567 44.5535 99.4404 44.5535 99.4404Z" fill="#272C2F"/>
<path d="M7.2668 66.9685C8.91156 69.3461 10.4315 71.8051 11.9731 74.4269C11.2729 73.8624 10.3663 73.2436 9.85609 72.3913C8.83558 70.6814 8.03218 68.8413 7.2668 66.9685Z" fill="#30363A"/>
<path d="M78.4585 49.5382C78.4585 46.265 78.6593 42.8669 78.757 39.4688C78.7842 38.5026 78.5182 37.5309 78.5128 36.3801C78.8114 36.1955 78.9796 36.1901 79.1533 36.1847C78.9742 40.5924 78.7951 45.0002 78.4585 49.5382Z" fill="#3E4347"/>
<path d="M29.6312 97.3939C30.0546 97.2039 30.4997 97.1768 31.162 97.1171C31.3791 97.0791 31.5148 97.0411 31.5854 97.2094C31.7971 97.4482 31.9382 97.5188 32.0793 97.5839C32.2151 97.6708 32.3508 97.7576 32.5136 98.1213C32.7796 98.6533 33.0239 98.9084 33.2627 99.1744C33.2573 99.1853 33.241 99.207 33.241 99.207C32.6765 99.4078 32.1119 99.6087 31.542 99.9452C31.4551 99.6792 31.504 99.1635 31.2705 98.903C30.8146 98.3819 30.2012 98.0019 29.6366 97.3939H29.6312Z" fill="#B3B7BA"/>
<path d="M77.3999 25.9634C76.4228 24.5358 75.424 22.929 74.2841 21.4308C74.1429 21.534 74.1484 21.5774 74.3167 21.4797C74.1213 20.6166 73.7521 19.8458 73.4861 18.9935C73.649 18.8578 73.7141 18.8036 73.7792 18.7493C74.9789 21.0943 76.1731 23.4393 77.3999 25.958V25.9634Z" fill="#CBCED0"/>
<path d="M67.3306 11.2908C67.6509 11.3233 67.9711 11.3559 68.2479 11.7033C68.3837 12.1376 68.5628 12.2624 68.7474 12.3818C68.7474 12.3818 68.7093 12.3818 68.7039 12.5121C68.8667 12.7021 69.035 12.7564 69.2033 12.8161C69.2033 12.8161 69.1599 12.8432 69.1436 12.9789C69.3065 13.1689 69.4801 13.2178 69.6593 13.2721C69.6593 13.2721 69.6158 13.3209 69.5833 13.4621C69.5616 13.8366 69.5779 14.0646 69.4259 14.3197C67.5206 12.4795 65.7781 10.6122 64.2094 8.69605C64.611 8.65805 64.8444 8.67433 65.0724 8.68519C65.0724 8.68519 65.0181 8.71233 65.0019 8.84804C65.1701 9.03803 65.3547 9.09231 65.5392 9.15202C65.5392 9.15202 65.4958 9.17916 65.485 9.30401C65.6478 9.494 65.8269 9.55371 66.0006 9.61342C66.0006 9.61342 65.9627 9.61885 65.9735 9.77627C66.4404 10.1345 66.8909 10.33 67.336 10.5308C67.336 10.5308 67.3088 10.5634 67.2057 10.7371C67.1786 11.0356 67.2546 11.1605 67.3252 11.2908H67.3306Z" fill="#3E4347"/>
<path d="M46.5186 0.00537109C45.5903 1.9324 43.875 0.607908 42.2954 0.651335C43.5439 0.358208 44.9335 0.184504 46.5186 0.00537109Z" fill="#5F666B"/>
<path d="M79.1696 35.9893C78.9796 36.1902 78.8059 36.1956 78.5074 36.1848C78.3662 35.5388 78.3499 34.9037 78.3391 34.084C78.3173 33.0689 78.2848 32.2493 78.2848 31.2179C78.6051 32.6075 78.8982 34.198 79.1696 35.9893Z" fill="#5F666B"/>
<path d="M23.8013 90.8636C24.4527 91.325 25.0769 91.9819 25.7283 92.7852C24.165 93.2846 23.6602 92.4976 23.8013 90.8636Z" fill="#30363A"/>
<path d="M11.9677 74.7689C12.5919 75.4203 13.1782 76.24 13.7807 77.2225C12.1034 77.3853 12.0817 76.1151 11.9677 74.7689Z" fill="#30363A"/>
<path d="M21.5214 88.079C22.1674 88.5675 22.7808 89.2352 23.4213 90.0494C22.7916 89.55 22.1457 88.9041 21.5214 88.079Z" fill="#30363A"/>
<path d="M26.1137 93.5507C26.7325 94.0718 27.3242 94.7612 27.8996 95.6134C27.2862 95.0923 26.6837 94.4083 26.1137 93.5507Z" fill="#30363A"/>
<path d="M71.7058 15.2751C72.292 16.149 72.8837 17.0176 73.4211 18.1032C73.2854 18.38 73.1985 18.4398 73.0086 18.418C72.7046 18.1901 72.5092 18.0489 72.33 17.9024C72.3463 17.9024 72.3408 17.9349 72.3626 17.7775C72.0531 17.2564 71.7274 16.8873 71.4126 16.5236C71.4289 16.5236 71.4235 16.5562 71.4506 16.4259C71.4344 16.2196 71.3855 16.149 71.3258 15.9862C71.3149 15.9048 71.2769 15.7365 71.3855 15.6225C71.5646 15.4271 71.6352 15.3511 71.7058 15.2697V15.2751Z" fill="#CBCED0"/>
<path d="M65.1049 8.52239C64.8443 8.67438 64.6109 8.66352 64.2255 8.69066C64.0681 8.72866 64.0844 8.76666 64.1115 8.61467C63.965 8.40296 63.7858 8.34325 63.623 8.28354C63.6393 8.28354 63.6392 8.31068 63.6067 8.13698C63.281 7.91985 62.9933 7.88185 62.7219 7.83843C62.7381 7.83843 62.7382 7.87642 62.7382 7.87642C62.7382 7.65929 62.7382 7.44759 62.7382 7.0459C63.5361 7.35531 64.3395 7.85471 65.1103 8.51696L65.1049 8.52239Z" fill="#CBCED0"/>
<path d="M69.5887 14.2981C69.5778 14.0701 69.567 13.8421 69.5995 13.4404C70.2726 13.8638 70.8969 14.4555 71.6134 15.1666C71.6351 15.362 71.5645 15.4435 71.2714 15.5466C70.7069 15.286 70.3649 14.9929 70.0338 14.7052C70.0501 14.7052 70.0446 14.7378 70.0555 14.5858C69.8981 14.3741 69.7352 14.3198 69.5832 14.2655C69.5995 14.271 69.5832 14.309 69.5832 14.309L69.5887 14.2981Z" fill="#CBCED0"/>
<path d="M41.1989 104.005C41.1989 104.005 41.4051 104.06 41.5083 104.038C41.2857 104.467 40.96 104.912 40.3792 105.352C40.1241 105.341 39.9287 105.292 39.9287 105.292C40.1892 105.037 40.4552 104.787 40.8569 104.418C41.1174 104.233 41.1935 104.125 41.2206 103.995C41.2152 104 41.1989 104.011 41.1989 104.011V104.005Z" fill="#757B81"/>
<path d="M62.7166 6.75264C62.1466 6.54094 61.5223 6.17724 60.8926 5.65613C61.4843 5.86783 62.0706 6.23695 62.7166 6.75264Z" fill="#CBCED0"/>
<path d="M13.7644 77.5427C14.0901 77.7436 14.3887 78.1127 14.6981 78.6284C14.3832 78.4221 14.063 78.0693 13.7644 77.5427Z" fill="#30363A"/>
<path d="M20.1263 86.3094C20.4737 86.4723 20.8103 86.8088 21.1631 87.292C20.8266 87.1237 20.4683 86.8034 20.1263 86.3094Z" fill="#30363A"/>
<path d="M18.7421 84.4855C19.0787 84.6592 19.4044 85.0012 19.7355 85.4951C19.4098 85.316 19.0678 84.9849 18.7421 84.4855Z" fill="#30363A"/>
<path d="M77.5465 53.5931C77.465 53.2294 77.5247 52.7952 77.7147 52.3066C77.7907 52.6758 77.7419 53.0992 77.5465 53.5931Z" fill="#3E4347"/>
<path d="M77.9916 51.84C77.9048 51.3677 77.9699 50.7815 78.1599 50.0867C78.2413 50.5589 78.187 51.1452 77.9916 51.84Z" fill="#3E4347"/>
<path d="M67.2817 10.3788C66.8854 10.33 66.4403 10.1346 65.9735 9.76001C66.3806 9.79801 66.804 10.0151 67.2817 10.3788Z" fill="#CBCED0"/>
<path d="M78.3011 30.5501C78.1273 30.3058 77.9645 29.9096 77.8288 29.3505C78.0079 29.5893 78.1599 29.9964 78.3011 30.5501Z" fill="#5F666B"/>
<path d="M50.8557 1.24835C50.53 1.3352 50.1066 1.28634 49.5855 1.11264C49.9112 1.03121 50.3346 1.07464 50.8557 1.24835Z" fill="#5F666B"/>
<path d="M77.5139 27.0599C77.3185 26.8861 77.2534 26.6473 77.2968 26.2565C77.4868 26.403 77.5628 26.7016 77.5139 27.0599Z" fill="#CBCED0"/>
<path d="M78.0079 28.4603C77.7636 28.4115 77.6062 28.2704 77.4217 27.9718C77.6225 27.9989 77.8613 28.1781 78.0079 28.4603Z" fill="#5F666B"/>
<path d="M60.4149 4.91794C60.1707 5.0048 59.8721 4.96137 59.541 4.74424C59.7961 4.6411 60.0729 4.71167 60.4149 4.91794Z" fill="#CBCED0"/>
<path d="M68.8342 12.2028C68.5628 12.2625 68.3837 12.1376 68.2371 11.8445C68.4922 11.7902 68.7039 11.9042 68.8342 12.2028Z" fill="#CBCED0"/>
<path d="M39.9449 105.411C39.9287 105.281 40.1241 105.335 40.2218 105.363C40.3358 105.471 40.3466 105.553 40.3521 105.753C40.2164 105.764 40.0861 105.65 39.9449 105.411Z" fill="#555C60"/>
<path d="M69.7243 13.0984C69.4855 13.2178 69.3064 13.169 69.1599 12.9573C69.3878 12.8433 69.5886 12.8813 69.7243 13.0984Z" fill="#CBCED0"/>
<path d="M69.2684 12.6369C69.035 12.7563 68.8667 12.7021 68.7093 12.4904C68.921 12.3764 69.1273 12.4198 69.2684 12.6369Z" fill="#CBCED0"/>
<path d="M60.898 5.40648C60.746 5.46619 60.5561 5.40648 60.4041 5.18935C60.5832 5.11878 60.7243 5.20021 60.898 5.40648Z" fill="#CBCED0"/>
<path d="M73.5025 18.2389C73.7251 18.2823 73.7631 18.4126 73.7685 18.6569C73.7142 18.8143 73.6491 18.8686 73.4265 18.912C73.1931 18.7817 73.1442 18.646 73.1116 18.5049C73.1985 18.4397 73.28 18.38 73.5025 18.2389Z" fill="#CBCED0"/>
<path d="M59.5193 4.48373C59.465 4.64115 59.3781 4.67914 59.1447 4.66829C59.161 4.53258 59.3185 4.45116 59.5193 4.48373Z" fill="#CBCED0"/>
<path d="M28.3773 2.79557C28.3447 2.75214 28.3013 2.71415 28.2579 2.67615C28.2742 2.68158 28.285 2.687 28.3285 2.75757C28.3556 2.82271 28.3665 2.801 28.3773 2.79557Z" fill="#7F878C"/>
<path d="M66.0657 9.43973C65.8214 9.55372 65.6424 9.49401 65.4958 9.28231C65.7292 9.17917 65.9354 9.2226 66.0657 9.43973Z" fill="#CBCED0"/>
<path d="M65.6097 8.97829C65.3546 9.09229 65.1754 9.038 65.0289 8.83173C65.2731 8.72317 65.474 8.76659 65.6097 8.97829Z" fill="#CBCED0"/>
<path d="M67.5152 11.3016C67.26 11.1605 67.184 11.0357 67.222 10.7208C67.4554 10.7914 67.5749 11.0574 67.5152 11.3016Z" fill="#CBCED0"/>
<path d="M40.1675 103.598C39.9016 102.491 39.6356 101.384 39.4401 99.918C39.6084 99.196 39.7876 98.8323 39.793 98.4686C39.8201 95.6839 39.8201 92.9046 39.8201 90.1199C39.8201 86.4233 39.831 82.7266 39.7767 79.03C39.7604 77.9769 39.2556 76.8858 39.4293 75.8925C39.8581 73.466 40.9112 71.1047 41.0469 68.6783C41.1935 66.0619 42.4691 64.8188 44.6513 64.0534C45.5795 63.7277 46.5403 63.4997 47.4794 63.1903C49.8678 62.4032 51.6429 60.9647 52.7394 58.2397C51.2032 58.5709 50.085 58.8151 49.0482 58.9291C49.4281 58.5817 49.7538 58.3809 50.0307 58.1312C52.5114 55.9056 55.6543 54.2337 56.4957 50.4339C57.2828 48.5286 57.9342 46.7264 58.7159 44.7994C59.0525 43.8223 59.4378 42.9592 59.4053 42.1069C59.3673 41.0322 58.9873 39.9736 58.7322 38.7089C58.8027 34.2305 56.6423 31.0984 53.5645 28.2649C51.2303 24.9156 47.9842 23.0646 44.9824 21.7184C44.3202 22.6738 43.913 23.2654 43.2888 23.8517C41.5789 23.8788 40.0753 23.906 38.5716 23.9385C38.6151 24.0417 38.6368 24.1557 38.7019 24.2371C38.7399 24.286 38.843 24.2805 38.8919 24.4597C38.5336 24.8451 38.2025 25.0676 37.6977 25.2685C36.2809 25.2088 35.0378 25.1599 33.7948 25.0242C33.7948 24.9265 33.887 24.7636 34.0499 24.7799C34.761 24.5682 35.8086 24.1991 35.7924 24.1394C35.1573 21.9355 37.068 22.88 37.8225 22.5163C38.3382 22.2721 38.9896 22.3046 39.5758 22.2178C34.8804 20.7304 30.4727 20.535 26.358 23.7486C21.2338 27.7492 18.1071 32.6238 17.4937 39.268C16.4623 50.423 20.7018 58.8369 31.9383 61.969C33.1488 62.3055 34.5384 62.0124 35.8412 62.0124C35.8575 61.8061 35.8738 61.6053 35.8901 61.399C35.0541 61.0353 34.2182 60.6662 33.3333 60.2808C33.7405 59.9931 34.039 59.7868 34.5384 59.5751C35.3852 59.6294 36.0366 59.6891 36.726 59.9008C37.0843 60.3351 37.3611 60.6933 37.7194 60.8996C40.6398 62.5335 43.4245 61.0516 46.2146 60.6445C44.3473 62.0015 42.6537 63.6572 40.6398 64.276C38.4034 64.9599 35.8032 65.1391 33.4853 64.7645C29.2839 64.086 25.8206 61.589 22.3574 58.9834C19.6107 56.7633 18.0474 53.9514 17.1354 50.765C15.469 44.9514 15.7349 39.1105 17.1029 33.2969C17.3906 32.0701 17.9225 30.8324 18.6228 29.7902C20.0775 27.6243 21.6191 25.4965 23.3182 23.5206C26.738 19.5417 30.8689 16.8547 36.3786 16.9307C36.9431 16.9361 37.6651 16.7624 38.0614 16.3987C40.7375 13.9451 40.1024 10.5524 36.764 9.04882C35.2441 8.36486 33.7785 7.64833 32.074 8.61999C31.7646 8.79369 31.1349 8.40286 30.6518 8.27258C32.7797 7.12721 34.9075 5.97642 37.1386 4.69535C37.9745 4.44022 38.7073 4.20681 39.4347 4.23938C39.945 4.26109 40.8298 4.58136 40.8786 4.87448C41.1826 6.79066 42.5668 6.87751 44.2062 7.12179C44.8576 7.77861 45.3189 8.27258 45.8075 8.90768C46.1223 9.26052 46.4155 9.4668 46.7086 9.67307C46.7086 9.67307 46.7086 9.67307 46.7249 9.83049C46.8931 10.2485 46.9963 10.5524 47.1971 10.7587C50.6441 14.2545 54.3896 17.5061 57.4891 21.2896C61.1532 25.7624 64.2365 30.7185 64.5459 36.7873C64.9856 45.3313 62.1845 53.11 58.3631 60.5142C54.395 68.1952 49.9384 75.621 47.5771 84.0511C46.8877 86.5156 45.5849 88.8009 44.6567 91.2056C43.8967 93.1652 43.2779 95.1737 42.5885 97.3124C42.5777 97.6707 42.5723 97.8715 42.4094 98.1049C42.062 98.5772 41.872 99.0223 41.6711 99.6357C41.1663 101.08 40.6669 102.355 40.1675 103.625V103.598Z" fill="#555C60"/>
<path d="M30.4889 8.28359C31.1349 8.38673 31.7645 8.77756 32.0739 8.60386C33.7784 7.6322 35.2441 8.34873 36.764 9.03269C40.1024 10.5363 40.7375 13.9344 38.0613 16.3826C37.6651 16.7463 36.9485 16.92 36.3786 16.9145C30.8689 16.844 26.738 19.531 23.3182 23.5044C21.6191 25.4803 20.0775 27.6136 18.6227 29.7741C17.9225 30.8163 17.3905 32.0594 17.1028 33.2808C15.7349 39.0944 15.4635 44.9407 17.1354 50.7489C18.0528 53.9353 19.6161 56.7471 22.3628 59.1356C23.6601 60.7043 24.9032 61.9528 26.1083 63.2393C27.7585 65.0035 30.3261 66.5723 30.7929 68.6188C31.5908 72.0983 31.1674 75.8872 31.0209 79.535C30.9774 80.6098 29.9352 81.69 28.7356 80.6532C24.9575 77.38 21.3857 73.9276 19.6324 69.015C18.6173 66.176 17.4719 63.3642 16.1203 60.6772C14.2964 57.0565 11.9134 53.843 11.1263 49.6035C9.57925 41.2603 9.49782 33.1939 12.8796 25.2795C12.9719 25.0624 12.4888 24.6064 12.2771 24.259C13.0859 22.9888 13.7753 21.61 14.7306 20.4646C19.0461 15.2861 23.8719 10.7426 30.4889 8.26731V8.28359Z" fill="#484E53"/>
<path d="M12.1413 24.362C12.4833 24.6171 12.9664 25.0785 12.8741 25.2902C9.49234 33.2101 9.5792 41.2765 11.1208 49.6143C11.9079 53.8538 14.2909 57.0673 16.1148 60.6879C17.4665 63.3749 18.6118 66.1868 19.6269 69.0258C21.3857 73.9383 24.952 77.3907 28.7301 80.664C29.9298 81.7008 30.972 80.6205 31.0154 79.5457C31.1565 75.8979 31.5854 72.109 30.7874 68.6295C30.3206 66.583 27.753 65.0088 26.1028 63.2501C24.8977 61.9636 23.6547 60.7151 22.4279 59.282C25.8151 61.5836 29.2784 64.0806 33.4798 64.7591C35.7977 65.1337 38.3978 64.96 40.6343 64.2706C42.6482 63.6518 44.3418 62.0016 46.3557 60.6011C47.3436 59.9497 48.1524 59.5046 48.9558 59.0595C50.074 58.8152 51.1922 58.5764 52.7284 58.2398C51.6319 60.9648 49.8569 62.4033 47.4685 63.1904C46.5348 63.4998 45.574 63.7332 44.6404 64.0535C42.4582 64.8189 41.1825 66.0619 41.036 68.6784C40.9003 71.1048 39.8472 73.4661 39.4184 75.8925C39.2447 76.8859 39.7495 77.977 39.7658 79.0301C39.8255 82.7267 39.8092 86.4234 39.8092 90.12C39.8092 92.9047 39.8092 95.684 39.782 98.4687C39.782 98.8324 39.6029 99.1961 39.4292 99.7226C39.1035 99.7443 38.6475 99.6249 38.6313 99.4566C38.3598 97.0899 36.6608 96.3082 34.5275 95.7708C27.8453 86.2116 20.642 77.1084 15.6588 66.6102C13.5147 62.0939 11.8645 57.3441 9.99174 52.3773C9.73661 51.8019 9.47606 51.5522 9.2155 51.3025C8.77581 48.4635 8.09187 45.6354 7.93987 42.7801C7.59789 36.3259 8.59126 30.0997 12.1359 24.3566L12.1413 24.362Z" fill="#4D5458"/>
<path d="M6.44177 27.5484C4.08591 34.3445 3.4888 41.2601 5.08471 48.4743C5.25298 49.104 5.34524 49.5762 5.50266 50.2222C5.52438 50.9605 5.48095 51.525 5.43753 52.0895C2.88081 43.8223 1.70832 35.5985 6.12149 27.4778C6.31148 27.4344 6.44177 27.5429 6.44177 27.5429V27.5484Z" fill="#DEDFE0"/>
<path d="M13.2867 68.1084C12.9882 67.9022 12.6842 67.5385 12.3748 67.0282C12.6734 67.2345 12.9773 67.5927 13.2867 68.1084Z" fill="#3E4347"/>
<path d="M33.469 97.9911C33.5178 98.3168 33.5179 98.6968 33.3767 99.1419C33.2356 99.2124 33.2464 99.1907 33.3061 99.0062C33.355 98.5936 33.3441 98.3602 33.3333 98.1322C33.3333 98.1322 33.4256 98.0399 33.469 97.9911Z" fill="#30363A"/>
<path d="M9.21559 51.4491C9.48158 51.5522 9.73669 51.8019 9.98096 52.2091C9.71498 52.1059 9.45986 51.8508 9.21559 51.4491Z" fill="#3E4347"/>
<path d="M12.3748 66.7512C12.2229 66.6806 12.0708 66.4635 11.9189 66.1161C12.0708 66.1921 12.2229 66.3984 12.3748 66.7512Z" fill="#3E4347"/>
<path d="M11.9134 65.8177C11.7614 65.7146 11.6094 65.4649 11.4683 65.0577C11.6257 65.1554 11.7722 65.4106 11.9134 65.8177Z" fill="#3E4347"/>
<path d="M13.7373 69.0529C13.5908 68.9715 13.4442 68.7544 13.2868 68.3961C13.4279 68.4775 13.5799 68.6947 13.7373 69.0529Z" fill="#3E4347"/>
<path d="M35.2603 100.32C35.3146 100.39 35.3689 100.466 35.4177 100.537C35.3743 100.515 35.3309 100.493 35.2657 100.407C35.244 100.336 35.2549 100.32 35.2549 100.32H35.2603Z" fill="#30363A"/>
<path d="M34.8315 99.8311C34.9835 99.88 35.1029 99.9723 35.2223 100.211C35.2658 100.314 35.2495 100.331 35.2441 100.336C35.0866 100.303 34.9618 100.222 34.8315 99.9777C34.7935 99.8637 34.8315 99.8257 34.8315 99.8257V99.8311Z" fill="#30363A"/>
<path d="M34.7773 99.8854C34.7121 99.8149 34.6579 99.7226 34.609 99.6357C34.6579 99.6575 34.7121 99.6737 34.7936 99.7606C34.8261 99.8257 34.7936 99.8637 34.7773 99.88V99.8854Z" fill="#30363A"/>
<path d="M14.595 70.0029C14.4973 70.0518 14.3779 69.9595 14.2367 69.7315C14.3073 69.7206 14.4267 69.8075 14.595 70.0029Z" fill="#3E4347"/>
<path d="M14.1498 69.5415C14.0738 69.5578 13.9544 69.4709 13.7753 69.2755C13.8459 69.2592 13.9761 69.3461 14.1498 69.5415Z" fill="#3E4347"/>
<path d="M5.62201 25.2088C6.18112 24.0363 6.90308 22.8692 7.76075 21.6099C8.24386 21.599 8.59127 21.675 9.69321 21.9247C8.10815 23.2601 6.9465 24.2372 5.61658 25.2088H5.62201Z" fill="#697075"/>
<path d="M6.07803 54.999C6.74571 55.7753 7.41883 56.7144 8.09193 57.6589C7.85309 57.8 7.60881 57.9411 7.36996 58.0823C6.94113 57.1106 6.51229 56.139 6.07803 55.0045V54.999Z" fill="#757B81"/>
<path d="M33.2139 98.1105C33.3496 98.3602 33.3605 98.5881 33.3171 98.9898C33.0185 98.903 32.7742 98.6478 32.5625 98.2299C32.7579 98.0724 32.9262 98.0833 33.2139 98.1105Z" fill="#13171A"/>
<path d="M6.24091 27.391C6.34404 27.1902 6.51232 27.0382 6.68059 26.8916C6.66974 27.0762 6.66431 27.2607 6.55032 27.4996C6.44176 27.5539 6.31147 27.4453 6.24091 27.391Z" fill="#DEDFE0"/>
<path d="M32.0414 97.47C31.9328 97.5134 31.7971 97.4483 31.6288 97.2583C31.7374 97.2148 31.8731 97.28 32.0414 97.47Z" fill="#F1F2F3"/>
<path d="M9.3458 61.5836C9.38923 61.5456 9.4055 61.6868 9.4055 61.6868C9.4055 61.6868 9.30238 61.6271 9.3458 61.5836Z" fill="#757B81"/>
<path d="M8.96041 60.6664C8.99298 60.7206 8.8681 60.7586 8.8681 60.7586C8.8681 60.7586 8.92784 60.6121 8.96041 60.6664Z" fill="#757B81"/>
<path d="M8.41765 59.738C8.49907 59.7272 8.52621 59.7706 8.55335 59.814C8.48822 59.8086 8.42308 59.7977 8.41765 59.738Z" fill="#757B81"/>
<path d="M7.96162 58.8043C8.0539 58.7881 8.0919 58.8369 8.12447 58.8858C8.04847 58.8803 7.97791 58.8749 7.96162 58.8043Z" fill="#757B81"/>
<path d="M64.0519 8.73952C65.778 10.6123 67.5205 12.4796 69.4259 14.3198C69.5887 14.2926 69.5995 14.2601 69.5453 14.4229C69.6755 14.6346 69.8601 14.678 70.0447 14.7215C70.0447 14.7215 70.0501 14.6889 69.9198 14.7975C70.0881 15.3132 70.3866 15.7148 70.7721 16.2794C71.0489 16.4748 71.2334 16.5182 71.418 16.5562C71.418 16.5562 71.4234 16.5237 71.2877 16.6648C71.5428 17.1805 71.9391 17.555 72.3354 17.9296C72.3354 17.9296 72.3354 17.897 72.2106 18.0436C72.7697 19.3192 73.459 20.4483 74.1484 21.5774C74.1484 21.5774 74.1484 21.5394 74.1267 21.5339C75.2232 25.5726 76.3414 29.6166 77.5356 33.8073C77.6388 37.6776 77.6714 41.4014 77.4271 45.1632C76.4934 44.1047 75.8366 42.9973 75.1472 41.8411C74.6749 42.7313 74.3167 43.4153 73.9747 43.8821C73.6002 39.8055 73.2039 35.946 72.8131 31.9616C72.7208 31.6034 72.6231 31.3754 72.4874 31.0334C72.4277 30.838 72.4059 30.762 72.3842 30.5069C72.0585 29.4049 71.7871 28.455 71.4071 27.5539C67.8787 19.2215 62.0163 13.0061 54.0421 8.52782C53.6676 8.29983 53.407 8.16956 53.0759 7.96328C52.8262 7.82758 52.6416 7.77329 52.3377 7.59959C49.9384 6.50851 47.6585 5.53142 45.3732 4.55976C41.9425 3.76723 38.5064 2.97471 34.9618 2.04105C44.7707 0.499418 54.0422 2.10076 62.5754 7.87643C62.7382 7.88186 62.7437 7.84386 62.7708 8.01214C63.0802 8.22384 63.3625 8.26726 63.6447 8.31612C63.6447 8.31612 63.6447 8.28355 63.5524 8.4464C63.6719 8.66353 63.8781 8.71238 64.0844 8.76666C64.0844 8.76666 64.0681 8.7341 64.0519 8.73952Z" fill="#F1F2F3"/>
<path d="M69.6158 65.3455C66.9126 69.6175 64.3233 73.9656 61.4626 78.1345C59.1936 81.4403 56.5934 84.5181 53.9499 87.9054C51.3823 91.1081 49.0047 94.1045 46.6326 97.1009C46.2906 97.432 45.954 97.7631 45.4709 97.9965C45.1506 97.4863 44.977 97.0791 44.8195 96.4983C45.4655 95.2281 46.0843 94.1207 46.8551 92.9917C47.1971 92.666 47.3925 92.362 47.6531 91.9169C48.2936 90.8149 48.8636 89.8487 49.5801 88.8119C50.2966 87.9977 51.1 86.5212 51.4203 86.6189C53.3419 87.2106 52.9837 85.4844 53.7436 84.7461C54.1019 84.2793 54.3027 83.8396 54.661 83.3782C56.9191 80.6261 59.2533 78.0422 61.0663 75.1327C64.2256 70.0627 67.0591 64.7918 70.1912 59.5753C70.9892 59.2604 71.6243 58.9782 72.4276 58.723C72.7045 58.7393 72.8131 58.7285 72.9271 58.723C72.8076 59.0867 72.6936 59.4558 72.3028 59.9227C71.4017 61.4317 70.772 62.8322 70.1424 64.2381C70.1424 64.2381 70.1044 64.2001 69.9741 64.2653C69.7679 64.667 69.6973 65.0035 69.6213 65.3401L69.6158 65.3455Z" fill="#B3B7BA"/>
<path d="M73.9475 44.11C74.3112 43.426 74.6695 42.742 75.1417 41.8518C75.8257 43.008 76.4825 44.11 77.2751 45.2988C77.4053 45.7276 77.3999 46.075 77.1991 46.6178C77.0145 47.5732 77.02 48.3277 77.0254 49.0877C77.0037 49.4242 76.9765 49.7608 76.7431 50.2982C76.3414 51.6878 76.1568 52.8766 75.9668 54.0654C75.9777 54.1468 75.9886 54.2337 75.8095 54.4291C75.4458 54.5431 75.2666 54.5377 75.0441 54.4237C74.7129 54.0871 74.4307 53.8591 73.9638 53.6257C73.1876 53.604 72.5959 53.5931 72.0097 53.4086C72.6611 50.1951 73.3016 47.1498 73.9367 44.1045L73.9475 44.11Z" fill="#DEDFE0"/>
<path d="M46.8063 97.1117C49.0102 94.1044 51.3823 91.1134 53.8956 88.0519C52.9674 92.0254 50.3292 94.8481 46.8063 97.1117Z" fill="#272C2F"/>
<path d="M44.7978 96.6664C44.9769 97.0789 45.1506 97.4915 45.3515 98.0777C45.1343 98.5771 44.8955 98.8974 44.6024 99.3317C44.5481 99.4402 44.3852 99.4619 44.1084 99.4402C43.7013 99.4022 43.571 99.3914 43.3756 99.2774C43.1801 99.1091 43.0445 99.0385 42.9522 98.816C43.0173 98.4577 43.039 98.2569 43.1964 97.9854C43.8152 97.5023 44.3092 97.0844 44.7978 96.6664Z" fill="#9CA1A6"/>
<path d="M70.2835 64.1728C70.7721 62.8375 71.4018 61.4316 72.1943 60.0256C71.7166 61.3827 71.0706 62.7452 70.2835 64.1728Z" fill="#DEDFE0"/>
<path d="M73.0248 58.6144C72.8131 58.7393 72.6991 58.7501 72.4657 58.571C72.8077 57.5559 73.2691 56.7362 73.8825 55.9003C74.2299 55.9003 74.4253 55.9111 74.6424 56.1174C74.7456 56.6819 74.8379 57.0511 74.9247 57.4202C74.9247 57.4202 74.9627 57.5667 74.7781 57.5125C74.4904 57.4039 74.3873 57.3496 74.2842 57.2953C73.8987 57.697 73.5134 58.0987 73.0303 58.6144H73.0248Z" fill="#DEDFE0"/>
<path d="M74.2245 57.4528C74.3873 57.3497 74.4904 57.404 74.7292 57.5668C74.4578 58.7393 74.0507 59.7978 73.4482 60.8943C73.2528 60.9323 73.1062 60.7966 73.1062 60.7966C73.459 59.7381 73.8119 58.6742 74.2245 57.4582V57.4528Z" fill="#F1F2F3"/>
<path d="M76.032 53.9081C76.1514 52.8768 76.3414 51.688 76.6888 50.4612C76.5966 51.5305 76.3468 52.6433 76.032 53.9081Z" fill="#F1F2F3"/>
<path d="M77.1231 48.9466C77.02 48.3333 77.0145 47.5787 77.1719 46.7916C77.2968 47.443 77.2588 48.127 77.1231 48.9466Z" fill="#F1F2F3"/>
<path d="M75.0929 54.5377C75.2666 54.5377 75.4457 54.5431 75.7551 54.5431C75.766 55.0099 75.6466 55.4822 75.3806 56.0033C75.2395 56.0576 75.0929 55.9056 75.0983 55.7319C75.0983 55.2162 75.0983 54.8742 75.0983 54.5322L75.0929 54.5377Z" fill="#F1F2F3"/>
<path d="M73.3287 60.9973C73.1496 61.3122 72.8999 61.5564 72.6502 61.8007C72.7316 61.5293 72.8076 61.2525 73.0031 60.8888C73.1116 60.7965 73.2582 60.9322 73.3342 61.0028L73.3287 60.9973Z" fill="#F1F2F3"/>
<path d="M75.0007 57.3116C74.8324 57.0456 74.7456 56.6765 74.6479 56.1065C74.637 55.9111 74.6479 55.9002 74.7564 55.9056C74.8704 55.9165 75.093 55.9056 75.093 55.9056C75.093 55.9056 75.2395 56.0576 75.3101 56.1336C75.2775 56.5407 75.1798 56.8773 75.0007 57.3116Z" fill="#F1F2F3"/>
<path d="M69.7461 65.2314C69.6918 65.0088 69.7678 64.6722 69.9958 64.2543C70.0555 64.4877 69.9632 64.8025 69.7461 65.2314Z" fill="#DEDFE0"/>
<path d="M45.7803 8.73938C45.3189 8.2454 44.8575 7.75686 44.3853 7.10547C45.5035 7.37688 46.638 7.80029 48.0439 8.2454C48.3208 8.26169 48.5324 8.27797 48.5596 8.42997C48.6573 8.71766 48.6953 8.8968 48.8093 8.97279C55.6001 13.5325 60.8872 19.4928 64.7901 26.6309C65.8432 28.558 66.2014 30.865 66.8745 33.1883C67.3251 35.7016 67.7811 38.0194 68.237 40.5273C68.237 41.3524 68.2371 41.9929 68.0579 42.6715C67.6997 43.0189 67.4228 43.3011 67.3468 43.6323C66.7334 46.3355 66.2286 49.0605 65.5609 51.7475C65.0181 53.9243 64.3016 56.0576 63.6665 58.3211C63.6665 58.4351 63.6665 58.6631 63.4982 58.6957C63.1399 59.3199 62.9445 59.9062 62.7436 60.6119C62.7436 60.7259 62.7437 60.9539 62.5808 60.981C61.9186 62.0612 61.4191 63.1143 60.898 64.3302C60.7352 65.1445 60.5886 65.7959 60.2846 66.4635C59.6278 67.3918 59.1284 68.2983 58.629 69.3622C58.4716 70.0191 58.3142 70.5185 57.9993 71.0396C57.4999 71.5118 57.1525 71.9624 56.7997 72.5812C56.7888 73.0915 56.7834 73.428 56.6151 73.7863C55.3449 75.6319 54.2376 77.4558 53.1302 79.4262C53.1194 79.7791 53.1193 79.9799 52.9511 80.2079C51.8383 82.2109 50.8883 84.1814 49.933 86.1519C49.933 86.1519 49.9438 86.1627 49.7864 86.179C48.8039 87.3949 47.9788 88.6 47.0397 89.6965C47.8539 87.2375 48.6302 84.8111 49.7375 82.5421C53.7545 74.2965 58.1839 66.241 61.8425 57.8435C63.9596 52.9797 65.1429 47.6546 66.2883 42.438C67.3414 37.6395 66.3155 32.6672 63.9922 28.6123C61.0066 23.4065 57.0168 18.722 53.0922 14.1296C51.4583 12.2135 48.869 11.117 46.714 9.6459C46.714 9.6459 46.714 9.6459 46.6923 9.49933C46.3774 9.1465 46.0843 8.94022 45.7912 8.73395L45.7803 8.73938Z" fill="#697075"/>
<path d="M48.5324 8.27796C48.5324 8.27796 48.3153 8.26168 48.2122 8.25625C46.8008 7.35515 45.498 6.45949 44.0433 5.46612C44.4667 5.22185 44.8249 5.01557 45.2809 4.68445C47.6531 5.53669 49.9384 6.51377 52.1748 7.66999C51.8166 7.99569 51.5071 8.14225 51.0132 8.29424C50.0632 8.29424 49.2978 8.28882 48.5379 8.27796H48.5324Z" fill="#9CA1A6"/>
<path d="M42.9196 98.968C43.0499 99.0386 43.1856 99.1146 43.381 99.4294C43.4679 99.7714 43.4842 99.8691 43.5004 99.9668C42.7568 101.21 42.0131 102.453 41.2314 103.853C41.1989 104.005 41.2097 103.995 41.1229 104.027C41.036 104.06 40.8515 104.152 40.8515 104.152C40.6778 104.049 40.5095 103.951 40.2489 103.723C40.6615 102.323 41.1609 101.052 41.7906 99.5488C42.252 99.2014 42.5831 99.0874 42.9142 98.968H42.9196Z" fill="#757B81"/>
<path d="M40.8569 104.185C40.8569 104.147 41.036 104.054 41.1283 104.016C41.188 104.119 41.112 104.223 40.8949 104.277C40.7972 104.255 40.8623 104.223 40.8569 104.185Z" fill="black"/>
<path d="M43.647 99.9126C43.4842 99.8691 43.4679 99.7714 43.4462 99.5217C43.5765 99.386 43.7013 99.4023 44.027 99.4349C44.0759 99.5869 43.9347 99.7226 43.647 99.9126Z" fill="#B3B7BA"/>
<path d="M74.3167 21.485C73.4591 20.4537 72.7697 19.3192 72.1943 18.049C72.5037 18.049 72.6991 18.1901 73.0031 18.4181C73.1388 18.6461 73.1931 18.7763 73.3233 18.9935C73.7522 19.8511 74.1159 20.6219 74.3167 21.485Z" fill="#30363A"/>
<path d="M70.6798 16.1274C70.3812 15.7202 70.0827 15.3131 69.8982 14.8029C70.3596 14.9874 70.7015 15.2751 71.1575 15.6551C71.2715 15.7419 71.3041 15.9102 71.1575 16.0079C70.8969 16.1111 70.7884 16.1219 70.6798 16.1274Z" fill="#3E4347"/>
<path d="M72.3571 17.7775C71.9391 17.5604 71.5429 17.1859 71.2661 16.6702C71.7166 16.8927 72.0477 17.2564 72.3571 17.7775Z" fill="#30363A"/>
<path d="M70.772 16.2793C70.7883 16.1165 70.8969 16.1111 71.1737 16.0894C71.3854 16.1491 71.4288 16.2251 71.4451 16.4313C71.2334 16.5182 71.0489 16.4802 70.772 16.2848V16.2793Z" fill="#30363A"/>
<path d="M63.6067 8.14234C63.3624 8.27262 63.0802 8.22376 62.7545 8.01206C62.9933 7.88721 63.2864 7.92521 63.6067 8.14234Z" fill="#3E4347"/>
<path d="M64.117 8.62008C63.8781 8.71779 63.6718 8.66894 63.5361 8.45181C63.7912 8.34867 63.9704 8.40838 64.117 8.62008Z" fill="#3E4347"/>
<path d="M70.0554 14.5748C69.86 14.6834 69.6755 14.64 69.5289 14.4228C69.7297 14.3089 69.898 14.3631 70.0554 14.5748Z" fill="#3E4347"/>
<path d="M37.8714 25.2904C38.2025 25.0678 38.5336 24.8452 39.0765 24.449C40.3955 24.5358 41.5083 24.791 42.5994 25.2578C42.5723 26.1535 42.5668 26.8374 42.3606 27.5268C40.9438 27.8959 39.3153 26.5877 38.3436 28.5527C37.2797 29.1064 36.3298 29.5461 35.3853 29.9804C35.4612 30.2138 35.5318 30.4418 35.6078 30.6752C39.2664 30.6589 42.5505 31.2994 45.5686 33.7639C48.4836 36.1415 49.8461 39.0727 50.7798 42.5957C51.1598 41.4286 51.1869 40.3592 50.9969 39.3278C50.7038 37.6885 50.2641 36.0763 50.009 34.4967C50.4541 34.8441 50.7743 35.1427 51.1326 35.5661C51.3063 35.9135 51.4366 36.136 51.5886 36.5052C51.7514 37.0046 51.9034 37.3574 52.0717 37.9111C52.4354 40.3755 52.7774 42.6445 53.1411 45.071C53.1574 45.4346 53.1574 45.6409 53.0922 45.8526C53.0271 45.8526 52.9022 45.8526 52.7828 45.7603C51.8492 47.3454 51.0403 49.0227 50.0958 50.7598C49.3359 51.2917 48.7171 51.7694 47.93 52.2091C47.5825 51.878 47.1646 51.46 47.246 51.308C48.3425 49.2181 47.6585 47.1608 47.4794 45.0004C47.1483 41.1463 45.5904 38.1825 42.0837 36.8091C38.7616 35.5064 35.2007 34.7301 31.6832 34.0461C30.7061 33.8562 29.501 34.8387 28.2634 35.3435C27.7477 35.5118 27.3677 35.6203 26.9986 35.5661C27.65 34.4587 28.2905 33.5087 29.0993 32.5534C30.3315 32.0268 31.39 31.5003 32.4485 30.9737C32.3563 30.8 32.264 30.6318 32.1717 30.4581C31.6017 30.5449 31.0318 30.6263 30.2772 30.6969C29.9678 30.6643 29.843 30.6535 29.805 30.5015C32.2966 29.139 34.7013 27.9014 37.1548 26.6474C37.296 26.3814 37.5945 25.8332 37.8877 25.2849" fill="#484E53"/>
<path d="M46.7195 9.80877C48.8582 11.1224 51.442 12.2189 53.0814 14.1351C57.006 18.7274 60.9958 23.412 63.9813 28.6177C66.3046 32.6726 67.3306 37.6449 66.2775 42.4435C65.1321 47.6601 63.9488 52.9852 61.8318 57.8489C58.1785 66.2464 53.7436 74.302 49.7267 82.5475C48.6248 84.8165 47.8431 87.243 47.0071 89.854C45.5958 92.4487 44.0922 94.7882 42.594 97.1278C43.2779 95.1411 43.9022 93.1326 44.6567 91.1785C45.5849 88.7737 46.8877 86.4884 47.5771 84.024C49.9384 75.5939 54.395 68.1735 58.3631 60.487C62.1846 53.0829 64.9802 45.3042 64.5459 36.7601C64.2365 30.6913 61.1532 25.7353 57.4891 21.2624C54.3896 17.4789 50.6441 14.2274 47.1971 10.7316C46.9963 10.5253 46.8931 10.2213 46.7249 9.80334L46.7195 9.80877Z" fill="#5F666B"/>
<path d="M34.3321 59.5805C34.0336 59.7868 33.735 59.9985 33.3279 60.2808C34.2127 60.6662 35.0486 61.0353 35.8846 61.399C35.8683 61.6053 35.852 61.8061 35.8357 62.0124C34.5275 62.0124 33.1433 62.3055 31.9328 61.969C20.6963 58.8314 16.4568 50.423 17.4882 39.268C18.1016 32.6292 21.2283 27.7492 26.3526 23.7485C30.4672 20.5404 34.8749 20.7304 39.5704 22.2178C38.9787 22.3101 38.3327 22.2721 37.8171 22.5163C37.0571 22.88 35.1464 21.9355 35.7869 24.1394C35.8032 24.1991 34.7555 24.5682 33.8924 24.7202C32.6819 24.5791 31.7862 24.5085 30.8906 24.4434C30.8417 24.2479 30.7929 24.0525 30.744 23.8571C32.2259 23.3034 33.7133 22.7497 35.1735 22.2069C30.9449 21.7672 26.5425 24.058 24.0618 27.9555C22.7916 29.4862 21.6788 30.9953 20.4955 32.6509C17.7216 38.09 18.3079 43.3446 20.6366 48.7186C20.8049 49.2125 20.9569 49.5654 21.098 50.0756C21.516 50.7704 21.9448 51.3024 22.4116 51.9918C23.5407 53.3706 24.4147 54.9828 25.7609 55.7373C28.4804 57.2627 31.4606 58.3212 34.3376 59.5697L34.3321 59.5805Z" fill="#9CA1A6"/>
<path d="M34.533 59.5752C31.4606 58.3267 28.4805 57.2682 25.7609 55.7428C24.4093 54.9883 23.5408 53.3761 22.4171 51.8345C21.9557 50.9877 21.5269 50.4557 21.1035 49.9183C20.9515 49.5655 20.8049 49.2126 20.7507 48.5992C21.0601 44.3869 21.2826 40.4405 21.4835 36.4888C21.6029 34.1709 22.9654 32.8844 25.0607 32.2819C24.9684 33.2535 24.8924 34.084 24.621 34.844C23.3399 38.4429 22.5583 42.069 23.7905 46.0371C24.1162 47.2747 24.1813 48.5721 24.8544 49.332C26.4883 51.1831 28.4099 52.7898 30.3641 54.554C31.5855 55.2 32.6603 55.7862 33.8165 56.5408C36.5523 57.1487 39.2122 57.5939 41.7037 58.0118C41.4215 58.0715 40.8786 58.1801 40.1404 58.2615C38.8865 58.2344 37.8334 58.2344 36.7749 58.2344C36.7586 58.3212 36.7423 58.4081 36.7206 58.5004C37.904 58.8532 39.0873 59.2115 40.0753 59.5697C38.8105 59.6349 37.7465 59.6946 36.6826 59.7489C36.0312 59.6892 35.3798 59.6295 34.533 59.5752Z" fill="#F1F2F3"/>
<path d="M36.7206 59.9009C37.7411 59.6946 38.805 59.6349 40.2435 59.6241C41.2694 59.4884 41.9263 59.3038 42.7568 59.1192C44.9498 58.1367 46.9637 57.1542 49.1024 56.0631C51.0186 53.7941 52.8153 51.6445 54.737 49.3864C55.3123 47.2205 55.7629 45.1632 56.2135 43.1004C55.8878 43.0407 55.5566 42.9756 55.2309 42.9159C55.0735 44.2132 54.9161 45.5052 54.7044 47.2639C54.1453 46.1023 53.787 45.3695 53.3365 44.4575C53.0868 42.2102 52.9293 40.1366 52.9782 38.063C53.3093 38.0521 53.445 38.0521 53.5807 38.1987C53.6242 38.6981 53.6676 39.0401 53.7056 39.3875L54.0584 39.2735C53.8956 38.8664 53.7273 38.4593 53.5699 37.8242C53.6242 37.1239 53.6676 36.6625 53.8359 36.3097C54.3027 37.0859 54.6447 37.7536 54.9704 38.6275C54.9541 39.8815 54.9541 40.9291 54.9541 41.9768C55.2689 41.9605 55.5838 41.9496 55.904 41.9334C55.7629 40.8043 55.6218 39.6752 55.4752 38.3616C54.2321 35.832 52.9999 33.487 51.7785 31.0008C51.7785 30.6589 51.7568 30.4634 51.898 30.2843C54.2918 31.7174 56.2406 33.5521 56.6748 36.1848C57.1688 39.1432 57.2014 42.2048 57.1797 45.2175C57.1634 46.9925 56.6477 48.7675 56.3546 50.5426C55.6489 54.2447 52.5059 55.9166 50.0252 58.1367C49.7484 58.3864 49.4281 58.5873 49.0427 58.9347C48.1525 59.5101 47.3437 59.9552 46.3883 60.4437C43.419 61.0517 40.6343 62.539 37.7139 60.8997C37.3502 60.6989 37.0788 60.3406 36.7206 59.9009Z" fill="#191E21"/>
<path d="M24.9901 32.1135C22.9653 32.8843 21.6028 34.1762 21.4834 36.4941C21.2826 40.4458 21.0546 44.3922 20.7289 48.4634C18.3079 43.35 17.7216 38.1008 20.6746 32.6726C23.5299 32.0863 23.4213 29.687 24.2193 27.9391C26.5426 24.0688 30.9503 21.7726 35.1789 22.2123C33.7187 22.7551 32.2368 23.3088 30.7495 23.8625C30.7983 24.0579 30.8472 24.2533 30.896 24.4488C31.7917 24.5139 32.6928 24.5845 33.7404 24.7093C33.8924 24.769 33.7947 24.9373 33.621 25.0459C32.3617 25.4421 31.2543 25.6593 30.1958 26.023C28.2253 26.7069 26.3254 27.532 25.5003 29.7413C25.3538 29.8173 25.3321 29.9313 25.3049 30.0507C25.4189 29.9693 25.5275 29.8879 25.8098 29.8119C26.1029 29.9964 26.3689 30.2733 26.3254 30.3384C25.9129 30.9518 25.4461 31.5272 24.9955 32.1135H24.9901Z" fill="#CBCED0"/>
<path d="M25.6143 29.7793C26.3146 27.5266 28.2145 26.707 30.1904 26.023C31.2434 25.6593 32.3508 25.4422 33.6156 25.1382C35.0378 25.1653 36.2808 25.2088 37.6976 25.2739C37.5782 25.8439 37.2797 26.3921 37.1385 26.6527C34.685 27.912 32.2802 29.1442 29.6909 30.5719C29.4304 30.903 29.3544 31.0387 29.2893 31.1744C29.3001 31.1744 29.3001 31.1527 29.1753 31.1744C28.9744 31.3427 28.8984 31.4838 28.8279 31.625C28.8387 31.625 28.8279 31.6032 28.6813 31.6575C24.6807 35.6582 23.6547 40.5599 23.8013 45.847C22.5582 42.0635 23.3345 38.4429 24.621 34.8385C24.8924 34.0785 24.9684 33.248 25.0606 32.2764C25.4406 31.5164 25.9075 30.9356 26.32 30.3222C26.3634 30.2516 26.0974 29.9748 25.8043 29.7902C25.6306 29.7848 25.6197 29.7685 25.6197 29.7685L25.6143 29.7793Z" fill="#191E21"/>
<path d="M56.4903 50.434C56.6477 48.7567 57.1634 46.9816 57.1797 45.2066C57.2068 42.1939 57.1688 39.1324 56.6748 36.174C56.2351 33.5467 54.2918 31.7119 51.7785 30.1703C51.2031 30.04 50.8992 30.04 50.4975 29.9423C50.0578 29.5623 49.7104 29.2746 49.3956 28.8295C47.1537 27.4616 44.8847 26.2619 42.6102 25.0569C41.4974 24.8017 40.3846 24.5412 39.0927 24.2969C38.8376 24.2915 38.7344 24.2969 38.6964 24.2481C38.6313 24.1666 38.6042 24.0526 38.5662 23.9495C40.0698 23.9169 41.568 23.8898 43.3919 23.9821C46.1332 25.3283 48.5379 26.5931 50.9969 27.7547C51.7894 28.1293 52.7122 28.2161 53.5753 28.4332C56.6368 31.1094 58.7973 34.2469 58.6833 38.9315C58.6344 41.2005 58.6073 43.0678 58.5802 44.9297C57.9288 46.7374 57.2774 48.5395 56.4957 50.4449L56.4903 50.434Z" fill="#13171A"/>
<path d="M53.559 28.2704C52.7122 28.2107 51.7894 28.1184 50.9969 27.7493C48.5433 26.593 46.1331 25.3282 43.6036 23.982C43.9075 23.2709 44.3147 22.6738 44.9769 21.7239C47.9788 23.0701 51.2303 24.9211 53.559 28.2704Z" fill="#3E4347"/>
<path d="M42.5885 97.2853C44.0921 94.7937 45.5958 92.4541 47.1211 89.9625C47.9734 88.6055 48.793 87.4058 49.7755 86.3582C49.7647 87.3081 49.6018 88.0952 49.4444 88.8823C48.869 89.8485 48.299 90.8148 47.5119 91.9438C47.1048 92.4107 46.9094 92.7092 46.714 93.0132C46.0952 94.1206 45.4709 95.2225 44.8249 96.4982C44.3093 97.079 43.8207 97.497 43.0716 97.9801C42.7296 98.0452 42.6482 98.0452 42.5614 98.0452C42.5668 97.8389 42.5776 97.6381 42.5885 97.2798V97.2853Z" fill="#757B81"/>
<path d="M58.7104 44.8049C58.6073 43.057 58.6344 41.1951 58.7104 39.1215C58.9873 39.9791 59.3618 41.0431 59.4052 42.1124C59.4378 42.9592 59.0524 43.8278 58.7158 44.8049H58.7104Z" fill="#3E4347"/>
<path d="M42.404 98.0778C42.6428 98.0507 42.7297 98.0507 42.9414 98.0507C43.0445 98.2569 43.0174 98.4578 42.9576 98.816C42.5885 99.0875 42.2574 99.2014 41.8015 99.3806C41.872 98.9952 42.062 98.5501 42.4094 98.0778H42.404Z" fill="#5F666B"/>
<path d="M45.802 8.88599C46.0734 8.9457 46.3666 9.15197 46.6814 9.50481C46.41 9.4451 46.1169 9.23882 45.802 8.88599Z" fill="#5F666B"/>
<path d="M51.1923 8.28894C51.5017 8.14238 51.8111 8.00124 52.2888 7.78954C52.6362 7.78411 52.8208 7.83839 53.0759 8.13695C53.4776 8.46264 53.8142 8.5495 54.1453 8.63635C62.0108 13.0224 67.8734 19.2377 71.4018 27.5647C71.7817 28.4658 72.0531 29.4157 72.3028 30.5774C72.3245 30.9248 72.4222 31.0442 72.5254 31.1582C72.6231 31.3862 72.7208 31.6142 72.6883 32.0919C72.5308 32.7813 72.3951 33.2535 72.4982 33.6661C73.7141 38.4212 73.2962 43.133 72.2322 47.8501C70.2835 56.4919 66.2666 64.2272 61.7666 71.7399C59.9644 74.7526 57.9668 77.6459 56.0615 80.5934C55.9095 80.512 55.7629 80.4306 55.6109 80.3492C55.7032 79.6978 55.8009 79.0518 55.8986 78.395C55.8986 78.395 55.9149 78.3841 56.0615 78.3515C56.55 77.7219 56.892 77.1248 57.2502 76.4191C57.2611 76.3105 57.2883 76.0988 57.4403 76.0663C59.4216 72.8256 61.2237 69.6012 63.0802 66.4094C66.7606 60.08 69.4367 53.4412 70.7612 46.1565C71.8794 40.0117 71.266 34.2415 68.9807 28.5744C66.3969 22.1636 62.1031 16.9524 56.968 12.4307C55.8606 11.459 54.4113 10.8728 53.1193 10.1128C53.1193 10.1128 53.1194 10.1128 53.0542 9.97713C52.5765 9.62429 52.164 9.40716 51.6917 9.07604C51.4854 8.73948 51.3389 8.51693 51.1978 8.2998L51.1923 8.28894Z" fill="#B3B7BA"/>
<path d="M55.8932 78.3949C55.8009 79.0463 55.7032 79.6923 55.6109 80.3437C55.7629 80.4251 55.9094 80.5065 56.0614 80.5879C57.9667 77.6404 59.9644 74.7471 61.7666 71.7344C66.2666 64.2217 70.2835 56.4919 72.2322 47.8446C73.2961 43.1275 73.7141 38.4158 72.4982 33.6606C72.395 33.248 72.5308 32.7812 72.6774 32.2167C73.1985 35.9567 73.5947 39.8162 73.9693 43.8929C73.307 47.1553 72.6665 50.2005 71.9554 53.5823C71.266 55.8188 70.6472 57.7132 70.0284 59.6131C67.0591 64.8025 64.2201 70.0734 61.0609 75.1434C59.2478 78.0529 56.9082 80.6314 54.6447 83.3781C54.4818 83.3943 54.4655 83.3781 54.4818 83.2315C54.6284 82.5747 54.7532 82.0644 54.9432 81.3208C54.3352 81.8419 53.9607 82.1676 53.5644 82.4715C53.5427 82.4498 53.4939 82.4064 53.5156 82.2273C53.5644 81.4293 53.597 80.8159 53.7761 80.1808C54.2647 79.7086 54.6012 79.258 54.9378 78.8075C54.9378 78.8075 54.9378 78.8075 55.0572 78.7586C55.4155 78.6066 55.6489 78.5035 55.8877 78.4003L55.8932 78.3949Z" fill="#9CA1A6"/>
<path d="M54.0367 8.53328C53.8142 8.54414 53.4776 8.45729 53.1411 8.20759C53.4016 8.17502 53.6622 8.3053 54.0367 8.53328Z" fill="#9CA1A6"/>
<path d="M72.482 31.0442C72.4223 31.0442 72.3191 30.9248 72.3028 30.7511C72.406 30.7728 72.4277 30.8488 72.482 31.0442Z" fill="#9CA1A6"/>
<path d="M70.1912 59.5806C70.6526 57.7133 71.2714 55.8134 71.9445 53.7507C72.6014 53.5987 73.193 53.6095 73.9747 53.7833C74.1701 54.1415 74.1755 54.3424 74.0615 54.6301C73.8715 55.1186 73.801 55.5149 73.7358 55.9111C73.2744 56.7308 72.8076 57.5505 72.3028 58.5384C71.6242 58.989 70.9837 59.2712 70.1912 59.5806Z" fill="#CBCED0"/>
<path d="M49.5801 88.8172C49.6018 88.0952 49.7647 87.3027 49.9329 86.3419C49.9329 86.1682 49.9221 86.1573 50.0795 86.0922C50.7363 85.4136 51.2194 84.7785 51.7459 84.1923C52.3051 83.5734 52.913 82.9981 53.4993 82.4064C53.4993 82.4064 53.5427 82.4498 53.5644 82.6398C53.5753 83.1718 53.5753 83.5137 53.5699 83.8503C53.5699 83.8503 53.5753 83.8449 53.445 83.8612C53.1682 84.024 53.0216 84.1706 52.875 84.3171C53.103 84.4637 53.331 84.6048 53.5644 84.7568C53.5699 84.7677 53.5861 84.7785 53.5861 84.7785C52.9836 85.4842 53.3419 87.2158 51.4203 86.6241C51.1 86.5264 50.302 88.0029 49.5801 88.8172Z" fill="#9CA1A6"/>
<path d="M54.4981 83.3998C54.3027 83.8449 54.1019 84.2846 53.7436 84.7515C53.5916 84.7786 53.5753 84.7623 53.5699 84.6049C53.5699 84.2466 53.5699 84.0458 53.5753 83.8395C53.5753 83.8395 53.5753 83.8395 53.6839 83.7961C54.0204 83.6224 54.2484 83.4975 54.471 83.3727C54.471 83.3727 54.4872 83.389 54.4981 83.3944V83.3998Z" fill="#9CA1A6"/>
<path d="M46.8605 92.9969C46.9094 92.7146 47.1048 92.4161 47.4468 92.085C47.3979 92.3618 47.2025 92.6712 46.8605 92.9969Z" fill="#9CA1A6"/>
<path d="M74.1863 54.5377C74.1755 54.3369 74.1701 54.136 74.1538 53.7832C74.4361 53.8592 74.7184 54.0872 75.0495 54.4237C75.0983 54.5377 75.0983 54.5323 74.9463 54.5269C74.588 54.5269 74.3873 54.5269 74.181 54.5269H74.1863V54.5377Z" fill="#F1F2F3"/>
<path d="M73.8825 55.9003C73.8011 55.5149 73.8662 55.1132 74.0562 54.6301C74.181 54.5432 74.1756 54.5378 74.1811 54.6844C74.3385 55.1892 74.4905 55.5475 74.6425 55.9003C74.6425 55.9003 74.6316 55.9112 74.6262 55.9166C74.4253 55.9112 74.2245 55.9003 73.8771 55.9003H73.8825Z" fill="#F1F2F3"/>
<path d="M74.7564 55.911C74.4904 55.5473 74.3384 55.189 74.181 54.6842C74.3818 54.5322 74.5881 54.5322 74.9463 54.5322C75.1038 54.8796 75.1092 55.2216 75.1038 55.7373C75.0929 55.911 74.8704 55.9164 74.7618 55.911H74.7564Z" fill="#DEDFE0"/>
<path d="M55.8932 78.3948C55.6544 78.5034 55.4155 78.6065 55.0573 78.5794C55.5458 76.8857 56.1538 75.3278 56.7672 73.7645C56.7726 73.4279 56.778 73.086 56.9409 72.5594C57.4457 71.9189 57.7931 71.4683 58.1405 71.0178C58.2979 70.5184 58.4554 70.019 58.7756 69.335C59.4379 68.2494 59.9373 67.3429 60.4312 66.4363C60.5724 65.785 60.7189 65.139 61.0392 64.2922C61.7232 63.0437 62.2226 61.996 62.7274 60.9429C62.7274 60.9429 62.7274 60.715 62.8957 60.5684C63.254 59.8302 63.4548 59.2439 63.6502 58.6576C63.6502 58.6576 63.6502 58.4297 63.813 58.2831C66.766 53.3434 68.2154 48.1811 68.2262 42.6225C68.2262 41.9874 68.2262 41.3469 68.3511 40.4024C68.3728 38.5296 68.3945 36.9392 68.1177 35.403C67.9603 34.5507 67.3034 33.7908 66.8691 32.9874C66.1906 30.8541 65.8378 28.5471 64.7847 26.6255C60.8818 19.4873 55.5947 13.5325 48.8039 8.96731C48.6953 8.89132 48.6519 8.71218 48.5542 8.42449C49.2924 8.27792 50.0578 8.28335 51.0078 8.28335C51.3389 8.49505 51.48 8.71761 51.7135 9.21158C52.24 9.68384 52.6797 9.89012 53.1194 10.091C53.1194 10.091 53.1194 10.0964 53.1357 10.2538C53.4071 10.7804 53.5699 11.2852 53.9173 11.5023C58.4119 14.325 61.4572 18.4722 64.3179 22.7985C69.0785 29.9856 70.9567 37.8457 69.4747 46.3518C68.2262 53.5225 65.181 60.0744 61.9403 66.5286C60.3498 69.6933 58.8353 72.896 57.2829 76.0824C57.2829 76.0824 57.2612 76.2941 57.0929 76.4243C56.588 77.1572 56.2515 77.7651 55.9095 78.3677C55.9095 78.3677 55.8986 78.3731 55.8932 78.3785V78.3948Z" fill="#7F878C"/>
<path d="M68.0525 42.6714C68.2153 48.1866 66.7714 53.3488 63.8184 58.1746C64.2961 56.0521 65.0126 53.9188 65.5555 51.7421C66.2231 49.0551 66.7334 46.3301 67.3413 43.6268C67.4173 43.2957 67.6942 43.0134 68.0525 42.666V42.6714Z" fill="#757B81"/>
<path d="M53.5156 82.2218C52.9131 82.9981 52.3051 83.5735 51.746 84.1923C51.214 84.7786 50.7364 85.4137 50.0796 86.0922C50.8775 84.1869 51.8329 82.2164 53.0705 80.2134C53.4451 80.1917 53.5373 80.1917 53.6242 80.1971C53.5916 80.8105 53.559 81.4239 53.5102 82.2218H53.5156Z" fill="#757B81"/>
<path d="M66.8691 33.1884C67.3034 33.7963 67.9602 34.5617 68.1177 35.4139C68.3945 36.9501 68.3728 38.5352 68.3565 40.218C67.7811 38.0195 67.3251 35.7016 66.8746 33.1884H66.8691Z" fill="#757B81"/>
<path d="M56.6097 73.7864C56.1645 75.328 55.5511 76.8859 54.9432 78.623C54.9432 78.8021 54.9432 78.8075 54.7858 78.8238C54.129 78.9867 53.6296 79.1332 53.1247 79.2744C54.2321 77.4505 55.3394 75.6266 56.6097 73.7864Z" fill="#757B81"/>
<path d="M60.2738 66.4636C59.9373 67.3484 59.4378 68.255 58.781 69.1832C59.1176 68.2984 59.617 67.3919 60.2738 66.4636Z" fill="#757B81"/>
<path d="M62.5754 60.9756C62.2334 61.9961 61.7286 63.0492 61.0718 64.1294C61.4138 63.1089 61.9186 62.0558 62.5754 60.9756Z" fill="#757B81"/>
<path d="M53.1193 79.4263C53.6242 79.1278 54.1236 78.9812 54.7804 78.8184C54.6013 79.2526 54.2647 79.7032 53.7762 80.1754C53.5373 80.1917 53.4505 80.1863 53.2333 80.1809C53.1085 79.98 53.1139 79.7737 53.1193 79.4209V79.4263Z" fill="#7F878C"/>
<path d="M63.4873 58.6958C63.4547 59.2549 63.2593 59.8412 62.8956 60.4654C62.9282 59.9117 63.1236 59.3201 63.4873 58.6958Z" fill="#757B81"/>
<path d="M57.9885 71.0397C57.7931 71.4685 57.4457 71.9191 56.9463 72.3913C57.1417 71.9625 57.4836 71.5119 57.9885 71.0397Z" fill="#757B81"/>
<path d="M23.785 46.0424C23.6548 40.5653 24.6807 35.669 28.7519 31.8149C28.9473 32.1298 28.9256 32.3415 28.9039 32.5586C28.2634 33.5086 27.6282 34.4585 26.9823 35.5713C26.9714 35.7396 26.9877 35.7396 26.8574 35.821C26.6512 36.201 26.5752 36.4995 26.4829 36.8958C26.472 36.9935 26.4992 37.1944 26.472 37.3572C26.6511 38.1443 26.738 39.2462 27.08 39.3277C32.9805 40.777 37.1494 44.11 38.9733 50.0268C39.6193 52.1221 41.0089 54.4345 38.0776 56.0576C37.9528 56.1281 37.9908 56.4864 37.8334 56.7198C37.4914 56.6655 37.2743 56.6058 36.9974 56.4104C36.7694 55.569 36.6934 54.8091 36.4003 54.1468C35.4015 51.905 34.7067 49.37 33.1759 47.5515C31.1783 45.1739 28.4968 43.3717 26.1083 41.3198C25.9238 41.5044 25.7446 41.6944 25.5601 41.8789C25.8478 45.7167 25.4298 49.7988 29.7181 52.1655C30.1687 52.4152 30.0601 53.6908 30.2067 54.4942C28.4045 52.7898 26.4829 51.183 24.849 49.332C24.1759 48.572 24.1162 47.2746 23.785 46.037M25.4027 40.4405C25.4569 40.2668 25.5221 40.0985 25.5601 39.9193C25.5709 39.8813 25.4787 39.8216 25.4352 39.7728C25.3809 39.9465 25.3267 40.1202 25.4027 40.435V40.4405Z" fill="#7F878C"/>
<path d="M26.5046 37.1945C26.5046 37.1945 26.472 36.999 26.5969 36.7928C26.8086 36.3042 26.9008 36.022 26.9877 35.7451C26.9877 35.7451 26.9714 35.7451 26.966 35.7343C27.3405 35.6203 27.7205 35.5171 28.3719 35.4791C31.2814 36.0708 34.1096 36.1577 36.5252 37.2107C42.2465 39.6969 44.7164 41.0485 45.3298 47.633C45.4709 49.1692 45.6338 50.7054 45.7152 52.3556C45.3841 52.6976 45.129 52.9364 44.749 53.2295C44.065 53.7941 43.0608 54.2501 44.4016 55.1294C44.369 55.352 44.3527 55.4389 44.2279 55.5637C43.9293 55.694 43.7339 55.7863 43.3702 55.8894C42.7785 55.8351 42.3605 55.77 41.8666 55.694C43.5385 53.3435 43.4299 50.5697 41.4215 46.8568C38.2188 40.9454 33.1922 37.7753 26.51 37.1999L26.5046 37.1945Z" fill="#5F666B"/>
<path d="M45.7912 52.2471C45.6392 50.7109 45.4763 49.1747 45.3352 47.633C44.7218 41.0486 42.252 39.6969 36.5306 37.2108C34.115 36.1631 31.2869 36.0763 28.513 35.414C29.4847 34.8386 30.6843 33.8561 31.6668 34.0461C35.1843 34.7246 38.7453 35.5009 42.0674 36.8091C45.5741 38.1824 47.132 41.1463 47.4631 45.0003C47.6477 47.1608 48.3316 49.2181 47.2297 51.308C47.1483 51.4654 47.5662 51.8779 47.9136 52.3339C48.0819 52.5728 48.0873 52.6542 48.0873 52.7302C48.0819 52.7248 48.0873 52.7139 47.9679 52.7085C47.7616 52.703 47.6802 52.6976 47.4685 52.6868C46.8225 52.5293 46.3069 52.3882 45.7912 52.2471Z" fill="#4D5458"/>
<path d="M49.8786 34.4531C50.2532 36.0762 50.6929 37.6884 50.986 39.3277C51.1706 40.3591 51.1434 41.4285 50.7689 42.5955C49.8407 39.0726 48.4782 36.1413 45.5578 33.7637C42.5397 31.3047 39.2555 30.6588 35.5969 30.6751C35.5209 30.4416 35.4503 30.2137 35.3743 29.9802C36.3243 29.5406 37.2688 29.1063 38.5227 28.5526C41.4594 29.3451 44.0813 30.2517 46.7954 31.2722C47.3708 31.6847 47.8593 31.9778 48.4293 32.3795C48.6736 32.5044 48.831 32.5315 48.9884 32.5532C48.9884 32.5532 48.9721 32.537 48.9613 32.6835C49.1187 32.8952 49.2815 32.9549 49.4444 33.0092C49.4444 33.0092 49.4281 32.9929 49.363 33.1449C49.4878 33.6769 49.6778 34.0623 49.8732 34.4477L49.8786 34.4531Z" fill="#30363A"/>
<path d="M53.4342 44.6312C53.787 45.364 54.1453 46.1022 54.7044 47.2584C54.9161 45.4997 55.0735 44.2023 55.2309 42.9104C55.5566 42.9701 55.8878 43.0353 56.2135 43.095C55.7629 45.1577 55.3124 47.215 54.5904 49.3212C54.1616 48.9846 54.0041 48.6101 53.8141 48.1541C53.0976 48.9955 52.4462 49.7554 51.7134 50.3417C52.05 48.7295 52.468 47.2856 52.8859 45.8471C52.8859 45.8471 53.0162 45.8471 53.1953 45.8905C53.4288 45.5051 53.483 45.0763 53.5102 44.6474C53.483 44.6474 53.4288 44.6257 53.4288 44.6257L53.4342 44.6312Z" fill="#30363A"/>
<path d="M42.5994 25.2632C44.8901 26.262 47.1645 27.4616 49.2381 28.8133C47.5011 28.4767 45.9649 27.999 44.2387 27.5159C43.5656 27.5159 43.0716 27.5268 42.5777 27.5322C42.5722 27.5322 42.5559 27.5322 42.5559 27.5322C42.5614 26.8482 42.5668 26.1643 42.5939 25.2686L42.5994 25.2632Z" fill="#555C60"/>
<path d="M46.714 31.1636C44.0867 30.2571 41.4649 29.3505 38.6476 28.444C39.3098 26.593 40.9383 27.9066 42.3551 27.5321C42.556 27.5267 42.5722 27.5321 42.6591 27.6624C44.217 28.7697 45.6881 29.7414 47.0614 30.7619C46.8443 30.903 46.7574 31.0225 46.714 31.1636Z" fill="#5F666B"/>
<path d="M53.3311 44.452C53.4288 44.6311 53.4831 44.6528 53.3636 44.6583C53.2008 44.7451 53.1573 44.832 53.1085 44.9134C52.7665 42.6444 52.4191 40.3754 52.1477 37.8349C52.278 37.5201 52.3377 37.4712 52.4517 37.4984C52.5982 37.7372 52.6851 37.8946 52.7719 38.0575C52.9239 40.1257 53.0759 42.1993 53.3311 44.4466V44.452Z" fill="#8B9296"/>
<path d="M29.0776 32.5533C28.931 32.3416 28.9527 32.1245 28.8984 31.7608C28.8279 31.6142 28.8387 31.6359 28.969 31.6414C29.1644 31.484 29.2296 31.3211 29.2947 31.1583C29.2947 31.1583 29.2947 31.1854 29.4467 31.2125C29.881 31.066 30.1632 30.8923 30.4455 30.724C31.0154 30.6371 31.5854 30.5557 32.15 30.4689C32.2422 30.6426 32.3345 30.8109 32.4268 30.9846C31.3683 31.5111 30.3044 32.0322 29.0776 32.5642V32.5533Z" fill="#30363A"/>
<path d="M52.7665 45.7656C52.468 47.2964 52.05 48.7349 51.6972 50.3362C51.7623 50.4991 51.7677 50.4556 51.632 50.3959C51.1815 50.5696 50.8666 50.8031 50.465 50.955C50.3184 50.8193 50.2641 50.7651 50.2098 50.7108C51.0241 49.0334 51.8329 47.3561 52.7665 45.7711V45.7656Z" fill="#757B81"/>
<path d="M48.0928 52.7355C48.0873 52.6541 48.0819 52.5727 48.0765 52.3664C48.7008 51.7693 49.325 51.2916 50.0795 50.7596C50.2695 50.7596 50.3238 50.8139 50.3944 51.1288C50.3944 51.7584 50.3944 52.1384 50.3944 52.5564C50.4052 52.6053 50.2478 52.6921 50.0361 52.6324C49.249 52.6324 48.6736 52.6813 48.0928 52.7355Z" fill="#757B81"/>
<path d="M50.0035 34.5019C49.6887 34.0677 49.4987 33.6877 49.5259 33.1611C50.2912 33.7582 50.834 34.4911 51.3063 35.2782C51.2357 35.3324 51.0892 35.441 51.0892 35.441C50.7689 35.1425 50.4487 34.8439 50.0035 34.4965V34.5019Z" fill="#8B9296"/>
<path d="M52.1314 37.6449C51.8925 37.3626 51.7405 37.0098 51.6483 36.4507C51.7025 36.2444 51.8437 36.1358 51.9468 36.239C52.1639 36.7058 52.2834 37.0695 52.4028 37.4278C52.3431 37.4766 52.2834 37.5255 52.1368 37.6449H52.1314Z" fill="#8B9296"/>
<path d="M53.1302 45.0709C53.1573 44.832 53.2007 44.7452 53.3907 44.6583C53.483 45.0817 53.4233 45.5106 53.255 45.8905C53.141 45.6408 53.141 45.4291 53.1247 45.0654L53.1302 45.0709Z" fill="#191E21"/>
<path d="M30.2609 30.7023C30.1632 30.8923 29.8809 31.066 29.4358 31.2071C29.3489 31.0443 29.4249 30.9086 29.6041 30.7077C29.8266 30.6589 29.9515 30.6751 30.2609 30.7077V30.7023Z" fill="#7F878C"/>
<path d="M51.6374 36.3041C51.4311 36.1413 51.3008 35.9187 51.1271 35.5713C51.0891 35.4465 51.2357 35.3379 51.4039 35.3705C51.6645 35.6473 51.7568 35.8916 51.8491 36.1359C51.8491 36.1359 51.7079 36.2498 51.6374 36.3096V36.3041Z" fill="#8B9296"/>
<path d="M24.0565 27.9609C23.4159 29.6871 23.5245 32.081 20.7398 32.5207C21.6734 31.0008 22.7863 29.4917 24.0565 27.9609Z" fill="#B3B7BA"/>
<path d="M21.0926 50.0812C21.5268 50.4557 21.9556 50.9877 22.3736 51.6825C21.9394 51.3134 21.5105 50.776 21.0926 50.0812Z" fill="#CBCED0"/>
<path d="M30.3586 54.5541C30.0601 53.6964 30.1741 52.4153 29.7181 52.1656C25.4298 49.7989 25.8531 45.7223 25.56 41.8791C25.7446 41.6945 25.9237 41.5045 26.1083 41.3199C28.4967 43.3718 31.1783 45.174 33.1759 47.5516C34.7066 49.3701 35.4015 51.8996 36.4003 54.1469C36.6934 54.8092 36.7694 55.5637 36.7911 56.3834C35.6674 56.4485 34.6958 56.4105 33.7241 56.3725C32.6493 55.7863 31.5745 55.2 30.3532 54.5541H30.3586Z" fill="#8B9296"/>
<path d="M33.811 56.5407C34.7012 56.4104 35.6729 56.4484 36.8508 56.5136C37.2797 56.6004 37.5022 56.6656 38.045 56.7524C40.0915 56.4756 41.8177 56.177 43.5439 55.873C43.7393 55.7808 43.9347 55.6885 44.3852 55.5419C44.8792 55.3248 45.1126 55.1619 45.3406 54.9991C45.3298 54.9991 45.3406 55.0154 45.4872 54.9991C45.9975 54.6842 46.3612 54.3857 46.714 54.0763C46.7086 54.0763 46.714 54.0871 46.866 54.0763C47.2242 53.7669 47.4305 53.4629 47.6314 53.1589C47.6259 53.1589 47.6314 53.1643 47.7671 53.1589C47.9625 53.0015 48.0331 52.8549 48.0982 52.7084C48.0982 52.7084 48.0873 52.7138 48.0982 52.7246C48.679 52.6758 49.2598 52.6215 49.9221 52.7464C48.6573 53.9949 47.3002 55.0696 46.0952 56.025C46.9963 56.0684 47.9951 56.1173 48.9884 56.1662C46.9691 57.1487 44.9552 58.1312 42.6591 58.9943C41.6983 58.6794 41.0198 58.484 40.3412 58.2832C40.884 58.1746 41.4214 58.0606 41.7037 58.0063C39.2067 57.5884 36.5523 57.1432 33.8164 56.5353L33.811 56.5407Z" fill="#30363A"/>
<path d="M40.1349 58.2616C41.0089 58.4896 41.6874 58.6904 42.4745 58.9998C41.9263 59.2984 41.2695 59.4829 40.4444 59.6132C39.0873 59.2061 37.9039 58.8478 36.7206 58.495C36.7368 58.4081 36.7531 58.3213 36.7749 58.229C37.8334 58.229 38.8864 58.229 40.1403 58.2561L40.1349 58.2616Z" fill="#5F666B"/>
<path d="M44.4232 27.5157C45.9594 27.9934 47.501 28.4711 49.2055 28.9705C49.7158 29.2745 50.0632 29.5622 50.568 30.0616C51.0728 30.5664 51.4203 30.8487 51.7677 31.1364C52.9999 33.4814 54.2375 35.821 55.3612 38.3071C55.1658 38.432 55.0789 38.4211 54.9975 38.4103C54.6555 37.7426 54.3081 37.0749 53.8141 36.163C52.4408 34.4802 51.214 33.0417 49.922 31.4675C48.0439 30.0562 46.2363 28.786 44.4287 27.5157H44.4232Z" fill="#DEDFE0"/>
<path d="M49.1024 56.0576C47.9842 56.1227 46.9854 56.0739 46.0843 56.0305C47.2894 55.0751 48.641 54.0003 50.1229 52.8115C50.2478 52.6975 50.4052 52.6052 50.5138 52.4478C51.0078 51.677 51.3932 51.0636 51.7731 50.4502C51.7731 50.4502 51.7677 50.4882 51.7785 50.5045C52.4462 49.7554 53.0976 48.9954 53.8141 48.1541C54.0041 48.61 54.1616 48.9846 54.4601 49.4243C52.8099 51.639 51.0132 53.7886 49.097 56.0576H49.1024Z" fill="#CBCED0"/>
<path d="M49.9873 31.6087C51.214 33.0418 52.4354 34.4803 53.6893 36.0544C53.673 36.657 53.6242 37.1184 53.5753 37.8186C53.5753 38.0521 53.5753 38.0466 53.5753 38.0466C53.4396 38.0466 53.3093 38.0575 52.9728 38.0629C52.6851 37.9055 52.5983 37.7426 52.4517 37.5038C52.278 37.0695 52.1586 36.7058 51.9414 36.239C51.7515 35.8916 51.6592 35.6419 51.4692 35.3108C50.8287 34.4911 50.2858 33.7583 49.5856 33.0092C49.4336 32.9983 49.4444 33.0092 49.4336 32.8789C49.2762 32.6781 49.1242 32.6075 48.9722 32.5369C48.9722 32.5369 48.983 32.5478 49.0102 32.4338C49.021 32.2438 49.0047 32.1624 49.0699 31.967C49.4281 31.7661 49.705 31.6847 49.9764 31.6033L49.9873 31.6087Z" fill="#30363A"/>
<path d="M54.9758 38.6166C55.0735 38.4212 55.1604 38.4375 55.3613 38.4972C55.6218 39.6697 55.7629 40.7988 55.9041 41.9279C55.5892 41.9442 55.2744 41.955 54.9541 41.9713C54.9541 40.9237 54.9541 39.876 54.9704 38.6221L54.9758 38.6166Z" fill="#30363A"/>
<path d="M51.7785 30.9899C51.4148 30.8488 51.0728 30.5611 50.6603 30.1539C50.8991 30.0345 51.2031 30.04 51.6211 30.1539C51.7568 30.4579 51.7731 30.6533 51.7731 30.9953L51.7785 30.9899Z" fill="#555C60"/>
<path d="M53.5699 38.0467C53.7327 38.4538 53.8956 38.8609 54.0584 39.268L53.7056 39.382C53.6622 39.0346 53.6241 38.6872 53.5807 38.1932C53.5807 38.0412 53.5753 38.0467 53.5699 38.0467Z" fill="#30363A"/>
<path d="M25.6306 29.8012C25.522 29.888 25.4134 29.9694 25.2995 30.0509C25.3266 29.9369 25.3483 29.8175 25.4949 29.7415C25.6143 29.7849 25.6251 29.7957 25.6306 29.8012Z" fill="#191E21"/>
<path d="M29.1753 31.1799C29.235 31.3156 29.1698 31.4785 28.9581 31.6359C28.893 31.4893 28.969 31.3482 29.1753 31.1799Z" fill="#7F878C"/>
<path d="M57.4348 76.0608C58.8299 72.907 60.3498 69.7043 61.9403 66.5396C65.1809 60.0854 68.2262 53.5281 69.4747 46.3628C70.9566 37.8621 69.0784 29.9966 64.3179 22.8095C61.4572 18.4886 58.4119 14.3415 53.9173 11.5133C53.5699 11.2962 53.407 10.7914 53.1411 10.2594C54.4167 10.8619 55.866 11.4482 56.9734 12.4198C62.1085 16.947 66.3969 22.1527 68.9861 28.5635C71.2714 34.2306 71.8794 40.0009 70.7666 46.1457C69.4421 53.4304 66.766 60.0691 63.0856 66.3985C61.2292 69.5903 59.427 72.8147 57.4457 76.0554L57.4348 76.0608Z" fill="#9CA1A6"/>
<path d="M56.0615 78.3515C56.2515 77.7815 56.588 77.1736 57.082 76.5493C56.892 77.1247 56.55 77.7218 56.0615 78.3515Z" fill="#9CA1A6"/>
<path d="M53.0542 9.97172C52.6796 9.90115 52.24 9.70031 51.7731 9.34204C52.164 9.40175 52.5765 9.62431 53.0542 9.97172Z" fill="#9CA1A6"/>
<path d="M54.4872 83.2262C54.243 83.4976 54.0204 83.6225 53.6838 83.8016C53.5698 83.5139 53.5753 83.172 53.5861 82.6563C53.9661 82.1623 54.3461 81.8366 54.9486 81.3101C54.7641 82.0537 54.6338 82.564 54.4872 83.2208V83.2262Z" fill="#B3B7BA"/>
<path d="M53.4396 83.8613C53.5699 84.0459 53.5645 84.2467 53.559 84.5996C53.3256 84.605 53.0976 84.4639 52.8696 84.3173C53.0162 84.1707 53.1573 84.0296 53.4396 83.8613Z" fill="#B3B7BA"/>
<path d="M43.3702 55.8839C41.8123 56.1716 40.0915 56.4756 38.1645 56.7416C38.0016 56.481 37.9636 56.1227 38.0885 56.0522C41.0252 54.4291 39.6301 52.1221 38.9842 50.0214C37.1603 44.1046 32.9859 40.777 27.0908 39.3223C26.7543 39.2408 26.662 38.1389 26.4828 37.3518C33.1922 37.7698 38.2242 40.9399 41.4214 46.8513C43.4353 50.5642 43.5385 53.338 41.8666 55.6885C42.3551 55.7645 42.7785 55.8296 43.3702 55.8839Z" fill="#697075"/>
<path d="M25.3321 40.3646C25.3212 40.1204 25.3755 39.9467 25.4298 39.7729C25.4732 39.8218 25.56 39.8815 25.5546 39.9195C25.5166 40.0932 25.4515 40.2669 25.3321 40.3646Z" fill="#5F666B"/>
<path d="M26.8629 35.8265C26.9063 36.0274 26.8194 36.3097 26.6186 36.6951C26.5806 36.5051 26.6566 36.2065 26.8629 35.8265Z" fill="#484E53"/>
<path d="M45.7152 52.3556C46.3069 52.3882 46.8225 52.5293 47.4685 52.8061C47.6096 53.0178 47.6205 53.0993 47.6314 53.1753C47.6314 53.1753 47.6205 53.1644 47.4739 53.1753C47.1211 53.4901 46.9148 53.7941 46.7086 54.0926C46.7086 54.0926 46.7031 54.0764 46.5349 54.0655C46.0192 54.0601 45.6718 54.0655 45.2755 53.9515C45.1072 53.6149 44.9932 53.3924 44.8738 53.1698C45.1289 52.9364 45.3841 52.6976 45.7098 52.3556H45.7152Z" fill="#484E53"/>
<path d="M44.749 53.224C44.9933 53.3868 45.1073 53.6094 45.2755 54.1088C45.3298 54.5919 45.3298 54.8036 45.3352 55.0153C45.3352 55.0153 45.3244 54.9936 45.1833 54.9882C44.8304 54.9882 44.6241 54.9882 44.4179 54.9936C43.0662 54.2445 44.0704 53.794 44.7544 53.224H44.749Z" fill="#4D5458"/>
<path d="M44.4015 55.1294C44.6187 54.9882 44.8304 54.9828 45.1941 54.9882C45.1126 55.1565 44.8738 55.3194 44.4829 55.4985C44.3527 55.4334 44.369 55.3465 44.4015 55.1239V55.1294Z" fill="#757B81"/>
<path d="M47.7562 53.1644C47.6151 53.0938 47.6097 53.0178 47.5988 52.817C47.6802 52.6976 47.7616 52.6976 47.9679 52.7084C48.0222 52.8604 47.9571 53.007 47.7616 53.1644H47.7562Z" fill="#757B81"/>
<path d="M46.8063 31.2775C46.7628 31.0224 46.8497 30.903 47.1862 30.8324C47.7888 31.2558 48.1796 31.6521 48.5107 32.108C48.4565 32.1677 48.3533 32.2817 48.3533 32.2817C47.8648 31.9832 47.3817 31.6846 46.8063 31.2775Z" fill="#8B9296"/>
<path d="M48.9939 32.0918C49.0102 32.1678 49.0319 32.2493 49.0264 32.4447C48.8419 32.537 48.6844 32.5098 48.4402 32.385C48.3588 32.2818 48.4619 32.1678 48.6247 32.119C48.7821 32.0701 48.9993 32.0918 48.9993 32.0918H48.9939Z" fill="#8B9296"/>
<path d="M48.9667 32.6888C49.1296 32.6129 49.2761 32.6888 49.4444 32.8897C49.2924 32.9603 49.1242 32.9006 48.9667 32.6888Z" fill="#8B9296"/>
<path d="M49.0753 31.9725C48.9938 32.0919 48.7767 32.0702 48.6681 32.0593C48.1742 31.6522 47.7888 31.2505 47.2785 30.7782C45.688 29.736 44.217 28.7644 42.6645 27.657C43.0716 27.5159 43.5601 27.5104 44.2333 27.505C46.2254 28.7806 48.033 30.0509 49.9112 31.4568C49.7049 31.6793 49.4281 31.7608 49.0698 31.9616L49.0753 31.9725Z" fill="#484E53"/>
<path d="M51.6375 50.3904C51.3878 51.0635 51.0078 51.6769 50.503 52.3989C50.389 52.1329 50.3998 51.7584 50.4867 51.2047C50.8775 50.7921 51.1923 50.5587 51.6429 50.385L51.6375 50.3904Z" fill="#30363A"/>
<path d="M45.4818 55.0045C45.3298 54.8091 45.3298 54.5974 45.3244 54.2283C45.6718 54.0654 46.0192 54.06 46.5403 54.0708C46.3503 54.3857 45.9921 54.6897 45.4818 55.0045Z" fill="#757B81"/>
<path d="M46.8605 54.0872C46.9148 53.7941 47.1211 53.4901 47.4793 53.1807C47.4251 53.4738 47.2188 53.7778 46.8605 54.0872Z" fill="#757B81"/>
</svg>
