<svg width="123" height="107" viewBox="0 0 123 107" fill="none" xmlns="http://www.w3.org/2000/svg">
<path d="M110.543 103.584C107.032 104.556 103.572 106.148 100.003 106.379C91.5819 106.923 83.1154 106.929 74.6618 106.964C58.0626 107.033 41.4635 106.981 24.8643 106.981C17.2066 106.981 10.4155 104.898 5.22262 99.6828C3.37399 97.8249 2.18008 95.4172 0.806448 93.2005C0.601044 92.8706 1.03753 92.2166 1.28144 91.4989C1.93617 91.6378 2.48177 91.9909 3.15575 92.4539C4.37533 96.2622 6.49355 99.1272 10.9097 100.348C12.0266 101.188 13.0729 101.871 14.1577 102.739C15.6019 103.3 17.0076 103.688 18.6252 104.139C24.7744 104.348 30.7055 104.649 36.6429 104.608C57.992 104.464 79.3347 104.197 100.889 104.012C101.916 103.85 102.744 103.659 103.572 103.462C103.547 103.312 103.514 103.167 103.489 103.017C102.545 103.074 101.595 103.132 100.427 103.202C88.3917 103.283 76.581 103.393 64.7703 103.404C56.9329 103.41 49.0955 103.277 41.2452 103.109C41.2131 102.883 41.2003 102.75 41.4314 102.606C42.8307 102.374 43.9989 102.148 45.4111 101.9C47.7796 101.807 49.9107 101.732 52.1637 101.709C52.2856 101.755 52.5296 101.836 52.613 102.009C53.0046 102.316 53.3191 102.554 53.6336 102.554C63.968 102.571 74.3023 102.577 84.6367 102.548C85.1245 102.548 85.6059 102.206 86.312 101.94C84.8934 100.412 81.3823 101.784 82.0884 98.722C84.1296 98.531 85.9397 98.3458 87.9745 98.1664C89.5021 98.0159 90.8052 97.8655 92.1339 97.8828C94.6436 100.273 97.3845 101.807 101.261 100.586C102.475 100.638 103.508 100.713 104.542 100.794C105.607 101.523 106.756 101.975 107.841 101.865C108.951 101.755 109.991 101.095 111.05 100.846C110.877 101.871 110.716 102.727 110.556 103.578M92.4227 102.102H88.8988C88.918 102.31 88.9373 102.519 88.9565 102.733C90.2403 102.53 91.5177 102.334 92.4227 102.102Z" fill="#757B81"/>
<path d="M97.0123 9.61936C98.816 9.67145 100.62 9.72933 102.873 9.85087C104.997 10.0187 106.679 10.1171 108.361 10.2155C108.592 10.2444 108.829 10.2734 109.407 10.3949C110.55 10.5743 111.346 10.6612 112.141 10.748C112.385 10.8579 112.629 10.9679 113.169 11.2052C114.459 11.6567 115.454 11.9808 116.442 12.2817C116.442 12.2586 116.397 12.2644 116.314 12.4496C116.474 12.6869 116.725 12.7332 116.975 12.7563C116.975 12.7332 116.93 12.739 116.782 12.8721C116.93 13.2483 117.219 13.4914 117.52 13.7171C117.533 13.6997 117.495 13.7171 117.476 13.8329C117.463 13.9544 117.572 14.1743 117.598 14.3769C118.015 17.5718 118.406 20.564 118.785 23.7763C118.682 28.1113 118.592 32.2206 118.304 36.3994C115.916 36.2315 113.74 35.9942 111.557 35.5254C111.371 31.8965 111.474 28.4644 110.941 25.1074C109.985 19.0708 107.347 13.5261 100.318 12.8374C98.8031 12.6869 97.2497 12.5711 95.8055 12.1891C93.9248 11.6856 92.1211 10.9332 90.4265 10.1461C92.718 9.87402 94.8684 9.74091 97.0187 9.60779L97.0123 9.61936Z" fill="#F1F2F3"/>
<path d="M9.18949 42.8586C10.5439 42.3782 11.9047 41.8978 13.6442 41.2669C34.4348 41.0759 54.8404 41.0296 75.5026 41.0181C82.7816 41.0528 89.8103 41.0528 96.871 41.0528C95.8697 41.5911 95.0545 42.0367 94.0339 42.5055C93.4369 42.5287 93.0389 42.5287 92.4356 42.4708C91.8065 42.4592 91.3893 42.5055 90.8501 42.5576C90.7346 42.5576 90.5099 42.5634 90.2596 42.4997C74.4435 42.4997 58.8778 42.5576 43.0554 42.5866C36.2899 42.5518 29.7683 42.5518 23.2468 42.5518C23.2404 42.7255 23.2275 42.8991 23.2211 43.0669C24.5113 43.3563 25.8015 43.6515 26.944 44.0914C24.0299 44.2534 21.0515 45.4862 17.8999 42.9396C17.5276 43.0438 16.4107 43.3621 15.2938 43.6747C15.9999 44.3518 16.706 45.029 17.3671 45.6656C12.2513 46.6206 10.0175 49.0226 9.76718 54.0753C9.6709 55.9968 9.703 57.9184 9.703 59.8457C9.72225 68.4174 9.49117 76.9949 9.93407 85.5492C10.0689 88.1826 11.8661 90.8276 13.2783 93.2932C14.3053 95.0874 15.955 96.5865 17.136 98.2013C10.3064 95.2784 8.38071 89.809 8.20098 83.8881C7.88646 73.5743 7.99558 63.2373 8.22024 52.9177C8.25875 50.9615 9.60671 49.0226 10.4027 47.0952C10.6401 46.5107 11.0381 45.9782 11.4553 45.3878C11.5516 45.3531 11.7506 45.3242 11.9432 45.3705C12.508 45.2837 12.8803 45.1447 13.2526 45.0116C12.829 44.8264 12.4118 44.6412 11.8854 44.3171C11.1537 43.9814 10.5182 43.7788 10.0945 43.5705C11.0638 43.4894 11.8212 43.42 12.5851 43.3447C12.5851 43.2579 12.5722 43.1769 12.5722 43.0901C11.4425 43.0148 10.3128 42.9396 9.18949 42.8644V42.8586Z" fill="#272C2F"/>
<path d="M10.8455 100.198C6.49998 99.1272 4.38176 96.2623 3.15576 92.2224C2.91826 90.9838 2.73212 90.0983 2.73212 89.207C2.74495 76.9196 2.78989 64.6321 2.94394 52.5009C3.0659 63.5903 3.0659 74.5234 3.0659 85.4507C3.6115 85.3003 3.72704 85.1556 3.72704 85.0051C3.75913 73.69 3.79765 62.3807 3.76555 51.0656C3.76555 50.481 3.15576 49.8907 2.80272 49.1267C2.8284 47.8244 2.88617 46.7016 2.93752 45.573C3.16218 45.3009 3.38684 45.0289 3.57299 44.6238C3.52805 44.4907 3.66927 44.4386 3.62434 44.6585C4.34967 44.8784 5.11351 44.8842 6.10201 44.9132C7.14187 45.3009 7.95706 45.654 8.70165 46.0881C8.63746 46.1633 8.48341 46.308 8.30368 46.3427C5.45371 48.2006 5.56925 50.9614 5.53074 53.4733C5.3831 63.5556 5.37668 73.6437 5.49222 83.726C5.5179 86.1279 5.97364 88.5993 6.73748 90.9028C7.26383 92.4945 8.66955 93.843 9.79927 95.4231C10.8006 96.3896 11.6928 97.2404 12.5401 98.2822C12.6942 99.1272 12.8867 99.7755 12.8546 100.401C12.033 100.32 11.4361 100.25 10.8391 100.186L10.8455 100.198Z" fill="#DEDFE0"/>
<path d="M94.2328 42.4765C95.0544 42.0308 95.876 41.591 96.871 41.0469C89.8038 41.0469 82.7816 41.0469 75.5154 40.8907C75.2651 40.5665 75.2587 40.3987 75.4962 40.173C84.9833 39.9472 94.22 39.7852 103.457 39.71C103.457 39.8026 103.502 39.9878 103.315 40.0341C103.046 40.0977 102.956 40.1093 102.879 40.1498C102.808 40.1845 102.699 40.2887 102.699 40.2887C103.604 41.2437 108.637 41.1222 110.107 40.0919C110.761 40.0804 111.204 40.1035 111.686 40.2887C112.668 40.8096 113.598 41.2148 114.568 41.4694C114.683 41.4984 115.056 40.7402 115.306 40.1672C115.299 39.7447 115.287 39.5074 115.428 39.2643C115.845 39.3685 116.121 39.4784 116.519 39.5363C116.757 39.3569 116.872 39.2296 117.02 38.9286C118.162 38.2167 119.266 37.6784 120.505 37.1633C120.678 37.6264 120.723 38.0662 120.762 38.5061C119.863 39.1254 118.965 39.7447 117.912 40.4739C122.142 43.6688 123.15 47.9575 122.983 52.9524C122.662 62.6122 122.912 72.2835 122.887 81.9491C122.887 82.7883 122.585 83.6276 122.129 84.3047C121.827 72.5208 121.84 60.8932 121.795 49.2714C121.795 48.4842 121.333 47.7029 120.922 46.9678C120.499 47.3151 120.236 47.6103 119.972 47.8997C119.51 47.564 119.029 47.2167 118.547 46.6842C118.58 43.8077 116.166 43.3389 114.157 43.0784C110.44 42.5923 106.653 42.5402 102.796 42.1177C101.223 41.9788 99.7466 42.0308 98.1804 42.245C96.8004 42.436 95.5102 42.4534 94.22 42.4707L94.2328 42.4765Z" fill="#5F666B"/>
<path d="M9.32428 40.578C6.58343 40.2597 4.02872 39.6346 2.65509 36.9375C2.67435 36.706 2.80914 36.5787 3.00813 36.6423C4.63852 36.7928 6.06992 36.8854 7.71956 37.0301C9.81211 36.9433 11.68 36.7928 13.7084 36.7986C14.9344 37.0127 16.0063 37.0359 17.0654 37.1516C19.8705 37.4584 22.6691 37.7999 25.4869 38.234C25.5062 38.3381 25.5576 38.5465 25.3136 38.5812C18.9718 38.6217 12.8675 38.6217 6.76957 38.6217C15.3131 39.1253 23.8501 39.1369 32.3808 39.1079C32.9585 39.1079 33.5362 38.8185 34.3257 38.6275C34.9548 38.6217 35.3784 38.6507 35.9368 38.8127C37.2206 38.859 38.3632 38.7722 39.7496 38.6507C40.9243 38.0487 42.7601 39.733 43.1901 37.5799C43.3121 37.551 43.556 37.551 43.556 37.551C43.556 37.551 43.7999 37.6031 43.5753 37.7478C43.5303 38.1298 43.7037 38.3729 44.0374 38.7664C44.5381 38.9806 44.8911 39.1021 45.2378 39.1021C59.1217 39.1021 73.0121 39.1079 86.8961 39.0732C87.5252 39.0732 88.1478 38.6912 88.9694 38.4018C89.7204 38.3266 90.2853 38.3381 90.8886 38.4597C91.1261 38.7375 91.3251 38.8938 91.3765 39.2121C90.2532 39.4436 89.2775 39.5767 88.3018 39.5767C73.0057 39.5941 57.7096 39.5767 42.407 39.6288C41.4763 39.6288 40.5456 40.1208 39.3773 40.4391C38.1706 40.468 37.2014 40.4391 36.1808 40.2539C35.1216 40.2076 34.1075 40.3176 32.8494 40.4796C24.8386 40.5433 17.0783 40.5606 9.31786 40.578H9.32428Z" fill="#272C2F"/>
<path d="M2.78346 45.4862C2.88616 46.7016 2.82839 47.8303 2.75137 49.3409C2.75137 50.6026 2.78988 51.4708 2.82197 52.3389C2.78988 64.6264 2.74495 76.9138 2.73211 89.2013C2.73211 90.0926 2.91826 90.9781 3.02738 92.1009C2.48819 91.9794 1.94259 91.6321 1.23652 91.3138C0.986181 91.3543 0.889899 91.3601 0.710171 91.1228C0.652401 76.7055 0.684495 62.5254 0.710171 48.3454C0.902736 47.5351 0.9926 46.6901 1.33922 45.9434C1.47401 45.6483 2.18009 45.5672 2.78346 45.4862Z" fill="#191E21"/>
<path d="M22.7718 9.34157C23.3687 8.71071 23.9657 8.07984 24.9285 7.48949C26.3856 7.58788 27.4768 7.63997 28.17 7.6747C27.9518 4.89656 27.7721 2.61039 27.5988 0.318435C28.7927 0.133227 29.993 -0.0519817 31.296 0.0927127C31.7453 0.98403 32.0855 1.55123 32.445 2.21683C32.4578 2.31522 32.6311 2.44255 32.5798 2.64512C33.0805 4.62454 33.6261 6.40139 34.3771 8.21296C34.974 8.27662 35.3656 8.29978 35.7507 8.43868C35.7379 8.54865 35.7507 8.7628 35.5581 8.84383C32.9906 9.25476 30.6156 9.58466 28.0545 9.8046C26.867 9.59045 25.8657 9.48048 24.6525 9.35894C23.8887 9.34157 23.3366 9.34157 22.7782 9.34157H22.7718Z" fill="#30363A"/>
<path d="M97.0572 9.55571C94.8619 9.75249 92.7116 9.88561 90.3751 10.0361C90.0991 10.0187 90.0157 9.984 89.7846 9.90297C88.135 9.87403 86.6265 9.90297 85.3043 9.88561C85.6894 9.73513 85.8884 9.62516 86.0938 9.51519C85.7728 9.43995 85.4583 9.35892 85.2336 9.13899C86.9603 8.72227 86.6971 7.91777 86.1772 6.87018C85.8563 6.22774 85.484 5.14542 85.8178 4.77501C86.9025 3.60588 86.0232 2.82453 85.5289 1.91584C85.5289 1.91584 85.5931 1.93321 85.76 1.9853C85.9782 1.8406 86.0296 1.63803 86.0809 1.44125C86.0809 1.44125 86.1387 1.48755 86.2671 1.56858C87.0245 1.29655 87.6535 0.937712 88.2826 0.57887C88.8025 0.532567 89.3225 0.486265 90.0478 0.677262C90.2083 1.10556 90.1633 1.29077 89.9322 1.53385C89.2711 2.5525 89.1812 3.36279 90.7988 3.71584C91.2224 5.17436 91.4214 6.51712 91.8707 7.78465C92.0697 8.35764 92.6731 9.04638 93.2572 9.2258C94.0531 9.4631 95.0096 9.26053 96.0815 9.27789C96.5052 9.33577 96.7491 9.36471 96.993 9.38786C96.993 9.38786 97.1085 9.49783 97.0636 9.56149L97.0572 9.55571Z" fill="#30363A"/>
<path d="M9.427 40.7459C17.0847 40.5607 24.8451 40.5434 33.0805 40.4971C34.4477 40.4508 35.3463 40.4334 36.2385 40.416C37.2078 40.445 38.1835 40.4681 39.6341 40.4566C51.8235 40.3524 63.5379 40.2945 75.2459 40.2308C75.2523 40.3987 75.2652 40.5665 75.2587 40.8559C54.8404 41.0238 34.4348 41.0701 13.7661 41.1337C12.1871 41.0701 10.8584 40.9948 9.427 40.7459Z" fill="#8B9296"/>
<path d="M122.277 18.1388C122.277 18.8102 122.283 19.4816 122.373 20.4597C122.534 20.9054 122.649 21.0038 122.803 21.0674C122.778 26.0276 122.752 30.9819 122.392 35.9536C121.815 35.0738 121.385 34.1883 121.365 33.2912C121.288 29.5176 121.442 25.7324 121.288 21.9587C121.231 20.4944 120.602 19.0475 120.236 17.6006C120.236 17.6063 120.255 17.6121 120.248 17.4443C120.062 16.8887 119.876 16.5009 119.69 16.1247C119.69 16.1362 119.716 16.142 119.69 15.9973C119.497 15.6153 119.318 15.3723 119.144 15.1465C119.144 15.1581 119.17 15.1639 119.087 15.0192C118.779 14.8051 118.56 14.7298 118.31 14.6083C118.278 14.562 118.085 14.3999 118.066 14.2321C117.861 13.9427 117.668 13.8211 117.482 13.6996C117.482 13.6996 117.52 13.688 117.533 13.5491C117.334 13.1787 117.123 12.953 116.911 12.7215C116.911 12.7215 116.956 12.7215 116.911 12.6115C116.705 12.4205 116.538 12.3279 116.378 12.2411C116.378 12.2411 116.423 12.2411 116.352 12.108C115.235 11.4134 114.189 10.8462 113.143 10.2848C115.203 9.5787 118.201 10.8925 119.594 13.1324C120.139 14.0179 120.627 14.9324 121.25 16.0957C121.442 16.4893 121.564 16.5877 121.712 16.6571C121.712 16.8771 121.712 17.0912 121.808 17.5658C121.988 17.9536 122.104 18.052 122.258 18.1215L122.277 18.1388Z" fill="#8B9296"/>
<path d="M110.71 103.514C110.71 102.727 110.864 101.876 111.172 100.736C116.84 97.1189 120.281 92.6912 120.467 86.4115C120.672 86.1974 120.775 86.0642 121.051 85.9485C121.462 85.9832 121.699 86.0006 121.93 86.0179C121.969 86.834 122.007 87.6559 121.86 88.7903C121.641 89.4501 121.616 89.7974 121.584 90.1446C119.979 95.8687 116.044 100.065 110.704 103.514H110.71Z" fill="#7F878C"/>
<path d="M32.6247 2.44244C32.6247 2.44244 32.4514 2.31511 32.4707 2.05466C32.3294 1.27331 32.1625 0.75241 32.0021 0.237299C32.3936 0.173633 32.7852 0.115755 33.5169 0.0868164C33.9534 0.0810286 34.0497 0.0405144 34.146 0C36.553 1.16913 38.9729 2.4135 39.5892 5.05273C39.801 5.95562 39.2875 6.99163 38.8446 8.12603C37.6442 8.30545 36.6943 8.31703 35.7507 8.33439C35.3527 8.30545 34.9612 8.2823 34.3835 8.06237C34.852 7.36205 35.5003 6.85851 36.4953 6.07716C35.7507 5.03536 35.449 2.78971 32.6183 2.44244H32.6247Z" fill="#F1F2F3"/>
<path d="M2.61014 36.7697C1.96184 36.3299 1.37131 35.8321 0.67807 35.016C0.549693 30.3164 0.524017 25.9292 0.504761 21.5479C0.729421 21.1543 0.95408 20.7666 1.38414 20.2051C1.95542 20.0431 2.3213 20.0489 2.74494 20.153C2.80913 20.2514 2.87332 20.4656 2.81555 20.6913C2.75136 25.3563 2.75136 29.7955 2.71285 34.4315C2.71926 35.2765 2.75778 35.9305 2.79629 36.5787C2.79629 36.5787 2.66791 36.7061 2.60373 36.7697H2.61014Z" fill="#272C2F"/>
<path d="M90.1055 1.47004C90.1505 1.28483 90.1954 1.09962 90.1184 0.821806C91.1582 0.752352 92.32 0.775503 93.7129 0.694474C93.9376 0.590294 93.9183 0.636596 93.9183 0.636596C93.9183 0.636596 93.9055 0.844956 94.0916 1.00701C94.6244 1.28483 94.971 1.40058 95.3177 1.51634C95.3177 1.51634 95.3305 1.50476 95.3177 1.68418C96.0366 3.36843 96.7619 4.86746 97.4936 6.36649C97.8274 7.04366 98.1869 7.70347 98.5335 8.37485C98.0521 8.61215 97.5642 8.84366 97.0315 9.23144C96.7362 9.35877 96.4923 9.33562 96.0237 9.1099C95.2663 7.96971 94.8298 6.96842 94.1687 6.11762C93.3021 5.00637 92.2494 4.00508 91.2417 2.80122C90.8373 2.25717 90.465 1.86939 90.0991 1.47582L90.1055 1.47004Z" fill="#F1F2F3"/>
<path d="M28.2342 9.91447C30.6092 9.58457 32.9841 9.25466 35.7892 8.87846C37.1821 8.74534 38.1513 8.65273 39.1141 8.56592C39.6662 8.61801 40.2118 8.6701 41.104 8.89582C44.4354 9.13891 47.4201 9.20836 50.6552 9.2836C52.8826 9.32412 54.866 9.34727 56.8494 9.58457C56.8751 9.93183 56.9008 10.0707 56.7018 10.227C53.0302 10.337 49.5897 10.4296 46.0914 10.3312C43.081 10.2675 40.1219 10.3891 37.15 10.5859C37.1371 10.6611 37.0473 10.7826 36.8483 10.6148C34.8199 10.5106 32.9841 10.5685 30.975 10.6495C29.9352 10.6264 29.0686 10.5801 28.2663 10.4354C28.3176 10.1923 28.292 10.0476 28.2342 9.90868V9.91447Z" fill="#DEDFE0"/>
<path d="M22.6049 9.40515C23.3302 9.34727 23.8822 9.34727 24.5754 9.4746C24.6011 9.89711 24.4856 10.1981 24.1325 10.5164C22.6369 10.6842 21.3789 10.8347 19.9475 10.9215C19.3248 10.9736 18.8691 11.0894 18.2015 11.1878C17.4313 11.2514 16.8728 11.3325 16.0961 11.3614C13.8688 11.645 11.8533 11.9749 9.63877 12.3164C7.90568 12.8026 6.378 13.283 4.73477 13.6302C4.61281 13.3813 4.60639 13.2656 4.59998 13.1498C4.84389 12.9588 5.08139 12.7621 5.57564 12.4264C6.26246 11.9518 6.69894 11.6277 7.129 11.3035C7.54623 11.1646 7.95704 11.0257 8.74655 10.8405C11.3269 10.4933 13.535 10.1923 15.7495 9.89711C16.1475 9.88553 16.5519 9.87975 17.3735 9.87396C19.1002 9.74084 20.4096 9.60193 21.7126 9.46303C21.9566 9.46303 22.194 9.46303 22.6049 9.40515Z" fill="#F1F2F3"/>
<path d="M121.962 85.8443C121.706 86.0063 121.468 85.989 121.064 85.7343C120.961 72.6366 121.032 59.7762 121.096 46.9215C121.34 47.7086 121.802 48.49 121.802 49.2771C121.853 60.899 121.84 72.5266 121.93 84.3742C122.007 84.953 122.001 85.3118 121.962 85.8501V85.8443Z" fill="#CBCED0"/>
<path d="M0.556118 48.2354C0.684495 62.5312 0.652401 76.7112 0.568956 91.1112C0.344296 90.7581 0.0169346 90.1793 0.0169346 89.6006C-0.00874081 76.2077 -0.00232196 62.8205 0.0169346 49.4276C0.0169346 48.9936 0.26727 48.5537 0.556118 48.2354Z" fill="#9CA1A6"/>
<path d="M50.4114 9.27774C47.4266 9.20829 44.4354 9.14462 41.3159 8.90732C41.502 8.61793 41.8229 8.39221 42.1375 8.39221C54.1792 8.39221 66.2146 8.40957 78.1344 8.61793C77.0881 8.82629 76.1574 8.84945 74.9827 8.87838C67.4727 8.87838 60.2065 8.85523 52.9468 8.87838C52.0995 8.87838 51.2522 9.13883 50.4049 9.27774H50.4114Z" fill="#4D5458"/>
<path d="M27.4383 0.393677C27.772 2.61039 27.9518 4.90235 28.17 7.6747C27.4768 7.63997 26.3856 7.58788 25.1082 7.44319C24.9927 6.36666 25.0633 5.37695 25.243 4.06313C25.3457 3.46698 25.3393 3.19496 25.3329 2.92293C25.3457 2.67985 25.3521 2.43676 25.4548 2.11843C25.6731 1.84641 25.795 1.65541 25.9234 1.45863C26.3792 1.12872 26.8285 0.798821 27.4383 0.393677Z" fill="#DEDFE0"/>
<path d="M85.131 9.27776C85.4519 9.353 85.7664 9.43403 86.0874 9.50927C85.8884 9.61924 85.683 9.72921 85.0604 9.85075C78.3141 9.96651 71.998 10.0649 65.6754 10.0533C65.746 9.77551 65.7268 9.62503 65.868 9.46297C69.1865 9.43403 72.2612 9.41667 75.554 9.48033C76.6837 9.49191 77.6016 9.43403 78.5131 9.37036C79.4503 9.37036 80.381 9.37036 81.7546 9.36458C82.7688 9.33564 83.3401 9.31249 84.1104 9.31249C84.5854 9.31249 84.8549 9.29512 85.1245 9.27197L85.131 9.27776Z" fill="#F1F2F3"/>
<path d="M85.2272 9.13894C84.8614 9.301 84.5918 9.31837 84.2452 9.14473C83.8793 8.58911 83.5968 8.22448 83.308 7.86564C83.3465 6.65599 83.1668 5.40004 83.4813 4.24828C83.7381 3.32223 84.5789 2.52931 85.3428 1.80005C86.0168 2.83027 86.8961 3.61162 85.8114 4.78075C85.4712 5.14538 85.8499 6.22769 86.1708 6.87593C86.6907 7.91772 86.9539 8.72801 85.2272 9.14473V9.13894Z" fill="#DEDFE0"/>
<path d="M120.242 17.6008C120.608 19.0535 121.237 20.5004 121.295 21.9647C121.442 25.7384 121.295 29.5178 121.372 33.2972C121.391 34.1885 121.821 35.074 122.245 36.0695C122.001 36.9377 121.571 37.7017 120.961 38.483C120.736 38.0605 120.698 37.6149 120.505 36.9898C120.313 36.5847 120.274 36.3647 120.236 36.1564C120.236 36.1679 120.21 36.1564 120.39 36.0348C120.659 34.9525 120.839 33.9917 120.807 33.0367C120.646 27.8914 120.441 22.7403 120.242 17.595V17.6008Z" fill="#555C60"/>
<path d="M4.41385 13.121C4.60642 13.2657 4.60642 13.3814 4.93378 13.8097C5.40878 14.2206 5.56283 14.3133 5.5179 14.4927C4.44595 16.4026 3.56657 18.2316 2.6936 20.0547C2.32773 20.0489 1.96185 20.0431 1.42267 20.0316C1.6024 18.22 1.96185 16.4142 2.53955 14.7763C2.80914 15.0772 2.86049 15.2219 2.91184 15.3608C2.98245 15.3145 3.11083 15.2393 3.11083 15.2335C2.99529 15.0483 2.86691 14.8631 2.73853 14.6837C3.2392 14.1512 3.73987 13.6245 4.42669 13.1268L4.41385 13.121Z" fill="#30363A"/>
<path d="M3.67568 44.4444C3.67568 44.4444 3.53446 44.4965 3.46386 44.4733C3.06589 44.4039 2.74494 44.3576 2.41758 44.3113C2.39833 44.0913 2.37907 43.8714 2.35339 43.6515C4.47161 43.3968 6.58984 43.1421 8.94555 42.8701C10.3128 42.928 11.4425 43.0032 12.5722 43.0785C12.5722 43.1653 12.585 43.2463 12.585 43.3331C11.8276 43.4026 11.0638 43.4778 9.90838 43.5589C8.29083 43.8946 7.07767 44.2187 5.63985 44.5254C4.83749 44.4849 4.25337 44.4618 3.66926 44.4444H3.67568Z" fill="#CBCED0"/>
<path d="M98.6041 8.15513C98.1997 7.69789 97.8338 7.0323 97.5065 6.36092C96.7683 4.86767 96.043 3.36285 95.3176 1.69019C97.4808 2.03166 98.1804 2.99822 98.6619 6.25095C98.7453 6.80658 98.6618 7.38535 98.6041 8.16092V8.15513Z" fill="#697075"/>
<path d="M0.305776 21.658C0.524017 25.9351 0.549692 30.3223 0.530436 34.9293C0.331451 33.0367 0.0939539 30.9184 0.0426031 28.8001C-0.0215854 26.456 0.0811162 24.112 0.312195 21.658H0.305776Z" fill="#B3B7BA"/>
<path d="M15.589 9.74663C13.5286 10.1865 11.3205 10.4875 8.88776 10.7595C10.6337 8.96528 13.0087 9.13891 15.589 9.74663Z" fill="#30363A"/>
<path d="M108.322 10.0186C106.679 10.1169 104.997 10.0186 103.117 9.83914C104.708 9.78126 106.493 9.80441 108.322 10.0186Z" fill="#30363A"/>
<path d="M21.5843 9.30103C20.4032 9.5962 19.0938 9.73511 17.5661 9.82771C18.7151 9.56726 20.0887 9.35312 21.5843 9.30103Z" fill="#30363A"/>
<path d="M113.104 10.4354C114.208 10.8637 115.255 11.4309 116.371 12.1486C115.447 11.9808 114.459 11.6566 113.303 11.2284C113.104 10.939 113.079 10.7538 113.111 10.4412L113.104 10.4354Z" fill="#555C60"/>
<path d="M39.1398 8.47329C38.1513 8.65272 37.1885 8.74532 35.9882 8.79741C35.7507 8.76268 35.7379 8.54275 35.7507 8.43857C36.7135 8.31124 37.6571 8.29966 38.7932 8.28809C38.9794 8.29387 39.1655 8.38069 39.1463 8.47329H39.1398Z" fill="#4D5458"/>
<path d="M112.097 10.5801C111.339 10.6611 110.543 10.5801 109.58 10.3833C110.293 10.3196 111.179 10.3659 112.097 10.5801Z" fill="#30363A"/>
<path d="M83.141 7.90039C83.5904 8.22451 83.8792 8.58914 84.0397 9.12161C83.3464 9.31261 82.7752 9.33576 81.9921 9.3184C82.1782 8.83222 82.5762 8.38656 83.141 7.90039Z" fill="#30363A"/>
<path d="M88.0707 0.567139C87.6471 0.937556 87.018 1.2964 86.2285 1.54527C86.6714 1.14592 87.2684 0.85074 88.0707 0.567139Z" fill="#DEDFE0"/>
<path d="M78.5066 9.22583C77.608 9.43419 76.6901 9.49207 75.5411 9.34159C75.2844 9.04641 75.2587 8.95959 75.2394 8.86699C76.1702 8.84384 77.0945 8.82069 78.2563 8.79175C78.4874 8.88435 78.4938 8.98274 78.5131 9.22004L78.5066 9.22583Z" fill="#30363A"/>
<path d="M31.8737 0.167906C32.169 0.758259 32.3294 1.27916 32.4578 1.96212C32.0791 1.55697 31.7389 0.995557 31.418 0.248934C31.5399 0.0810887 31.6426 0.0868768 31.8737 0.167906Z" fill="#CBCED0"/>
<path d="M6.92364 11.2745C6.69256 11.6276 6.2625 11.9517 5.65271 12.299C5.89021 11.9633 6.30743 11.6044 6.92364 11.2745Z" fill="#30363A"/>
<path d="M121.706 90.0635C121.616 89.7973 121.648 89.45 121.834 88.9928C121.937 89.2475 121.879 89.6179 121.706 90.0635Z" fill="#5F666B"/>
<path d="M25.166 2.94019C25.3393 3.19485 25.3457 3.46687 25.2623 3.85465C25.1146 3.62893 25.0569 3.29324 25.166 2.94019Z" fill="#30363A"/>
<path d="M95.446 1.33119C94.971 1.39486 94.6308 1.2791 94.1943 1.05917C94.5923 1.01865 95.0866 1.0881 95.446 1.33119Z" fill="#697075"/>
<path d="M25.795 1.44116C25.795 1.64952 25.6731 1.84631 25.3585 1.95627C25.3393 1.72476 25.4998 1.57428 25.795 1.44116Z" fill="#30363A"/>
<path d="M122.315 18.0057C122.129 18.0752 122.014 17.9768 121.892 17.7395C122.02 17.7163 122.187 17.7916 122.315 18.0057Z" fill="#555C60"/>
<path d="M122.842 20.946C122.649 21.0097 122.534 20.9113 122.431 20.6624C122.559 20.6393 122.713 20.7319 122.842 20.946Z" fill="#555C60"/>
<path d="M85.8691 1.36597C86.0167 1.63799 85.9654 1.84056 85.715 1.98526C85.5674 1.71902 85.6187 1.50487 85.8691 1.36597Z" fill="#DEDFE0"/>
<path d="M121.77 16.5415C121.584 16.6052 121.468 16.5068 121.346 16.2753C121.474 16.2522 121.641 16.3332 121.77 16.5415Z" fill="#555C60"/>
<path d="M87.7434 98.1665C85.9333 98.3517 84.1168 98.5369 81.8445 98.7106C79.7455 99.1504 78.1087 99.6192 76.4655 100.042C75.5476 100.279 74.604 100.441 73.6476 100.464C73.2818 99.5903 72.9287 98.89 72.6527 98.0508C73.0378 97.5183 73.3524 97.1189 73.853 96.6906C74.2767 96.1929 74.5142 95.7299 74.7453 95.099C74.7453 94.717 74.7453 94.4971 74.8865 94.173C75.1111 93.6521 75.201 93.2353 75.2909 92.6103C75.2909 91.5627 75.2909 90.7234 75.4963 89.8437C76.0996 88.8887 76.8121 87.98 76.8571 87.0482C77.0047 83.9286 76.9148 80.8032 76.9148 77.4752C76.9148 76.5897 76.9148 75.9067 76.9148 75.0212C77.6337 69.9627 78.0831 65.0547 79.155 60.2682C80.0023 56.483 79.1999 53.0566 77.7685 49.636C77.4733 48.9357 76.4976 48.4669 75.7145 47.755C75.1304 46.7537 74.6618 45.8856 74.3986 44.9885C75.1753 44.9595 75.7402 44.9537 76.549 44.9653C82.5955 45.1389 88.3982 45.301 94.3934 45.4804C95.2406 45.6772 95.889 45.8624 96.2869 46.1229C92.9684 46.8811 94.3228 49.0746 94.3548 50.6142C94.5346 59.3421 95.0417 68.0701 95.1187 76.7981C95.1572 81.5093 94.5089 86.2263 94.2521 90.9492C94.0788 94.2019 92.6603 96.0308 89.3032 97.1594C88.7255 97.3562 88.2569 97.8193 87.737 98.1549L87.7434 98.1665Z" fill="#4D5458"/>
<path d="M17.3286 98.207C15.955 96.5748 14.3053 95.0758 13.2783 93.2816C11.8661 90.816 10.0689 88.171 9.93407 85.5376C9.49117 76.9832 9.72225 68.4058 9.703 59.8341C9.703 57.9125 9.6709 55.9852 9.76718 54.0637C10.0175 49.0167 12.2513 46.609 17.3671 45.654C16.706 45.0174 15.9999 44.3402 15.2938 43.663C16.4107 43.3505 17.5276 43.0322 17.8999 42.928C21.0515 45.4746 24.0363 44.2418 27.1944 44.1087C29.7619 43.9524 31.9315 43.9177 34.2423 44.0392C35.7892 44.2881 37.2142 44.2881 38.5878 44.5023C39.3067 44.618 39.9486 45.1158 40.4044 45.4514C39.5828 45.4978 38.9922 45.5267 38.1578 45.5267C36.5531 45.6309 35.1858 45.7582 33.7223 45.7003C32.798 45.6251 31.97 45.735 31.1227 45.8392C31.1035 45.8277 31.0906 45.7871 30.9045 45.6424C28.8761 45.7235 27.0339 45.9492 24.9927 46.1286C21.0515 46.6437 19.5303 49.1498 19.0745 52.0727C17.136 64.5048 17.6624 77.0006 18.561 89.4675C19.0617 96.4301 28.1893 103.103 36.3797 100.736C36.6108 100.777 36.7007 100.8 36.996 100.904C42.1182 100.904 47.035 100.823 51.9711 100.893C52.0032 101.251 52.0161 101.454 52.0353 101.657C49.9043 101.726 47.7732 101.801 45.1543 101.801C42.7922 101.871 40.9115 102.004 38.8317 102.143C37.9395 102.455 37.2527 102.768 36.4696 103.103C36.2578 103.15 36.1423 103.132 35.9561 102.889C33.3757 101.066 31.2254 101.182 30.2241 102.993C28.1444 102.53 26.2701 102.067 24.3444 101.425C23.4393 101.008 22.5921 100.759 21.687 100.36C20.7049 99.7234 19.7742 99.243 18.683 98.7337C18.1245 98.5311 17.733 98.3633 17.335 98.1896M23.2275 45.4399L24.2545 45.3588C24.2545 45.2778 24.2481 45.1968 24.2417 45.1158H19.6394C19.6394 45.2257 19.6394 45.3357 19.6394 45.4399C20.6921 45.4399 21.7448 45.4399 23.2275 45.4399Z" fill="#13171A"/>
<path d="M87.9616 98.1721C88.2633 97.8307 88.7319 97.3676 89.3096 97.1709C92.6666 96.0422 94.0852 94.2133 94.2585 90.9606C94.5153 86.2435 95.1636 81.5265 95.1251 76.8095C95.0544 68.0815 94.5474 59.3536 94.3612 50.6256C94.3291 49.086 92.9747 46.8925 96.4217 46.1343C97.0507 46.1343 97.301 46.2153 97.5321 46.5394C97.6862 50.3246 97.9814 53.8725 98.0135 57.4204C98.0906 65.7259 98.1997 74.0429 97.9622 82.3426C97.8531 86.1741 96.9673 89.9882 96.3896 93.9702C95.3048 95.1914 94.2585 96.2506 93.0582 97.3445C92.6345 97.495 92.3649 97.6049 92.0954 97.7207C90.7859 97.877 89.4829 98.0275 87.9552 98.1779L87.9616 98.1721Z" fill="#555C60"/>
<path d="M120.364 86.4926C120.281 92.6913 116.84 97.1247 111.179 100.563C109.972 101.095 108.932 101.755 107.822 101.865C106.743 101.975 105.594 101.523 104.522 100.794C103.489 100.713 102.455 100.632 101.281 100.435C103.354 99.6019 105.556 98.89 107.931 98.1665C108.553 97.8714 109.009 97.5878 109.458 97.281C109.458 97.2637 109.497 97.2637 109.696 97.2231C110.877 95.973 111.865 94.7633 113.034 93.49C113.765 93.1486 114.317 92.865 115.049 92.5987C115.454 92.5582 115.672 92.5003 115.909 92.6045C116.237 92.9055 116.551 93.0444 116.859 93.1775C116.725 92.5582 116.596 91.9447 116.474 91.1807C116.609 90.8045 116.737 90.573 116.93 90.1621C117.488 86.6199 118.233 83.263 118.4 79.8888C118.682 74.2052 118.599 68.4984 118.849 63.0232C119.228 64.2502 119.607 65.2631 119.613 66.2759C119.677 72.11 119.619 77.9441 119.684 83.7781C119.696 84.681 120.107 85.5781 120.338 86.481L120.364 86.4926Z" fill="#13171A"/>
<path d="M36.0267 103.092C36.1358 103.144 36.2578 103.167 36.7071 103.156C38.4338 103.179 39.8459 103.19 41.2517 103.208C49.0891 103.277 56.9265 103.416 64.7703 103.41C76.581 103.399 88.3917 103.289 100.446 103.341C100.69 103.636 100.69 103.81 100.684 103.989C79.3347 104.209 57.992 104.469 36.6429 104.614C30.7119 104.655 24.7745 104.354 18.6573 103.943C18.6445 102.895 18.8114 102.108 19.1772 101.321C19.9154 101.361 20.4482 101.408 21.2184 101.535C22.4316 101.616 23.4137 101.616 24.3958 101.622C26.2701 102.085 28.1379 102.554 30.4359 103.028C32.5798 103.057 34.3065 103.08 36.0267 103.098V103.092Z" fill="black"/>
<path d="M73.6733 100.632C74.604 100.435 75.5476 100.279 76.4655 100.042C78.1087 99.6192 79.7455 99.1504 81.6134 98.7163C81.3695 101.784 84.8806 100.418 86.2992 101.946C85.5995 102.212 85.1117 102.554 84.6238 102.554C74.2895 102.583 63.9551 102.583 53.6208 102.559C53.3063 102.559 52.9917 102.316 52.8441 101.952C56.6633 101.523 60.3157 101.332 64.2119 101.147C67.5304 100.979 70.5987 100.811 73.6669 100.638L73.6733 100.632Z" fill="#5F666B"/>
<path d="M107.77 98.1781C105.562 98.89 103.36 99.6077 101.107 100.47C97.3653 101.813 94.6308 100.279 92.1146 97.8887C92.3714 97.5993 92.641 97.4894 93.2636 97.3389C94.5217 97.09 95.4203 96.8759 96.3767 96.8353C97.1791 97.0611 98.0136 97.3389 98.6619 97.1363C100.299 96.627 101.858 95.9035 103.373 95.4058C103.02 95.9903 102.744 96.436 102.167 97.3505C103.258 97.0553 103.791 96.9164 104.561 96.7775C105.896 97.0553 107.655 96.1871 107.764 98.1781H107.77Z" fill="#B3B7BA"/>
<path d="M18.9718 101.321C18.8049 102.102 18.638 102.889 18.4391 103.867C17.0012 103.682 15.5955 103.294 14.254 102.606C14.6006 101.894 14.8894 101.483 15.3965 101.066C16.7316 101.141 17.8485 101.234 18.9654 101.321H18.9718Z" fill="#272C2F"/>
<path d="M63.9615 101.135C60.3092 101.326 56.6569 101.517 52.7606 101.772C52.5167 101.836 52.2664 101.749 52.1444 101.708C52.0096 101.46 51.9904 101.257 52.215 100.863C53.7812 100.661 55.1164 100.574 56.4386 100.638C58.9484 100.759 61.4518 100.962 63.9551 101.135H63.9615Z" fill="#272C2F"/>
<path d="M15.1783 101.078C14.8894 101.489 14.6006 101.9 14.2154 102.432C13.0729 101.871 12.0202 101.182 10.9097 100.348C11.4361 100.267 12.033 100.331 12.983 100.505C13.9523 100.771 14.5685 100.921 15.1847 101.078H15.1783Z" fill="#3E4347"/>
<path d="M39.0243 102.154C40.905 102.021 42.7857 101.882 44.9168 101.836C43.9925 102.148 42.8178 102.374 41.226 102.588C40.2118 102.438 39.6212 102.293 39.0243 102.154Z" fill="#3E4347"/>
<path d="M38.8253 102.154C39.6148 102.293 40.2118 102.438 41.0013 102.6C41.1939 102.75 41.2003 102.883 41.2388 103.109C39.8395 103.19 38.4338 103.179 36.7905 103.127C37.2463 102.779 37.9395 102.467 38.8253 102.154Z" fill="#5F666B"/>
<path d="M92.6153 102.114C91.5241 102.328 90.2403 102.531 88.963 102.727C88.9437 102.519 88.9245 102.311 88.9052 102.096C90.0799 102.096 91.2545 102.096 92.6153 102.108V102.114Z" fill="#5F666B"/>
<path d="M100.883 104.012C100.677 103.81 100.684 103.63 100.658 103.323C101.582 103.132 102.526 103.074 103.476 103.017C103.502 103.167 103.534 103.312 103.559 103.462C102.731 103.653 101.91 103.85 100.876 104.012H100.883Z" fill="#3E4347"/>
<path d="M89.9258 9.94934C90.0157 9.98407 90.0991 10.0188 90.2339 10.1751C92.1146 10.9448 93.9119 11.6972 95.7991 12.2008C97.2497 12.5886 98.7967 12.7043 100.312 12.849C107.347 13.532 109.978 19.0824 110.935 25.1191C111.467 28.4702 111.365 31.9081 111.313 35.566C105.498 36.0638 99.92 36.3011 94.3548 36.44C94.419 36.2143 94.419 36.0869 94.5731 35.9364C95.3176 35.8207 95.8568 35.7339 96.6399 35.6876C98.2896 35.6528 99.6953 35.5776 101.313 35.4908C101.313 30.4728 101.339 25.7094 101.306 20.9461C101.281 17.2014 99.1818 14.9558 95.0866 14.186C93.944 13.9718 92.5704 14.0702 91.6974 13.5204C89.714 12.276 88.8731 11.8998 85.9269 12.1082C84.9576 12.0561 84.213 12.0272 83.5776 11.8477C84.6046 11.5526 85.5482 11.5005 86.4275 11.24C87.6214 10.8927 88.764 10.3892 89.9258 9.95513V9.94934Z" fill="#CBCED0"/>
<path d="M94.3356 36.5324C99.9136 36.2951 105.498 36.0635 111.313 35.7973C113.733 36.0057 115.909 36.2372 118.316 36.596C118.554 36.8391 118.573 36.9607 118.4 37.1574C116.359 37.3542 114.51 37.4758 112.418 37.5857C109.208 37.47 106.236 37.2674 103.264 37.2848C83.4428 37.3716 63.615 37.4989 43.7936 37.6147L43.5496 37.5626C43.5496 37.5626 43.2993 37.5626 42.9078 37.5799C39.0115 37.6725 35.5068 37.7478 31.771 37.7883C29.5116 37.8809 27.4897 38.0082 25.4613 38.1414C22.6627 37.8115 19.8641 37.47 17.059 37.1632C15.9999 37.0475 14.928 37.0243 13.8881 36.7754C14.2925 36.5787 14.6712 36.5613 15.2746 36.596C16.6482 36.4803 17.7844 36.3182 19.158 36.1677C19.9989 36.2719 20.6151 36.4282 21.2249 36.4455C23.9336 36.5208 26.6424 36.5555 29.5116 36.5844C29.8711 36.3819 30.0701 36.1967 30.5258 36.0346C41.4571 36.052 52.1252 36.0404 63.0501 36.0751C71.2213 36.1214 79.1422 36.1504 87.063 36.0983C87.7563 36.0983 88.4431 35.5253 89.2454 35.2996C89.6177 35.3227 89.8809 35.2706 90.1505 35.4269C91.5498 35.9362 92.9427 36.243 94.3292 36.5439L94.3356 36.5324Z" fill="#13171A"/>
<path d="M120.242 17.6123C120.435 22.7518 120.646 27.8972 120.807 33.0483C120.839 34.0033 120.653 34.964 120.396 35.838C120.049 32.4348 119.934 29.1126 119.684 25.7962C119.626 25.038 119.112 24.3087 118.804 23.5621C118.413 20.5698 118.021 17.5834 117.745 14.429C117.944 14.319 118.021 14.3711 118.105 14.429C118.105 14.429 118.291 14.5853 118.451 14.7416C118.804 14.9962 118.997 15.0888 119.189 15.1872C119.189 15.1872 119.164 15.1872 119.164 15.3261C119.35 15.7023 119.542 15.9338 119.729 16.1653C119.729 16.1653 119.703 16.1596 119.703 16.3158C119.889 16.8599 120.082 17.2419 120.268 17.6297C120.268 17.6297 120.248 17.6297 120.248 17.6181L120.242 17.6123Z" fill="#7F878C"/>
<path d="M118.785 23.782C119.106 24.3029 119.619 25.0321 119.677 25.7961C119.928 29.1125 120.049 32.4347 120.21 35.9595C120.21 36.162 120.229 36.1736 120.088 36.2315C119.497 36.5556 119.048 36.816 118.599 37.0823C118.58 36.9607 118.56 36.8334 118.528 36.5267C118.599 32.2321 118.689 28.117 118.791 23.782H118.785Z" fill="#30363A"/>
<path d="M116.782 12.8778C117.142 12.9704 117.354 13.1961 117.54 13.5781C117.225 13.4913 116.93 13.254 116.782 12.8778Z" fill="#555C60"/>
<path d="M116.314 12.4554C116.564 12.3512 116.725 12.4438 116.93 12.6579C116.725 12.739 116.474 12.6927 116.314 12.4554Z" fill="#555C60"/>
<path d="M118.079 14.2496C118.015 14.3653 117.938 14.3132 117.719 14.2206C117.578 14.1801 117.463 13.9602 117.482 13.8386C117.687 13.8386 117.874 13.9602 118.085 14.2496H118.079Z" fill="#555C60"/>
<path d="M118.702 62.8148C118.631 68.51 118.708 74.2109 118.426 79.8945C118.259 83.2688 117.514 86.6199 116.757 90.162C115.396 90.5151 114.298 90.6945 113.066 90.8218C112.655 90.6366 112.385 90.5093 112.129 90.1794C111.955 89.1376 111.769 88.2868 111.589 87.216C111.57 85.0341 111.545 83.0778 111.551 80.9016C111.403 78.8643 111.23 77.0469 111.057 75.0096C111.037 72.9897 111.018 71.1955 111.025 69.1698C110.864 63.2084 110.915 57.4611 110.363 51.7601C110.197 50.0007 108.823 47.5467 107.237 46.8637C104.195 45.5557 100.6 45.2952 97.0058 44.5949C93.5589 44.4733 90.3495 44.3518 86.9539 44.2013C86.4019 44.184 86.0296 44.1897 85.4326 44.1319C83.9242 43.9814 82.6469 43.9004 81.3695 43.8193C81.3695 43.6804 81.3823 43.5415 81.3823 43.4026H94.8234C93.8542 43.0148 93.2508 42.7717 92.6474 42.5287C93.0454 42.5287 93.4434 42.5287 94.0403 42.4997C95.5295 42.4592 96.8197 42.436 98.4308 42.3782C100.138 42.3261 101.525 42.3203 102.911 42.3087C106.673 42.5402 110.46 42.5923 114.176 43.0785C116.185 43.3389 118.605 43.8135 118.432 46.8232C118.393 48.6637 118.548 50.1859 118.58 51.7023C118.657 55.4064 118.669 59.1106 118.708 62.8148H118.702Z" fill="#F1F2F3"/>
<path d="M17.1424 98.1895C17.7265 98.3748 18.1245 98.5484 18.7086 98.9304C18.8948 99.5034 18.8948 99.868 18.6894 100.238C16.5134 99.5323 14.5492 98.8146 12.585 98.0969C11.6992 97.2519 10.807 96.4069 9.82494 95.2494C8.8236 92.1587 7.30875 89.4095 7.1226 86.5908C6.62835 79.0783 6.62193 71.5426 6.57058 64.0127C6.53207 58.0687 5.92228 52.0494 8.49624 46.3253C8.49624 46.3253 8.64387 46.1806 8.90704 46.0996C9.90197 45.816 10.6337 45.6192 11.3655 45.4166C11.0445 45.9723 10.6466 46.5047 10.4091 47.0893C9.61954 49.0224 8.27158 50.9555 8.22665 52.9118C8.0084 63.2314 7.89928 73.5626 8.20739 83.8822C8.38712 89.8088 10.3064 95.2725 17.1424 98.1953V98.1895Z" fill="#4D5458"/>
<path d="M92.4356 42.4649C93.2444 42.7659 93.8477 43.009 94.817 43.4026H81.3759C81.3759 43.5415 81.3631 43.6804 81.3631 43.8193C82.6404 43.9003 83.9178 43.9871 85.4391 44.2765C86.1644 44.398 86.6458 44.317 87.1272 44.2302C90.3366 44.3517 93.5525 44.4733 96.8582 44.6816C96.0366 45 95.1251 45.2373 94.2072 45.4688C88.4046 45.3067 82.6019 45.1447 76.4462 44.7858C66.6126 44.537 57.1319 44.4791 47.4138 44.3865C45.777 44.3575 44.3712 44.3575 42.9719 44.3575C42.9719 44.2013 42.9719 44.0508 42.9719 43.8945H71.3625C71.3625 43.7672 71.3625 43.6399 71.3625 43.5183C62.0102 43.3157 52.658 43.1074 43.2993 42.8354C43.2993 42.7601 43.2993 42.6154 43.2993 42.6154C58.865 42.5517 74.4371 42.4881 90.2981 42.5691C90.7153 42.6559 90.8373 42.5981 90.9593 42.546C91.3829 42.4997 91.8001 42.4534 92.4292 42.4649H92.4356Z" fill="#7F878C"/>
<path d="M43.0618 42.5806C43.3121 42.6154 43.3057 42.76 43.0746 42.87C39.9294 43.2809 37.0152 43.5877 34.1011 43.8887C31.9315 43.9234 29.7683 43.9581 27.3548 43.9639C25.8143 43.6398 24.5241 43.3504 23.2339 43.061C23.2404 42.8874 23.2532 42.7137 23.2596 42.5459C29.7812 42.5459 36.2963 42.5459 43.0682 42.5806H43.0618Z" fill="#9CA1A6"/>
<path d="M11.4553 45.3762C10.6273 45.6135 9.89555 45.8103 8.96482 46.0186C7.95706 45.6656 7.14186 45.3067 6.14052 44.8379C5.95438 44.7222 5.85809 44.5543 5.85809 44.5543C7.07768 44.2302 8.29084 43.9003 9.69657 43.5762C10.5182 43.773 11.1472 43.9755 11.8276 44.4501C11.8276 44.9247 11.7891 45.1215 11.7442 45.3125C11.7442 45.3125 11.5388 45.3414 11.4489 45.3762H11.4553Z" fill="#9CA1A6"/>
<path d="M11.9432 45.3588C11.7955 45.1157 11.834 44.9247 11.9368 44.5833C12.4117 44.6296 12.8354 44.8148 13.2526 45C12.8803 45.1331 12.508 45.2662 11.9432 45.3588Z" fill="#4D5458"/>
<path d="M90.8501 42.5518C90.8437 42.5981 90.7217 42.6559 90.5549 42.6328C90.5099 42.5575 90.741 42.5575 90.8501 42.5518Z" fill="#F1F2F3"/>
<path d="M8.31011 46.3486C5.91588 52.0379 6.52567 58.0572 6.5706 64.0013C6.62195 71.5312 6.62195 79.0726 7.12262 86.5794C7.30877 89.398 8.82362 92.153 9.70942 95.1163C8.67598 93.843 7.27667 92.4887 6.74391 90.9028C5.98007 88.5993 5.53075 86.1337 5.49865 83.726C5.37669 73.6437 5.38953 63.5556 5.53716 53.4733C5.57568 50.9614 5.46014 48.2064 8.31011 46.3428V46.3486Z" fill="#9CA1A6"/>
<path d="M2.94395 52.5009C2.78989 51.4707 2.7578 50.6025 2.77706 49.526C3.15577 49.9022 3.76556 50.4868 3.76556 51.0713C3.79765 62.3864 3.76556 73.6957 3.72705 85.0108C3.72705 85.1613 3.60509 85.306 3.0659 85.4565C3.0659 74.5234 3.0659 63.5961 2.94395 52.5067V52.5009Z" fill="#9CA1A6"/>
<path d="M12.5402 98.288C14.5429 98.8089 16.5134 99.5208 18.8627 100.279C19.8448 100.441 20.4354 100.563 21.0387 100.811C21.0259 101.107 21.0066 101.28 20.981 101.448C20.4482 101.402 19.909 101.35 19.1708 101.309C17.8486 101.228 16.7317 101.141 15.3966 101.06C14.5621 100.916 13.9459 100.759 13.2013 100.516C12.8804 99.7754 12.6878 99.133 12.5338 98.288H12.5402Z" fill="#9CA1A6"/>
<path d="M5.63985 44.5253C5.85809 44.5485 5.95437 44.7105 5.91586 44.8031C5.1135 44.8899 4.34966 44.8842 3.62433 44.6642C4.25338 44.4674 4.83107 44.4848 5.63343 44.5311L5.63985 44.5253Z" fill="#191E21"/>
<path d="M118.868 63.0347C118.657 59.1106 118.644 55.4065 118.567 51.7023C118.535 50.1801 118.381 48.6637 118.419 47.0084C119.035 47.2168 119.517 47.564 119.979 47.8997C120.236 47.6103 120.499 47.3152 120.929 46.9679C121.025 59.7762 120.955 72.6367 120.884 85.717C120.775 86.0701 120.672 86.2032 120.467 86.4174C120.133 85.5955 119.722 84.6984 119.709 83.7955C119.645 77.9614 119.696 72.1273 119.639 66.2933C119.626 65.2804 119.254 64.2675 118.875 63.0405L118.868 63.0347Z" fill="#30363A"/>
<path d="M75.4962 40.173C63.5379 40.2946 51.8299 40.3524 39.8716 40.3987C40.552 40.1209 41.4827 39.6348 42.4134 39.629C57.7096 39.5769 73.0057 39.5942 88.3082 39.5769C89.2839 39.5769 90.2596 39.4438 91.6204 39.2065C92.9619 39.0212 93.9183 38.9923 95.1186 38.9923C98.0521 39.0733 100.742 39.1254 103.437 39.2933C103.437 39.4032 103.457 39.6174 103.457 39.6174C94.22 39.7794 84.9833 39.9473 75.4962 40.173Z" fill="black"/>
<path d="M103.457 39.71C103.457 39.6174 103.438 39.3975 103.688 39.247C107.745 39.1023 111.557 39.1081 115.325 39.1428C115.274 39.166 115.3 39.2701 115.3 39.2701C115.306 39.5132 115.312 39.7505 115.101 40.1152C113.804 40.202 112.732 40.1615 111.66 40.1267C111.217 40.1036 110.781 40.0804 109.876 40.0978C107.443 40.0862 105.479 40.0399 103.508 39.9936C103.508 39.9936 103.47 39.8084 103.463 39.7158L103.457 39.71Z" fill="#30363A"/>
<path d="M118.4 37.1517C119.042 36.816 119.491 36.5498 120.082 36.2141C120.268 36.3646 120.306 36.5845 120.364 36.9665C119.279 37.6726 118.169 38.2109 116.904 38.9691C116.628 39.3221 116.519 39.4495 116.404 39.571C116.134 39.4611 115.858 39.3569 115.441 39.2527C115.293 39.2527 115.274 39.1543 115.357 38.9459C114.516 38.3556 113.586 37.9736 112.655 37.5858C114.504 37.4643 116.359 37.3369 118.4 37.1402V37.1517Z" fill="#7F878C"/>
<path d="M103.322 40.0342C105.472 40.0342 107.436 40.0863 109.651 40.1326C108.637 41.1281 103.611 41.2438 102.706 40.2888C102.706 40.2888 102.815 40.1847 102.885 40.1499C102.963 40.1152 103.052 40.1036 103.322 40.0342Z" fill="#B3B7BA"/>
<path d="M111.692 40.2887C112.719 40.1614 113.791 40.2019 115.094 40.2945C115.068 40.7402 114.696 41.4984 114.581 41.4694C113.605 41.2148 112.681 40.8096 111.699 40.2887H111.692Z" fill="#B3B7BA"/>
<path d="M102.808 42.1176C101.518 42.3144 100.132 42.326 98.5142 42.2044C99.7595 42.025 101.236 41.9787 102.808 42.1176Z" fill="#272C2F"/>
<path d="M116.532 39.5364C116.519 39.4612 116.635 39.3338 116.872 39.1544C116.885 39.2297 116.769 39.357 116.532 39.5364Z" fill="#555C60"/>
<path d="M112.424 37.58C113.592 37.9794 114.523 38.3614 115.409 38.9286C111.557 39.108 107.745 39.0964 103.681 39.1369C100.742 39.1254 98.0521 39.0733 95.0288 38.8302C93.4112 38.5408 92.1339 38.4424 90.8501 38.344C90.2852 38.3324 89.7204 38.3266 88.7255 38.3382C73.4871 38.4482 58.6852 38.535 43.8769 38.616C43.6972 38.3729 43.5239 38.1356 43.5688 37.7479C63.6149 37.4874 83.4427 37.3601 103.264 37.2791C106.236 37.2675 109.208 37.4643 112.417 37.58H112.424Z" fill="#F1F2F3"/>
<path d="M15.0499 36.5382C14.6712 36.5497 14.2989 36.5671 13.7341 36.6134C11.68 36.7986 9.81214 36.9433 7.74527 36.8507C6.78244 34.2346 5.80036 31.8964 5.29327 29.4771C4.36254 25.0726 4.74767 20.8243 7.85439 17.0102C8.59898 16.0957 8.76587 14.8109 9.27938 13.6707C9.31789 13.6707 9.27938 13.6996 9.04188 13.6938C7.80304 13.9137 6.75677 14.1568 5.71691 14.4057C5.56286 14.3131 5.40881 14.2147 5.05577 13.9427C6.38447 13.2829 7.91216 12.8025 9.74153 12.4379C11.3398 13.0977 12.6429 13.6475 13.6057 14.0527C12.4375 14.9961 10.8392 15.9395 9.74795 17.2359C6.57062 21.0153 6.2561 25.5009 6.74393 29.969C7.20609 34.1825 9.73512 35.832 14.729 35.7279C14.8509 35.7394 15.0949 35.751 15.1013 35.8783C15.0884 36.1851 15.0692 36.3587 15.0499 36.5324V36.5382Z" fill="#9CA1A6"/>
<path d="M9.20236 13.694C8.76588 14.811 8.59899 16.1017 7.8544 17.0104C4.74768 20.8245 4.36255 25.0727 5.29328 29.4772C5.80679 31.8965 6.78245 34.2348 7.52062 36.793C6.06996 36.8856 4.63856 36.793 3.00817 36.6483C2.76425 35.9306 2.72574 35.2824 2.9183 34.3621C3.32911 33.928 3.65647 33.7718 3.66931 33.5981C3.88755 29.8129 4.13789 26.0335 4.20207 22.2483C4.21491 21.6637 3.34195 21.0618 2.87337 20.4715C2.87337 20.4715 2.80918 20.2573 2.745 20.1589C3.56019 18.2374 4.43315 16.4142 5.5051 14.4985C6.74394 14.1686 7.79021 13.9255 9.02263 13.694C9.2152 13.7113 9.18952 13.694 9.18952 13.694H9.20236Z" fill="#F1F2F3"/>
<path d="M44.0374 38.7666C58.6917 38.5293 73.4935 38.4425 88.5393 38.4193C88.1542 38.6855 87.5251 39.0675 86.8961 39.0675C73.0121 39.1081 59.1217 39.1023 45.2377 39.0965C44.8911 39.0965 44.5381 38.9749 44.0374 38.7608V38.7666Z" fill="black"/>
<path d="M34.1139 38.6623C33.5362 38.8186 32.9585 39.1022 32.3808 39.1022C23.8437 39.1311 15.3131 39.1195 6.76959 38.616C12.8739 38.616 18.9718 38.616 25.5576 38.5813C28.0288 38.5407 30.0058 38.5292 32.2011 38.5523C32.9778 38.6044 33.549 38.6334 34.1139 38.6565V38.6623Z" fill="black"/>
<path d="M34.3193 38.6276C33.5426 38.6392 32.9713 38.6102 32.201 38.4424C32.0149 38.1356 32.0149 37.9794 32.0085 37.8231C35.5132 37.7478 39.0179 37.6726 42.7922 37.6031C42.7536 39.733 40.9179 38.0546 39.5121 38.6392C37.9588 38.6681 36.874 38.6739 35.7892 38.6797C35.3655 38.6507 34.9419 38.6218 34.3129 38.6276H34.3193Z" fill="#9CA1A6"/>
<path d="M31.7774 37.7768C32.0149 37.9736 32.0085 38.1298 31.9892 38.4077C30.0058 38.535 28.0224 38.5466 25.795 38.5466C25.5511 38.5408 25.4998 38.3324 25.4869 38.2282C27.496 37.9909 29.5244 37.8636 31.7774 37.771V37.7768Z" fill="#7F878C"/>
<path d="M90.8886 38.4597C92.1274 38.4424 93.4112 38.5466 94.7784 38.807C93.9119 38.998 92.9555 39.0212 91.7616 39.0501C91.3251 38.8938 91.1261 38.7318 90.8886 38.4597Z" fill="#8B9296"/>
<path d="M36.1872 40.2541C35.3399 40.4277 34.4477 40.4451 33.3308 40.4451C34.1203 40.3177 35.1281 40.2078 36.1872 40.2541Z" fill="black"/>
<path d="M35.9368 38.8128C36.8804 38.6739 37.9652 38.6681 39.2746 38.6739C38.3632 38.7723 37.2142 38.8591 35.9368 38.8128Z" fill="black"/>
<path d="M32.5734 2.65088C35.449 2.78979 35.7571 5.03544 36.5017 6.08303C35.5068 6.86438 34.8585 7.36791 34.1909 8.03351C33.6196 6.41293 33.074 4.63609 32.5734 2.65667V2.65088Z" fill="#CBCED0"/>
<path d="M24.3701 10.4991C24.4856 10.1981 24.6011 9.89714 24.7873 9.48621C25.8592 9.48621 26.867 9.59039 28.0545 9.80453C28.2984 10.0534 28.3305 10.1923 28.0994 10.5454C26.7001 10.6669 25.5383 10.5801 24.3765 10.4933L24.3701 10.4991Z" fill="#9CA1A6"/>
<path d="M89.7846 9.89717C88.764 10.3833 87.6214 10.8811 86.4275 11.2284C85.5482 11.483 84.6046 11.5409 83.3529 11.8882C76.1445 11.7666 69.2764 11.4541 62.4082 11.0895C61.7727 11.0547 61.1629 10.6496 60.7906 10.3718C62.5879 10.2676 64.1349 10.2155 65.6818 10.1692C72.0044 10.065 78.327 9.96662 84.887 9.89138C86.6329 9.89138 88.1414 9.87402 89.791 9.89717H89.7846Z" fill="#697075"/>
<path d="M91.293 2.95183C92.2623 3.99942 93.315 4.99492 94.1815 6.11196C94.8491 6.96855 95.2791 7.96983 95.8568 9.06951C95.0095 9.25472 94.0531 9.45729 93.2572 9.21999C92.6666 9.04636 92.0697 8.35183 91.8707 7.77884C91.4214 6.51131 91.2224 5.16855 90.9143 3.51903C91.0363 3.10231 91.1646 3.02707 91.2994 2.94604L91.293 2.95183Z" fill="#CBCED0"/>
<path d="M91.2481 2.7956C91.1583 3.02711 91.0235 3.10814 90.7796 3.37438C89.1748 3.35701 89.2647 2.54094 89.9259 1.52808C90.4779 1.85798 90.8437 2.24576 91.2546 2.7956H91.2481Z" fill="#697075"/>
<path d="M120.255 17.456C120.069 17.2361 119.876 16.8483 119.696 16.2985C119.883 16.5184 120.069 16.9062 120.255 17.456Z" fill="#555C60"/>
<path d="M119.703 16.0147C119.536 15.9279 119.343 15.6964 119.157 15.3086C119.331 15.3954 119.504 15.6327 119.703 16.0147Z" fill="#555C60"/>
<path d="M119.099 15.0367C118.99 15.083 118.798 14.9846 118.477 14.782C118.573 14.7473 118.791 14.8226 119.099 15.0367Z" fill="#555C60"/>
<path d="M2.82201 20.6913C3.34194 21.056 4.2149 21.6521 4.20848 22.2367C4.14429 26.0219 3.89396 29.8071 3.67572 33.5865C3.66288 33.7601 3.33552 33.9164 2.95681 34.1537C2.76424 29.7897 2.76424 25.3505 2.82843 20.6855L2.82201 20.6913Z" fill="#9CA1A6"/>
<path d="M60.5403 10.4238C61.1629 10.6553 61.7727 11.0604 62.4082 11.0952C69.2763 11.4598 76.1509 11.7723 83.2438 12.0386C84.213 12.0154 84.9576 12.0386 85.8049 12.2759C84.9383 12.5537 83.9627 12.6926 82.9934 12.6984C76.106 12.7563 69.225 12.791 62.145 12.8026C61.6893 12.7968 61.4325 12.8199 60.9254 12.8257C57.2474 12.8257 53.8262 12.8431 50.1674 12.8257C49.1532 12.8257 48.3701 12.8662 47.3495 12.8894C44.782 12.901 42.4455 12.9357 40.0513 12.8026C35.8341 10.6264 31.694 12.6289 27.2008 12.2585C27.9453 13.2019 28.3562 13.7286 28.6578 14.3942C27.2072 14.9383 25.8721 15.3434 24.3315 15.7196C21.5458 15.9974 20.4032 17.8495 20.14 19.6727C19.4917 24.1929 19.2542 28.7652 19.0938 33.3202C19.0745 33.8816 20.5059 34.4836 21.2505 35.0855C21.2376 35.1086 21.289 35.0913 21.1414 35.236C20.2877 35.5138 19.5816 35.6469 18.6444 35.7569C17.3093 35.7395 16.2053 35.7395 15.1012 35.7395C15.1012 35.7395 14.8573 35.7337 14.7033 35.5543C13.2975 34.3678 12.0394 33.3665 10.8006 32.1569C10.2742 30.5884 9.73507 29.2225 9.18304 27.6771C9.18304 27.1273 9.2023 26.7569 9.4077 26.3633C9.81209 25.8251 10.0239 25.3157 10.2165 24.7196C10.2036 24.627 10.2357 24.4476 10.4219 24.3665C10.8519 23.3305 11.0959 22.3755 11.3269 21.2759C11.3269 20.9286 11.3462 20.7318 11.5516 20.5177C13.1627 19.2154 14.6391 17.9653 15.9934 16.6225C16.7316 15.8932 17.2644 14.9903 17.9961 14.0643C17.2772 13.5839 16.4556 13.2193 15.5698 12.8199C15.788 12.4032 16.0576 11.9112 16.3208 11.4135C16.8792 11.3383 17.4377 11.2572 18.2914 11.3151C19.1002 11.292 19.6137 11.1357 20.1208 10.9794C21.3789 10.8289 22.637 10.6785 24.1325 10.5106C25.5319 10.5801 26.6937 10.6669 28.0352 10.6437C29.0751 10.5801 29.9416 10.6264 31.1676 10.8347C33.3757 10.9273 35.2115 10.8521 37.0473 10.7768C37.0473 10.7768 37.1371 10.6495 37.2719 10.7479C40.3209 10.7363 43.2286 10.6206 46.1428 10.5106C49.5897 10.418 53.0302 10.3254 56.8751 10.3022C58.3579 10.3833 59.4491 10.4006 60.5339 10.4122L60.5403 10.4238Z" fill="#13171A"/>
<path d="M74.9827 8.87264C75.2523 8.95946 75.278 9.04628 75.3165 9.26621C72.2611 9.4167 69.1865 9.42827 65.624 9.38197C62.3697 9.34145 59.6096 9.35882 56.843 9.37039C54.8596 9.34145 52.8826 9.3183 50.6553 9.27779C51.2522 9.12731 52.0995 8.86686 52.9468 8.86686C60.2065 8.84371 67.4727 8.86686 74.9827 8.86686V8.87264Z" fill="black"/>
<path d="M46.0914 10.3312C43.2351 10.6321 40.3209 10.7421 37.2912 10.6842C40.1283 10.389 43.081 10.2675 46.0914 10.3312Z" fill="#9CA1A6"/>
<path d="M56.8495 9.59035C59.6096 9.36462 62.3697 9.34726 65.3801 9.40514C65.7332 9.62507 65.7524 9.77555 65.6818 10.0534C64.1349 10.2212 62.5879 10.2733 60.7907 10.3775C59.4491 10.4122 58.3643 10.4006 57.1062 10.3022C56.9073 10.0765 56.8816 9.93761 56.8559 9.59035H56.8495Z" fill="#9CA1A6"/>
<path d="M36.8547 10.6206C35.2179 10.8579 33.3757 10.9331 31.3474 10.8232C32.9906 10.5743 34.8199 10.5164 36.8547 10.6206Z" fill="#697075"/>
<path d="M10.2293 24.4534C10.2293 24.4534 10.1972 24.6328 10.0303 24.7775C9.64521 25.4142 9.42697 25.9061 9.20873 26.3981C9.19589 26.7627 9.18305 27.1331 9.17021 27.8913C9.70298 29.645 10.2422 31.0052 10.7813 32.3711C12.033 33.3724 13.2911 34.3794 14.5749 35.5486C9.72865 35.8379 7.20605 34.1884 6.74389 29.9691C6.25606 25.501 6.57058 21.0155 9.74791 17.236C10.8391 15.9396 12.4374 14.9962 13.6056 14.0528C12.6428 13.6476 11.3398 13.1036 9.9469 12.4322C11.8661 11.9807 13.8752 11.6451 16.109 11.3615C16.0576 11.9055 15.7945 12.4032 15.5762 12.8142C16.462 13.2135 17.2836 13.5782 17.7972 14.0586C13.7148 14.9325 12.9381 18.0405 11.3719 20.5293C11.359 20.7261 11.3462 20.9229 11.1408 21.328C10.7172 22.5029 10.4797 23.4753 10.2486 24.4418L10.2293 24.4534Z" fill="#484E53"/>
<path d="M19.9411 10.9216C19.6009 11.1358 19.0938 11.292 18.4968 11.3268C18.8627 11.0895 19.3184 10.9737 19.9411 10.9216Z" fill="#484E53"/>
<path d="M2.71929 14.6836C2.85409 14.8631 2.98246 15.0425 3.098 15.2277C3.098 15.2335 2.96963 15.3087 2.89902 15.355C2.84767 15.2161 2.79632 15.0714 2.71929 14.811C2.69362 14.6952 2.70645 14.6836 2.71929 14.6779V14.6836Z" fill="black"/>
<path d="M75.2972 89.8841C75.2972 90.7234 75.2972 91.5626 75.1175 92.6333C74.88 93.3337 74.8158 93.8083 74.7516 94.2771C74.7516 94.497 74.7516 94.7169 74.5655 95.1279C74.1419 95.7877 73.9108 96.2565 73.6733 96.7195C73.3588 97.1189 73.0442 97.5182 72.4088 98.0507C68.8206 98.3401 65.5534 98.5021 62.3055 98.4906C63.3839 96.7369 65.149 95.2263 65.348 93.5594C65.8936 89.0449 65.9578 84.4552 65.8744 79.906C65.7524 73.6147 64.8987 67.3118 65.1555 61.0437C65.3865 55.3774 65.1619 50.0064 61.991 45.0463C66.2274 45.0173 70.2135 45.0173 74.1996 45.0173C74.6682 45.8855 75.1368 46.7537 75.7466 47.9402C76.183 49.0167 76.3435 49.8559 76.7993 50.5331C78.6928 53.3575 78.8918 56.3209 77.9418 59.4231C77.2807 61.5819 76.2601 63.7176 76.0547 65.9112C75.7658 68.9093 76.0932 71.9536 76.1959 74.9806C76.1959 75.0674 76.6645 75.1485 76.9148 75.2295C76.9148 75.9125 76.9148 76.5954 76.7094 77.5215C76.2858 78.1639 75.9006 78.5575 75.8749 78.9626C75.6439 82.6031 75.477 86.2436 75.2908 89.8841H75.2972Z" fill="#555C60"/>
<path d="M94.4062 45.4861C95.1251 45.2373 96.0365 45 97.0892 44.6816C100.594 45.2894 104.182 45.5556 107.225 46.8578C108.816 47.5408 110.184 50.0006 110.351 51.7543C110.903 57.4553 110.851 63.2083 110.806 69.1697C110.036 70.2289 109.227 70.9929 109.003 71.8842C108.341 74.5581 107.892 77.2726 107.398 79.9755C107.314 80.4385 107.488 80.9363 107.443 81.4108C107.18 84.1485 107.064 86.9092 106.531 89.6006C106.217 91.2211 105.241 92.7375 104.484 94.4218C104.086 94.7806 103.771 95.0179 103.45 95.2552C101.858 95.8919 100.305 96.6211 98.6619 97.1304C98.0135 97.333 97.1791 97.0552 96.3832 96.8411C96.3382 96.679 96.3446 96.6674 96.5372 96.6732C97.1791 96.4301 97.6669 96.2218 98.0777 95.9324C102.423 92.8591 102.661 88.2867 102.789 84.0038C103.091 74.1009 103.052 64.1806 102.744 54.272C102.68 52.2 103.38 49.4913 100.626 47.7607C99.676 47.2109 98.848 46.7884 97.9044 46.3312C97.7889 46.2964 97.545 46.2964 97.545 46.2964C97.2946 46.2154 97.0443 46.1286 96.6656 46.0476C95.8889 45.8681 95.2406 45.6887 94.3933 45.4861H94.4062Z" fill="#CBCED0"/>
<path d="M62.2862 98.6585C65.5534 98.5022 68.827 98.346 72.3446 98.1839C72.9351 98.89 73.2881 99.5903 73.654 100.464C70.6051 100.806 67.5368 100.974 64.2183 101.141C61.4646 100.968 58.9613 100.759 56.4515 100.638C55.1292 100.574 53.8005 100.661 52.215 100.707C47.0414 100.823 42.1246 100.91 36.9831 100.794C36.5916 100.638 36.4182 100.673 36.2514 100.713C28.2021 103.104 19.0745 96.4302 18.5738 89.4675C17.6752 77.0006 17.1489 64.5106 19.0873 52.0727C19.5431 49.1499 21.0644 46.6438 24.9157 46.2676C23.818 47.8361 22.6113 49.2136 21.2762 50.6431C21.0708 51.0656 20.9937 51.4303 20.8975 51.9454C20.8525 52.4026 20.8269 52.7036 20.6343 53.1261C20.3968 54.7293 20.3198 56.2168 20.1978 57.9299C20.2106 68.047 20.2748 77.9383 20.2299 88.0032C20.2877 88.7383 20.4481 89.3055 20.6215 90.0637C21.411 93.218 21.886 96.3607 25.9619 97.5704C26.7707 98.0276 27.4704 98.3633 28.3241 98.8495C31.2832 98.9132 34.0818 98.8263 37.0858 98.7685C38.2155 98.9074 39.1463 99.0116 40.3145 99.1389C41.8486 99.0116 43.1452 98.8669 44.6665 98.7164C46.1749 98.5543 47.4651 98.4038 48.8516 98.3575C49.2495 98.5427 49.5448 98.6238 49.9492 98.8148C50.5333 98.8495 51.0083 98.7685 51.6951 98.6874C52.4911 98.6817 53.0623 98.6759 53.8968 98.6759C56.8623 98.6759 59.5839 98.6643 62.2991 98.6527L62.2862 98.6585Z" fill="#484E53"/>
<path d="M76.9212 75.027C76.6645 75.1485 76.1959 75.0733 76.1959 74.9865C76.0932 71.9595 75.7658 68.9151 76.0547 65.917C76.2665 63.7235 77.2871 61.5878 77.9418 59.4289C78.8918 56.3267 78.6928 53.3576 76.7993 50.5389C76.3435 49.8617 76.1831 49.0225 75.8621 48.0791C76.504 48.4727 77.4797 48.9415 77.7749 49.6476C79.2063 53.0682 80.0087 56.4945 79.1614 60.2797C78.0895 65.0662 77.6401 69.9743 76.9212 75.0328V75.027Z" fill="#484E53"/>
<path d="M74.4114 44.9942C70.2135 45.0174 66.2338 45.0174 61.747 45.0231C58.8842 45.1678 56.5221 45.301 53.9225 45.463C52.5809 45.5093 51.4705 45.5383 50.1418 45.544C49.1661 45.4977 48.4215 45.4804 47.6512 45.2894C47.6384 44.8842 47.6512 44.6585 47.6577 44.427C57.1383 44.4849 66.619 44.5428 76.2087 44.7801C75.753 44.9653 75.1881 44.9711 74.4179 45L74.4114 44.9942Z" fill="#13171A"/>
<path d="M75.5026 89.8494C75.4898 86.2436 75.6567 82.6031 75.8878 78.9626C75.9135 78.5517 76.2986 78.1639 76.7222 77.724C76.9212 80.8089 77.0111 83.9343 76.8634 87.0481C76.8185 87.9799 76.106 88.8886 75.5026 89.8436V89.8494Z" fill="#484E53"/>
<path d="M74.8929 94.173C74.8223 93.8084 74.8864 93.3395 75.1239 92.8418C75.2074 93.2354 75.1239 93.6521 74.8929 94.173Z" fill="#484E53"/>
<path d="M73.8594 96.6907C73.9108 96.2508 74.1483 95.7878 74.5719 95.29C74.5206 95.7299 74.2831 96.1929 73.8594 96.6907Z" fill="#484E53"/>
<path d="M28.1636 98.7104C27.464 98.3747 26.7643 98.0391 26.116 97.4892C26.2893 97.2461 26.4113 97.2172 26.7643 97.1998C31.2319 97.223 31.4373 97.0436 31.4373 93.2352C31.4373 92.2629 31.4629 91.2847 31.4244 90.3124C31.2575 86.0526 31.0136 81.787 30.9109 77.5272C30.8146 73.4642 31.0778 69.3896 30.8082 65.3439C30.3653 58.8327 29.3511 52.3388 31.142 45.8623C31.97 45.7523 32.7981 45.6366 33.9791 45.7176C35.5261 45.9086 36.7136 45.9028 37.9331 46.0938C37.946 47.7838 37.8304 49.2944 37.9396 50.7877C38.2477 55.0417 38.8254 59.2899 38.9666 63.5497C39.2169 71.2764 39.4929 79.0089 39.2297 86.7297C39.1078 90.3703 40.9757 94.3175 37.8176 97.8133C37.4196 98.0101 37.1179 98.0911 36.6173 98.149C33.6646 98.3227 30.9173 98.5194 28.1701 98.7104H28.1636Z" fill="#9CA1A6"/>
<path d="M26.5268 97.1883C26.4049 97.2172 26.2893 97.2461 26.0069 97.3677C21.8796 96.3722 21.4046 93.2294 20.7627 89.9767C20.7049 89.0738 20.5188 88.4603 20.3262 87.8468C20.2684 77.9555 20.2107 68.0584 20.384 57.8719C20.6728 56.0604 20.7306 54.5382 20.7884 53.0218C20.814 52.7208 20.8397 52.4141 21.0772 51.8758C21.3211 51.2912 21.3596 50.944 21.3917 50.5967C22.5985 49.2192 23.7988 47.8475 25.0954 46.3311C27.0275 45.9607 28.8697 45.735 30.6541 45.7234C29.6656 46.3716 28.17 46.6205 27.9133 47.2687C27.0403 49.5086 26.0647 51.8874 26.0968 54.2025C26.2123 62.4385 26.713 70.6687 27.0853 78.8989C27.2329 82.1227 27.6116 85.3523 27.5474 88.5703C27.4961 91.4526 28.7285 94.5027 26.5204 97.1883H26.5268Z" fill="#CBCED0"/>
<path d="M37.9138 97.6919C40.9756 94.3119 39.1077 90.3646 39.2297 86.7241C39.4929 79.009 39.2169 71.2707 38.9665 63.5441C38.8253 59.2843 38.2476 55.0418 37.9395 50.782C37.8304 49.2888 37.9459 47.7782 38.0358 46.0534C38.2348 45.764 38.3375 45.6772 38.4017 45.5557C38.9986 45.5267 39.5956 45.4978 40.3851 45.4862C40.5841 45.4978 40.5905 45.573 40.6611 45.7409C41.2388 46.6611 42.1567 47.402 42.1952 48.1775C42.4905 54.4457 42.6124 60.7196 42.805 66.9878C42.9462 71.508 43.2351 76.0341 43.2607 80.5543C43.2864 84.6347 42.8949 88.7151 42.959 92.7897C43.0232 96.5517 42.0861 97.6225 37.9202 97.6919H37.9138Z" fill="#8B9296"/>
<path d="M26.7643 97.1998C28.7349 94.5027 27.5025 91.4468 27.5538 88.5645C27.6116 85.3465 27.2329 82.1169 27.0917 78.8931C26.7194 70.6629 26.2123 62.4327 26.1032 54.1967C26.0711 51.8816 27.0532 49.5028 27.9197 47.2629C28.1701 46.6147 29.6656 46.3658 30.8467 45.8623C31.0971 45.7928 31.1099 45.8276 31.1291 45.8392C29.3575 52.3215 30.3717 58.8211 30.8146 65.3324C31.0906 69.378 30.8275 73.4584 30.9173 77.5156C31.02 81.7812 31.2639 86.041 31.4308 90.3008C31.4693 91.2732 31.4437 92.2513 31.4437 93.2237C31.4437 97.0262 31.2383 97.2114 26.7707 97.1883L26.7643 97.1998Z" fill="#B3B7BA"/>
<path d="M47.4202 44.3865C47.6449 44.647 47.6384 44.8785 47.4202 45.3068C46.2776 45.5267 45.3469 45.5556 44.1787 45.5556C42.8243 45.5441 41.7138 45.5556 40.597 45.573C40.597 45.573 40.5905 45.5036 40.6162 45.4746C39.9615 45.1216 39.3196 44.6238 38.6007 44.5081C37.2206 44.2881 35.8021 44.2939 34.2551 44.045C37.0217 43.582 39.9358 43.2811 43.0875 42.9396C52.6772 43.1074 62.0295 43.31 71.3818 43.5126C71.3818 43.6399 71.3818 43.7672 71.3818 43.8888H42.9912C42.9912 44.045 42.9912 44.1955 42.9912 44.3518C44.3905 44.3518 45.7962 44.3518 47.433 44.3807L47.4202 44.3865Z" fill="#272C2F"/>
<path d="M35.9561 102.907C34.3065 103.074 32.5862 103.057 30.6477 103.022C31.2254 101.199 33.3757 101.089 35.9561 102.907Z" fill="#3E4347"/>
<path d="M21.0323 100.69C20.4353 100.568 19.8448 100.447 19.0745 100.279C18.9012 99.868 18.9012 99.5034 18.8691 98.9594C19.7678 99.2603 20.6985 99.7407 21.5073 100.412C21.2698 100.632 21.1478 100.661 21.0323 100.69Z" fill="#272C2F"/>
<path d="M21.0387 100.817C21.1478 100.661 21.2633 100.632 21.5586 100.568C22.5856 100.777 23.4393 101.026 24.338 101.442C23.4072 101.61 22.4251 101.61 21.212 101.529C21.0002 101.286 21.0258 101.112 21.0322 100.817H21.0387Z" fill="#3E4347"/>
<path d="M23.0157 45.4398C21.7511 45.4398 20.6985 45.4398 19.6393 45.4398C19.6393 45.3299 19.6393 45.2199 19.6393 45.1157H24.2417C24.2417 45.1968 24.2481 45.2778 24.2545 45.3588C23.9143 45.3878 23.5677 45.4167 23.0157 45.4456V45.4398Z" fill="#272C2F"/>
<path d="M38.1642 45.5383C38.3375 45.683 38.2412 45.7698 38.0101 45.8682C36.7199 45.903 35.5324 45.9087 34.0882 45.903C35.1987 45.7698 36.5659 45.6425 38.1642 45.5383Z" fill="#CBCED0"/>
<path d="M36.3798 100.742C36.4119 100.678 36.5852 100.638 36.7713 100.713C36.7007 100.806 36.6108 100.783 36.3798 100.742Z" fill="#4D5458"/>
<path d="M98.0392 46.3659C98.8673 46.7885 99.6953 47.211 100.645 47.9692C100.941 49.7402 101.274 51.1814 101.281 52.6167C101.313 63.4746 101.294 74.3383 101.255 85.1961C101.255 86.2379 101.268 87.3781 100.825 88.2926C99.4514 91.1286 97.8659 93.8836 96.3575 96.6675C96.3575 96.6675 96.3511 96.6791 96.3447 96.6675C95.4332 96.8701 94.5345 97.0784 93.4241 97.2926C94.2714 96.2392 95.3176 95.18 96.595 93.9241C97.3845 92.9286 98.2896 92.1762 98.4436 91.3196C98.9892 88.2173 99.5669 85.0804 99.6183 81.9492C99.7723 72.8566 99.798 63.7524 99.599 54.6598C99.5412 51.8817 98.5848 49.1209 98.0392 46.3544V46.3659Z" fill="#757B81"/>
<path d="M97.9237 46.3312C98.5848 49.1325 99.5348 51.899 99.599 54.6714C99.798 63.764 99.7723 72.8624 99.6182 81.9607C99.5669 85.0919 98.9892 88.2289 98.4436 91.3311C98.2895 92.1877 97.3845 92.9401 96.6335 93.7736C96.9801 89.9826 97.8659 86.1742 97.975 82.3369C98.2125 74.0315 98.097 65.7202 98.0264 57.4148C97.9943 53.8669 97.699 50.319 97.545 46.5338C97.5642 46.2965 97.8081 46.2907 97.9237 46.3312Z" fill="#697075"/>
<path d="M103.38 95.4C103.771 95.0238 104.092 94.7865 104.676 94.4045C107.25 92.6335 109.381 90.4399 112.803 92.1647C112.86 92.1936 113.059 91.9795 113.374 91.8695C113.997 92.101 114.446 92.3441 114.889 92.5872C114.337 92.8708 113.785 93.1486 112.828 93.4264C109.728 94.5377 107.032 95.6547 104.336 96.7717C103.803 96.9164 103.264 97.0553 102.173 97.3505C102.751 96.4303 103.027 95.9904 103.38 95.4058V95.4Z" fill="#9CA1A6"/>
<path d="M104.574 96.7716C107.038 95.6488 109.734 94.5317 112.649 93.4841C111.878 94.7632 110.89 95.9729 109.651 97.1594C109.349 97.1073 109.304 97.0726 109.253 97.0436C109.33 97.1304 109.401 97.2115 109.478 97.2983C109.022 97.5819 108.573 97.8655 107.944 98.1607C107.667 96.1754 105.909 97.0436 104.574 96.7658V96.7716Z" fill="#5F666B"/>
<path d="M115.069 92.6044C114.446 92.344 114.003 92.1067 113.38 91.7016C113.207 91.3196 113.207 91.0996 113.213 90.8739C114.305 90.6945 115.402 90.5151 116.692 90.3414C116.763 90.5787 116.641 90.8102 116.449 91.3022C116.23 91.852 116.076 92.1472 115.922 92.4424C115.698 92.5003 115.473 92.5639 115.075 92.6044H115.069Z" fill="#CBCED0"/>
<path d="M115.929 92.616C116.07 92.153 116.224 91.8578 116.429 91.4526C116.615 91.9562 116.75 92.5755 116.879 93.189C116.564 93.0558 116.25 92.9169 115.929 92.616Z" fill="#5F666B"/>
<path d="M90.1505 35.2071C89.8873 35.2592 89.6241 35.3113 88.9758 35.2881C83.9819 35.1955 79.3732 35.1782 74.7581 34.9814C73.853 33.355 72.4023 31.9717 72.1648 30.438C71.3047 24.8354 70.5986 19.1634 73.378 13.6882C78.0253 14.0875 82.5826 12.7795 86.8319 14.6489C91.6717 16.773 94.7207 19.5049 94.0788 24.8065C93.6487 28.3659 91.4599 32.7994 96.396 35.6412C95.8568 35.728 95.3176 35.8148 94.4383 35.7396C92.7822 35.456 91.4663 35.3286 90.1505 35.2071Z" fill="#4D5458"/>
<path d="M96.6463 35.6817C91.4663 32.7994 93.6552 28.3659 94.0852 24.8065C94.7207 19.5106 91.6717 16.773 86.8383 14.6489C82.5826 12.7795 78.0317 14.0875 73.1277 13.6881C69.9247 13.6881 67.2223 13.7576 64.5328 13.6592C63.7947 13.6303 63.0757 13.1267 62.344 12.8373C69.2314 12.7968 76.1124 12.7621 82.9999 12.7042C83.9755 12.6984 84.9448 12.5595 86.036 12.3049C88.8795 11.8939 89.7204 12.2701 91.7038 13.5145C92.5832 14.0644 93.9504 13.966 95.093 14.1801C99.1882 14.9557 101.281 17.1955 101.313 20.9402C101.351 25.7036 101.319 30.4669 101.319 35.4849C99.7081 35.5717 98.296 35.647 96.6463 35.6817Z" fill="#697075"/>
<path d="M90.1569 35.4154C91.4663 35.3286 92.7822 35.456 94.2328 35.7685C94.419 36.0868 94.419 36.2141 94.3548 36.4341C92.9426 36.2257 91.5562 35.9248 90.1569 35.4096V35.4154Z" fill="#757B81"/>
<path d="M24.5369 15.7486C25.872 15.3434 27.2072 14.9383 28.8953 14.3769C31.5977 14.0585 33.947 13.8965 36.277 13.9081C35.5196 14.6199 34.8713 15.3492 34.0304 15.6617C31.7838 16.4952 30.9429 18.0637 30.9173 20.0605C30.898 21.4264 31.0392 22.8039 31.251 24.1582C31.7966 27.7119 32.4129 31.2598 33.0162 34.8887C38.055 36.0058 39.0114 35.2649 37.9716 30.8315C37.9331 30.6752 37.9523 30.5074 38.1385 30.3743C38.7226 31.0862 39.4929 31.8038 39.4287 32.4463C39.1398 35.1665 40.8536 35.427 43.1452 35.2071C43.755 35.1492 44.384 35.1839 45.2506 35.1781C49.84 35.1955 54.1792 35.2013 58.7558 35.2186C60.1038 35.2186 61.2142 35.2186 62.4467 35.236C62.5622 35.2476 62.7997 35.2591 62.8125 35.3865C62.8254 35.6874 62.8254 35.8611 62.8254 36.0347C52.1508 36.0405 41.4827 36.0521 30.4294 35.9363C29.7234 35.8148 29.4024 35.8148 28.844 35.8263C26.1737 35.5948 23.741 35.3517 21.3018 35.1087C21.3018 35.1087 21.2505 35.1202 21.212 34.8887C21.1478 31.9833 21.1991 29.3035 21.09 26.6354C20.9231 22.6534 21.4751 18.8855 24.5562 15.7601L24.5369 15.7486Z" fill="#8B9296"/>
<path d="M63.0565 36.0636C62.8061 35.8494 62.7997 35.6758 63.0308 35.3575C64.2055 35.2012 65.1554 35.1896 66.3558 35.1781C69.3277 35.1723 72.0429 35.1607 74.7645 35.1549C79.3732 35.1723 83.9819 35.1896 88.8667 35.207C88.4559 35.5138 87.7626 36.081 87.0694 36.0867C79.1485 36.1446 71.2277 36.1099 63.0565 36.0636Z" fill="#757B81"/>
<path d="M21.1349 35.2419C23.7217 35.3403 26.1545 35.5834 28.8761 35.948C29.2291 36.2432 29.2997 36.4168 29.3639 36.5904C26.6551 36.5383 23.9464 36.5036 21.2376 36.4284C20.6214 36.411 20.0116 36.2489 19.1579 36.058C18.914 35.9596 18.8755 35.7801 18.8755 35.7801C19.5816 35.647 20.2876 35.5139 21.1413 35.2361L21.1349 35.2419Z" fill="#272C2F"/>
<path d="M18.638 35.7627C18.8691 35.7858 18.9141 35.9653 18.9205 36.0521C17.7908 36.3009 16.6482 36.463 15.281 36.5788C15.0692 36.3588 15.0884 36.1852 15.1013 35.8784C16.1989 35.7453 17.3029 35.7395 18.638 35.7627Z" fill="#484E53"/>
<path d="M29.518 36.573C29.2933 36.4167 29.2227 36.2431 29.1072 35.9363C29.3832 35.8032 29.7041 35.809 30.1535 35.9074C30.0764 36.1852 29.8774 36.3704 29.518 36.573Z" fill="#757B81"/>
<path d="M113.066 90.8218C113.201 91.0996 113.201 91.3195 113.194 91.7073C113.059 91.9736 112.854 92.1935 112.796 92.1646C109.375 90.4398 107.25 92.6276 104.747 94.2771C105.241 92.7376 106.217 91.2212 106.531 89.6006C107.058 86.9035 107.173 84.1427 107.443 81.4109C107.488 80.9363 107.314 80.4385 107.398 79.9755C107.892 77.2726 108.342 74.5524 109.003 71.8842C109.221 70.9987 110.036 70.2289 110.781 69.4012C111.005 71.1897 111.025 72.9839 110.883 75.1485C110.716 77.4115 109.471 79.4546 111.506 81.1215C111.532 83.0778 111.551 85.034 111.423 87.3376C111.545 88.5819 111.827 89.479 112.103 90.3761C112.373 90.5035 112.642 90.6366 113.053 90.8218H113.066Z" fill="#B3B7BA"/>
<path d="M111.544 80.9015C109.478 79.4603 110.723 77.4172 110.89 75.3741C111.224 77.0468 111.397 78.8642 111.544 80.9015Z" fill="#CBCED0"/>
<path d="M112.129 90.1793C111.84 89.479 111.564 88.5819 111.435 87.5632C111.769 88.2867 111.955 89.1317 112.129 90.1793Z" fill="#CBCED0"/>
<path d="M86.9475 44.2014C86.6458 44.3171 86.1644 44.3982 85.6701 44.3403C86.0231 44.1898 86.3954 44.1782 86.9475 44.2014Z" fill="#555C60"/>
<path d="M9.22803 13.7171C9.27296 13.6998 9.31147 13.6766 9.27296 13.6766C9.19593 13.694 9.21519 13.7114 9.22803 13.7171Z" fill="#F1F2F3"/>
<path d="M66.1054 35.1782C65.1554 35.1897 64.2119 35.2013 63.0244 35.2245C62.7869 35.2418 62.5494 35.2245 62.4082 35.0393C61.195 31.966 59.8535 29.1357 59.1346 26.184C58.2873 22.7287 58.0305 19.1576 57.4015 15.656C57.2731 14.9499 56.6119 14.3248 56.1947 13.6592C55.8481 13.746 55.5079 13.8329 55.1613 13.9197C55.3539 17.3171 55.2768 20.7435 55.816 24.0946C56.4194 27.8335 57.5876 31.4971 58.5119 35.1955C54.1728 35.184 49.8401 35.1782 45.2442 34.9467C44.7371 32.8225 44.2749 30.9126 44.2749 29.0026C44.2878 24.0714 41.855 18.8161 46.4316 14.4174C46.5857 14.2669 46.56 13.9544 46.7911 13.7171C47.2083 13.7055 47.4458 13.6997 47.8887 13.694C48.8644 13.4161 49.6347 13.1325 50.4049 12.8547C53.8326 12.8374 57.2538 12.82 60.8997 12.9763C60.9768 14.0007 60.5531 14.8978 60.7393 15.6792C61.5224 19.0419 63.0372 22.3467 63.1977 25.7152C63.3325 28.4123 63.7882 30.7042 65.4186 32.9094C65.8743 33.5287 65.8936 34.4026 66.1183 35.1666L66.1054 35.1782Z" fill="#697075"/>
<path d="M66.3557 35.1781C65.8872 34.4199 65.8615 33.5402 65.4058 32.9209C63.7754 30.7158 63.3196 28.4238 63.1848 25.7267C63.0179 22.3582 61.5031 19.0534 60.7264 15.6907C60.5467 14.9094 60.9639 14.0065 61.1372 13.0052C61.4261 12.8258 61.6892 12.8026 62.1386 12.8084C63.0629 13.1267 63.7818 13.6303 64.52 13.6592C67.2159 13.7576 69.9118 13.6939 72.8645 13.6881C70.5922 19.1634 71.3047 24.8296 72.1584 30.4379C72.3959 31.9717 73.8465 33.355 74.7516 34.9813C72.0428 35.1666 69.3213 35.1723 66.3493 35.1781H66.3557Z" fill="#555C60"/>
<path d="M24.3251 15.7197C21.4495 18.8741 20.8975 22.6419 21.0644 26.6239C21.1799 29.2921 21.1285 31.966 21.2056 34.8541C20.4995 34.4837 19.0681 33.8818 19.0874 33.3203C19.2542 28.7596 19.4917 24.1872 20.1336 19.6728C20.3968 17.8496 21.5394 15.9975 24.3251 15.7197Z" fill="#30363A"/>
<path d="M36.2963 13.7344C33.947 13.8964 31.5977 14.0527 29.0109 14.2321C28.3562 13.7286 27.9454 13.2019 27.2008 12.2585C31.694 12.6289 35.8342 10.6264 39.8459 12.8662C38.9088 13.2656 38.1129 13.4392 37.1436 13.636C36.7456 13.6823 36.521 13.7112 36.2963 13.7402V13.7344Z" fill="#30363A"/>
<path d="M11.5452 20.5234C12.9253 18.052 13.702 14.944 17.6752 14.1742C17.2516 14.9961 16.7252 15.8932 15.9871 16.6282C14.6327 17.971 13.1564 19.2211 11.5452 20.5234Z" fill="#191E21"/>
<path d="M37.3105 13.6128C38.1064 13.4392 38.9088 13.2597 39.9037 13.0224C42.4391 12.9298 44.7692 12.9009 47.356 13.0224C47.6256 13.3523 47.6448 13.526 47.6641 13.7054C47.4266 13.7054 47.1891 13.717 46.5344 13.717C44.0888 13.5665 42.1246 13.6244 40.5969 14.9729C39.4672 14.3999 38.3889 14.0064 37.3105 13.6128Z" fill="#8B9296"/>
<path d="M10.7942 32.1627C10.2422 31.0052 9.70298 29.645 9.17664 28.0765C9.72866 29.2341 10.2678 30.5942 10.7942 32.1627Z" fill="#191E21"/>
<path d="M10.4219 24.3724C10.4668 23.4869 10.7043 22.5145 11.1344 21.4901C11.0894 22.3872 10.8519 23.3364 10.4219 24.3724Z" fill="#191E21"/>
<path d="M47.8823 13.7055C47.6577 13.5261 47.6384 13.3525 47.5999 13.04C48.3702 12.8663 49.1469 12.8316 50.161 12.8258C49.6219 13.1441 48.8516 13.4219 47.8759 13.6998L47.8823 13.7055Z" fill="#5F666B"/>
<path d="M9.40771 26.369C9.43339 25.906 9.65163 25.414 10.0496 24.87C10.0175 25.3214 9.8121 25.8308 9.40771 26.369Z" fill="#191E21"/>
<path d="M54.1599 45.4399C56.5221 45.301 58.8842 45.1621 61.4967 45.0521C65.1747 50.0065 65.3929 55.3775 65.1618 61.0437C64.9051 67.3119 65.7652 73.6148 65.8808 79.9061C65.9642 84.4611 65.9 89.045 65.3544 93.5595C65.1554 95.2263 63.3902 96.7369 62.3119 98.4906C59.571 98.6701 56.8558 98.6758 53.916 98.5138C54.8532 96.9569 56.6954 95.7009 57.0356 94.1672C57.7609 90.9144 59.3143 87.8759 58.6981 84.2238C57.9342 79.7325 58.6403 75.0502 58.4734 70.4604C58.2295 63.9376 57.9342 57.4032 57.3052 50.9036C57.1126 48.9126 57.7031 46.0708 54.1599 45.4399Z" fill="#5F666B"/>
<path d="M96.5437 96.6732C97.8596 93.8835 99.445 91.1343 100.819 88.2983C101.262 87.3838 101.242 86.2379 101.249 85.2019C101.287 74.344 101.306 63.4803 101.274 52.6225C101.274 51.1813 100.941 49.7402 100.761 48.0964C103.399 49.4971 102.699 52.2058 102.764 54.2778C103.072 64.1807 103.11 74.1009 102.808 84.0096C102.674 88.2925 102.443 92.8649 98.0971 95.9382C97.6863 96.2276 97.1984 96.4359 96.5565 96.679L96.5437 96.6732Z" fill="#B3B7BA"/>
<path d="M44.4097 45.5787C45.3405 45.5556 46.2712 45.5266 47.4394 45.4803C48.4215 45.4803 49.1725 45.4977 50.1803 45.7176C50.9634 48.6868 51.5282 51.4475 51.984 54.2257C52.2086 55.58 52.2664 56.9575 52.337 58.3292C52.5938 63.1562 52.889 67.9774 53.0431 72.8044C53.1779 77.0411 53.4025 81.2951 53.1201 85.5202C52.8248 89.861 54.5066 94.8732 48.9928 97.8423C48.8644 97.9118 48.8259 98.1201 48.7425 98.2648C47.4523 98.4211 46.1685 98.5716 44.5959 98.6179C44.1722 98.398 44.0246 98.2938 43.9091 98.0217C44.9938 96.0597 46.6563 94.3407 46.958 92.4481C47.4587 89.2996 47.1442 86.0353 47.0671 82.8173C46.9644 78.4417 46.7462 74.0604 46.5986 69.6848C46.3932 63.5035 46.3097 57.3163 45.9374 51.1408C45.8283 49.2713 44.9361 47.4366 44.4097 45.5845V45.5787Z" fill="#757B81"/>
<path d="M48.8388 98.369C48.8195 98.1143 48.858 97.906 48.9864 97.8365C54.5002 94.8674 52.8184 89.8552 53.1137 85.5143C53.4026 81.295 53.1779 77.0352 53.0367 72.7986C52.8826 67.9716 52.5874 63.1504 52.3306 58.3234C52.26 56.9517 52.2022 55.5742 51.9776 54.2198C51.5218 51.4417 50.9506 48.6809 50.3921 45.735C51.4641 45.5324 52.5681 45.5035 53.9096 45.4572C57.6839 46.0707 57.0998 48.9125 57.2924 50.9034C57.9214 57.4031 58.2167 63.9375 58.4606 70.4603C58.6275 75.05 57.9278 79.7323 58.6853 84.2237C59.3015 87.8757 57.7481 90.9143 57.0228 94.1671C56.6826 95.7008 54.8404 96.9568 53.6529 98.5079C53.0431 98.6815 52.4718 98.6873 51.5732 98.5715C50.7772 98.5368 50.2958 98.6236 49.8208 98.7104C49.5256 98.6294 49.2303 98.5542 48.8323 98.369H48.8388Z" fill="#697075"/>
<path d="M44.1722 45.5613C44.9425 47.4365 45.8283 49.2655 45.9374 51.1407C46.3097 57.3162 46.3867 63.5034 46.5986 69.6847C46.7462 74.0603 46.958 78.4358 47.0671 82.8172C47.1442 86.0294 47.4587 89.2937 46.958 92.448C46.6563 94.3406 44.9938 96.0596 43.6844 98.0216C42.3043 98.5078 41.1875 98.8204 40.0706 99.1387C39.1398 99.0287 38.2091 98.9245 37.0601 98.6409C36.8355 98.3689 36.8226 98.2705 36.8162 98.1721C37.1179 98.0911 37.4196 98.0101 37.8176 97.8133C42.0861 97.6281 43.0168 96.5574 42.9591 92.8011C42.8949 88.7265 43.2864 84.6461 43.2608 80.5657C43.2351 76.0397 42.9462 71.5194 42.805 66.9992C42.606 60.7252 42.4905 54.4571 42.1952 48.1889C42.1567 47.4134 41.2388 46.6783 40.6611 45.7523C41.7074 45.5729 42.8243 45.5613 44.1722 45.5671V45.5613Z" fill="#7F878C"/>
<path d="M36.6108 98.1434C36.8226 98.2591 36.829 98.3575 36.8547 98.6006C34.0689 98.8321 31.2703 98.9189 28.3112 98.8553C30.9044 98.508 33.6581 98.317 36.6108 98.1376V98.1434Z" fill="#8B9296"/>
<path d="M20.6279 53.1376C20.737 54.5382 20.6793 56.0604 20.4289 57.652C20.3134 56.234 20.3904 54.7466 20.6279 53.1376Z" fill="#9CA1A6"/>
<path d="M40.3016 99.1504C41.1874 98.8147 42.3043 98.5022 43.6459 98.1838C44.0182 98.288 44.1658 98.3922 44.3712 98.6179C43.1323 98.8784 41.8293 99.0231 40.3016 99.1504Z" fill="#697075"/>
<path d="M20.2299 88.0146C20.5188 88.4603 20.7049 89.0738 20.7498 89.7857C20.4482 89.3169 20.2877 88.7497 20.2299 88.0146Z" fill="#9CA1A6"/>
<path d="M49.9363 98.8263C50.3086 98.6295 50.7836 98.5427 51.3677 98.5774C50.9954 98.78 50.5205 98.8552 49.9363 98.8263Z" fill="#5F666B"/>
<path d="M21.2634 50.6545C21.3596 50.9497 21.3211 51.297 21.0965 51.7253C20.9809 51.4417 21.058 51.077 21.2634 50.6545Z" fill="#9CA1A6"/>
<path d="M109.478 97.281C109.407 97.2173 109.33 97.1305 109.253 97.0437C109.298 97.0726 109.349 97.1074 109.458 97.2C109.516 97.2636 109.478 97.2636 109.478 97.281Z" fill="#9CA1A6"/>
<path d="M37.1436 13.6302C38.3953 14.0064 39.4736 14.4 40.4108 14.9961C39.6598 15.8469 39.05 16.4893 38.2733 17.1607C37.8689 17.479 37.625 17.7742 37.3811 18.243C37.3747 18.6424 37.3683 18.8681 37.2206 19.2327C37.349 20.5639 37.625 21.7678 37.901 23.1742C37.901 24.2334 37.901 25.0842 37.7598 26.0623C37.7149 27.2314 37.8047 28.2675 37.9074 29.4771C37.9139 29.8765 37.9203 30.1022 37.9203 30.3337C37.9267 30.4957 37.9203 30.6636 37.9524 30.8199C38.9986 35.2533 38.0358 35.9941 32.997 34.8771C32.3936 31.2482 31.7774 27.706 31.2318 24.1466C31.0264 22.7922 30.8788 21.4147 30.8981 20.0488C30.9301 18.052 31.7646 16.4835 34.0112 15.6501C34.8521 15.3376 35.5004 14.6083 36.2578 13.8964C36.5017 13.6996 36.7328 13.6707 37.1243 13.6244L37.1436 13.6302Z" fill="#7F878C"/>
<path d="M37.3683 19.0997C37.3683 18.874 37.3811 18.6425 37.5544 18.2257C37.9652 17.7396 38.2027 17.4386 38.4402 17.1376C39.05 16.4894 39.6598 15.847 40.4557 15.1756C42.1246 13.6245 44.0888 13.5666 46.3547 13.7229C46.5408 13.9659 46.5729 14.2785 46.4124 14.429C41.8358 18.8277 44.2685 24.083 44.2557 29.0142C44.2557 30.9241 44.7114 32.8283 44.9682 34.9524C44.352 35.1723 43.7293 35.1376 43.1195 35.2013C40.8344 35.4212 39.1206 35.1666 39.403 32.4405C39.4736 31.7981 38.697 31.0862 38.1128 30.3685C37.9139 30.108 37.9074 29.8823 38.0487 29.3556C38.0936 28.0187 37.9973 26.9769 37.8946 25.9351C37.8946 25.0843 37.8946 24.2392 37.8946 22.9659C37.7149 21.3974 37.5351 20.2457 37.349 19.0939L37.3683 19.0997Z" fill="#757B81"/>
<path d="M58.7366 35.2071C57.5748 31.5087 56.4065 27.8392 55.8032 24.1061C55.264 20.755 55.341 17.3286 55.1484 13.9312C55.4951 13.8444 55.8353 13.7576 56.1819 13.6708C56.5991 14.3364 57.2602 14.9615 57.3886 15.6676C58.0241 19.1692 58.2808 22.7402 59.1217 26.1955C59.847 29.1473 61.1886 31.9775 62.2798 35.0392C61.195 35.2187 60.0845 35.2187 58.7366 35.2129V35.2071Z" fill="#5F666B"/>
<path d="M37.2206 19.2328C37.5479 20.2456 37.7277 21.3974 37.901 22.7575C37.625 21.7678 37.349 20.5698 37.2206 19.2328Z" fill="#8B9296"/>
<path d="M37.7662 26.0624C38.0101 26.9768 38.1064 28.0186 38.0551 29.182C37.8111 28.2675 37.7149 27.2257 37.7662 26.0624Z" fill="#8B9296"/>
<path d="M38.2798 17.1609C38.2027 17.4387 37.9652 17.7397 37.5609 18.058C37.6315 17.7744 37.8754 17.4792 38.2798 17.1609Z" fill="#8B9296"/>
</svg>
