<svg width="123" height="107" viewBox="0 0 123 107" fill="none" xmlns="http://www.w3.org/2000/svg">
<path d="M69.5327 33.3779C69.1396 33.991 68.7466 34.5985 68.1963 35.4623C69.4372 37.1288 67.9099 38.4218 66.405 39.6312C66.3825 39.1408 66.5285 38.7841 66.6745 38.2713C66.4555 37.8366 66.2365 37.5579 66.0232 37.2848C66.1018 37.6582 66.1804 38.0317 66.1916 38.5611C66.0007 39.085 65.8828 39.4529 65.7649 39.8151C65.7649 39.8151 65.748 39.7873 65.6245 39.6591C64.2431 40.5397 62.9853 41.554 61.6545 42.5684C61.4187 42.691 61.3962 42.8136 61.3232 42.9808C61.0818 43.2037 61.0256 43.3876 60.9975 43.566C61.0256 43.5604 61.0144 43.5047 60.874 43.3486C54.0571 46.4251 46.9763 47.5231 39.6147 47.1496C40.2773 47.3391 40.9399 47.5286 41.4958 47.8519C40.6591 48.3312 39.9291 48.6767 39.0644 49C37.7392 48.0971 36.5544 47.2221 35.364 46.3471L34.999 46.8208C35.291 47.1441 35.583 47.4673 35.8806 47.7906C35.8862 47.7906 35.8918 47.7739 35.7289 47.7627C35.0326 47.6122 34.4992 47.4729 33.8254 47.289C32.6686 46.3248 31.6579 45.3996 30.5742 44.48C30.5068 44.48 30.372 44.48 30.3158 44.3017C29.8161 43.3876 29.3669 42.652 29.058 41.9386C29.3556 42.0389 29.5185 42.1169 29.7599 42.3399C30.9167 42.8359 31.9948 43.187 33.2021 43.5437C33.5502 43.4155 33.7692 43.2929 34.1679 43.1424C34.6958 43.1814 35.0439 43.2372 35.4426 43.4545C37.0036 43.9115 38.5085 44.2348 40.0246 44.4577C40.1762 44.48 40.4233 43.8837 40.6254 43.4099C40.3222 42.8749 40.019 42.5071 39.6596 41.9887C38.4411 40.5229 37.2844 39.2021 36.2006 37.753C36.4252 37.5022 36.5769 37.374 36.8015 37.3907C37.0935 37.6973 37.3124 37.8645 37.5314 38.0372C37.5932 37.9146 37.728 37.7028 37.7055 37.6805C37.4135 37.4297 37.0935 37.2068 36.7622 36.8222C36.3073 35.964 35.875 35.2561 35.4313 34.3644C35.1113 32.5865 34.6564 31.0092 34.4992 29.4097C34.1847 26.205 34.05 22.9836 33.7748 19.7734C33.7412 19.3721 33.2919 19.0098 33.0224 18.4748C33.0224 18.1125 33.0224 17.9063 33.1403 17.6165C32.9326 17.2654 32.6181 16.9923 32.1801 16.63C31.5512 16.8139 31.0458 17.0926 30.5517 17.4326C30.5573 17.4883 30.5966 17.5998 30.4338 17.6054C30.1137 17.9621 29.9565 18.302 29.7656 18.8649C29.7262 20.2416 29.6869 21.4064 29.7262 22.5656C29.8498 25.9654 29.7768 29.4097 32.0117 32.4973C33.0055 33.6343 33.977 34.6041 34.9597 35.741C35.3583 36.5659 35.7402 37.2235 35.9367 37.9258C35.0214 37.5691 34.0949 37.335 33.5952 36.7442C31.4501 34.2139 29.4286 31.5777 27.3454 28.8078C26.9636 27.0968 26.374 25.7759 24.33 25.6979C23.9819 25.7034 23.7853 25.7146 23.5607 25.5752C23.2519 25.4359 22.9655 25.4415 22.6791 25.4471C22.9543 25.8428 23.2294 26.2385 23.5495 26.7958C23.6449 27.0577 23.6955 27.1636 23.7404 27.4312C23.6899 28.0498 23.645 28.5012 23.5046 29.014C23.1789 28.5904 22.9543 28.1 22.5724 27.5928C22.3141 27.5761 22.2074 27.5705 22.0727 27.4256C22.0109 27.0912 21.9828 26.8961 22.0109 26.4837C22.0895 24.3435 22.112 22.4207 22.2524 20.4255C22.4601 20.0911 22.55 19.8291 22.8027 19.5895C24.5939 20.4255 24.987 19.1882 25.5878 18.0902C25.79 18.0791 25.8686 18.0902 25.964 18.2742C26.4862 18.8092 26.9973 19.1659 27.5026 19.5226C27.9069 18.8705 28.3112 18.2129 28.7436 17.4047C29.8835 15.8275 30.9897 14.4063 32.2475 12.9628C32.6012 12.6172 32.8034 12.294 32.9999 11.8704C32.9999 11.7701 33.0336 11.575 33.1909 11.5527C33.5671 11.0901 33.7861 10.6498 34.0051 10.1984C34.0051 10.1872 34.0275 10.1817 34.2072 10.1817C36.021 10.5049 38.705 13.3585 38.6769 14.802C38.6713 15.1698 38.4917 15.5432 38.3513 15.8999C36.167 21.3897 36.9025 26.8905 38.34 32.4305C38.3625 24.8786 36.8801 17.0703 43.1411 9.89185C40.2548 11.1013 40.0639 9.84727 40.165 8.42049C40.2155 7.66809 40.4794 6.92683 40.6142 6.18001C40.6984 5.69513 40.7209 5.19353 40.7714 4.6975C40.0864 4.65291 39.4013 4.60275 38.4917 4.55259C37.0822 4.6752 35.8918 4.79782 34.6115 4.71979C36.6723 3.66086 38.8342 2.80256 41.1701 2C44.0395 2.52389 46.7348 2.99206 49.2841 3.56611C49.0427 4.48014 48.9416 5.28827 48.8405 6.09083C49.0932 6.2023 49.3459 6.30819 49.5986 6.41966C49.1494 6.74291 48.7338 7.11076 48.2509 7.3727C43.6352 9.89185 41.1139 13.927 40.5693 18.9485C40.0864 23.4239 39.8898 27.9941 40.2717 32.4639C40.4963 35.0945 41.8945 37.714 43.1411 40.144C43.8317 41.4871 45.2973 42.4346 46.3193 43.7109C46.6281 44.2682 47.1672 45.0987 47.4199 45.0206C49.1381 44.4967 50.7946 43.7778 52.6308 43.0811C58.656 39.8597 63.0752 35.2617 66.4387 29.3986C67.0732 28.2449 67.5898 27.1971 68.2693 26.1604C68.5556 26.1716 68.6679 26.1772 68.7297 26.3555C67.5337 29.3205 66.3938 32.1183 65.2483 34.9106L65.9165 35.2171C67.1125 32.8206 68.303 30.424 69.6562 28.1445C69.8752 29.5044 69.937 30.7417 69.9988 31.9846C69.9988 31.9846 70.0212 32.1016 69.8752 32.2521C69.6618 32.7258 69.5945 33.0547 69.5271 33.3835M42.6469 44.7141C42.4504 44.5469 42.2595 44.3685 42.0517 44.2181C42.0405 44.2069 41.8832 44.3964 41.7934 44.4912C42.0124 44.6193 42.2314 44.7475 42.6469 44.7141ZM23.3193 22.7217C23.4428 22.8499 23.5663 22.9781 23.6842 23.1062C23.7348 23.0561 23.8415 22.9669 23.8359 22.9613C23.7236 22.8276 23.6 22.6994 23.3193 22.7217ZM47.0493 6.06297C46.9257 5.93478 46.8022 5.80659 46.673 5.68398C46.673 5.68398 46.572 5.77873 46.5214 5.82889C46.645 5.95707 46.7685 6.08526 47.0493 6.06297ZM37.0597 46.2356C37.1833 46.3638 37.3068 46.492 37.436 46.6146C37.436 46.6146 37.537 46.5199 37.5932 46.4697C37.4697 46.3415 37.3461 46.2133 37.0597 46.2356ZM44.2192 44.8701C44.0395 44.8701 43.8654 44.8646 43.6858 44.8701C43.6858 44.8701 43.6801 45.0708 43.6858 45.0708C43.8654 45.0819 44.0395 45.0875 44.2192 44.8646" fill="#13171A"/>
<path d="M21.2486 104.984C19.6121 105.007 17.9756 105.029 16.0998 104.873C15.5376 104.511 15.2371 104.282 14.9031 104.16C9.86563 102.316 6.97671 96.095 8.33488 91.6282C9.3702 88.2195 9.23663 84.4655 9.70976 80.8787C9.84892 79.8371 9.98808 78.5227 10.656 77.8766C14.3409 74.3064 17.8755 70.5024 22.6847 68.3302C22.8851 68.2411 22.9909 67.9403 22.7515 68.2578C21.6995 67.3276 20.8367 66.5702 20.1354 65.7459C21.4935 65.3337 22.6847 64.9772 24.0373 64.6319C24.5828 64.242 24.9724 63.8355 25.5569 63.3954C26.7314 63.2061 27.7166 63.0613 28.9022 63C29.9654 63.2339 30.8281 63.3787 31.613 63.5124C29.9208 63.9246 28.3567 64.3033 26.6423 64.76C25.7239 65.2223 24.9502 65.6122 24.0262 66.0745C25.5012 66.5423 26.6924 66.9433 27.8892 67.2998C29.2473 67.7008 30.6166 68.0684 31.9804 68.6421C32.0026 69.2102 32.0194 69.5945 31.9526 70.0958C31.613 70.6193 31.357 71.0203 30.9785 71.4436C30.7725 71.6052 30.6946 71.75 30.4608 71.8948C29.0748 73.354 27.8446 74.8077 26.4809 76.3171C26.1692 76.6847 25.9911 77.0077 25.7239 77.3475C25.6293 77.3642 25.44 77.3976 25.273 77.3976C22.746 79.2635 21.1818 84.2261 22.0223 87.3896C22.0112 87.7461 21.9889 87.9466 21.8052 88.2028C21.6716 89.1775 21.6995 90.1021 21.7273 91.177C21.6939 91.5279 21.6717 91.7284 21.4657 91.9623C20.7477 95.1092 20.2077 98.2227 19.6845 101.498C19.9851 102.071 20.2745 102.478 20.6363 102.979C20.8423 103.174 20.9759 103.269 21.1095 103.531C21.154 104.121 21.2041 104.55 21.2486 104.973M15.2872 76.0999C14.9142 78.545 14.391 80.9789 14.1906 83.4407C13.7843 88.4145 13.5449 93.4049 13.2555 98.3842C13.1775 99.6875 13.1441 101.002 15.1313 101.765C15.7436 95.8778 16.4004 90.2413 16.8902 84.5937C17.2353 80.5779 17.5971 76.6346 20.7866 73.6548C20.9202 73.5267 20.9146 73.2482 20.9703 73.0366C20.859 72.875 20.7532 72.7191 20.6419 72.5576C18.9275 73.6437 17.2187 74.7298 15.2816 76.0999H15.2872Z" fill="#13171A"/>
<path d="M21.2378 104.859C20.9801 104.407 20.9353 103.977 21.0866 103.335C22.5654 103.223 23.8482 103.329 25.2878 103.452C25.8367 103.329 26.2289 103.189 26.7946 103.044C27.3156 103.033 27.6573 103.027 28.2231 103.033C29.377 103.044 30.3517 103.212 31.2423 103.005C32.5755 102.692 33.8527 102.123 35.3371 101.659C36.6535 101.491 37.7738 101.329 39.0902 101.173C39.9417 100.866 40.6082 100.548 41.3589 100.123C41.7062 99.9332 41.9638 99.8494 42.4176 99.7713C45.7618 99.7713 48.3497 98.1292 50.9433 96.7162C52.0468 96.113 52.7078 94.6888 53.6881 93.583C54.041 93.2479 54.2706 92.9686 54.6347 92.6279C54.9988 92.1364 55.2285 91.712 55.5814 91.1925C57.3571 89.4388 59.0096 87.7856 60.6565 86.3056C59.9843 87.6851 59.004 88.8301 58.7687 90.1202C58.6119 90.9803 59.5194 92.0303 59.9451 92.9965C60.6397 92.5441 61.4743 92.209 62.0009 91.6058C62.9476 90.5223 63.7318 89.2992 64.5328 88.104C65.0369 87.3556 65.4235 86.5346 65.8996 85.7638C67.0927 83.837 68.3027 81.9157 69.6415 80C69.86 80 69.9496 79.9944 70 80.1508C69.6639 81.1561 69.367 81.9995 68.9805 82.9154C68.7788 83.1891 68.6668 83.3846 68.3979 83.6471C66.3533 87.8136 64.4656 91.913 62.5386 96.0963C62.4994 96.18 62.4714 96.3643 62.3146 96.4034C61.4631 97.2133 60.7629 97.984 59.9787 98.7771C59.8891 98.7939 59.721 98.8776 59.5698 98.8776C59.1665 99.1569 58.9144 99.4361 58.5279 99.7322C58.2086 99.8159 58.0349 99.883 57.6876 99.9109C54.4835 100.643 51.4474 101.408 48.2041 102.156C45.28 102.631 42.5688 103.128 39.6616 103.619C38.6869 103.642 37.9139 103.664 36.9448 103.647C36.0317 103.848 35.3091 104.094 34.4016 104.357C32.6315 104.412 31.0519 104.457 29.293 104.479C28.5199 104.63 27.9206 104.792 27.1475 104.993C26.6154 105.01 26.2625 104.993 25.9096 104.965C24.4252 104.943 22.9463 104.921 21.2546 104.87L21.2378 104.859Z" fill="#30363A"/>
<path d="M67.7679 25.8596C67.256 26.9083 66.7384 27.9569 65.9508 29C65.2644 27.1258 64.5837 25.2683 64.4993 23.383C64.2743 18.201 62.3671 13.6884 59.1941 9.71687C57.917 8.12156 56.083 6.96692 54.429 5.47201C53.7089 4.67994 53.18 3.80977 52.4037 3.41373C49.9845 2.181 47.4754 1.12118 45 0C46.1195 0.011156 47.2335 0.022312 48.6962 0.145028C49.5963 0.295634 50.1533 0.340258 50.7103 0.384882C50.9128 0.401616 51.1153 0.41835 51.6048 0.541066C52.5668 0.769763 53.2475 0.881323 53.9283 0.998461C54.0464 1.0654 54.1702 1.13791 54.4796 1.12676C54.6709 1.05424 54.654 1.08771 54.654 1.08771C55.0028 1.31083 55.3516 1.52837 55.8805 1.90767C56.3418 2.13079 56.6231 2.19215 56.9044 2.25909C57.1125 2.42085 57.3207 2.58261 57.6807 2.92287C58.2883 3.31891 58.7384 3.54203 59.1941 3.76515C59.1941 3.76515 59.2166 3.73726 59.2503 3.9046C62.5527 6.19715 64.9269 9.09771 66.7721 12.4724C66.9465 12.7903 67.3854 12.9744 67.7004 13.2143C67.9142 14.0063 68.1336 14.804 68.3249 15.9029C68.5893 16.7284 68.8762 17.2527 69 17.8998C68.4768 20.6386 68.1167 23.2491 67.7567 25.8596H67.7679Z" fill="#F1F2F3"/>
<path d="M19.0763 66C19.9406 66.76 20.8106 67.52 21.8645 68.4408C22.0987 68.1191 21.9983 68.4186 21.7976 68.5129C16.9795 70.6764 13.4385 74.4597 9.74691 78.0211C9.07774 78.6645 8.93832 79.9793 8.79891 81.0111C8.31933 84.5835 8.45873 88.3225 7.42151 91.7174C6.06086 96.1719 8.95506 102.363 14.0017 104.199C14.3419 104.321 14.643 104.548 14.9832 104.881C13.9961 105.042 12.9924 105.048 11.721 104.848C6.0776 102.951 4.75599 101.159 5.03481 95.7836C5.11845 94.1582 5.25229 92.5162 5.55899 90.9241C6.0553 88.3335 6.71889 85.7707 7.29326 83.1967C7.4494 82.5033 8.00146 81.4604 6.27276 81.9097C6.4289 80.3398 6.74118 78.8753 7.10923 77.2666C9.65766 74.5151 12.1671 71.9301 14.5928 69.2729C14.9051 68.9345 16.8903 68.2356 14.7267 67.5643C15.3903 67.0429 15.9535 66.649 16.5223 66.2663C16.5223 66.2774 16.4944 66.2663 16.6728 66.355C17.593 66.2885 18.3402 66.1442 19.0875 66" fill="#3E4347"/>
<path d="M59.6608 99.2825C59.6608 99.2825 59.8298 99.1944 60.1003 99.2003C60.6131 99.2179 60.8498 99.2297 61.0639 99.4236C60.7202 100.299 60.399 100.993 59.9876 101.88C60.6357 102.015 61.0076 102.18 61.357 102.151C66.4286 101.698 71.5791 101.657 76.5381 100.628C82.9565 99.3002 83.7511 100.958 83.9596 93.6582C83.9652 93.3703 84.2188 93.0882 84.3878 93C84.5794 95.2039 84.7372 97.208 84.9176 99.3825C84.9964 99.9878 85.0471 100.423 84.9344 100.863C83.9145 101.057 83.0636 101.245 82.5001 101.369C83.1143 103.138 83.6158 104.566 84.1174 106C83.6553 105.959 83.1988 105.924 82.5959 105.63C79.8008 101.58 78.9217 101.316 74.5263 103.479C75.7717 103.984 76.6508 104.307 77.5017 104.701C78.0765 104.966 78.6006 105.336 79.1528 105.653C76.1324 105.665 73.1063 105.671 69.8097 105.465C67.7979 104.966 66.0736 104.578 64.3267 104.425C61.2893 104.155 58.2407 104.019 55.1977 103.831C54.6849 103.796 54.1721 103.749 53 103.655C55.023 102.28 56.4093 101.345 57.7899 100.405C57.9702 100.335 58.1449 100.27 58.6239 100.188C59.1705 99.8761 59.4185 99.5823 59.6664 99.2825H59.6608Z" fill="#8B9296"/>
<path d="M57.1374 100C55.9366 100.953 54.5683 101.872 52.5577 103.209C53.7194 103.301 54.2276 103.347 54.7358 103.382C57.7518 103.571 60.7733 103.697 63.7836 103.961C65.515 104.116 67.224 104.49 69 104.949C61.4937 105.19 53.9372 105.236 46.3806 105.316C44.7554 105.334 43.1246 105.46 41.2592 105.73C40.5554 106 40.0863 106.08 39.5781 105.913C38.2209 105.58 36.9084 105.489 35.4228 105.299C33.2335 105.173 31.2117 105.144 29.1285 105.024C29.067 104.926 29 104.714 29 104.714C30.575 104.673 32.1555 104.633 34.0991 104.622C35.1938 104.398 35.9143 104.139 36.6348 103.887C37.4111 103.864 38.1874 103.835 39.2988 103.938C42.3817 103.485 45.1352 102.911 47.883 102.337C50.9101 101.55 53.9316 100.758 57.1318 100.006L57.1374 100Z" fill="#757B81"/>
<path d="M6.77906 82.1566C8.40132 81.5984 7.83011 82.6583 7.67588 83.363C7.08752 85.9845 6.40778 88.5835 5.8994 91.2163C5.58523 92.8399 5.44814 94.503 5.36245 96.1549C5.07684 101.618 6.42492 103.433 12 105.282C11.9086 105.395 11.7487 105.378 11.4059 105.299C10.9375 105.344 10.6519 105.457 10.3663 105.564C8.70979 105.722 7.05897 105.936 5.39672 105.998C4.6827 106.026 3.95725 105.722 3.03759 105.344C2.21504 102.897 1.08404 100.71 3.26038 98.5734C3.75162 98.0942 3.51743 96.9103 3.65452 96.0534C4.34569 91.7969 5.05401 87.5405 5.87656 83.239C6.25928 82.8444 6.52774 82.5005 6.7905 82.1566H6.77906Z" fill="#CBCED0"/>
<path d="M6 83.1478C5.33369 87.3616 4.6674 91.5698 4.01192 95.7836C3.88191 96.6264 4.10401 97.7984 3.63814 98.2784C1.57421 100.394 2.65221 102.565 3.28601 104.948C1.17875 105.339 1.50921 103.452 1 101.901C1.0325 97.045 1.11918 92.5242 1.20585 87.9978C1.28711 87.8416 1.37379 87.6909 1.68799 87.3504C1.83425 86.4519 1.75297 85.7375 1.6663 85.0175C1.53629 84.5989 1.40627 84.1803 1.39002 83.4548C1.87214 82.0315 2.23512 80.9153 2.60348 80C2.61432 81.0269 2.61432 81.8474 2.50598 82.7459C2.39764 83.0752 2.39763 83.332 2.39763 83.5887C2.45722 83.5887 2.51678 83.5887 2.57637 83.5887C2.59262 83.2873 2.60348 82.9859 2.73891 82.7962C2.9881 83.5999 3.12353 84.2919 3.31312 85.2965C3.63274 84.398 3.83857 83.8231 4.23943 83.2036C4.95449 83.159 5.47996 83.159 6 83.159V83.1478Z" fill="#191E21"/>
<path d="M14.0054 64.4401C16.196 63.176 18.2773 61.5886 20.6045 60.7227C25.4827 58.9045 30.5304 57.9982 35.7801 58.1772C40.1012 58.3215 44.444 57.9347 49 58.0098C48.4264 60.134 46.9952 58.7024 45.8808 58.9391C44.9794 59.1296 44.0835 59.3258 42.9746 59.5625C39.2599 59.9608 35.7528 60.3187 32.0709 60.7054C31.1804 60.7054 30.4648 60.6766 29.6345 60.5149C28.8205 60.5496 28.1267 60.7285 27.2636 60.9594C24.9529 61.5309 22.7787 61.958 20.6646 62.593C19.7796 62.8585 19.0148 63.5742 18.1954 64.0649C18.1954 64.0476 18.2172 64.036 18.0424 63.9148C17.3705 64.1977 16.8734 64.6017 16.3708 65C16.3599 64.9942 16.3708 65.0173 16.2507 64.8326C15.7426 64.7864 15.3493 64.925 14.8959 64.925C14.5572 64.671 14.2786 64.5555 14 64.4401H14.0054Z" fill="#484E53"/>
<path d="M14.9669 68.0108C17.1566 68.543 15.2318 69.2204 14.929 69.5484C12.5717 72.1237 10.1441 74.629 7.52732 77.3495C6.30001 79.0376 5.27815 80.5323 4.07788 82C3.95352 80.9462 4.00759 79.9194 4.04003 78.8925C4.02381 78.8925 4.013 78.9247 4.15358 78.9731C4.34281 78.8387 4.39686 78.6505 4.5104 78.3387C4.53744 78.1237 4.49419 78.0376 4.54825 78.0054C4.67801 77.9462 4.71045 77.8333 4.7483 77.7151C4.66179 77.8065 4.57528 77.8979 4.33739 77.9301C4.48336 77.1398 4.80237 76.4194 5.05648 75.672C5.54848 74.2312 6.00805 72.7796 6.47843 71.3387C6.8623 70.9301 7.24618 70.5161 7.76522 70.1559C8.25182 70.5 8.59783 70.8011 8.9006 71.0538C9.37639 70.3495 9.67376 69.4086 10.2306 69.2097C11.0038 68.9355 11.0903 69.1774 11.3282 68.4355C11.3228 68.4409 11.3066 68.457 11.4417 68.4462C12.0959 68.2903 12.6204 68.1452 13.1448 68.1452C13.7558 68.1936 14.3559 68.0968 14.9615 68L14.9669 68.0108Z" fill="#F1F2F3"/>
<path d="M30.921 44.0605C31.927 44.9756 32.9274 45.8963 34 47C31.9937 46.1181 29.9262 45.0477 27.8587 43.9828C22.551 39.5125 19.6833 33.9052 20.0278 27C20.7893 28.7693 20.239 31.0654 22.9234 31.6034C23.1624 32.0638 23.3125 32.4465 23.2902 32.8625C23.7571 36.1958 24.8464 39.1908 28.27 40.6661C28.2922 41.0211 28.3089 41.3594 28.5368 41.7698C28.8869 41.7754 29.0258 41.7144 29.1592 41.6145C29.1592 41.5757 29.2148 41.5147 29.2148 41.5147C29.6594 42.2468 30.0985 42.9789 30.5598 43.9884C30.6153 44.3932 30.6543 44.5208 30.6932 44.6484C30.7654 44.4542 30.8432 44.2546 30.9155 44.0605H30.921Z" fill="#757B81"/>
<path d="M65 59C68.8186 60.1333 72.8331 60.8359 76.411 62.5018C81.7693 64.995 86.3381 68.7631 89.0313 74.2652C90.3191 76.9 91.047 79.8126 91.982 82.6174C92.0716 82.8837 91.8084 83.2634 91.5901 84C90.8398 81.7165 90.2351 79.8749 89.3784 77.9483C89.1265 77.8633 88.9697 77.7557 88.9305 77.631C88.7513 77.2684 88.6114 77.036 88.4434 76.6734C88.2642 76.3164 88.113 76.0954 87.9171 75.7668C87.8051 75.5231 87.7043 75.4098 87.5251 75.1888C87.1612 74.6675 86.8477 74.2879 86.4893 73.7665C86.0974 73.1602 85.7502 72.6899 85.4535 72.0836C85.4255 71.5963 85.4591 71.16 85.2631 70.905C81.6629 66.2303 76.7245 63.6181 71.3606 61.6292C69.2105 60.8302 67.1221 59.884 65 59.0057V59Z" fill="#484E53"/>
<path d="M43.0056 59.7276C43.9351 59.5124 44.8589 59.2972 45.7884 59.0883C46.9375 58.8288 48.4077 60.3986 49.2189 58.1514C51.8551 57.9679 54.5027 57.9489 57.4093 58.1071C58.6092 58.2844 59.5499 58.2717 60.485 58.2654C61.6735 58.3287 62.8621 58.3857 64 58.7718C63.4198 59.5757 62.8903 60.0568 62.1523 60.5442C58.2937 60.7278 54.6491 60.8987 50.813 61C48.0866 60.5252 45.5405 60.1201 43 59.7213L43.0056 59.7276Z" fill="#7F878C"/>
<path d="M45.531 0.0831523C48.1566 1.32902 50.627 2.45623 53.0089 3.76736C53.7733 4.18858 54.2995 5.11408 54.9919 6.13451C55.4295 7.29138 55.8117 8.12196 56 9C54.9309 8.64404 53.9616 8.37707 53.1861 7.80753C52.4383 7.25579 51.89 6.38961 51.1311 5.59463C50.8043 5.08442 50.6326 4.62167 50.3833 4.21231C50.2116 3.93347 49.9346 3.72583 49.702 3.48259C47.0488 2.98424 44.39 2.49183 41.5373 1.80957C41.2271 1.42394 41.1108 1.22223 41 0.937461C41 0.848471 41.0111 0.67049 41.0111 0.67049C42.3239 -0.569445 43.908 0.338258 45.5255 0.0950177L45.531 0.0831523Z" fill="#7F878C"/>
<path d="M27 45.0097C29.1517 45.8007 31.2636 46.7372 33.455 47.5428C34.0681 47.5428 34.6075 47.6592 35.3682 47.8679C35.7486 47.9456 35.9075 47.9358 36.0665 47.9261C35.8621 47.8922 35.6634 47.8534 35.459 47.8194C35.1638 47.5379 34.8686 47.2565 34.5734 46.9702L34.9424 46.5577C36.1403 47.3196 37.3439 48.0863 38.8767 48.9112C40.841 49.2655 42.4647 49.5566 44.2417 49.9545C45.5929 50.1972 46.7964 50.333 48 50.4641C46.8305 50.6533 45.661 51.0318 44.5028 50.9979C38.5815 50.8377 33.1427 49.2946 28.2149 46.4946C27.6813 46.1937 27.3747 45.6017 27.0057 45L27 45.0097Z" fill="#484E53"/>
<path d="M39.6043 106.525C40.0707 106.407 40.5372 106.297 41.0425 106.195C46.3843 106.314 51.6873 106.424 56.9903 106.517C57.9954 106.534 58.9949 106.517 60 107H14.0111C14.0111 106.839 14.0056 106.678 14 106.525C16.943 106.525 19.8805 106.585 22.8235 106.492C23.7009 106.466 24.5727 106.008 25.4833 105.432C25.872 105.144 26.2219 105.178 26.9326 105.169C27.9432 105.085 28.593 105.042 29.2426 105C31.2528 105.042 33.2629 105.076 35.4619 105.593C36.9667 106.229 38.2883 106.381 39.6154 106.534L39.6043 106.525Z" fill="#555C60"/>
<path d="M63 60.4257C63.5226 60.0045 64.0451 59.5889 64.6678 59.0624C64.9846 58.9738 65.2015 58.9959 65.585 59.0292C67.8532 59.9048 69.9268 60.8357 72.0615 61.6116C77.3872 63.5567 82.2905 66.1113 85.865 70.6831C86.0596 70.9325 86.0263 71.3592 85.8762 71.8247C85.4148 71.9577 85.1757 71.9798 84.8421 71.9965C84.7476 71.9965 84.5586 71.9965 84.5809 71.9965C84.6031 71.9965 84.5809 72.0242 84.5809 71.9244C84.5864 71.8247 84.5809 71.6307 84.5809 71.4922C84.4308 71.2484 84.2862 71.1431 84.1194 70.9159C83.9416 70.7219 83.7915 70.6609 83.6525 70.5889C83.6636 70.5834 83.6525 70.6111 83.6469 70.4836C83.4913 70.2786 83.3467 70.1955 83.1799 69.9572C82.0625 68.9874 80.9729 68.1839 79.711 67.3305C79.1829 67.3028 78.8271 67.3194 78.4935 67.3305C78.5158 67.3249 78.4824 67.3526 78.538 67.203C78.538 66.6045 78.6214 65.8619 78.399 65.7567C76.4255 64.8201 74.3908 63.9889 72.3951 63.1189C72.4118 63.1078 72.3951 63.141 72.434 62.997C72.295 62.7642 72.1171 62.6755 71.828 62.4705C71.4111 62.3098 71.0998 62.2599 70.7218 62.2378C70.6606 62.2544 70.5494 62.1934 70.4271 62.0604C69.5988 61.8665 68.8872 61.8055 68.1812 61.7279C68.1812 61.7113 68.209 61.7279 68.1034 61.5894C66.3355 61.1128 64.6678 60.7748 63 60.4367V60.4257Z" fill="#8B9296"/>
<path d="M22.4717 27.7754C22.6745 28.2718 22.8723 28.7681 23.2334 29.2137C23.3917 29.1685 23.5499 29.1629 23.5351 29.3377C23.5054 29.9807 23.4955 30.4545 23.3323 30.9452C22.7734 30.9959 22.3679 31.0298 21.8486 30.9621C21.2353 29.6536 20.7357 28.441 20.2362 27.234C19.4844 21.7123 20.5231 16.6418 23.4114 12C23.6835 12.0677 23.7379 12.1241 23.7725 12.3102C23.8714 12.7783 23.9901 13.1167 24 13.4946C23.8071 13.6808 23.728 13.833 23.6489 13.9628C23.6489 13.9402 23.6884 13.9402 23.5598 13.9966C23.3768 14.3463 23.3274 14.6452 23.268 14.9103C23.2631 14.8877 23.2977 14.9216 23.1493 14.9329C22.7932 15.5533 22.5806 16.1624 22.3778 16.7715C22.3827 16.7772 22.3778 16.7715 22.2343 16.8449C21.7744 19.8849 21.4578 22.846 21.1463 25.9537C21.3688 26.3541 21.5864 26.6023 21.7991 26.8561C21.8238 27.0535 21.8485 27.2453 21.8931 27.7529C21.9771 28.4692 22.0414 28.8753 22.2145 29.93C22.358 28.7737 22.4173 28.2718 22.4816 27.7698L22.4717 27.7754Z" fill="#697075"/>
<path d="M89.8986 104.014C90.0113 104.224 89.9944 104.312 90 104.528C88.0225 105.124 86.0225 105.591 83.8197 106C83.1155 104.522 82.6141 103.097 82 101.339C82.5634 101.216 83.4141 101.029 84.4901 101C85.3521 101.508 85.9944 101.859 86.6817 102.384C87.2845 102.711 87.831 102.863 88.4395 103.109C88.5916 103.196 88.6873 103.196 88.7775 103.19C88.6817 103.097 88.5803 103.004 88.3493 102.91C88.2141 102.659 88.2141 102.408 88.3155 102.075C88.4676 101.824 88.5183 101.654 88.5465 101.403C88.5183 101.321 88.6366 101.187 88.7549 101.199C88.9521 101.199 89.031 101.199 89.2507 101.21C89.4817 101.251 89.5718 101.275 89.662 101.292C89.7014 102.157 89.7352 103.021 89.9042 104.008L89.8986 104.014Z" fill="#191E21"/>
<path d="M6 71C5.59446 72.5895 5.14623 74.0542 4.65531 75.5081C4.40452 76.2622 4.08971 76.9892 3.9403 77.7758C4.07904 77.8192 4.06302 77.8029 4.06302 77.8029C4.10037 77.8897 4.14305 77.9765 4.02032 78.2423C3.76953 78.5353 3.69483 78.6546 3.62546 78.7794C3.62546 78.7794 3.63614 78.7414 3.52942 78.7631C3.18791 78.5732 2.95312 78.3617 2.58493 78.2586C2.3875 78.7957 2.31814 79.2297 2.25944 79.6474C2.27545 79.6365 2.2541 79.6094 2.2541 79.6094C1.89659 80.6998 1.53909 81.7848 1.10154 83C0.610623 78.9584 1.91261 75.3725 4.73002 72.0416C4.97015 71.7378 5.01816 71.6184 5.01816 71.4774C5.32231 71.2712 5.62113 71.0705 5.98932 71H6Z" fill="#8B9296"/>
<path d="M68 26.1207C68.2129 23.4253 68.6138 20.7356 69.3591 18C69.9666 18.4138 70.2359 18.8736 70.499 19.3391C70.499 19.3391 70.4551 19.3276 70.3612 19.5172C70.5115 21.9713 70.7557 24.2414 71 26.5115C70.7557 28.2931 70.5115 30.0747 70.0981 32C69.8601 30.8563 69.7912 29.5805 69.5407 28C69.3591 26.9943 69.3591 26.2931 69.3591 25.3793C68.9833 25.7471 68.7829 25.9483 68.5825 26.1494C68.4572 26.1494 68.3319 26.1379 68.0125 26.1264L68 26.1207Z" fill="#3E4347"/>
<path d="M78.859 104.98C78.0992 104.68 77.5663 104.371 76.9936 104.15C76.1375 103.82 75.253 103.55 74 103.127C78.4224 101.319 79.3125 101.54 82 104.867C81.0361 105.019 80.0553 105.015 78.8646 104.98H78.859Z" fill="#B3B7BA"/>
<path d="M11.2 68.2559C10.97 69.0375 10.89 68.7901 10.175 69.0712C9.65502 69.2793 9.38501 70.2634 8.94501 71C8.66501 70.7301 8.345 70.4208 8 69.9878C8.415 69.0881 8.85502 68.3121 9.52002 67.4461C9.86502 67.2943 9.94002 67.1931 9.98502 67.0637C10.21 66.9175 10.43 66.7769 10.9 66.5689C11.475 66.2484 11.81 65.9897 12.14 65.731C12.14 65.731 12.22 65.6635 12.305 65.5961C12.395 65.5286 12.45 65.4105 12.45 65.4105C12.66 65.3037 12.875 65.2024 13.165 65C13.495 65.0112 13.745 65.1237 14 65.5117C13.905 66.0797 13.815 66.3608 13.625 66.7263C13.305 66.9794 13.085 67.1593 12.86 67.4517C12.86 67.5698 12.86 67.806 12.86 67.806C12.38 67.9578 11.895 68.1097 11.265 68.2052C11.075 68.1321 11.03 68.1153 10.985 68.104C11.055 68.1546 11.12 68.2052 11.19 68.2559H11.2Z" fill="#8B9296"/>
<path d="M67.994 13C67.6649 12.9339 67.1982 12.7578 67.0127 12.444C65.0499 9.11376 62.5186 6.25138 59 4C62.1596 4.69908 64.3796 6.65321 65.9774 9.25688C66.6955 10.4239 67.3238 11.6294 68 13H67.994Z" fill="#555C60"/>
<path d="M48.6778 50.989C47.2944 50.8564 46.1167 50.7017 45 50.442C46.7944 50.1547 48.5278 49.9779 50.4444 49.8287C51.9111 49.3702 53.2 48.8895 54.4889 48.4254C54.4889 48.442 54.4611 48.4254 54.6278 48.4586C55 48.3094 55.2111 48.1271 55.4278 47.9614C55.4333 47.9779 55.4 47.9614 55.5667 48C55.9444 47.8509 56.1556 47.6685 56.3667 47.4973C56.3667 47.5138 56.3389 47.4973 56.5 47.5415C56.8722 47.3923 57.0889 47.2045 57.3 47.0332C57.3 47.0498 57.2722 47.0332 57.4334 47.0884C57.9223 47.0608 58.25 46.9779 58.6778 47.0056C58.8556 47.1934 58.9278 47.2707 59 47.3426C55.8833 49.2707 52.5778 50.663 48.6722 51L48.6778 50.989Z" fill="#9CA1A6"/>
<path d="M90.8185 84.0053C90.8891 89.2865 90.9647 94.5677 91 99.849C91 99.9394 90.5765 100.035 90.2034 99.9872C90.0219 99.6415 89.9916 99.4341 90.0017 99.0352C90.1479 95.4134 90.2437 91.983 90.4051 88.3505C90.4757 86.7656 90.4857 85.3828 90.5714 84C90.6521 84 90.8135 84 90.8135 84L90.8185 84.0053Z" fill="#CBCED0"/>
<path d="M24 11.7605C25.3718 8.79938 27.493 6.49689 30.7382 5C30.9572 5 31.0552 5.11431 30.9687 5.22862C30.6632 5.64775 30.4442 5.94712 30.1848 6.44246C30.2598 6.69829 30.3808 6.76361 30.3866 6.65474C29.5508 6.89425 28.6919 7.18274 28.1386 7.73795C26.784 9.09331 25.5736 10.5739 24.2997 12C24.2363 11.9456 24.1672 11.8911 24.0058 11.7551L24 11.7605Z" fill="#697075"/>
<path d="M0.969698 88.2538C1.0599 92.8176 0.939624 97.2984 0.729143 101.984C0.428457 102.05 0.0451012 101.901 0.0451012 101.757C-1.83424e-06 97.2874 0 92.8176 0 88.3477C0 88.2261 0.157833 88.0604 0.300659 88.0051C0.390865 87.972 0.60135 88.1046 0.962174 88.2538H0.969698Z" fill="#9CA1A6"/>
<path d="M62 42.6124C62.9538 41.7013 63.9034 40.7903 64.9637 40C65.0361 40.297 65.0021 40.4732 64.8445 40.8205C64.6316 41.0923 64.6018 41.2131 64.6316 41.354C64.1291 41.9178 63.6266 42.4765 62.8602 43C62.396 42.844 62.1959 42.7282 62 42.6124Z" fill="#CBCED0"/>
<path d="M61.8468 43.0099C62.2109 43.119 62.4962 43.2331 63 43.4264C62.6965 44.1504 62.1745 44.795 61.3247 45.4992C60.6995 45.7074 60.4082 45.8562 60.1108 46C60.1108 46 60.1229 45.9653 59.9408 45.9802C59.4916 45.9603 59.2246 45.9207 59 45.7422C59.7466 45.0132 60.4507 44.4231 61.1609 43.8331C61.1609 43.8331 61.173 43.8826 61.2701 43.8231C61.4765 43.6198 61.5858 43.481 61.695 43.3372C61.5675 43.2182 61.5918 43.1091 61.8468 43V43.0099Z" fill="#3E4347"/>
<path d="M20.201 27C20.7005 28.2457 21.128 29.4855 21.6741 31.0209C21.8603 31.5423 21.928 31.7683 22 32C20.0232 31.5249 20.438 29.1263 20.002 27.2086C19.9809 27.0174 20.129 27 20.201 27.0058V27Z" fill="#191E21"/>
<path d="M71 26C70.4627 24.0993 70.1716 22.139 70 20C70.5 21.861 70.8731 23.9007 71 26Z" fill="#CBCED0"/>
<path d="M91 83.8453C90.9753 84.0474 90.8436 84.0474 90.716 83.8691C90.3951 82.1331 90.2016 80.5695 90 79.0059V79C90.3416 80.5457 90.6831 82.0974 90.9959 83.8453H91Z" fill="#B3B7BA"/>
<path d="M69.995 19C69.7607 18.7459 69.5083 18.3039 69.0936 17.7845C68.6249 17.1878 68.3245 16.6685 68 16C70.1272 16 70.007 17.4254 69.995 19Z" fill="#CBCED0"/>
<path d="M61 58.4097C60.0867 59.1387 59.0827 59.1843 58 58.5919C58.9194 57.8857 59.9113 57.7946 61 58.4097Z" fill="#484E53"/>
<path d="M89.9286 100.004C89.9564 100.149 89.9802 100.298 90 100.556C89.9484 100.761 89.9048 100.858 89.7936 100.989C89.6587 101.015 89.5952 101 89.4008 100.906C89.2183 100.731 89.1349 100.675 89 100.545C89.0079 100.287 89.0437 100.145 89.1825 100C89.504 100 89.7183 100 89.9286 100V100.004Z" fill="#272C2F"/>
<path d="M59.229 46C59.4346 46.0363 59.6355 46.068 60 46.0906C59.9065 46.358 59.6589 46.639 59.2944 46.9971C59.1215 47.0152 59.0607 46.9518 59 46.7206C59.0981 46.3762 59.2009 46.2039 59.2804 46.0317C59.257 46.0317 59.229 46 59.229 46Z" fill="#9CA1A6"/>
<path d="M12 65C11.803 65.4052 11.4647 65.7059 11 66C11.202 65.6275 11.5303 65.2614 12 65Z" fill="#484E53"/>
<path d="M89.484 78C89.484 78 89.781 78.0946 89.946 78.1345C90.045 78.3586 89.9899 78.5429 89.9239 78.8667C89.9239 79.0062 89.9239 79.0161 89.6489 78.9862C89.198 78.7123 89.022 78.4682 89 78.1694C89.165 78.1146 89.484 78 89.484 78Z" fill="#B3B7BA"/>
<path d="M60 46C60.1351 45.5714 60.4662 45.2952 61 45C60.8649 45.3714 60.527 45.7619 60 46Z" fill="#9CA1A6"/>
<path d="M69.0944 33C68.841 32.7701 69.0944 32.431 69.8967 32C70.1712 32.2356 69.8967 32.5632 69.0944 33Z" fill="#3E4347"/>
<path d="M49.2663 3C49.6449 3.11997 49.9274 3.31991 50.1026 3.58841C50.3568 3.98258 50.532 4.42817 50.8767 5.07371C51.0236 5.49645 51.0237 5.7021 50.8654 5.94204C50.6507 6.74753 50.2664 7.76439 50.6168 8.23854C52.572 10.8949 53.3913 13.8713 53.736 17.1104C54.3632 23.0458 53.8659 28.8785 52.3176 34.5912C51.4926 37.6246 50.2043 40.5324 48.9667 43.5773C48.0005 43.7772 47.1924 43.8857 46.3843 44C45.2598 42.846 43.785 41.8692 43.09 40.4924C41.8355 38.0017 40.4285 35.3167 40.2024 32.6203C39.8182 28.0387 40.016 23.3543 40.5019 18.767C41.0501 13.6199 43.5872 9.48391 48.2322 6.90177C48.7125 6.63327 49.1363 6.25052 49.5884 5.9249C49.3341 5.81065 49.0798 5.7021 48.8255 5.58785C48.9272 4.76522 49.0289 3.93688 49.2719 3H49.2663Z" fill="#484E53"/>
<path d="M55.8284 8.51815C55.4467 7.73472 55.0593 6.9513 54.6888 6C56.2775 7.19192 58.1074 8.35587 59.3817 9.95629C62.5477 13.9406 64.4507 18.462 64.6752 23.6662C64.7538 25.5576 65.4387 27.4211 66 29.4076C62.9126 35.2945 58.4948 39.9167 52.4603 43C52.1572 42.5188 52.0281 42.1438 52 41.6514C52.9655 39.4466 53.83 37.3593 54.8797 35.2553C55.3232 34.8916 55.7161 34.5838 55.8172 34.1977C56.7714 30.4037 57.7538 26.6152 58.5734 22.7877C59.3199 19.3182 59.2301 15.8488 57.9839 12.301C57.2766 10.9244 56.5581 9.72686 55.834 8.52374L55.8284 8.51815Z" fill="#DEDFE0"/>
<path d="M38.5142 4C39.2087 4.04479 39.9032 4.09518 40.5977 4.13997C40.5465 4.63827 40.5237 5.13657 40.4383 5.62927C40.3017 6.38512 40.0342 7.12418 39.9829 7.88002C39.8805 9.31334 40.074 10.5787 43 9.35813C36.6528 16.5751 38.1556 24.4135 38.1328 32C36.6755 26.4347 35.9298 20.9086 38.1442 15.3937C38.2865 15.0354 38.4687 14.6603 38.4744 14.2907C38.5028 12.8406 35.7818 9.974 34 9.5037C35.1442 8.37273 36.351 7.28654 37.7116 6.43551C38.7761 5.76925 38.9298 5.03019 38.5142 4Z" fill="#191E21"/>
<path d="M27.755 28.8257C29.8194 31.3728 31.839 33.9583 33.982 36.4399C34.4813 37.0193 35.4069 37.2488 36.3213 37.5987C36.5064 37.5604 36.5064 37.5495 36.5064 37.5495C37.6621 38.8449 38.8234 40.1349 39.9566 41.6818C39.2161 43.2396 40.4614 42.8843 41 43.1358C40.798 43.4364 40.5512 44.0213 40.3997 43.9994C38.8851 43.7808 37.3816 43.4637 35.9847 42.9499C36.4728 42.5782 36.843 42.4361 37.3872 42.2339C33.3368 38.4732 28.3721 35.8714 26.3861 30.4655C25.943 29.7713 25.4941 29.2411 25.0285 28.7054C25.0061 28.7054 25.0398 28.6726 25.0566 28.5032C25.0117 27.8855 24.9556 27.4318 25.0566 27C26.0664 27.6177 26.9079 28.2189 27.7437 28.8257H27.755Z" fill="#484E53"/>
<path d="M38.6103 4.00576C39.2662 5.06497 39.1094 5.82484 38.024 6.50987C36.6367 7.38487 35.4119 8.50165 34.0536 9.66447C33.9956 9.81415 33.9724 9.8199 33.8272 9.88898C33.4441 10.3898 33.2062 10.8273 32.9682 11.259C32.9682 11.259 32.9333 11.4605 32.7824 11.6044C32.4167 12.0707 32.2078 12.3931 31.993 12.7155C30.8495 14.1834 29.706 15.6513 28.3535 17.338C27.3086 17.7064 26.4728 17.8503 25.6369 18C25.5556 17.9885 25.4686 17.9827 25.0623 17.9424C24.4876 17.6086 24.2322 17.3092 24 16.8602C27.4073 13.2623 30.7914 9.81414 33.984 6.56168C33.6473 5.90543 33.4615 5.53701 33.3919 5.0477C33.6531 4.75411 33.7982 4.58717 33.9433 4.43174C33.9433 4.44901 33.9085 4.43174 34.1117 4.43174C34.4541 4.43174 34.5877 4.43174 34.7154 4.42023C34.7038 4.40296 34.6921 4.38569 34.6921 4.38569C35.9169 4.25905 37.1475 4.12664 38.6044 4L38.6103 4.00576Z" fill="#484E53"/>
<path d="M26.1 30.9394C28.0722 36.1402 32.9944 38.7189 37 42.4461C36.4611 42.6519 36.0889 42.7928 35.5555 42.9986C35.05 43.0095 34.7 42.9553 34 42.847C33.2889 42.809 32.9389 42.8199 32.5889 42.8578C32.5889 42.8849 32.6444 42.8849 32.6889 42.7332C32.5333 42.679 32.3333 42.7711 32.0389 42.7928C31.7056 42.5382 31.4611 42.354 31.2389 41.991C30.7722 41.3951 30.2778 40.9834 29.7889 40.5662C29.7889 40.5662 29.8055 40.577 29.7222 40.4416C29.3333 40.2303 29.0278 40.1545 28.6333 40.0136C28.35 39.7428 28.1556 39.5369 27.9722 39.1577C27.5278 38.4101 27.0722 37.8412 26.55 37.1749C26.3889 36.9582 26.2556 36.8824 26.1 36.6928C25.4056 34.6287 24.7 32.7326 24 30.8419C24.0111 30.3923 24.0278 29.9372 24.2333 29.2871C24.5389 29.0596 24.65 29.0325 24.7667 29C24.7667 29 24.7333 29.0325 24.7056 29.2004C25.15 29.8939 25.6222 30.4139 26.0945 30.934L26.1 30.9394Z" fill="#F1F2F3"/>
<path d="M60.9834 43C60.4786 43.8939 59.8352 44.6224 59.153 45.5224C59.1141 45.7 59.1529 45.7429 59.0254 45.6694C58.3764 46 57.8606 46.398 57.3392 46.802C57.3392 46.802 57.3669 46.8204 57.2171 46.802C56.8455 46.9612 56.6236 47.1449 56.4018 47.3286C56.4018 47.3286 56.4295 47.3469 56.2797 47.3163C55.9081 47.4694 55.6862 47.6592 55.4699 47.8429C55.4699 47.8429 55.5032 47.8612 55.3368 47.8184C54.9596 47.9714 54.7433 48.1612 54.5325 48.351C54.5325 48.351 54.5602 48.3755 54.3717 48.3082C52.8962 48.5041 51.6149 48.7673 50.145 49C47.2885 48.5837 44.626 48.1918 41.9636 47.8061C41.3091 47.598 40.6545 47.3898 40 47.1755C47.2718 47.5857 54.2662 46.3796 61 43H60.9834Z" fill="#F1F2F3"/>
<path d="M32.0332 32C30.0525 29.0485 30.1176 25.5619 30.0123 22.1259C29.9772 20.9543 30.0124 19.7771 30.1778 18.3408C30.4887 17.7494 30.6392 17.4283 30.7896 17.1016C30.7896 17.1016 30.7545 16.9946 30.94 17.0002C31.4816 17.4339 31.8376 17.8564 32.1385 18.4534C32.0733 19.3885 32.0633 20.1489 31.9479 21.0952C31.9078 22.937 31.978 24.5874 32.0432 26.4237C32.1034 27.0996 32.1736 27.5896 32.1836 28.2149C32.2438 28.5979 32.3591 28.8457 32.4845 29.2569C32.675 29.9328 32.8505 30.4398 32.9959 31.11C32.9959 31.4818 33.031 31.7015 32.8956 31.938C32.4945 31.9718 32.2638 31.9887 32.0332 32Z" fill="#CBCED0"/>
<path d="M32.0051 21.5785C32.0153 20.8695 32.0204 20.1658 32.1885 19.2836C32.5399 19.0735 32.7334 19.0368 32.927 19C33.1613 19.3571 33.5688 19.7037 33.5993 20.0766C33.8489 23.1014 33.9711 26.1368 34.2564 29.1564C34.399 30.6688 34.8115 32.1497 35 33.8355C34.8981 34.0245 34.6944 34.0455 34.618 33.9248C34.1749 33.1475 33.8132 32.4911 33.5331 31.7559C33.4109 31.4303 33.202 31.1887 32.9932 30.9419C32.8099 30.464 32.6265 29.9914 32.5501 29.3139C32.4992 28.8308 32.3413 28.5472 32.1885 28.2636C32.1171 27.8068 32.0509 27.3499 32.1273 26.6094C32.1834 24.7399 32.0917 23.1592 32 21.5732L32.0051 21.5785Z" fill="#191E21"/>
<path d="M41.1607 48C44.0436 48.1951 46.8225 48.5024 49.792 48.9512C49.9942 49.239 49.9942 49.3902 50 49.5415C48.1975 49.6976 46.395 49.8537 44.3845 50C42.5126 49.6976 40.8545 49.4049 39 49.0683C39.5488 48.722 40.2999 48.4195 41.1607 48.0049V48Z" fill="#191E21"/>
<path d="M68.2795 25.9459C68.502 25.5698 68.6715 25.3704 68.9894 25C68.9894 25.906 68.9894 26.6011 69 27.4729C67.8821 30.0997 66.7536 32.5499 65.6305 35L65 34.6866C66.0755 31.8319 67.1563 28.9772 68.2847 25.9402L68.2795 25.9459Z" fill="#DEDFE0"/>
<path d="M51.6103 42C51.7365 42.3373 51.8628 42.6696 52 43.1428C50.3751 43.8677 48.7557 44.5171 47.076 44.9954C46.8289 45.0659 46.3019 44.3158 46 43.8123C46.8783 43.5808 47.6633 43.4801 48.7557 43.2636C49.9085 42.7652 50.7594 42.3826 51.6103 42Z" fill="#8B9296"/>
<path d="M33.6336 32C34.0405 32.8375 34.4532 33.675 34.9346 34.861C35.0034 35.4707 35.0035 35.7387 34.9977 36C34.0061 34.8342 33.0145 33.6616 32 32.3015C32.2407 32.0871 32.5044 32.0737 33.0776 32.0335C33.3928 32.0067 33.6278 32 33.6278 32H33.6336Z" fill="#9CA1A6"/>
<path d="M27 28.9946C26.1353 28.5699 25.2529 27.9731 24.2059 27.3656C24.0353 27.3495 24.0294 27.3548 24.0529 27.1882C24.0529 26.6774 24.0294 26.3387 24 26C25.9824 26.0753 26.6 27.3495 27 29V28.9946Z" fill="#191E21"/>
<path d="M35.0068 36.0668C34.9943 35.7196 35.0006 35.5233 35.0131 35.1761C35.0256 35.0302 35.2826 35.0101 35.408 35C36.0222 35.624 36.5111 36.258 37 37.0983C37 37.3046 36.9812 37.4254 36.9812 37.4254C36.812 37.5361 36.6428 37.6518 36.392 37.8782C36.3106 37.994 36.3043 38.004 36.3043 37.999C35.8781 37.4002 35.4456 36.8064 35.0068 36.0617V36.0668Z" fill="#4D5458"/>
<path d="M26 18.345C26.9196 18.1784 27.8587 18.1023 29 18C28.7261 18.3158 28.2565 18.6579 27.7935 19C27.2 18.8129 26.613 18.6257 26.0065 18.345H26Z" fill="#191E21"/>
<path d="M24.2361 17C24.4398 17.3274 24.6389 17.6547 25 18.0388C24.7639 19.3105 24.4398 20.7081 23 19.5938C23.25 18.7691 23.5972 18.1332 23.9954 17.3526C24.1111 17.1385 24.1759 17.0693 24.2361 17Z" fill="#191E21"/>
<path d="M21.8264 26C21.4583 25.9665 21.1528 25.7207 21 25.1844C21.4375 23.2737 21.7222 21.6425 22 20.0112L21.9791 20C21.9514 21.9274 21.9167 23.8492 21.8194 25.9944L21.8264 26Z" fill="#484E53"/>
<path d="M32.9901 18.7183C32.8074 18.9155 32.6197 18.9549 32.3383 19C31.8889 18.5831 31.5383 18.1606 31 17.6761C31.2519 17.3268 31.6963 17.0451 32.2346 17C32.5556 17.4676 32.7778 17.7042 33 17.9408C33 18.1493 32.9901 18.3577 32.9951 18.7239L32.9901 18.7183Z" fill="#4D5458"/>
<path d="M31.296 42.3643C31.5172 42.6279 31.7383 42.8915 32.1555 43.2636C32.432 43.3721 32.5074 43.3798 32.5878 43.3876C32.5878 43.3876 32.5426 43.3876 32.5476 43.5426C32.7034 43.7985 32.8492 43.8992 33 44C32.0349 43.5116 31.0698 43.0155 30.0343 42.2946C29.9639 42.062 29.9991 42.0388 30.165 42C30.6526 42.093 30.9743 42.2326 31.296 42.3643Z" fill="#DEDFE0"/>
<path d="M24 17.6829C23.5421 18.1337 23.0903 18.5845 22.5835 19.1558C22.4369 19.4816 22.3392 19.6914 22.1133 19.9592C21.9851 20.0216 21.9973 20.0261 22.0034 19.8743C22.1744 18.8166 22.3331 17.9105 22.498 17C22.498 17 22.5102 17.0089 22.6323 17.0714C23.0597 17.3392 23.365 17.549 23.7435 17.7097C23.8168 17.665 24 17.6829 24 17.6829Z" fill="#484E53"/>
<path d="M23.9304 27C23.6203 26.3334 23.3101 25.6667 23 25.0001C23.3228 25.0001 23.6456 24.9813 24 25.4789C24 26.324 23.962 26.662 23.9304 27Z" fill="#191E21"/>
<path d="M25 28.6543C24.8635 28.869 24.7499 28.9048 24.4599 28.9704C24.2836 29.0061 24.1017 29.0061 24.0164 28.9882C23.9709 28.4874 24.0164 28.0044 24.1983 27.3306C24.4997 27.0921 24.6703 27.0444 24.8408 27.0027C24.8977 27.4916 24.9602 27.9865 25 28.6603V28.6543Z" fill="#B3B7BA"/>
<path d="M41 43C40.1374 42.9282 38.1337 43.2345 39.4186 42C40.0296 42.2249 40.5148 42.5407 41 43Z" fill="#191E21"/>
<path d="M29.9335 42C29.7642 41.963 29.5888 41.9074 29.2683 41.8407C29.1172 41.8259 29.0567 41.8667 29.1232 41.7963C29.1293 41.6704 29.0688 41.6148 29.0023 41.4593C28.9962 41.2333 28.9902 41.1037 29.1535 41C29.5465 41.0296 29.7763 41.0333 30 41.037C30 41.037 29.9879 41.0333 29.9698 41.1481C29.9577 41.4963 29.9698 41.7333 29.9698 41.9667C29.9698 41.9667 29.9214 41.9778 29.9274 41.9963L29.9335 42Z" fill="#F1F2F3"/>
<path d="M33 18C32.5762 17.8 32.2781 17.4963 32 17C32.3841 17.1704 32.7616 17.5259 33 18Z" fill="#191E21"/>
<path d="M25 26.7986C24.8061 26.9388 24.635 26.964 24.3384 27C24.1558 26.9424 24.1045 26.8777 24.0075 26.7086C23.9847 26.4748 24.0189 26.3417 24.0417 26.1151C24.2414 26.0108 24.4467 26.0036 24.8004 26C24.9772 26.2302 25 26.4568 25 26.7986Z" fill="#484E53"/>
<path d="M33 11C33.1 10.694 33.45 10.3707 34 10C33.8833 10.2974 33.5667 10.6379 33 11Z" fill="#191E21"/>
<path d="M37.0523 37.3483C36.9815 37.2079 36.9992 37.0674 37.011 37C37.3531 37.1629 37.6894 37.3876 37.9961 37.6404C38.0256 37.6629 37.8782 37.8764 37.8133 38C37.5832 37.8315 37.3472 37.6573 37.0464 37.3483H37.0523Z" fill="#191E21"/>
<path d="M22.9291 28.0075C23.0931 28.4784 22.9619 28.939 22.6449 30C22.2623 29.0322 22.1202 28.6596 22 28.1369C22.2296 27.9868 22.4263 27.9919 22.9291 28.0075Z" fill="#191E21"/>
<path d="M37.0124 46C37.4568 46.1111 37.7284 46.3949 38 46.6787C37.8765 46.7897 37.6667 47.0118 37.6544 46.9995C37.3704 46.7404 37.0988 46.4442 37 46H37.0124Z" fill="#191E21"/>
<path d="M32 13C32.0833 12.6959 32.4167 12.3684 33 12C32.9167 12.2982 32.5833 12.6374 32 13Z" fill="#191E21"/>
<path d="M33.5158 43.9887C33.276 43.8422 33.1448 43.7069 33 43.2785C33.276 42.9742 33.5656 42.9403 34 43.0756C33.9729 43.4814 33.7964 43.7407 33.5158 44V43.9887Z" fill="#191E21"/>
<path d="M31 44.0093C30.9767 44.3458 30.6511 44.6729 30.3488 45C30.186 44.785 30.0233 44.5701 30 44.1776C30.1395 44 30.7209 44 31 44V44.0093Z" fill="#191E21"/>
<path d="M31.1372 71.8368C31.3889 71.4323 31.6462 71.0222 32.1664 70.4773C33.9843 69.7694 35.5336 69.2021 37.234 68.6796C37.6368 68.5672 37.8829 68.4099 38.2688 68.247C38.5933 68.2133 38.7779 68.1852 39.1414 68.2021C41.6752 67.7808 43.7168 67.0167 43.6106 64C46.1668 64.2079 48.5104 64.3932 50.9044 64.7359C51.5085 65.2696 52.0622 65.6572 53.1418 66.4044C51.542 66.292 50.6135 66.2246 49.685 66.1572L49.4222 66.8033C49.9759 67.1459 50.4905 67.6459 51.0946 67.7976C52.7335 68.2021 54.4059 68.4549 56 68.9155C55.7595 69.2245 55.6085 69.4998 55.4183 69.5223C52.3531 69.9436 49.2655 70.2133 46.2283 70.7638C43.7168 71.2188 41.1047 71.584 39.2197 73.6682C33.3522 80.1398 31.0701 88.0103 30.6282 96.5044C30.3933 100.999 30.4268 101.246 26.1814 102.976C25.8402 102.993 25.6445 103.004 25.2697 102.999C24.716 102.959 24.3468 102.942 24 102.763C25.3424 101.212 26.2709 99.8919 26.4946 97.6785C26.9701 92.8978 27.7308 88.0328 29.2578 83.5049C31.0309 78.2467 33.5871 73.1907 39.1414 70.6571C39.5106 70.4885 39.7008 69.9211 39.9748 69.5447C39.8126 69.2807 39.656 69.0167 39.4938 68.7526C37.3851 69.7301 35.2484 70.6458 33.19 71.7188C32.4517 72.1064 31.9259 73.1008 31.1484 71.848L31.1372 71.8368Z" fill="#757B81"/>
<path d="M30.7541 71.0998C31.6897 72.3252 32.2267 71.3404 32.9948 70.9544C35.1201 69.8856 37.3261 68.9736 39.5034 68C39.6708 68.263 39.8325 68.526 40 68.7889C39.717 69.1694 39.5207 69.729 39.1395 69.8968C33.4049 72.4203 30.7657 77.4618 28.935 82.6935C27.3526 87.2033 26.5729 92.0489 26.0821 96.8106C25.8568 99.0152 24.8924 100.33 23.3273 101.88C22.7614 102.048 22.4033 102.042 22.0395 101.846C21.745 100.694 21.4504 99.7314 21.1328 98.6011C21.052 98.2094 21.0058 97.9856 21 97.7786C21.0462 97.7954 21.127 97.8457 21.3061 97.829C23.0501 97.331 22.669 96.4189 22.0222 95.2886C21.9067 94.6116 21.8085 94.0968 21.8894 93.5709C23.9742 92.6364 22.9289 91.7132 22.0568 90.6557C22.0684 90.4375 22.0857 90.3535 22.2878 90.2584C22.7845 90.0458 23.3158 89.8891 23.3678 89.6373C23.9106 86.9907 24.4073 84.3385 24.8289 81.6695C24.8635 81.4289 24.2745 81.0988 23.9799 80.6511C24.3091 79.9629 24.6267 79.4369 25.0541 79.0229C25.5912 78.4466 26.0185 77.7527 26.6191 77.0365C28.2939 75.3747 30.8638 74.4011 30.3903 71.5419C30.4711 71.3964 30.552 71.2565 30.7656 71.0942L30.7541 71.0998Z" fill="#7F878C"/>
<path d="M36.3594 68.3028C34.799 68.863 33.2386 69.4176 31.498 70C31.2952 69.6395 31.2783 69.2623 31.4247 68.6689C33.6104 68.0255 34.9567 66.8663 35.8355 64.7587C32.388 64.7587 29.194 64.7587 26 64.7587C27.5829 64.3816 29.1658 63.9989 30.8783 63.5885C30.084 63.4554 29.2109 63.3112 28.242 62.9395C29.4137 62.1631 30.6812 61.6195 31.9486 61.0704C35.5651 60.7266 39.1816 60.3827 43.0065 60C45.7612 60.3106 48.3017 60.6656 51 61.2313C50.493 61.7804 49.8452 62.3516 49.1636 62.396C47.3046 62.518 45.4288 62.3405 43.5642 62.4404C42.9333 62.4737 42.3249 62.9895 41.5194 63.3056C39.9871 63.5108 38.6465 63.6883 37.3058 63.8713C40.4829 64.5424 39.2999 66.2008 38.2465 67.8314C38.0606 67.8591 37.8747 67.8869 37.4635 67.8314C36.9452 67.9368 36.6467 68.1198 36.3538 68.3028H36.3594Z" fill="#272C2F"/>
<path d="M15.2342 76.3789C17.1216 75.1568 18.8882 74.0784 20.6605 73C20.7756 73.1604 20.8849 73.3152 21 73.4756C20.9367 73.6857 20.9482 73.9622 20.8101 74.0894C17.5129 77.0481 17.1446 80.9634 16.7821 84.9506C16.2758 90.5582 15.5968 96.1547 14.9638 102C12.9153 101.248 12.9498 99.9373 13.0246 98.6432C13.3239 93.6938 13.5713 88.7443 13.9913 83.8059C14.1985 81.3616 14.7336 78.9449 15.24 76.3789H15.2342Z" fill="#484E53"/>
<path d="M26.5103 65.0775C29.6896 65 32.7243 65 36 65C35.165 67.2653 33.8858 68.5112 31.8091 69C30.3372 68.6185 29.0205 68.225 27.7145 67.7958C26.5584 67.4143 25.4184 66.9911 24 66.4844C24.8885 65.9836 25.6325 65.5663 26.5156 65.0775H26.5103Z" fill="black"/>
<path d="M32 61.0455C30.9366 61.5253 29.697 62.0253 28.3581 62.6465C27.2782 62.904 26.303 63.0404 25.1791 63.0707C25.2397 62.7778 25.4545 62.5909 26.1763 61.9596C23.0413 62.7424 20.5234 63.3687 18 64C18.8264 63.5556 19.5978 62.9293 20.4903 62.697C22.6226 62.1414 24.8099 61.7677 27.3443 61.2727C28.3581 61.1515 29.0083 61.0758 29.6584 61C30.3802 61.0202 31.1019 61.0455 32 61.0455Z" fill="#CBCED0"/>
<path d="M17.7095 64.2303C20.2682 63.5517 22.8212 62.8621 26 62C25.2626 62.6952 25.0503 62.901 24.7933 63.257C24.3576 63.8187 23.9665 64.2191 23.3352 64.4527C20.9777 64.8754 18.8603 65.4594 16.743 66.0489C16.743 66.0489 16.771 66.0545 16.5922 66.0267C15.2737 66.327 14.1341 66.6663 13 67C13.2458 66.822 13.4916 66.6496 14 66.327C14.7877 65.8376 15.3128 65.4872 15.8436 65.1424C15.8436 65.1424 15.838 65.1201 16.0056 65.1424C16.6983 64.842 17.2123 64.525 17.7318 64.2024C17.7318 64.2024 17.7039 64.2136 17.7095 64.2303Z" fill="#30363A"/>
<path d="M24.9715 79.5311C24.6266 80.0242 24.2878 80.5121 23.8136 81.1869C23.5734 81.4827 23.4563 81.5969 23.2038 81.7266C23.0129 82.0381 22.9636 82.3235 22.9082 82.7699C22.8712 83.2474 22.8404 83.5692 22.6679 83.9118C22.4832 84.2232 22.4462 84.5138 22.3846 84.9602C22.2245 85.7439 22.0767 86.3668 21.7625 86.9896C21.473 86.9896 21.356 86.9948 21.2451 87C20.3335 84.192 22.0582 79.5623 24.8668 78C25.0331 78.6228 25.0085 79.0796 24.9777 79.5311H24.9715Z" fill="#30363A"/>
<path d="M19 102C19.5181 98.6121 20.0308 95.2242 20.7518 92C20.9868 92.6909 21.0188 93.2182 20.9921 93.9515C20.9387 94.7394 20.9441 95.3151 20.928 96.097C20.9227 97.0182 20.9334 97.7333 20.9494 98.4424C20.9494 98.4424 20.8746 98.3879 20.709 98.4061C20.5114 98.7576 20.4794 99.097 20.426 99.6182C20.2444 100.521 20.0735 101.236 19.7584 101.952C19.4059 101.97 19.203 101.982 19 101.994V102Z" fill="#30363A"/>
<path d="M29.9033 72.0051C30.5247 74.605 28.011 75.4971 26.3615 76.9958C26.1864 77.0111 26.1638 76.9907 26.1581 76.8225C26.1017 76.4402 26.0508 76.221 26 76.0018C27.2484 74.6713 28.4968 73.3356 29.9033 72V72.0051Z" fill="#757B81"/>
<path d="M17.0054 66C18.8626 65.602 20.8912 65.2566 23 65C21.9349 65.3026 20.7841 65.5132 19.4781 65.7566C18.6004 65.8783 17.8885 65.9638 17 66H17.0054Z" fill="#B3B7BA"/>
<path d="M22.0384 102.509C22.408 102.509 22.7835 102.516 23.3378 102.509C23.9159 102.522 24.3093 102.54 24.8874 102.758C25.0365 103.298 25.0067 103.652 24.9709 104C23.606 103.882 22.2411 103.77 20.6676 103.708C20.3159 103.658 20.1728 103.547 20 103.124C20 102.534 20.0238 102.255 20.2205 102C20.9358 102.186 21.4841 102.342 22.0325 102.503L22.0384 102.509Z" fill="#5F666B"/>
<path d="M21.1351 93.9513C21.1 93.4219 21.065 92.8925 21.0007 92.1623C20.9948 91.7485 21.024 91.5294 21.2053 91.1522C21.5618 90.9939 21.7664 91 21.9652 91C22.842 92.0041 23.9001 93.0081 21.6729 94C21.3748 93.9878 21.1351 93.9452 21.1351 93.9452V93.9513Z" fill="#757B81"/>
<path d="M21.9501 90.8722C21.7381 91.007 21.5198 91.007 21.1457 90.9953C20.9524 90.017 20.9212 89.0445 21.2392 88.0252C21.7007 87.9784 21.8129 87.9784 21.9252 88.1892C21.9501 89.0855 21.9751 89.7768 22 90.468C21.9813 90.5559 21.9626 90.6496 21.9501 90.8781V90.8722Z" fill="#30363A"/>
<path d="M25.0357 79C24.9835 78.3983 24.9995 77.9081 25.0156 77.2396C25.0116 77.0557 25.1482 77.0223 25.329 77.0223C25.6665 77.0167 25.8192 77.0111 25.9759 77C25.9759 77 25.992 77.0223 26 77.0334C25.7067 77.7354 25.4053 78.4262 25.0357 78.9944V79Z" fill="#757B81"/>
<path d="M20 102.31C19.9735 102.495 19.9471 102.679 19.8783 103C19.5609 102.836 19.291 102.536 19 102.112C19.1852 101.981 19.3863 101.973 19.7725 102.047C19.9683 102.191 19.9841 102.248 19.9947 102.31H20Z" fill="#484E53"/>
<path d="M53.3451 93.9613C52.4473 95.0229 51.7652 96.4572 50.6168 97.0727C47.9176 98.507 45.2242 100.167 41.7205 99.9864C40.1581 98.0552 39.7384 96.0902 40.1465 93.9726C40.5954 91.6462 40.9043 89.2802 41.6097 87.0271C44.3322 78.3424 48.9494 73.1022 58.1838 73.0005C61.0345 72.9666 62.3054 74.6211 61.9382 77.3711C61.3377 81.8772 58.5336 85.0846 55.5604 88.275C53.4267 90.5676 51.4912 93.0353 49.4683 95.4239C49.5965 95.5594 49.719 95.7005 49.8472 95.8361C51.0132 95.2149 52.1791 94.5881 53.3451 93.967V93.9613Z" fill="#484E53"/>
<path d="M53.3199 93.8362C52.0878 94.5198 50.9777 95.1412 49.8677 95.7684C49.7456 95.6328 49.6291 95.4915 49.507 95.3559C51.4328 92.9661 53.2755 90.4972 55.3068 88.2034C58.1374 85.0113 60.807 81.8079 61.3786 77.2938C61.7283 74.5424 60.5184 72.8927 57.8044 72.9209C49.013 73.0226 44.6173 78.2655 42.0254 86.9548C41.3539 89.209 41.0542 91.5819 40.6324 93.904C40.2439 96.0226 40.6435 97.9887 41.9367 99.9209C41.7036 100.181 41.4482 100.26 40.921 100.452C39.9941 100.876 39.3337 101.192 38.6732 101.508C37.5576 101.672 36.442 101.836 34.9768 102C34.4107 101.989 34.1943 101.983 34 101.808C34.4107 100.825 35.2266 99.9435 35.1156 99.2034C34.0389 91.9717 36.0813 85.4915 39.3059 79.1977C41.8867 74.1582 45.6885 71.3503 51.3718 70.9266C53.7362 70.7514 56.0339 69.6497 58.537 69C60.2742 69.6102 61.8282 70.1864 63.2879 70.9661C63.1546 71.4746 63.0214 71.8192 63.1102 72.0904C63.8984 74.5819 64.5977 77.0508 63.1991 79.5819C63.1269 79.7175 63.6486 80.1864 63.865 80.6667C62.6329 82.6554 61.4286 84.4802 60.2297 86.3051C58.5925 87.9774 56.9552 89.6497 55.0349 91.4463C54.5409 92.0282 54.33 92.4859 54.1246 92.9435C53.8971 93.226 53.6695 93.5028 53.3199 93.8475V93.8362Z" fill="#555C60"/>
<path d="M58 69.6836C55.6994 70.3399 53.4262 71.4008 51.0872 71.5758C45.4647 71.986 41.698 74.704 39.1503 79.5822C35.9602 85.68 33.9396 91.9473 35.0048 98.9474C35.1146 99.6639 34.3075 100.517 33.7035 101.474C31.6005 102.092 29.7227 102.546 27.8394 102.994C27.499 103.005 27.1585 103.011 26.5985 102.907C26.2526 102.573 26.1263 102.355 26 102.136C30.0247 100.451 29.9918 100.211 30.2224 95.8357C30.6561 87.5667 32.8964 79.9049 38.6561 73.6048C40.5065 71.5813 43.0762 71.2258 45.536 70.7774C48.5175 70.2414 51.5484 69.9789 54.5573 69.5688C54.744 69.5414 54.8923 69.2789 55.2986 69C56.3528 69.1422 57.1764 69.4102 58 69.6781V69.6836Z" fill="#5F666B"/>
<path d="M60.5432 86.5054C61.7481 84.5879 62.942 82.8383 64.2574 80.7908C64.7438 79.5937 65.3296 78.7271 65.4512 77.7954C65.7165 75.7425 67.0375 73.5921 65.0201 71.5121C61.9029 69.9846 58.8906 68.5817 56 67.1354C56.1824 67.0542 56.2598 67.0217 56.514 67C57.0557 67.0217 57.4149 67.0271 57.9234 67.0813C58.5756 67.2492 59.073 67.3683 59.6921 67.5525C59.891 67.6067 59.9795 67.5958 60.2227 67.65C62.1792 68.3487 64.0031 68.9283 65.7718 69.6379C67.9716 70.5208 69.8508 71.7612 70 74.4533C69.685 76.2029 69.5578 77.855 69.4307 79.6587C69.3865 80 69.3312 80.195 69.2815 80.39C68.0931 82.2533 66.8993 84.1113 65.722 85.9854C65.2522 86.7329 64.8654 87.5292 64.3734 88.255C63.5831 89.4142 62.8093 90.6058 61.8752 91.6512C61.3557 92.2362 60.5322 92.5613 59.8468 93C59.4212 92.0629 58.5314 91.0446 58.6861 90.2104C58.9183 88.9646 59.891 87.8488 60.5487 86.5108L60.5432 86.5054Z" fill="#272C2F"/>
<path d="M62.0055 95.9945C63.8705 91.9541 65.7355 87.9138 67.7942 84C67.9935 84.5064 68.0045 84.8862 67.999 85.3817C67.9879 85.4973 67.9381 85.7229 67.7777 85.7725C67.2962 86.4881 67.0029 87.1761 66.6376 87.8257C65.1047 90.556 63.5496 93.2752 62 96L62.0055 95.9945Z" fill="#757B81"/>
<path d="M62.0563 96.7812C63.6717 93.793 65.2533 90.8984 66.8124 87.9922C67.1838 87.3008 67.4822 86.5742 68 86C67.5666 88.332 66.9418 90.5234 66.2157 92.8027C66.0244 93.166 65.94 93.4355 65.7148 93.7813C64.409 95.2988 63.2439 96.7461 62.0788 98C62.045 97.5605 62.0225 97.3144 62 97.0625C62 97.0625 62.0281 96.8691 62.0675 96.7812H62.0563Z" fill="#8B9296"/>
<path d="M48 103C45.5154 103.366 42.8287 103.722 40 104C42.5065 103.613 45.1495 103.299 48 103Z" fill="#4D5458"/>
<path d="M69.0048 83C69.2602 82.1657 69.5157 81.337 69.906 80.2983C70.0602 79.8066 70.0843 79.5193 70.1036 79.0497C70.1904 77.895 70.2723 76.9227 70.5133 76C70.812 77.5801 70.9614 79.105 71 80.7238C70.4699 81.5304 70.0506 82.2431 69.4723 82.9558C69.2121 82.9668 69.106 82.9834 69 83H69.0048Z" fill="#B3B7BA"/>
<path d="M28.0058 102.952C29.7674 102.627 31.7492 102.317 33.9454 102C34.38 102 34.606 102.008 35 102.019C33.8237 102.336 32.5083 102.722 31.1233 102.93C30.202 103.069 29.1937 102.96 28 102.948L28.0058 102.952Z" fill="#484E53"/>
<path d="M61.8536 97C62.0144 97.1651 62.0345 97.3624 61.9541 97.7615C61.502 98.3119 61.1503 98.656 60.8037 99C60.5877 98.9908 60.3767 98.9816 60 98.9541C60.4672 98.2982 61.0901 97.6651 61.8536 97Z" fill="#757B81"/>
<path d="M37 104C36.5039 104.394 35.8372 104.727 35 105C35.4961 104.606 36.1628 104.273 37 104Z" fill="#4D5458"/>
<path d="M39 102C39.4762 101.663 40.1429 101.331 41 101C40.5238 101.337 39.8571 101.669 39 102Z" fill="#484E53"/>
<path d="M68.372 83.0587C68.5715 82.9803 68.6901 82.9656 68.9381 83.1077C69.0406 83.5686 69.0136 83.8774 68.8734 84.25C68.5338 84.5441 68.2965 84.7696 68.0647 85C68.0539 84.6617 68.0485 84.3235 68 83.8137C68.0701 83.4705 68.1779 83.2989 68.372 83.0587Z" fill="#8B9296"/>
<path d="M25.5702 103C25.7708 103.17 25.8649 103.34 26 103.6C25.7544 103.796 25.4679 103.906 25.0667 104C24.9726 103.749 24.9971 103.511 25.0258 103.153C25.1772 103.026 25.3205 103.013 25.5702 103Z" fill="#484E53"/>
<path d="M54 93C54.1111 92.7076 54.4359 92.3644 55 92C54.8974 92.3051 54.5556 92.6271 54 93Z" fill="#484E53"/>
<path d="M69.9925 79C69.955 79.2988 69.9249 79.5977 69.7297 79.9425C69.452 79.9942 69.3394 80 69.0466 80C68.9415 79.7874 69.009 79.5805 69.3018 79.1954C69.6847 79.0115 69.8423 79.0057 70 79H69.9925Z" fill="#757B81"/>
<path d="M4.14872 81.9767C5.05594 80.3394 5.96317 78.6962 7 77C6.8656 78.496 6.59679 80.0508 6.46239 81.7175C6.37118 82.1887 6.15037 82.548 5.82396 82.9602C5.25754 83.0133 4.79672 83.0133 4.0719 82.9602C3.92309 82.5951 4.03351 82.2888 4.14872 81.9767Z" fill="#5F666B"/>
<path d="M13.0017 67.3661C14.2725 66.81 15.5309 66.3913 17 66C16.5723 66.5149 15.94 67.0022 15.2023 67.6475C14.4026 67.929 13.7145 68.0457 13.0141 67.9839C13.0079 67.7985 12.9955 67.5102 13.0017 67.3661Z" fill="#B3B7BA"/>
<path d="M50.4397 64.3459C48.0868 64.1626 45.734 63.9792 43.1678 63.6846C42.9488 63.5791 42.9432 63.4123 43.1566 63.3846C47.1322 63.3568 50.8945 63.3568 54.6568 63.3568C54.6568 63.2734 54.6568 63.1956 54.6568 63.1123C54.1233 62.9845 53.5898 62.8566 53.0564 62.7233C53.0732 62.4843 53.0957 62.2454 53.1126 62.0008H68.0156C68.0156 62.0008 67.9875 61.9786 68.0717 62.162C68.8972 62.3843 69.6384 62.4232 70.3796 62.4621C70.3796 62.4621 70.4919 62.5288 70.6379 62.6344C71.1265 62.94 71.469 63.1401 71.9182 63.3734C72.0193 63.4068 72.2383 63.4179 72.2383 63.4179C72.2383 63.4179 72.2608 63.3846 72.3057 63.5457C74.3665 65.0183 76.3768 66.3298 78.3871 67.6413C78.3871 67.6413 78.4207 67.608 78.432 67.7691C78.8981 68.1748 79.3529 68.4248 79.8751 68.8083C81.1386 69.7752 82.3346 70.6032 83.5531 71.4257C83.5756 71.4201 83.5868 71.3757 83.5138 71.5479C83.6542 71.7647 83.862 71.8091 84.0585 71.8536C84.0417 71.848 84.0136 71.8758 83.9968 72.0425C84.1652 72.2481 84.3618 72.2926 84.5527 72.337C84.5527 72.337 84.5751 72.3037 84.5358 72.4649C84.6818 72.6927 84.8727 72.7538 85.0749 72.9761C85.5297 73.9597 85.9677 74.7822 86.4731 75.7658C87.3603 78.8 88.1802 81.673 89 84.7683C88.9719 89.3529 88.9438 93.7208 88.7417 98.0608C88.2026 97.1884 87.8433 96.3437 87.3266 95.1378C86.3384 96.5604 85.4848 97.7774 84.6369 99C84.4797 97.105 84.3224 95.2101 84.1596 92.915C83.9743 90.7811 83.789 89.0472 83.6205 87.1245C82.8512 84.6849 82.0707 82.4343 81.2846 80.0114C80.4086 78.4165 79.7291 76.8216 78.6285 75.5991C73.9959 70.4532 67.937 67.7802 61.1031 66.2076C57.4307 65.5685 53.938 64.9572 50.4509 64.3459H50.4397Z" fill="#F1F2F3"/>
<path d="M83.49 87C83.6674 88.7975 83.8448 90.595 84 92.6115C83.8392 93.107 83.5953 93.3835 83.5842 93.6716C83.3791 100.827 82.5974 99.2024 76.2828 100.504C71.3985 101.513 66.3313 101.553 61.3472 101.997C61.0035 102.025 60.6376 101.864 60 101.732C60.4047 100.862 60.7152 100.182 61.0589 99.3234C61.4691 98.7185 61.8517 98.2806 62.3618 97.7736C63.6313 96.2814 64.7734 94.8584 66.176 93.4642C65.4886 95.5958 64.5405 97.6929 63.3486 100.332C66.4588 100.067 69.1421 99.8419 72.0305 99.6115C73.3333 99.5884 74.431 99.5711 75.7173 99.5654C78.8921 98.8932 80.7272 97.0227 81.2224 93.9539C81.422 92.7037 81.3222 91.3671 81.7048 90.186C82.0707 89.0453 82.8801 88.0543 83.49 87Z" fill="#B3B7BA"/>
<path d="M84 99.1919C84.9771 97.7502 85.9739 96.4822 87.1424 95C87.7498 96.2564 88.1789 97.1365 88.8721 98.2018C89.0834 98.6071 89.024 98.8213 88.7599 99.0645C87.9017 100.066 87.2481 101.033 86.5945 102C85.8485 101.653 85.1025 101.305 84.2839 100.801C84.1518 100.211 84.0858 99.7825 84 99.1861V99.1919Z" fill="#DEDFE0"/>
<path d="M3.98212 81.838C4.05623 82.162 3.87836 82.4581 3.84131 82.8492C3.69309 83.5251 3.41148 84.1006 2.97422 85C2.71483 83.9944 2.53697 83.3017 2.18865 82.4972C2.02561 82.3855 2.01816 82.3799 2.01816 82.3799C2.01816 81.5587 2.01819 80.7374 2.00337 79.7095C1.98855 79.5028 2.01819 79.5307 2.18123 79.4357C2.43321 78.8939 2.53695 78.4469 2.6333 78C2.95938 78.2179 3.29288 78.4358 3.78942 78.6369C3.88577 79.6872 3.81166 80.7486 3.98212 81.8436V81.838Z" fill="#3E4347"/>
<path d="M18 64C17.558 64.4084 16.8841 64.712 16 65C16.4493 64.623 17.1087 64.2565 18 64Z" fill="#CBCED0"/>
<path d="M15.9931 65.0063C15.4936 65.4107 14.8434 65.6774 14.0153 66C13.9537 65.8365 14.0838 65.6172 14.2959 65.2902C14.8708 65.0795 15.3635 64.9719 16 65.0063H15.9931Z" fill="#CBCED0"/>
<path d="M23.6083 31C24.5331 32.8462 25.2754 34.7136 26 36.7572C25.9823 36.9386 25.9529 36.96 25.7349 36.9707C25.3638 37.0027 25.2165 37.024 24.9573 36.9493C24.2209 35.6794 23.6024 34.5109 22.9838 33.3424C22.8248 32.9795 22.6657 32.6114 22.4124 32.1685C22.218 31.8751 22.1237 31.667 22 31.2828C22.4595 31.08 22.9426 31.048 23.6083 31Z" fill="#B3B7BA"/>
<path d="M23 33C23.7598 34.2071 24.3464 35.4541 25.0838 36.9801C25.6313 37.8228 26.0279 38.3922 26.419 39.0356C26.4525 39.2235 26.5307 39.2804 26.8603 39.5594C27.3799 40.2313 27.6872 40.6128 28 41C24.5643 39.5025 23.4749 36.4221 23 33.0057V33Z" fill="#13171A"/>
<path d="M28.0602 40.8447C27.6984 40.41 27.3492 39.9938 27 39.2236C27.3174 38.9317 27.6412 38.9876 27.9587 39.0497C28.1809 39.2857 28.4031 39.5218 28.7904 39.9441C28.9491 40.1242 28.9999 40.3665 28.9999 40.3665C28.9999 40.5839 29.0126 40.8013 28.7586 41.0932C28.3714 41.4472 28.2444 41.7267 28.1174 42C28.0984 41.6211 28.0857 41.236 28.0539 40.8447H28.0602Z" fill="#DEDFE0"/>
<path d="M28.0523 41.9995C27.9059 41.5679 28.0677 41.2347 28.53 41C28.923 41.2196 29 41.3407 29 41.6512C28.7303 41.9313 28.5377 42.0071 28.0523 41.9995Z" fill="#13171A"/>
<path d="M86.4209 76C86.0027 75.0133 85.5898 74.02 85.1394 72.6867C85.0751 72.24 85.0375 72.1467 85 72.0467C85.2306 72.0267 85.4558 72.0067 85.8633 72C86.3673 72.5667 86.6944 73.12 87 73.9467C86.9786 74.22 86.8445 74.44 86.7319 74.54C86.555 75.0933 86.4853 75.5467 86.4209 76Z" fill="#B3B7BA"/>
<path d="M87.1792 74C87.5047 74.3699 87.7642 74.8558 88 75.6101C87.9717 75.8785 87.8396 76.0743 87.7358 75.9728C87.4198 75.3708 87.2123 74.8631 87 74.3554C87 74.3554 87.1179 74.116 87.1792 74Z" fill="#B3B7BA"/>
<path d="M88.3846 76C88.6154 76.1943 88.8376 76.3887 89 76.7574C88.9316 76.9318 88.6923 77.0465 88.5299 76.9817C88.1966 76.6976 88.0342 76.4834 88 76.1993C88.1282 76.1345 88.3846 76 88.3846 76Z" fill="#B3B7BA"/>
<path d="M68 61.8559C63.1296 61.9645 58.1523 61.9645 53.1806 61.9645C53.1638 62.1441 53.1412 62.3236 53.1244 62.5073C53.6587 62.6033 54.193 62.6994 54.7272 62.7996C54.7272 62.8622 54.7272 62.9207 54.7272 62.9833C50.9591 62.9833 47.191 62.9833 43.0404 63C42.4387 63 42.2193 62.9791 42 62.9582C42.6186 62.737 43.2204 62.3528 43.8503 62.3236C45.7062 62.2484 47.5847 62.3779 49.4406 62.2902C50.1211 62.2568 50.7679 61.8267 51.4597 61.4593C55.1322 61.2338 58.7765 61.1211 62.6234 61C64.5187 61.2463 66.2059 61.4969 67.9944 61.8601L68 61.8559Z" fill="#191E21"/>
<path d="M55.8055 8.78522C56.717 9.86085 57.4429 10.9781 58 12.2667C57.4767 12.5629 57.1165 12.6824 56.6157 12.9111C56.3682 13.6957 56.2556 14.3712 55.9912 15C54.2299 12.1992 52.6262 9.45035 51.0281 6.6963C51.0281 6.50924 51.0225 6.32217 51 6C51.6302 6.49885 52.1873 7.25751 52.9469 7.74076C53.7347 8.23961 54.7138 8.47344 55.8055 8.78522Z" fill="#697075"/>
<path d="M77.985 67C75.9718 66.1174 74.0186 65.116 72 64C73.915 64.5431 75.9063 65.1754 77.8486 65.8925C78.0668 65.9731 77.985 66.5417 77.985 67Z" fill="#272C2F"/>
<path d="M82.9299 70.9956C81.99 70.3363 81.0502 69.677 80.0662 68.7743C80.0132 68.354 80.0044 68.177 80 68C80.8648 68.6416 81.7297 69.2876 82.621 70.1637C82.7622 70.4602 82.8769 70.5221 82.9961 70.5841C82.9961 70.5841 83.0049 70.5619 82.9961 70.677C82.9696 70.8628 82.9475 70.9292 82.9299 71V70.9956Z" fill="#4D5458"/>
<path d="M79.7291 68.0147C79.992 68.3122 80 68.5662 80 69C79.3386 68.9132 78.6932 68.6344 78 68.1882C78.4621 68.0023 78.9721 67.9775 79.7291 68.0147Z" fill="#272C2F"/>
<path d="M84.5744 72.0138C84.8298 72.2208 84.9043 72.414 85 72.9385C84.6702 73.1041 84.3085 72.9385 84 72.4002C84.0426 72.0138 84.4042 72 84.5851 72L84.5744 72.0138Z" fill="#4D5458"/>
<path d="M24.3879 16.9145C24.3284 17.0419 24.1606 17.0253 24.0903 16.8758C24.0145 15.9457 24.0091 15.1595 24.0037 14.3789C24.0037 14.3789 23.9658 14.3456 24.1336 14.3456C24.3446 14.0356 24.388 13.7256 24.4313 13.4155C24.4313 13.4155 24.388 13.4155 24.5341 13.4654C24.756 13.3269 24.8263 13.1387 24.8967 12.9449C24.7668 12.6127 24.6315 12.2806 24.5233 11.821C25.741 10.2432 26.883 8.73727 28.1494 7.3587C28.669 6.79399 29.4754 6.50056 30.2494 6.25142C30.3468 6.42305 30.3251 6.41752 30.3197 6.58914C30.4713 6.63344 30.6228 6.5061 30.7689 6.38983C30.7581 6.40091 30.7418 6.41752 30.9042 6.51163C31.5861 6.06872 32.1003 5.53723 32.6199 5.0002C32.6199 5.0002 32.5874 4.98912 32.6632 5.13307C32.9392 5.26041 33.134 5.23826 33.3343 5.21612C33.5075 5.57045 33.6861 5.91924 34 6.55593C31.0233 9.68399 27.8626 13.0003 24.691 16.4605C24.599 16.6654 24.5233 16.7263 24.3879 16.9145Z" fill="#DEDFE0"/>
<path d="M21.9995 17C22.0095 17.9712 21.8739 19.0089 21.7383 20.2256C21.5324 21.892 21.3214 23.3847 21 25C21.2059 22.439 21.5324 19.7553 21.9945 17H21.9995Z" fill="#191E21"/>
<path d="M23.7988 15C23.9823 15.607 23.9822 16.2227 24 17C23.716 16.9563 23.4201 16.7511 23 16.4847C23.1243 15.9476 23.3787 15.4803 23.8048 15H23.7988Z" fill="#191E21"/>
<path d="M87 102.315C87.4918 101.048 88.0328 99.9792 88.776 99C88.9782 99.0896 89 99.352 89 99.352C88.9563 99.6016 88.9071 99.8512 88.8634 100.414C88.8634 100.734 88.8962 100.997 88.8962 100.997C88.8962 100.997 88.7869 101.144 88.6995 101.31C88.5738 101.675 88.5355 101.867 88.4973 102.059C88.4973 102.334 88.4973 102.61 88.6011 102.917C88.7104 102.949 88.6557 103 88.6557 103C88.1257 102.834 87.5901 102.667 87.0109 102.309L87 102.315Z" fill="#F1F2F3"/>
<path d="M88.1317 102C87.8281 101.83 88.0406 101.489 88.8603 101C89.1942 101.182 88.921 101.511 88.1317 102Z" fill="black"/>
<path d="M2.9188 78C3.15503 78.5021 2.87581 79.1715 2.0812 80C1.84497 79.4895 2.12419 78.8285 2.9188 78Z" fill="#191E21"/>
<path d="M50.1871 50C50.0055 49.7368 50 49.5038 50 49.0902C51.271 48.594 52.542 48.2707 54 48C52.9161 48.7143 51.6396 49.3684 50.1871 49.9925V50Z" fill="#3E4347"/>
<path d="M57 47C57.4627 46.6154 58.1247 46.2769 58.993 46C59.0358 46.2513 58.8792 46.4513 58.5944 46.7333C58.0464 46.8974 57.6264 46.9744 57 47Z" fill="#3E4347"/>
<path d="M55 48C55.0862 47.6146 55.4311 47.3021 56 47C55.9052 47.3646 55.5776 47.7187 55 48Z" fill="#3E4347"/>
<path d="M89.1225 100C89.0331 100 89.0199 99.7666 89 99.6528C89.0099 99.3283 89.0364 99.1176 89.0364 98.7533C89.0232 94.1195 89.0364 89.6452 89.149 85C89.4967 86.0759 89.7483 87.3283 90 88.575C89.9338 92.2524 89.8708 95.9241 89.7748 99.8008C89.5662 100 89.3874 100 89.1225 100Z" fill="black"/>
<path d="M90.9396 88C90.3527 86.9672 89.8515 85.7244 89.159 84.4305C88.0049 81.4455 87.042 78.5059 86 75.4074C86 74.8569 86.0857 74.471 86.3034 74C86.7321 74.3121 87.0288 74.7094 87.4641 75.1804C87.629 75.4187 87.7081 75.5549 87.9389 75.7479C88.1763 76.0657 88.3016 76.3097 88.5522 76.6332C88.7831 76.9737 88.8886 77.2347 89.1194 77.5752C89.3569 77.9327 89.4624 78.2108 89.7394 78.5172C90.2208 80.0381 90.5307 81.5306 90.9396 83.1877C91.0253 84.8277 91.0188 86.3089 90.9264 87.9943L90.9396 88Z" fill="#4D5458"/>
<path d="M50.6447 6C52.4825 8.9476 54.1505 11.9347 56 15.1922C55.8946 19.6334 55.6079 23.804 55.2976 27.9746C55.1572 29.8513 54.9699 31.7225 54.7943 33.7909C54.7826 34.3657 54.7943 34.749 54.7943 35.1266C53.893 37.2288 52.9916 39.331 51.9849 41.5516C50.9724 42.0926 50.0652 42.5209 49 43C49.9599 40.1257 51.2943 37.257 52.143 34.2643C53.7467 28.6283 54.2675 22.8684 53.612 17.0183C53.255 13.8227 52.4064 10.8864 50.3813 8.26565C50.0242 7.79787 50.4222 6.79467 50.6388 6H50.6447Z" fill="#5F666B"/>
<path d="M55.1392 35C54.9619 34.6325 54.9567 34.248 55.1079 33.5639C55.7752 29.9963 56.5103 26.7397 56.7344 23.4491C56.9795 19.7854 56.7553 16.0878 56.7344 12.4071C57.0681 12.277 57.3965 12.147 57.8709 12C59.1795 15.3923 59.2629 18.8977 58.5695 22.4031C57.8084 26.2647 56.896 30.0981 56.0098 33.9314C55.9212 34.3215 55.551 34.6382 55.1392 35Z" fill="#272C2F"/>
<path d="M26 31C25.6532 30.5379 25.3105 29.8759 25 29C25.3589 29.4552 25.6815 30.131 26 31Z" fill="#B3B7BA"/>
<path d="M28 38.9169C27.6015 39.0432 27.2255 38.9938 26.5564 38.9718C26.1128 39.0103 26.0075 38.9554 26 38.5764C26.0226 37.9118 26 37.5163 26.0301 37.0934C26.0752 37.0659 26.1579 37 26.1579 37C26.782 37.5767 27.3985 38.1589 28 38.9114V38.9169Z" fill="#B3B7BA"/>
<path d="M30.13 41.9161C30.0008 41.6713 29.997 41.4011 30.0008 41C30.3428 41.19 30.6809 41.5151 31 41.9752C30.7417 42.0386 30.4985 41.9668 30.13 41.9119V41.9161Z" fill="#B3B7BA"/>
<path d="M29.2647 40.9164C29.1059 40.8026 29.0588 40.2475 29 40.0056C29.2647 39.9629 29.5882 40.1621 30 40.7172C29.8647 41.0587 29.6471 41.0445 29.2647 40.9164Z" fill="#B3B7BA"/>
<path d="M34 31.8881C33.8584 31.993 33.4868 32 33.3098 32C33.062 31.7343 33 31.4615 33 31C33.4248 31.1259 33.7876 31.4545 34 31.8881Z" fill="#4D5458"/>
<path d="M50.514 64C53.9975 64.4739 57.5379 65.1097 61.175 65.8957C60.8791 66.283 60.4749 66.5199 60.0765 66.7569C59.9854 66.7685 59.9 66.7742 59.6667 66.5662C58.921 66.2888 58.3234 66.2252 57.7257 66.1674C57.3558 66.1616 56.9801 66.15 56.4906 66.0229C56.4906 65.809 56.6158 65.7108 56.7353 65.6183C56.6613 65.5258 56.5816 65.4391 56.5077 65.3467C56.2686 65.6761 56.0238 65.9998 55.7848 66.3292C58.8812 67.8204 61.9776 69.3173 65 70.9703C64.5617 71.0454 64.1917 70.9645 63.8275 70.8778C62.228 70.2825 60.6343 69.693 58.8527 69.0688C57.8168 68.7567 56.9687 68.4735 55.9385 68.1671C54.0772 67.8261 52.3696 67.5661 50.7019 67.1499C50.0872 66.9997 49.5635 66.4795 49 66.1269L49.2675 65.4623C50.2124 65.5316 51.1629 65.601 52.7851 65.7166C51.6866 64.9421 51.1288 64.5491 50.5083 64M54.4529 65.0288C54.322 65.1559 54.191 65.2773 54.0601 65.4045C54.1114 65.4565 54.2024 65.5663 54.2081 65.5605C54.3447 65.4449 54.4756 65.3178 54.4529 65.0288Z" fill="#B3B7BA"/>
<path d="M41.8721 63.0061C42.2499 63.0061 42.4518 63.0364 42.8038 63.0728C42.9539 63.0728 42.9643 63.2609 42.9695 63.3519C43.2645 66.7257 41.3803 67.551 39.0353 68C39.8325 66.1675 40.9196 64.3532 38 63.6189C39.232 63.4248 40.464 63.2245 41.8721 63V63.0061Z" fill="#4D5458"/>
<path d="M22 88.7037C22.1053 88.1981 22.2044 87.9007 22.192 87.5437C22.2168 86.7763 22.3592 86.0565 22.6566 85.075C22.8548 84.5158 22.9043 84.2243 22.9539 83.9328C22.9848 83.5699 23.0158 83.2011 23.1831 82.5645C23.3751 82.0054 23.437 81.7198 23.4928 81.4283C23.6043 81.2974 23.7219 81.1725 23.9573 81C24.4033 81.2617 25.0413 81.6187 24.9979 81.8685C24.5519 84.7002 24.0192 87.5259 23.4308 90.3397C23.3751 90.6074 22.8052 90.7739 22.2725 91C22.0496 90.3099 22.0248 89.608 22 88.6978V88.7037Z" fill="#757B81"/>
<path d="M20.2428 101.74C20.0636 101.637 20.052 101.56 20 101.365C20.1445 100.609 20.3237 99.9676 20.6705 99.1631C20.9306 99 21.0289 99 21.1214 99C21.4104 99.935 21.7052 100.87 22 101.99C21.474 102.039 20.9422 101.903 20.2428 101.74Z" fill="#757B81"/>
<path d="M21.2204 98C20.9516 97.4588 20.9272 96.9082 21.1553 96.1882C21.6847 96.0141 21.9697 96.0094 22.2548 96C23.1426 96.8141 23.6802 97.5812 21.2204 98Z" fill="#757B81"/>
<path d="M22 95.8092C21.7892 95.9827 21.5587 95.9884 21.1569 96C20.9791 95.4566 20.9725 94.9074 21.0384 94.1558C21.1042 93.9535 21.3743 93.9997 21.5126 94.0171C21.7629 94.5721 21.8749 95.1039 22 95.8034V95.8092Z" fill="#5F666B"/>
<path d="M63.23 71.0605C63.7307 70.9409 64.1215 71.0246 64.7199 71.0904C67.028 73.2254 65.5686 75.5996 65.2756 77.8662C65.1412 78.8889 64.494 79.8518 63.9872 81C63.6208 80.8266 63.0468 80.3242 63.1262 80.1807C64.665 77.5014 63.8956 74.888 63.0285 72.2506C62.9369 71.9635 63.0834 71.5987 63.2239 71.0605H63.23Z" fill="#757B81"/>
<path d="M60 66.8853C60.2349 66.5826 60.6265 66.3484 61.0964 66C67.8037 67.4678 73.8396 70.215 78.4547 75.5038C79.5512 76.7603 80.228 78.3995 81 80.1929C80.4853 81.7407 79.7917 82.9401 79.7078 84.1852C79.4057 88.6173 79.5735 93.1236 77.3415 97.173C76.7933 98.1668 76.0381 99.0464 75.3836 99.983C74.276 100.006 73.174 100.029 71.8873 99.8859C72.8663 98.3838 74.4046 97.2244 75.0927 95.6709C76.2674 93.0151 76.8101 90.1708 77.0058 87.1437C77.196 84.1852 75.9206 80.6213 79.0253 78.0397C77.8226 78.3824 76.4632 78.9136 76.3178 79.6846C75.6521 83.2371 75.0927 86.8467 74.9584 90.4506C74.8689 92.7752 72.6369 97.8755 70.5783 98.618C69.9406 98.8465 68.9113 98.8693 68.4694 98.4923C68.0946 98.1668 68.0778 97.0531 68.2904 96.4248C69.37 93.2493 70.6343 90.1422 71.7139 86.9667C72.4244 84.8649 72.4859 82.7345 71.1713 80.7755C70.9979 79.1991 70.8301 77.6228 70.4553 75.8237C70.1923 75.0526 70.142 74.4986 70.086 73.9503C69.7504 71.2202 67.8484 69.9066 65.622 68.9757C63.8319 68.2275 61.9859 67.6163 60.0056 66.8796L60 66.8853Z" fill="#DEDFE0"/>
<path d="M56 67C56.1497 66.7019 56.4422 66.354 56.7279 66C56.8163 66.0994 56.9116 66.1925 57 66.2919C56.8571 66.3975 56.7075 66.4969 56.483 66.7143C56.3129 66.8634 56.2245 66.9068 56 67Z" fill="#DEDFE0"/>
<path d="M68.0513 85.7954C68.3285 85.4092 68.5934 85.1383 69 85C68.575 87.9222 68.5133 90.8847 66 93C66.6776 90.8444 67.3552 88.6888 68.0082 86.3429C67.9774 86.1527 68.039 85.9164 68.0513 85.7954Z" fill="#B3B7BA"/>
<path d="M66.2484 92.3921C68.6481 90.28 68.7042 87.4325 69.21 84.5574C69.2269 84.0156 69.2606 83.6673 69.3393 83.1475C69.8788 82.2629 70.3678 81.5496 70.9803 80.7424C72.4247 82.5449 72.3685 84.6072 71.6547 86.6419C70.5701 89.716 69.3 92.7238 68.2153 95.7979C68.0018 96.4061 68.013 97.4843 68.3951 97.7994C68.8335 98.1644 69.8676 98.1478 70.5139 97.9211C72.582 97.2023 74.83 92.2649 74.9143 90.0146C75.0492 86.5258 75.6112 83.0314 76.28 79.5924C76.4261 78.8459 77.7917 78.3317 79 78C75.8865 80.4991 77.1679 83.9437 76.9712 86.8133C76.7745 89.7437 76.235 92.5026 75.0492 95.0681C74.3579 96.572 72.8125 97.6944 71.621 99.1485C68.8729 99.5245 66.1528 99.7457 63 100C64.2027 97.4732 65.1637 95.4551 66.0123 93.3431C65.9786 92.9892 66.0572 92.7349 66.2539 92.3921H66.2484Z" fill="#CBCED0"/>
<path d="M76 100C76.4188 99.0343 77.0869 98.1385 77.5755 97.1204C79.5648 92.9959 79.4152 88.406 79.6845 83.8918C79.7593 82.6236 80.3775 81.402 80.8412 80C81.6239 82.2048 82.317 84.5608 83 87.1088C82.4416 88.3711 81.7137 89.3717 81.3846 90.5236C81.0456 91.7161 81.1303 93.0657 80.9508 94.3281C80.5154 97.4307 78.8651 99.3194 76 99.9942V100Z" fill="#CBCED0"/>
<path d="M83 71.4488C83.1259 71.0231 83.5327 70.9544 83.7264 71.0231C83.9201 71.0917 84.0169 71.6411 83.9976 71.9295C83.6102 72.0943 83.2421 71.9844 83 71.4488Z" fill="#4D5458"/>
<path d="M25.4654 37C25.6649 37.1479 25.7269 37.2899 25.9042 37.4556C25.9973 37.9349 26.0062 38.3609 25.9973 39C25.6649 38.6213 25.3502 38.0296 25 37.2663C25.0754 37.0651 25.1862 37.0414 25.4654 37.0059V37Z" fill="#DEDFE0"/>
<path d="M56.7218 13C56.8977 16.593 57.1584 20.317 56.8734 24.0068C56.6188 27.3208 55.7578 30.6006 55 34C55.0061 32.2177 55.2001 30.3216 55.3456 28.4254C55.6669 24.2118 55.964 19.9981 56.2429 15.5624C56.3338 14.6001 56.4551 13.8598 56.7218 13Z" fill="#9CA1A6"/>
</svg>
