<?xml version="1.0" encoding="utf-8"?>
<svg xmlns="http://www.w3.org/2000/svg" viewBox="0 0 500 500">
  <path d="M 243.219 0.043 C 243.701 0.043 244.182 0.033 244.679 0.023 C 255.046 -0.057 265.127 -0.057 275.301 2.167 C 276.073 2.327 276.073 2.327 276.862 2.496 C 300.479 7.673 321.789 19.043 339.173 35.78 C 339.468 36.059 339.765 36.348 340.07 36.638 C 343.896 40.338 347.503 44.088 350.74 48.317 C 350.945 48.576 351.15 48.846 351.361 49.115 C 367.792 70.34 377.587 96.173 378.401 123.063 C 378.889 123.043 378.889 123.043 379.386 123.033 C 383.108 122.973 386.669 123.312 390.346 123.87 C 390.936 123.96 391.527 124.05 392.135 124.14 C 415.686 127.88 438.061 138.313 455.852 154.162 C 456.489 154.71 456.489 154.71 457.137 155.279 C 462.52 159.996 467.588 165.023 471.946 170.708 C 472.206 171.048 472.466 171.387 472.734 171.726 C 477.179 177.481 481.073 183.375 484.519 189.769 C 484.704 190.118 484.89 190.457 485.081 190.806 C 491.48 202.745 495.65 215.612 498.098 228.897 C 498.224 229.575 498.224 229.575 498.352 230.273 C 501.459 247.961 500.139 266.788 495.584 284.08 C 495.476 284.495 495.368 284.91 495.256 285.338 C 489.86 305.64 478.976 324.167 464.402 339.257 C 463.925 339.754 463.925 339.754 463.439 340.261 C 458.84 345.019 454.164 349.404 448.811 353.304 C 448.233 353.734 447.653 354.165 447.075 354.595 C 442.954 357.624 438.667 360.3 434.226 362.834 C 433.662 363.163 433.097 363.492 432.515 363.832 C 416.304 372.907 398.25 377.113 379.91 378.886 C 379.877 379.233 379.845 379.58 379.812 379.938 C 377.541 403.548 370.854 426.179 356.775 445.603 C 356.404 446.119 356.033 446.636 355.651 447.167 C 354.543 448.675 353.407 450.153 352.249 451.622 C 351.872 452.101 351.496 452.579 351.107 453.074 C 344.929 460.633 337.883 467.865 329.946 473.588 C 329.077 474.222 328.228 474.876 327.38 475.538 C 322.241 479.487 316.726 482.691 311.009 485.732 C 310.592 485.954 310.177 486.176 309.748 486.404 C 291.883 495.774 271.66 500.125 251.568 499.997 C 251.054 499.995 250.54 499.994 250.011 499.993 C 241.856 499.956 234.004 499.521 226.013 497.772 C 225.241 497.606 225.241 497.606 224.452 497.438 C 203.19 492.785 183.44 483.164 167.171 468.676 C 166.747 468.309 166.323 467.941 165.886 467.561 C 160.488 462.824 155.495 457.787 151.077 452.124 C 150.686 451.643 150.296 451.161 149.894 450.665 C 132.929 429.393 124.576 403.748 122.913 376.88 C 122.353 376.889 122.353 376.889 121.782 376.899 C 93.484 377.182 63.354 363.999 42.954 344.776 C 42.304 344.22 41.644 343.666 40.994 343.114 C 36.324 339.042 32.174 334.604 28.364 329.727 C 27.854 329.097 27.344 328.468 26.834 327.838 C 20.774 320.222 15.884 311.946 11.764 303.142 C 11.614 302.826 11.464 302.512 11.314 302.187 C 4.444 287.609 0.184 270.982 0.094 254.824 C 0.094 254.396 0.094 253.969 0.084 253.528 C -0.026 235.38 -0.026 235.38 1.704 226.393 C 1.804 225.885 1.904 225.376 2.004 224.847 C 6.584 201.568 17.164 180.074 33.394 162.689 C 33.984 162.001 34.594 161.313 35.184 160.615 C 38.214 157.174 41.464 154.152 45.044 151.289 C 45.954 150.561 46.854 149.823 47.734 149.065 C 54.234 143.559 61.554 139.031 69.104 135.101 C 69.664 134.802 69.664 134.802 70.234 134.503 C 85.644 126.464 104.417 120.828 121.907 121.048 C 121.898 120.689 121.889 120.33 121.879 119.951 C 121.825 116.141 122.121 112.47 122.692 108.7 C 122.781 108.111 122.868 107.533 122.96 106.935 C 124.507 97.31 127.266 87.944 130.96 78.917 C 131.108 78.548 131.256 78.179 131.409 77.81 C 136.962 64.236 145.194 52.227 155.072 41.435 C 155.958 40.458 156.806 39.46 157.646 38.443 C 158.982 36.877 160.457 35.55 162.027 34.234 C 162.801 33.566 163.557 32.877 164.298 32.169 C 170.721 26.105 178.036 20.968 185.779 16.719 C 186.196 16.49 186.614 16.251 187.043 16.011 C 204.188 6.576 223.475 0.202 243.219 0.043 Z" style="stroke-width: 1; fill: rgb(249, 227, 224);"/>
  <path d="M 247.891 11.633 C 248.253 11.633 248.615 11.643 248.989 11.643 C 251.389 11.653 253.789 11.673 256.189 11.703 C 256.845 11.703 256.845 11.703 257.513 11.712 C 266.465 11.832 275.886 13.867 284.353 16.719 C 284.943 16.909 284.943 16.909 285.545 17.118 C 298.706 21.537 310.674 27.641 321.57 36.279 C 322.021 36.638 322.471 36.987 322.936 37.346 C 328.056 41.435 332.972 45.784 337.161 50.821 C 337.566 51.289 337.971 51.748 338.389 52.227 C 355.806 72.075 365.095 96.851 366.331 123.063 C 365.939 123.092 365.547 123.132 365.144 123.162 C 357.379 123.87 349.771 124.678 342.19 126.573 C 341.567 126.713 340.946 126.863 340.304 127.022 C 325.213 130.812 310.611 137.056 297.932 146.132 C 297.446 146.482 296.959 146.831 296.457 147.19 C 288.894 152.735 281.276 158.949 275.301 166.2 C 274.932 166.619 274.564 167.048 274.185 167.477 C 256.474 188.083 245.236 214.395 243.74 241.559 C 243.616 242.946 243.616 242.946 243.113 243.95 C 219.849 243.204 196.986 234.891 178.738 220.369 C 178.287 220.02 177.836 219.671 177.371 219.302 C 160.649 205.957 148.344 189.071 140.515 169.212 C 140.374 168.853 140.232 168.494 140.087 168.125 C 137.814 162.27 136.211 156.296 134.983 150.142 C 134.899 149.733 134.816 149.314 134.729 148.895 C 131.428 131.64 132.574 112.271 137.498 95.474 C 137.672 94.856 137.672 94.856 137.85 94.228 C 141.019 83.296 146.091 72.724 152.586 63.368 C 152.936 62.859 153.287 62.351 153.649 61.832 C 154.612 60.485 155.6 59.169 156.609 57.852 C 156.922 57.443 157.235 57.024 157.558 56.606 C 163.41 49.135 170.175 42.034 177.732 36.279 C 178.196 35.919 178.196 35.919 178.67 35.55 C 195.737 22.494 214.952 15.433 236.072 12.201 C 236.711 12.092 237.349 11.992 238.007 11.882 C 241.278 11.503 244.602 11.623 247.891 11.633 Z" style="stroke-width: 1; fill: rgb(235, 167, 155);"/>
  <path d="M 119.172 133.056 C 119.691 133.066 120.211 133.066 120.745 133.076 C 121.321 133.086 121.321 133.086 121.907 133.096 C 121.936 133.505 121.936 133.505 121.967 133.924 C 122.714 143.818 123.978 153.683 126.936 163.188 C 127.071 163.627 127.206 164.066 127.345 164.515 C 133.444 184.084 143.345 201.568 157.615 216.36 C 157.917 216.679 158.218 216.988 158.529 217.317 C 162.975 221.925 167.523 226.134 172.703 229.904 C 173.03 230.144 173.357 230.393 173.694 230.642 C 178.988 234.562 184.466 237.893 190.306 240.941 C 190.647 241.121 190.988 241.302 191.34 241.488 C 207.911 250.238 225.974 254.457 244.622 255.487 C 244.813 260.486 244.244 265.061 243.313 269.959 C 243.137 270.906 242.985 271.859 242.836 272.811 C 240.036 289.36 232.106 305.402 221.99 318.692 C 221.656 319.132 221.321 319.573 220.976 320.026 C 218.317 323.428 215.413 326.604 212.434 329.727 C 212.028 330.154 212.028 330.154 211.613 330.59 C 207.737 334.632 203.723 338.298 199.217 341.628 C 198.377 342.249 197.546 342.88 196.716 343.511 C 188.949 349.324 180.396 353.739 171.402 357.332 C 170.583 357.661 169.765 357.995 168.95 358.335 C 165.956 359.574 162.953 360.523 159.815 361.33 C 159.323 361.457 158.831 361.584 158.324 361.716 C 152.784 363.104 147.17 364.016 141.521 364.841 C 140.695 364.973 140.695 364.973 139.853 365.108 C 137.881 365.358 135.938 365.441 133.954 365.462 C 133.571 365.467 133.189 365.472 132.794 365.477 C 119.894 365.608 107.695 364.44 95.254 360.827 C 94.884 360.724 94.514 360.619 94.144 360.512 C 71.274 353.863 49.674 338.66 35.544 319.553 C 34.904 318.699 34.264 317.853 33.624 317.008 C 30.214 312.476 27.454 307.657 24.844 302.64 C 24.644 302.272 24.454 301.905 24.254 301.526 C 20.594 294.5 18.104 287.124 15.794 279.565 C 15.664 279.182 15.554 278.799 15.424 278.404 C 10.054 260.622 10.174 240.317 14.784 222.384 C 14.964 221.626 15.144 220.878 15.334 220.12 C 19.314 204.042 26.904 189.061 37.414 176.234 C 37.624 175.975 37.834 175.715 38.054 175.446 C 43.364 168.863 49.294 162.819 56.024 157.672 C 56.604 157.204 57.194 156.735 57.784 156.276 C 74.364 143.26 97.774 132.817 119.172 133.056 Z" style="stroke-width: 1; fill: rgb(241, 197, 190);"/>
  <path d="M 371.8 134.473 C 372.165 134.473 372.529 134.473 372.905 134.463 C 379.038 134.473 384.948 134.942 390.974 136.099 C 391.652 136.218 392.33 136.348 393.008 136.468 C 394.854 136.807 396.685 137.196 398.518 137.605 C 398.839 137.674 399.159 137.744 399.489 137.814 C 426.198 143.759 450.737 161.064 466.414 183.256 C 466.836 183.824 467.258 184.403 467.681 184.981 C 477.806 199.104 484.374 216.27 486.886 233.415 C 487.031 234.403 487.189 235.38 487.347 236.367 C 488.799 246.137 488.423 256.263 487.034 266.021 C 486.98 266.416 486.926 266.811 486.871 267.219 C 486.104 272.775 485.003 278.172 483.513 283.578 C 483.39 284.04 483.266 284.502 483.138 284.979 C 482.199 288.309 480.874 291.445 479.49 294.614 C 479.191 295.317 478.892 296.019 478.593 296.722 C 465.6 326.904 441.276 348.17 411.092 360.327 C 410.603 360.527 410.114 360.729 409.611 360.935 C 400.412 364.516 389.27 367.009 379.407 366.848 C 379.369 366.464 379.331 366.081 379.292 365.685 C 378.402 356.758 377.489 348.097 374.896 339.477 C 374.367 337.719 373.887 335.951 373.403 334.18 C 372.456 330.896 371.242 327.829 369.851 324.711 C 369.527 323.954 369.202 323.197 368.879 322.439 C 362.358 307.382 353.008 294.401 341.687 282.575 C 341.369 282.237 341.051 281.898 340.723 281.55 C 338.658 279.412 336.388 277.558 334.069 275.703 C 333.174 274.984 332.29 274.252 331.42 273.505 C 320.232 263.957 307.034 257.29 293.406 251.976 C 292.778 251.721 292.15 251.467 291.522 251.213 C 280.033 246.795 267.382 245.061 255.184 243.95 C 253.848 219.86 266.492 193.549 282.143 175.745 C 282.993 174.808 283.848 173.88 284.709 172.963 C 285.693 171.895 286.63 170.818 287.559 169.711 C 292.337 164.265 298.141 159.907 303.968 155.668 C 304.264 155.448 304.562 155.229 304.867 154.999 C 324.191 140.896 348.086 134.493 371.8 134.473 Z" style="stroke-width: 1; fill: rgb(229, 136, 121);"/>
  <path d="M 243.219 0.043 C 243.701 0.043 244.182 0.033 244.679 0.023 C 255.046 -0.057 265.127 -0.057 275.301 2.167 C 276.073 2.327 276.073 2.327 276.862 2.496 C 300.479 7.673 321.789 19.043 339.173 35.78 C 339.468 36.059 339.765 36.348 340.07 36.638 C 343.896 40.338 347.503 44.088 350.74 48.317 C 350.945 48.576 351.15 48.846 351.361 49.115 C 367.792 70.34 377.587 96.173 378.401 123.063 C 378.889 123.043 378.889 123.043 379.386 123.033 C 383.108 122.973 386.669 123.312 390.346 123.87 C 390.936 123.96 391.527 124.05 392.135 124.14 C 415.686 127.88 438.061 138.313 455.852 154.162 C 456.489 154.71 456.489 154.71 457.137 155.279 C 462.52 159.996 467.588 165.023 471.946 170.708 C 472.206 171.048 472.466 171.387 472.734 171.726 C 477.179 177.481 481.073 183.375 484.519 189.769 C 484.704 190.118 484.89 190.457 485.081 190.806 C 491.48 202.745 495.65 215.612 498.098 228.897 C 498.224 229.575 498.224 229.575 498.352 230.273 C 501.459 247.961 500.139 266.788 495.584 284.08 C 495.476 284.495 495.368 284.91 495.256 285.338 C 489.86 305.64 478.976 324.167 464.402 339.257 C 463.925 339.754 463.925 339.754 463.439 340.261 C 458.84 345.019 454.164 349.404 448.811 353.304 C 448.233 353.734 447.653 354.165 447.075 354.595 C 442.954 357.624 438.667 360.3 434.226 362.834 C 433.662 363.163 433.097 363.492 432.515 363.832 C 416.304 372.907 398.25 377.113 379.91 378.886 C 379.877 379.233 379.845 379.58 379.812 379.938 C 377.541 403.548 370.854 426.179 356.775 445.603 C 356.404 446.119 356.033 446.636 355.651 447.167 C 354.543 448.675 353.407 450.153 352.249 451.622 C 351.872 452.101 351.496 452.579 351.107 453.074 C 344.929 460.633 337.883 467.865 329.946 473.588 C 329.077 474.222 328.228 474.876 327.38 475.538 C 322.241 479.487 316.726 482.691 311.009 485.732 C 310.592 485.954 310.177 486.176 309.748 486.404 C 291.883 495.774 271.66 500.125 251.568 499.997 C 251.054 499.995 250.54 499.994 250.011 499.993 C 241.856 499.956 234.004 499.521 226.013 497.772 C 225.241 497.606 225.241 497.606 224.452 497.438 C 203.19 492.785 183.44 483.164 167.171 468.676 C 166.747 468.309 166.323 467.941 165.886 467.561 C 160.488 462.824 155.495 457.787 151.077 452.124 C 150.686 451.643 150.296 451.161 149.894 450.665 C 132.929 429.393 124.576 403.748 122.913 376.88 C 122.353 376.889 122.353 376.889 121.782 376.899 C 93.484 377.182 63.354 363.999 42.954 344.776 C 42.304 344.22 41.644 343.666 40.994 343.114 C 36.324 339.042 32.174 334.604 28.364 329.727 C 27.854 329.097 27.344 328.468 26.834 327.838 C 20.774 320.222 15.884 311.946 11.764 303.142 C 11.614 302.826 11.464 302.512 11.314 302.187 C 4.444 287.609 0.184 270.982 0.094 254.824 C 0.094 254.396 0.094 253.969 0.084 253.528 C -0.026 235.38 -0.026 235.38 1.704 226.393 C 1.804 225.885 1.904 225.376 2.004 224.847 C 6.584 201.568 17.164 180.074 33.394 162.689 C 33.984 162.001 34.594 161.313 35.184 160.615 C 38.214 157.174 41.464 154.152 45.044 151.289 C 45.954 150.561 46.854 149.823 47.734 149.065 C 54.234 143.559 61.554 139.031 69.104 135.101 C 69.664 134.802 69.664 134.802 70.234 134.503 C 85.644 126.464 104.417 120.828 121.907 121.048 C 121.898 120.689 121.889 120.33 121.879 119.951 C 121.825 116.141 122.121 112.47 122.692 108.7 C 122.781 108.111 122.868 107.533 122.96 106.935 C 124.507 97.31 127.266 87.944 130.96 78.917 C 131.108 78.548 131.256 78.179 131.409 77.81 C 136.962 64.236 145.194 52.227 155.072 41.435 C 155.958 40.458 156.806 39.46 157.646 38.443 C 158.982 36.877 160.457 35.55 162.027 34.234 C 162.801 33.566 163.557 32.877 164.298 32.169 C 170.721 26.105 178.036 20.968 185.779 16.719 C 186.196 16.49 186.614 16.251 187.043 16.011 C 204.188 6.576 223.475 0.202 243.219 0.043 Z M 227.019 13.707 C 226.55 13.797 226.08 13.887 225.596 13.987 C 207.881 17.627 191.282 25.417 177.229 36.777 C 176.934 37.017 176.639 37.246 176.335 37.495 C 168.929 43.5 162.273 50.192 156.609 57.852 C 156.249 58.321 155.889 58.79 155.518 59.279 C 149.029 67.946 143.667 77.76 140.013 87.944 C 139.889 88.283 139.765 88.622 139.638 88.961 C 138.02 93.39 136.696 97.868 135.612 102.456 C 135.512 102.875 135.412 103.284 135.309 103.713 C 133.532 111.612 133.268 119.721 133.286 127.79 C 133.286 128.249 133.286 128.698 133.286 129.167 C 133.312 140.288 134.489 151.08 138.001 161.682 C 138.218 162.36 138.218 162.36 138.441 163.048 C 145.478 184.652 158.264 204.201 176.223 218.364 C 176.62 218.693 177.015 219.023 177.424 219.362 C 188.842 228.777 202.747 235.859 216.96 239.938 C 217.324 240.038 217.686 240.148 218.06 240.257 C 226.154 242.561 234.669 244.139 243.113 243.95 C 243.969 242.241 243.892 240.287 244.056 238.402 C 245.543 222.723 249.836 207.961 256.692 193.788 C 256.958 193.24 256.958 193.24 257.23 192.671 C 262.271 182.378 269.198 172.883 277.049 164.544 C 278.104 163.417 279.113 162.27 280.11 161.084 C 292.356 147.1 310.768 136.757 328.108 130.583 C 328.667 130.373 329.225 130.174 329.799 129.965 C 335.329 128.02 340.982 126.753 346.716 125.566 C 347.097 125.486 347.477 125.406 347.868 125.327 C 353.974 124.09 360.125 123.541 366.331 123.063 C 365.037 95.604 354.907 69.721 335.866 49.604 C 334.803 48.487 333.792 47.33 332.791 46.153 C 331.053 44.158 329.125 42.492 327.103 40.797 C 326.396 40.168 326.396 40.168 325.676 39.54 C 306.727 22.993 281.416 12.451 256.189 11.703 C 255.621 11.683 255.051 11.663 254.466 11.643 C 245.117 11.413 236.223 11.832 227.019 13.707 Z M 55.524 158.171 C 55.244 158.4 54.964 158.62 54.684 158.849 C 47.454 164.764 40.944 171.217 35.404 178.738 C 35.184 179.027 34.974 179.316 34.754 179.605 C 26.944 190.048 20.504 201.827 16.794 214.355 C 16.664 214.784 16.544 215.213 16.404 215.651 C 14.294 222.843 13.044 229.984 12.264 237.425 C 12.224 237.824 12.174 238.223 12.124 238.642 C 10.334 254.639 12.554 270.913 17.804 286.086 C 17.954 286.538 18.104 286.99 18.274 287.455 C 23.014 301.065 29.984 313.303 39.434 324.21 C 39.804 324.655 40.184 325.099 40.574 325.557 C 45.764 331.463 51.344 336.968 57.684 341.636 C 58.514 342.253 59.344 342.881 60.174 343.509 C 74.224 354.026 90.664 360.536 107.825 363.837 C 108.239 363.92 108.654 364.003 109.081 364.089 C 122.735 366.719 137.521 366.114 151.077 363.336 C 151.506 363.253 151.937 363.17 152.379 363.084 C 174.1 358.881 193.499 347.844 209.417 332.737 C 209.702 332.466 209.988 332.196 210.282 331.918 C 214.605 327.793 218.434 323.486 221.99 318.692 C 222.205 318.407 222.42 318.123 222.642 317.83 C 226.045 313.325 228.898 308.623 231.545 303.642 C 231.721 303.318 231.895 302.994 232.076 302.659 C 234.754 297.667 236.84 292.554 238.699 287.206 C 239.056 286.183 239.424 285.163 239.797 284.144 C 243.029 275.014 244.912 265.172 244.622 255.487 C 244.309 255.47 243.997 255.452 243.675 255.435 C 232.351 254.77 221.188 253.132 210.423 249.467 C 210.038 249.337 209.655 249.206 209.259 249.071 C 203.788 247.184 198.497 245.035 193.323 242.445 C 192.949 242.259 192.576 242.074 192.191 241.882 C 175.092 233.325 159.309 220.858 148.059 205.328 C 147.63 204.75 147.2 204.171 146.77 203.603 C 143.73 199.493 141.035 195.215 138.504 190.776 C 138.334 190.477 138.164 190.188 137.99 189.879 C 128.051 172.454 123.134 153.015 121.907 133.096 C 98.594 131.84 73.114 143.719 55.524 158.171 Z M 350.74 136.099 C 350.315 136.168 349.889 136.238 349.45 136.308 C 328.609 139.769 308.544 150.252 293.144 164.544 C 292.081 165.522 290.996 166.46 289.886 167.387 C 270.293 184.512 256.92 212.839 255.101 238.592 C 255.033 240.387 255.084 242.158 255.184 243.95 C 255.496 243.982 255.808 244.015 256.13 244.048 C 267.222 245.225 278.336 246.704 288.879 250.471 C 289.432 250.662 289.432 250.662 289.995 250.859 C 302.737 255.294 314.69 261.045 325.594 269.03 C 325.89 269.248 326.186 269.464 326.491 269.688 C 329.814 272.138 332.98 274.723 336.021 277.517 C 337.065 278.473 338.128 279.397 339.204 280.317 C 343.316 283.908 346.847 287.838 350.237 292.105 C 350.677 292.643 351.117 293.18 351.557 293.718 C 359.989 304.085 366.502 315.805 371.36 328.222 C 371.553 328.695 371.746 329.167 371.945 329.653 C 376.621 341.594 378.159 354.191 379.407 366.848 C 389.127 366.571 398.937 364.64 408.074 361.33 C 408.683 361.114 408.683 361.114 409.305 360.892 C 415.311 358.746 421.068 356.326 426.683 353.304 C 427.263 352.996 427.844 352.689 428.443 352.37 C 446.935 342.227 462.729 326.55 472.952 308.157 C 473.137 307.834 473.322 307.511 473.513 307.178 C 477.415 300.35 480.195 293.148 482.642 285.69 C 482.889 284.95 483.142 284.212 483.403 283.477 C 484.392 280.661 485.027 277.857 485.556 274.925 C 485.642 274.462 485.727 274 485.816 273.524 C 491.415 242.935 485.818 211.811 468.359 185.809 C 464.614 180.403 460.417 175.446 455.852 170.708 C 455.551 170.399 455.249 170.08 454.939 169.761 C 443.341 157.732 429.741 148.885 414.267 142.592 C 413.307 142.203 412.354 141.794 411.402 141.385 C 403.231 137.984 394.239 136.318 385.486 135.231 C 384.53 135.111 383.578 134.962 382.625 134.812 C 379.33 134.413 375.995 134.473 372.68 134.473 C 372.315 134.473 371.95 134.473 371.574 134.473 C 364.553 134.473 357.679 135.001 350.74 136.099 Z M 256.189 255.988 C 256.124 256.856 256.124 256.856 256.058 257.742 C 255.168 268.437 252.944 278.885 249.651 289.095 C 249.509 289.536 249.368 289.976 249.222 290.429 C 243.833 306.803 234.92 322 223.086 334.577 C 222.137 335.59 221.244 336.625 220.356 337.691 C 208.386 351.366 191.172 361.687 174.271 367.95 C 173.356 368.296 172.451 368.669 171.549 369.048 C 160.043 373.854 147.307 375.348 134.983 376.378 C 134.856 380.409 135.214 384.221 135.863 388.197 C 136.002 389.058 136.002 389.058 136.144 389.936 C 136.419 391.604 136.704 393.272 136.995 394.938 C 137.103 395.571 137.103 395.571 137.215 396.216 C 140.287 413.449 148.771 429.973 159.627 443.596 C 160.193 444.314 160.193 444.314 160.77 445.046 C 163.08 447.924 165.512 450.575 168.176 453.127 C 170.691 455.634 170.691 455.634 171.602 456.597 C 191.46 477.166 220.793 487.491 248.879 488.364 C 273.205 488.793 298.249 482.152 318.049 467.674 C 318.529 467.332 319.008 466.99 319.502 466.637 C 329.044 459.683 337.702 451.605 344.705 442.091 C 345.131 441.524 345.557 440.959 345.984 440.392 C 356.998 425.575 363.771 408.539 366.834 390.424 C 366.925 389.929 367.016 389.433 367.109 388.923 C 368.036 383.378 368.039 377.85 368.028 372.24 C 368.028 371.728 368.028 371.217 368.027 370.69 C 368.008 362.725 367.649 355.071 365.828 347.285 C 365.717 346.807 365.607 346.33 365.493 345.837 C 360.894 326.588 351.841 308.544 338.167 294.112 C 337.567 293.425 336.969 292.735 336.375 292.042 C 332.936 288.127 329.165 284.817 325.09 281.572 C 324.692 281.241 324.295 280.91 323.885 280.57 C 314.956 273.218 304.825 267.84 294.136 263.513 C 293.323 263.182 292.512 262.844 291.704 262.499 C 288.295 261.071 284.826 260.105 281.241 259.217 C 280.628 259.065 280.015 258.914 279.383 258.757 C 271.832 256.947 263.988 255.537 256.189 255.988 Z" fill="#FEFEFE" style="stroke-width: 1;"/>
  <path d="M 219.475 338.757 C 220.76 339.397 220.858 339.9 221.428 341.197 C 221.608 341.598 221.788 341.998 221.974 342.41 C 222.166 342.839 222.358 343.268 222.556 343.71 C 224.351 347.594 226.302 350.988 229.031 354.307 C 229.419 354.806 229.806 355.305 230.206 355.817 C 236.365 363.54 244.536 368.714 253.343 372.969 C 257.74 375.099 261.513 377.75 265.242 380.893 C 265.645 381.215 266.049 381.537 266.464 381.871 C 276.999 390.683 282.9 403.717 285.178 416.964 C 285.325 417.814 285.488 418.661 285.656 419.506 C 287.614 433.906 283.164 448.839 274.782 460.577 C 273.817 461.809 272.816 462.989 271.78 464.162 C 271.435 464.572 271.09 464.982 270.735 465.404 C 260.587 477.164 245.752 484.067 230.34 485.375 C 210.609 486.173 188.813 472.243 174.715 459.402 C 173.977 458.72 173.245 458.033 172.512 457.345 C 171.22 456.131 171.22 456.131 169.868 455.088 C 168.79 454.219 167.935 453.365 167.045 452.312 C 166.107 451.211 165.169 450.127 164.175 449.077 C 157.421 441.915 152.151 433.697 147.556 425.036 C 147.369 424.686 147.181 424.336 146.987 423.976 C 141.307 413.236 137.907 401.362 135.989 389.421 C 135.924 389.032 135.86 388.642 135.793 388.241 C 135.143 384.249 134.938 380.413 134.983 376.378 C 135.354 376.348 135.725 376.318 136.107 376.288 C 148.949 375.214 161.142 373.008 173.206 368.352 C 174.045 368.04 174.885 367.726 175.724 367.414 C 190.359 361.869 203.448 353.323 214.949 342.769 C 216.035 341.813 217.127 340.864 218.22 339.916 C 218.648 339.541 219.072 339.159 219.475 338.757 Z" style="stroke-width: 1; fill: rgb(240, 190, 184);"/>
  <path d="M 284.353 16.719 C 284.756 16.849 285.159 16.979 285.574 17.128 C 298.725 21.557 310.683 27.651 321.57 36.279 C 322.246 36.807 322.246 36.807 322.936 37.346 C 328.056 41.435 332.972 45.784 337.161 50.821 C 337.566 51.289 337.971 51.748 338.389 52.227 C 355.806 72.075 365.095 96.851 366.331 123.063 C 365.939 123.092 365.547 123.132 365.144 123.162 C 357.379 123.87 349.771 124.678 342.19 126.573 C 341.257 126.793 341.257 126.793 340.304 127.022 C 325.213 130.812 310.611 137.056 297.932 146.132 C 297.446 146.482 296.959 146.831 296.457 147.19 C 291.43 150.87 286.686 154.91 282.084 159.099 C 281.336 159.677 281.336 159.677 280.33 159.677 C 280.08 159.159 279.831 158.65 279.573 158.111 C 272.619 143.888 262.95 134.752 248.834 127.571 C 244.561 125.386 240.723 123.192 237.078 120.05 C 236.7 119.731 236.7 119.731 236.315 119.402 C 227.02 111.453 220.816 101.17 217.464 89.45 C 217.315 88.951 217.315 88.951 217.162 88.443 C 212.894 73.751 215.701 58.241 222.912 44.986 C 231.02 30.693 244.313 21.028 259.93 16.34 C 268.197 14.266 276.249 13.937 284.353 16.719 Z" style="stroke-width: 1; fill: rgb(225, 143, 139);"/>
  <path d="M 119.172 133.056 C 119.691 133.066 120.211 133.066 120.745 133.076 C 121.321 133.086 121.321 133.086 121.907 133.096 C 121.936 133.505 121.936 133.505 121.967 133.924 C 122.714 143.818 123.978 153.683 126.936 163.188 C 127.071 163.627 127.206 164.066 127.345 164.515 C 133.619 184.642 143.988 203.014 159.124 217.866 C 158.621 219.372 158.621 219.372 156.949 220.309 C 156.218 220.668 155.487 221.027 154.754 221.376 C 141.173 228.259 132.466 240.108 126.182 253.636 C 121.947 262.171 113.88 269.693 105.813 274.549 C 105.248 274.892 104.682 275.235 104.1 275.589 C 94.914 280.923 84.874 283.295 74.314 283.264 C 73.964 283.264 73.604 283.264 73.234 283.263 C 67.754 283.244 62.744 282.85 57.534 281.07 C 57.044 280.912 57.044 280.912 56.534 280.752 C 43.154 276.459 31.124 267.551 23.834 255.487 C 23.644 255.176 23.454 254.867 23.264 254.547 C 18.624 246.807 15.414 237.933 14.784 228.897 C 14.734 228.398 14.684 227.88 14.644 227.361 C 13.754 209.657 26.674 189.34 37.414 176.234 C 37.624 175.975 37.834 175.715 38.054 175.446 C 43.364 168.863 49.294 162.819 56.024 157.672 C 56.604 157.204 57.194 156.735 57.784 156.276 C 74.364 143.26 97.774 132.817 119.172 133.056 Z" style="stroke-width: 1; fill: rgb(233, 174, 168);"/>
  <path d="M 425.313 216.28 C 440.318 215.751 455.625 221.686 466.603 231.72 C 467.552 232.617 468.492 233.515 469.432 234.423 C 469.762 234.712 470.092 235.011 470.432 235.32 C 479.155 243.401 485.455 257.337 486.087 269.13 C 486.173 272.348 485.668 275.203 484.865 278.311 C 484.758 278.748 484.651 279.186 484.54 279.637 C 483.249 284.826 481.63 289.712 479.49 294.614 C 479.191 295.317 478.892 296.019 478.593 296.722 C 465.6 326.904 441.276 348.17 411.092 360.327 C 410.603 360.527 410.114 360.729 409.611 360.935 C 400.412 364.516 389.27 367.009 379.407 366.848 C 379.369 366.464 379.331 366.081 379.292 365.685 C 378.402 356.758 377.489 348.097 374.896 339.477 C 374.367 337.719 373.887 335.951 373.403 334.18 C 372.456 330.896 371.242 327.829 369.851 324.711 C 369.527 323.954 369.202 323.197 368.879 322.439 C 362.787 308.374 354.256 295.576 343.501 284.617 C 341.687 282.734 341.687 282.734 341.687 281.07 C 342.12 280.869 342.552 280.667 342.998 280.46 C 349.493 277.345 355.063 273.517 360.296 268.53 C 360.749 268.125 360.749 268.125 361.211 267.712 C 366.365 262.942 369.553 256.802 372.706 250.638 C 380.406 235.639 392.581 224.608 408.662 219.102 C 412.257 217.955 415.908 217.357 419.641 216.858 C 420.307 216.768 420.307 216.768 420.985 216.659 C 422.426 216.469 423.864 216.379 425.313 216.28 Z" style="stroke-width: 1; fill: rgb(223, 108, 87);"/>
</svg>