<svg width="101" height="101" viewBox="0 0 101 101" fill="none" xmlns="http://www.w3.org/2000/svg">
<g clip-path="url(#clip0_304_178)">
<path d="M25.8568 50.3041C27.1744 47.3731 29.6176 45.0945 32.6327 43.9795C27.8413 39.3214 25.0485 32.9866 24.8403 26.3105C15.1483 26.7065 6.65876 32.918 3.35063 42.0322C1.52378 48.4134 5.21789 55.0652 11.6018 56.8913C17.3369 58.5316 23.4076 55.7217 25.8649 50.2879L25.8588 50.3041H25.8568Z" fill="#FFB600"/>
<path d="M48.6964 57.0854C48.5328 58.152 48.2236 59.1943 47.781 60.1781C42.3267 72.2819 28.0899 77.6753 15.9789 72.2233C3.86998 66.7713 -1.52568 52.5404 3.92859 40.4346C1.2833 46.5229 4.07611 53.603 10.169 56.2471C16.1446 58.8408 23.1004 56.2067 25.8548 50.3043C27.1724 47.3733 29.6156 45.0947 32.6307 43.9797C36.826 48.0843 42.2964 50.6376 48.1387 51.2133C48.65 51.2618 49.1673 51.2941 49.6907 51.3143C49.5998 53.2858 49.2643 55.2392 48.6924 57.1299C48.6944 57.1178 48.6944 57.1036 48.6964 57.0854Z" fill="#E56002"/>
<path d="M50.6787 51.3402C50.2321 51.3402 49.7936 51.3281 49.3612 51.3059C48.8095 64.2823 37.8383 74.3541 24.8563 73.8026C11.8744 73.2511 1.79845 62.2846 2.35015 49.3081C2.8695 37.1073 12.6444 27.3325 24.8523 26.8113C24.8301 26.375 24.8179 25.9367 24.8179 25.4943C24.8179 25.1549 24.8321 24.8257 24.8422 24.4863C10.577 25.0438 -0.537648 37.0568 0.0201065 51.318C0.577861 65.5792 12.5938 76.6892 26.861 76.1317C40.3482 75.6045 51.1597 64.7974 51.6851 51.316C51.3476 51.3301 51.0162 51.3402 50.6787 51.3402Z" fill="#100F30"/>
<path d="M50.3514 25.8477C53.2836 27.1648 55.5631 29.607 56.6786 32.6208C61.3387 27.8314 67.6761 25.0398 74.355 24.8317C73.9609 15.1397 67.7428 6.64765 58.6207 3.34091C52.2368 1.51483 45.5822 5.20739 43.7553 11.5886C42.1144 17.3213 44.9254 23.3894 50.3615 25.8457H50.3534L50.3514 25.8477Z" fill="#FF2C05"/>
<path d="M43.5716 48.6758C42.5046 48.5122 41.4618 48.2031 40.4777 47.7607C28.3688 42.3087 22.9731 28.0778 28.4274 15.972C33.8816 3.86814 48.1185 -1.52526 60.2274 3.92672C54.1366 1.28254 47.0535 4.07418 44.4082 10.1645C41.8135 16.1376 44.4487 23.0905 50.3536 25.8437C53.2858 27.1608 55.5653 29.6029 56.6809 32.6168C52.5745 36.8103 50.0201 42.2784 49.4442 48.1183C49.3957 48.6313 49.3634 49.1485 49.3432 49.6696C47.3708 49.5787 45.4166 49.2434 43.5251 48.6717L43.5696 48.6758H43.5716Z" fill="#FF7A68"/>
<path d="M49.3168 50.6555C49.3168 50.2091 49.3289 49.7708 49.3512 49.3385C36.3692 48.8012 26.2791 37.8467 26.8167 24.8702C27.338 12.2594 37.7272 2.30886 50.3535 2.32502C62.9919 2.32502 73.3285 12.3664 73.858 24.8642C74.2945 24.842 74.733 24.8298 75.1756 24.8298C75.5151 24.8298 75.8445 24.844 76.184 24.8541C75.6505 11.0797 64.2711 0 50.3535 0C36.0762 0.00404 24.5028 11.5746 24.5068 25.8479C24.5089 39.7213 35.472 51.1181 49.341 51.6635C49.341 51.3282 49.3188 50.9909 49.3188 50.6555H49.3168Z" fill="#100F30"/>
<path d="M50.6547 75.1559C47.7224 73.8388 45.4429 71.3967 44.3274 68.3828C39.6653 73.1621 33.3279 75.9437 26.6531 76.1396C27.031 85.8437 33.2491 94.3519 42.3834 97.6607C48.7672 99.4868 55.4219 95.7942 57.2487 89.413C58.8897 83.6803 56.0787 77.6122 50.6426 75.1559H50.6547Z" fill="#C52E9C"/>
<path d="M57.4367 52.3239C58.5037 52.4875 59.5464 52.7966 60.5306 53.239C72.6395 58.691 78.0352 72.9219 72.5809 85.0277C67.1266 97.1316 52.8898 102.525 40.7788 97.073C46.8696 99.7172 53.9527 96.9255 56.598 90.8352C59.1928 84.8621 56.5576 77.9092 50.6527 75.156C47.7204 73.8389 45.4409 71.3968 44.3254 68.3829C48.4358 64.1914 50.9922 58.7233 51.5701 52.8814C51.6186 52.3684 51.651 51.8512 51.6712 51.3301C53.6435 51.421 55.5977 51.7563 57.4892 52.328L57.4346 52.3239H57.4367Z" fill="#FF6CE2"/>
<path d="M51.6649 51.6495C50.9051 51.8394 50.1109 51.8394 49.3511 51.6495C49.147 50.892 49.147 50.0941 49.3511 49.3366C50.0988 49.074 50.9152 49.074 51.6649 49.3366C51.958 50.08 51.958 50.9061 51.6649 51.6495Z" fill="#100F30"/>
<path d="M75.1433 50.678C73.8257 53.609 71.3825 55.8876 68.3674 57.0026C73.1589 61.6607 75.9517 67.9954 76.1598 74.6715C85.8559 74.2776 94.3515 68.0621 97.6596 58.9438C99.4865 52.5626 95.7924 45.9108 89.4085 44.0847C83.6733 42.4445 77.6027 45.2543 75.1454 50.6881V50.68L75.1433 50.678Z" fill="#00D5CB"/>
<path d="M52.3017 43.8986C52.4654 42.832 52.7745 41.7897 53.2171 40.8059C58.6734 28.7021 72.9123 23.3107 85.0212 28.7647C97.1302 34.2187 102.524 48.4516 97.0675 60.5555C99.7128 54.4672 96.92 47.3871 90.8271 44.7429C84.8515 42.1492 77.8957 44.7833 75.1413 50.6858C73.8237 53.6168 71.3805 55.8953 68.3654 57.0104C64.1701 52.9057 58.6997 50.3525 52.8574 49.7768C52.4532 49.7364 52.047 49.7101 51.6368 49.6899C51.5277 49.6899 51.6368 49.4899 51.5337 49.4859C51.5337 49.3546 51.3115 49.4132 51.3256 49.2798C51.4428 47.4416 51.7702 45.6216 52.3037 43.8602C52.3037 43.8662 52.3017 43.8824 52.2996 43.8986H52.3017Z" fill="#00FFF5"/>
<path d="M50.3252 49.6417C50.7718 49.6417 51.2043 49.6599 51.6428 49.6821C52.1905 36.7056 63.1576 26.6299 76.1396 27.1753C89.1215 27.7227 99.2015 38.6852 98.6558 51.6617C98.1405 63.8686 88.3616 73.6494 76.1497 74.1665C76.1719 74.6028 76.184 75.0412 76.184 75.4836C76.184 75.8229 76.1699 76.1522 76.1598 76.4915C90.427 75.934 101.542 63.9231 100.984 49.6619C100.426 35.4007 88.4101 24.2907 74.143 24.8482C60.6558 25.3754 49.8422 36.1845 49.3188 49.6659C49.6563 49.6538 49.9918 49.6417 50.3293 49.6417H50.3252Z" fill="#100F30"/>
<path d="M51.6914 50.3444C51.6914 50.7908 51.6793 51.2292 51.657 51.6614C64.639 52.1988 74.7291 63.1532 74.1915 76.1297C73.6702 88.7406 63.281 98.6911 50.6547 98.6749C38.0163 98.6749 27.6797 88.6173 27.1502 76.1115C26.7036 76.1337 26.2974 76.1519 25.8549 76.1519C25.5154 76.1519 25.1577 76.1317 24.8242 76.1176C25.3577 89.9021 36.7371 101 50.6547 101C64.932 100.994 76.5034 89.4193 76.4973 75.148C76.4913 61.2766 65.5302 49.8838 51.6631 49.3364C51.6773 49.6717 51.6894 50.0091 51.6894 50.3444H51.6914Z" fill="#100F30"/>
</g>
<defs>
<clipPath id="clip0_304_178">
<rect width="101" height="101" fill="white"/>
</clipPath>
</defs>
</svg>
