<svg width="535" height="535" viewBox="0 0 535 535" fill="none" xmlns="http://www.w3.org/2000/svg">
<g clip-path="url(#clip0_3457_150)">
<path d="M136.805 266.154C143.777 250.646 156.703 238.591 172.656 232.691C147.305 208.045 132.529 174.529 131.427 139.206C80.1478 141.301 35.2302 174.166 17.7272 222.388C8.06147 256.151 27.6067 291.345 61.3831 301.007C91.7274 309.685 123.847 294.818 136.848 266.069L136.816 266.154H136.805Z" fill="#D1D3D5"/>
<path d="M257.647 302.033C256.781 307.676 255.145 313.191 252.804 318.395C223.946 382.436 148.62 410.972 84.5419 382.126C20.4747 353.28 -8.0733 277.985 20.7847 213.934C6.78876 246.147 21.5653 283.607 53.802 297.597C85.4187 311.32 122.221 297.384 136.794 266.154C143.766 250.646 156.692 238.591 172.645 232.691C194.842 254.409 223.785 267.918 254.696 270.964C257.402 271.22 260.139 271.391 262.908 271.498C262.427 281.929 260.652 292.264 257.626 302.268C257.637 302.204 257.637 302.129 257.647 302.033Z" fill="#9FB1BE"/>
<path d="M268.137 271.637C265.774 271.637 263.453 271.573 261.165 271.455C258.246 340.113 200.199 393.401 131.513 390.483C62.8264 387.566 9.51545 329.543 12.4344 260.885C15.1823 196.332 66.9001 144.614 131.491 141.857C131.374 139.548 131.309 137.229 131.309 134.889C131.309 133.093 131.384 131.351 131.438 129.556C55.9621 132.505 -2.84465 196.065 0.106382 271.519C3.05741 346.974 66.6328 405.756 142.119 402.806C213.478 400.017 270.681 342.838 273.461 271.509C271.676 271.584 269.922 271.637 268.137 271.637Z" fill="#100F30"/>
<path d="M266.404 136.759C281.919 143.727 293.979 156.649 299.881 172.595C324.537 147.254 358.068 132.484 393.405 131.383C391.321 80.1039 358.421 35.1731 310.157 17.6774C276.38 8.01578 241.171 27.5528 231.505 61.315C222.823 91.6465 237.696 123.752 266.458 136.748H266.415L266.404 136.759Z" fill="#515159"/>
<g filter="url(#filter0_d_3457_150)">
<path d="M230.533 257.54C224.887 256.674 219.37 255.039 214.163 252.698C150.096 223.853 121.548 148.558 150.406 84.5071C179.264 20.4668 254.59 -8.06921 318.657 20.7767C286.431 6.78661 248.955 21.5569 234.959 53.7802C221.231 85.3835 235.173 122.17 266.415 136.738C281.93 143.706 293.99 156.627 299.892 172.573C278.166 194.761 264.651 223.692 261.604 254.59C261.347 257.305 261.176 260.041 261.069 262.798C250.634 262.317 240.295 260.543 230.287 257.519L230.522 257.54H230.533Z" fill="#7F7F7F"/>
</g>
<path d="M260.931 268.014C260.931 265.652 260.995 263.333 261.113 261.046C192.427 258.203 139.041 200.244 141.885 131.586C144.644 64.8633 199.612 12.216 266.416 12.3015C333.285 12.3015 387.975 65.4297 390.777 131.554C393.086 131.437 395.406 131.372 397.748 131.372C399.544 131.372 401.287 131.447 403.083 131.501C400.26 58.6217 340.053 0 266.416 0C190.876 0.0213753 129.643 61.2402 129.664 136.759C129.675 210.162 187.68 270.461 261.06 273.347C261.06 271.573 260.942 269.788 260.942 268.014H260.931Z" fill="#100F30"/>
<path d="M268.008 397.644C252.494 390.676 240.433 377.755 234.531 361.809C209.864 387.096 176.334 401.812 141.018 402.849C143.017 454.193 175.917 499.209 224.245 516.715C258.022 526.377 293.231 506.84 302.896 473.078C311.578 442.746 296.706 410.64 267.944 397.644H268.008Z" fill="#B5D5D9"/>
<path d="M303.891 276.842C309.537 277.708 315.054 279.343 320.261 281.683C384.328 310.529 412.876 385.824 384.018 449.875C355.16 513.915 279.834 542.451 215.756 513.605C247.982 527.595 285.458 512.825 299.454 480.602C313.183 448.998 299.24 412.211 267.998 397.644C252.483 390.676 240.423 377.754 234.521 361.809C256.268 339.632 269.794 310.7 272.852 279.792C273.108 277.077 273.28 274.341 273.386 271.583C283.822 272.064 294.161 273.839 304.169 276.863L303.88 276.842H303.891Z" fill="#94B4B9"/>
<path d="M273.355 273.272C269.335 274.277 265.133 274.277 261.113 273.272C260.033 269.264 260.033 265.043 261.113 261.035C265.069 259.645 269.388 259.645 273.355 261.035C274.906 264.968 274.906 269.339 273.355 273.272Z" fill="#100F30"/>
<path d="M397.575 268.131C390.604 283.639 377.677 295.695 361.725 301.594C387.076 326.24 401.852 359.756 402.953 395.079C454.254 392.995 499.204 360.109 516.707 311.865C526.373 278.103 506.827 242.909 473.051 233.247C442.707 224.569 410.588 239.435 397.586 268.185V268.142L397.575 268.131Z" fill="#CBCED0"/>
<path d="M276.722 232.264C277.588 226.621 279.224 221.106 281.566 215.901C310.435 151.861 385.771 123.335 449.839 152.192C513.906 181.049 542.443 256.354 513.574 320.394C527.57 288.181 512.794 250.721 480.557 236.731C448.941 223.008 412.138 236.945 397.565 268.174C390.594 283.682 377.667 295.738 361.714 301.637C339.517 279.92 310.574 266.411 279.663 263.365C277.524 263.151 275.375 263.012 273.205 262.905C272.627 262.905 273.205 261.847 272.659 261.826C272.659 261.131 271.483 261.441 271.558 260.736C272.178 251.01 273.91 241.38 276.733 232.061C276.733 232.093 276.722 232.178 276.712 232.264H276.722Z" fill="#7D8489"/>
<path d="M266.266 262.649C268.629 262.649 270.917 262.745 273.237 262.862C276.135 194.205 334.161 140.895 402.847 143.781C471.534 146.677 524.866 204.679 521.979 273.336C519.253 337.922 467.513 389.671 402.901 392.407C403.018 394.716 403.083 397.035 403.083 399.376C403.083 401.171 403.008 402.913 402.954 404.709C478.441 401.759 537.247 338.21 534.296 262.756C531.345 187.301 467.77 128.519 392.284 131.469C320.924 134.258 263.711 191.448 260.941 262.777C262.727 262.713 264.502 262.649 266.287 262.649H266.266Z" fill="#100F30"/>
<path d="M273.494 266.368C273.494 268.73 273.429 271.049 273.312 273.336C341.998 276.179 395.384 334.138 392.54 402.796C389.781 469.519 334.813 522.166 268.009 522.08C201.14 522.08 146.45 468.867 143.648 402.699C141.285 402.817 139.136 402.913 136.795 402.913C134.999 402.913 133.106 402.806 131.342 402.731C134.165 475.664 194.372 534.382 268.009 534.382C343.548 534.35 404.772 473.11 404.74 397.601C404.707 324.209 346.713 263.931 273.344 261.035C273.419 262.809 273.483 264.594 273.483 266.368H273.494Z" fill="#100F30"/>
</g>
<defs>
<filter id="filter0_d_3457_150" x="135.15" y="9.526" width="187.506" height="261.272" filterUnits="userSpaceOnUse" color-interpolation-filters="sRGB">
<feFlood flood-opacity="0" result="BackgroundImageFix"/>
<feColorMatrix in="SourceAlpha" type="matrix" values="0 0 0 0 0 0 0 0 0 0 0 0 0 0 0 0 0 0 127 0" result="hardAlpha"/>
<feOffset dy="4"/>
<feGaussianBlur stdDeviation="2"/>
<feComposite in2="hardAlpha" operator="out"/>
<feColorMatrix type="matrix" values="0 0 0 0 0 0 0 0 0 0 0 0 0 0 0 0 0 0 0.25 0"/>
<feBlend mode="normal" in2="BackgroundImageFix" result="effect1_dropShadow_3457_150"/>
<feBlend mode="normal" in="SourceGraphic" in2="effect1_dropShadow_3457_150" result="shape"/>
</filter>
<clipPath id="clip0_3457_150">
<rect width="534.382" height="534.382" fill="white"/>
</clipPath>
</defs>
</svg>
